<?xml version="1.0" encoding="UTF-8" standalone="no"?>
<!DOCTYPE svg PUBLIC "-//W3C//DTD SVG 1.1//EN"
 "http://www.w3.org/Graphics/SVG/1.1/DTD/svg11.dtd">
<!-- Generated by graphviz version 2.40.1 (20161225.0304)
 -->
<!-- Title: snakemake_dag Pages: 1 -->
<svg width="3098pt" height="478pt"
 viewBox="0.00 0.00 3098.43 478.00" xmlns="http://www.w3.org/2000/svg" xmlns:xlink="http://www.w3.org/1999/xlink">
<g id="graph0" class="graph" transform="scale(1 1) rotate(0) translate(4 474)">
<title>snakemake_dag</title>
<polygon fill="#ffffff" stroke="transparent" points="-4,4 -4,-474 3094.4277,-474 3094.4277,4 -4,4"/>
<!-- 0 -->
<g id="node1" class="node">
<title>0</title>
<path fill="none" stroke="#d85656" stroke-width="2" d="M2920.1348,-252C2920.1348,-252 2864.2929,-252 2864.2929,-252 2858.2929,-252 2852.2929,-246 2852.2929,-240 2852.2929,-240 2852.2929,-228 2852.2929,-228 2852.2929,-222 2858.2929,-216 2864.2929,-216 2864.2929,-216 2920.1348,-216 2920.1348,-216 2926.1348,-216 2932.1348,-222 2932.1348,-228 2932.1348,-228 2932.1348,-240 2932.1348,-240 2932.1348,-246 2926.1348,-252 2920.1348,-252"/>
<text text-anchor="middle" x="2892.2139" y="-236" font-family="sans" font-size="10.00" fill="#000000">remove_reads</text>
<text text-anchor="middle" x="2892.2139" y="-226" font-family="sans" font-size="10.00" fill="#000000">rep: b</text>
</g>
<!-- 49 -->
<g id="node50" class="node">
<title>49</title>
<path fill="none" stroke="#56a2d8" stroke-width="2" d="M2948.8859,-180C2948.8859,-180 2835.5419,-180 2835.5419,-180 2829.5419,-180 2823.5419,-174 2823.5419,-168 2823.5419,-168 2823.5419,-156 2823.5419,-156 2823.5419,-150 2829.5419,-144 2835.5419,-144 2835.5419,-144 2948.8859,-144 2948.8859,-144 2954.8859,-144 2960.8859,-150 2960.8859,-156 2960.8859,-156 2960.8859,-168 2960.8859,-168 2960.8859,-174 2954.8859,-180 2948.8859,-180"/>
<text text-anchor="middle" x="2892.2139" y="-159" font-family="sans" font-size="10.00" fill="#000000">call_variants_post_removal</text>
</g>
<!-- 0&#45;&gt;49 -->
<g id="edge61" class="edge">
<title>0&#45;&gt;49</title>
<path fill="none" stroke="#c0c0c0" stroke-width="2" d="M2892.2139,-215.8314C2892.2139,-208.131 2892.2139,-198.9743 2892.2139,-190.4166"/>
<polygon fill="#c0c0c0" stroke="#c0c0c0" stroke-width="2" points="2895.714,-190.4132 2892.2139,-180.4133 2888.714,-190.4133 2895.714,-190.4132"/>
</g>
<!-- 1 -->
<g id="node2" class="node">
<title>1</title>
<path fill="none" stroke="#56a2d8" stroke-width="2" d="M2793.8859,-180C2793.8859,-180 2680.5419,-180 2680.5419,-180 2674.5419,-180 2668.5419,-174 2668.5419,-168 2668.5419,-168 2668.5419,-156 2668.5419,-156 2668.5419,-150 2674.5419,-144 2680.5419,-144 2680.5419,-144 2793.8859,-144 2793.8859,-144 2799.8859,-144 2805.8859,-150 2805.8859,-156 2805.8859,-156 2805.8859,-168 2805.8859,-168 2805.8859,-174 2799.8859,-180 2793.8859,-180"/>
<text text-anchor="middle" x="2737.2139" y="-159" font-family="sans" font-size="10.00" fill="#000000">call_variants_post_removal</text>
</g>
<!-- 37 -->
<g id="node38" class="node">
<title>37</title>
<path fill="none" stroke="#c6d856" stroke-width="2" d="M2763.1831,-108C2763.1831,-108 2711.2446,-108 2711.2446,-108 2705.2446,-108 2699.2446,-102 2699.2446,-96 2699.2446,-96 2699.2446,-84 2699.2446,-84 2699.2446,-78 2705.2446,-72 2711.2446,-72 2711.2446,-72 2763.1831,-72 2763.1831,-72 2769.1831,-72 2775.1831,-78 2775.1831,-84 2775.1831,-84 2775.1831,-96 2775.1831,-96 2775.1831,-102 2769.1831,-108 2763.1831,-108"/>
<text text-anchor="middle" x="2737.2139" y="-87" font-family="sans" font-size="10.00" fill="#000000">filter_variants</text>
</g>
<!-- 1&#45;&gt;37 -->
<g id="edge49" class="edge">
<title>1&#45;&gt;37</title>
<path fill="none" stroke="#c0c0c0" stroke-width="2" d="M2737.2139,-143.8314C2737.2139,-136.131 2737.2139,-126.9743 2737.2139,-118.4166"/>
<polygon fill="#c0c0c0" stroke="#c0c0c0" stroke-width="2" points="2740.714,-118.4132 2737.2139,-108.4133 2733.714,-118.4133 2740.714,-118.4132"/>
</g>
<!-- 2 -->
<g id="node3" class="node">
<title>2</title>
<path fill="none" stroke="#d85656" stroke-width="2" d="M1618.1348,-252C1618.1348,-252 1562.2929,-252 1562.2929,-252 1556.2929,-252 1550.2929,-246 1550.2929,-240 1550.2929,-240 1550.2929,-228 1550.2929,-228 1550.2929,-222 1556.2929,-216 1562.2929,-216 1562.2929,-216 1618.1348,-216 1618.1348,-216 1624.1348,-216 1630.1348,-222 1630.1348,-228 1630.1348,-228 1630.1348,-240 1630.1348,-240 1630.1348,-246 1624.1348,-252 1618.1348,-252"/>
<text text-anchor="middle" x="1590.2139" y="-236" font-family="sans" font-size="10.00" fill="#000000">remove_reads</text>
<text text-anchor="middle" x="1590.2139" y="-226" font-family="sans" font-size="10.00" fill="#000000">rep: a</text>
</g>
<!-- 33 -->
<g id="node34" class="node">
<title>33</title>
<path fill="none" stroke="#56a2d8" stroke-width="2" d="M1646.8859,-180C1646.8859,-180 1533.5419,-180 1533.5419,-180 1527.5419,-180 1521.5419,-174 1521.5419,-168 1521.5419,-168 1521.5419,-156 1521.5419,-156 1521.5419,-150 1527.5419,-144 1533.5419,-144 1533.5419,-144 1646.8859,-144 1646.8859,-144 1652.8859,-144 1658.8859,-150 1658.8859,-156 1658.8859,-156 1658.8859,-168 1658.8859,-168 1658.8859,-174 1652.8859,-180 1646.8859,-180"/>
<text text-anchor="middle" x="1590.2139" y="-159" font-family="sans" font-size="10.00" fill="#000000">call_variants_post_removal</text>
</g>
<!-- 2&#45;&gt;33 -->
<g id="edge44" class="edge">
<title>2&#45;&gt;33</title>
<path fill="none" stroke="#c0c0c0" stroke-width="2" d="M1590.2139,-215.8314C1590.2139,-208.131 1590.2139,-198.9743 1590.2139,-190.4166"/>
<polygon fill="#c0c0c0" stroke="#c0c0c0" stroke-width="2" points="1593.714,-190.4132 1590.2139,-180.4133 1586.714,-190.4133 1593.714,-190.4132"/>
</g>
<!-- 3 -->
<g id="node4" class="node">
<title>3</title>
<path fill="none" stroke="#c6d856" stroke-width="2" d="M379.1831,-108C379.1831,-108 327.2446,-108 327.2446,-108 321.2446,-108 315.2446,-102 315.2446,-96 315.2446,-96 315.2446,-84 315.2446,-84 315.2446,-78 321.2446,-72 327.2446,-72 327.2446,-72 379.1831,-72 379.1831,-72 385.1831,-72 391.1831,-78 391.1831,-84 391.1831,-84 391.1831,-96 391.1831,-96 391.1831,-102 385.1831,-108 379.1831,-108"/>
<text text-anchor="middle" x="353.2139" y="-87" font-family="sans" font-size="10.00" fill="#000000">filter_variants</text>
</g>
<!-- 64 -->
<g id="node65" class="node">
<title>64</title>
<path fill="none" stroke="#56d8c9" stroke-width="2" d="M1527.2139,-36C1527.2139,-36 1497.2139,-36 1497.2139,-36 1491.2139,-36 1485.2139,-30 1485.2139,-24 1485.2139,-24 1485.2139,-12 1485.2139,-12 1485.2139,-6 1491.2139,0 1497.2139,0 1497.2139,0 1527.2139,0 1527.2139,0 1533.2139,0 1539.2139,-6 1539.2139,-12 1539.2139,-12 1539.2139,-24 1539.2139,-24 1539.2139,-30 1533.2139,-36 1527.2139,-36"/>
<text text-anchor="middle" x="1512.2139" y="-15" font-family="sans" font-size="10.00" fill="#000000">all</text>
</g>
<!-- 3&#45;&gt;64 -->
<g id="edge82" class="edge">
<title>3&#45;&gt;64</title>
<path fill="none" stroke="#c0c0c0" stroke-width="2" d="M391.1169,-87.6454C566.8004,-76.7315 1300.7033,-31.1396 1474.9742,-20.3134"/>
<polygon fill="#c0c0c0" stroke="#c0c0c0" stroke-width="2" points="1475.4104,-23.7932 1485.1741,-19.6798 1474.9763,-16.8066 1475.4104,-23.7932"/>
</g>
<!-- 4 -->
<g id="node5" class="node">
<title>4</title>
<path fill="none" stroke="#56a2d8" stroke-width="2" d="M2504.8859,-180C2504.8859,-180 2391.5419,-180 2391.5419,-180 2385.5419,-180 2379.5419,-174 2379.5419,-168 2379.5419,-168 2379.5419,-156 2379.5419,-156 2379.5419,-150 2385.5419,-144 2391.5419,-144 2391.5419,-144 2504.8859,-144 2504.8859,-144 2510.8859,-144 2516.8859,-150 2516.8859,-156 2516.8859,-156 2516.8859,-168 2516.8859,-168 2516.8859,-174 2510.8859,-180 2504.8859,-180"/>
<text text-anchor="middle" x="2448.2139" y="-159" font-family="sans" font-size="10.00" fill="#000000">call_variants_post_removal</text>
</g>
<!-- 63 -->
<g id="node64" class="node">
<title>63</title>
<path fill="none" stroke="#c6d856" stroke-width="2" d="M2319.1831,-108C2319.1831,-108 2267.2446,-108 2267.2446,-108 2261.2446,-108 2255.2446,-102 2255.2446,-96 2255.2446,-96 2255.2446,-84 2255.2446,-84 2255.2446,-78 2261.2446,-72 2267.2446,-72 2267.2446,-72 2319.1831,-72 2319.1831,-72 2325.1831,-72 2331.1831,-78 2331.1831,-84 2331.1831,-84 2331.1831,-96 2331.1831,-96 2331.1831,-102 2325.1831,-108 2319.1831,-108"/>
<text text-anchor="middle" x="2293.2139" y="-87" font-family="sans" font-size="10.00" fill="#000000">filter_variants</text>
</g>
<!-- 4&#45;&gt;63 -->
<g id="edge78" class="edge">
<title>4&#45;&gt;63</title>
<path fill="none" stroke="#c0c0c0" stroke-width="2" d="M2409.1008,-143.8314C2388.1487,-134.0988 2362.1888,-122.04 2340.1536,-111.8043"/>
<polygon fill="#c0c0c0" stroke="#c0c0c0" stroke-width="2" points="2341.5201,-108.5799 2330.9763,-107.5412 2338.571,-114.9284 2341.5201,-108.5799"/>
</g>
<!-- 5 -->
<g id="node6" class="node">
<title>5</title>
<path fill="none" stroke="#d8a456" stroke-width="2" d="M253.0169,-324C253.0169,-324 203.4109,-324 203.4109,-324 197.4109,-324 191.4109,-318 191.4109,-312 191.4109,-312 191.4109,-300 191.4109,-300 191.4109,-294 197.4109,-288 203.4109,-288 203.4109,-288 253.0169,-288 253.0169,-288 259.0169,-288 265.0169,-294 265.0169,-300 265.0169,-300 265.0169,-312 265.0169,-312 265.0169,-318 259.0169,-324 253.0169,-324"/>
<text text-anchor="middle" x="228.2139" y="-308" font-family="sans" font-size="10.00" fill="#000000">get_masked</text>
<text text-anchor="middle" x="228.2139" y="-298" font-family="sans" font-size="10.00" fill="#000000">sample: ZI26</text>
</g>
<!-- 26 -->
<g id="node27" class="node">
<title>26</title>
<path fill="none" stroke="#d85656" stroke-width="2" d="M226.1348,-252C226.1348,-252 170.2929,-252 170.2929,-252 164.2929,-252 158.2929,-246 158.2929,-240 158.2929,-240 158.2929,-228 158.2929,-228 158.2929,-222 164.2929,-216 170.2929,-216 170.2929,-216 226.1348,-216 226.1348,-216 232.1348,-216 238.1348,-222 238.1348,-228 238.1348,-228 238.1348,-240 238.1348,-240 238.1348,-246 232.1348,-252 226.1348,-252"/>
<text text-anchor="middle" x="198.2139" y="-236" font-family="sans" font-size="10.00" fill="#000000">remove_reads</text>
<text text-anchor="middle" x="198.2139" y="-226" font-family="sans" font-size="10.00" fill="#000000">rep: a</text>
</g>
<!-- 5&#45;&gt;26 -->
<g id="edge35" class="edge">
<title>5&#45;&gt;26</title>
<path fill="none" stroke="#c0c0c0" stroke-width="2" d="M220.6436,-287.8314C217.3646,-279.9617 213.4518,-270.5712 209.8194,-261.8533"/>
<polygon fill="#c0c0c0" stroke="#c0c0c0" stroke-width="2" points="212.963,-260.2979 205.8861,-252.4133 206.5015,-262.9902 212.963,-260.2979"/>
</g>
<!-- 40 -->
<g id="node41" class="node">
<title>40</title>
<path fill="none" stroke="#d85656" stroke-width="2" d="M352.1348,-252C352.1348,-252 296.2929,-252 296.2929,-252 290.2929,-252 284.2929,-246 284.2929,-240 284.2929,-240 284.2929,-228 284.2929,-228 284.2929,-222 290.2929,-216 296.2929,-216 296.2929,-216 352.1348,-216 352.1348,-216 358.1348,-216 364.1348,-222 364.1348,-228 364.1348,-228 364.1348,-240 364.1348,-240 364.1348,-246 358.1348,-252 352.1348,-252"/>
<text text-anchor="middle" x="324.2139" y="-236" font-family="sans" font-size="10.00" fill="#000000">remove_reads</text>
<text text-anchor="middle" x="324.2139" y="-226" font-family="sans" font-size="10.00" fill="#000000">rep: b</text>
</g>
<!-- 5&#45;&gt;40 -->
<g id="edge52" class="edge">
<title>5&#45;&gt;40</title>
<path fill="none" stroke="#c0c0c0" stroke-width="2" d="M252.4387,-287.8314C264.3766,-278.8779 278.9394,-267.9558 291.8199,-258.2955"/>
<polygon fill="#c0c0c0" stroke="#c0c0c0" stroke-width="2" points="294.0968,-260.9629 299.9968,-252.1628 289.8967,-255.3629 294.0968,-260.9629"/>
</g>
<!-- 6 -->
<g id="node7" class="node">
<title>6</title>
<path fill="none" stroke="#d85656" stroke-width="2" d="M1906.1348,-252C1906.1348,-252 1850.2929,-252 1850.2929,-252 1844.2929,-252 1838.2929,-246 1838.2929,-240 1838.2929,-240 1838.2929,-228 1838.2929,-228 1838.2929,-222 1844.2929,-216 1850.2929,-216 1850.2929,-216 1906.1348,-216 1906.1348,-216 1912.1348,-216 1918.1348,-222 1918.1348,-228 1918.1348,-228 1918.1348,-240 1918.1348,-240 1918.1348,-246 1912.1348,-252 1906.1348,-252"/>
<text text-anchor="middle" x="1878.2139" y="-236" font-family="sans" font-size="10.00" fill="#000000">remove_reads</text>
<text text-anchor="middle" x="1878.2139" y="-226" font-family="sans" font-size="10.00" fill="#000000">rep: b</text>
</g>
<!-- 30 -->
<g id="node31" class="node">
<title>30</title>
<path fill="none" stroke="#56a2d8" stroke-width="2" d="M1912.8859,-180C1912.8859,-180 1799.5419,-180 1799.5419,-180 1793.5419,-180 1787.5419,-174 1787.5419,-168 1787.5419,-168 1787.5419,-156 1787.5419,-156 1787.5419,-150 1793.5419,-144 1799.5419,-144 1799.5419,-144 1912.8859,-144 1912.8859,-144 1918.8859,-144 1924.8859,-150 1924.8859,-156 1924.8859,-156 1924.8859,-168 1924.8859,-168 1924.8859,-174 1918.8859,-180 1912.8859,-180"/>
<text text-anchor="middle" x="1856.2139" y="-159" font-family="sans" font-size="10.00" fill="#000000">call_variants_post_removal</text>
</g>
<!-- 6&#45;&gt;30 -->
<g id="edge42" class="edge">
<title>6&#45;&gt;30</title>
<path fill="none" stroke="#c0c0c0" stroke-width="2" d="M1872.6623,-215.8314C1870.2836,-208.0463 1867.45,-198.7729 1864.8106,-190.1347"/>
<polygon fill="#c0c0c0" stroke="#c0c0c0" stroke-width="2" points="1868.1096,-188.954 1861.8401,-180.4133 1861.4152,-190.9996 1868.1096,-188.954"/>
</g>
<!-- 7 -->
<g id="node8" class="node">
<title>7</title>
<path fill="none" stroke="#56a2d8" stroke-width="2" d="M1142.8859,-180C1142.8859,-180 1029.5419,-180 1029.5419,-180 1023.5419,-180 1017.5419,-174 1017.5419,-168 1017.5419,-168 1017.5419,-156 1017.5419,-156 1017.5419,-150 1023.5419,-144 1029.5419,-144 1029.5419,-144 1142.8859,-144 1142.8859,-144 1148.8859,-144 1154.8859,-150 1154.8859,-156 1154.8859,-156 1154.8859,-168 1154.8859,-168 1154.8859,-174 1148.8859,-180 1142.8859,-180"/>
<text text-anchor="middle" x="1086.2139" y="-159" font-family="sans" font-size="10.00" fill="#000000">call_variants_post_removal</text>
</g>
<!-- 14 -->
<g id="node15" class="node">
<title>14</title>
<path fill="none" stroke="#c6d856" stroke-width="2" d="M1267.1831,-108C1267.1831,-108 1215.2446,-108 1215.2446,-108 1209.2446,-108 1203.2446,-102 1203.2446,-96 1203.2446,-96 1203.2446,-84 1203.2446,-84 1203.2446,-78 1209.2446,-72 1215.2446,-72 1215.2446,-72 1267.1831,-72 1267.1831,-72 1273.1831,-72 1279.1831,-78 1279.1831,-84 1279.1831,-84 1279.1831,-96 1279.1831,-96 1279.1831,-102 1273.1831,-108 1267.1831,-108"/>
<text text-anchor="middle" x="1241.2139" y="-87" font-family="sans" font-size="10.00" fill="#000000">filter_variants</text>
</g>
<!-- 7&#45;&gt;14 -->
<g id="edge22" class="edge">
<title>7&#45;&gt;14</title>
<path fill="none" stroke="#c0c0c0" stroke-width="2" d="M1125.3269,-143.8314C1146.279,-134.0988 1172.2389,-122.04 1194.2741,-111.8043"/>
<polygon fill="#c0c0c0" stroke="#c0c0c0" stroke-width="2" points="1195.8567,-114.9284 1203.4515,-107.5412 1192.9077,-108.5799 1195.8567,-114.9284"/>
</g>
<!-- 8 -->
<g id="node9" class="node">
<title>8</title>
<path fill="none" stroke="#56a2d8" stroke-width="2" d="M853.8859,-180C853.8859,-180 740.5419,-180 740.5419,-180 734.5419,-180 728.5419,-174 728.5419,-168 728.5419,-168 728.5419,-156 728.5419,-156 728.5419,-150 734.5419,-144 740.5419,-144 740.5419,-144 853.8859,-144 853.8859,-144 859.8859,-144 865.8859,-150 865.8859,-156 865.8859,-156 865.8859,-168 865.8859,-168 865.8859,-174 859.8859,-180 853.8859,-180"/>
<text text-anchor="middle" x="797.2139" y="-159" font-family="sans" font-size="10.00" fill="#000000">call_variants_post_removal</text>
</g>
<!-- 12 -->
<g id="node13" class="node">
<title>12</title>
<path fill="none" stroke="#c6d856" stroke-width="2" d="M823.1831,-108C823.1831,-108 771.2446,-108 771.2446,-108 765.2446,-108 759.2446,-102 759.2446,-96 759.2446,-96 759.2446,-84 759.2446,-84 759.2446,-78 765.2446,-72 771.2446,-72 771.2446,-72 823.1831,-72 823.1831,-72 829.1831,-72 835.1831,-78 835.1831,-84 835.1831,-84 835.1831,-96 835.1831,-96 835.1831,-102 829.1831,-108 823.1831,-108"/>
<text text-anchor="middle" x="797.2139" y="-87" font-family="sans" font-size="10.00" fill="#000000">filter_variants</text>
</g>
<!-- 8&#45;&gt;12 -->
<g id="edge18" class="edge">
<title>8&#45;&gt;12</title>
<path fill="none" stroke="#c0c0c0" stroke-width="2" d="M797.2139,-143.8314C797.2139,-136.131 797.2139,-126.9743 797.2139,-118.4166"/>
<polygon fill="#c0c0c0" stroke="#c0c0c0" stroke-width="2" points="800.714,-118.4132 797.2139,-108.4133 793.714,-118.4133 800.714,-118.4132"/>
</g>
<!-- 9 -->
<g id="node10" class="node">
<title>9</title>
<path fill="none" stroke="#d8a456" stroke-width="2" d="M2457.0169,-324C2457.0169,-324 2407.4109,-324 2407.4109,-324 2401.4109,-324 2395.4109,-318 2395.4109,-312 2395.4109,-312 2395.4109,-300 2395.4109,-300 2395.4109,-294 2401.4109,-288 2407.4109,-288 2407.4109,-288 2457.0169,-288 2457.0169,-288 2463.0169,-288 2469.0169,-294 2469.0169,-300 2469.0169,-300 2469.0169,-312 2469.0169,-312 2469.0169,-318 2463.0169,-324 2457.0169,-324"/>
<text text-anchor="middle" x="2432.2139" y="-308" font-family="sans" font-size="10.00" fill="#000000">get_masked</text>
<text text-anchor="middle" x="2432.2139" y="-298" font-family="sans" font-size="10.00" fill="#000000">sample: ZI27</text>
</g>
<!-- 29 -->
<g id="node30" class="node">
<title>29</title>
<path fill="none" stroke="#d85656" stroke-width="2" d="M2476.1348,-252C2476.1348,-252 2420.2929,-252 2420.2929,-252 2414.2929,-252 2408.2929,-246 2408.2929,-240 2408.2929,-240 2408.2929,-228 2408.2929,-228 2408.2929,-222 2414.2929,-216 2420.2929,-216 2420.2929,-216 2476.1348,-216 2476.1348,-216 2482.1348,-216 2488.1348,-222 2488.1348,-228 2488.1348,-228 2488.1348,-240 2488.1348,-240 2488.1348,-246 2482.1348,-252 2476.1348,-252"/>
<text text-anchor="middle" x="2448.2139" y="-236" font-family="sans" font-size="10.00" fill="#000000">remove_reads</text>
<text text-anchor="middle" x="2448.2139" y="-226" font-family="sans" font-size="10.00" fill="#000000">rep: b</text>
</g>
<!-- 9&#45;&gt;29 -->
<g id="edge40" class="edge">
<title>9&#45;&gt;29</title>
<path fill="none" stroke="#c0c0c0" stroke-width="2" d="M2436.2513,-287.8314C2437.9625,-280.131 2439.9973,-270.9743 2441.8991,-262.4166"/>
<polygon fill="#c0c0c0" stroke="#c0c0c0" stroke-width="2" points="2445.3693,-262.9344 2444.122,-252.4133 2438.536,-261.4159 2445.3693,-262.9344"/>
</g>
<!-- 50 -->
<g id="node51" class="node">
<title>50</title>
<path fill="none" stroke="#d85656" stroke-width="2" d="M2350.1348,-252C2350.1348,-252 2294.2929,-252 2294.2929,-252 2288.2929,-252 2282.2929,-246 2282.2929,-240 2282.2929,-240 2282.2929,-228 2282.2929,-228 2282.2929,-222 2288.2929,-216 2294.2929,-216 2294.2929,-216 2350.1348,-216 2350.1348,-216 2356.1348,-216 2362.1348,-222 2362.1348,-228 2362.1348,-228 2362.1348,-240 2362.1348,-240 2362.1348,-246 2356.1348,-252 2350.1348,-252"/>
<text text-anchor="middle" x="2322.2139" y="-236" font-family="sans" font-size="10.00" fill="#000000">remove_reads</text>
<text text-anchor="middle" x="2322.2139" y="-226" font-family="sans" font-size="10.00" fill="#000000">rep: a</text>
</g>
<!-- 9&#45;&gt;50 -->
<g id="edge62" class="edge">
<title>9&#45;&gt;50</title>
<path fill="none" stroke="#c0c0c0" stroke-width="2" d="M2404.4562,-287.8314C2390.5168,-278.7074 2373.4541,-267.539 2358.4907,-257.7449"/>
<polygon fill="#c0c0c0" stroke="#c0c0c0" stroke-width="2" points="2360.2465,-254.711 2349.9626,-252.1628 2356.4128,-260.5679 2360.2465,-254.711"/>
</g>
<!-- 10 -->
<g id="node11" class="node">
<title>10</title>
<path fill="none" stroke="#56d87b" stroke-width="2" d="M2190.642,-470C2190.642,-470 2009.7857,-470 2009.7857,-470 2003.7857,-470 1997.7857,-464 1997.7857,-458 1997.7857,-458 1997.7857,-444 1997.7857,-444 1997.7857,-438 2003.7857,-432 2009.7857,-432 2009.7857,-432 2190.642,-432 2190.642,-432 2196.642,-432 2202.642,-438 2202.642,-444 2202.642,-444 2202.642,-458 2202.642,-458 2202.642,-464 2196.642,-470 2190.642,-470"/>
<text text-anchor="middle" x="2100.2139" y="-458" font-family="sans" font-size="10.00" fill="#000000">trim_primer_quality</text>
<text text-anchor="middle" x="2100.2139" y="-448" font-family="sans" font-size="10.00" fill="#000000">out_dir: /Users/karthik/hpc_downloads/test</text>
<text text-anchor="middle" x="2100.2139" y="-438" font-family="sans" font-size="10.00" fill="#000000">sample: ZI50a</text>
</g>
<!-- 55 -->
<g id="node56" class="node">
<title>55</title>
<path fill="none" stroke="#d85656" stroke-width="2" d="M2039.1348,-252C2039.1348,-252 1983.2929,-252 1983.2929,-252 1977.2929,-252 1971.2929,-246 1971.2929,-240 1971.2929,-240 1971.2929,-228 1971.2929,-228 1971.2929,-222 1977.2929,-216 1983.2929,-216 1983.2929,-216 2039.1348,-216 2039.1348,-216 2045.1348,-216 2051.1348,-222 2051.1348,-228 2051.1348,-228 2051.1348,-240 2051.1348,-240 2051.1348,-246 2045.1348,-252 2039.1348,-252"/>
<text text-anchor="middle" x="2011.2139" y="-236" font-family="sans" font-size="10.00" fill="#000000">remove_reads</text>
<text text-anchor="middle" x="2011.2139" y="-226" font-family="sans" font-size="10.00" fill="#000000">rep: a</text>
</g>
<!-- 10&#45;&gt;55 -->
<g id="edge68" class="edge">
<title>10&#45;&gt;55</title>
<path fill="none" stroke="#c0c0c0" stroke-width="2" d="M2097.3141,-431.7404C2094.1381,-413.0143 2088.2586,-383.968 2079.2139,-360 2065.6135,-323.9597 2043.5608,-285.3811 2028.2727,-260.5441"/>
<polygon fill="#c0c0c0" stroke="#c0c0c0" stroke-width="2" points="2031.235,-258.6799 2022.9745,-252.0455 2025.2948,-262.3832 2031.235,-258.6799"/>
</g>
<!-- 65 -->
<g id="node66" class="node">
<title>65</title>
<path fill="none" stroke="#78d856" stroke-width="2" d="M2057.7961,-396C2057.7961,-396 2010.6316,-396 2010.6316,-396 2004.6316,-396 1998.6316,-390 1998.6316,-384 1998.6316,-384 1998.6316,-372 1998.6316,-372 1998.6316,-366 2004.6316,-360 2010.6316,-360 2010.6316,-360 2057.7961,-360 2057.7961,-360 2063.7961,-360 2069.7961,-366 2069.7961,-372 2069.7961,-372 2069.7961,-384 2069.7961,-384 2069.7961,-390 2063.7961,-396 2057.7961,-396"/>
<text text-anchor="middle" x="2034.2139" y="-375" font-family="sans" font-size="10.00" fill="#000000">call_variants</text>
</g>
<!-- 10&#45;&gt;65 -->
<g id="edge86" class="edge">
<title>10&#45;&gt;65</title>
<path fill="none" stroke="#c0c0c0" stroke-width="2" d="M2082.8731,-431.8201C2075.1153,-423.2394 2065.8543,-412.9962 2057.5039,-403.7601"/>
<polygon fill="#c0c0c0" stroke="#c0c0c0" stroke-width="2" points="2060.0594,-401.3679 2050.7567,-396.2973 2054.8669,-406.0624 2060.0594,-401.3679"/>
</g>
<!-- 11 -->
<g id="node12" class="node">
<title>11</title>
<path fill="none" stroke="#78d856" stroke-width="2" d="M1522.7961,-396C1522.7961,-396 1475.6316,-396 1475.6316,-396 1469.6316,-396 1463.6316,-390 1463.6316,-384 1463.6316,-384 1463.6316,-372 1463.6316,-372 1463.6316,-366 1469.6316,-360 1475.6316,-360 1475.6316,-360 1522.7961,-360 1522.7961,-360 1528.7961,-360 1534.7961,-366 1534.7961,-372 1534.7961,-372 1534.7961,-384 1534.7961,-384 1534.7961,-390 1528.7961,-396 1522.7961,-396"/>
<text text-anchor="middle" x="1499.2139" y="-375" font-family="sans" font-size="10.00" fill="#000000">call_variants</text>
</g>
<!-- 21 -->
<g id="node22" class="node">
<title>21</title>
<path fill="none" stroke="#d8a456" stroke-width="2" d="M1615.0169,-324C1615.0169,-324 1565.4109,-324 1565.4109,-324 1559.4109,-324 1553.4109,-318 1553.4109,-312 1553.4109,-312 1553.4109,-300 1553.4109,-300 1553.4109,-294 1559.4109,-288 1565.4109,-288 1565.4109,-288 1615.0169,-288 1615.0169,-288 1621.0169,-288 1627.0169,-294 1627.0169,-300 1627.0169,-300 1627.0169,-312 1627.0169,-312 1627.0169,-318 1621.0169,-324 1615.0169,-324"/>
<text text-anchor="middle" x="1590.2139" y="-308" font-family="sans" font-size="10.00" fill="#000000">get_masked</text>
<text text-anchor="middle" x="1590.2139" y="-298" font-family="sans" font-size="10.00" fill="#000000">sample: ZI49</text>
</g>
<!-- 11&#45;&gt;21 -->
<g id="edge30" class="edge">
<title>11&#45;&gt;21</title>
<path fill="none" stroke="#c0c0c0" stroke-width="2" d="M1522.177,-359.8314C1533.3854,-350.9632 1547.0348,-340.1637 1559.1578,-330.5718"/>
<polygon fill="#c0c0c0" stroke="#c0c0c0" stroke-width="2" points="1561.5875,-333.1125 1567.2581,-324.1628 1557.2441,-327.6229 1561.5875,-333.1125"/>
</g>
<!-- 12&#45;&gt;64 -->
<g id="edge79" class="edge">
<title>12&#45;&gt;64</title>
<path fill="none" stroke="#c0c0c0" stroke-width="2" d="M835.1506,-86.1798C959.1442,-73.6937 1351.5272,-34.181 1474.7849,-21.7691"/>
<polygon fill="#c0c0c0" stroke="#c0c0c0" stroke-width="2" points="1475.2641,-25.2386 1484.8631,-20.7542 1474.5627,-18.2738 1475.2641,-25.2386"/>
</g>
<!-- 13 -->
<g id="node14" class="node">
<title>13</title>
<path fill="none" stroke="#78d856" stroke-width="2" d="M1613.7961,-396C1613.7961,-396 1566.6316,-396 1566.6316,-396 1560.6316,-396 1554.6316,-390 1554.6316,-384 1554.6316,-384 1554.6316,-372 1554.6316,-372 1554.6316,-366 1560.6316,-360 1566.6316,-360 1566.6316,-360 1613.7961,-360 1613.7961,-360 1619.7961,-360 1625.7961,-366 1625.7961,-372 1625.7961,-372 1625.7961,-384 1625.7961,-384 1625.7961,-390 1619.7961,-396 1613.7961,-396"/>
<text text-anchor="middle" x="1590.2139" y="-375" font-family="sans" font-size="10.00" fill="#000000">call_variants</text>
</g>
<!-- 13&#45;&gt;21 -->
<g id="edge29" class="edge">
<title>13&#45;&gt;21</title>
<path fill="none" stroke="#c0c0c0" stroke-width="2" d="M1590.2139,-359.8314C1590.2139,-352.131 1590.2139,-342.9743 1590.2139,-334.4166"/>
<polygon fill="#c0c0c0" stroke="#c0c0c0" stroke-width="2" points="1593.714,-334.4132 1590.2139,-324.4133 1586.714,-334.4133 1593.714,-334.4132"/>
</g>
<!-- 14&#45;&gt;64 -->
<g id="edge84" class="edge">
<title>14&#45;&gt;64</title>
<path fill="none" stroke="#c0c0c0" stroke-width="2" d="M1279.1806,-79.9129C1331.2121,-66.089 1424.0609,-41.4207 1475.4529,-27.7667"/>
<polygon fill="#c0c0c0" stroke="#c0c0c0" stroke-width="2" points="1476.3882,-31.1398 1485.1542,-25.1893 1474.5908,-24.3745 1476.3882,-31.1398"/>
</g>
<!-- 15 -->
<g id="node16" class="node">
<title>15</title>
<path fill="none" stroke="#78d856" stroke-width="2" d="M727.7961,-396C727.7961,-396 680.6316,-396 680.6316,-396 674.6316,-396 668.6316,-390 668.6316,-384 668.6316,-384 668.6316,-372 668.6316,-372 668.6316,-366 674.6316,-360 680.6316,-360 680.6316,-360 727.7961,-360 727.7961,-360 733.7961,-360 739.7961,-366 739.7961,-372 739.7961,-372 739.7961,-384 739.7961,-384 739.7961,-390 733.7961,-396 727.7961,-396"/>
<text text-anchor="middle" x="704.2139" y="-375" font-family="sans" font-size="10.00" fill="#000000">call_variants</text>
</g>
<!-- 66 -->
<g id="node67" class="node">
<title>66</title>
<path fill="none" stroke="#d8a456" stroke-width="2" d="M712.0169,-324C712.0169,-324 662.4109,-324 662.4109,-324 656.4109,-324 650.4109,-318 650.4109,-312 650.4109,-312 650.4109,-300 650.4109,-300 650.4109,-294 656.4109,-288 662.4109,-288 662.4109,-288 712.0169,-288 712.0169,-288 718.0169,-288 724.0169,-294 724.0169,-300 724.0169,-300 724.0169,-312 724.0169,-312 724.0169,-318 718.0169,-324 712.0169,-324"/>
<text text-anchor="middle" x="687.2139" y="-308" font-family="sans" font-size="10.00" fill="#000000">get_masked</text>
<text text-anchor="middle" x="687.2139" y="-298" font-family="sans" font-size="10.00" fill="#000000">sample: ZI53</text>
</g>
<!-- 15&#45;&gt;66 -->
<g id="edge87" class="edge">
<title>15&#45;&gt;66</title>
<path fill="none" stroke="#c0c0c0" stroke-width="2" d="M699.924,-359.8314C698.1059,-352.131 695.9439,-342.9743 693.9234,-334.4166"/>
<polygon fill="#c0c0c0" stroke="#c0c0c0" stroke-width="2" points="697.2658,-333.3414 691.5614,-324.4133 690.4531,-334.95 697.2658,-333.3414"/>
</g>
<!-- 16 -->
<g id="node17" class="node">
<title>16</title>
<path fill="none" stroke="#78d856" stroke-width="2" d="M1966.7961,-396C1966.7961,-396 1919.6316,-396 1919.6316,-396 1913.6316,-396 1907.6316,-390 1907.6316,-384 1907.6316,-384 1907.6316,-372 1907.6316,-372 1907.6316,-366 1913.6316,-360 1919.6316,-360 1919.6316,-360 1966.7961,-360 1966.7961,-360 1972.7961,-360 1978.7961,-366 1978.7961,-372 1978.7961,-372 1978.7961,-384 1978.7961,-384 1978.7961,-390 1972.7961,-396 1966.7961,-396"/>
<text text-anchor="middle" x="1943.2139" y="-375" font-family="sans" font-size="10.00" fill="#000000">call_variants</text>
</g>
<!-- 24 -->
<g id="node25" class="node">
<title>24</title>
<path fill="none" stroke="#d8a456" stroke-width="2" d="M1991.0169,-324C1991.0169,-324 1941.4109,-324 1941.4109,-324 1935.4109,-324 1929.4109,-318 1929.4109,-312 1929.4109,-312 1929.4109,-300 1929.4109,-300 1929.4109,-294 1935.4109,-288 1941.4109,-288 1941.4109,-288 1991.0169,-288 1991.0169,-288 1997.0169,-288 2003.0169,-294 2003.0169,-300 2003.0169,-300 2003.0169,-312 2003.0169,-312 2003.0169,-318 1997.0169,-324 1991.0169,-324"/>
<text text-anchor="middle" x="1966.2139" y="-308" font-family="sans" font-size="10.00" fill="#000000">get_masked</text>
<text text-anchor="middle" x="1966.2139" y="-298" font-family="sans" font-size="10.00" fill="#000000">sample: ZI50</text>
</g>
<!-- 16&#45;&gt;24 -->
<g id="edge32" class="edge">
<title>16&#45;&gt;24</title>
<path fill="none" stroke="#c0c0c0" stroke-width="2" d="M1949.0177,-359.8314C1951.5046,-352.0463 1954.467,-342.7729 1957.2264,-334.1347"/>
<polygon fill="#c0c0c0" stroke="#c0c0c0" stroke-width="2" points="1960.6229,-335.0041 1960.3319,-324.4133 1953.9548,-332.874 1960.6229,-335.0041"/>
</g>
<!-- 17 -->
<g id="node18" class="node">
<title>17</title>
<path fill="none" stroke="#d8a456" stroke-width="2" d="M2901.0169,-324C2901.0169,-324 2851.4109,-324 2851.4109,-324 2845.4109,-324 2839.4109,-318 2839.4109,-312 2839.4109,-312 2839.4109,-300 2839.4109,-300 2839.4109,-294 2845.4109,-288 2851.4109,-288 2851.4109,-288 2901.0169,-288 2901.0169,-288 2907.0169,-288 2913.0169,-294 2913.0169,-300 2913.0169,-300 2913.0169,-312 2913.0169,-312 2913.0169,-318 2907.0169,-324 2901.0169,-324"/>
<text text-anchor="middle" x="2876.2139" y="-308" font-family="sans" font-size="10.00" fill="#000000">get_masked</text>
<text text-anchor="middle" x="2876.2139" y="-298" font-family="sans" font-size="10.00" fill="#000000">sample: ZI51</text>
</g>
<!-- 17&#45;&gt;0 -->
<g id="edge2" class="edge">
<title>17&#45;&gt;0</title>
<path fill="none" stroke="#c0c0c0" stroke-width="2" d="M2880.2513,-287.8314C2881.9625,-280.131 2883.9973,-270.9743 2885.8991,-262.4166"/>
<polygon fill="#c0c0c0" stroke="#c0c0c0" stroke-width="2" points="2889.3693,-262.9344 2888.122,-252.4133 2882.536,-261.4159 2889.3693,-262.9344"/>
</g>
<!-- 57 -->
<g id="node58" class="node">
<title>57</title>
<path fill="none" stroke="#d85656" stroke-width="2" d="M2794.1348,-252C2794.1348,-252 2738.2929,-252 2738.2929,-252 2732.2929,-252 2726.2929,-246 2726.2929,-240 2726.2929,-240 2726.2929,-228 2726.2929,-228 2726.2929,-222 2732.2929,-216 2738.2929,-216 2738.2929,-216 2794.1348,-216 2794.1348,-216 2800.1348,-216 2806.1348,-222 2806.1348,-228 2806.1348,-228 2806.1348,-240 2806.1348,-240 2806.1348,-246 2800.1348,-252 2794.1348,-252"/>
<text text-anchor="middle" x="2766.2139" y="-236" font-family="sans" font-size="10.00" fill="#000000">remove_reads</text>
<text text-anchor="middle" x="2766.2139" y="-226" font-family="sans" font-size="10.00" fill="#000000">rep: a</text>
</g>
<!-- 17&#45;&gt;57 -->
<g id="edge71" class="edge">
<title>17&#45;&gt;57</title>
<path fill="none" stroke="#c0c0c0" stroke-width="2" d="M2848.4562,-287.8314C2834.5168,-278.7074 2817.4541,-267.539 2802.4907,-257.7449"/>
<polygon fill="#c0c0c0" stroke="#c0c0c0" stroke-width="2" points="2804.2465,-254.711 2793.9626,-252.1628 2800.4128,-260.5679 2804.2465,-254.711"/>
</g>
<!-- 18 -->
<g id="node19" class="node">
<title>18</title>
<path fill="none" stroke="#78d856" stroke-width="2" d="M635.7961,-396C635.7961,-396 588.6316,-396 588.6316,-396 582.6316,-396 576.6316,-390 576.6316,-384 576.6316,-384 576.6316,-372 576.6316,-372 576.6316,-366 582.6316,-360 588.6316,-360 588.6316,-360 635.7961,-360 635.7961,-360 641.7961,-360 647.7961,-366 647.7961,-372 647.7961,-372 647.7961,-384 647.7961,-384 647.7961,-390 641.7961,-396 635.7961,-396"/>
<text text-anchor="middle" x="612.2139" y="-375" font-family="sans" font-size="10.00" fill="#000000">call_variants</text>
</g>
<!-- 18&#45;&gt;66 -->
<g id="edge88" class="edge">
<title>18&#45;&gt;66</title>
<path fill="none" stroke="#c0c0c0" stroke-width="2" d="M631.1395,-359.8314C640.1996,-351.1337 651.1948,-340.5783 661.0404,-331.1265"/>
<polygon fill="#c0c0c0" stroke="#c0c0c0" stroke-width="2" points="663.5042,-333.613 668.2943,-324.1628 658.6565,-328.5633 663.5042,-333.613"/>
</g>
<!-- 19 -->
<g id="node20" class="node">
<title>19</title>
<path fill="none" stroke="#56d87b" stroke-width="2" d="M2634.642,-470C2634.642,-470 2453.7857,-470 2453.7857,-470 2447.7857,-470 2441.7857,-464 2441.7857,-458 2441.7857,-458 2441.7857,-444 2441.7857,-444 2441.7857,-438 2447.7857,-432 2453.7857,-432 2453.7857,-432 2634.642,-432 2634.642,-432 2640.642,-432 2646.642,-438 2646.642,-444 2646.642,-444 2646.642,-458 2646.642,-458 2646.642,-464 2640.642,-470 2634.642,-470"/>
<text text-anchor="middle" x="2544.2139" y="-458" font-family="sans" font-size="10.00" fill="#000000">trim_primer_quality</text>
<text text-anchor="middle" x="2544.2139" y="-448" font-family="sans" font-size="10.00" fill="#000000">out_dir: /Users/karthik/hpc_downloads/test</text>
<text text-anchor="middle" x="2544.2139" y="-438" font-family="sans" font-size="10.00" fill="#000000">sample: ZI27b</text>
</g>
<!-- 20 -->
<g id="node21" class="node">
<title>20</title>
<path fill="none" stroke="#78d856" stroke-width="2" d="M2501.7961,-396C2501.7961,-396 2454.6316,-396 2454.6316,-396 2448.6316,-396 2442.6316,-390 2442.6316,-384 2442.6316,-384 2442.6316,-372 2442.6316,-372 2442.6316,-366 2448.6316,-360 2454.6316,-360 2454.6316,-360 2501.7961,-360 2501.7961,-360 2507.7961,-360 2513.7961,-366 2513.7961,-372 2513.7961,-372 2513.7961,-384 2513.7961,-384 2513.7961,-390 2507.7961,-396 2501.7961,-396"/>
<text text-anchor="middle" x="2478.2139" y="-375" font-family="sans" font-size="10.00" fill="#000000">call_variants</text>
</g>
<!-- 19&#45;&gt;20 -->
<g id="edge28" class="edge">
<title>19&#45;&gt;20</title>
<path fill="none" stroke="#c0c0c0" stroke-width="2" d="M2526.8731,-431.8201C2519.1153,-423.2394 2509.8543,-412.9962 2501.5039,-403.7601"/>
<polygon fill="#c0c0c0" stroke="#c0c0c0" stroke-width="2" points="2504.0594,-401.3679 2494.7567,-396.2973 2498.8669,-406.0624 2504.0594,-401.3679"/>
</g>
<!-- 19&#45;&gt;29 -->
<g id="edge41" class="edge">
<title>19&#45;&gt;29</title>
<path fill="none" stroke="#c0c0c0" stroke-width="2" d="M2541.5346,-431.6545C2538.5221,-412.8647 2532.7602,-383.7727 2523.2139,-360 2508.5975,-323.6014 2484.407,-285.3743 2467.4618,-260.7049"/>
<polygon fill="#c0c0c0" stroke="#c0c0c0" stroke-width="2" points="2470.1656,-258.4629 2461.5778,-252.258 2464.4218,-262.464 2470.1656,-258.4629"/>
</g>
<!-- 20&#45;&gt;9 -->
<g id="edge15" class="edge">
<title>20&#45;&gt;9</title>
<path fill="none" stroke="#c0c0c0" stroke-width="2" d="M2466.6061,-359.8314C2461.4161,-351.7079 2455.1907,-341.9637 2449.4714,-333.0118"/>
<polygon fill="#c0c0c0" stroke="#c0c0c0" stroke-width="2" points="2452.3113,-330.9559 2443.9779,-324.4133 2446.4124,-334.7246 2452.3113,-330.9559"/>
</g>
<!-- 21&#45;&gt;2 -->
<g id="edge5" class="edge">
<title>21&#45;&gt;2</title>
<path fill="none" stroke="#c0c0c0" stroke-width="2" d="M1590.2139,-287.8314C1590.2139,-280.131 1590.2139,-270.9743 1590.2139,-262.4166"/>
<polygon fill="#c0c0c0" stroke="#c0c0c0" stroke-width="2" points="1593.714,-262.4132 1590.2139,-252.4133 1586.714,-262.4133 1593.714,-262.4132"/>
</g>
<!-- 58 -->
<g id="node59" class="node">
<title>58</title>
<path fill="none" stroke="#d85656" stroke-width="2" d="M1463.1348,-252C1463.1348,-252 1407.2929,-252 1407.2929,-252 1401.2929,-252 1395.2929,-246 1395.2929,-240 1395.2929,-240 1395.2929,-228 1395.2929,-228 1395.2929,-222 1401.2929,-216 1407.2929,-216 1407.2929,-216 1463.1348,-216 1463.1348,-216 1469.1348,-216 1475.1348,-222 1475.1348,-228 1475.1348,-228 1475.1348,-240 1475.1348,-240 1475.1348,-246 1469.1348,-252 1463.1348,-252"/>
<text text-anchor="middle" x="1435.2139" y="-236" font-family="sans" font-size="10.00" fill="#000000">remove_reads</text>
<text text-anchor="middle" x="1435.2139" y="-226" font-family="sans" font-size="10.00" fill="#000000">rep: b</text>
</g>
<!-- 21&#45;&gt;58 -->
<g id="edge73" class="edge">
<title>21&#45;&gt;58</title>
<path fill="none" stroke="#c0c0c0" stroke-width="2" d="M1553.0875,-288.7542C1532.2421,-279.0712 1505.9901,-266.8767 1483.5548,-256.4552"/>
<polygon fill="#c0c0c0" stroke="#c0c0c0" stroke-width="2" points="1484.7441,-253.1484 1474.2003,-252.1098 1481.7951,-259.497 1484.7441,-253.1484"/>
</g>
<!-- 22 -->
<g id="node23" class="node">
<title>22</title>
<path fill="none" stroke="#56d87b" stroke-width="2" d="M1968.642,-470C1968.642,-470 1787.7857,-470 1787.7857,-470 1781.7857,-470 1775.7857,-464 1775.7857,-458 1775.7857,-458 1775.7857,-444 1775.7857,-444 1775.7857,-438 1781.7857,-432 1787.7857,-432 1787.7857,-432 1968.642,-432 1968.642,-432 1974.642,-432 1980.642,-438 1980.642,-444 1980.642,-444 1980.642,-458 1980.642,-458 1980.642,-464 1974.642,-470 1968.642,-470"/>
<text text-anchor="middle" x="1878.2139" y="-458" font-family="sans" font-size="10.00" fill="#000000">trim_primer_quality</text>
<text text-anchor="middle" x="1878.2139" y="-448" font-family="sans" font-size="10.00" fill="#000000">out_dir: /Users/karthik/hpc_downloads/test</text>
<text text-anchor="middle" x="1878.2139" y="-438" font-family="sans" font-size="10.00" fill="#000000">sample: ZI50b</text>
</g>
<!-- 22&#45;&gt;6 -->
<g id="edge11" class="edge">
<title>22&#45;&gt;6</title>
<path fill="none" stroke="#c0c0c0" stroke-width="2" d="M1878.2139,-431.7427C1878.2139,-393.4125 1878.2139,-307.4051 1878.2139,-262.5083"/>
<polygon fill="#c0c0c0" stroke="#c0c0c0" stroke-width="2" points="1881.714,-262.2909 1878.2139,-252.291 1874.714,-262.291 1881.714,-262.2909"/>
</g>
<!-- 22&#45;&gt;16 -->
<g id="edge24" class="edge">
<title>22&#45;&gt;16</title>
<path fill="none" stroke="#c0c0c0" stroke-width="2" d="M1895.2919,-431.8201C1902.8558,-423.3252 1911.8706,-413.2009 1920.0298,-404.0375"/>
<polygon fill="#c0c0c0" stroke="#c0c0c0" stroke-width="2" points="1922.8857,-406.0933 1926.9217,-396.2973 1917.6577,-401.4383 1922.8857,-406.0933"/>
</g>
<!-- 23 -->
<g id="node24" class="node">
<title>23</title>
<path fill="none" stroke="#78d856" stroke-width="2" d="M1171.7961,-396C1171.7961,-396 1124.6316,-396 1124.6316,-396 1118.6316,-396 1112.6316,-390 1112.6316,-384 1112.6316,-384 1112.6316,-372 1112.6316,-372 1112.6316,-366 1118.6316,-360 1124.6316,-360 1124.6316,-360 1171.7961,-360 1171.7961,-360 1177.7961,-360 1183.7961,-366 1183.7961,-372 1183.7961,-372 1183.7961,-384 1183.7961,-384 1183.7961,-390 1177.7961,-396 1171.7961,-396"/>
<text text-anchor="middle" x="1148.2139" y="-375" font-family="sans" font-size="10.00" fill="#000000">call_variants</text>
</g>
<!-- 70 -->
<g id="node71" class="node">
<title>70</title>
<path fill="none" stroke="#d8a456" stroke-width="2" d="M1127.0169,-324C1127.0169,-324 1077.4109,-324 1077.4109,-324 1071.4109,-324 1065.4109,-318 1065.4109,-312 1065.4109,-312 1065.4109,-300 1065.4109,-300 1065.4109,-294 1071.4109,-288 1077.4109,-288 1077.4109,-288 1127.0169,-288 1127.0169,-288 1133.0169,-288 1139.0169,-294 1139.0169,-300 1139.0169,-300 1139.0169,-312 1139.0169,-312 1139.0169,-318 1133.0169,-324 1127.0169,-324"/>
<text text-anchor="middle" x="1102.2139" y="-308" font-family="sans" font-size="10.00" fill="#000000">get_masked</text>
<text text-anchor="middle" x="1102.2139" y="-298" font-family="sans" font-size="10.00" fill="#000000">sample: ZI52</text>
</g>
<!-- 23&#45;&gt;70 -->
<g id="edge90" class="edge">
<title>23&#45;&gt;70</title>
<path fill="none" stroke="#c0c0c0" stroke-width="2" d="M1136.6061,-359.8314C1131.4161,-351.7079 1125.1907,-341.9637 1119.4714,-333.0118"/>
<polygon fill="#c0c0c0" stroke="#c0c0c0" stroke-width="2" points="1122.3113,-330.9559 1113.9779,-324.4133 1116.4124,-334.7246 1122.3113,-330.9559"/>
</g>
<!-- 24&#45;&gt;6 -->
<g id="edge12" class="edge">
<title>24&#45;&gt;6</title>
<path fill="none" stroke="#c0c0c0" stroke-width="2" d="M1944.0078,-287.8314C1933.1689,-278.9632 1919.9695,-268.1637 1908.2461,-258.5718"/>
<polygon fill="#c0c0c0" stroke="#c0c0c0" stroke-width="2" points="1910.3688,-255.7864 1900.4129,-252.1628 1905.9361,-261.2041 1910.3688,-255.7864"/>
</g>
<!-- 24&#45;&gt;55 -->
<g id="edge67" class="edge">
<title>24&#45;&gt;55</title>
<path fill="none" stroke="#c0c0c0" stroke-width="2" d="M1977.5693,-287.8314C1982.6465,-279.7079 1988.7365,-269.9637 1994.3315,-261.0118"/>
<polygon fill="#c0c0c0" stroke="#c0c0c0" stroke-width="2" points="1997.3735,-262.7483 1999.7056,-252.4133 1991.4375,-259.0383 1997.3735,-262.7483"/>
</g>
<!-- 25 -->
<g id="node26" class="node">
<title>25</title>
<path fill="none" stroke="#56d87b" stroke-width="2" d="M192.642,-470C192.642,-470 11.7857,-470 11.7857,-470 5.7857,-470 -.2143,-464 -.2143,-458 -.2143,-458 -.2143,-444 -.2143,-444 -.2143,-438 5.7857,-432 11.7857,-432 11.7857,-432 192.642,-432 192.642,-432 198.642,-432 204.642,-438 204.642,-444 204.642,-444 204.642,-458 204.642,-458 204.642,-464 198.642,-470 192.642,-470"/>
<text text-anchor="middle" x="102.2139" y="-458" font-family="sans" font-size="10.00" fill="#000000">trim_primer_quality</text>
<text text-anchor="middle" x="102.2139" y="-448" font-family="sans" font-size="10.00" fill="#000000">out_dir: /Users/karthik/hpc_downloads/test</text>
<text text-anchor="middle" x="102.2139" y="-438" font-family="sans" font-size="10.00" fill="#000000">sample: ZI26a</text>
</g>
<!-- 25&#45;&gt;26 -->
<g id="edge34" class="edge">
<title>25&#45;&gt;26</title>
<path fill="none" stroke="#c0c0c0" stroke-width="2" d="M105.1866,-431.6707C108.4655,-412.8929 114.5901,-383.8095 124.2139,-360 138.8616,-323.7608 162.6834,-285.5012 179.3301,-260.7807"/>
<polygon fill="#c0c0c0" stroke="#c0c0c0" stroke-width="2" points="182.3619,-262.5472 185.1082,-252.3145 176.5801,-258.6012 182.3619,-262.5472"/>
</g>
<!-- 54 -->
<g id="node55" class="node">
<title>54</title>
<path fill="none" stroke="#78d856" stroke-width="2" d="M192.7961,-396C192.7961,-396 145.6316,-396 145.6316,-396 139.6316,-396 133.6316,-390 133.6316,-384 133.6316,-384 133.6316,-372 133.6316,-372 133.6316,-366 139.6316,-360 145.6316,-360 145.6316,-360 192.7961,-360 192.7961,-360 198.7961,-360 204.7961,-366 204.7961,-372 204.7961,-372 204.7961,-384 204.7961,-384 204.7961,-390 198.7961,-396 192.7961,-396"/>
<text text-anchor="middle" x="169.2139" y="-375" font-family="sans" font-size="10.00" fill="#000000">call_variants</text>
</g>
<!-- 25&#45;&gt;54 -->
<g id="edge66" class="edge">
<title>25&#45;&gt;54</title>
<path fill="none" stroke="#c0c0c0" stroke-width="2" d="M119.8173,-431.8201C127.6928,-423.2394 137.0941,-412.9962 145.571,-403.7601"/>
<polygon fill="#c0c0c0" stroke="#c0c0c0" stroke-width="2" points="148.2372,-406.0314 152.4204,-396.2973 143.08,-401.2981 148.2372,-406.0314"/>
</g>
<!-- 62 -->
<g id="node63" class="node">
<title>62</title>
<path fill="none" stroke="#56a2d8" stroke-width="2" d="M254.8859,-180C254.8859,-180 141.5419,-180 141.5419,-180 135.5419,-180 129.5419,-174 129.5419,-168 129.5419,-168 129.5419,-156 129.5419,-156 129.5419,-150 135.5419,-144 141.5419,-144 141.5419,-144 254.8859,-144 254.8859,-144 260.8859,-144 266.8859,-150 266.8859,-156 266.8859,-156 266.8859,-168 266.8859,-168 266.8859,-174 260.8859,-180 254.8859,-180"/>
<text text-anchor="middle" x="198.2139" y="-159" font-family="sans" font-size="10.00" fill="#000000">call_variants_post_removal</text>
</g>
<!-- 26&#45;&gt;62 -->
<g id="edge76" class="edge">
<title>26&#45;&gt;62</title>
<path fill="none" stroke="#c0c0c0" stroke-width="2" d="M198.2139,-215.8314C198.2139,-208.131 198.2139,-198.9743 198.2139,-190.4166"/>
<polygon fill="#c0c0c0" stroke="#c0c0c0" stroke-width="2" points="201.714,-190.4132 198.2139,-180.4133 194.714,-190.4133 201.714,-190.4132"/>
</g>
<!-- 27 -->
<g id="node28" class="node">
<title>27</title>
<path fill="none" stroke="#c6d856" stroke-width="2" d="M1538.1831,-108C1538.1831,-108 1486.2446,-108 1486.2446,-108 1480.2446,-108 1474.2446,-102 1474.2446,-96 1474.2446,-96 1474.2446,-84 1474.2446,-84 1474.2446,-78 1480.2446,-72 1486.2446,-72 1486.2446,-72 1538.1831,-72 1538.1831,-72 1544.1831,-72 1550.1831,-78 1550.1831,-84 1550.1831,-84 1550.1831,-96 1550.1831,-96 1550.1831,-102 1544.1831,-108 1538.1831,-108"/>
<text text-anchor="middle" x="1512.2139" y="-87" font-family="sans" font-size="10.00" fill="#000000">filter_variants</text>
</g>
<!-- 27&#45;&gt;64 -->
<g id="edge85" class="edge">
<title>27&#45;&gt;64</title>
<path fill="none" stroke="#c0c0c0" stroke-width="2" d="M1512.2139,-71.8314C1512.2139,-64.131 1512.2139,-54.9743 1512.2139,-46.4166"/>
<polygon fill="#c0c0c0" stroke="#c0c0c0" stroke-width="2" points="1515.714,-46.4132 1512.2139,-36.4133 1508.714,-46.4133 1515.714,-46.4132"/>
</g>
<!-- 28 -->
<g id="node29" class="node">
<title>28</title>
<path fill="none" stroke="#d85656" stroke-width="2" d="M1114.1348,-252C1114.1348,-252 1058.2929,-252 1058.2929,-252 1052.2929,-252 1046.2929,-246 1046.2929,-240 1046.2929,-240 1046.2929,-228 1046.2929,-228 1046.2929,-222 1052.2929,-216 1058.2929,-216 1058.2929,-216 1114.1348,-216 1114.1348,-216 1120.1348,-216 1126.1348,-222 1126.1348,-228 1126.1348,-228 1126.1348,-240 1126.1348,-240 1126.1348,-246 1120.1348,-252 1114.1348,-252"/>
<text text-anchor="middle" x="1086.2139" y="-236" font-family="sans" font-size="10.00" fill="#000000">remove_reads</text>
<text text-anchor="middle" x="1086.2139" y="-226" font-family="sans" font-size="10.00" fill="#000000">rep: a</text>
</g>
<!-- 28&#45;&gt;7 -->
<g id="edge13" class="edge">
<title>28&#45;&gt;7</title>
<path fill="none" stroke="#c0c0c0" stroke-width="2" d="M1086.2139,-215.8314C1086.2139,-208.131 1086.2139,-198.9743 1086.2139,-190.4166"/>
<polygon fill="#c0c0c0" stroke="#c0c0c0" stroke-width="2" points="1089.714,-190.4132 1086.2139,-180.4133 1082.714,-190.4133 1089.714,-190.4132"/>
</g>
<!-- 29&#45;&gt;4 -->
<g id="edge8" class="edge">
<title>29&#45;&gt;4</title>
<path fill="none" stroke="#c0c0c0" stroke-width="2" d="M2448.2139,-215.8314C2448.2139,-208.131 2448.2139,-198.9743 2448.2139,-190.4166"/>
<polygon fill="#c0c0c0" stroke="#c0c0c0" stroke-width="2" points="2451.714,-190.4132 2448.2139,-180.4133 2444.714,-190.4133 2451.714,-190.4132"/>
</g>
<!-- 41 -->
<g id="node42" class="node">
<title>41</title>
<path fill="none" stroke="#c6d856" stroke-width="2" d="M1882.1831,-108C1882.1831,-108 1830.2446,-108 1830.2446,-108 1824.2446,-108 1818.2446,-102 1818.2446,-96 1818.2446,-96 1818.2446,-84 1818.2446,-84 1818.2446,-78 1824.2446,-72 1830.2446,-72 1830.2446,-72 1882.1831,-72 1882.1831,-72 1888.1831,-72 1894.1831,-78 1894.1831,-84 1894.1831,-84 1894.1831,-96 1894.1831,-96 1894.1831,-102 1888.1831,-108 1882.1831,-108"/>
<text text-anchor="middle" x="1856.2139" y="-87" font-family="sans" font-size="10.00" fill="#000000">filter_variants</text>
</g>
<!-- 30&#45;&gt;41 -->
<g id="edge53" class="edge">
<title>30&#45;&gt;41</title>
<path fill="none" stroke="#c0c0c0" stroke-width="2" d="M1856.2139,-143.8314C1856.2139,-136.131 1856.2139,-126.9743 1856.2139,-118.4166"/>
<polygon fill="#c0c0c0" stroke="#c0c0c0" stroke-width="2" points="1859.714,-118.4132 1856.2139,-108.4133 1852.714,-118.4133 1859.714,-118.4132"/>
</g>
<!-- 31 -->
<g id="node32" class="node">
<title>31</title>
<path fill="none" stroke="#78d856" stroke-width="2" d="M2855.7961,-396C2855.7961,-396 2808.6316,-396 2808.6316,-396 2802.6316,-396 2796.6316,-390 2796.6316,-384 2796.6316,-384 2796.6316,-372 2796.6316,-372 2796.6316,-366 2802.6316,-360 2808.6316,-360 2808.6316,-360 2855.7961,-360 2855.7961,-360 2861.7961,-360 2867.7961,-366 2867.7961,-372 2867.7961,-372 2867.7961,-384 2867.7961,-384 2867.7961,-390 2861.7961,-396 2855.7961,-396"/>
<text text-anchor="middle" x="2832.2139" y="-375" font-family="sans" font-size="10.00" fill="#000000">call_variants</text>
</g>
<!-- 31&#45;&gt;17 -->
<g id="edge25" class="edge">
<title>31&#45;&gt;17</title>
<path fill="none" stroke="#c0c0c0" stroke-width="2" d="M2843.3169,-359.8314C2848.2813,-351.7079 2854.236,-341.9637 2859.7067,-333.0118"/>
<polygon fill="#c0c0c0" stroke="#c0c0c0" stroke-width="2" points="2862.7333,-334.7712 2864.9613,-324.4133 2856.7603,-331.121 2862.7333,-334.7712"/>
</g>
<!-- 32 -->
<g id="node33" class="node">
<title>32</title>
<path fill="none" stroke="#56d87b" stroke-width="2" d="M3078.642,-470C3078.642,-470 2897.7857,-470 2897.7857,-470 2891.7857,-470 2885.7857,-464 2885.7857,-458 2885.7857,-458 2885.7857,-444 2885.7857,-444 2885.7857,-438 2891.7857,-432 2897.7857,-432 2897.7857,-432 3078.642,-432 3078.642,-432 3084.642,-432 3090.642,-438 3090.642,-444 3090.642,-444 3090.642,-458 3090.642,-458 3090.642,-464 3084.642,-470 3078.642,-470"/>
<text text-anchor="middle" x="2988.2139" y="-458" font-family="sans" font-size="10.00" fill="#000000">trim_primer_quality</text>
<text text-anchor="middle" x="2988.2139" y="-448" font-family="sans" font-size="10.00" fill="#000000">out_dir: /Users/karthik/hpc_downloads/test</text>
<text text-anchor="middle" x="2988.2139" y="-438" font-family="sans" font-size="10.00" fill="#000000">sample: ZI51b</text>
</g>
<!-- 32&#45;&gt;0 -->
<g id="edge1" class="edge">
<title>32&#45;&gt;0</title>
<path fill="none" stroke="#c0c0c0" stroke-width="2" d="M2985.8799,-431.9953C2983.1502,-413.2073 2977.7428,-383.889 2968.2139,-360 2953.6306,-323.4401 2929.0712,-285.2458 2911.8269,-260.6281"/>
<polygon fill="#c0c0c0" stroke="#c0c0c0" stroke-width="2" points="2914.4831,-258.3239 2905.8367,-252.2009 2908.7776,-262.3794 2914.4831,-258.3239"/>
</g>
<!-- 53 -->
<g id="node54" class="node">
<title>53</title>
<path fill="none" stroke="#78d856" stroke-width="2" d="M2946.7961,-396C2946.7961,-396 2899.6316,-396 2899.6316,-396 2893.6316,-396 2887.6316,-390 2887.6316,-384 2887.6316,-384 2887.6316,-372 2887.6316,-372 2887.6316,-366 2893.6316,-360 2899.6316,-360 2899.6316,-360 2946.7961,-360 2946.7961,-360 2952.7961,-360 2958.7961,-366 2958.7961,-372 2958.7961,-372 2958.7961,-384 2958.7961,-384 2958.7961,-390 2952.7961,-396 2946.7961,-396"/>
<text text-anchor="middle" x="2923.2139" y="-375" font-family="sans" font-size="10.00" fill="#000000">call_variants</text>
</g>
<!-- 32&#45;&gt;53 -->
<g id="edge65" class="edge">
<title>32&#45;&gt;53</title>
<path fill="none" stroke="#c0c0c0" stroke-width="2" d="M2971.1359,-431.8201C2963.5719,-423.3252 2954.5571,-413.2009 2946.398,-404.0375"/>
<polygon fill="#c0c0c0" stroke="#c0c0c0" stroke-width="2" points="2948.77,-401.4383 2939.506,-396.2973 2943.5421,-406.0933 2948.77,-401.4383"/>
</g>
<!-- 33&#45;&gt;27 -->
<g id="edge37" class="edge">
<title>33&#45;&gt;27</title>
<path fill="none" stroke="#c0c0c0" stroke-width="2" d="M1570.5312,-143.8314C1561.1088,-135.1337 1549.6737,-124.5783 1539.4343,-115.1265"/>
<polygon fill="#c0c0c0" stroke="#c0c0c0" stroke-width="2" points="1541.6123,-112.3738 1531.8903,-108.1628 1536.8643,-117.5175 1541.6123,-112.3738"/>
</g>
<!-- 34 -->
<g id="node35" class="node">
<title>34</title>
<path fill="none" stroke="#d85656" stroke-width="2" d="M796.1348,-252C796.1348,-252 740.2929,-252 740.2929,-252 734.2929,-252 728.2929,-246 728.2929,-240 728.2929,-240 728.2929,-228 728.2929,-228 728.2929,-222 734.2929,-216 740.2929,-216 740.2929,-216 796.1348,-216 796.1348,-216 802.1348,-216 808.1348,-222 808.1348,-228 808.1348,-228 808.1348,-240 808.1348,-240 808.1348,-246 802.1348,-252 796.1348,-252"/>
<text text-anchor="middle" x="768.2139" y="-236" font-family="sans" font-size="10.00" fill="#000000">remove_reads</text>
<text text-anchor="middle" x="768.2139" y="-226" font-family="sans" font-size="10.00" fill="#000000">rep: a</text>
</g>
<!-- 34&#45;&gt;8 -->
<g id="edge14" class="edge">
<title>34&#45;&gt;8</title>
<path fill="none" stroke="#c0c0c0" stroke-width="2" d="M775.5318,-215.8314C778.7015,-207.9617 782.4838,-198.5712 785.9952,-189.8533"/>
<polygon fill="#c0c0c0" stroke="#c0c0c0" stroke-width="2" points="789.3078,-190.9968 789.7974,-180.4133 782.8147,-188.3815 789.3078,-190.9968"/>
</g>
<!-- 35 -->
<g id="node36" class="node">
<title>35</title>
<path fill="none" stroke="#78d856" stroke-width="2" d="M283.7961,-396C283.7961,-396 236.6316,-396 236.6316,-396 230.6316,-396 224.6316,-390 224.6316,-384 224.6316,-384 224.6316,-372 224.6316,-372 224.6316,-366 230.6316,-360 236.6316,-360 236.6316,-360 283.7961,-360 283.7961,-360 289.7961,-360 295.7961,-366 295.7961,-372 295.7961,-372 295.7961,-384 295.7961,-384 295.7961,-390 289.7961,-396 283.7961,-396"/>
<text text-anchor="middle" x="260.2139" y="-375" font-family="sans" font-size="10.00" fill="#000000">call_variants</text>
</g>
<!-- 35&#45;&gt;5 -->
<g id="edge9" class="edge">
<title>35&#45;&gt;5</title>
<path fill="none" stroke="#c0c0c0" stroke-width="2" d="M252.1389,-359.8314C248.6037,-351.8771 244.3779,-342.369 240.4682,-333.5723"/>
<polygon fill="#c0c0c0" stroke="#c0c0c0" stroke-width="2" points="243.6573,-332.1299 236.3975,-324.4133 237.2606,-334.9729 243.6573,-332.1299"/>
</g>
<!-- 36 -->
<g id="node37" class="node">
<title>36</title>
<path fill="none" stroke="#56a2d8" stroke-width="2" d="M2349.8859,-180C2349.8859,-180 2236.5419,-180 2236.5419,-180 2230.5419,-180 2224.5419,-174 2224.5419,-168 2224.5419,-168 2224.5419,-156 2224.5419,-156 2224.5419,-150 2230.5419,-144 2236.5419,-144 2236.5419,-144 2349.8859,-144 2349.8859,-144 2355.8859,-144 2361.8859,-150 2361.8859,-156 2361.8859,-156 2361.8859,-168 2361.8859,-168 2361.8859,-174 2355.8859,-180 2349.8859,-180"/>
<text text-anchor="middle" x="2293.2139" y="-159" font-family="sans" font-size="10.00" fill="#000000">call_variants_post_removal</text>
</g>
<!-- 36&#45;&gt;63 -->
<g id="edge77" class="edge">
<title>36&#45;&gt;63</title>
<path fill="none" stroke="#c0c0c0" stroke-width="2" d="M2293.2139,-143.8314C2293.2139,-136.131 2293.2139,-126.9743 2293.2139,-118.4166"/>
<polygon fill="#c0c0c0" stroke="#c0c0c0" stroke-width="2" points="2296.714,-118.4132 2293.2139,-108.4133 2289.714,-118.4133 2296.714,-118.4132"/>
</g>
<!-- 37&#45;&gt;64 -->
<g id="edge80" class="edge">
<title>37&#45;&gt;64</title>
<path fill="none" stroke="#c0c0c0" stroke-width="2" d="M2699.2088,-87.7662C2516.575,-77.0318 1730.4946,-30.8296 1549.4856,-20.1907"/>
<polygon fill="#c0c0c0" stroke="#c0c0c0" stroke-width="2" points="1549.5864,-16.6906 1539.3982,-19.5978 1549.1756,-23.6786 1549.5864,-16.6906"/>
</g>
<!-- 38 -->
<g id="node39" class="node">
<title>38</title>
<path fill="none" stroke="#56d87b" stroke-width="2" d="M636.642,-470C636.642,-470 455.7857,-470 455.7857,-470 449.7857,-470 443.7857,-464 443.7857,-458 443.7857,-458 443.7857,-444 443.7857,-444 443.7857,-438 449.7857,-432 455.7857,-432 455.7857,-432 636.642,-432 636.642,-432 642.642,-432 648.642,-438 648.642,-444 648.642,-444 648.642,-458 648.642,-458 648.642,-464 642.642,-470 636.642,-470"/>
<text text-anchor="middle" x="546.2139" y="-458" font-family="sans" font-size="10.00" fill="#000000">trim_primer_quality</text>
<text text-anchor="middle" x="546.2139" y="-448" font-family="sans" font-size="10.00" fill="#000000">out_dir: /Users/karthik/hpc_downloads/test</text>
<text text-anchor="middle" x="546.2139" y="-438" font-family="sans" font-size="10.00" fill="#000000">sample: ZI53b</text>
</g>
<!-- 38&#45;&gt;18 -->
<g id="edge27" class="edge">
<title>38&#45;&gt;18</title>
<path fill="none" stroke="#c0c0c0" stroke-width="2" d="M563.5546,-431.8201C571.3125,-423.2394 580.5735,-412.9962 588.9239,-403.7601"/>
<polygon fill="#c0c0c0" stroke="#c0c0c0" stroke-width="2" points="591.5608,-406.0624 595.6711,-396.2973 586.3683,-401.3679 591.5608,-406.0624"/>
</g>
<!-- 47 -->
<g id="node48" class="node">
<title>47</title>
<path fill="none" stroke="#d85656" stroke-width="2" d="M670.1348,-252C670.1348,-252 614.2929,-252 614.2929,-252 608.2929,-252 602.2929,-246 602.2929,-240 602.2929,-240 602.2929,-228 602.2929,-228 602.2929,-222 608.2929,-216 614.2929,-216 614.2929,-216 670.1348,-216 670.1348,-216 676.1348,-216 682.1348,-222 682.1348,-228 682.1348,-228 682.1348,-240 682.1348,-240 682.1348,-246 676.1348,-252 670.1348,-252"/>
<text text-anchor="middle" x="642.2139" y="-236" font-family="sans" font-size="10.00" fill="#000000">remove_reads</text>
<text text-anchor="middle" x="642.2139" y="-226" font-family="sans" font-size="10.00" fill="#000000">rep: b</text>
</g>
<!-- 38&#45;&gt;47 -->
<g id="edge57" class="edge">
<title>38&#45;&gt;47</title>
<path fill="none" stroke="#c0c0c0" stroke-width="2" d="M548.8932,-431.6545C551.9057,-412.8647 557.6676,-383.7727 567.2139,-360 581.8303,-323.6014 606.0207,-285.3743 622.9659,-260.7049"/>
<polygon fill="#c0c0c0" stroke="#c0c0c0" stroke-width="2" points="626.0059,-262.464 628.8499,-252.258 620.2621,-258.4629 626.0059,-262.464"/>
</g>
<!-- 39 -->
<g id="node40" class="node">
<title>39</title>
<path fill="none" stroke="#56d87b" stroke-width="2" d="M1746.642,-470C1746.642,-470 1565.7857,-470 1565.7857,-470 1559.7857,-470 1553.7857,-464 1553.7857,-458 1553.7857,-458 1553.7857,-444 1553.7857,-444 1553.7857,-438 1559.7857,-432 1565.7857,-432 1565.7857,-432 1746.642,-432 1746.642,-432 1752.642,-432 1758.642,-438 1758.642,-444 1758.642,-444 1758.642,-458 1758.642,-458 1758.642,-464 1752.642,-470 1746.642,-470"/>
<text text-anchor="middle" x="1656.2139" y="-458" font-family="sans" font-size="10.00" fill="#000000">trim_primer_quality</text>
<text text-anchor="middle" x="1656.2139" y="-448" font-family="sans" font-size="10.00" fill="#000000">out_dir: /Users/karthik/hpc_downloads/test</text>
<text text-anchor="middle" x="1656.2139" y="-438" font-family="sans" font-size="10.00" fill="#000000">sample: ZI49a</text>
</g>
<!-- 39&#45;&gt;2 -->
<g id="edge4" class="edge">
<title>39&#45;&gt;2</title>
<path fill="none" stroke="#c0c0c0" stroke-width="2" d="M1657.3287,-431.9941C1658.4335,-400.5994 1657.5382,-336.5538 1636.2139,-288 1631.7104,-277.7461 1624.602,-267.9631 1617.3075,-259.6103"/>
<polygon fill="#c0c0c0" stroke="#c0c0c0" stroke-width="2" points="1619.695,-257.037 1610.3358,-252.0716 1614.5557,-261.7897 1619.695,-257.037"/>
</g>
<!-- 39&#45;&gt;13 -->
<g id="edge20" class="edge">
<title>39&#45;&gt;13</title>
<path fill="none" stroke="#c0c0c0" stroke-width="2" d="M1638.8731,-431.8201C1631.1153,-423.2394 1621.8543,-412.9962 1613.5039,-403.7601"/>
<polygon fill="#c0c0c0" stroke="#c0c0c0" stroke-width="2" points="1616.0594,-401.3679 1606.7567,-396.2973 1610.8669,-406.0624 1616.0594,-401.3679"/>
</g>
<!-- 46 -->
<g id="node47" class="node">
<title>46</title>
<path fill="none" stroke="#56a2d8" stroke-width="2" d="M409.8859,-180C409.8859,-180 296.5419,-180 296.5419,-180 290.5419,-180 284.5419,-174 284.5419,-168 284.5419,-168 284.5419,-156 284.5419,-156 284.5419,-150 290.5419,-144 296.5419,-144 296.5419,-144 409.8859,-144 409.8859,-144 415.8859,-144 421.8859,-150 421.8859,-156 421.8859,-156 421.8859,-168 421.8859,-168 421.8859,-174 415.8859,-180 409.8859,-180"/>
<text text-anchor="middle" x="353.2139" y="-159" font-family="sans" font-size="10.00" fill="#000000">call_variants_post_removal</text>
</g>
<!-- 40&#45;&gt;46 -->
<g id="edge56" class="edge">
<title>40&#45;&gt;46</title>
<path fill="none" stroke="#c0c0c0" stroke-width="2" d="M331.5318,-215.8314C334.7015,-207.9617 338.4838,-198.5712 341.9952,-189.8533"/>
<polygon fill="#c0c0c0" stroke="#c0c0c0" stroke-width="2" points="345.3078,-190.9968 345.7974,-180.4133 338.8147,-188.3815 345.3078,-190.9968"/>
</g>
<!-- 41&#45;&gt;64 -->
<g id="edge83" class="edge">
<title>41&#45;&gt;64</title>
<path fill="none" stroke="#c0c0c0" stroke-width="2" d="M1818.4158,-82.0888C1751.9814,-68.1839 1615.0911,-39.5325 1549.2208,-25.7456"/>
<polygon fill="#c0c0c0" stroke="#c0c0c0" stroke-width="2" points="1549.7854,-22.288 1539.2804,-23.6651 1548.3513,-29.1396 1549.7854,-22.288"/>
</g>
<!-- 42 -->
<g id="node43" class="node">
<title>42</title>
<path fill="none" stroke="#56d87b" stroke-width="2" d="M1524.642,-470C1524.642,-470 1343.7857,-470 1343.7857,-470 1337.7857,-470 1331.7857,-464 1331.7857,-458 1331.7857,-458 1331.7857,-444 1331.7857,-444 1331.7857,-438 1337.7857,-432 1343.7857,-432 1343.7857,-432 1524.642,-432 1524.642,-432 1530.642,-432 1536.642,-438 1536.642,-444 1536.642,-444 1536.642,-458 1536.642,-458 1536.642,-464 1530.642,-470 1524.642,-470"/>
<text text-anchor="middle" x="1434.2139" y="-458" font-family="sans" font-size="10.00" fill="#000000">trim_primer_quality</text>
<text text-anchor="middle" x="1434.2139" y="-448" font-family="sans" font-size="10.00" fill="#000000">out_dir: /Users/karthik/hpc_downloads/test</text>
<text text-anchor="middle" x="1434.2139" y="-438" font-family="sans" font-size="10.00" fill="#000000">sample: ZI49b</text>
</g>
<!-- 42&#45;&gt;11 -->
<g id="edge17" class="edge">
<title>42&#45;&gt;11</title>
<path fill="none" stroke="#c0c0c0" stroke-width="2" d="M1451.2919,-431.8201C1458.8558,-423.3252 1467.8706,-413.2009 1476.0298,-404.0375"/>
<polygon fill="#c0c0c0" stroke="#c0c0c0" stroke-width="2" points="1478.8857,-406.0933 1482.9217,-396.2973 1473.6577,-401.4383 1478.8857,-406.0933"/>
</g>
<!-- 42&#45;&gt;58 -->
<g id="edge72" class="edge">
<title>42&#45;&gt;58</title>
<path fill="none" stroke="#c0c0c0" stroke-width="2" d="M1434.3026,-431.7427C1434.4792,-393.4125 1434.8756,-307.4051 1435.0825,-262.5083"/>
<polygon fill="#c0c0c0" stroke="#c0c0c0" stroke-width="2" points="1438.5834,-262.307 1435.1296,-252.291 1431.5834,-262.2747 1438.5834,-262.307"/>
</g>
<!-- 43 -->
<g id="node44" class="node">
<title>43</title>
<path fill="none" stroke="#56d87b" stroke-width="2" d="M2412.642,-470C2412.642,-470 2231.7857,-470 2231.7857,-470 2225.7857,-470 2219.7857,-464 2219.7857,-458 2219.7857,-458 2219.7857,-444 2219.7857,-444 2219.7857,-438 2225.7857,-432 2231.7857,-432 2231.7857,-432 2412.642,-432 2412.642,-432 2418.642,-432 2424.642,-438 2424.642,-444 2424.642,-444 2424.642,-458 2424.642,-458 2424.642,-464 2418.642,-470 2412.642,-470"/>
<text text-anchor="middle" x="2322.2139" y="-458" font-family="sans" font-size="10.00" fill="#000000">trim_primer_quality</text>
<text text-anchor="middle" x="2322.2139" y="-448" font-family="sans" font-size="10.00" fill="#000000">out_dir: /Users/karthik/hpc_downloads/test</text>
<text text-anchor="middle" x="2322.2139" y="-438" font-family="sans" font-size="10.00" fill="#000000">sample: ZI27a</text>
</g>
<!-- 43&#45;&gt;50 -->
<g id="edge63" class="edge">
<title>43&#45;&gt;50</title>
<path fill="none" stroke="#c0c0c0" stroke-width="2" d="M2322.2139,-431.7427C2322.2139,-393.4125 2322.2139,-307.4051 2322.2139,-262.5083"/>
<polygon fill="#c0c0c0" stroke="#c0c0c0" stroke-width="2" points="2325.714,-262.2909 2322.2139,-252.291 2318.714,-262.291 2325.714,-262.2909"/>
</g>
<!-- 59 -->
<g id="node60" class="node">
<title>59</title>
<path fill="none" stroke="#78d856" stroke-width="2" d="M2410.7961,-396C2410.7961,-396 2363.6316,-396 2363.6316,-396 2357.6316,-396 2351.6316,-390 2351.6316,-384 2351.6316,-384 2351.6316,-372 2351.6316,-372 2351.6316,-366 2357.6316,-360 2363.6316,-360 2363.6316,-360 2410.7961,-360 2410.7961,-360 2416.7961,-360 2422.7961,-366 2422.7961,-372 2422.7961,-372 2422.7961,-384 2422.7961,-384 2422.7961,-390 2416.7961,-396 2410.7961,-396"/>
<text text-anchor="middle" x="2387.2139" y="-375" font-family="sans" font-size="10.00" fill="#000000">call_variants</text>
</g>
<!-- 43&#45;&gt;59 -->
<g id="edge74" class="edge">
<title>43&#45;&gt;59</title>
<path fill="none" stroke="#c0c0c0" stroke-width="2" d="M2339.2919,-431.8201C2346.8558,-423.3252 2355.8706,-413.2009 2364.0298,-404.0375"/>
<polygon fill="#c0c0c0" stroke="#c0c0c0" stroke-width="2" points="2366.8857,-406.0933 2370.9217,-396.2973 2361.6577,-401.4383 2366.8857,-406.0933"/>
</g>
<!-- 44 -->
<g id="node45" class="node">
<title>44</title>
<path fill="none" stroke="#56d87b" stroke-width="2" d="M414.642,-470C414.642,-470 233.7857,-470 233.7857,-470 227.7857,-470 221.7857,-464 221.7857,-458 221.7857,-458 221.7857,-444 221.7857,-444 221.7857,-438 227.7857,-432 233.7857,-432 233.7857,-432 414.642,-432 414.642,-432 420.642,-432 426.642,-438 426.642,-444 426.642,-444 426.642,-458 426.642,-458 426.642,-464 420.642,-470 414.642,-470"/>
<text text-anchor="middle" x="324.2139" y="-458" font-family="sans" font-size="10.00" fill="#000000">trim_primer_quality</text>
<text text-anchor="middle" x="324.2139" y="-448" font-family="sans" font-size="10.00" fill="#000000">out_dir: /Users/karthik/hpc_downloads/test</text>
<text text-anchor="middle" x="324.2139" y="-438" font-family="sans" font-size="10.00" fill="#000000">sample: ZI26b</text>
</g>
<!-- 44&#45;&gt;35 -->
<g id="edge47" class="edge">
<title>44&#45;&gt;35</title>
<path fill="none" stroke="#c0c0c0" stroke-width="2" d="M307.3986,-431.8201C299.951,-423.3252 291.0749,-413.2009 283.0413,-404.0375"/>
<polygon fill="#c0c0c0" stroke="#c0c0c0" stroke-width="2" points="285.4795,-401.5094 276.2554,-396.2973 280.2159,-406.1241 285.4795,-401.5094"/>
</g>
<!-- 44&#45;&gt;40 -->
<g id="edge51" class="edge">
<title>44&#45;&gt;40</title>
<path fill="none" stroke="#c0c0c0" stroke-width="2" d="M324.2139,-431.7427C324.2139,-393.4125 324.2139,-307.4051 324.2139,-262.5083"/>
<polygon fill="#c0c0c0" stroke="#c0c0c0" stroke-width="2" points="327.714,-262.2909 324.2139,-252.291 320.714,-262.291 327.714,-262.2909"/>
</g>
<!-- 45 -->
<g id="node46" class="node">
<title>45</title>
<path fill="none" stroke="#56a2d8" stroke-width="2" d="M1491.8859,-180C1491.8859,-180 1378.5419,-180 1378.5419,-180 1372.5419,-180 1366.5419,-174 1366.5419,-168 1366.5419,-168 1366.5419,-156 1366.5419,-156 1366.5419,-150 1372.5419,-144 1378.5419,-144 1378.5419,-144 1491.8859,-144 1491.8859,-144 1497.8859,-144 1503.8859,-150 1503.8859,-156 1503.8859,-156 1503.8859,-168 1503.8859,-168 1503.8859,-174 1497.8859,-180 1491.8859,-180"/>
<text text-anchor="middle" x="1435.2139" y="-159" font-family="sans" font-size="10.00" fill="#000000">call_variants_post_removal</text>
</g>
<!-- 45&#45;&gt;27 -->
<g id="edge36" class="edge">
<title>45&#45;&gt;27</title>
<path fill="none" stroke="#c0c0c0" stroke-width="2" d="M1454.6442,-143.8314C1463.9458,-135.1337 1475.2343,-124.5783 1485.3424,-115.1265"/>
<polygon fill="#c0c0c0" stroke="#c0c0c0" stroke-width="2" points="1487.876,-117.5493 1492.7897,-108.1628 1483.095,-112.4363 1487.876,-117.5493"/>
</g>
<!-- 46&#45;&gt;3 -->
<g id="edge7" class="edge">
<title>46&#45;&gt;3</title>
<path fill="none" stroke="#c0c0c0" stroke-width="2" d="M353.2139,-143.8314C353.2139,-136.131 353.2139,-126.9743 353.2139,-118.4166"/>
<polygon fill="#c0c0c0" stroke="#c0c0c0" stroke-width="2" points="356.714,-118.4132 353.2139,-108.4133 349.714,-118.4133 356.714,-118.4132"/>
</g>
<!-- 68 -->
<g id="node69" class="node">
<title>68</title>
<path fill="none" stroke="#56a2d8" stroke-width="2" d="M698.8859,-180C698.8859,-180 585.5419,-180 585.5419,-180 579.5419,-180 573.5419,-174 573.5419,-168 573.5419,-168 573.5419,-156 573.5419,-156 573.5419,-150 579.5419,-144 585.5419,-144 585.5419,-144 698.8859,-144 698.8859,-144 704.8859,-144 710.8859,-150 710.8859,-156 710.8859,-156 710.8859,-168 710.8859,-168 710.8859,-174 704.8859,-180 698.8859,-180"/>
<text text-anchor="middle" x="642.2139" y="-159" font-family="sans" font-size="10.00" fill="#000000">call_variants_post_removal</text>
</g>
<!-- 47&#45;&gt;68 -->
<g id="edge89" class="edge">
<title>47&#45;&gt;68</title>
<path fill="none" stroke="#c0c0c0" stroke-width="2" d="M642.2139,-215.8314C642.2139,-208.131 642.2139,-198.9743 642.2139,-190.4166"/>
<polygon fill="#c0c0c0" stroke="#c0c0c0" stroke-width="2" points="645.714,-190.4132 642.2139,-180.4133 638.714,-190.4133 645.714,-190.4132"/>
</g>
<!-- 48 -->
<g id="node49" class="node">
<title>48</title>
<path fill="none" stroke="#d85656" stroke-width="2" d="M1240.1348,-252C1240.1348,-252 1184.2929,-252 1184.2929,-252 1178.2929,-252 1172.2929,-246 1172.2929,-240 1172.2929,-240 1172.2929,-228 1172.2929,-228 1172.2929,-222 1178.2929,-216 1184.2929,-216 1184.2929,-216 1240.1348,-216 1240.1348,-216 1246.1348,-216 1252.1348,-222 1252.1348,-228 1252.1348,-228 1252.1348,-240 1252.1348,-240 1252.1348,-246 1246.1348,-252 1240.1348,-252"/>
<text text-anchor="middle" x="1212.2139" y="-236" font-family="sans" font-size="10.00" fill="#000000">remove_reads</text>
<text text-anchor="middle" x="1212.2139" y="-226" font-family="sans" font-size="10.00" fill="#000000">rep: b</text>
</g>
<!-- 56 -->
<g id="node57" class="node">
<title>56</title>
<path fill="none" stroke="#56a2d8" stroke-width="2" d="M1297.8859,-180C1297.8859,-180 1184.5419,-180 1184.5419,-180 1178.5419,-180 1172.5419,-174 1172.5419,-168 1172.5419,-168 1172.5419,-156 1172.5419,-156 1172.5419,-150 1178.5419,-144 1184.5419,-144 1184.5419,-144 1297.8859,-144 1297.8859,-144 1303.8859,-144 1309.8859,-150 1309.8859,-156 1309.8859,-156 1309.8859,-168 1309.8859,-168 1309.8859,-174 1303.8859,-180 1297.8859,-180"/>
<text text-anchor="middle" x="1241.2139" y="-159" font-family="sans" font-size="10.00" fill="#000000">call_variants_post_removal</text>
</g>
<!-- 48&#45;&gt;56 -->
<g id="edge69" class="edge">
<title>48&#45;&gt;56</title>
<path fill="none" stroke="#c0c0c0" stroke-width="2" d="M1219.5318,-215.8314C1222.7015,-207.9617 1226.4838,-198.5712 1229.9952,-189.8533"/>
<polygon fill="#c0c0c0" stroke="#c0c0c0" stroke-width="2" points="1233.3078,-190.9968 1233.7974,-180.4133 1226.8147,-188.3815 1233.3078,-190.9968"/>
</g>
<!-- 49&#45;&gt;37 -->
<g id="edge50" class="edge">
<title>49&#45;&gt;37</title>
<path fill="none" stroke="#c0c0c0" stroke-width="2" d="M2853.1008,-143.8314C2832.1487,-134.0988 2806.1888,-122.04 2784.1536,-111.8043"/>
<polygon fill="#c0c0c0" stroke="#c0c0c0" stroke-width="2" points="2785.5201,-108.5799 2774.9763,-107.5412 2782.571,-114.9284 2785.5201,-108.5799"/>
</g>
<!-- 50&#45;&gt;36 -->
<g id="edge48" class="edge">
<title>50&#45;&gt;36</title>
<path fill="none" stroke="#c0c0c0" stroke-width="2" d="M2314.8959,-215.8314C2311.7262,-207.9617 2307.9439,-198.5712 2304.4325,-189.8533"/>
<polygon fill="#c0c0c0" stroke="#c0c0c0" stroke-width="2" points="2307.613,-188.3815 2300.6303,-180.4133 2301.1199,-190.9968 2307.613,-188.3815"/>
</g>
<!-- 51 -->
<g id="node52" class="node">
<title>51</title>
<path fill="none" stroke="#56a2d8" stroke-width="2" d="M2067.8859,-180C2067.8859,-180 1954.5419,-180 1954.5419,-180 1948.5419,-180 1942.5419,-174 1942.5419,-168 1942.5419,-168 1942.5419,-156 1942.5419,-156 1942.5419,-150 1948.5419,-144 1954.5419,-144 1954.5419,-144 2067.8859,-144 2067.8859,-144 2073.8859,-144 2079.8859,-150 2079.8859,-156 2079.8859,-156 2079.8859,-168 2079.8859,-168 2079.8859,-174 2073.8859,-180 2067.8859,-180"/>
<text text-anchor="middle" x="2011.2139" y="-159" font-family="sans" font-size="10.00" fill="#000000">call_variants_post_removal</text>
</g>
<!-- 51&#45;&gt;41 -->
<g id="edge54" class="edge">
<title>51&#45;&gt;41</title>
<path fill="none" stroke="#c0c0c0" stroke-width="2" d="M1972.1008,-143.8314C1951.1487,-134.0988 1925.1888,-122.04 1903.1536,-111.8043"/>
<polygon fill="#c0c0c0" stroke="#c0c0c0" stroke-width="2" points="1904.5201,-108.5799 1893.9763,-107.5412 1901.571,-114.9284 1904.5201,-108.5799"/>
</g>
<!-- 52 -->
<g id="node53" class="node">
<title>52</title>
<path fill="none" stroke="#56d87b" stroke-width="2" d="M2856.642,-470C2856.642,-470 2675.7857,-470 2675.7857,-470 2669.7857,-470 2663.7857,-464 2663.7857,-458 2663.7857,-458 2663.7857,-444 2663.7857,-444 2663.7857,-438 2669.7857,-432 2675.7857,-432 2675.7857,-432 2856.642,-432 2856.642,-432 2862.642,-432 2868.642,-438 2868.642,-444 2868.642,-444 2868.642,-458 2868.642,-458 2868.642,-464 2862.642,-470 2856.642,-470"/>
<text text-anchor="middle" x="2766.2139" y="-458" font-family="sans" font-size="10.00" fill="#000000">trim_primer_quality</text>
<text text-anchor="middle" x="2766.2139" y="-448" font-family="sans" font-size="10.00" fill="#000000">out_dir: /Users/karthik/hpc_downloads/test</text>
<text text-anchor="middle" x="2766.2139" y="-438" font-family="sans" font-size="10.00" fill="#000000">sample: ZI51a</text>
</g>
<!-- 52&#45;&gt;31 -->
<g id="edge43" class="edge">
<title>52&#45;&gt;31</title>
<path fill="none" stroke="#c0c0c0" stroke-width="2" d="M2783.5546,-431.8201C2791.3125,-423.2394 2800.5735,-412.9962 2808.9239,-403.7601"/>
<polygon fill="#c0c0c0" stroke="#c0c0c0" stroke-width="2" points="2811.5608,-406.0624 2815.6711,-396.2973 2806.3683,-401.3679 2811.5608,-406.0624"/>
</g>
<!-- 52&#45;&gt;57 -->
<g id="edge70" class="edge">
<title>52&#45;&gt;57</title>
<path fill="none" stroke="#c0c0c0" stroke-width="2" d="M2766.2139,-431.7427C2766.2139,-393.4125 2766.2139,-307.4051 2766.2139,-262.5083"/>
<polygon fill="#c0c0c0" stroke="#c0c0c0" stroke-width="2" points="2769.714,-262.2909 2766.2139,-252.291 2762.714,-262.291 2769.714,-262.2909"/>
</g>
<!-- 53&#45;&gt;17 -->
<g id="edge26" class="edge">
<title>53&#45;&gt;17</title>
<path fill="none" stroke="#c0c0c0" stroke-width="2" d="M2911.3538,-359.8314C2906.0509,-351.7079 2899.6902,-341.9637 2893.8466,-333.0118"/>
<polygon fill="#c0c0c0" stroke="#c0c0c0" stroke-width="2" points="2896.6307,-330.8739 2888.2336,-324.4133 2890.7691,-334.7003 2896.6307,-330.8739"/>
</g>
<!-- 54&#45;&gt;5 -->
<g id="edge10" class="edge">
<title>54&#45;&gt;5</title>
<path fill="none" stroke="#c0c0c0" stroke-width="2" d="M184.1021,-359.8314C190.9668,-351.454 199.2439,-341.3531 206.765,-332.1749"/>
<polygon fill="#c0c0c0" stroke="#c0c0c0" stroke-width="2" points="209.4941,-334.3665 213.1252,-324.4133 204.0798,-329.9297 209.4941,-334.3665"/>
</g>
<!-- 55&#45;&gt;51 -->
<g id="edge64" class="edge">
<title>55&#45;&gt;51</title>
<path fill="none" stroke="#c0c0c0" stroke-width="2" d="M2011.2139,-215.8314C2011.2139,-208.131 2011.2139,-198.9743 2011.2139,-190.4166"/>
<polygon fill="#c0c0c0" stroke="#c0c0c0" stroke-width="2" points="2014.714,-190.4132 2011.2139,-180.4133 2007.714,-190.4133 2014.714,-190.4132"/>
</g>
<!-- 56&#45;&gt;14 -->
<g id="edge21" class="edge">
<title>56&#45;&gt;14</title>
<path fill="none" stroke="#c0c0c0" stroke-width="2" d="M1241.2139,-143.8314C1241.2139,-136.131 1241.2139,-126.9743 1241.2139,-118.4166"/>
<polygon fill="#c0c0c0" stroke="#c0c0c0" stroke-width="2" points="1244.714,-118.4132 1241.2139,-108.4133 1237.714,-118.4133 1244.714,-118.4132"/>
</g>
<!-- 57&#45;&gt;1 -->
<g id="edge3" class="edge">
<title>57&#45;&gt;1</title>
<path fill="none" stroke="#c0c0c0" stroke-width="2" d="M2758.8959,-215.8314C2755.7262,-207.9617 2751.9439,-198.5712 2748.4325,-189.8533"/>
<polygon fill="#c0c0c0" stroke="#c0c0c0" stroke-width="2" points="2751.613,-188.3815 2744.6303,-180.4133 2745.1199,-190.9968 2751.613,-188.3815"/>
</g>
<!-- 58&#45;&gt;45 -->
<g id="edge55" class="edge">
<title>58&#45;&gt;45</title>
<path fill="none" stroke="#c0c0c0" stroke-width="2" d="M1435.2139,-215.8314C1435.2139,-208.131 1435.2139,-198.9743 1435.2139,-190.4166"/>
<polygon fill="#c0c0c0" stroke="#c0c0c0" stroke-width="2" points="1438.714,-190.4132 1435.2139,-180.4133 1431.714,-190.4133 1438.714,-190.4132"/>
</g>
<!-- 59&#45;&gt;9 -->
<g id="edge16" class="edge">
<title>59&#45;&gt;9</title>
<path fill="none" stroke="#c0c0c0" stroke-width="2" d="M2398.5693,-359.8314C2403.6465,-351.7079 2409.7365,-341.9637 2415.3315,-333.0118"/>
<polygon fill="#c0c0c0" stroke="#c0c0c0" stroke-width="2" points="2418.3735,-334.7483 2420.7056,-324.4133 2412.4375,-331.0383 2418.3735,-334.7483"/>
</g>
<!-- 60 -->
<g id="node61" class="node">
<title>60</title>
<path fill="none" stroke="#56d87b" stroke-width="2" d="M1302.642,-470C1302.642,-470 1121.7857,-470 1121.7857,-470 1115.7857,-470 1109.7857,-464 1109.7857,-458 1109.7857,-458 1109.7857,-444 1109.7857,-444 1109.7857,-438 1115.7857,-432 1121.7857,-432 1121.7857,-432 1302.642,-432 1302.642,-432 1308.642,-432 1314.642,-438 1314.642,-444 1314.642,-444 1314.642,-458 1314.642,-458 1314.642,-464 1308.642,-470 1302.642,-470"/>
<text text-anchor="middle" x="1212.2139" y="-458" font-family="sans" font-size="10.00" fill="#000000">trim_primer_quality</text>
<text text-anchor="middle" x="1212.2139" y="-448" font-family="sans" font-size="10.00" fill="#000000">out_dir: /Users/karthik/hpc_downloads/test</text>
<text text-anchor="middle" x="1212.2139" y="-438" font-family="sans" font-size="10.00" fill="#000000">sample: ZI52b</text>
</g>
<!-- 60&#45;&gt;23 -->
<g id="edge31" class="edge">
<title>60&#45;&gt;23</title>
<path fill="none" stroke="#c0c0c0" stroke-width="2" d="M1195.3986,-431.8201C1187.951,-423.3252 1179.0749,-413.2009 1171.0413,-404.0375"/>
<polygon fill="#c0c0c0" stroke="#c0c0c0" stroke-width="2" points="1173.4795,-401.5094 1164.2554,-396.2973 1168.2159,-406.1241 1173.4795,-401.5094"/>
</g>
<!-- 60&#45;&gt;48 -->
<g id="edge59" class="edge">
<title>60&#45;&gt;48</title>
<path fill="none" stroke="#c0c0c0" stroke-width="2" d="M1212.2139,-431.7427C1212.2139,-393.4125 1212.2139,-307.4051 1212.2139,-262.5083"/>
<polygon fill="#c0c0c0" stroke="#c0c0c0" stroke-width="2" points="1215.714,-262.2909 1212.2139,-252.291 1208.714,-262.291 1215.714,-262.2909"/>
</g>
<!-- 61 -->
<g id="node62" class="node">
<title>61</title>
<path fill="none" stroke="#78d856" stroke-width="2" d="M1080.7961,-396C1080.7961,-396 1033.6316,-396 1033.6316,-396 1027.6316,-396 1021.6316,-390 1021.6316,-384 1021.6316,-384 1021.6316,-372 1021.6316,-372 1021.6316,-366 1027.6316,-360 1033.6316,-360 1033.6316,-360 1080.7961,-360 1080.7961,-360 1086.7961,-360 1092.7961,-366 1092.7961,-372 1092.7961,-372 1092.7961,-384 1092.7961,-384 1092.7961,-390 1086.7961,-396 1080.7961,-396"/>
<text text-anchor="middle" x="1057.2139" y="-375" font-family="sans" font-size="10.00" fill="#000000">call_variants</text>
</g>
<!-- 61&#45;&gt;70 -->
<g id="edge91" class="edge">
<title>61&#45;&gt;70</title>
<path fill="none" stroke="#c0c0c0" stroke-width="2" d="M1068.5693,-359.8314C1073.6465,-351.7079 1079.7365,-341.9637 1085.3315,-333.0118"/>
<polygon fill="#c0c0c0" stroke="#c0c0c0" stroke-width="2" points="1088.3735,-334.7483 1090.7056,-324.4133 1082.4375,-331.0383 1088.3735,-334.7483"/>
</g>
<!-- 62&#45;&gt;3 -->
<g id="edge6" class="edge">
<title>62&#45;&gt;3</title>
<path fill="none" stroke="#c0c0c0" stroke-width="2" d="M237.3269,-143.8314C258.279,-134.0988 284.2389,-122.04 306.2741,-111.8043"/>
<polygon fill="#c0c0c0" stroke="#c0c0c0" stroke-width="2" points="307.8567,-114.9284 315.4515,-107.5412 304.9077,-108.5799 307.8567,-114.9284"/>
</g>
<!-- 63&#45;&gt;64 -->
<g id="edge81" class="edge">
<title>63&#45;&gt;64</title>
<path fill="none" stroke="#c0c0c0" stroke-width="2" d="M2255.2807,-86.503C2122.6296,-74.2739 1680.4876,-33.5131 1549.2471,-21.4141"/>
<polygon fill="#c0c0c0" stroke="#c0c0c0" stroke-width="2" points="1549.5601,-17.9282 1539.281,-20.4953 1548.9174,-24.8986 1549.5601,-17.9282"/>
</g>
<!-- 65&#45;&gt;24 -->
<g id="edge33" class="edge">
<title>65&#45;&gt;24</title>
<path fill="none" stroke="#c0c0c0" stroke-width="2" d="M2017.0546,-359.8314C2009.0627,-351.3694 1999.4101,-341.1489 1990.6722,-331.8971"/>
<polygon fill="#c0c0c0" stroke="#c0c0c0" stroke-width="2" points="1993.015,-329.2802 1983.6042,-324.4133 1987.9259,-334.0866 1993.015,-329.2802"/>
</g>
<!-- 66&#45;&gt;34 -->
<g id="edge46" class="edge">
<title>66&#45;&gt;34</title>
<path fill="none" stroke="#c0c0c0" stroke-width="2" d="M707.6536,-287.8314C717.5343,-279.0485 729.5463,-268.3712 740.2589,-258.8489"/>
<polygon fill="#c0c0c0" stroke="#c0c0c0" stroke-width="2" points="742.6319,-261.4224 747.7807,-252.1628 737.9813,-256.1906 742.6319,-261.4224"/>
</g>
<!-- 66&#45;&gt;47 -->
<g id="edge58" class="edge">
<title>66&#45;&gt;47</title>
<path fill="none" stroke="#c0c0c0" stroke-width="2" d="M675.8585,-287.8314C670.7813,-279.7079 664.6912,-269.9637 659.0962,-261.0118"/>
<polygon fill="#c0c0c0" stroke="#c0c0c0" stroke-width="2" points="661.9902,-259.0383 653.7222,-252.4133 656.0542,-262.7483 661.9902,-259.0383"/>
</g>
<!-- 67 -->
<g id="node68" class="node">
<title>67</title>
<path fill="none" stroke="#56d87b" stroke-width="2" d="M858.642,-470C858.642,-470 677.7857,-470 677.7857,-470 671.7857,-470 665.7857,-464 665.7857,-458 665.7857,-458 665.7857,-444 665.7857,-444 665.7857,-438 671.7857,-432 677.7857,-432 677.7857,-432 858.642,-432 858.642,-432 864.642,-432 870.642,-438 870.642,-444 870.642,-444 870.642,-458 870.642,-458 870.642,-464 864.642,-470 858.642,-470"/>
<text text-anchor="middle" x="768.2139" y="-458" font-family="sans" font-size="10.00" fill="#000000">trim_primer_quality</text>
<text text-anchor="middle" x="768.2139" y="-448" font-family="sans" font-size="10.00" fill="#000000">out_dir: /Users/karthik/hpc_downloads/test</text>
<text text-anchor="middle" x="768.2139" y="-438" font-family="sans" font-size="10.00" fill="#000000">sample: ZI53a</text>
</g>
<!-- 67&#45;&gt;15 -->
<g id="edge23" class="edge">
<title>67&#45;&gt;15</title>
<path fill="none" stroke="#c0c0c0" stroke-width="2" d="M751.3986,-431.8201C743.951,-423.3252 735.0749,-413.2009 727.0413,-404.0375"/>
<polygon fill="#c0c0c0" stroke="#c0c0c0" stroke-width="2" points="729.4795,-401.5094 720.2554,-396.2973 724.2159,-406.1241 729.4795,-401.5094"/>
</g>
<!-- 67&#45;&gt;34 -->
<g id="edge45" class="edge">
<title>67&#45;&gt;34</title>
<path fill="none" stroke="#c0c0c0" stroke-width="2" d="M768.2139,-431.7427C768.2139,-393.4125 768.2139,-307.4051 768.2139,-262.5083"/>
<polygon fill="#c0c0c0" stroke="#c0c0c0" stroke-width="2" points="771.714,-262.2909 768.2139,-252.291 764.714,-262.291 771.714,-262.2909"/>
</g>
<!-- 68&#45;&gt;12 -->
<g id="edge19" class="edge">
<title>68&#45;&gt;12</title>
<path fill="none" stroke="#c0c0c0" stroke-width="2" d="M681.3269,-143.8314C702.279,-134.0988 728.2389,-122.04 750.2741,-111.8043"/>
<polygon fill="#c0c0c0" stroke="#c0c0c0" stroke-width="2" points="751.8567,-114.9284 759.4515,-107.5412 748.9077,-108.5799 751.8567,-114.9284"/>
</g>
<!-- 69 -->
<g id="node70" class="node">
<title>69</title>
<path fill="none" stroke="#56d87b" stroke-width="2" d="M1080.642,-470C1080.642,-470 899.7857,-470 899.7857,-470 893.7857,-470 887.7857,-464 887.7857,-458 887.7857,-458 887.7857,-444 887.7857,-444 887.7857,-438 893.7857,-432 899.7857,-432 899.7857,-432 1080.642,-432 1080.642,-432 1086.642,-432 1092.642,-438 1092.642,-444 1092.642,-444 1092.642,-458 1092.642,-458 1092.642,-464 1086.642,-470 1080.642,-470"/>
<text text-anchor="middle" x="990.2139" y="-458" font-family="sans" font-size="10.00" fill="#000000">trim_primer_quality</text>
<text text-anchor="middle" x="990.2139" y="-448" font-family="sans" font-size="10.00" fill="#000000">out_dir: /Users/karthik/hpc_downloads/test</text>
<text text-anchor="middle" x="990.2139" y="-438" font-family="sans" font-size="10.00" fill="#000000">sample: ZI52a</text>
</g>
<!-- 69&#45;&gt;28 -->
<g id="edge39" class="edge">
<title>69&#45;&gt;28</title>
<path fill="none" stroke="#c0c0c0" stroke-width="2" d="M993.1866,-431.6707C996.4655,-412.8929 1002.5901,-383.8095 1012.2139,-360 1026.8616,-323.7608 1050.6834,-285.5012 1067.3301,-260.7807"/>
<polygon fill="#c0c0c0" stroke="#c0c0c0" stroke-width="2" points="1070.3619,-262.5472 1073.1082,-252.3145 1064.5801,-258.6012 1070.3619,-262.5472"/>
</g>
<!-- 69&#45;&gt;61 -->
<g id="edge75" class="edge">
<title>69&#45;&gt;61</title>
<path fill="none" stroke="#c0c0c0" stroke-width="2" d="M1007.8173,-431.8201C1015.6928,-423.2394 1025.0941,-412.9962 1033.571,-403.7601"/>
<polygon fill="#c0c0c0" stroke="#c0c0c0" stroke-width="2" points="1036.2372,-406.0314 1040.4204,-396.2973 1031.08,-401.2981 1036.2372,-406.0314"/>
</g>
<!-- 70&#45;&gt;28 -->
<g id="edge38" class="edge">
<title>70&#45;&gt;28</title>
<path fill="none" stroke="#c0c0c0" stroke-width="2" d="M1098.1764,-287.8314C1096.4652,-280.131 1094.4304,-270.9743 1092.5287,-262.4166"/>
<polygon fill="#c0c0c0" stroke="#c0c0c0" stroke-width="2" points="1095.8917,-261.4159 1090.3057,-252.4133 1089.0584,-262.9344 1095.8917,-261.4159"/>
</g>
<!-- 70&#45;&gt;48 -->
<g id="edge60" class="edge">
<title>70&#45;&gt;48</title>
<path fill="none" stroke="#c0c0c0" stroke-width="2" d="M1129.9715,-287.8314C1143.9109,-278.7074 1160.9737,-267.539 1175.937,-257.7449"/>
<polygon fill="#c0c0c0" stroke="#c0c0c0" stroke-width="2" points="1178.0149,-260.5679 1184.4651,-252.1628 1174.1812,-254.711 1178.0149,-260.5679"/>
</g>
</g>
</svg>
