<?xml version="1.0" encoding="UTF-8" standalone="no"?>
<!DOCTYPE svg PUBLIC "-//W3C//DTD SVG 1.1//EN"
 "http://www.w3.org/Graphics/SVG/1.1/DTD/svg11.dtd">
<!-- Generated by graphviz version 2.40.1 (20161225.0304)
 -->
<!-- Title: snakemake_dag Pages: 1 -->
<svg width="3098pt" height="262pt"
 viewBox="0.00 0.00 3098.43 262.00" xmlns="http://www.w3.org/2000/svg" xmlns:xlink="http://www.w3.org/1999/xlink">
<g id="graph0" class="graph" transform="scale(1 1) rotate(0) translate(4 258)">
<title>snakemake_dag</title>
<polygon fill="#ffffff" stroke="transparent" points="-4,4 -4,-258 3094.4277,-258 3094.4277,4 -4,4"/>
<!-- 0 -->
<g id="node1" class="node">
<title>0</title>
<path fill="none" stroke="#d85656" stroke-width="2" d="M2945.7961,-180C2945.7961,-180 2898.6316,-180 2898.6316,-180 2892.6316,-180 2886.6316,-174 2886.6316,-168 2886.6316,-168 2886.6316,-156 2886.6316,-156 2886.6316,-150 2892.6316,-144 2898.6316,-144 2898.6316,-144 2945.7961,-144 2945.7961,-144 2951.7961,-144 2957.7961,-150 2957.7961,-156 2957.7961,-156 2957.7961,-168 2957.7961,-168 2957.7961,-174 2951.7961,-180 2945.7961,-180"/>
<text text-anchor="middle" x="2922.2139" y="-159" font-family="sans" font-size="10.00" fill="#000000">call_variants</text>
</g>
<!-- 18 -->
<g id="node19" class="node">
<title>18</title>
<path fill="none" stroke="#d6d856" stroke-width="2" d="M2792.1831,-108C2792.1831,-108 2740.2446,-108 2740.2446,-108 2734.2446,-108 2728.2446,-102 2728.2446,-96 2728.2446,-96 2728.2446,-84 2728.2446,-84 2728.2446,-78 2734.2446,-72 2740.2446,-72 2740.2446,-72 2792.1831,-72 2792.1831,-72 2798.1831,-72 2804.1831,-78 2804.1831,-84 2804.1831,-84 2804.1831,-96 2804.1831,-96 2804.1831,-102 2798.1831,-108 2792.1831,-108"/>
<text text-anchor="middle" x="2766.2139" y="-92" font-family="sans" font-size="10.00" fill="#000000">filter_variants</text>
<text text-anchor="middle" x="2766.2139" y="-82" font-family="sans" font-size="10.00" fill="#000000">sample: ZI50</text>
</g>
<!-- 0&#45;&gt;18 -->
<g id="edge21" class="edge">
<title>0&#45;&gt;18</title>
<path fill="none" stroke="#c0c0c0" stroke-width="2" d="M2886.4243,-145.4817C2864.6652,-135.4391 2836.6348,-122.502 2813.1153,-111.6468"/>
<polygon fill="#c0c0c0" stroke="#c0c0c0" stroke-width="2" points="2814.5592,-108.4585 2804.0129,-107.4457 2811.6258,-114.8142 2814.5592,-108.4585"/>
</g>
<!-- 1 -->
<g id="node2" class="node">
<title>1</title>
<path fill="none" stroke="#56d8d8" stroke-width="2" stroke-dasharray="5,2" d="M2412.642,-254C2412.642,-254 2231.7857,-254 2231.7857,-254 2225.7857,-254 2219.7857,-248 2219.7857,-242 2219.7857,-242 2219.7857,-228 2219.7857,-228 2219.7857,-222 2225.7857,-216 2231.7857,-216 2231.7857,-216 2412.642,-216 2412.642,-216 2418.642,-216 2424.642,-222 2424.642,-228 2424.642,-228 2424.642,-242 2424.642,-242 2424.642,-248 2418.642,-254 2412.642,-254"/>
<text text-anchor="middle" x="2322.2139" y="-242" font-family="sans" font-size="10.00" fill="#000000">trim_primer_quality</text>
<text text-anchor="middle" x="2322.2139" y="-232" font-family="sans" font-size="10.00" fill="#000000">out_dir: /Users/karthik/hpc_downloads/test</text>
<text text-anchor="middle" x="2322.2139" y="-222" font-family="sans" font-size="10.00" fill="#000000">sample: ZI52a</text>
</g>
<!-- 26 -->
<g id="node27" class="node">
<title>26</title>
<path fill="none" stroke="#d85656" stroke-width="2" d="M2345.7961,-180C2345.7961,-180 2298.6316,-180 2298.6316,-180 2292.6316,-180 2286.6316,-174 2286.6316,-168 2286.6316,-168 2286.6316,-156 2286.6316,-156 2286.6316,-150 2292.6316,-144 2298.6316,-144 2298.6316,-144 2345.7961,-144 2345.7961,-144 2351.7961,-144 2357.7961,-150 2357.7961,-156 2357.7961,-156 2357.7961,-168 2357.7961,-168 2357.7961,-174 2351.7961,-180 2345.7961,-180"/>
<text text-anchor="middle" x="2322.2139" y="-159" font-family="sans" font-size="10.00" fill="#000000">call_variants</text>
</g>
<!-- 1&#45;&gt;26 -->
<g id="edge28" class="edge">
<title>1&#45;&gt;26</title>
<path fill="none" stroke="#c0c0c0" stroke-width="2" d="M2322.2139,-215.8201C2322.2139,-208.0975 2322.2139,-199.0282 2322.2139,-190.5585"/>
<polygon fill="#c0c0c0" stroke="#c0c0c0" stroke-width="2" points="2325.714,-190.2973 2322.2139,-180.2973 2318.714,-190.2974 2325.714,-190.2973"/>
</g>
<!-- 2 -->
<g id="node3" class="node">
<title>2</title>
<path fill="none" stroke="#d6d856" stroke-width="2" d="M350.1831,-108C350.1831,-108 298.2446,-108 298.2446,-108 292.2446,-108 286.2446,-102 286.2446,-96 286.2446,-96 286.2446,-84 286.2446,-84 286.2446,-78 292.2446,-72 298.2446,-72 298.2446,-72 350.1831,-72 350.1831,-72 356.1831,-72 362.1831,-78 362.1831,-84 362.1831,-84 362.1831,-96 362.1831,-96 362.1831,-102 356.1831,-108 350.1831,-108"/>
<text text-anchor="middle" x="324.2139" y="-92" font-family="sans" font-size="10.00" fill="#000000">filter_variants</text>
<text text-anchor="middle" x="324.2139" y="-82" font-family="sans" font-size="10.00" fill="#000000">sample: ZI26</text>
</g>
<!-- 6 -->
<g id="node7" class="node">
<title>6</title>
<path fill="none" stroke="#59d856" stroke-width="2" d="M1560.2139,-36C1560.2139,-36 1530.2139,-36 1530.2139,-36 1524.2139,-36 1518.2139,-30 1518.2139,-24 1518.2139,-24 1518.2139,-12 1518.2139,-12 1518.2139,-6 1524.2139,0 1530.2139,0 1530.2139,0 1560.2139,0 1560.2139,0 1566.2139,0 1572.2139,-6 1572.2139,-12 1572.2139,-12 1572.2139,-24 1572.2139,-24 1572.2139,-30 1566.2139,-36 1560.2139,-36"/>
<text text-anchor="middle" x="1545.2139" y="-15" font-family="sans" font-size="10.00" fill="#000000">all</text>
</g>
<!-- 2&#45;&gt;6 -->
<g id="edge9" class="edge">
<title>2&#45;&gt;6</title>
<path fill="none" stroke="#c0c0c0" stroke-width="2" d="M362.0949,-87.7662C544.1323,-77.0318 1327.6459,-30.8296 1508.0638,-20.1907"/>
<polygon fill="#c0c0c0" stroke="#c0c0c0" stroke-width="2" points="1508.3417,-23.6805 1518.1183,-19.5978 1507.9296,-16.6926 1508.3417,-23.6805"/>
</g>
<!-- 3 -->
<g id="node4" class="node">
<title>3</title>
<path fill="none" stroke="#56d8d8" stroke-width="2" stroke-dasharray="5,2" d="M192.642,-254C192.642,-254 11.7857,-254 11.7857,-254 5.7857,-254 -.2143,-248 -.2143,-242 -.2143,-242 -.2143,-228 -.2143,-228 -.2143,-222 5.7857,-216 11.7857,-216 11.7857,-216 192.642,-216 192.642,-216 198.642,-216 204.642,-222 204.642,-228 204.642,-228 204.642,-242 204.642,-242 204.642,-248 198.642,-254 192.642,-254"/>
<text text-anchor="middle" x="102.2139" y="-242" font-family="sans" font-size="10.00" fill="#000000">trim_primer_quality</text>
<text text-anchor="middle" x="102.2139" y="-232" font-family="sans" font-size="10.00" fill="#000000">out_dir: /Users/karthik/hpc_downloads/test</text>
<text text-anchor="middle" x="102.2139" y="-222" font-family="sans" font-size="10.00" fill="#000000">sample: ZI26a</text>
</g>
<!-- 23 -->
<g id="node24" class="node">
<title>23</title>
<path fill="none" stroke="#d85656" stroke-width="2" d="M191.7961,-180C191.7961,-180 144.6316,-180 144.6316,-180 138.6316,-180 132.6316,-174 132.6316,-168 132.6316,-168 132.6316,-156 132.6316,-156 132.6316,-150 138.6316,-144 144.6316,-144 144.6316,-144 191.7961,-144 191.7961,-144 197.7961,-144 203.7961,-150 203.7961,-156 203.7961,-156 203.7961,-168 203.7961,-168 203.7961,-174 197.7961,-180 191.7961,-180"/>
<text text-anchor="middle" x="168.2139" y="-159" font-family="sans" font-size="10.00" fill="#000000">call_variants</text>
</g>
<!-- 3&#45;&gt;23 -->
<g id="edge25" class="edge">
<title>3&#45;&gt;23</title>
<path fill="none" stroke="#c0c0c0" stroke-width="2" d="M119.5546,-215.8201C127.3125,-207.2394 136.5735,-196.9962 144.9239,-187.7601"/>
<polygon fill="#c0c0c0" stroke="#c0c0c0" stroke-width="2" points="147.5608,-190.0624 151.6711,-180.2973 142.3683,-185.3679 147.5608,-190.0624"/>
</g>
<!-- 4 -->
<g id="node5" class="node">
<title>4</title>
<path fill="none" stroke="#d85656" stroke-width="2" d="M1490.7961,-180C1490.7961,-180 1443.6316,-180 1443.6316,-180 1437.6316,-180 1431.6316,-174 1431.6316,-168 1431.6316,-168 1431.6316,-156 1431.6316,-156 1431.6316,-150 1437.6316,-144 1443.6316,-144 1443.6316,-144 1490.7961,-144 1490.7961,-144 1496.7961,-144 1502.7961,-150 1502.7961,-156 1502.7961,-156 1502.7961,-168 1502.7961,-168 1502.7961,-174 1496.7961,-180 1490.7961,-180"/>
<text text-anchor="middle" x="1467.2139" y="-159" font-family="sans" font-size="10.00" fill="#000000">call_variants</text>
</g>
<!-- 20 -->
<g id="node21" class="node">
<title>20</title>
<path fill="none" stroke="#d6d856" stroke-width="2" d="M1571.1831,-108C1571.1831,-108 1519.2446,-108 1519.2446,-108 1513.2446,-108 1507.2446,-102 1507.2446,-96 1507.2446,-96 1507.2446,-84 1507.2446,-84 1507.2446,-78 1513.2446,-72 1519.2446,-72 1519.2446,-72 1571.1831,-72 1571.1831,-72 1577.1831,-72 1583.1831,-78 1583.1831,-84 1583.1831,-84 1583.1831,-96 1583.1831,-96 1583.1831,-102 1577.1831,-108 1571.1831,-108"/>
<text text-anchor="middle" x="1545.2139" y="-92" font-family="sans" font-size="10.00" fill="#000000">filter_variants</text>
<text text-anchor="middle" x="1545.2139" y="-82" font-family="sans" font-size="10.00" fill="#000000">sample: ZI53</text>
</g>
<!-- 4&#45;&gt;20 -->
<g id="edge22" class="edge">
<title>4&#45;&gt;20</title>
<path fill="none" stroke="#c0c0c0" stroke-width="2" d="M1486.8966,-143.8314C1496.319,-135.1337 1507.754,-124.5783 1517.9935,-115.1265"/>
<polygon fill="#c0c0c0" stroke="#c0c0c0" stroke-width="2" points="1520.5634,-117.5175 1525.5375,-108.1628 1515.8154,-112.3738 1520.5634,-117.5175"/>
</g>
<!-- 5 -->
<g id="node6" class="node">
<title>5</title>
<path fill="none" stroke="#56d8d8" stroke-width="2" stroke-dasharray="5,2" d="M1302.642,-254C1302.642,-254 1121.7857,-254 1121.7857,-254 1115.7857,-254 1109.7857,-248 1109.7857,-242 1109.7857,-242 1109.7857,-228 1109.7857,-228 1109.7857,-222 1115.7857,-216 1121.7857,-216 1121.7857,-216 1302.642,-216 1302.642,-216 1308.642,-216 1314.642,-222 1314.642,-228 1314.642,-228 1314.642,-242 1314.642,-242 1314.642,-248 1308.642,-254 1302.642,-254"/>
<text text-anchor="middle" x="1212.2139" y="-242" font-family="sans" font-size="10.00" fill="#000000">trim_primer_quality</text>
<text text-anchor="middle" x="1212.2139" y="-232" font-family="sans" font-size="10.00" fill="#000000">out_dir: /Users/karthik/hpc_downloads/test</text>
<text text-anchor="middle" x="1212.2139" y="-222" font-family="sans" font-size="10.00" fill="#000000">sample: ZI27a</text>
</g>
<!-- 22 -->
<g id="node23" class="node">
<title>22</title>
<path fill="none" stroke="#d85656" stroke-width="2" d="M1235.7961,-180C1235.7961,-180 1188.6316,-180 1188.6316,-180 1182.6316,-180 1176.6316,-174 1176.6316,-168 1176.6316,-168 1176.6316,-156 1176.6316,-156 1176.6316,-150 1182.6316,-144 1188.6316,-144 1188.6316,-144 1235.7961,-144 1235.7961,-144 1241.7961,-144 1247.7961,-150 1247.7961,-156 1247.7961,-156 1247.7961,-168 1247.7961,-168 1247.7961,-174 1241.7961,-180 1235.7961,-180"/>
<text text-anchor="middle" x="1212.2139" y="-159" font-family="sans" font-size="10.00" fill="#000000">call_variants</text>
</g>
<!-- 5&#45;&gt;22 -->
<g id="edge24" class="edge">
<title>5&#45;&gt;22</title>
<path fill="none" stroke="#c0c0c0" stroke-width="2" d="M1212.2139,-215.8201C1212.2139,-208.0975 1212.2139,-199.0282 1212.2139,-190.5585"/>
<polygon fill="#c0c0c0" stroke="#c0c0c0" stroke-width="2" points="1215.714,-190.2973 1212.2139,-180.2973 1208.714,-190.2974 1215.714,-190.2973"/>
</g>
<!-- 7 -->
<g id="node8" class="node">
<title>7</title>
<path fill="none" stroke="#56d8d8" stroke-width="2" stroke-dasharray="5,2" d="M2856.642,-254C2856.642,-254 2675.7857,-254 2675.7857,-254 2669.7857,-254 2663.7857,-248 2663.7857,-242 2663.7857,-242 2663.7857,-228 2663.7857,-228 2663.7857,-222 2669.7857,-216 2675.7857,-216 2675.7857,-216 2856.642,-216 2856.642,-216 2862.642,-216 2868.642,-222 2868.642,-228 2868.642,-228 2868.642,-242 2868.642,-242 2868.642,-248 2862.642,-254 2856.642,-254"/>
<text text-anchor="middle" x="2766.2139" y="-242" font-family="sans" font-size="10.00" fill="#000000">trim_primer_quality</text>
<text text-anchor="middle" x="2766.2139" y="-232" font-family="sans" font-size="10.00" fill="#000000">out_dir: /Users/karthik/hpc_downloads/test</text>
<text text-anchor="middle" x="2766.2139" y="-222" font-family="sans" font-size="10.00" fill="#000000">sample: ZI50a</text>
</g>
<!-- 17 -->
<g id="node18" class="node">
<title>17</title>
<path fill="none" stroke="#d85656" stroke-width="2" d="M2789.7961,-180C2789.7961,-180 2742.6316,-180 2742.6316,-180 2736.6316,-180 2730.6316,-174 2730.6316,-168 2730.6316,-168 2730.6316,-156 2730.6316,-156 2730.6316,-150 2736.6316,-144 2742.6316,-144 2742.6316,-144 2789.7961,-144 2789.7961,-144 2795.7961,-144 2801.7961,-150 2801.7961,-156 2801.7961,-156 2801.7961,-168 2801.7961,-168 2801.7961,-174 2795.7961,-180 2789.7961,-180"/>
<text text-anchor="middle" x="2766.2139" y="-159" font-family="sans" font-size="10.00" fill="#000000">call_variants</text>
</g>
<!-- 7&#45;&gt;17 -->
<g id="edge19" class="edge">
<title>7&#45;&gt;17</title>
<path fill="none" stroke="#c0c0c0" stroke-width="2" d="M2766.2139,-215.8201C2766.2139,-208.0975 2766.2139,-199.0282 2766.2139,-190.5585"/>
<polygon fill="#c0c0c0" stroke="#c0c0c0" stroke-width="2" points="2769.714,-190.2973 2766.2139,-180.2973 2762.714,-190.2974 2769.714,-190.2973"/>
</g>
<!-- 8 -->
<g id="node9" class="node">
<title>8</title>
<path fill="none" stroke="#d85656" stroke-width="2" d="M635.7961,-180C635.7961,-180 588.6316,-180 588.6316,-180 582.6316,-180 576.6316,-174 576.6316,-168 576.6316,-168 576.6316,-156 576.6316,-156 576.6316,-150 582.6316,-144 588.6316,-144 588.6316,-144 635.7961,-144 635.7961,-144 641.7961,-144 647.7961,-150 647.7961,-156 647.7961,-156 647.7961,-168 647.7961,-168 647.7961,-174 641.7961,-180 635.7961,-180"/>
<text text-anchor="middle" x="612.2139" y="-159" font-family="sans" font-size="10.00" fill="#000000">call_variants</text>
</g>
<!-- 10 -->
<g id="node11" class="node">
<title>10</title>
<path fill="none" stroke="#d6d856" stroke-width="2" d="M794.1831,-108C794.1831,-108 742.2446,-108 742.2446,-108 736.2446,-108 730.2446,-102 730.2446,-96 730.2446,-96 730.2446,-84 730.2446,-84 730.2446,-78 736.2446,-72 742.2446,-72 742.2446,-72 794.1831,-72 794.1831,-72 800.1831,-72 806.1831,-78 806.1831,-84 806.1831,-84 806.1831,-96 806.1831,-96 806.1831,-102 800.1831,-108 794.1831,-108"/>
<text text-anchor="middle" x="768.2139" y="-92" font-family="sans" font-size="10.00" fill="#000000">filter_variants</text>
<text text-anchor="middle" x="768.2139" y="-82" font-family="sans" font-size="10.00" fill="#000000">sample: ZI51</text>
</g>
<!-- 8&#45;&gt;10 -->
<g id="edge13" class="edge">
<title>8&#45;&gt;10</title>
<path fill="none" stroke="#c0c0c0" stroke-width="2" d="M648.0034,-145.4817C669.7625,-135.4391 697.793,-122.502 721.3124,-111.6468"/>
<polygon fill="#c0c0c0" stroke="#c0c0c0" stroke-width="2" points="722.802,-114.8142 730.4149,-107.4457 719.8685,-108.4585 722.802,-114.8142"/>
</g>
<!-- 9 -->
<g id="node10" class="node">
<title>9</title>
<path fill="none" stroke="#56d8d8" stroke-width="2" stroke-dasharray="5,2" d="M1080.642,-254C1080.642,-254 899.7857,-254 899.7857,-254 893.7857,-254 887.7857,-248 887.7857,-242 887.7857,-242 887.7857,-228 887.7857,-228 887.7857,-222 893.7857,-216 899.7857,-216 899.7857,-216 1080.642,-216 1080.642,-216 1086.642,-216 1092.642,-222 1092.642,-228 1092.642,-228 1092.642,-242 1092.642,-242 1092.642,-248 1086.642,-254 1080.642,-254"/>
<text text-anchor="middle" x="990.2139" y="-242" font-family="sans" font-size="10.00" fill="#000000">trim_primer_quality</text>
<text text-anchor="middle" x="990.2139" y="-232" font-family="sans" font-size="10.00" fill="#000000">out_dir: /Users/karthik/hpc_downloads/test</text>
<text text-anchor="middle" x="990.2139" y="-222" font-family="sans" font-size="10.00" fill="#000000">sample: ZI27b</text>
</g>
<!-- 12 -->
<g id="node13" class="node">
<title>12</title>
<path fill="none" stroke="#d85656" stroke-width="2" d="M1079.7961,-180C1079.7961,-180 1032.6316,-180 1032.6316,-180 1026.6316,-180 1020.6316,-174 1020.6316,-168 1020.6316,-168 1020.6316,-156 1020.6316,-156 1020.6316,-150 1026.6316,-144 1032.6316,-144 1032.6316,-144 1079.7961,-144 1079.7961,-144 1085.7961,-144 1091.7961,-150 1091.7961,-156 1091.7961,-156 1091.7961,-168 1091.7961,-168 1091.7961,-174 1085.7961,-180 1079.7961,-180"/>
<text text-anchor="middle" x="1056.2139" y="-159" font-family="sans" font-size="10.00" fill="#000000">call_variants</text>
</g>
<!-- 9&#45;&gt;12 -->
<g id="edge17" class="edge">
<title>9&#45;&gt;12</title>
<path fill="none" stroke="#c0c0c0" stroke-width="2" d="M1007.5546,-215.8201C1015.3125,-207.2394 1024.5735,-196.9962 1032.9239,-187.7601"/>
<polygon fill="#c0c0c0" stroke="#c0c0c0" stroke-width="2" points="1035.5608,-190.0624 1039.6711,-180.2973 1030.3683,-185.3679 1035.5608,-190.0624"/>
</g>
<!-- 10&#45;&gt;6 -->
<g id="edge5" class="edge">
<title>10&#45;&gt;6</title>
<path fill="none" stroke="#c0c0c0" stroke-width="2" d="M805.9528,-86.503C937.7765,-74.2876 1376.8161,-33.6044 1507.93,-21.4549"/>
<polygon fill="#c0c0c0" stroke="#c0c0c0" stroke-width="2" points="1508.2581,-24.9396 1517.8925,-20.5317 1507.6122,-17.9694 1508.2581,-24.9396"/>
</g>
<!-- 11 -->
<g id="node12" class="node">
<title>11</title>
<path fill="none" stroke="#d6d856" stroke-width="2" d="M1238.1831,-108C1238.1831,-108 1186.2446,-108 1186.2446,-108 1180.2446,-108 1174.2446,-102 1174.2446,-96 1174.2446,-96 1174.2446,-84 1174.2446,-84 1174.2446,-78 1180.2446,-72 1186.2446,-72 1186.2446,-72 1238.1831,-72 1238.1831,-72 1244.1831,-72 1250.1831,-78 1250.1831,-84 1250.1831,-84 1250.1831,-96 1250.1831,-96 1250.1831,-102 1244.1831,-108 1238.1831,-108"/>
<text text-anchor="middle" x="1212.2139" y="-92" font-family="sans" font-size="10.00" fill="#000000">filter_variants</text>
<text text-anchor="middle" x="1212.2139" y="-82" font-family="sans" font-size="10.00" fill="#000000">sample: ZI27</text>
</g>
<!-- 11&#45;&gt;6 -->
<g id="edge7" class="edge">
<title>11&#45;&gt;6</title>
<path fill="none" stroke="#c0c0c0" stroke-width="2" d="M1250.089,-81.8108C1314.357,-67.915 1443.9979,-39.8845 1507.8899,-26.07"/>
<polygon fill="#c0c0c0" stroke="#c0c0c0" stroke-width="2" points="1508.8922,-29.4343 1517.9266,-23.8999 1507.4128,-22.5924 1508.8922,-29.4343"/>
</g>
<!-- 12&#45;&gt;11 -->
<g id="edge15" class="edge">
<title>12&#45;&gt;11</title>
<path fill="none" stroke="#c0c0c0" stroke-width="2" d="M1092.0034,-145.4817C1113.7625,-135.4391 1141.793,-122.502 1165.3124,-111.6468"/>
<polygon fill="#c0c0c0" stroke="#c0c0c0" stroke-width="2" points="1166.802,-114.8142 1174.4149,-107.4457 1163.8685,-108.4585 1166.802,-114.8142"/>
</g>
<!-- 13 -->
<g id="node14" class="node">
<title>13</title>
<path fill="none" stroke="#56d8d8" stroke-width="2" stroke-dasharray="5,2" d="M2634.642,-254C2634.642,-254 2453.7857,-254 2453.7857,-254 2447.7857,-254 2441.7857,-248 2441.7857,-242 2441.7857,-242 2441.7857,-228 2441.7857,-228 2441.7857,-222 2447.7857,-216 2453.7857,-216 2453.7857,-216 2634.642,-216 2634.642,-216 2640.642,-216 2646.642,-222 2646.642,-228 2646.642,-228 2646.642,-242 2646.642,-242 2646.642,-248 2640.642,-254 2634.642,-254"/>
<text text-anchor="middle" x="2544.2139" y="-242" font-family="sans" font-size="10.00" fill="#000000">trim_primer_quality</text>
<text text-anchor="middle" x="2544.2139" y="-232" font-family="sans" font-size="10.00" fill="#000000">out_dir: /Users/karthik/hpc_downloads/test</text>
<text text-anchor="middle" x="2544.2139" y="-222" font-family="sans" font-size="10.00" fill="#000000">sample: ZI52b</text>
</g>
<!-- 32 -->
<g id="node33" class="node">
<title>32</title>
<path fill="none" stroke="#d85656" stroke-width="2" d="M2501.7961,-180C2501.7961,-180 2454.6316,-180 2454.6316,-180 2448.6316,-180 2442.6316,-174 2442.6316,-168 2442.6316,-168 2442.6316,-156 2442.6316,-156 2442.6316,-150 2448.6316,-144 2454.6316,-144 2454.6316,-144 2501.7961,-144 2501.7961,-144 2507.7961,-144 2513.7961,-150 2513.7961,-156 2513.7961,-156 2513.7961,-168 2513.7961,-168 2513.7961,-174 2507.7961,-180 2501.7961,-180"/>
<text text-anchor="middle" x="2478.2139" y="-159" font-family="sans" font-size="10.00" fill="#000000">call_variants</text>
</g>
<!-- 13&#45;&gt;32 -->
<g id="edge31" class="edge">
<title>13&#45;&gt;32</title>
<path fill="none" stroke="#c0c0c0" stroke-width="2" d="M2526.8731,-215.8201C2519.1153,-207.2394 2509.8543,-196.9962 2501.5039,-187.7601"/>
<polygon fill="#c0c0c0" stroke="#c0c0c0" stroke-width="2" points="2504.0594,-185.3679 2494.7567,-180.2973 2498.8669,-190.0624 2504.0594,-185.3679"/>
</g>
<!-- 14 -->
<g id="node15" class="node">
<title>14</title>
<path fill="none" stroke="#56d8d8" stroke-width="2" stroke-dasharray="5,2" d="M1746.642,-254C1746.642,-254 1565.7857,-254 1565.7857,-254 1559.7857,-254 1553.7857,-248 1553.7857,-242 1553.7857,-242 1553.7857,-228 1553.7857,-228 1553.7857,-222 1559.7857,-216 1565.7857,-216 1565.7857,-216 1746.642,-216 1746.642,-216 1752.642,-216 1758.642,-222 1758.642,-228 1758.642,-228 1758.642,-242 1758.642,-242 1758.642,-248 1752.642,-254 1746.642,-254"/>
<text text-anchor="middle" x="1656.2139" y="-242" font-family="sans" font-size="10.00" fill="#000000">trim_primer_quality</text>
<text text-anchor="middle" x="1656.2139" y="-232" font-family="sans" font-size="10.00" fill="#000000">out_dir: /Users/karthik/hpc_downloads/test</text>
<text text-anchor="middle" x="1656.2139" y="-222" font-family="sans" font-size="10.00" fill="#000000">sample: ZI53b</text>
</g>
<!-- 29 -->
<g id="node30" class="node">
<title>29</title>
<path fill="none" stroke="#d85656" stroke-width="2" d="M1613.7961,-180C1613.7961,-180 1566.6316,-180 1566.6316,-180 1560.6316,-180 1554.6316,-174 1554.6316,-168 1554.6316,-168 1554.6316,-156 1554.6316,-156 1554.6316,-150 1560.6316,-144 1566.6316,-144 1566.6316,-144 1613.7961,-144 1613.7961,-144 1619.7961,-144 1625.7961,-150 1625.7961,-156 1625.7961,-156 1625.7961,-168 1625.7961,-168 1625.7961,-174 1619.7961,-180 1613.7961,-180"/>
<text text-anchor="middle" x="1590.2139" y="-159" font-family="sans" font-size="10.00" fill="#000000">call_variants</text>
</g>
<!-- 14&#45;&gt;29 -->
<g id="edge30" class="edge">
<title>14&#45;&gt;29</title>
<path fill="none" stroke="#c0c0c0" stroke-width="2" d="M1638.8731,-215.8201C1631.1153,-207.2394 1621.8543,-196.9962 1613.5039,-187.7601"/>
<polygon fill="#c0c0c0" stroke="#c0c0c0" stroke-width="2" points="1616.0594,-185.3679 1606.7567,-180.2973 1610.8669,-190.0624 1616.0594,-185.3679"/>
</g>
<!-- 15 -->
<g id="node16" class="node">
<title>15</title>
<path fill="none" stroke="#56d8d8" stroke-width="2" stroke-dasharray="5,2" d="M2190.642,-254C2190.642,-254 2009.7857,-254 2009.7857,-254 2003.7857,-254 1997.7857,-248 1997.7857,-242 1997.7857,-242 1997.7857,-228 1997.7857,-228 1997.7857,-222 2003.7857,-216 2009.7857,-216 2009.7857,-216 2190.642,-216 2190.642,-216 2196.642,-216 2202.642,-222 2202.642,-228 2202.642,-228 2202.642,-242 2202.642,-242 2202.642,-248 2196.642,-254 2190.642,-254"/>
<text text-anchor="middle" x="2100.2139" y="-242" font-family="sans" font-size="10.00" fill="#000000">trim_primer_quality</text>
<text text-anchor="middle" x="2100.2139" y="-232" font-family="sans" font-size="10.00" fill="#000000">out_dir: /Users/karthik/hpc_downloads/test</text>
<text text-anchor="middle" x="2100.2139" y="-222" font-family="sans" font-size="10.00" fill="#000000">sample: ZI49a</text>
</g>
<!-- 33 -->
<g id="node34" class="node">
<title>33</title>
<path fill="none" stroke="#d85656" stroke-width="2" d="M2057.7961,-180C2057.7961,-180 2010.6316,-180 2010.6316,-180 2004.6316,-180 1998.6316,-174 1998.6316,-168 1998.6316,-168 1998.6316,-156 1998.6316,-156 1998.6316,-150 2004.6316,-144 2010.6316,-144 2010.6316,-144 2057.7961,-144 2057.7961,-144 2063.7961,-144 2069.7961,-150 2069.7961,-156 2069.7961,-156 2069.7961,-168 2069.7961,-168 2069.7961,-174 2063.7961,-180 2057.7961,-180"/>
<text text-anchor="middle" x="2034.2139" y="-159" font-family="sans" font-size="10.00" fill="#000000">call_variants</text>
</g>
<!-- 15&#45;&gt;33 -->
<g id="edge32" class="edge">
<title>15&#45;&gt;33</title>
<path fill="none" stroke="#c0c0c0" stroke-width="2" d="M2082.8731,-215.8201C2075.1153,-207.2394 2065.8543,-196.9962 2057.5039,-187.7601"/>
<polygon fill="#c0c0c0" stroke="#c0c0c0" stroke-width="2" points="2060.0594,-185.3679 2050.7567,-180.2973 2054.8669,-190.0624 2060.0594,-185.3679"/>
</g>
<!-- 16 -->
<g id="node17" class="node">
<title>16</title>
<path fill="none" stroke="#d85656" stroke-width="2" d="M1901.7961,-180C1901.7961,-180 1854.6316,-180 1854.6316,-180 1848.6316,-180 1842.6316,-174 1842.6316,-168 1842.6316,-168 1842.6316,-156 1842.6316,-156 1842.6316,-150 1848.6316,-144 1854.6316,-144 1854.6316,-144 1901.7961,-144 1901.7961,-144 1907.7961,-144 1913.7961,-150 1913.7961,-156 1913.7961,-156 1913.7961,-168 1913.7961,-168 1913.7961,-174 1907.7961,-180 1901.7961,-180"/>
<text text-anchor="middle" x="1878.2139" y="-159" font-family="sans" font-size="10.00" fill="#000000">call_variants</text>
</g>
<!-- 24 -->
<g id="node25" class="node">
<title>24</title>
<path fill="none" stroke="#d6d856" stroke-width="2" d="M1904.1831,-108C1904.1831,-108 1852.2446,-108 1852.2446,-108 1846.2446,-108 1840.2446,-102 1840.2446,-96 1840.2446,-96 1840.2446,-84 1840.2446,-84 1840.2446,-78 1846.2446,-72 1852.2446,-72 1852.2446,-72 1904.1831,-72 1904.1831,-72 1910.1831,-72 1916.1831,-78 1916.1831,-84 1916.1831,-84 1916.1831,-96 1916.1831,-96 1916.1831,-102 1910.1831,-108 1904.1831,-108"/>
<text text-anchor="middle" x="1878.2139" y="-92" font-family="sans" font-size="10.00" fill="#000000">filter_variants</text>
<text text-anchor="middle" x="1878.2139" y="-82" font-family="sans" font-size="10.00" fill="#000000">sample: ZI49</text>
</g>
<!-- 16&#45;&gt;24 -->
<g id="edge26" class="edge">
<title>16&#45;&gt;24</title>
<path fill="none" stroke="#c0c0c0" stroke-width="2" d="M1878.2139,-143.8314C1878.2139,-136.131 1878.2139,-126.9743 1878.2139,-118.4166"/>
<polygon fill="#c0c0c0" stroke="#c0c0c0" stroke-width="2" points="1881.714,-118.4132 1878.2139,-108.4133 1874.714,-118.4133 1881.714,-118.4132"/>
</g>
<!-- 17&#45;&gt;18 -->
<g id="edge20" class="edge">
<title>17&#45;&gt;18</title>
<path fill="none" stroke="#c0c0c0" stroke-width="2" d="M2766.2139,-143.8314C2766.2139,-136.131 2766.2139,-126.9743 2766.2139,-118.4166"/>
<polygon fill="#c0c0c0" stroke="#c0c0c0" stroke-width="2" points="2769.714,-118.4132 2766.2139,-108.4133 2762.714,-118.4133 2769.714,-118.4132"/>
</g>
<!-- 18&#45;&gt;6 -->
<g id="edge6" class="edge">
<title>18&#45;&gt;6</title>
<path fill="none" stroke="#c0c0c0" stroke-width="2" d="M2728.3329,-87.7662C2546.2954,-77.0318 1762.7818,-30.8296 1582.3639,-20.1907"/>
<polygon fill="#c0c0c0" stroke="#c0c0c0" stroke-width="2" points="1582.4982,-16.6926 1572.3094,-19.5978 1582.086,-23.6805 1582.4982,-16.6926"/>
</g>
<!-- 19 -->
<g id="node20" class="node">
<title>19</title>
<path fill="none" stroke="#56d8d8" stroke-width="2" stroke-dasharray="5,2" d="M858.642,-254C858.642,-254 677.7857,-254 677.7857,-254 671.7857,-254 665.7857,-248 665.7857,-242 665.7857,-242 665.7857,-228 665.7857,-228 665.7857,-222 671.7857,-216 677.7857,-216 677.7857,-216 858.642,-216 858.642,-216 864.642,-216 870.642,-222 870.642,-228 870.642,-228 870.642,-242 870.642,-242 870.642,-248 864.642,-254 858.642,-254"/>
<text text-anchor="middle" x="768.2139" y="-242" font-family="sans" font-size="10.00" fill="#000000">trim_primer_quality</text>
<text text-anchor="middle" x="768.2139" y="-232" font-family="sans" font-size="10.00" fill="#000000">out_dir: /Users/karthik/hpc_downloads/test</text>
<text text-anchor="middle" x="768.2139" y="-222" font-family="sans" font-size="10.00" fill="#000000">sample: ZI51b</text>
</g>
<!-- 27 -->
<g id="node28" class="node">
<title>27</title>
<path fill="none" stroke="#d85656" stroke-width="2" d="M791.7961,-180C791.7961,-180 744.6316,-180 744.6316,-180 738.6316,-180 732.6316,-174 732.6316,-168 732.6316,-168 732.6316,-156 732.6316,-156 732.6316,-150 738.6316,-144 744.6316,-144 744.6316,-144 791.7961,-144 791.7961,-144 797.7961,-144 803.7961,-150 803.7961,-156 803.7961,-156 803.7961,-168 803.7961,-168 803.7961,-174 797.7961,-180 791.7961,-180"/>
<text text-anchor="middle" x="768.2139" y="-159" font-family="sans" font-size="10.00" fill="#000000">call_variants</text>
</g>
<!-- 19&#45;&gt;27 -->
<g id="edge29" class="edge">
<title>19&#45;&gt;27</title>
<path fill="none" stroke="#c0c0c0" stroke-width="2" d="M768.2139,-215.8201C768.2139,-208.0975 768.2139,-199.0282 768.2139,-190.5585"/>
<polygon fill="#c0c0c0" stroke="#c0c0c0" stroke-width="2" points="771.714,-190.2973 768.2139,-180.2973 764.714,-190.2974 771.714,-190.2973"/>
</g>
<!-- 20&#45;&gt;6 -->
<g id="edge8" class="edge">
<title>20&#45;&gt;6</title>
<path fill="none" stroke="#c0c0c0" stroke-width="2" d="M1545.2139,-71.8314C1545.2139,-64.131 1545.2139,-54.9743 1545.2139,-46.4166"/>
<polygon fill="#c0c0c0" stroke="#c0c0c0" stroke-width="2" points="1548.714,-46.4132 1545.2139,-36.4133 1541.714,-46.4133 1548.714,-46.4132"/>
</g>
<!-- 21 -->
<g id="node22" class="node">
<title>21</title>
<path fill="none" stroke="#56d8d8" stroke-width="2" stroke-dasharray="5,2" d="M1524.642,-254C1524.642,-254 1343.7857,-254 1343.7857,-254 1337.7857,-254 1331.7857,-248 1331.7857,-242 1331.7857,-242 1331.7857,-228 1331.7857,-228 1331.7857,-222 1337.7857,-216 1343.7857,-216 1343.7857,-216 1524.642,-216 1524.642,-216 1530.642,-216 1536.642,-222 1536.642,-228 1536.642,-228 1536.642,-242 1536.642,-242 1536.642,-248 1530.642,-254 1524.642,-254"/>
<text text-anchor="middle" x="1434.2139" y="-242" font-family="sans" font-size="10.00" fill="#000000">trim_primer_quality</text>
<text text-anchor="middle" x="1434.2139" y="-232" font-family="sans" font-size="10.00" fill="#000000">out_dir: /Users/karthik/hpc_downloads/test</text>
<text text-anchor="middle" x="1434.2139" y="-222" font-family="sans" font-size="10.00" fill="#000000">sample: ZI53a</text>
</g>
<!-- 21&#45;&gt;4 -->
<g id="edge4" class="edge">
<title>21&#45;&gt;4</title>
<path fill="none" stroke="#c0c0c0" stroke-width="2" d="M1442.8842,-215.8201C1446.5304,-207.7543 1450.8407,-198.2194 1454.8127,-189.4329"/>
<polygon fill="#c0c0c0" stroke="#c0c0c0" stroke-width="2" points="1458.0125,-190.8513 1458.9425,-180.2973 1451.6339,-187.9678 1458.0125,-190.8513"/>
</g>
<!-- 22&#45;&gt;11 -->
<g id="edge16" class="edge">
<title>22&#45;&gt;11</title>
<path fill="none" stroke="#c0c0c0" stroke-width="2" d="M1212.2139,-143.8314C1212.2139,-136.131 1212.2139,-126.9743 1212.2139,-118.4166"/>
<polygon fill="#c0c0c0" stroke="#c0c0c0" stroke-width="2" points="1215.714,-118.4132 1212.2139,-108.4133 1208.714,-118.4133 1215.714,-118.4132"/>
</g>
<!-- 23&#45;&gt;2 -->
<g id="edge2" class="edge">
<title>23&#45;&gt;2</title>
<path fill="none" stroke="#c0c0c0" stroke-width="2" d="M204.0034,-145.4817C225.7625,-135.4391 253.793,-122.502 277.3124,-111.6468"/>
<polygon fill="#c0c0c0" stroke="#c0c0c0" stroke-width="2" points="278.802,-114.8142 286.4149,-107.4457 275.8685,-108.4585 278.802,-114.8142"/>
</g>
<!-- 24&#45;&gt;6 -->
<g id="edge10" class="edge">
<title>24&#45;&gt;6</title>
<path fill="none" stroke="#c0c0c0" stroke-width="2" d="M1840.3387,-81.8108C1776.0707,-67.915 1646.4299,-39.8845 1582.5378,-26.07"/>
<polygon fill="#c0c0c0" stroke="#c0c0c0" stroke-width="2" points="1583.0149,-22.5924 1572.5011,-23.8999 1581.5356,-29.4343 1583.0149,-22.5924"/>
</g>
<!-- 25 -->
<g id="node26" class="node">
<title>25</title>
<path fill="none" stroke="#56d8d8" stroke-width="2" stroke-dasharray="5,2" d="M3078.642,-254C3078.642,-254 2897.7857,-254 2897.7857,-254 2891.7857,-254 2885.7857,-248 2885.7857,-242 2885.7857,-242 2885.7857,-228 2885.7857,-228 2885.7857,-222 2891.7857,-216 2897.7857,-216 2897.7857,-216 3078.642,-216 3078.642,-216 3084.642,-216 3090.642,-222 3090.642,-228 3090.642,-228 3090.642,-242 3090.642,-242 3090.642,-248 3084.642,-254 3078.642,-254"/>
<text text-anchor="middle" x="2988.2139" y="-242" font-family="sans" font-size="10.00" fill="#000000">trim_primer_quality</text>
<text text-anchor="middle" x="2988.2139" y="-232" font-family="sans" font-size="10.00" fill="#000000">out_dir: /Users/karthik/hpc_downloads/test</text>
<text text-anchor="middle" x="2988.2139" y="-222" font-family="sans" font-size="10.00" fill="#000000">sample: ZI50b</text>
</g>
<!-- 25&#45;&gt;0 -->
<g id="edge1" class="edge">
<title>25&#45;&gt;0</title>
<path fill="none" stroke="#c0c0c0" stroke-width="2" d="M2970.8731,-215.8201C2963.1153,-207.2394 2953.8543,-196.9962 2945.5039,-187.7601"/>
<polygon fill="#c0c0c0" stroke="#c0c0c0" stroke-width="2" points="2948.0594,-185.3679 2938.7567,-180.2973 2942.8669,-190.0624 2948.0594,-185.3679"/>
</g>
<!-- 34 -->
<g id="node35" class="node">
<title>34</title>
<path fill="none" stroke="#d6d856" stroke-width="2" d="M2348.1831,-108C2348.1831,-108 2296.2446,-108 2296.2446,-108 2290.2446,-108 2284.2446,-102 2284.2446,-96 2284.2446,-96 2284.2446,-84 2284.2446,-84 2284.2446,-78 2290.2446,-72 2296.2446,-72 2296.2446,-72 2348.1831,-72 2348.1831,-72 2354.1831,-72 2360.1831,-78 2360.1831,-84 2360.1831,-84 2360.1831,-96 2360.1831,-96 2360.1831,-102 2354.1831,-108 2348.1831,-108"/>
<text text-anchor="middle" x="2322.2139" y="-92" font-family="sans" font-size="10.00" fill="#000000">filter_variants</text>
<text text-anchor="middle" x="2322.2139" y="-82" font-family="sans" font-size="10.00" fill="#000000">sample: ZI52</text>
</g>
<!-- 26&#45;&gt;34 -->
<g id="edge34" class="edge">
<title>26&#45;&gt;34</title>
<path fill="none" stroke="#c0c0c0" stroke-width="2" d="M2322.2139,-143.8314C2322.2139,-136.131 2322.2139,-126.9743 2322.2139,-118.4166"/>
<polygon fill="#c0c0c0" stroke="#c0c0c0" stroke-width="2" points="2325.714,-118.4132 2322.2139,-108.4133 2318.714,-118.4133 2325.714,-118.4132"/>
</g>
<!-- 27&#45;&gt;10 -->
<g id="edge14" class="edge">
<title>27&#45;&gt;10</title>
<path fill="none" stroke="#c0c0c0" stroke-width="2" d="M768.2139,-143.8314C768.2139,-136.131 768.2139,-126.9743 768.2139,-118.4166"/>
<polygon fill="#c0c0c0" stroke="#c0c0c0" stroke-width="2" points="771.714,-118.4132 768.2139,-108.4133 764.714,-118.4133 771.714,-118.4132"/>
</g>
<!-- 28 -->
<g id="node29" class="node">
<title>28</title>
<path fill="none" stroke="#56d8d8" stroke-width="2" stroke-dasharray="5,2" d="M414.642,-254C414.642,-254 233.7857,-254 233.7857,-254 227.7857,-254 221.7857,-248 221.7857,-242 221.7857,-242 221.7857,-228 221.7857,-228 221.7857,-222 227.7857,-216 233.7857,-216 233.7857,-216 414.642,-216 414.642,-216 420.642,-216 426.642,-222 426.642,-228 426.642,-228 426.642,-242 426.642,-242 426.642,-248 420.642,-254 414.642,-254"/>
<text text-anchor="middle" x="324.2139" y="-242" font-family="sans" font-size="10.00" fill="#000000">trim_primer_quality</text>
<text text-anchor="middle" x="324.2139" y="-232" font-family="sans" font-size="10.00" fill="#000000">out_dir: /Users/karthik/hpc_downloads/test</text>
<text text-anchor="middle" x="324.2139" y="-222" font-family="sans" font-size="10.00" fill="#000000">sample: ZI26b</text>
</g>
<!-- 35 -->
<g id="node36" class="node">
<title>35</title>
<path fill="none" stroke="#d85656" stroke-width="2" d="M347.7961,-180C347.7961,-180 300.6316,-180 300.6316,-180 294.6316,-180 288.6316,-174 288.6316,-168 288.6316,-168 288.6316,-156 288.6316,-156 288.6316,-150 294.6316,-144 300.6316,-144 300.6316,-144 347.7961,-144 347.7961,-144 353.7961,-144 359.7961,-150 359.7961,-156 359.7961,-156 359.7961,-168 359.7961,-168 359.7961,-174 353.7961,-180 347.7961,-180"/>
<text text-anchor="middle" x="324.2139" y="-159" font-family="sans" font-size="10.00" fill="#000000">call_variants</text>
</g>
<!-- 28&#45;&gt;35 -->
<g id="edge35" class="edge">
<title>28&#45;&gt;35</title>
<path fill="none" stroke="#c0c0c0" stroke-width="2" d="M324.2139,-215.8201C324.2139,-208.0975 324.2139,-199.0282 324.2139,-190.5585"/>
<polygon fill="#c0c0c0" stroke="#c0c0c0" stroke-width="2" points="327.714,-190.2973 324.2139,-180.2973 320.714,-190.2974 327.714,-190.2973"/>
</g>
<!-- 29&#45;&gt;20 -->
<g id="edge23" class="edge">
<title>29&#45;&gt;20</title>
<path fill="none" stroke="#c0c0c0" stroke-width="2" d="M1578.8585,-143.8314C1573.7813,-135.7079 1567.6912,-125.9637 1562.0962,-117.0118"/>
<polygon fill="#c0c0c0" stroke="#c0c0c0" stroke-width="2" points="1564.9902,-115.0383 1556.7222,-108.4133 1559.0542,-118.7483 1564.9902,-115.0383"/>
</g>
<!-- 30 -->
<g id="node31" class="node">
<title>30</title>
<path fill="none" stroke="#56d8d8" stroke-width="2" stroke-dasharray="5,2" d="M1968.642,-254C1968.642,-254 1787.7857,-254 1787.7857,-254 1781.7857,-254 1775.7857,-248 1775.7857,-242 1775.7857,-242 1775.7857,-228 1775.7857,-228 1775.7857,-222 1781.7857,-216 1787.7857,-216 1787.7857,-216 1968.642,-216 1968.642,-216 1974.642,-216 1980.642,-222 1980.642,-228 1980.642,-228 1980.642,-242 1980.642,-242 1980.642,-248 1974.642,-254 1968.642,-254"/>
<text text-anchor="middle" x="1878.2139" y="-242" font-family="sans" font-size="10.00" fill="#000000">trim_primer_quality</text>
<text text-anchor="middle" x="1878.2139" y="-232" font-family="sans" font-size="10.00" fill="#000000">out_dir: /Users/karthik/hpc_downloads/test</text>
<text text-anchor="middle" x="1878.2139" y="-222" font-family="sans" font-size="10.00" fill="#000000">sample: ZI49b</text>
</g>
<!-- 30&#45;&gt;16 -->
<g id="edge18" class="edge">
<title>30&#45;&gt;16</title>
<path fill="none" stroke="#c0c0c0" stroke-width="2" d="M1878.2139,-215.8201C1878.2139,-208.0975 1878.2139,-199.0282 1878.2139,-190.5585"/>
<polygon fill="#c0c0c0" stroke="#c0c0c0" stroke-width="2" points="1881.714,-190.2973 1878.2139,-180.2973 1874.714,-190.2974 1881.714,-190.2973"/>
</g>
<!-- 31 -->
<g id="node32" class="node">
<title>31</title>
<path fill="none" stroke="#56d8d8" stroke-width="2" stroke-dasharray="5,2" d="M636.642,-254C636.642,-254 455.7857,-254 455.7857,-254 449.7857,-254 443.7857,-248 443.7857,-242 443.7857,-242 443.7857,-228 443.7857,-228 443.7857,-222 449.7857,-216 455.7857,-216 455.7857,-216 636.642,-216 636.642,-216 642.642,-216 648.642,-222 648.642,-228 648.642,-228 648.642,-242 648.642,-242 648.642,-248 642.642,-254 636.642,-254"/>
<text text-anchor="middle" x="546.2139" y="-242" font-family="sans" font-size="10.00" fill="#000000">trim_primer_quality</text>
<text text-anchor="middle" x="546.2139" y="-232" font-family="sans" font-size="10.00" fill="#000000">out_dir: /Users/karthik/hpc_downloads/test</text>
<text text-anchor="middle" x="546.2139" y="-222" font-family="sans" font-size="10.00" fill="#000000">sample: ZI51a</text>
</g>
<!-- 31&#45;&gt;8 -->
<g id="edge12" class="edge">
<title>31&#45;&gt;8</title>
<path fill="none" stroke="#c0c0c0" stroke-width="2" d="M563.5546,-215.8201C571.3125,-207.2394 580.5735,-196.9962 588.9239,-187.7601"/>
<polygon fill="#c0c0c0" stroke="#c0c0c0" stroke-width="2" points="591.5608,-190.0624 595.6711,-180.2973 586.3683,-185.3679 591.5608,-190.0624"/>
</g>
<!-- 32&#45;&gt;34 -->
<g id="edge33" class="edge">
<title>32&#45;&gt;34</title>
<path fill="none" stroke="#c0c0c0" stroke-width="2" d="M2442.4243,-145.4817C2420.6652,-135.4391 2392.6348,-122.502 2369.1153,-111.6468"/>
<polygon fill="#c0c0c0" stroke="#c0c0c0" stroke-width="2" points="2370.5592,-108.4585 2360.0129,-107.4457 2367.6258,-114.8142 2370.5592,-108.4585"/>
</g>
<!-- 33&#45;&gt;24 -->
<g id="edge27" class="edge">
<title>33&#45;&gt;24</title>
<path fill="none" stroke="#c0c0c0" stroke-width="2" d="M1998.4243,-145.4817C1976.6652,-135.4391 1948.6348,-122.502 1925.1153,-111.6468"/>
<polygon fill="#c0c0c0" stroke="#c0c0c0" stroke-width="2" points="1926.5592,-108.4585 1916.0129,-107.4457 1923.6258,-114.8142 1926.5592,-108.4585"/>
</g>
<!-- 34&#45;&gt;6 -->
<g id="edge11" class="edge">
<title>34&#45;&gt;6</title>
<path fill="none" stroke="#c0c0c0" stroke-width="2" d="M2284.475,-86.503C2152.6513,-74.2876 1713.6117,-33.6044 1582.4977,-21.4549"/>
<polygon fill="#c0c0c0" stroke="#c0c0c0" stroke-width="2" points="1582.8156,-17.9694 1572.5352,-20.5317 1582.1696,-24.9396 1582.8156,-17.9694"/>
</g>
<!-- 35&#45;&gt;2 -->
<g id="edge3" class="edge">
<title>35&#45;&gt;2</title>
<path fill="none" stroke="#c0c0c0" stroke-width="2" d="M324.2139,-143.8314C324.2139,-136.131 324.2139,-126.9743 324.2139,-118.4166"/>
<polygon fill="#c0c0c0" stroke="#c0c0c0" stroke-width="2" points="327.714,-118.4132 324.2139,-108.4133 320.714,-118.4133 327.714,-118.4132"/>
</g>
</g>
</svg>
