<?xml version="1.0" encoding="UTF-8" standalone="no"?>
<!DOCTYPE svg PUBLIC "-//W3C//DTD SVG 1.1//EN"
 "http://www.w3.org/Graphics/SVG/1.1/DTD/svg11.dtd">
<!-- Generated by graphviz version 2.40.1 (20161225.0304)
 -->
<!-- Title: snakemake_dag Pages: 1 -->
<svg width="2210pt" height="622pt"
 viewBox="0.00 0.00 2210.43 622.00" xmlns="http://www.w3.org/2000/svg" xmlns:xlink="http://www.w3.org/1999/xlink">
<g id="graph0" class="graph" transform="scale(1 1) rotate(0) translate(4 618)">
<title>snakemake_dag</title>
<polygon fill="#ffffff" stroke="transparent" points="-4,4 -4,-618 2206.4277,-618 2206.4277,4 -4,4"/>
<!-- 0 -->
<g id="node1" class="node">
<title>0</title>
<path fill="none" stroke="#d85656" stroke-width="2" d="M1851.1831,-108C1851.1831,-108 1799.2446,-108 1799.2446,-108 1793.2446,-108 1787.2446,-102 1787.2446,-96 1787.2446,-96 1787.2446,-84 1787.2446,-84 1787.2446,-78 1793.2446,-72 1799.2446,-72 1799.2446,-72 1851.1831,-72 1851.1831,-72 1857.1831,-72 1863.1831,-78 1863.1831,-84 1863.1831,-84 1863.1831,-96 1863.1831,-96 1863.1831,-102 1857.1831,-108 1851.1831,-108"/>
<text text-anchor="middle" x="1825.2139" y="-87" font-family="sans" font-size="10.00" fill="#000000">filter_variants</text>
</g>
<!-- 39 -->
<g id="node40" class="node">
<title>39</title>
<path fill="none" stroke="#56d8a9" stroke-width="2" d="M1093.2139,-36C1093.2139,-36 1063.2139,-36 1063.2139,-36 1057.2139,-36 1051.2139,-30 1051.2139,-24 1051.2139,-24 1051.2139,-12 1051.2139,-12 1051.2139,-6 1057.2139,0 1063.2139,0 1063.2139,0 1093.2139,0 1093.2139,0 1099.2139,0 1105.2139,-6 1105.2139,-12 1105.2139,-12 1105.2139,-24 1105.2139,-24 1105.2139,-30 1099.2139,-36 1093.2139,-36"/>
<text text-anchor="middle" x="1078.2139" y="-15" font-family="sans" font-size="10.00" fill="#000000">all</text>
</g>
<!-- 0&#45;&gt;39 -->
<g id="edge46" class="edge">
<title>0&#45;&gt;39</title>
<path fill="none" stroke="#c0c0c0" stroke-width="2" d="M1787.401,-86.3554C1659.3175,-74.01 1242.7529,-33.8592 1115.4857,-21.5925"/>
<polygon fill="#c0c0c0" stroke="#c0c0c0" stroke-width="2" points="1115.7407,-18.1009 1105.451,-20.6253 1115.0691,-25.0686 1115.7407,-18.1009"/>
</g>
<!-- 1 -->
<g id="node2" class="node">
<title>1</title>
<path fill="none" stroke="#70d856" stroke-width="2" d="M414.642,-614C414.642,-614 233.7857,-614 233.7857,-614 227.7857,-614 221.7857,-608 221.7857,-602 221.7857,-602 221.7857,-588 221.7857,-588 221.7857,-582 227.7857,-576 233.7857,-576 233.7857,-576 414.642,-576 414.642,-576 420.642,-576 426.642,-582 426.642,-588 426.642,-588 426.642,-602 426.642,-602 426.642,-608 420.642,-614 414.642,-614"/>
<text text-anchor="middle" x="324.2139" y="-602" font-family="sans" font-size="10.00" fill="#000000">align_reads</text>
<text text-anchor="middle" x="324.2139" y="-592" font-family="sans" font-size="10.00" fill="#000000">out_dir: /Users/karthik/hpc_downloads/test</text>
<text text-anchor="middle" x="324.2139" y="-582" font-family="sans" font-size="10.00" fill="#000000">sample: ZI&#45;merge&#45;53_b</text>
</g>
<!-- 16 -->
<g id="node17" class="node">
<title>16</title>
<path fill="none" stroke="#56d873" stroke-width="2" d="M362.7383,-540C362.7383,-540 285.6895,-540 285.6895,-540 279.6895,-540 273.6895,-534 273.6895,-528 273.6895,-528 273.6895,-516 273.6895,-516 273.6895,-510 279.6895,-504 285.6895,-504 285.6895,-504 362.7383,-504 362.7383,-504 368.7383,-504 374.7383,-510 374.7383,-516 374.7383,-516 374.7383,-528 374.7383,-528 374.7383,-534 368.7383,-540 362.7383,-540"/>
<text text-anchor="middle" x="324.2139" y="-519" font-family="sans" font-size="10.00" fill="#000000">trim_primer_quality</text>
</g>
<!-- 1&#45;&gt;16 -->
<g id="edge23" class="edge">
<title>1&#45;&gt;16</title>
<path fill="none" stroke="#c0c0c0" stroke-width="2" d="M324.2139,-575.8201C324.2139,-568.0975 324.2139,-559.0282 324.2139,-550.5585"/>
<polygon fill="#c0c0c0" stroke="#c0c0c0" stroke-width="2" points="327.714,-550.2973 324.2139,-540.2973 320.714,-550.2974 327.714,-550.2973"/>
</g>
<!-- 2 -->
<g id="node3" class="node">
<title>2</title>
<path fill="none" stroke="#5692d8" stroke-width="2" d="M1165.3956,-396C1165.3956,-396 1037.0321,-396 1037.0321,-396 1031.0321,-396 1025.0321,-390 1025.0321,-384 1025.0321,-384 1025.0321,-372 1025.0321,-372 1025.0321,-366 1031.0321,-360 1037.0321,-360 1037.0321,-360 1165.3956,-360 1165.3956,-360 1171.3956,-360 1177.3956,-366 1177.3956,-372 1177.3956,-372 1177.3956,-384 1177.3956,-384 1177.3956,-390 1171.3956,-396 1165.3956,-396"/>
<text text-anchor="middle" x="1101.2139" y="-380" font-family="sans" font-size="10.00" fill="#000000">filter_variants_before_masking</text>
<text text-anchor="middle" x="1101.2139" y="-370" font-family="sans" font-size="10.00" fill="#000000">sample: ZI&#45;merge&#45;52</text>
</g>
<!-- 63 -->
<g id="node64" class="node">
<title>63</title>
<path fill="none" stroke="#d88d56" stroke-width="2" d="M1124.693,-324C1124.693,-324 1077.7347,-324 1077.7347,-324 1071.7347,-324 1065.7347,-318 1065.7347,-312 1065.7347,-312 1065.7347,-300 1065.7347,-300 1065.7347,-294 1071.7347,-288 1077.7347,-288 1077.7347,-288 1124.693,-288 1124.693,-288 1130.693,-288 1136.693,-294 1136.693,-300 1136.693,-300 1136.693,-312 1136.693,-312 1136.693,-318 1130.693,-324 1124.693,-324"/>
<text text-anchor="middle" x="1101.2139" y="-303" font-family="sans" font-size="10.00" fill="#000000">get_masked</text>
</g>
<!-- 2&#45;&gt;63 -->
<g id="edge78" class="edge">
<title>2&#45;&gt;63</title>
<path fill="none" stroke="#c0c0c0" stroke-width="2" d="M1101.2139,-359.8314C1101.2139,-352.131 1101.2139,-342.9743 1101.2139,-334.4166"/>
<polygon fill="#c0c0c0" stroke="#c0c0c0" stroke-width="2" points="1104.714,-334.4132 1101.2139,-324.4133 1097.714,-334.4133 1104.714,-334.4132"/>
</g>
<!-- 3 -->
<g id="node4" class="node">
<title>3</title>
<path fill="none" stroke="#5692d8" stroke-width="2" d="M1575.3956,-396C1575.3956,-396 1447.0321,-396 1447.0321,-396 1441.0321,-396 1435.0321,-390 1435.0321,-384 1435.0321,-384 1435.0321,-372 1435.0321,-372 1435.0321,-366 1441.0321,-360 1447.0321,-360 1447.0321,-360 1575.3956,-360 1575.3956,-360 1581.3956,-360 1587.3956,-366 1587.3956,-372 1587.3956,-372 1587.3956,-384 1587.3956,-384 1587.3956,-390 1581.3956,-396 1575.3956,-396"/>
<text text-anchor="middle" x="1511.2139" y="-380" font-family="sans" font-size="10.00" fill="#000000">filter_variants_before_masking</text>
<text text-anchor="middle" x="1511.2139" y="-370" font-family="sans" font-size="10.00" fill="#000000">sample: ZI&#45;merge&#45;51</text>
</g>
<!-- 64 -->
<g id="node65" class="node">
<title>64</title>
<path fill="none" stroke="#d88d56" stroke-width="2" d="M1534.693,-324C1534.693,-324 1487.7347,-324 1487.7347,-324 1481.7347,-324 1475.7347,-318 1475.7347,-312 1475.7347,-312 1475.7347,-300 1475.7347,-300 1475.7347,-294 1481.7347,-288 1487.7347,-288 1487.7347,-288 1534.693,-288 1534.693,-288 1540.693,-288 1546.693,-294 1546.693,-300 1546.693,-300 1546.693,-312 1546.693,-312 1546.693,-318 1540.693,-324 1534.693,-324"/>
<text text-anchor="middle" x="1511.2139" y="-303" font-family="sans" font-size="10.00" fill="#000000">get_masked</text>
</g>
<!-- 3&#45;&gt;64 -->
<g id="edge79" class="edge">
<title>3&#45;&gt;64</title>
<path fill="none" stroke="#c0c0c0" stroke-width="2" d="M1511.2139,-359.8314C1511.2139,-352.131 1511.2139,-342.9743 1511.2139,-334.4166"/>
<polygon fill="#c0c0c0" stroke="#c0c0c0" stroke-width="2" points="1514.714,-334.4132 1511.2139,-324.4133 1507.714,-334.4133 1514.714,-334.4132"/>
</g>
<!-- 4 -->
<g id="node5" class="node">
<title>4</title>
<path fill="none" stroke="#afd856" stroke-width="2" d="M1212.8859,-180C1212.8859,-180 1099.5419,-180 1099.5419,-180 1093.5419,-180 1087.5419,-174 1087.5419,-168 1087.5419,-168 1087.5419,-156 1087.5419,-156 1087.5419,-150 1093.5419,-144 1099.5419,-144 1099.5419,-144 1212.8859,-144 1212.8859,-144 1218.8859,-144 1224.8859,-150 1224.8859,-156 1224.8859,-156 1224.8859,-168 1224.8859,-168 1224.8859,-174 1218.8859,-180 1212.8859,-180"/>
<text text-anchor="middle" x="1156.2139" y="-159" font-family="sans" font-size="10.00" fill="#000000">call_variants_post_removal</text>
</g>
<!-- 41 -->
<g id="node42" class="node">
<title>41</title>
<path fill="none" stroke="#d85656" stroke-width="2" d="M1104.1831,-108C1104.1831,-108 1052.2446,-108 1052.2446,-108 1046.2446,-108 1040.2446,-102 1040.2446,-96 1040.2446,-96 1040.2446,-84 1040.2446,-84 1040.2446,-78 1046.2446,-72 1052.2446,-72 1052.2446,-72 1104.1831,-72 1104.1831,-72 1110.1831,-72 1116.1831,-78 1116.1831,-84 1116.1831,-84 1116.1831,-96 1116.1831,-96 1116.1831,-102 1110.1831,-108 1104.1831,-108"/>
<text text-anchor="middle" x="1078.2139" y="-87" font-family="sans" font-size="10.00" fill="#000000">filter_variants</text>
</g>
<!-- 4&#45;&gt;41 -->
<g id="edge52" class="edge">
<title>4&#45;&gt;41</title>
<path fill="none" stroke="#c0c0c0" stroke-width="2" d="M1136.5312,-143.8314C1127.1088,-135.1337 1115.6737,-124.5783 1105.4343,-115.1265"/>
<polygon fill="#c0c0c0" stroke="#c0c0c0" stroke-width="2" points="1107.6123,-112.3738 1097.8903,-108.1628 1102.8643,-117.5175 1107.6123,-112.3738"/>
</g>
<!-- 5 -->
<g id="node6" class="node">
<title>5</title>
<path fill="none" stroke="#70d856" stroke-width="2" d="M858.642,-614C858.642,-614 677.7857,-614 677.7857,-614 671.7857,-614 665.7857,-608 665.7857,-602 665.7857,-602 665.7857,-588 665.7857,-588 665.7857,-582 671.7857,-576 677.7857,-576 677.7857,-576 858.642,-576 858.642,-576 864.642,-576 870.642,-582 870.642,-588 870.642,-588 870.642,-602 870.642,-602 870.642,-608 864.642,-614 858.642,-614"/>
<text text-anchor="middle" x="768.2139" y="-602" font-family="sans" font-size="10.00" fill="#000000">align_reads</text>
<text text-anchor="middle" x="768.2139" y="-592" font-family="sans" font-size="10.00" fill="#000000">out_dir: /Users/karthik/hpc_downloads/test</text>
<text text-anchor="middle" x="768.2139" y="-582" font-family="sans" font-size="10.00" fill="#000000">sample: ZI&#45;merge&#45;50_b</text>
</g>
<!-- 17 -->
<g id="node18" class="node">
<title>17</title>
<path fill="none" stroke="#56d873" stroke-width="2" d="M806.7383,-540C806.7383,-540 729.6895,-540 729.6895,-540 723.6895,-540 717.6895,-534 717.6895,-528 717.6895,-528 717.6895,-516 717.6895,-516 717.6895,-510 723.6895,-504 729.6895,-504 729.6895,-504 806.7383,-504 806.7383,-504 812.7383,-504 818.7383,-510 818.7383,-516 818.7383,-516 818.7383,-528 818.7383,-528 818.7383,-534 812.7383,-540 806.7383,-540"/>
<text text-anchor="middle" x="768.2139" y="-519" font-family="sans" font-size="10.00" fill="#000000">trim_primer_quality</text>
</g>
<!-- 5&#45;&gt;17 -->
<g id="edge24" class="edge">
<title>5&#45;&gt;17</title>
<path fill="none" stroke="#c0c0c0" stroke-width="2" d="M768.2139,-575.8201C768.2139,-568.0975 768.2139,-559.0282 768.2139,-550.5585"/>
<polygon fill="#c0c0c0" stroke="#c0c0c0" stroke-width="2" points="771.714,-550.2973 768.2139,-540.2973 764.714,-550.2974 771.714,-550.2973"/>
</g>
<!-- 6 -->
<g id="node7" class="node">
<title>6</title>
<path fill="none" stroke="#afd856" stroke-width="2" d="M1590.8859,-180C1590.8859,-180 1477.5419,-180 1477.5419,-180 1471.5419,-180 1465.5419,-174 1465.5419,-168 1465.5419,-168 1465.5419,-156 1465.5419,-156 1465.5419,-150 1471.5419,-144 1477.5419,-144 1477.5419,-144 1590.8859,-144 1590.8859,-144 1596.8859,-144 1602.8859,-150 1602.8859,-156 1602.8859,-156 1602.8859,-168 1602.8859,-168 1602.8859,-174 1596.8859,-180 1590.8859,-180"/>
<text text-anchor="middle" x="1534.2139" y="-159" font-family="sans" font-size="10.00" fill="#000000">call_variants_post_removal</text>
</g>
<!-- 46 -->
<g id="node47" class="node">
<title>46</title>
<path fill="none" stroke="#d85656" stroke-width="2" d="M1405.1831,-108C1405.1831,-108 1353.2446,-108 1353.2446,-108 1347.2446,-108 1341.2446,-102 1341.2446,-96 1341.2446,-96 1341.2446,-84 1341.2446,-84 1341.2446,-78 1347.2446,-72 1353.2446,-72 1353.2446,-72 1405.1831,-72 1405.1831,-72 1411.1831,-72 1417.1831,-78 1417.1831,-84 1417.1831,-84 1417.1831,-96 1417.1831,-96 1417.1831,-102 1411.1831,-108 1405.1831,-108"/>
<text text-anchor="middle" x="1379.2139" y="-87" font-family="sans" font-size="10.00" fill="#000000">filter_variants</text>
</g>
<!-- 6&#45;&gt;46 -->
<g id="edge57" class="edge">
<title>6&#45;&gt;46</title>
<path fill="none" stroke="#c0c0c0" stroke-width="2" d="M1495.1008,-143.8314C1474.1487,-134.0988 1448.1888,-122.04 1426.1536,-111.8043"/>
<polygon fill="#c0c0c0" stroke="#c0c0c0" stroke-width="2" points="1427.5201,-108.5799 1416.9763,-107.5412 1424.571,-114.9284 1427.5201,-108.5799"/>
</g>
<!-- 7 -->
<g id="node8" class="node">
<title>7</title>
<path fill="none" stroke="#d8cb56" stroke-width="2" d="M1430.1348,-252C1430.1348,-252 1374.2929,-252 1374.2929,-252 1368.2929,-252 1362.2929,-246 1362.2929,-240 1362.2929,-240 1362.2929,-228 1362.2929,-228 1362.2929,-222 1368.2929,-216 1374.2929,-216 1374.2929,-216 1430.1348,-216 1430.1348,-216 1436.1348,-216 1442.1348,-222 1442.1348,-228 1442.1348,-228 1442.1348,-240 1442.1348,-240 1442.1348,-246 1436.1348,-252 1430.1348,-252"/>
<text text-anchor="middle" x="1402.2139" y="-236" font-family="sans" font-size="10.00" fill="#000000">remove_reads</text>
<text text-anchor="middle" x="1402.2139" y="-226" font-family="sans" font-size="10.00" fill="#000000">rep: b</text>
</g>
<!-- 52 -->
<g id="node53" class="node">
<title>52</title>
<path fill="none" stroke="#afd856" stroke-width="2" d="M1435.8859,-180C1435.8859,-180 1322.5419,-180 1322.5419,-180 1316.5419,-180 1310.5419,-174 1310.5419,-168 1310.5419,-168 1310.5419,-156 1310.5419,-156 1310.5419,-150 1316.5419,-144 1322.5419,-144 1322.5419,-144 1435.8859,-144 1435.8859,-144 1441.8859,-144 1447.8859,-150 1447.8859,-156 1447.8859,-156 1447.8859,-168 1447.8859,-168 1447.8859,-174 1441.8859,-180 1435.8859,-180"/>
<text text-anchor="middle" x="1379.2139" y="-159" font-family="sans" font-size="10.00" fill="#000000">call_variants_post_removal</text>
</g>
<!-- 7&#45;&gt;52 -->
<g id="edge65" class="edge">
<title>7&#45;&gt;52</title>
<path fill="none" stroke="#c0c0c0" stroke-width="2" d="M1396.41,-215.8314C1393.9231,-208.0463 1390.9608,-198.7729 1388.2014,-190.1347"/>
<polygon fill="#c0c0c0" stroke="#c0c0c0" stroke-width="2" points="1391.4729,-188.874 1385.0959,-180.4133 1384.8049,-191.0041 1391.4729,-188.874"/>
</g>
<!-- 8 -->
<g id="node9" class="node">
<title>8</title>
<path fill="none" stroke="#d8cb56" stroke-width="2" d="M1029.1348,-252C1029.1348,-252 973.2929,-252 973.2929,-252 967.2929,-252 961.2929,-246 961.2929,-240 961.2929,-240 961.2929,-228 961.2929,-228 961.2929,-222 967.2929,-216 973.2929,-216 973.2929,-216 1029.1348,-216 1029.1348,-216 1035.1348,-216 1041.1348,-222 1041.1348,-228 1041.1348,-228 1041.1348,-240 1041.1348,-240 1041.1348,-246 1035.1348,-252 1029.1348,-252"/>
<text text-anchor="middle" x="1001.2139" y="-236" font-family="sans" font-size="10.00" fill="#000000">remove_reads</text>
<text text-anchor="middle" x="1001.2139" y="-226" font-family="sans" font-size="10.00" fill="#000000">rep: b</text>
</g>
<!-- 58 -->
<g id="node59" class="node">
<title>58</title>
<path fill="none" stroke="#afd856" stroke-width="2" d="M1057.8859,-180C1057.8859,-180 944.5419,-180 944.5419,-180 938.5419,-180 932.5419,-174 932.5419,-168 932.5419,-168 932.5419,-156 932.5419,-156 932.5419,-150 938.5419,-144 944.5419,-144 944.5419,-144 1057.8859,-144 1057.8859,-144 1063.8859,-144 1069.8859,-150 1069.8859,-156 1069.8859,-156 1069.8859,-168 1069.8859,-168 1069.8859,-174 1063.8859,-180 1057.8859,-180"/>
<text text-anchor="middle" x="1001.2139" y="-159" font-family="sans" font-size="10.00" fill="#000000">call_variants_post_removal</text>
</g>
<!-- 8&#45;&gt;58 -->
<g id="edge72" class="edge">
<title>8&#45;&gt;58</title>
<path fill="none" stroke="#c0c0c0" stroke-width="2" d="M1001.2139,-215.8314C1001.2139,-208.131 1001.2139,-198.9743 1001.2139,-190.4166"/>
<polygon fill="#c0c0c0" stroke="#c0c0c0" stroke-width="2" points="1004.714,-190.4132 1001.2139,-180.4133 997.714,-190.4133 1004.714,-190.4132"/>
</g>
<!-- 9 -->
<g id="node10" class="node">
<title>9</title>
<path fill="none" stroke="#56d873" stroke-width="2" d="M1248.7383,-540C1248.7383,-540 1171.6895,-540 1171.6895,-540 1165.6895,-540 1159.6895,-534 1159.6895,-528 1159.6895,-528 1159.6895,-516 1159.6895,-516 1159.6895,-510 1165.6895,-504 1171.6895,-504 1171.6895,-504 1248.7383,-504 1248.7383,-504 1254.7383,-504 1260.7383,-510 1260.7383,-516 1260.7383,-516 1260.7383,-528 1260.7383,-528 1260.7383,-534 1254.7383,-540 1248.7383,-540"/>
<text text-anchor="middle" x="1210.2139" y="-519" font-family="sans" font-size="10.00" fill="#000000">trim_primer_quality</text>
</g>
<!-- 29 -->
<g id="node30" class="node">
<title>29</title>
<path fill="none" stroke="#56c9d8" stroke-width="2" d="M1169.7961,-468C1169.7961,-468 1122.6316,-468 1122.6316,-468 1116.6316,-468 1110.6316,-462 1110.6316,-456 1110.6316,-456 1110.6316,-444 1110.6316,-444 1110.6316,-438 1116.6316,-432 1122.6316,-432 1122.6316,-432 1169.7961,-432 1169.7961,-432 1175.7961,-432 1181.7961,-438 1181.7961,-444 1181.7961,-444 1181.7961,-456 1181.7961,-456 1181.7961,-462 1175.7961,-468 1169.7961,-468"/>
<text text-anchor="middle" x="1146.2139" y="-447" font-family="sans" font-size="10.00" fill="#000000">call_variants</text>
</g>
<!-- 9&#45;&gt;29 -->
<g id="edge36" class="edge">
<title>9&#45;&gt;29</title>
<path fill="none" stroke="#c0c0c0" stroke-width="2" d="M1194.064,-503.8314C1186.5422,-495.3694 1177.4573,-485.1489 1169.2335,-475.8971"/>
<polygon fill="#c0c0c0" stroke="#c0c0c0" stroke-width="2" points="1171.8408,-473.5621 1162.5812,-468.4133 1166.6089,-478.2127 1171.8408,-473.5621"/>
</g>
<!-- 59 -->
<g id="node60" class="node">
<title>59</title>
<path fill="none" stroke="#d8cb56" stroke-width="2" d="M1184.1348,-252C1184.1348,-252 1128.2929,-252 1128.2929,-252 1122.2929,-252 1116.2929,-246 1116.2929,-240 1116.2929,-240 1116.2929,-228 1116.2929,-228 1116.2929,-222 1122.2929,-216 1128.2929,-216 1128.2929,-216 1184.1348,-216 1184.1348,-216 1190.1348,-216 1196.1348,-222 1196.1348,-228 1196.1348,-228 1196.1348,-240 1196.1348,-240 1196.1348,-246 1190.1348,-252 1184.1348,-252"/>
<text text-anchor="middle" x="1156.2139" y="-236" font-family="sans" font-size="10.00" fill="#000000">remove_reads</text>
<text text-anchor="middle" x="1156.2139" y="-226" font-family="sans" font-size="10.00" fill="#000000">rep: a</text>
</g>
<!-- 9&#45;&gt;59 -->
<g id="edge74" class="edge">
<title>9&#45;&gt;59</title>
<path fill="none" stroke="#c0c0c0" stroke-width="2" d="M1208.0569,-503.9343C1204.3569,-473.9166 1196.2227,-411.9277 1186.2139,-360 1179.668,-326.0389 1170.1585,-287.4032 1163.6095,-261.9692"/>
<polygon fill="#c0c0c0" stroke="#c0c0c0" stroke-width="2" points="1166.988,-261.0542 1161.0866,-252.2551 1160.2128,-262.8138 1166.988,-261.0542"/>
</g>
<!-- 10 -->
<g id="node11" class="node">
<title>10</title>
<path fill="none" stroke="#56d873" stroke-width="2" d="M1658.7383,-540C1658.7383,-540 1581.6895,-540 1581.6895,-540 1575.6895,-540 1569.6895,-534 1569.6895,-528 1569.6895,-528 1569.6895,-516 1569.6895,-516 1569.6895,-510 1575.6895,-504 1581.6895,-504 1581.6895,-504 1658.7383,-504 1658.7383,-504 1664.7383,-504 1670.7383,-510 1670.7383,-516 1670.7383,-516 1670.7383,-528 1670.7383,-528 1670.7383,-534 1664.7383,-540 1658.7383,-540"/>
<text text-anchor="middle" x="1620.2139" y="-519" font-family="sans" font-size="10.00" fill="#000000">trim_primer_quality</text>
</g>
<!-- 15 -->
<g id="node16" class="node">
<title>15</title>
<path fill="none" stroke="#d8cb56" stroke-width="2" d="M1562.1348,-252C1562.1348,-252 1506.2929,-252 1506.2929,-252 1500.2929,-252 1494.2929,-246 1494.2929,-240 1494.2929,-240 1494.2929,-228 1494.2929,-228 1494.2929,-222 1500.2929,-216 1506.2929,-216 1506.2929,-216 1562.1348,-216 1562.1348,-216 1568.1348,-216 1574.1348,-222 1574.1348,-228 1574.1348,-228 1574.1348,-240 1574.1348,-240 1574.1348,-246 1568.1348,-252 1562.1348,-252"/>
<text text-anchor="middle" x="1534.2139" y="-236" font-family="sans" font-size="10.00" fill="#000000">remove_reads</text>
<text text-anchor="middle" x="1534.2139" y="-226" font-family="sans" font-size="10.00" fill="#000000">rep: a</text>
</g>
<!-- 10&#45;&gt;15 -->
<g id="edge22" class="edge">
<title>10&#45;&gt;15</title>
<path fill="none" stroke="#c0c0c0" stroke-width="2" d="M1619.342,-503.6112C1617.4901,-473.1289 1611.952,-410.4873 1596.2139,-360 1585.0195,-324.0889 1564.7979,-285.6965 1550.4966,-260.8581"/>
<polygon fill="#c0c0c0" stroke="#c0c0c0" stroke-width="2" points="1553.4064,-258.9005 1545.3365,-252.0355 1547.364,-262.4346 1553.4064,-258.9005"/>
</g>
<!-- 35 -->
<g id="node36" class="node">
<title>35</title>
<path fill="none" stroke="#56c9d8" stroke-width="2" d="M1579.7961,-468C1579.7961,-468 1532.6316,-468 1532.6316,-468 1526.6316,-468 1520.6316,-462 1520.6316,-456 1520.6316,-456 1520.6316,-444 1520.6316,-444 1520.6316,-438 1526.6316,-432 1532.6316,-432 1532.6316,-432 1579.7961,-432 1579.7961,-432 1585.7961,-432 1591.7961,-438 1591.7961,-444 1591.7961,-444 1591.7961,-456 1591.7961,-456 1591.7961,-462 1585.7961,-468 1579.7961,-468"/>
<text text-anchor="middle" x="1556.2139" y="-447" font-family="sans" font-size="10.00" fill="#000000">call_variants</text>
</g>
<!-- 10&#45;&gt;35 -->
<g id="edge41" class="edge">
<title>10&#45;&gt;35</title>
<path fill="none" stroke="#c0c0c0" stroke-width="2" d="M1604.064,-503.8314C1596.5422,-495.3694 1587.4573,-485.1489 1579.2335,-475.8971"/>
<polygon fill="#c0c0c0" stroke="#c0c0c0" stroke-width="2" points="1581.8408,-473.5621 1572.5812,-468.4133 1576.6089,-478.2127 1581.8408,-473.5621"/>
</g>
<!-- 11 -->
<g id="node12" class="node">
<title>11</title>
<path fill="none" stroke="#d8cb56" stroke-width="2" d="M252.1348,-252C252.1348,-252 196.2929,-252 196.2929,-252 190.2929,-252 184.2929,-246 184.2929,-240 184.2929,-240 184.2929,-228 184.2929,-228 184.2929,-222 190.2929,-216 196.2929,-216 196.2929,-216 252.1348,-216 252.1348,-216 258.1348,-216 264.1348,-222 264.1348,-228 264.1348,-228 264.1348,-240 264.1348,-240 264.1348,-246 258.1348,-252 252.1348,-252"/>
<text text-anchor="middle" x="224.2139" y="-236" font-family="sans" font-size="10.00" fill="#000000">remove_reads</text>
<text text-anchor="middle" x="224.2139" y="-226" font-family="sans" font-size="10.00" fill="#000000">rep: a</text>
</g>
<!-- 40 -->
<g id="node41" class="node">
<title>40</title>
<path fill="none" stroke="#afd856" stroke-width="2" d="M280.8859,-180C280.8859,-180 167.5419,-180 167.5419,-180 161.5419,-180 155.5419,-174 155.5419,-168 155.5419,-168 155.5419,-156 155.5419,-156 155.5419,-150 161.5419,-144 167.5419,-144 167.5419,-144 280.8859,-144 280.8859,-144 286.8859,-144 292.8859,-150 292.8859,-156 292.8859,-156 292.8859,-168 292.8859,-168 292.8859,-174 286.8859,-180 280.8859,-180"/>
<text text-anchor="middle" x="224.2139" y="-159" font-family="sans" font-size="10.00" fill="#000000">call_variants_post_removal</text>
</g>
<!-- 11&#45;&gt;40 -->
<g id="edge50" class="edge">
<title>11&#45;&gt;40</title>
<path fill="none" stroke="#c0c0c0" stroke-width="2" d="M224.2139,-215.8314C224.2139,-208.131 224.2139,-198.9743 224.2139,-190.4166"/>
<polygon fill="#c0c0c0" stroke="#c0c0c0" stroke-width="2" points="227.714,-190.4132 224.2139,-180.4133 220.714,-190.4133 227.714,-190.4132"/>
</g>
<!-- 12 -->
<g id="node13" class="node">
<title>12</title>
<path fill="none" stroke="#afd856" stroke-width="2" d="M435.8859,-180C435.8859,-180 322.5419,-180 322.5419,-180 316.5419,-180 310.5419,-174 310.5419,-168 310.5419,-168 310.5419,-156 310.5419,-156 310.5419,-150 316.5419,-144 322.5419,-144 322.5419,-144 435.8859,-144 435.8859,-144 441.8859,-144 447.8859,-150 447.8859,-156 447.8859,-156 447.8859,-168 447.8859,-168 447.8859,-174 441.8859,-180 435.8859,-180"/>
<text text-anchor="middle" x="379.2139" y="-159" font-family="sans" font-size="10.00" fill="#000000">call_variants_post_removal</text>
</g>
<!-- 25 -->
<g id="node26" class="node">
<title>25</title>
<path fill="none" stroke="#d85656" stroke-width="2" d="M405.1831,-108C405.1831,-108 353.2446,-108 353.2446,-108 347.2446,-108 341.2446,-102 341.2446,-96 341.2446,-96 341.2446,-84 341.2446,-84 341.2446,-78 347.2446,-72 353.2446,-72 353.2446,-72 405.1831,-72 405.1831,-72 411.1831,-72 417.1831,-78 417.1831,-84 417.1831,-84 417.1831,-96 417.1831,-96 417.1831,-102 411.1831,-108 405.1831,-108"/>
<text text-anchor="middle" x="379.2139" y="-87" font-family="sans" font-size="10.00" fill="#000000">filter_variants</text>
</g>
<!-- 12&#45;&gt;25 -->
<g id="edge32" class="edge">
<title>12&#45;&gt;25</title>
<path fill="none" stroke="#c0c0c0" stroke-width="2" d="M379.2139,-143.8314C379.2139,-136.131 379.2139,-126.9743 379.2139,-118.4166"/>
<polygon fill="#c0c0c0" stroke="#c0c0c0" stroke-width="2" points="382.714,-118.4132 379.2139,-108.4133 375.714,-118.4133 382.714,-118.4132"/>
</g>
<!-- 13 -->
<g id="node14" class="node">
<title>13</title>
<path fill="none" stroke="#d8cb56" stroke-width="2" d="M384.1348,-252C384.1348,-252 328.2929,-252 328.2929,-252 322.2929,-252 316.2929,-246 316.2929,-240 316.2929,-240 316.2929,-228 316.2929,-228 316.2929,-222 322.2929,-216 328.2929,-216 328.2929,-216 384.1348,-216 384.1348,-216 390.1348,-216 396.1348,-222 396.1348,-228 396.1348,-228 396.1348,-240 396.1348,-240 396.1348,-246 390.1348,-252 384.1348,-252"/>
<text text-anchor="middle" x="356.2139" y="-236" font-family="sans" font-size="10.00" fill="#000000">remove_reads</text>
<text text-anchor="middle" x="356.2139" y="-226" font-family="sans" font-size="10.00" fill="#000000">rep: b</text>
</g>
<!-- 13&#45;&gt;12 -->
<g id="edge17" class="edge">
<title>13&#45;&gt;12</title>
<path fill="none" stroke="#c0c0c0" stroke-width="2" d="M362.0177,-215.8314C364.5046,-208.0463 367.467,-198.7729 370.2264,-190.1347"/>
<polygon fill="#c0c0c0" stroke="#c0c0c0" stroke-width="2" points="373.6229,-191.0041 373.3319,-180.4133 366.9548,-188.874 373.6229,-191.0041"/>
</g>
<!-- 14 -->
<g id="node15" class="node">
<title>14</title>
<path fill="none" stroke="#56d873" stroke-width="2" d="M2102.7383,-540C2102.7383,-540 2025.6895,-540 2025.6895,-540 2019.6895,-540 2013.6895,-534 2013.6895,-528 2013.6895,-528 2013.6895,-516 2013.6895,-516 2013.6895,-510 2019.6895,-504 2025.6895,-504 2025.6895,-504 2102.7383,-504 2102.7383,-504 2108.7383,-504 2114.7383,-510 2114.7383,-516 2114.7383,-516 2114.7383,-528 2114.7383,-528 2114.7383,-534 2108.7383,-540 2102.7383,-540"/>
<text text-anchor="middle" x="2064.2139" y="-519" font-family="sans" font-size="10.00" fill="#000000">trim_primer_quality</text>
</g>
<!-- 31 -->
<g id="node32" class="node">
<title>31</title>
<path fill="none" stroke="#56c9d8" stroke-width="2" d="M2023.7961,-468C2023.7961,-468 1976.6316,-468 1976.6316,-468 1970.6316,-468 1964.6316,-462 1964.6316,-456 1964.6316,-456 1964.6316,-444 1964.6316,-444 1964.6316,-438 1970.6316,-432 1976.6316,-432 1976.6316,-432 2023.7961,-432 2023.7961,-432 2029.7961,-432 2035.7961,-438 2035.7961,-444 2035.7961,-444 2035.7961,-456 2035.7961,-456 2035.7961,-462 2029.7961,-468 2023.7961,-468"/>
<text text-anchor="middle" x="2000.2139" y="-447" font-family="sans" font-size="10.00" fill="#000000">call_variants</text>
</g>
<!-- 14&#45;&gt;31 -->
<g id="edge38" class="edge">
<title>14&#45;&gt;31</title>
<path fill="none" stroke="#c0c0c0" stroke-width="2" d="M2048.064,-503.8314C2040.5422,-495.3694 2031.4573,-485.1489 2023.2335,-475.8971"/>
<polygon fill="#c0c0c0" stroke="#c0c0c0" stroke-width="2" points="2025.8408,-473.5621 2016.5812,-468.4133 2020.6089,-478.2127 2025.8408,-473.5621"/>
</g>
<!-- 36 -->
<g id="node37" class="node">
<title>36</title>
<path fill="none" stroke="#d8cb56" stroke-width="2" d="M2008.1348,-252C2008.1348,-252 1952.2929,-252 1952.2929,-252 1946.2929,-252 1940.2929,-246 1940.2929,-240 1940.2929,-240 1940.2929,-228 1940.2929,-228 1940.2929,-222 1946.2929,-216 1952.2929,-216 1952.2929,-216 2008.1348,-216 2008.1348,-216 2014.1348,-216 2020.1348,-222 2020.1348,-228 2020.1348,-228 2020.1348,-240 2020.1348,-240 2020.1348,-246 2014.1348,-252 2008.1348,-252"/>
<text text-anchor="middle" x="1980.2139" y="-236" font-family="sans" font-size="10.00" fill="#000000">remove_reads</text>
<text text-anchor="middle" x="1980.2139" y="-226" font-family="sans" font-size="10.00" fill="#000000">rep: b</text>
</g>
<!-- 14&#45;&gt;36 -->
<g id="edge43" class="edge">
<title>14&#45;&gt;36</title>
<path fill="none" stroke="#c0c0c0" stroke-width="2" d="M2063.2691,-503.6337C2061.3124,-473.1837 2055.6271,-410.5875 2040.2139,-360 2029.3187,-324.241 2009.7621,-285.8174 1995.942,-260.9301"/>
<polygon fill="#c0c0c0" stroke="#c0c0c0" stroke-width="2" points="1998.9168,-259.0797 1990.9562,-252.0883 1992.8194,-262.518 1998.9168,-259.0797"/>
</g>
<!-- 15&#45;&gt;6 -->
<g id="edge8" class="edge">
<title>15&#45;&gt;6</title>
<path fill="none" stroke="#c0c0c0" stroke-width="2" d="M1534.2139,-215.8314C1534.2139,-208.131 1534.2139,-198.9743 1534.2139,-190.4166"/>
<polygon fill="#c0c0c0" stroke="#c0c0c0" stroke-width="2" points="1537.714,-190.4132 1534.2139,-180.4133 1530.714,-190.4133 1537.714,-190.4132"/>
</g>
<!-- 16&#45;&gt;13 -->
<g id="edge19" class="edge">
<title>16&#45;&gt;13</title>
<path fill="none" stroke="#c0c0c0" stroke-width="2" d="M329.3814,-503.6487C332.1153,-493.2663 335.2946,-479.9974 337.2139,-468 348.9959,-394.3512 353.6422,-306.4285 355.3341,-262.2697"/>
<polygon fill="#c0c0c0" stroke="#c0c0c0" stroke-width="2" points="358.8409,-262.1406 355.7032,-252.0211 351.8455,-261.8887 358.8409,-262.1406"/>
</g>
<!-- 42 -->
<g id="node43" class="node">
<title>42</title>
<path fill="none" stroke="#56c9d8" stroke-width="2" d="M315.7961,-468C315.7961,-468 268.6316,-468 268.6316,-468 262.6316,-468 256.6316,-462 256.6316,-456 256.6316,-456 256.6316,-444 256.6316,-444 256.6316,-438 262.6316,-432 268.6316,-432 268.6316,-432 315.7961,-432 315.7961,-432 321.7961,-432 327.7961,-438 327.7961,-444 327.7961,-444 327.7961,-456 327.7961,-456 327.7961,-462 321.7961,-468 315.7961,-468"/>
<text text-anchor="middle" x="292.2139" y="-447" font-family="sans" font-size="10.00" fill="#000000">call_variants</text>
</g>
<!-- 16&#45;&gt;42 -->
<g id="edge53" class="edge">
<title>16&#45;&gt;42</title>
<path fill="none" stroke="#c0c0c0" stroke-width="2" d="M316.1389,-503.8314C312.6037,-495.8771 308.3779,-486.369 304.4682,-477.5723"/>
<polygon fill="#c0c0c0" stroke="#c0c0c0" stroke-width="2" points="307.6573,-476.1299 300.3975,-468.4133 301.2606,-478.9729 307.6573,-476.1299"/>
</g>
<!-- 54 -->
<g id="node55" class="node">
<title>54</title>
<path fill="none" stroke="#d8cb56" stroke-width="2" d="M825.1348,-252C825.1348,-252 769.2929,-252 769.2929,-252 763.2929,-252 757.2929,-246 757.2929,-240 757.2929,-240 757.2929,-228 757.2929,-228 757.2929,-222 763.2929,-216 769.2929,-216 769.2929,-216 825.1348,-216 825.1348,-216 831.1348,-216 837.1348,-222 837.1348,-228 837.1348,-228 837.1348,-240 837.1348,-240 837.1348,-246 831.1348,-252 825.1348,-252"/>
<text text-anchor="middle" x="797.2139" y="-236" font-family="sans" font-size="10.00" fill="#000000">remove_reads</text>
<text text-anchor="middle" x="797.2139" y="-226" font-family="sans" font-size="10.00" fill="#000000">rep: b</text>
</g>
<!-- 17&#45;&gt;54 -->
<g id="edge66" class="edge">
<title>17&#45;&gt;54</title>
<path fill="none" stroke="#c0c0c0" stroke-width="2" d="M772.1072,-503.5801C774.1847,-493.1762 776.6319,-479.9087 778.2139,-468 788.0106,-394.2505 793.4963,-306.7071 795.8381,-262.5335"/>
<polygon fill="#c0c0c0" stroke="#c0c0c0" stroke-width="2" points="799.3475,-262.4389 796.3664,-252.2722 792.3568,-262.0789 799.3475,-262.4389"/>
</g>
<!-- 65 -->
<g id="node66" class="node">
<title>65</title>
<path fill="none" stroke="#56c9d8" stroke-width="2" d="M756.7961,-468C756.7961,-468 709.6316,-468 709.6316,-468 703.6316,-468 697.6316,-462 697.6316,-456 697.6316,-456 697.6316,-444 697.6316,-444 697.6316,-438 703.6316,-432 709.6316,-432 709.6316,-432 756.7961,-432 756.7961,-432 762.7961,-432 768.7961,-438 768.7961,-444 768.7961,-444 768.7961,-456 768.7961,-456 768.7961,-462 762.7961,-468 756.7961,-468"/>
<text text-anchor="middle" x="733.2139" y="-447" font-family="sans" font-size="10.00" fill="#000000">call_variants</text>
</g>
<!-- 17&#45;&gt;65 -->
<g id="edge80" class="edge">
<title>17&#45;&gt;65</title>
<path fill="none" stroke="#c0c0c0" stroke-width="2" d="M759.3819,-503.8314C755.5152,-495.8771 750.8933,-486.369 746.6171,-477.5723"/>
<polygon fill="#c0c0c0" stroke="#c0c0c0" stroke-width="2" points="749.6845,-475.8768 742.1648,-468.4133 743.389,-478.9371 749.6845,-475.8768"/>
</g>
<!-- 18 -->
<g id="node19" class="node">
<title>18</title>
<path fill="none" stroke="#d88d56" stroke-width="2" d="M1978.693,-324C1978.693,-324 1931.7347,-324 1931.7347,-324 1925.7347,-324 1919.7347,-318 1919.7347,-312 1919.7347,-312 1919.7347,-300 1919.7347,-300 1919.7347,-294 1925.7347,-288 1931.7347,-288 1931.7347,-288 1978.693,-288 1978.693,-288 1984.693,-288 1990.693,-294 1990.693,-300 1990.693,-300 1990.693,-312 1990.693,-312 1990.693,-318 1984.693,-324 1978.693,-324"/>
<text text-anchor="middle" x="1955.2139" y="-303" font-family="sans" font-size="10.00" fill="#000000">get_masked</text>
</g>
<!-- 22 -->
<g id="node23" class="node">
<title>22</title>
<path fill="none" stroke="#d8cb56" stroke-width="2" d="M1874.1348,-252C1874.1348,-252 1818.2929,-252 1818.2929,-252 1812.2929,-252 1806.2929,-246 1806.2929,-240 1806.2929,-240 1806.2929,-228 1806.2929,-228 1806.2929,-222 1812.2929,-216 1818.2929,-216 1818.2929,-216 1874.1348,-216 1874.1348,-216 1880.1348,-216 1886.1348,-222 1886.1348,-228 1886.1348,-228 1886.1348,-240 1886.1348,-240 1886.1348,-246 1880.1348,-252 1874.1348,-252"/>
<text text-anchor="middle" x="1846.2139" y="-236" font-family="sans" font-size="10.00" fill="#000000">remove_reads</text>
<text text-anchor="middle" x="1846.2139" y="-226" font-family="sans" font-size="10.00" fill="#000000">rep: a</text>
</g>
<!-- 18&#45;&gt;22 -->
<g id="edge29" class="edge">
<title>18&#45;&gt;22</title>
<path fill="none" stroke="#c0c0c0" stroke-width="2" d="M1927.7086,-287.8314C1913.8959,-278.7074 1896.9882,-267.539 1882.1609,-257.7449"/>
<polygon fill="#c0c0c0" stroke="#c0c0c0" stroke-width="2" points="1883.9835,-254.7541 1873.7104,-252.1628 1880.1253,-260.5949 1883.9835,-254.7541"/>
</g>
<!-- 18&#45;&gt;36 -->
<g id="edge42" class="edge">
<title>18&#45;&gt;36</title>
<path fill="none" stroke="#c0c0c0" stroke-width="2" d="M1961.5224,-287.8314C1964.2256,-280.0463 1967.4455,-270.7729 1970.4449,-262.1347"/>
<polygon fill="#c0c0c0" stroke="#c0c0c0" stroke-width="2" points="1973.8465,-263.0081 1973.8204,-252.4133 1967.2338,-260.7119 1973.8465,-263.0081"/>
</g>
<!-- 19 -->
<g id="node20" class="node">
<title>19</title>
<path fill="none" stroke="#56c9d8" stroke-width="2" d="M225.7961,-468C225.7961,-468 178.6316,-468 178.6316,-468 172.6316,-468 166.6316,-462 166.6316,-456 166.6316,-456 166.6316,-444 166.6316,-444 166.6316,-438 172.6316,-432 178.6316,-432 178.6316,-432 225.7961,-432 225.7961,-432 231.7961,-432 237.7961,-438 237.7961,-444 237.7961,-444 237.7961,-456 237.7961,-456 237.7961,-462 231.7961,-468 225.7961,-468"/>
<text text-anchor="middle" x="202.2139" y="-447" font-family="sans" font-size="10.00" fill="#000000">call_variants</text>
</g>
<!-- 51 -->
<g id="node52" class="node">
<title>51</title>
<path fill="none" stroke="#5692d8" stroke-width="2" d="M311.3956,-396C311.3956,-396 183.0321,-396 183.0321,-396 177.0321,-396 171.0321,-390 171.0321,-384 171.0321,-384 171.0321,-372 171.0321,-372 171.0321,-366 177.0321,-360 183.0321,-360 183.0321,-360 311.3956,-360 311.3956,-360 317.3956,-360 323.3956,-366 323.3956,-372 323.3956,-372 323.3956,-384 323.3956,-384 323.3956,-390 317.3956,-396 311.3956,-396"/>
<text text-anchor="middle" x="247.2139" y="-380" font-family="sans" font-size="10.00" fill="#000000">filter_variants_before_masking</text>
<text text-anchor="middle" x="247.2139" y="-370" font-family="sans" font-size="10.00" fill="#000000">sample: ZI&#45;merge&#45;53</text>
</g>
<!-- 19&#45;&gt;51 -->
<g id="edge64" class="edge">
<title>19&#45;&gt;51</title>
<path fill="none" stroke="#c0c0c0" stroke-width="2" d="M213.5693,-431.8314C218.6465,-423.7079 224.7365,-413.9637 230.3315,-405.0118"/>
<polygon fill="#c0c0c0" stroke="#c0c0c0" stroke-width="2" points="233.3735,-406.7483 235.7056,-396.4133 227.4375,-403.0383 233.3735,-406.7483"/>
</g>
<!-- 20 -->
<g id="node21" class="node">
<title>20</title>
<path fill="none" stroke="#56c9d8" stroke-width="2" d="M1933.7961,-468C1933.7961,-468 1886.6316,-468 1886.6316,-468 1880.6316,-468 1874.6316,-462 1874.6316,-456 1874.6316,-456 1874.6316,-444 1874.6316,-444 1874.6316,-438 1880.6316,-432 1886.6316,-432 1886.6316,-432 1933.7961,-432 1933.7961,-432 1939.7961,-432 1945.7961,-438 1945.7961,-444 1945.7961,-444 1945.7961,-456 1945.7961,-456 1945.7961,-462 1939.7961,-468 1933.7961,-468"/>
<text text-anchor="middle" x="1910.2139" y="-447" font-family="sans" font-size="10.00" fill="#000000">call_variants</text>
</g>
<!-- 44 -->
<g id="node45" class="node">
<title>44</title>
<path fill="none" stroke="#5692d8" stroke-width="2" d="M2019.3956,-396C2019.3956,-396 1891.0321,-396 1891.0321,-396 1885.0321,-396 1879.0321,-390 1879.0321,-384 1879.0321,-384 1879.0321,-372 1879.0321,-372 1879.0321,-366 1885.0321,-360 1891.0321,-360 1891.0321,-360 2019.3956,-360 2019.3956,-360 2025.3956,-360 2031.3956,-366 2031.3956,-372 2031.3956,-372 2031.3956,-384 2031.3956,-384 2031.3956,-390 2025.3956,-396 2019.3956,-396"/>
<text text-anchor="middle" x="1955.2139" y="-380" font-family="sans" font-size="10.00" fill="#000000">filter_variants_before_masking</text>
<text text-anchor="middle" x="1955.2139" y="-370" font-family="sans" font-size="10.00" fill="#000000">sample: ZI&#45;merge&#45;49</text>
</g>
<!-- 20&#45;&gt;44 -->
<g id="edge55" class="edge">
<title>20&#45;&gt;44</title>
<path fill="none" stroke="#c0c0c0" stroke-width="2" d="M1921.5693,-431.8314C1926.6465,-423.7079 1932.7365,-413.9637 1938.3315,-405.0118"/>
<polygon fill="#c0c0c0" stroke="#c0c0c0" stroke-width="2" points="1941.3735,-406.7483 1943.7056,-396.4133 1935.4375,-403.0383 1941.3735,-406.7483"/>
</g>
<!-- 21 -->
<g id="node22" class="node">
<title>21</title>
<path fill="none" stroke="#afd856" stroke-width="2" d="M2036.8859,-180C2036.8859,-180 1923.5419,-180 1923.5419,-180 1917.5419,-180 1911.5419,-174 1911.5419,-168 1911.5419,-168 1911.5419,-156 1911.5419,-156 1911.5419,-150 1917.5419,-144 1923.5419,-144 1923.5419,-144 2036.8859,-144 2036.8859,-144 2042.8859,-144 2048.8859,-150 2048.8859,-156 2048.8859,-156 2048.8859,-168 2048.8859,-168 2048.8859,-174 2042.8859,-180 2036.8859,-180"/>
<text text-anchor="middle" x="1980.2139" y="-159" font-family="sans" font-size="10.00" fill="#000000">call_variants_post_removal</text>
</g>
<!-- 21&#45;&gt;0 -->
<g id="edge1" class="edge">
<title>21&#45;&gt;0</title>
<path fill="none" stroke="#c0c0c0" stroke-width="2" d="M1941.1008,-143.8314C1920.1487,-134.0988 1894.1888,-122.04 1872.1536,-111.8043"/>
<polygon fill="#c0c0c0" stroke="#c0c0c0" stroke-width="2" points="1873.5201,-108.5799 1862.9763,-107.5412 1870.571,-114.9284 1873.5201,-108.5799"/>
</g>
<!-- 37 -->
<g id="node38" class="node">
<title>37</title>
<path fill="none" stroke="#afd856" stroke-width="2" d="M1881.8859,-180C1881.8859,-180 1768.5419,-180 1768.5419,-180 1762.5419,-180 1756.5419,-174 1756.5419,-168 1756.5419,-168 1756.5419,-156 1756.5419,-156 1756.5419,-150 1762.5419,-144 1768.5419,-144 1768.5419,-144 1881.8859,-144 1881.8859,-144 1887.8859,-144 1893.8859,-150 1893.8859,-156 1893.8859,-156 1893.8859,-168 1893.8859,-168 1893.8859,-174 1887.8859,-180 1881.8859,-180"/>
<text text-anchor="middle" x="1825.2139" y="-159" font-family="sans" font-size="10.00" fill="#000000">call_variants_post_removal</text>
</g>
<!-- 22&#45;&gt;37 -->
<g id="edge44" class="edge">
<title>22&#45;&gt;37</title>
<path fill="none" stroke="#c0c0c0" stroke-width="2" d="M1840.9147,-215.8314C1838.644,-208.0463 1835.9393,-198.7729 1833.4198,-190.1347"/>
<polygon fill="#c0c0c0" stroke="#c0c0c0" stroke-width="2" points="1836.7445,-189.0332 1830.5844,-180.4133 1830.0245,-190.9933 1836.7445,-189.0332"/>
</g>
<!-- 23 -->
<g id="node24" class="node">
<title>23</title>
<path fill="none" stroke="#70d856" stroke-width="2" d="M1302.642,-614C1302.642,-614 1121.7857,-614 1121.7857,-614 1115.7857,-614 1109.7857,-608 1109.7857,-602 1109.7857,-602 1109.7857,-588 1109.7857,-588 1109.7857,-582 1115.7857,-576 1121.7857,-576 1121.7857,-576 1302.642,-576 1302.642,-576 1308.642,-576 1314.642,-582 1314.642,-588 1314.642,-588 1314.642,-602 1314.642,-602 1314.642,-608 1308.642,-614 1302.642,-614"/>
<text text-anchor="middle" x="1212.2139" y="-602" font-family="sans" font-size="10.00" fill="#000000">align_reads</text>
<text text-anchor="middle" x="1212.2139" y="-592" font-family="sans" font-size="10.00" fill="#000000">out_dir: /Users/karthik/hpc_downloads/test</text>
<text text-anchor="middle" x="1212.2139" y="-582" font-family="sans" font-size="10.00" fill="#000000">sample: ZI&#45;merge&#45;52_a</text>
</g>
<!-- 23&#45;&gt;9 -->
<g id="edge13" class="edge">
<title>23&#45;&gt;9</title>
<path fill="none" stroke="#c0c0c0" stroke-width="2" d="M1211.6884,-575.8201C1211.4768,-568.0975 1211.2283,-559.0282 1210.9963,-550.5585"/>
<polygon fill="#c0c0c0" stroke="#c0c0c0" stroke-width="2" points="1214.4878,-550.1977 1210.7152,-540.2973 1207.4904,-550.3895 1214.4878,-550.1977"/>
</g>
<!-- 24 -->
<g id="node25" class="node">
<title>24</title>
<path fill="none" stroke="#70d856" stroke-width="2" d="M1746.642,-614C1746.642,-614 1565.7857,-614 1565.7857,-614 1559.7857,-614 1553.7857,-608 1553.7857,-602 1553.7857,-602 1553.7857,-588 1553.7857,-588 1553.7857,-582 1559.7857,-576 1565.7857,-576 1565.7857,-576 1746.642,-576 1746.642,-576 1752.642,-576 1758.642,-582 1758.642,-588 1758.642,-588 1758.642,-602 1758.642,-602 1758.642,-608 1752.642,-614 1746.642,-614"/>
<text text-anchor="middle" x="1656.2139" y="-602" font-family="sans" font-size="10.00" fill="#000000">align_reads</text>
<text text-anchor="middle" x="1656.2139" y="-592" font-family="sans" font-size="10.00" fill="#000000">out_dir: /Users/karthik/hpc_downloads/test</text>
<text text-anchor="middle" x="1656.2139" y="-582" font-family="sans" font-size="10.00" fill="#000000">sample: ZI&#45;merge&#45;51_a</text>
</g>
<!-- 24&#45;&gt;10 -->
<g id="edge14" class="edge">
<title>24&#45;&gt;10</title>
<path fill="none" stroke="#c0c0c0" stroke-width="2" d="M1646.7553,-575.8201C1642.7776,-567.7543 1638.0755,-558.2194 1633.7424,-549.4329"/>
<polygon fill="#c0c0c0" stroke="#c0c0c0" stroke-width="2" points="1636.7992,-547.718 1629.2372,-540.2973 1630.5211,-550.8141 1636.7992,-547.718"/>
</g>
<!-- 25&#45;&gt;39 -->
<g id="edge49" class="edge">
<title>25&#45;&gt;39</title>
<path fill="none" stroke="#c0c0c0" stroke-width="2" d="M417.2915,-86.0778C539.2489,-73.5157 919.2904,-34.3698 1040.5962,-21.8748"/>
<polygon fill="#c0c0c0" stroke="#c0c0c0" stroke-width="2" points="1041.2697,-25.324 1050.8584,-20.8177 1040.5524,-18.3609 1041.2697,-25.324"/>
</g>
<!-- 26 -->
<g id="node27" class="node">
<title>26</title>
<path fill="none" stroke="#70d856" stroke-width="2" d="M2190.642,-614C2190.642,-614 2009.7857,-614 2009.7857,-614 2003.7857,-614 1997.7857,-608 1997.7857,-602 1997.7857,-602 1997.7857,-588 1997.7857,-588 1997.7857,-582 2003.7857,-576 2009.7857,-576 2009.7857,-576 2190.642,-576 2190.642,-576 2196.642,-576 2202.642,-582 2202.642,-588 2202.642,-588 2202.642,-602 2202.642,-602 2202.642,-608 2196.642,-614 2190.642,-614"/>
<text text-anchor="middle" x="2100.2139" y="-602" font-family="sans" font-size="10.00" fill="#000000">align_reads</text>
<text text-anchor="middle" x="2100.2139" y="-592" font-family="sans" font-size="10.00" fill="#000000">out_dir: /Users/karthik/hpc_downloads/test</text>
<text text-anchor="middle" x="2100.2139" y="-582" font-family="sans" font-size="10.00" fill="#000000">sample: ZI&#45;merge&#45;49_b</text>
</g>
<!-- 26&#45;&gt;14 -->
<g id="edge20" class="edge">
<title>26&#45;&gt;14</title>
<path fill="none" stroke="#c0c0c0" stroke-width="2" d="M2090.7553,-575.8201C2086.7776,-567.7543 2082.0755,-558.2194 2077.7424,-549.4329"/>
<polygon fill="#c0c0c0" stroke="#c0c0c0" stroke-width="2" points="2080.7992,-547.718 2073.2372,-540.2973 2074.5211,-550.8141 2080.7992,-547.718"/>
</g>
<!-- 27 -->
<g id="node28" class="node">
<title>27</title>
<path fill="none" stroke="#d88d56" stroke-width="2" d="M711.693,-324C711.693,-324 664.7347,-324 664.7347,-324 658.7347,-324 652.7347,-318 652.7347,-312 652.7347,-312 652.7347,-300 652.7347,-300 652.7347,-294 658.7347,-288 664.7347,-288 664.7347,-288 711.693,-288 711.693,-288 717.693,-288 723.693,-294 723.693,-300 723.693,-300 723.693,-312 723.693,-312 723.693,-318 717.693,-324 711.693,-324"/>
<text text-anchor="middle" x="688.2139" y="-303" font-family="sans" font-size="10.00" fill="#000000">get_masked</text>
</g>
<!-- 27&#45;&gt;54 -->
<g id="edge67" class="edge">
<title>27&#45;&gt;54</title>
<path fill="none" stroke="#c0c0c0" stroke-width="2" d="M715.7192,-287.8314C729.5318,-278.7074 746.4395,-267.539 761.2668,-257.7449"/>
<polygon fill="#c0c0c0" stroke="#c0c0c0" stroke-width="2" points="763.3024,-260.5949 769.7174,-252.1628 759.4443,-254.7541 763.3024,-260.5949"/>
</g>
<!-- 56 -->
<g id="node57" class="node">
<title>56</title>
<path fill="none" stroke="#d8cb56" stroke-width="2" d="M692.1348,-252C692.1348,-252 636.2929,-252 636.2929,-252 630.2929,-252 624.2929,-246 624.2929,-240 624.2929,-240 624.2929,-228 624.2929,-228 624.2929,-222 630.2929,-216 636.2929,-216 636.2929,-216 692.1348,-216 692.1348,-216 698.1348,-216 704.1348,-222 704.1348,-228 704.1348,-228 704.1348,-240 704.1348,-240 704.1348,-246 698.1348,-252 692.1348,-252"/>
<text text-anchor="middle" x="664.2139" y="-236" font-family="sans" font-size="10.00" fill="#000000">remove_reads</text>
<text text-anchor="middle" x="664.2139" y="-226" font-family="sans" font-size="10.00" fill="#000000">rep: a</text>
</g>
<!-- 27&#45;&gt;56 -->
<g id="edge70" class="edge">
<title>27&#45;&gt;56</title>
<path fill="none" stroke="#c0c0c0" stroke-width="2" d="M682.1577,-287.8314C679.5626,-280.0463 676.4715,-270.7729 673.5921,-262.1347"/>
<polygon fill="#c0c0c0" stroke="#c0c0c0" stroke-width="2" points="676.8344,-260.7933 670.3516,-252.4133 670.1936,-263.0069 676.8344,-260.7933"/>
</g>
<!-- 28 -->
<g id="node29" class="node">
<title>28</title>
<path fill="none" stroke="#d85656" stroke-width="2" d="M845.1831,-108C845.1831,-108 793.2446,-108 793.2446,-108 787.2446,-108 781.2446,-102 781.2446,-96 781.2446,-96 781.2446,-84 781.2446,-84 781.2446,-78 787.2446,-72 793.2446,-72 793.2446,-72 845.1831,-72 845.1831,-72 851.1831,-72 857.1831,-78 857.1831,-84 857.1831,-84 857.1831,-96 857.1831,-96 857.1831,-102 851.1831,-108 845.1831,-108"/>
<text text-anchor="middle" x="819.2139" y="-87" font-family="sans" font-size="10.00" fill="#000000">filter_variants</text>
</g>
<!-- 28&#45;&gt;39 -->
<g id="edge48" class="edge">
<title>28&#45;&gt;39</title>
<path fill="none" stroke="#c0c0c0" stroke-width="2" d="M857.1521,-79.4535C906.4745,-65.7422 992.0772,-41.9453 1041.0276,-28.3375"/>
<polygon fill="#c0c0c0" stroke="#c0c0c0" stroke-width="2" points="1042.1933,-31.6462 1050.8905,-25.5957 1040.3184,-24.902 1042.1933,-31.6462"/>
</g>
<!-- 29&#45;&gt;2 -->
<g id="edge3" class="edge">
<title>29&#45;&gt;2</title>
<path fill="none" stroke="#c0c0c0" stroke-width="2" d="M1134.8585,-431.8314C1129.7813,-423.7079 1123.6912,-413.9637 1118.0962,-405.0118"/>
<polygon fill="#c0c0c0" stroke="#c0c0c0" stroke-width="2" points="1120.9902,-403.0383 1112.7222,-396.4133 1115.0542,-406.7483 1120.9902,-403.0383"/>
</g>
<!-- 30 -->
<g id="node31" class="node">
<title>30</title>
<path fill="none" stroke="#56c9d8" stroke-width="2" d="M1489.7961,-468C1489.7961,-468 1442.6316,-468 1442.6316,-468 1436.6316,-468 1430.6316,-462 1430.6316,-456 1430.6316,-456 1430.6316,-444 1430.6316,-444 1430.6316,-438 1436.6316,-432 1442.6316,-432 1442.6316,-432 1489.7961,-432 1489.7961,-432 1495.7961,-432 1501.7961,-438 1501.7961,-444 1501.7961,-444 1501.7961,-456 1501.7961,-456 1501.7961,-462 1495.7961,-468 1489.7961,-468"/>
<text text-anchor="middle" x="1466.2139" y="-447" font-family="sans" font-size="10.00" fill="#000000">call_variants</text>
</g>
<!-- 30&#45;&gt;3 -->
<g id="edge6" class="edge">
<title>30&#45;&gt;3</title>
<path fill="none" stroke="#c0c0c0" stroke-width="2" d="M1477.5693,-431.8314C1482.6465,-423.7079 1488.7365,-413.9637 1494.3315,-405.0118"/>
<polygon fill="#c0c0c0" stroke="#c0c0c0" stroke-width="2" points="1497.3735,-406.7483 1499.7056,-396.4133 1491.4375,-403.0383 1497.3735,-406.7483"/>
</g>
<!-- 31&#45;&gt;44 -->
<g id="edge56" class="edge">
<title>31&#45;&gt;44</title>
<path fill="none" stroke="#c0c0c0" stroke-width="2" d="M1988.8585,-431.8314C1983.7813,-423.7079 1977.6912,-413.9637 1972.0962,-405.0118"/>
<polygon fill="#c0c0c0" stroke="#c0c0c0" stroke-width="2" points="1974.9902,-403.0383 1966.7222,-396.4133 1969.0542,-406.7483 1974.9902,-403.0383"/>
</g>
<!-- 32 -->
<g id="node33" class="node">
<title>32</title>
<path fill="none" stroke="#56d873" stroke-width="2" d="M1030.7383,-540C1030.7383,-540 953.6895,-540 953.6895,-540 947.6895,-540 941.6895,-534 941.6895,-528 941.6895,-528 941.6895,-516 941.6895,-516 941.6895,-510 947.6895,-504 953.6895,-504 953.6895,-504 1030.7383,-504 1030.7383,-504 1036.7383,-504 1042.7383,-510 1042.7383,-516 1042.7383,-516 1042.7383,-528 1042.7383,-528 1042.7383,-534 1036.7383,-540 1030.7383,-540"/>
<text text-anchor="middle" x="992.2139" y="-519" font-family="sans" font-size="10.00" fill="#000000">trim_primer_quality</text>
</g>
<!-- 32&#45;&gt;8 -->
<g id="edge11" class="edge">
<title>32&#45;&gt;8</title>
<path fill="none" stroke="#c0c0c0" stroke-width="2" d="M992.7769,-503.9843C994.2984,-455.2939 998.5015,-320.7961 1000.3371,-262.0573"/>
<polygon fill="#c0c0c0" stroke="#c0c0c0" stroke-width="2" points="1003.8369,-262.1134 1000.6511,-252.0089 996.8404,-261.8946 1003.8369,-262.1134"/>
</g>
<!-- 60 -->
<g id="node61" class="node">
<title>60</title>
<path fill="none" stroke="#56c9d8" stroke-width="2" d="M1079.7961,-468C1079.7961,-468 1032.6316,-468 1032.6316,-468 1026.6316,-468 1020.6316,-462 1020.6316,-456 1020.6316,-456 1020.6316,-444 1020.6316,-444 1020.6316,-438 1026.6316,-432 1032.6316,-432 1032.6316,-432 1079.7961,-432 1079.7961,-432 1085.7961,-432 1091.7961,-438 1091.7961,-444 1091.7961,-444 1091.7961,-456 1091.7961,-456 1091.7961,-462 1085.7961,-468 1079.7961,-468"/>
<text text-anchor="middle" x="1056.2139" y="-447" font-family="sans" font-size="10.00" fill="#000000">call_variants</text>
</g>
<!-- 32&#45;&gt;60 -->
<g id="edge75" class="edge">
<title>32&#45;&gt;60</title>
<path fill="none" stroke="#c0c0c0" stroke-width="2" d="M1008.3638,-503.8314C1015.8855,-495.3694 1024.9704,-485.1489 1033.1942,-475.8971"/>
<polygon fill="#c0c0c0" stroke="#c0c0c0" stroke-width="2" points="1035.8188,-478.2127 1039.8465,-468.4133 1030.5869,-473.5621 1035.8188,-478.2127"/>
</g>
<!-- 33 -->
<g id="node34" class="node">
<title>33</title>
<path fill="none" stroke="#70d856" stroke-width="2" d="M1524.642,-614C1524.642,-614 1343.7857,-614 1343.7857,-614 1337.7857,-614 1331.7857,-608 1331.7857,-602 1331.7857,-602 1331.7857,-588 1331.7857,-588 1331.7857,-582 1337.7857,-576 1343.7857,-576 1343.7857,-576 1524.642,-576 1524.642,-576 1530.642,-576 1536.642,-582 1536.642,-588 1536.642,-588 1536.642,-602 1536.642,-602 1536.642,-608 1530.642,-614 1524.642,-614"/>
<text text-anchor="middle" x="1434.2139" y="-602" font-family="sans" font-size="10.00" fill="#000000">align_reads</text>
<text text-anchor="middle" x="1434.2139" y="-592" font-family="sans" font-size="10.00" fill="#000000">out_dir: /Users/karthik/hpc_downloads/test</text>
<text text-anchor="middle" x="1434.2139" y="-582" font-family="sans" font-size="10.00" fill="#000000">sample: ZI&#45;merge&#45;51_b</text>
</g>
<!-- 47 -->
<g id="node48" class="node">
<title>47</title>
<path fill="none" stroke="#56d873" stroke-width="2" d="M1472.7383,-540C1472.7383,-540 1395.6895,-540 1395.6895,-540 1389.6895,-540 1383.6895,-534 1383.6895,-528 1383.6895,-528 1383.6895,-516 1383.6895,-516 1383.6895,-510 1389.6895,-504 1395.6895,-504 1395.6895,-504 1472.7383,-504 1472.7383,-504 1478.7383,-504 1484.7383,-510 1484.7383,-516 1484.7383,-516 1484.7383,-528 1484.7383,-528 1484.7383,-534 1478.7383,-540 1472.7383,-540"/>
<text text-anchor="middle" x="1434.2139" y="-519" font-family="sans" font-size="10.00" fill="#000000">trim_primer_quality</text>
</g>
<!-- 33&#45;&gt;47 -->
<g id="edge59" class="edge">
<title>33&#45;&gt;47</title>
<path fill="none" stroke="#c0c0c0" stroke-width="2" d="M1434.2139,-575.8201C1434.2139,-568.0975 1434.2139,-559.0282 1434.2139,-550.5585"/>
<polygon fill="#c0c0c0" stroke="#c0c0c0" stroke-width="2" points="1437.714,-550.2973 1434.2139,-540.2973 1430.714,-550.2974 1437.714,-550.2973"/>
</g>
<!-- 34 -->
<g id="node35" class="node">
<title>34</title>
<path fill="none" stroke="#56d873" stroke-width="2" d="M617.7383,-540C617.7383,-540 540.6895,-540 540.6895,-540 534.6895,-540 528.6895,-534 528.6895,-528 528.6895,-528 528.6895,-516 528.6895,-516 528.6895,-510 534.6895,-504 540.6895,-504 540.6895,-504 617.7383,-504 617.7383,-504 623.7383,-504 629.7383,-510 629.7383,-516 629.7383,-516 629.7383,-528 629.7383,-528 629.7383,-534 623.7383,-540 617.7383,-540"/>
<text text-anchor="middle" x="579.2139" y="-519" font-family="sans" font-size="10.00" fill="#000000">trim_primer_quality</text>
</g>
<!-- 43 -->
<g id="node44" class="node">
<title>43</title>
<path fill="none" stroke="#56c9d8" stroke-width="2" d="M666.7961,-468C666.7961,-468 619.6316,-468 619.6316,-468 613.6316,-468 607.6316,-462 607.6316,-456 607.6316,-456 607.6316,-444 607.6316,-444 607.6316,-438 613.6316,-432 619.6316,-432 619.6316,-432 666.7961,-432 666.7961,-432 672.7961,-432 678.7961,-438 678.7961,-444 678.7961,-444 678.7961,-456 678.7961,-456 678.7961,-462 672.7961,-468 666.7961,-468"/>
<text text-anchor="middle" x="643.2139" y="-447" font-family="sans" font-size="10.00" fill="#000000">call_variants</text>
</g>
<!-- 34&#45;&gt;43 -->
<g id="edge54" class="edge">
<title>34&#45;&gt;43</title>
<path fill="none" stroke="#c0c0c0" stroke-width="2" d="M595.3638,-503.8314C602.8855,-495.3694 611.9704,-485.1489 620.1942,-475.8971"/>
<polygon fill="#c0c0c0" stroke="#c0c0c0" stroke-width="2" points="622.8188,-478.2127 626.8465,-468.4133 617.5869,-473.5621 622.8188,-478.2127"/>
</g>
<!-- 34&#45;&gt;56 -->
<g id="edge69" class="edge">
<title>34&#45;&gt;56</title>
<path fill="none" stroke="#c0c0c0" stroke-width="2" d="M580.122,-503.6225C582.0262,-473.1564 587.6376,-410.5375 603.2139,-360 614.2585,-324.1655 634.1476,-285.7574 648.2083,-260.8943"/>
<polygon fill="#c0c0c0" stroke="#c0c0c0" stroke-width="2" points="651.3357,-262.4768 653.2813,-252.0621 645.2657,-258.9903 651.3357,-262.4768"/>
</g>
<!-- 35&#45;&gt;3 -->
<g id="edge5" class="edge">
<title>35&#45;&gt;3</title>
<path fill="none" stroke="#c0c0c0" stroke-width="2" d="M1544.8585,-431.8314C1539.7813,-423.7079 1533.6912,-413.9637 1528.0962,-405.0118"/>
<polygon fill="#c0c0c0" stroke="#c0c0c0" stroke-width="2" points="1530.9902,-403.0383 1522.7222,-396.4133 1525.0542,-406.7483 1530.9902,-403.0383"/>
</g>
<!-- 36&#45;&gt;21 -->
<g id="edge28" class="edge">
<title>36&#45;&gt;21</title>
<path fill="none" stroke="#c0c0c0" stroke-width="2" d="M1980.2139,-215.8314C1980.2139,-208.131 1980.2139,-198.9743 1980.2139,-190.4166"/>
<polygon fill="#c0c0c0" stroke="#c0c0c0" stroke-width="2" points="1983.714,-190.4132 1980.2139,-180.4133 1976.714,-190.4133 1983.714,-190.4132"/>
</g>
<!-- 37&#45;&gt;0 -->
<g id="edge2" class="edge">
<title>37&#45;&gt;0</title>
<path fill="none" stroke="#c0c0c0" stroke-width="2" d="M1825.2139,-143.8314C1825.2139,-136.131 1825.2139,-126.9743 1825.2139,-118.4166"/>
<polygon fill="#c0c0c0" stroke="#c0c0c0" stroke-width="2" points="1828.714,-118.4132 1825.2139,-108.4133 1821.714,-118.4133 1828.714,-118.4132"/>
</g>
<!-- 38 -->
<g id="node39" class="node">
<title>38</title>
<path fill="none" stroke="#70d856" stroke-width="2" d="M1968.642,-614C1968.642,-614 1787.7857,-614 1787.7857,-614 1781.7857,-614 1775.7857,-608 1775.7857,-602 1775.7857,-602 1775.7857,-588 1775.7857,-588 1775.7857,-582 1781.7857,-576 1787.7857,-576 1787.7857,-576 1968.642,-576 1968.642,-576 1974.642,-576 1980.642,-582 1980.642,-588 1980.642,-588 1980.642,-602 1980.642,-602 1980.642,-608 1974.642,-614 1968.642,-614"/>
<text text-anchor="middle" x="1878.2139" y="-602" font-family="sans" font-size="10.00" fill="#000000">align_reads</text>
<text text-anchor="middle" x="1878.2139" y="-592" font-family="sans" font-size="10.00" fill="#000000">out_dir: /Users/karthik/hpc_downloads/test</text>
<text text-anchor="middle" x="1878.2139" y="-582" font-family="sans" font-size="10.00" fill="#000000">sample: ZI&#45;merge&#45;49_a</text>
</g>
<!-- 57 -->
<g id="node58" class="node">
<title>57</title>
<path fill="none" stroke="#56d873" stroke-width="2" d="M1916.7383,-540C1916.7383,-540 1839.6895,-540 1839.6895,-540 1833.6895,-540 1827.6895,-534 1827.6895,-528 1827.6895,-528 1827.6895,-516 1827.6895,-516 1827.6895,-510 1833.6895,-504 1839.6895,-504 1839.6895,-504 1916.7383,-504 1916.7383,-504 1922.7383,-504 1928.7383,-510 1928.7383,-516 1928.7383,-516 1928.7383,-528 1928.7383,-528 1928.7383,-534 1922.7383,-540 1916.7383,-540"/>
<text text-anchor="middle" x="1878.2139" y="-519" font-family="sans" font-size="10.00" fill="#000000">trim_primer_quality</text>
</g>
<!-- 38&#45;&gt;57 -->
<g id="edge71" class="edge">
<title>38&#45;&gt;57</title>
<path fill="none" stroke="#c0c0c0" stroke-width="2" d="M1878.2139,-575.8201C1878.2139,-568.0975 1878.2139,-559.0282 1878.2139,-550.5585"/>
<polygon fill="#c0c0c0" stroke="#c0c0c0" stroke-width="2" points="1881.714,-550.2973 1878.2139,-540.2973 1874.714,-550.2974 1881.714,-550.2973"/>
</g>
<!-- 40&#45;&gt;25 -->
<g id="edge31" class="edge">
<title>40&#45;&gt;25</title>
<path fill="none" stroke="#c0c0c0" stroke-width="2" d="M263.3269,-143.8314C284.279,-134.0988 310.2389,-122.04 332.2741,-111.8043"/>
<polygon fill="#c0c0c0" stroke="#c0c0c0" stroke-width="2" points="333.8567,-114.9284 341.4515,-107.5412 330.9077,-108.5799 333.8567,-114.9284"/>
</g>
<!-- 41&#45;&gt;39 -->
<g id="edge45" class="edge">
<title>41&#45;&gt;39</title>
<path fill="none" stroke="#c0c0c0" stroke-width="2" d="M1078.2139,-71.8314C1078.2139,-64.131 1078.2139,-54.9743 1078.2139,-46.4166"/>
<polygon fill="#c0c0c0" stroke="#c0c0c0" stroke-width="2" points="1081.714,-46.4132 1078.2139,-36.4133 1074.714,-46.4133 1081.714,-46.4132"/>
</g>
<!-- 42&#45;&gt;51 -->
<g id="edge63" class="edge">
<title>42&#45;&gt;51</title>
<path fill="none" stroke="#c0c0c0" stroke-width="2" d="M280.8585,-431.8314C275.7813,-423.7079 269.6912,-413.9637 264.0962,-405.0118"/>
<polygon fill="#c0c0c0" stroke="#c0c0c0" stroke-width="2" points="266.9902,-403.0383 258.7222,-396.4133 261.0542,-406.7483 266.9902,-403.0383"/>
</g>
<!-- 50 -->
<g id="node51" class="node">
<title>50</title>
<path fill="none" stroke="#5692d8" stroke-width="2" d="M752.3956,-396C752.3956,-396 624.0321,-396 624.0321,-396 618.0321,-396 612.0321,-390 612.0321,-384 612.0321,-384 612.0321,-372 612.0321,-372 612.0321,-366 618.0321,-360 624.0321,-360 624.0321,-360 752.3956,-360 752.3956,-360 758.3956,-360 764.3956,-366 764.3956,-372 764.3956,-372 764.3956,-384 764.3956,-384 764.3956,-390 758.3956,-396 752.3956,-396"/>
<text text-anchor="middle" x="688.2139" y="-380" font-family="sans" font-size="10.00" fill="#000000">filter_variants_before_masking</text>
<text text-anchor="middle" x="688.2139" y="-370" font-family="sans" font-size="10.00" fill="#000000">sample: ZI&#45;merge&#45;50</text>
</g>
<!-- 43&#45;&gt;50 -->
<g id="edge62" class="edge">
<title>43&#45;&gt;50</title>
<path fill="none" stroke="#c0c0c0" stroke-width="2" d="M654.5693,-431.8314C659.6465,-423.7079 665.7365,-413.9637 671.3315,-405.0118"/>
<polygon fill="#c0c0c0" stroke="#c0c0c0" stroke-width="2" points="674.3735,-406.7483 676.7056,-396.4133 668.4375,-403.0383 674.3735,-406.7483"/>
</g>
<!-- 44&#45;&gt;18 -->
<g id="edge25" class="edge">
<title>44&#45;&gt;18</title>
<path fill="none" stroke="#c0c0c0" stroke-width="2" d="M1955.2139,-359.8314C1955.2139,-352.131 1955.2139,-342.9743 1955.2139,-334.4166"/>
<polygon fill="#c0c0c0" stroke="#c0c0c0" stroke-width="2" points="1958.714,-334.4132 1955.2139,-324.4133 1951.714,-334.4133 1958.714,-334.4132"/>
</g>
<!-- 45 -->
<g id="node46" class="node">
<title>45</title>
<path fill="none" stroke="#70d856" stroke-width="2" d="M192.642,-614C192.642,-614 11.7857,-614 11.7857,-614 5.7857,-614 -.2143,-608 -.2143,-602 -.2143,-602 -.2143,-588 -.2143,-588 -.2143,-582 5.7857,-576 11.7857,-576 11.7857,-576 192.642,-576 192.642,-576 198.642,-576 204.642,-582 204.642,-588 204.642,-588 204.642,-602 204.642,-602 204.642,-608 198.642,-614 192.642,-614"/>
<text text-anchor="middle" x="102.2139" y="-602" font-family="sans" font-size="10.00" fill="#000000">align_reads</text>
<text text-anchor="middle" x="102.2139" y="-592" font-family="sans" font-size="10.00" fill="#000000">out_dir: /Users/karthik/hpc_downloads/test</text>
<text text-anchor="middle" x="102.2139" y="-582" font-family="sans" font-size="10.00" fill="#000000">sample: ZI&#45;merge&#45;53_a</text>
</g>
<!-- 61 -->
<g id="node62" class="node">
<title>61</title>
<path fill="none" stroke="#56d873" stroke-width="2" d="M176.7383,-540C176.7383,-540 99.6895,-540 99.6895,-540 93.6895,-540 87.6895,-534 87.6895,-528 87.6895,-528 87.6895,-516 87.6895,-516 87.6895,-510 93.6895,-504 99.6895,-504 99.6895,-504 176.7383,-504 176.7383,-504 182.7383,-504 188.7383,-510 188.7383,-516 188.7383,-516 188.7383,-528 188.7383,-528 188.7383,-534 182.7383,-540 176.7383,-540"/>
<text text-anchor="middle" x="138.2139" y="-519" font-family="sans" font-size="10.00" fill="#000000">trim_primer_quality</text>
</g>
<!-- 45&#45;&gt;61 -->
<g id="edge76" class="edge">
<title>45&#45;&gt;61</title>
<path fill="none" stroke="#c0c0c0" stroke-width="2" d="M111.6724,-575.8201C115.6501,-567.7543 120.3522,-558.2194 124.6853,-549.4329"/>
<polygon fill="#c0c0c0" stroke="#c0c0c0" stroke-width="2" points="127.9066,-550.8141 129.1905,-540.2973 121.6285,-547.718 127.9066,-550.8141"/>
</g>
<!-- 46&#45;&gt;39 -->
<g id="edge47" class="edge">
<title>46&#45;&gt;39</title>
<path fill="none" stroke="#c0c0c0" stroke-width="2" d="M1341.3968,-80.9541C1283.3055,-67.0585 1172.8057,-40.6266 1115.2117,-26.85"/>
<polygon fill="#c0c0c0" stroke="#c0c0c0" stroke-width="2" points="1115.9724,-23.4333 1105.4325,-24.5108 1114.3439,-30.2412 1115.9724,-23.4333"/>
</g>
<!-- 47&#45;&gt;7 -->
<g id="edge9" class="edge">
<title>47&#45;&gt;7</title>
<path fill="none" stroke="#c0c0c0" stroke-width="2" d="M1429.0463,-503.6487C1426.3124,-493.2663 1423.1332,-479.9974 1421.2139,-468 1409.4318,-394.3512 1404.7855,-306.4285 1403.0936,-262.2697"/>
<polygon fill="#c0c0c0" stroke="#c0c0c0" stroke-width="2" points="1406.5823,-261.8887 1402.7246,-252.0211 1399.5868,-262.1406 1406.5823,-261.8887"/>
</g>
<!-- 47&#45;&gt;30 -->
<g id="edge37" class="edge">
<title>47&#45;&gt;30</title>
<path fill="none" stroke="#c0c0c0" stroke-width="2" d="M1442.2888,-503.8314C1445.824,-495.8771 1450.0499,-486.369 1453.9595,-477.5723"/>
<polygon fill="#c0c0c0" stroke="#c0c0c0" stroke-width="2" points="1457.1671,-478.9729 1458.0302,-468.4133 1450.7704,-476.1299 1457.1671,-478.9729"/>
</g>
<!-- 48 -->
<g id="node49" class="node">
<title>48</title>
<path fill="none" stroke="#70d856" stroke-width="2" d="M1080.642,-614C1080.642,-614 899.7857,-614 899.7857,-614 893.7857,-614 887.7857,-608 887.7857,-602 887.7857,-602 887.7857,-588 887.7857,-588 887.7857,-582 893.7857,-576 899.7857,-576 899.7857,-576 1080.642,-576 1080.642,-576 1086.642,-576 1092.642,-582 1092.642,-588 1092.642,-588 1092.642,-602 1092.642,-602 1092.642,-608 1086.642,-614 1080.642,-614"/>
<text text-anchor="middle" x="990.2139" y="-602" font-family="sans" font-size="10.00" fill="#000000">align_reads</text>
<text text-anchor="middle" x="990.2139" y="-592" font-family="sans" font-size="10.00" fill="#000000">out_dir: /Users/karthik/hpc_downloads/test</text>
<text text-anchor="middle" x="990.2139" y="-582" font-family="sans" font-size="10.00" fill="#000000">sample: ZI&#45;merge&#45;52_b</text>
</g>
<!-- 48&#45;&gt;32 -->
<g id="edge39" class="edge">
<title>48&#45;&gt;32</title>
<path fill="none" stroke="#c0c0c0" stroke-width="2" d="M990.7393,-575.8201C990.9509,-568.0975 991.1994,-559.0282 991.4314,-550.5585"/>
<polygon fill="#c0c0c0" stroke="#c0c0c0" stroke-width="2" points="994.9373,-550.3895 991.7126,-540.2973 987.9399,-550.1977 994.9373,-550.3895"/>
</g>
<!-- 49 -->
<g id="node50" class="node">
<title>49</title>
<path fill="none" stroke="#afd856" stroke-width="2" d="M875.8859,-180C875.8859,-180 762.5419,-180 762.5419,-180 756.5419,-180 750.5419,-174 750.5419,-168 750.5419,-168 750.5419,-156 750.5419,-156 750.5419,-150 756.5419,-144 762.5419,-144 762.5419,-144 875.8859,-144 875.8859,-144 881.8859,-144 887.8859,-150 887.8859,-156 887.8859,-156 887.8859,-168 887.8859,-168 887.8859,-174 881.8859,-180 875.8859,-180"/>
<text text-anchor="middle" x="819.2139" y="-159" font-family="sans" font-size="10.00" fill="#000000">call_variants_post_removal</text>
</g>
<!-- 49&#45;&gt;28 -->
<g id="edge34" class="edge">
<title>49&#45;&gt;28</title>
<path fill="none" stroke="#c0c0c0" stroke-width="2" d="M819.2139,-143.8314C819.2139,-136.131 819.2139,-126.9743 819.2139,-118.4166"/>
<polygon fill="#c0c0c0" stroke="#c0c0c0" stroke-width="2" points="822.714,-118.4132 819.2139,-108.4133 815.714,-118.4133 822.714,-118.4132"/>
</g>
<!-- 50&#45;&gt;27 -->
<g id="edge33" class="edge">
<title>50&#45;&gt;27</title>
<path fill="none" stroke="#c0c0c0" stroke-width="2" d="M688.2139,-359.8314C688.2139,-352.131 688.2139,-342.9743 688.2139,-334.4166"/>
<polygon fill="#c0c0c0" stroke="#c0c0c0" stroke-width="2" points="691.714,-334.4132 688.2139,-324.4133 684.714,-334.4133 691.714,-334.4132"/>
</g>
<!-- 62 -->
<g id="node63" class="node">
<title>62</title>
<path fill="none" stroke="#d88d56" stroke-width="2" d="M270.693,-324C270.693,-324 223.7347,-324 223.7347,-324 217.7347,-324 211.7347,-318 211.7347,-312 211.7347,-312 211.7347,-300 211.7347,-300 211.7347,-294 217.7347,-288 223.7347,-288 223.7347,-288 270.693,-288 270.693,-288 276.693,-288 282.693,-294 282.693,-300 282.693,-300 282.693,-312 282.693,-312 282.693,-318 276.693,-324 270.693,-324"/>
<text text-anchor="middle" x="247.2139" y="-303" font-family="sans" font-size="10.00" fill="#000000">get_masked</text>
</g>
<!-- 51&#45;&gt;62 -->
<g id="edge77" class="edge">
<title>51&#45;&gt;62</title>
<path fill="none" stroke="#c0c0c0" stroke-width="2" d="M247.2139,-359.8314C247.2139,-352.131 247.2139,-342.9743 247.2139,-334.4166"/>
<polygon fill="#c0c0c0" stroke="#c0c0c0" stroke-width="2" points="250.714,-334.4132 247.2139,-324.4133 243.714,-334.4133 250.714,-334.4132"/>
</g>
<!-- 52&#45;&gt;46 -->
<g id="edge58" class="edge">
<title>52&#45;&gt;46</title>
<path fill="none" stroke="#c0c0c0" stroke-width="2" d="M1379.2139,-143.8314C1379.2139,-136.131 1379.2139,-126.9743 1379.2139,-118.4166"/>
<polygon fill="#c0c0c0" stroke="#c0c0c0" stroke-width="2" points="1382.714,-118.4132 1379.2139,-108.4133 1375.714,-118.4133 1382.714,-118.4132"/>
</g>
<!-- 53 -->
<g id="node54" class="node">
<title>53</title>
<path fill="none" stroke="#70d856" stroke-width="2" d="M636.642,-614C636.642,-614 455.7857,-614 455.7857,-614 449.7857,-614 443.7857,-608 443.7857,-602 443.7857,-602 443.7857,-588 443.7857,-588 443.7857,-582 449.7857,-576 455.7857,-576 455.7857,-576 636.642,-576 636.642,-576 642.642,-576 648.642,-582 648.642,-588 648.642,-588 648.642,-602 648.642,-602 648.642,-608 642.642,-614 636.642,-614"/>
<text text-anchor="middle" x="546.2139" y="-602" font-family="sans" font-size="10.00" fill="#000000">align_reads</text>
<text text-anchor="middle" x="546.2139" y="-592" font-family="sans" font-size="10.00" fill="#000000">out_dir: /Users/karthik/hpc_downloads/test</text>
<text text-anchor="middle" x="546.2139" y="-582" font-family="sans" font-size="10.00" fill="#000000">sample: ZI&#45;merge&#45;50_a</text>
</g>
<!-- 53&#45;&gt;34 -->
<g id="edge40" class="edge">
<title>53&#45;&gt;34</title>
<path fill="none" stroke="#c0c0c0" stroke-width="2" d="M554.8842,-575.8201C558.5304,-567.7543 562.8407,-558.2194 566.8127,-549.4329"/>
<polygon fill="#c0c0c0" stroke="#c0c0c0" stroke-width="2" points="570.0125,-550.8513 570.9425,-540.2973 563.6339,-547.9678 570.0125,-550.8513"/>
</g>
<!-- 54&#45;&gt;49 -->
<g id="edge60" class="edge">
<title>54&#45;&gt;49</title>
<path fill="none" stroke="#c0c0c0" stroke-width="2" d="M802.7654,-215.8314C805.1442,-208.0463 807.9777,-198.7729 810.6171,-190.1347"/>
<polygon fill="#c0c0c0" stroke="#c0c0c0" stroke-width="2" points="814.0126,-190.9996 813.5876,-180.4133 807.3181,-188.954 814.0126,-190.9996"/>
</g>
<!-- 55 -->
<g id="node56" class="node">
<title>55</title>
<path fill="none" stroke="#afd856" stroke-width="2" d="M720.8859,-180C720.8859,-180 607.5419,-180 607.5419,-180 601.5419,-180 595.5419,-174 595.5419,-168 595.5419,-168 595.5419,-156 595.5419,-156 595.5419,-150 601.5419,-144 607.5419,-144 607.5419,-144 720.8859,-144 720.8859,-144 726.8859,-144 732.8859,-150 732.8859,-156 732.8859,-156 732.8859,-168 732.8859,-168 732.8859,-174 726.8859,-180 720.8859,-180"/>
<text text-anchor="middle" x="664.2139" y="-159" font-family="sans" font-size="10.00" fill="#000000">call_variants_post_removal</text>
</g>
<!-- 55&#45;&gt;28 -->
<g id="edge35" class="edge">
<title>55&#45;&gt;28</title>
<path fill="none" stroke="#c0c0c0" stroke-width="2" d="M703.3269,-143.8314C724.279,-134.0988 750.2389,-122.04 772.2741,-111.8043"/>
<polygon fill="#c0c0c0" stroke="#c0c0c0" stroke-width="2" points="773.8567,-114.9284 781.4515,-107.5412 770.9077,-108.5799 773.8567,-114.9284"/>
</g>
<!-- 56&#45;&gt;55 -->
<g id="edge68" class="edge">
<title>56&#45;&gt;55</title>
<path fill="none" stroke="#c0c0c0" stroke-width="2" d="M664.2139,-215.8314C664.2139,-208.131 664.2139,-198.9743 664.2139,-190.4166"/>
<polygon fill="#c0c0c0" stroke="#c0c0c0" stroke-width="2" points="667.714,-190.4132 664.2139,-180.4133 660.714,-190.4133 667.714,-190.4132"/>
</g>
<!-- 57&#45;&gt;20 -->
<g id="edge27" class="edge">
<title>57&#45;&gt;20</title>
<path fill="none" stroke="#c0c0c0" stroke-width="2" d="M1886.2888,-503.8314C1889.824,-495.8771 1894.0499,-486.369 1897.9595,-477.5723"/>
<polygon fill="#c0c0c0" stroke="#c0c0c0" stroke-width="2" points="1901.1671,-478.9729 1902.0302,-468.4133 1894.7704,-476.1299 1901.1671,-478.9729"/>
</g>
<!-- 57&#45;&gt;22 -->
<g id="edge30" class="edge">
<title>57&#45;&gt;22</title>
<path fill="none" stroke="#c0c0c0" stroke-width="2" d="M1873.0463,-503.6487C1870.3124,-493.2663 1867.1332,-479.9974 1865.2139,-468 1853.4318,-394.3512 1848.7855,-306.4285 1847.0936,-262.2697"/>
<polygon fill="#c0c0c0" stroke="#c0c0c0" stroke-width="2" points="1850.5823,-261.8887 1846.7246,-252.0211 1843.5868,-262.1406 1850.5823,-261.8887"/>
</g>
<!-- 58&#45;&gt;41 -->
<g id="edge51" class="edge">
<title>58&#45;&gt;41</title>
<path fill="none" stroke="#c0c0c0" stroke-width="2" d="M1020.6442,-143.8314C1029.9458,-135.1337 1041.2343,-124.5783 1051.3424,-115.1265"/>
<polygon fill="#c0c0c0" stroke="#c0c0c0" stroke-width="2" points="1053.876,-117.5493 1058.7897,-108.1628 1049.095,-112.4363 1053.876,-117.5493"/>
</g>
<!-- 59&#45;&gt;4 -->
<g id="edge7" class="edge">
<title>59&#45;&gt;4</title>
<path fill="none" stroke="#c0c0c0" stroke-width="2" d="M1156.2139,-215.8314C1156.2139,-208.131 1156.2139,-198.9743 1156.2139,-190.4166"/>
<polygon fill="#c0c0c0" stroke="#c0c0c0" stroke-width="2" points="1159.714,-190.4132 1156.2139,-180.4133 1152.714,-190.4133 1159.714,-190.4132"/>
</g>
<!-- 60&#45;&gt;2 -->
<g id="edge4" class="edge">
<title>60&#45;&gt;2</title>
<path fill="none" stroke="#c0c0c0" stroke-width="2" d="M1067.5693,-431.8314C1072.6465,-423.7079 1078.7365,-413.9637 1084.3315,-405.0118"/>
<polygon fill="#c0c0c0" stroke="#c0c0c0" stroke-width="2" points="1087.3735,-406.7483 1089.7056,-396.4133 1081.4375,-403.0383 1087.3735,-406.7483"/>
</g>
<!-- 61&#45;&gt;11 -->
<g id="edge15" class="edge">
<title>61&#45;&gt;11</title>
<path fill="none" stroke="#c0c0c0" stroke-width="2" d="M139.0857,-503.6112C140.9376,-473.1289 146.4757,-410.4873 162.2139,-360 173.4082,-324.0889 193.6298,-285.6965 207.9311,-260.8581"/>
<polygon fill="#c0c0c0" stroke="#c0c0c0" stroke-width="2" points="211.0637,-262.4346 213.0912,-252.0355 205.0213,-258.9005 211.0637,-262.4346"/>
</g>
<!-- 61&#45;&gt;19 -->
<g id="edge26" class="edge">
<title>61&#45;&gt;19</title>
<path fill="none" stroke="#c0c0c0" stroke-width="2" d="M154.3638,-503.8314C161.8855,-495.3694 170.9704,-485.1489 179.1942,-475.8971"/>
<polygon fill="#c0c0c0" stroke="#c0c0c0" stroke-width="2" points="181.8188,-478.2127 185.8465,-468.4133 176.5869,-473.5621 181.8188,-478.2127"/>
</g>
<!-- 62&#45;&gt;11 -->
<g id="edge16" class="edge">
<title>62&#45;&gt;11</title>
<path fill="none" stroke="#c0c0c0" stroke-width="2" d="M241.41,-287.8314C238.9231,-280.0463 235.9608,-270.7729 233.2014,-262.1347"/>
<polygon fill="#c0c0c0" stroke="#c0c0c0" stroke-width="2" points="236.4729,-260.874 230.0959,-252.4133 229.8049,-263.0041 236.4729,-260.874"/>
</g>
<!-- 62&#45;&gt;13 -->
<g id="edge18" class="edge">
<title>62&#45;&gt;13</title>
<path fill="none" stroke="#c0c0c0" stroke-width="2" d="M274.7192,-287.8314C288.5318,-278.7074 305.4395,-267.539 320.2668,-257.7449"/>
<polygon fill="#c0c0c0" stroke="#c0c0c0" stroke-width="2" points="322.3024,-260.5949 328.7174,-252.1628 318.4443,-254.7541 322.3024,-260.5949"/>
</g>
<!-- 63&#45;&gt;8 -->
<g id="edge12" class="edge">
<title>63&#45;&gt;8</title>
<path fill="none" stroke="#c0c0c0" stroke-width="2" d="M1075.9796,-287.8314C1063.4259,-278.7927 1048.0855,-267.7476 1034.5747,-258.0198"/>
<polygon fill="#c0c0c0" stroke="#c0c0c0" stroke-width="2" points="1036.6005,-255.1655 1026.44,-252.1628 1032.5103,-260.8463 1036.6005,-255.1655"/>
</g>
<!-- 63&#45;&gt;59 -->
<g id="edge73" class="edge">
<title>63&#45;&gt;59</title>
<path fill="none" stroke="#c0c0c0" stroke-width="2" d="M1115.0927,-287.8314C1121.4274,-279.5386 1129.0523,-269.557 1136.0065,-260.4533"/>
<polygon fill="#c0c0c0" stroke="#c0c0c0" stroke-width="2" points="1138.8591,-262.4847 1142.1482,-252.4133 1133.2964,-258.2353 1138.8591,-262.4847"/>
</g>
<!-- 64&#45;&gt;7 -->
<g id="edge10" class="edge">
<title>64&#45;&gt;7</title>
<path fill="none" stroke="#c0c0c0" stroke-width="2" d="M1483.7086,-287.8314C1469.8959,-278.7074 1452.9882,-267.539 1438.1609,-257.7449"/>
<polygon fill="#c0c0c0" stroke="#c0c0c0" stroke-width="2" points="1439.9835,-254.7541 1429.7104,-252.1628 1436.1253,-260.5949 1439.9835,-254.7541"/>
</g>
<!-- 64&#45;&gt;15 -->
<g id="edge21" class="edge">
<title>64&#45;&gt;15</title>
<path fill="none" stroke="#c0c0c0" stroke-width="2" d="M1517.0177,-287.8314C1519.5046,-280.0463 1522.467,-270.7729 1525.2264,-262.1347"/>
<polygon fill="#c0c0c0" stroke="#c0c0c0" stroke-width="2" points="1528.6229,-263.0041 1528.3319,-252.4133 1521.9548,-260.874 1528.6229,-263.0041"/>
</g>
<!-- 65&#45;&gt;50 -->
<g id="edge61" class="edge">
<title>65&#45;&gt;50</title>
<path fill="none" stroke="#c0c0c0" stroke-width="2" d="M721.8585,-431.8314C716.7813,-423.7079 710.6912,-413.9637 705.0962,-405.0118"/>
<polygon fill="#c0c0c0" stroke="#c0c0c0" stroke-width="2" points="707.9902,-403.0383 699.7222,-396.4133 702.0542,-406.7483 707.9902,-403.0383"/>
</g>
</g>
</svg>
