<?xml version="1.0" encoding="UTF-8" standalone="no"?>
<!DOCTYPE svg PUBLIC "-//W3C//DTD SVG 1.1//EN"
 "http://www.w3.org/Graphics/SVG/1.1/DTD/svg11.dtd">
<!-- Generated by graphviz version 2.40.1 (20161225.0304)
 -->
<!-- Title: snakemake_dag Pages: 1 -->
<svg width="3098pt" height="478pt"
 viewBox="0.00 0.00 3098.43 478.00" xmlns="http://www.w3.org/2000/svg" xmlns:xlink="http://www.w3.org/1999/xlink">
<g id="graph0" class="graph" transform="scale(1 1) rotate(0) translate(4 474)">
<title>snakemake_dag</title>
<polygon fill="#ffffff" stroke="transparent" points="-4,4 -4,-474 3094.4277,-474 3094.4277,4 -4,4"/>
<!-- 0 -->
<g id="node1" class="node">
<title>0</title>
<path fill="none" stroke="#d8a456" stroke-width="2" d="M1746.642,-470C1746.642,-470 1565.7857,-470 1565.7857,-470 1559.7857,-470 1553.7857,-464 1553.7857,-458 1553.7857,-458 1553.7857,-444 1553.7857,-444 1553.7857,-438 1559.7857,-432 1565.7857,-432 1565.7857,-432 1746.642,-432 1746.642,-432 1752.642,-432 1758.642,-438 1758.642,-444 1758.642,-444 1758.642,-458 1758.642,-458 1758.642,-464 1752.642,-470 1746.642,-470"/>
<text text-anchor="middle" x="1656.2139" y="-458" font-family="sans" font-size="10.00" fill="#000000">trim_primer_quality</text>
<text text-anchor="middle" x="1656.2139" y="-448" font-family="sans" font-size="10.00" fill="#000000">out_dir: /Users/karthik/hpc_downloads/test</text>
<text text-anchor="middle" x="1656.2139" y="-438" font-family="sans" font-size="10.00" fill="#000000">sample: ZI52b</text>
</g>
<!-- 13 -->
<g id="node14" class="node">
<title>13</title>
<path fill="none" stroke="#56d87b" stroke-width="2" d="M1649.1348,-252C1649.1348,-252 1593.2929,-252 1593.2929,-252 1587.2929,-252 1581.2929,-246 1581.2929,-240 1581.2929,-240 1581.2929,-228 1581.2929,-228 1581.2929,-222 1587.2929,-216 1593.2929,-216 1593.2929,-216 1649.1348,-216 1649.1348,-216 1655.1348,-216 1661.1348,-222 1661.1348,-228 1661.1348,-228 1661.1348,-240 1661.1348,-240 1661.1348,-246 1655.1348,-252 1649.1348,-252"/>
<text text-anchor="middle" x="1621.2139" y="-236" font-family="sans" font-size="10.00" fill="#000000">remove_reads</text>
<text text-anchor="middle" x="1621.2139" y="-226" font-family="sans" font-size="10.00" fill="#000000">rep: b</text>
</g>
<!-- 0&#45;&gt;13 -->
<g id="edge16" class="edge">
<title>0&#45;&gt;13</title>
<path fill="none" stroke="#c0c0c0" stroke-width="2" d="M1653.1079,-431.7427C1646.9125,-393.3314 1632.9947,-307.0412 1625.7661,-262.2241"/>
<polygon fill="#c0c0c0" stroke="#c0c0c0" stroke-width="2" points="1629.2118,-261.606 1624.164,-252.291 1622.3011,-262.7207 1629.2118,-261.606"/>
</g>
<!-- 32 -->
<g id="node33" class="node">
<title>32</title>
<path fill="none" stroke="#d85656" stroke-width="2" d="M1613.7961,-396C1613.7961,-396 1566.6316,-396 1566.6316,-396 1560.6316,-396 1554.6316,-390 1554.6316,-384 1554.6316,-384 1554.6316,-372 1554.6316,-372 1554.6316,-366 1560.6316,-360 1566.6316,-360 1566.6316,-360 1613.7961,-360 1613.7961,-360 1619.7961,-360 1625.7961,-366 1625.7961,-372 1625.7961,-372 1625.7961,-384 1625.7961,-384 1625.7961,-390 1619.7961,-396 1613.7961,-396"/>
<text text-anchor="middle" x="1590.2139" y="-375" font-family="sans" font-size="10.00" fill="#000000">call_variants</text>
</g>
<!-- 0&#45;&gt;32 -->
<g id="edge36" class="edge">
<title>0&#45;&gt;32</title>
<path fill="none" stroke="#c0c0c0" stroke-width="2" d="M1638.8731,-431.8201C1631.1153,-423.2394 1621.8543,-412.9962 1613.5039,-403.7601"/>
<polygon fill="#c0c0c0" stroke="#c0c0c0" stroke-width="2" points="1616.0594,-401.3679 1606.7567,-396.2973 1610.8669,-406.0624 1616.0594,-401.3679"/>
</g>
<!-- 1 -->
<g id="node2" class="node">
<title>1</title>
<path fill="none" stroke="#d85656" stroke-width="2" d="M1080.7961,-396C1080.7961,-396 1033.6316,-396 1033.6316,-396 1027.6316,-396 1021.6316,-390 1021.6316,-384 1021.6316,-384 1021.6316,-372 1021.6316,-372 1021.6316,-366 1027.6316,-360 1033.6316,-360 1033.6316,-360 1080.7961,-360 1080.7961,-360 1086.7961,-360 1092.7961,-366 1092.7961,-372 1092.7961,-372 1092.7961,-384 1092.7961,-384 1092.7961,-390 1086.7961,-396 1080.7961,-396"/>
<text text-anchor="middle" x="1057.2139" y="-375" font-family="sans" font-size="10.00" fill="#000000">call_variants</text>
</g>
<!-- 58 -->
<g id="node59" class="node">
<title>58</title>
<path fill="none" stroke="#56d8c9" stroke-width="2" d="M1127.0169,-324C1127.0169,-324 1077.4109,-324 1077.4109,-324 1071.4109,-324 1065.4109,-318 1065.4109,-312 1065.4109,-312 1065.4109,-300 1065.4109,-300 1065.4109,-294 1071.4109,-288 1077.4109,-288 1077.4109,-288 1127.0169,-288 1127.0169,-288 1133.0169,-288 1139.0169,-294 1139.0169,-300 1139.0169,-300 1139.0169,-312 1139.0169,-312 1139.0169,-318 1133.0169,-324 1127.0169,-324"/>
<text text-anchor="middle" x="1102.2139" y="-308" font-family="sans" font-size="10.00" fill="#000000">get_masked</text>
<text text-anchor="middle" x="1102.2139" y="-298" font-family="sans" font-size="10.00" fill="#000000">sample: ZI50</text>
</g>
<!-- 1&#45;&gt;58 -->
<g id="edge74" class="edge">
<title>1&#45;&gt;58</title>
<path fill="none" stroke="#c0c0c0" stroke-width="2" d="M1068.5693,-359.8314C1073.6465,-351.7079 1079.7365,-341.9637 1085.3315,-333.0118"/>
<polygon fill="#c0c0c0" stroke="#c0c0c0" stroke-width="2" points="1088.3735,-334.7483 1090.7056,-324.4133 1082.4375,-331.0383 1088.3735,-334.7483"/>
</g>
<!-- 2 -->
<g id="node3" class="node">
<title>2</title>
<path fill="none" stroke="#56d87b" stroke-width="2" d="M2794.1348,-252C2794.1348,-252 2738.2929,-252 2738.2929,-252 2732.2929,-252 2726.2929,-246 2726.2929,-240 2726.2929,-240 2726.2929,-228 2726.2929,-228 2726.2929,-222 2732.2929,-216 2738.2929,-216 2738.2929,-216 2794.1348,-216 2794.1348,-216 2800.1348,-216 2806.1348,-222 2806.1348,-228 2806.1348,-228 2806.1348,-240 2806.1348,-240 2806.1348,-246 2800.1348,-252 2794.1348,-252"/>
<text text-anchor="middle" x="2766.2139" y="-236" font-family="sans" font-size="10.00" fill="#000000">remove_reads</text>
<text text-anchor="middle" x="2766.2139" y="-226" font-family="sans" font-size="10.00" fill="#000000">rep: b</text>
</g>
<!-- 17 -->
<g id="node18" class="node">
<title>17</title>
<path fill="none" stroke="#c6d856" stroke-width="2" d="M2792.8859,-180C2792.8859,-180 2679.5419,-180 2679.5419,-180 2673.5419,-180 2667.5419,-174 2667.5419,-168 2667.5419,-168 2667.5419,-156 2667.5419,-156 2667.5419,-150 2673.5419,-144 2679.5419,-144 2679.5419,-144 2792.8859,-144 2792.8859,-144 2798.8859,-144 2804.8859,-150 2804.8859,-156 2804.8859,-156 2804.8859,-168 2804.8859,-168 2804.8859,-174 2798.8859,-180 2792.8859,-180"/>
<text text-anchor="middle" x="2736.2139" y="-159" font-family="sans" font-size="10.00" fill="#000000">call_variants_post_removal</text>
</g>
<!-- 2&#45;&gt;17 -->
<g id="edge21" class="edge">
<title>2&#45;&gt;17</title>
<path fill="none" stroke="#c0c0c0" stroke-width="2" d="M2758.6436,-215.8314C2755.3646,-207.9617 2751.4518,-198.5712 2747.8194,-189.8533"/>
<polygon fill="#c0c0c0" stroke="#c0c0c0" stroke-width="2" points="2750.963,-188.2979 2743.8861,-180.4133 2744.5015,-190.9902 2750.963,-188.2979"/>
</g>
<!-- 3 -->
<g id="node4" class="node">
<title>3</title>
<path fill="none" stroke="#78d856" stroke-width="2" d="M379.1831,-108C379.1831,-108 327.2446,-108 327.2446,-108 321.2446,-108 315.2446,-102 315.2446,-96 315.2446,-96 315.2446,-84 315.2446,-84 315.2446,-78 321.2446,-72 327.2446,-72 327.2446,-72 379.1831,-72 379.1831,-72 385.1831,-72 391.1831,-78 391.1831,-84 391.1831,-84 391.1831,-96 391.1831,-96 391.1831,-102 385.1831,-108 379.1831,-108"/>
<text text-anchor="middle" x="353.2139" y="-87" font-family="sans" font-size="10.00" fill="#000000">filter_variants</text>
</g>
<!-- 48 -->
<g id="node49" class="node">
<title>48</title>
<path fill="none" stroke="#56a2d8" stroke-width="2" d="M1558.2139,-36C1558.2139,-36 1528.2139,-36 1528.2139,-36 1522.2139,-36 1516.2139,-30 1516.2139,-24 1516.2139,-24 1516.2139,-12 1516.2139,-12 1516.2139,-6 1522.2139,0 1528.2139,0 1528.2139,0 1558.2139,0 1558.2139,0 1564.2139,0 1570.2139,-6 1570.2139,-12 1570.2139,-12 1570.2139,-24 1570.2139,-24 1570.2139,-30 1564.2139,-36 1558.2139,-36"/>
<text text-anchor="middle" x="1543.2139" y="-15" font-family="sans" font-size="10.00" fill="#000000">all</text>
</g>
<!-- 3&#45;&gt;48 -->
<g id="edge59" class="edge">
<title>3&#45;&gt;48</title>
<path fill="none" stroke="#c0c0c0" stroke-width="2" d="M391.1259,-87.7062C570.0364,-76.8813 1328.5951,-30.9853 1505.9966,-20.2518"/>
<polygon fill="#c0c0c0" stroke="#c0c0c0" stroke-width="2" points="1506.3609,-23.7363 1516.1313,-19.6386 1505.9381,-16.749 1506.3609,-23.7363"/>
</g>
<!-- 4 -->
<g id="node5" class="node">
<title>4</title>
<path fill="none" stroke="#d8a456" stroke-width="2" d="M2856.642,-470C2856.642,-470 2675.7857,-470 2675.7857,-470 2669.7857,-470 2663.7857,-464 2663.7857,-458 2663.7857,-458 2663.7857,-444 2663.7857,-444 2663.7857,-438 2669.7857,-432 2675.7857,-432 2675.7857,-432 2856.642,-432 2856.642,-432 2862.642,-432 2868.642,-438 2868.642,-444 2868.642,-444 2868.642,-458 2868.642,-458 2868.642,-464 2862.642,-470 2856.642,-470"/>
<text text-anchor="middle" x="2766.2139" y="-458" font-family="sans" font-size="10.00" fill="#000000">trim_primer_quality</text>
<text text-anchor="middle" x="2766.2139" y="-448" font-family="sans" font-size="10.00" fill="#000000">out_dir: /Users/karthik/hpc_downloads/test</text>
<text text-anchor="middle" x="2766.2139" y="-438" font-family="sans" font-size="10.00" fill="#000000">sample: ZI27b</text>
</g>
<!-- 4&#45;&gt;2 -->
<g id="edge3" class="edge">
<title>4&#45;&gt;2</title>
<path fill="none" stroke="#c0c0c0" stroke-width="2" d="M2766.2139,-431.7427C2766.2139,-393.4125 2766.2139,-307.4051 2766.2139,-262.5083"/>
<polygon fill="#c0c0c0" stroke="#c0c0c0" stroke-width="2" points="2769.714,-262.2909 2766.2139,-252.291 2762.714,-262.291 2769.714,-262.2909"/>
</g>
<!-- 29 -->
<g id="node30" class="node">
<title>29</title>
<path fill="none" stroke="#d85656" stroke-width="2" d="M2855.7961,-396C2855.7961,-396 2808.6316,-396 2808.6316,-396 2802.6316,-396 2796.6316,-390 2796.6316,-384 2796.6316,-384 2796.6316,-372 2796.6316,-372 2796.6316,-366 2802.6316,-360 2808.6316,-360 2808.6316,-360 2855.7961,-360 2855.7961,-360 2861.7961,-360 2867.7961,-366 2867.7961,-372 2867.7961,-372 2867.7961,-384 2867.7961,-384 2867.7961,-390 2861.7961,-396 2855.7961,-396"/>
<text text-anchor="middle" x="2832.2139" y="-375" font-family="sans" font-size="10.00" fill="#000000">call_variants</text>
</g>
<!-- 4&#45;&gt;29 -->
<g id="edge34" class="edge">
<title>4&#45;&gt;29</title>
<path fill="none" stroke="#c0c0c0" stroke-width="2" d="M2783.5546,-431.8201C2791.3125,-423.2394 2800.5735,-412.9962 2808.9239,-403.7601"/>
<polygon fill="#c0c0c0" stroke="#c0c0c0" stroke-width="2" points="2811.5608,-406.0624 2815.6711,-396.2973 2806.3683,-401.3679 2811.5608,-406.0624"/>
</g>
<!-- 5 -->
<g id="node6" class="node">
<title>5</title>
<path fill="none" stroke="#56d87b" stroke-width="2" d="M2033.1348,-252C2033.1348,-252 1977.2929,-252 1977.2929,-252 1971.2929,-252 1965.2929,-246 1965.2929,-240 1965.2929,-240 1965.2929,-228 1965.2929,-228 1965.2929,-222 1971.2929,-216 1977.2929,-216 1977.2929,-216 2033.1348,-216 2033.1348,-216 2039.1348,-216 2045.1348,-222 2045.1348,-228 2045.1348,-228 2045.1348,-240 2045.1348,-240 2045.1348,-246 2039.1348,-252 2033.1348,-252"/>
<text text-anchor="middle" x="2005.2139" y="-236" font-family="sans" font-size="10.00" fill="#000000">remove_reads</text>
<text text-anchor="middle" x="2005.2139" y="-226" font-family="sans" font-size="10.00" fill="#000000">rep: a</text>
</g>
<!-- 31 -->
<g id="node32" class="node">
<title>31</title>
<path fill="none" stroke="#c6d856" stroke-width="2" d="M2061.8859,-180C2061.8859,-180 1948.5419,-180 1948.5419,-180 1942.5419,-180 1936.5419,-174 1936.5419,-168 1936.5419,-168 1936.5419,-156 1936.5419,-156 1936.5419,-150 1942.5419,-144 1948.5419,-144 1948.5419,-144 2061.8859,-144 2061.8859,-144 2067.8859,-144 2073.8859,-150 2073.8859,-156 2073.8859,-156 2073.8859,-168 2073.8859,-168 2073.8859,-174 2067.8859,-180 2061.8859,-180"/>
<text text-anchor="middle" x="2005.2139" y="-159" font-family="sans" font-size="10.00" fill="#000000">call_variants_post_removal</text>
</g>
<!-- 5&#45;&gt;31 -->
<g id="edge35" class="edge">
<title>5&#45;&gt;31</title>
<path fill="none" stroke="#c0c0c0" stroke-width="2" d="M2005.2139,-215.8314C2005.2139,-208.131 2005.2139,-198.9743 2005.2139,-190.4166"/>
<polygon fill="#c0c0c0" stroke="#c0c0c0" stroke-width="2" points="2008.714,-190.4132 2005.2139,-180.4133 2001.714,-190.4133 2008.714,-190.4132"/>
</g>
<!-- 6 -->
<g id="node7" class="node">
<title>6</title>
<path fill="none" stroke="#c6d856" stroke-width="2" d="M409.8859,-180C409.8859,-180 296.5419,-180 296.5419,-180 290.5419,-180 284.5419,-174 284.5419,-168 284.5419,-168 284.5419,-156 284.5419,-156 284.5419,-150 290.5419,-144 296.5419,-144 296.5419,-144 409.8859,-144 409.8859,-144 415.8859,-144 421.8859,-150 421.8859,-156 421.8859,-156 421.8859,-168 421.8859,-168 421.8859,-174 415.8859,-180 409.8859,-180"/>
<text text-anchor="middle" x="353.2139" y="-159" font-family="sans" font-size="10.00" fill="#000000">call_variants_post_removal</text>
</g>
<!-- 6&#45;&gt;3 -->
<g id="edge4" class="edge">
<title>6&#45;&gt;3</title>
<path fill="none" stroke="#c0c0c0" stroke-width="2" d="M353.2139,-143.8314C353.2139,-136.131 353.2139,-126.9743 353.2139,-118.4166"/>
<polygon fill="#c0c0c0" stroke="#c0c0c0" stroke-width="2" points="356.714,-118.4132 353.2139,-108.4133 349.714,-118.4133 356.714,-118.4132"/>
</g>
<!-- 7 -->
<g id="node8" class="node">
<title>7</title>
<path fill="none" stroke="#c6d856" stroke-width="2" d="M1677.8859,-180C1677.8859,-180 1564.5419,-180 1564.5419,-180 1558.5419,-180 1552.5419,-174 1552.5419,-168 1552.5419,-168 1552.5419,-156 1552.5419,-156 1552.5419,-150 1558.5419,-144 1564.5419,-144 1564.5419,-144 1677.8859,-144 1677.8859,-144 1683.8859,-144 1689.8859,-150 1689.8859,-156 1689.8859,-156 1689.8859,-168 1689.8859,-168 1689.8859,-174 1683.8859,-180 1677.8859,-180"/>
<text text-anchor="middle" x="1621.2139" y="-159" font-family="sans" font-size="10.00" fill="#000000">call_variants_post_removal</text>
</g>
<!-- 59 -->
<g id="node60" class="node">
<title>59</title>
<path fill="none" stroke="#78d856" stroke-width="2" d="M1569.1831,-108C1569.1831,-108 1517.2446,-108 1517.2446,-108 1511.2446,-108 1505.2446,-102 1505.2446,-96 1505.2446,-96 1505.2446,-84 1505.2446,-84 1505.2446,-78 1511.2446,-72 1517.2446,-72 1517.2446,-72 1569.1831,-72 1569.1831,-72 1575.1831,-72 1581.1831,-78 1581.1831,-84 1581.1831,-84 1581.1831,-96 1581.1831,-96 1581.1831,-102 1575.1831,-108 1569.1831,-108"/>
<text text-anchor="middle" x="1543.2139" y="-87" font-family="sans" font-size="10.00" fill="#000000">filter_variants</text>
</g>
<!-- 7&#45;&gt;59 -->
<g id="edge76" class="edge">
<title>7&#45;&gt;59</title>
<path fill="none" stroke="#c0c0c0" stroke-width="2" d="M1601.5312,-143.8314C1592.1088,-135.1337 1580.6737,-124.5783 1570.4343,-115.1265"/>
<polygon fill="#c0c0c0" stroke="#c0c0c0" stroke-width="2" points="1572.6123,-112.3738 1562.8903,-108.1628 1567.8643,-117.5175 1572.6123,-112.3738"/>
</g>
<!-- 8 -->
<g id="node9" class="node">
<title>8</title>
<path fill="none" stroke="#d8a456" stroke-width="2" d="M858.642,-470C858.642,-470 677.7857,-470 677.7857,-470 671.7857,-470 665.7857,-464 665.7857,-458 665.7857,-458 665.7857,-444 665.7857,-444 665.7857,-438 671.7857,-432 677.7857,-432 677.7857,-432 858.642,-432 858.642,-432 864.642,-432 870.642,-438 870.642,-444 870.642,-444 870.642,-458 870.642,-458 870.642,-464 864.642,-470 858.642,-470"/>
<text text-anchor="middle" x="768.2139" y="-458" font-family="sans" font-size="10.00" fill="#000000">trim_primer_quality</text>
<text text-anchor="middle" x="768.2139" y="-448" font-family="sans" font-size="10.00" fill="#000000">out_dir: /Users/karthik/hpc_downloads/test</text>
<text text-anchor="middle" x="768.2139" y="-438" font-family="sans" font-size="10.00" fill="#000000">sample: ZI26a</text>
</g>
<!-- 33 -->
<g id="node34" class="node">
<title>33</title>
<path fill="none" stroke="#56d87b" stroke-width="2" d="M796.1348,-252C796.1348,-252 740.2929,-252 740.2929,-252 734.2929,-252 728.2929,-246 728.2929,-240 728.2929,-240 728.2929,-228 728.2929,-228 728.2929,-222 734.2929,-216 740.2929,-216 740.2929,-216 796.1348,-216 796.1348,-216 802.1348,-216 808.1348,-222 808.1348,-228 808.1348,-228 808.1348,-240 808.1348,-240 808.1348,-246 802.1348,-252 796.1348,-252"/>
<text text-anchor="middle" x="768.2139" y="-236" font-family="sans" font-size="10.00" fill="#000000">remove_reads</text>
<text text-anchor="middle" x="768.2139" y="-226" font-family="sans" font-size="10.00" fill="#000000">rep: a</text>
</g>
<!-- 8&#45;&gt;33 -->
<g id="edge37" class="edge">
<title>8&#45;&gt;33</title>
<path fill="none" stroke="#c0c0c0" stroke-width="2" d="M768.2139,-431.7427C768.2139,-393.4125 768.2139,-307.4051 768.2139,-262.5083"/>
<polygon fill="#c0c0c0" stroke="#c0c0c0" stroke-width="2" points="771.714,-262.2909 768.2139,-252.291 764.714,-262.291 771.714,-262.2909"/>
</g>
<!-- 51 -->
<g id="node52" class="node">
<title>51</title>
<path fill="none" stroke="#d85656" stroke-width="2" d="M727.7961,-396C727.7961,-396 680.6316,-396 680.6316,-396 674.6316,-396 668.6316,-390 668.6316,-384 668.6316,-384 668.6316,-372 668.6316,-372 668.6316,-366 674.6316,-360 680.6316,-360 680.6316,-360 727.7961,-360 727.7961,-360 733.7961,-360 739.7961,-366 739.7961,-372 739.7961,-372 739.7961,-384 739.7961,-384 739.7961,-390 733.7961,-396 727.7961,-396"/>
<text text-anchor="middle" x="704.2139" y="-375" font-family="sans" font-size="10.00" fill="#000000">call_variants</text>
</g>
<!-- 8&#45;&gt;51 -->
<g id="edge67" class="edge">
<title>8&#45;&gt;51</title>
<path fill="none" stroke="#c0c0c0" stroke-width="2" d="M751.3986,-431.8201C743.951,-423.3252 735.0749,-413.2009 727.0413,-404.0375"/>
<polygon fill="#c0c0c0" stroke="#c0c0c0" stroke-width="2" points="729.4795,-401.5094 720.2554,-396.2973 724.2159,-406.1241 729.4795,-401.5094"/>
</g>
<!-- 9 -->
<g id="node10" class="node">
<title>9</title>
<path fill="none" stroke="#56d8c9" stroke-width="2" d="M638.0169,-324C638.0169,-324 588.4109,-324 588.4109,-324 582.4109,-324 576.4109,-318 576.4109,-312 576.4109,-312 576.4109,-300 576.4109,-300 576.4109,-294 582.4109,-288 588.4109,-288 588.4109,-288 638.0169,-288 638.0169,-288 644.0169,-288 650.0169,-294 650.0169,-300 650.0169,-300 650.0169,-312 650.0169,-312 650.0169,-318 644.0169,-324 638.0169,-324"/>
<text text-anchor="middle" x="613.2139" y="-308" font-family="sans" font-size="10.00" fill="#000000">get_masked</text>
<text text-anchor="middle" x="613.2139" y="-298" font-family="sans" font-size="10.00" fill="#000000">sample: ZI26</text>
</g>
<!-- 9&#45;&gt;33 -->
<g id="edge38" class="edge">
<title>9&#45;&gt;33</title>
<path fill="none" stroke="#c0c0c0" stroke-width="2" d="M650.3402,-288.7542C671.1856,-279.0712 697.4376,-266.8767 719.8729,-256.4552"/>
<polygon fill="#c0c0c0" stroke="#c0c0c0" stroke-width="2" points="721.6327,-259.497 729.2275,-252.1098 718.6837,-253.1484 721.6327,-259.497"/>
</g>
<!-- 46 -->
<g id="node47" class="node">
<title>46</title>
<path fill="none" stroke="#56d87b" stroke-width="2" d="M641.1348,-252C641.1348,-252 585.2929,-252 585.2929,-252 579.2929,-252 573.2929,-246 573.2929,-240 573.2929,-240 573.2929,-228 573.2929,-228 573.2929,-222 579.2929,-216 585.2929,-216 585.2929,-216 641.1348,-216 641.1348,-216 647.1348,-216 653.1348,-222 653.1348,-228 653.1348,-228 653.1348,-240 653.1348,-240 653.1348,-246 647.1348,-252 641.1348,-252"/>
<text text-anchor="middle" x="613.2139" y="-236" font-family="sans" font-size="10.00" fill="#000000">remove_reads</text>
<text text-anchor="middle" x="613.2139" y="-226" font-family="sans" font-size="10.00" fill="#000000">rep: b</text>
</g>
<!-- 9&#45;&gt;46 -->
<g id="edge55" class="edge">
<title>9&#45;&gt;46</title>
<path fill="none" stroke="#c0c0c0" stroke-width="2" d="M613.2139,-287.8314C613.2139,-280.131 613.2139,-270.9743 613.2139,-262.4166"/>
<polygon fill="#c0c0c0" stroke="#c0c0c0" stroke-width="2" points="616.714,-262.4132 613.2139,-252.4133 609.714,-262.4133 616.714,-262.4132"/>
</g>
<!-- 10 -->
<g id="node11" class="node">
<title>10</title>
<path fill="none" stroke="#d85656" stroke-width="2" d="M2501.7961,-396C2501.7961,-396 2454.6316,-396 2454.6316,-396 2448.6316,-396 2442.6316,-390 2442.6316,-384 2442.6316,-384 2442.6316,-372 2442.6316,-372 2442.6316,-366 2448.6316,-360 2454.6316,-360 2454.6316,-360 2501.7961,-360 2501.7961,-360 2507.7961,-360 2513.7961,-366 2513.7961,-372 2513.7961,-372 2513.7961,-384 2513.7961,-384 2513.7961,-390 2507.7961,-396 2501.7961,-396"/>
<text text-anchor="middle" x="2478.2139" y="-375" font-family="sans" font-size="10.00" fill="#000000">call_variants</text>
</g>
<!-- 36 -->
<g id="node37" class="node">
<title>36</title>
<path fill="none" stroke="#56d8c9" stroke-width="2" d="M2457.0169,-324C2457.0169,-324 2407.4109,-324 2407.4109,-324 2401.4109,-324 2395.4109,-318 2395.4109,-312 2395.4109,-312 2395.4109,-300 2395.4109,-300 2395.4109,-294 2401.4109,-288 2407.4109,-288 2407.4109,-288 2457.0169,-288 2457.0169,-288 2463.0169,-288 2469.0169,-294 2469.0169,-300 2469.0169,-300 2469.0169,-312 2469.0169,-312 2469.0169,-318 2463.0169,-324 2457.0169,-324"/>
<text text-anchor="middle" x="2432.2139" y="-308" font-family="sans" font-size="10.00" fill="#000000">get_masked</text>
<text text-anchor="middle" x="2432.2139" y="-298" font-family="sans" font-size="10.00" fill="#000000">sample: ZI53</text>
</g>
<!-- 10&#45;&gt;36 -->
<g id="edge42" class="edge">
<title>10&#45;&gt;36</title>
<path fill="none" stroke="#c0c0c0" stroke-width="2" d="M2466.6061,-359.8314C2461.4161,-351.7079 2455.1907,-341.9637 2449.4714,-333.0118"/>
<polygon fill="#c0c0c0" stroke="#c0c0c0" stroke-width="2" points="2452.3113,-330.9559 2443.9779,-324.4133 2446.4124,-334.7246 2452.3113,-330.9559"/>
</g>
<!-- 11 -->
<g id="node12" class="node">
<title>11</title>
<path fill="none" stroke="#d85656" stroke-width="2" d="M1967.7961,-396C1967.7961,-396 1920.6316,-396 1920.6316,-396 1914.6316,-396 1908.6316,-390 1908.6316,-384 1908.6316,-384 1908.6316,-372 1908.6316,-372 1908.6316,-366 1914.6316,-360 1920.6316,-360 1920.6316,-360 1967.7961,-360 1967.7961,-360 1973.7961,-360 1979.7961,-366 1979.7961,-372 1979.7961,-372 1979.7961,-384 1979.7961,-384 1979.7961,-390 1973.7961,-396 1967.7961,-396"/>
<text text-anchor="middle" x="1944.2139" y="-375" font-family="sans" font-size="10.00" fill="#000000">call_variants</text>
</g>
<!-- 65 -->
<g id="node66" class="node">
<title>65</title>
<path fill="none" stroke="#56d8c9" stroke-width="2" d="M1999.0169,-324C1999.0169,-324 1949.4109,-324 1949.4109,-324 1943.4109,-324 1937.4109,-318 1937.4109,-312 1937.4109,-312 1937.4109,-300 1937.4109,-300 1937.4109,-294 1943.4109,-288 1949.4109,-288 1949.4109,-288 1999.0169,-288 1999.0169,-288 2005.0169,-288 2011.0169,-294 2011.0169,-300 2011.0169,-300 2011.0169,-312 2011.0169,-312 2011.0169,-318 2005.0169,-324 1999.0169,-324"/>
<text text-anchor="middle" x="1974.2139" y="-308" font-family="sans" font-size="10.00" fill="#000000">get_masked</text>
<text text-anchor="middle" x="1974.2139" y="-298" font-family="sans" font-size="10.00" fill="#000000">sample: ZI51</text>
</g>
<!-- 11&#45;&gt;65 -->
<g id="edge83" class="edge">
<title>11&#45;&gt;65</title>
<path fill="none" stroke="#c0c0c0" stroke-width="2" d="M1951.7841,-359.8314C1955.0632,-351.9617 1958.9759,-342.5712 1962.6083,-333.8533"/>
<polygon fill="#c0c0c0" stroke="#c0c0c0" stroke-width="2" points="1965.9262,-334.9902 1966.5417,-324.4133 1959.4647,-332.2979 1965.9262,-334.9902"/>
</g>
<!-- 12 -->
<g id="node13" class="node">
<title>12</title>
<path fill="none" stroke="#56d87b" stroke-width="2" d="M352.1348,-252C352.1348,-252 296.2929,-252 296.2929,-252 290.2929,-252 284.2929,-246 284.2929,-240 284.2929,-240 284.2929,-228 284.2929,-228 284.2929,-222 290.2929,-216 296.2929,-216 296.2929,-216 352.1348,-216 352.1348,-216 358.1348,-216 364.1348,-222 364.1348,-228 364.1348,-228 364.1348,-240 364.1348,-240 364.1348,-246 358.1348,-252 352.1348,-252"/>
<text text-anchor="middle" x="324.2139" y="-236" font-family="sans" font-size="10.00" fill="#000000">remove_reads</text>
<text text-anchor="middle" x="324.2139" y="-226" font-family="sans" font-size="10.00" fill="#000000">rep: a</text>
</g>
<!-- 12&#45;&gt;6 -->
<g id="edge8" class="edge">
<title>12&#45;&gt;6</title>
<path fill="none" stroke="#c0c0c0" stroke-width="2" d="M331.5318,-215.8314C334.7015,-207.9617 338.4838,-198.5712 341.9952,-189.8533"/>
<polygon fill="#c0c0c0" stroke="#c0c0c0" stroke-width="2" points="345.3078,-190.9968 345.7974,-180.4133 338.8147,-188.3815 345.3078,-190.9968"/>
</g>
<!-- 13&#45;&gt;7 -->
<g id="edge9" class="edge">
<title>13&#45;&gt;7</title>
<path fill="none" stroke="#c0c0c0" stroke-width="2" d="M1621.2139,-215.8314C1621.2139,-208.131 1621.2139,-198.9743 1621.2139,-190.4166"/>
<polygon fill="#c0c0c0" stroke="#c0c0c0" stroke-width="2" points="1624.714,-190.4132 1621.2139,-180.4133 1617.714,-190.4133 1624.714,-190.4132"/>
</g>
<!-- 14 -->
<g id="node15" class="node">
<title>14</title>
<path fill="none" stroke="#d85656" stroke-width="2" d="M283.7961,-396C283.7961,-396 236.6316,-396 236.6316,-396 230.6316,-396 224.6316,-390 224.6316,-384 224.6316,-384 224.6316,-372 224.6316,-372 224.6316,-366 230.6316,-360 236.6316,-360 236.6316,-360 283.7961,-360 283.7961,-360 289.7961,-360 295.7961,-366 295.7961,-372 295.7961,-372 295.7961,-384 295.7961,-384 295.7961,-390 289.7961,-396 283.7961,-396"/>
<text text-anchor="middle" x="260.2139" y="-375" font-family="sans" font-size="10.00" fill="#000000">call_variants</text>
</g>
<!-- 19 -->
<g id="node20" class="node">
<title>19</title>
<path fill="none" stroke="#56d8c9" stroke-width="2" d="M254.0169,-324C254.0169,-324 204.4109,-324 204.4109,-324 198.4109,-324 192.4109,-318 192.4109,-312 192.4109,-312 192.4109,-300 192.4109,-300 192.4109,-294 198.4109,-288 204.4109,-288 204.4109,-288 254.0169,-288 254.0169,-288 260.0169,-288 266.0169,-294 266.0169,-300 266.0169,-300 266.0169,-312 266.0169,-312 266.0169,-318 260.0169,-324 254.0169,-324"/>
<text text-anchor="middle" x="229.2139" y="-308" font-family="sans" font-size="10.00" fill="#000000">get_masked</text>
<text text-anchor="middle" x="229.2139" y="-298" font-family="sans" font-size="10.00" fill="#000000">sample: ZI49</text>
</g>
<!-- 14&#45;&gt;19 -->
<g id="edge22" class="edge">
<title>14&#45;&gt;19</title>
<path fill="none" stroke="#c0c0c0" stroke-width="2" d="M252.3913,-359.8314C249.0029,-351.9617 244.9598,-342.5712 241.2063,-333.8533"/>
<polygon fill="#c0c0c0" stroke="#c0c0c0" stroke-width="2" points="244.3111,-332.214 237.1418,-324.4133 237.8817,-334.9822 244.3111,-332.214"/>
</g>
<!-- 15 -->
<g id="node16" class="node">
<title>15</title>
<path fill="none" stroke="#56d87b" stroke-width="2" d="M1906.1348,-252C1906.1348,-252 1850.2929,-252 1850.2929,-252 1844.2929,-252 1838.2929,-246 1838.2929,-240 1838.2929,-240 1838.2929,-228 1838.2929,-228 1838.2929,-222 1844.2929,-216 1850.2929,-216 1850.2929,-216 1906.1348,-216 1906.1348,-216 1912.1348,-216 1918.1348,-222 1918.1348,-228 1918.1348,-228 1918.1348,-240 1918.1348,-240 1918.1348,-246 1912.1348,-252 1906.1348,-252"/>
<text text-anchor="middle" x="1878.2139" y="-236" font-family="sans" font-size="10.00" fill="#000000">remove_reads</text>
<text text-anchor="middle" x="1878.2139" y="-226" font-family="sans" font-size="10.00" fill="#000000">rep: b</text>
</g>
<!-- 24 -->
<g id="node25" class="node">
<title>24</title>
<path fill="none" stroke="#c6d856" stroke-width="2" d="M1906.8859,-180C1906.8859,-180 1793.5419,-180 1793.5419,-180 1787.5419,-180 1781.5419,-174 1781.5419,-168 1781.5419,-168 1781.5419,-156 1781.5419,-156 1781.5419,-150 1787.5419,-144 1793.5419,-144 1793.5419,-144 1906.8859,-144 1906.8859,-144 1912.8859,-144 1918.8859,-150 1918.8859,-156 1918.8859,-156 1918.8859,-168 1918.8859,-168 1918.8859,-174 1912.8859,-180 1906.8859,-180"/>
<text text-anchor="middle" x="1850.2139" y="-159" font-family="sans" font-size="10.00" fill="#000000">call_variants_post_removal</text>
</g>
<!-- 15&#45;&gt;24 -->
<g id="edge29" class="edge">
<title>15&#45;&gt;24</title>
<path fill="none" stroke="#c0c0c0" stroke-width="2" d="M1871.1483,-215.8314C1868.0879,-207.9617 1864.436,-198.5712 1861.0457,-189.8533"/>
<polygon fill="#c0c0c0" stroke="#c0c0c0" stroke-width="2" points="1864.2611,-188.4647 1857.3746,-180.4133 1857.7371,-191.0019 1864.2611,-188.4647"/>
</g>
<!-- 16 -->
<g id="node17" class="node">
<title>16</title>
<path fill="none" stroke="#d8a456" stroke-width="2" d="M1080.642,-470C1080.642,-470 899.7857,-470 899.7857,-470 893.7857,-470 887.7857,-464 887.7857,-458 887.7857,-458 887.7857,-444 887.7857,-444 887.7857,-438 893.7857,-432 899.7857,-432 899.7857,-432 1080.642,-432 1080.642,-432 1086.642,-432 1092.642,-438 1092.642,-444 1092.642,-444 1092.642,-458 1092.642,-458 1092.642,-464 1086.642,-470 1080.642,-470"/>
<text text-anchor="middle" x="990.2139" y="-458" font-family="sans" font-size="10.00" fill="#000000">trim_primer_quality</text>
<text text-anchor="middle" x="990.2139" y="-448" font-family="sans" font-size="10.00" fill="#000000">out_dir: /Users/karthik/hpc_downloads/test</text>
<text text-anchor="middle" x="990.2139" y="-438" font-family="sans" font-size="10.00" fill="#000000">sample: ZI50b</text>
</g>
<!-- 16&#45;&gt;1 -->
<g id="edge1" class="edge">
<title>16&#45;&gt;1</title>
<path fill="none" stroke="#c0c0c0" stroke-width="2" d="M1007.8173,-431.8201C1015.6928,-423.2394 1025.0941,-412.9962 1033.571,-403.7601"/>
<polygon fill="#c0c0c0" stroke="#c0c0c0" stroke-width="2" points="1036.2372,-406.0314 1040.4204,-396.2973 1031.08,-401.2981 1036.2372,-406.0314"/>
</g>
<!-- 28 -->
<g id="node29" class="node">
<title>28</title>
<path fill="none" stroke="#56d87b" stroke-width="2" d="M1114.1348,-252C1114.1348,-252 1058.2929,-252 1058.2929,-252 1052.2929,-252 1046.2929,-246 1046.2929,-240 1046.2929,-240 1046.2929,-228 1046.2929,-228 1046.2929,-222 1052.2929,-216 1058.2929,-216 1058.2929,-216 1114.1348,-216 1114.1348,-216 1120.1348,-216 1126.1348,-222 1126.1348,-228 1126.1348,-228 1126.1348,-240 1126.1348,-240 1126.1348,-246 1120.1348,-252 1114.1348,-252"/>
<text text-anchor="middle" x="1086.2139" y="-236" font-family="sans" font-size="10.00" fill="#000000">remove_reads</text>
<text text-anchor="middle" x="1086.2139" y="-226" font-family="sans" font-size="10.00" fill="#000000">rep: b</text>
</g>
<!-- 16&#45;&gt;28 -->
<g id="edge33" class="edge">
<title>16&#45;&gt;28</title>
<path fill="none" stroke="#c0c0c0" stroke-width="2" d="M993.1866,-431.6707C996.4655,-412.8929 1002.5901,-383.8095 1012.2139,-360 1026.8616,-323.7608 1050.6834,-285.5012 1067.3301,-260.7807"/>
<polygon fill="#c0c0c0" stroke="#c0c0c0" stroke-width="2" points="1070.3619,-262.5472 1073.1082,-252.3145 1064.5801,-258.6012 1070.3619,-262.5472"/>
</g>
<!-- 70 -->
<g id="node71" class="node">
<title>70</title>
<path fill="none" stroke="#78d856" stroke-width="2" d="M2762.1831,-108C2762.1831,-108 2710.2446,-108 2710.2446,-108 2704.2446,-108 2698.2446,-102 2698.2446,-96 2698.2446,-96 2698.2446,-84 2698.2446,-84 2698.2446,-78 2704.2446,-72 2710.2446,-72 2710.2446,-72 2762.1831,-72 2762.1831,-72 2768.1831,-72 2774.1831,-78 2774.1831,-84 2774.1831,-84 2774.1831,-96 2774.1831,-96 2774.1831,-102 2768.1831,-108 2762.1831,-108"/>
<text text-anchor="middle" x="2736.2139" y="-87" font-family="sans" font-size="10.00" fill="#000000">filter_variants</text>
</g>
<!-- 17&#45;&gt;70 -->
<g id="edge91" class="edge">
<title>17&#45;&gt;70</title>
<path fill="none" stroke="#c0c0c0" stroke-width="2" d="M2736.2139,-143.8314C2736.2139,-136.131 2736.2139,-126.9743 2736.2139,-118.4166"/>
<polygon fill="#c0c0c0" stroke="#c0c0c0" stroke-width="2" points="2739.714,-118.4132 2736.2139,-108.4133 2732.714,-118.4133 2739.714,-118.4132"/>
</g>
<!-- 18 -->
<g id="node19" class="node">
<title>18</title>
<path fill="none" stroke="#d8a456" stroke-width="2" d="M1524.642,-470C1524.642,-470 1343.7857,-470 1343.7857,-470 1337.7857,-470 1331.7857,-464 1331.7857,-458 1331.7857,-458 1331.7857,-444 1331.7857,-444 1331.7857,-438 1337.7857,-432 1343.7857,-432 1343.7857,-432 1524.642,-432 1524.642,-432 1530.642,-432 1536.642,-438 1536.642,-444 1536.642,-444 1536.642,-458 1536.642,-458 1536.642,-464 1530.642,-470 1524.642,-470"/>
<text text-anchor="middle" x="1434.2139" y="-458" font-family="sans" font-size="10.00" fill="#000000">trim_primer_quality</text>
<text text-anchor="middle" x="1434.2139" y="-448" font-family="sans" font-size="10.00" fill="#000000">out_dir: /Users/karthik/hpc_downloads/test</text>
<text text-anchor="middle" x="1434.2139" y="-438" font-family="sans" font-size="10.00" fill="#000000">sample: ZI52a</text>
</g>
<!-- 64 -->
<g id="node65" class="node">
<title>64</title>
<path fill="none" stroke="#d85656" stroke-width="2" d="M1522.7961,-396C1522.7961,-396 1475.6316,-396 1475.6316,-396 1469.6316,-396 1463.6316,-390 1463.6316,-384 1463.6316,-384 1463.6316,-372 1463.6316,-372 1463.6316,-366 1469.6316,-360 1475.6316,-360 1475.6316,-360 1522.7961,-360 1522.7961,-360 1528.7961,-360 1534.7961,-366 1534.7961,-372 1534.7961,-372 1534.7961,-384 1534.7961,-384 1534.7961,-390 1528.7961,-396 1522.7961,-396"/>
<text text-anchor="middle" x="1499.2139" y="-375" font-family="sans" font-size="10.00" fill="#000000">call_variants</text>
</g>
<!-- 18&#45;&gt;64 -->
<g id="edge82" class="edge">
<title>18&#45;&gt;64</title>
<path fill="none" stroke="#c0c0c0" stroke-width="2" d="M1451.2919,-431.8201C1458.8558,-423.3252 1467.8706,-413.2009 1476.0298,-404.0375"/>
<polygon fill="#c0c0c0" stroke="#c0c0c0" stroke-width="2" points="1478.8857,-406.0933 1482.9217,-396.2973 1473.6577,-401.4383 1478.8857,-406.0933"/>
</g>
<!-- 67 -->
<g id="node68" class="node">
<title>67</title>
<path fill="none" stroke="#56d87b" stroke-width="2" d="M1494.1348,-252C1494.1348,-252 1438.2929,-252 1438.2929,-252 1432.2929,-252 1426.2929,-246 1426.2929,-240 1426.2929,-240 1426.2929,-228 1426.2929,-228 1426.2929,-222 1432.2929,-216 1438.2929,-216 1438.2929,-216 1494.1348,-216 1494.1348,-216 1500.1348,-216 1506.1348,-222 1506.1348,-228 1506.1348,-228 1506.1348,-240 1506.1348,-240 1506.1348,-246 1500.1348,-252 1494.1348,-252"/>
<text text-anchor="middle" x="1466.2139" y="-236" font-family="sans" font-size="10.00" fill="#000000">remove_reads</text>
<text text-anchor="middle" x="1466.2139" y="-226" font-family="sans" font-size="10.00" fill="#000000">rep: a</text>
</g>
<!-- 18&#45;&gt;67 -->
<g id="edge86" class="edge">
<title>18&#45;&gt;67</title>
<path fill="none" stroke="#c0c0c0" stroke-width="2" d="M1435.6974,-431.8195C1438.2313,-401.2372 1444.0278,-339.6109 1453.2139,-288 1454.7109,-279.5892 1456.7287,-270.5326 1458.7275,-262.2845"/>
<polygon fill="#c0c0c0" stroke="#c0c0c0" stroke-width="2" points="1462.174,-262.9295 1461.2086,-252.3787 1455.3838,-261.2287 1462.174,-262.9295"/>
</g>
<!-- 19&#45;&gt;12 -->
<g id="edge14" class="edge">
<title>19&#45;&gt;12</title>
<path fill="none" stroke="#c0c0c0" stroke-width="2" d="M253.1864,-287.8314C264.9999,-278.8779 279.411,-267.9558 292.1573,-258.2955"/>
<polygon fill="#c0c0c0" stroke="#c0c0c0" stroke-width="2" points="294.3934,-260.9925 300.249,-252.1628 290.1652,-255.4137 294.3934,-260.9925"/>
</g>
<!-- 53 -->
<g id="node54" class="node">
<title>53</title>
<path fill="none" stroke="#56d87b" stroke-width="2" d="M226.1348,-252C226.1348,-252 170.2929,-252 170.2929,-252 164.2929,-252 158.2929,-246 158.2929,-240 158.2929,-240 158.2929,-228 158.2929,-228 158.2929,-222 164.2929,-216 170.2929,-216 170.2929,-216 226.1348,-216 226.1348,-216 232.1348,-216 238.1348,-222 238.1348,-228 238.1348,-228 238.1348,-240 238.1348,-240 238.1348,-246 232.1348,-252 226.1348,-252"/>
<text text-anchor="middle" x="198.2139" y="-236" font-family="sans" font-size="10.00" fill="#000000">remove_reads</text>
<text text-anchor="middle" x="198.2139" y="-226" font-family="sans" font-size="10.00" fill="#000000">rep: b</text>
</g>
<!-- 19&#45;&gt;53 -->
<g id="edge68" class="edge">
<title>19&#45;&gt;53</title>
<path fill="none" stroke="#c0c0c0" stroke-width="2" d="M221.3913,-287.8314C218.0029,-279.9617 213.9598,-270.5712 210.2063,-261.8533"/>
<polygon fill="#c0c0c0" stroke="#c0c0c0" stroke-width="2" points="213.3111,-260.214 206.1418,-252.4133 206.8817,-262.9822 213.3111,-260.214"/>
</g>
<!-- 20 -->
<g id="node21" class="node">
<title>20</title>
<path fill="none" stroke="#d8a456" stroke-width="2" d="M2190.642,-470C2190.642,-470 2009.7857,-470 2009.7857,-470 2003.7857,-470 1997.7857,-464 1997.7857,-458 1997.7857,-458 1997.7857,-444 1997.7857,-444 1997.7857,-438 2003.7857,-432 2009.7857,-432 2009.7857,-432 2190.642,-432 2190.642,-432 2196.642,-432 2202.642,-438 2202.642,-444 2202.642,-444 2202.642,-458 2202.642,-458 2202.642,-464 2196.642,-470 2190.642,-470"/>
<text text-anchor="middle" x="2100.2139" y="-458" font-family="sans" font-size="10.00" fill="#000000">trim_primer_quality</text>
<text text-anchor="middle" x="2100.2139" y="-448" font-family="sans" font-size="10.00" fill="#000000">out_dir: /Users/karthik/hpc_downloads/test</text>
<text text-anchor="middle" x="2100.2139" y="-438" font-family="sans" font-size="10.00" fill="#000000">sample: ZI51a</text>
</g>
<!-- 20&#45;&gt;5 -->
<g id="edge6" class="edge">
<title>20&#45;&gt;5</title>
<path fill="none" stroke="#c0c0c0" stroke-width="2" d="M2097.5038,-431.6668C2094.4685,-412.8862 2088.6902,-383.8007 2079.2139,-360 2064.7549,-323.6851 2040.8946,-285.4409 2024.1874,-260.7446"/>
<polygon fill="#c0c0c0" stroke="#c0c0c0" stroke-width="2" points="2026.9292,-258.5543 2018.3864,-252.2877 2021.1567,-262.5139 2026.9292,-258.5543"/>
</g>
<!-- 43 -->
<g id="node44" class="node">
<title>43</title>
<path fill="none" stroke="#d85656" stroke-width="2" d="M2057.7961,-396C2057.7961,-396 2010.6316,-396 2010.6316,-396 2004.6316,-396 1998.6316,-390 1998.6316,-384 1998.6316,-384 1998.6316,-372 1998.6316,-372 1998.6316,-366 2004.6316,-360 2010.6316,-360 2010.6316,-360 2057.7961,-360 2057.7961,-360 2063.7961,-360 2069.7961,-366 2069.7961,-372 2069.7961,-372 2069.7961,-384 2069.7961,-384 2069.7961,-390 2063.7961,-396 2057.7961,-396"/>
<text text-anchor="middle" x="2034.2139" y="-375" font-family="sans" font-size="10.00" fill="#000000">call_variants</text>
</g>
<!-- 20&#45;&gt;43 -->
<g id="edge50" class="edge">
<title>20&#45;&gt;43</title>
<path fill="none" stroke="#c0c0c0" stroke-width="2" d="M2082.8731,-431.8201C2075.1153,-423.2394 2065.8543,-412.9962 2057.5039,-403.7601"/>
<polygon fill="#c0c0c0" stroke="#c0c0c0" stroke-width="2" points="2060.0594,-401.3679 2050.7567,-396.2973 2054.8669,-406.0624 2060.0594,-401.3679"/>
</g>
<!-- 21 -->
<g id="node22" class="node">
<title>21</title>
<path fill="none" stroke="#c6d856" stroke-width="2" d="M824.8859,-180C824.8859,-180 711.5419,-180 711.5419,-180 705.5419,-180 699.5419,-174 699.5419,-168 699.5419,-168 699.5419,-156 699.5419,-156 699.5419,-150 705.5419,-144 711.5419,-144 711.5419,-144 824.8859,-144 824.8859,-144 830.8859,-144 836.8859,-150 836.8859,-156 836.8859,-156 836.8859,-168 836.8859,-168 836.8859,-174 830.8859,-180 824.8859,-180"/>
<text text-anchor="middle" x="768.2139" y="-159" font-family="sans" font-size="10.00" fill="#000000">call_variants_post_removal</text>
</g>
<!-- 23 -->
<g id="node24" class="node">
<title>23</title>
<path fill="none" stroke="#78d856" stroke-width="2" d="M794.1831,-108C794.1831,-108 742.2446,-108 742.2446,-108 736.2446,-108 730.2446,-102 730.2446,-96 730.2446,-96 730.2446,-84 730.2446,-84 730.2446,-78 736.2446,-72 742.2446,-72 742.2446,-72 794.1831,-72 794.1831,-72 800.1831,-72 806.1831,-78 806.1831,-84 806.1831,-84 806.1831,-96 806.1831,-96 806.1831,-102 800.1831,-108 794.1831,-108"/>
<text text-anchor="middle" x="768.2139" y="-87" font-family="sans" font-size="10.00" fill="#000000">filter_variants</text>
</g>
<!-- 21&#45;&gt;23 -->
<g id="edge28" class="edge">
<title>21&#45;&gt;23</title>
<path fill="none" stroke="#c0c0c0" stroke-width="2" d="M768.2139,-143.8314C768.2139,-136.131 768.2139,-126.9743 768.2139,-118.4166"/>
<polygon fill="#c0c0c0" stroke="#c0c0c0" stroke-width="2" points="771.714,-118.4132 768.2139,-108.4133 764.714,-118.4133 771.714,-118.4132"/>
</g>
<!-- 22 -->
<g id="node23" class="node">
<title>22</title>
<path fill="none" stroke="#56d87b" stroke-width="2" d="M1240.1348,-252C1240.1348,-252 1184.2929,-252 1184.2929,-252 1178.2929,-252 1172.2929,-246 1172.2929,-240 1172.2929,-240 1172.2929,-228 1172.2929,-228 1172.2929,-222 1178.2929,-216 1184.2929,-216 1184.2929,-216 1240.1348,-216 1240.1348,-216 1246.1348,-216 1252.1348,-222 1252.1348,-228 1252.1348,-228 1252.1348,-240 1252.1348,-240 1252.1348,-246 1246.1348,-252 1240.1348,-252"/>
<text text-anchor="middle" x="1212.2139" y="-236" font-family="sans" font-size="10.00" fill="#000000">remove_reads</text>
<text text-anchor="middle" x="1212.2139" y="-226" font-family="sans" font-size="10.00" fill="#000000">rep: a</text>
</g>
<!-- 37 -->
<g id="node38" class="node">
<title>37</title>
<path fill="none" stroke="#c6d856" stroke-width="2" d="M1297.8859,-180C1297.8859,-180 1184.5419,-180 1184.5419,-180 1178.5419,-180 1172.5419,-174 1172.5419,-168 1172.5419,-168 1172.5419,-156 1172.5419,-156 1172.5419,-150 1178.5419,-144 1184.5419,-144 1184.5419,-144 1297.8859,-144 1297.8859,-144 1303.8859,-144 1309.8859,-150 1309.8859,-156 1309.8859,-156 1309.8859,-168 1309.8859,-168 1309.8859,-174 1303.8859,-180 1297.8859,-180"/>
<text text-anchor="middle" x="1241.2139" y="-159" font-family="sans" font-size="10.00" fill="#000000">call_variants_post_removal</text>
</g>
<!-- 22&#45;&gt;37 -->
<g id="edge43" class="edge">
<title>22&#45;&gt;37</title>
<path fill="none" stroke="#c0c0c0" stroke-width="2" d="M1219.5318,-215.8314C1222.7015,-207.9617 1226.4838,-198.5712 1229.9952,-189.8533"/>
<polygon fill="#c0c0c0" stroke="#c0c0c0" stroke-width="2" points="1233.3078,-190.9968 1233.7974,-180.4133 1226.8147,-188.3815 1233.3078,-190.9968"/>
</g>
<!-- 23&#45;&gt;48 -->
<g id="edge62" class="edge">
<title>23&#45;&gt;48</title>
<path fill="none" stroke="#c0c0c0" stroke-width="2" d="M806.1184,-86.4786C937.8035,-74.2446 1374.5482,-33.6696 1505.6718,-21.4878"/>
<polygon fill="#c0c0c0" stroke="#c0c0c0" stroke-width="2" points="1506.3589,-24.9391 1515.9923,-20.529 1505.7114,-17.9691 1506.3589,-24.9391"/>
</g>
<!-- 44 -->
<g id="node45" class="node">
<title>44</title>
<path fill="none" stroke="#78d856" stroke-width="2" d="M1876.1831,-108C1876.1831,-108 1824.2446,-108 1824.2446,-108 1818.2446,-108 1812.2446,-102 1812.2446,-96 1812.2446,-96 1812.2446,-84 1812.2446,-84 1812.2446,-78 1818.2446,-72 1824.2446,-72 1824.2446,-72 1876.1831,-72 1876.1831,-72 1882.1831,-72 1888.1831,-78 1888.1831,-84 1888.1831,-84 1888.1831,-96 1888.1831,-96 1888.1831,-102 1882.1831,-108 1876.1831,-108"/>
<text text-anchor="middle" x="1850.2139" y="-87" font-family="sans" font-size="10.00" fill="#000000">filter_variants</text>
</g>
<!-- 24&#45;&gt;44 -->
<g id="edge51" class="edge">
<title>24&#45;&gt;44</title>
<path fill="none" stroke="#c0c0c0" stroke-width="2" d="M1850.2139,-143.8314C1850.2139,-136.131 1850.2139,-126.9743 1850.2139,-118.4166"/>
<polygon fill="#c0c0c0" stroke="#c0c0c0" stroke-width="2" points="1853.714,-118.4132 1850.2139,-108.4133 1846.714,-118.4133 1853.714,-118.4132"/>
</g>
<!-- 25 -->
<g id="node26" class="node">
<title>25</title>
<path fill="none" stroke="#56d87b" stroke-width="2" d="M2350.1348,-252C2350.1348,-252 2294.2929,-252 2294.2929,-252 2288.2929,-252 2282.2929,-246 2282.2929,-240 2282.2929,-240 2282.2929,-228 2282.2929,-228 2282.2929,-222 2288.2929,-216 2294.2929,-216 2294.2929,-216 2350.1348,-216 2350.1348,-216 2356.1348,-216 2362.1348,-222 2362.1348,-228 2362.1348,-228 2362.1348,-240 2362.1348,-240 2362.1348,-246 2356.1348,-252 2350.1348,-252"/>
<text text-anchor="middle" x="2322.2139" y="-236" font-family="sans" font-size="10.00" fill="#000000">remove_reads</text>
<text text-anchor="middle" x="2322.2139" y="-226" font-family="sans" font-size="10.00" fill="#000000">rep: b</text>
</g>
<!-- 69 -->
<g id="node70" class="node">
<title>69</title>
<path fill="none" stroke="#c6d856" stroke-width="2" d="M2349.8859,-180C2349.8859,-180 2236.5419,-180 2236.5419,-180 2230.5419,-180 2224.5419,-174 2224.5419,-168 2224.5419,-168 2224.5419,-156 2224.5419,-156 2224.5419,-150 2230.5419,-144 2236.5419,-144 2236.5419,-144 2349.8859,-144 2349.8859,-144 2355.8859,-144 2361.8859,-150 2361.8859,-156 2361.8859,-156 2361.8859,-168 2361.8859,-168 2361.8859,-174 2355.8859,-180 2349.8859,-180"/>
<text text-anchor="middle" x="2293.2139" y="-159" font-family="sans" font-size="10.00" fill="#000000">call_variants_post_removal</text>
</g>
<!-- 25&#45;&gt;69 -->
<g id="edge89" class="edge">
<title>25&#45;&gt;69</title>
<path fill="none" stroke="#c0c0c0" stroke-width="2" d="M2314.8959,-215.8314C2311.7262,-207.9617 2307.9439,-198.5712 2304.4325,-189.8533"/>
<polygon fill="#c0c0c0" stroke="#c0c0c0" stroke-width="2" points="2307.613,-188.3815 2300.6303,-180.4133 2301.1199,-190.9968 2307.613,-188.3815"/>
</g>
<!-- 26 -->
<g id="node27" class="node">
<title>26</title>
<path fill="none" stroke="#d8a456" stroke-width="2" d="M3078.642,-470C3078.642,-470 2897.7857,-470 2897.7857,-470 2891.7857,-470 2885.7857,-464 2885.7857,-458 2885.7857,-458 2885.7857,-444 2885.7857,-444 2885.7857,-438 2891.7857,-432 2897.7857,-432 2897.7857,-432 3078.642,-432 3078.642,-432 3084.642,-432 3090.642,-438 3090.642,-444 3090.642,-444 3090.642,-458 3090.642,-458 3090.642,-464 3084.642,-470 3078.642,-470"/>
<text text-anchor="middle" x="2988.2139" y="-458" font-family="sans" font-size="10.00" fill="#000000">trim_primer_quality</text>
<text text-anchor="middle" x="2988.2139" y="-448" font-family="sans" font-size="10.00" fill="#000000">out_dir: /Users/karthik/hpc_downloads/test</text>
<text text-anchor="middle" x="2988.2139" y="-438" font-family="sans" font-size="10.00" fill="#000000">sample: ZI27a</text>
</g>
<!-- 50 -->
<g id="node51" class="node">
<title>50</title>
<path fill="none" stroke="#d85656" stroke-width="2" d="M2946.7961,-396C2946.7961,-396 2899.6316,-396 2899.6316,-396 2893.6316,-396 2887.6316,-390 2887.6316,-384 2887.6316,-384 2887.6316,-372 2887.6316,-372 2887.6316,-366 2893.6316,-360 2899.6316,-360 2899.6316,-360 2946.7961,-360 2946.7961,-360 2952.7961,-360 2958.7961,-366 2958.7961,-372 2958.7961,-372 2958.7961,-384 2958.7961,-384 2958.7961,-390 2952.7961,-396 2946.7961,-396"/>
<text text-anchor="middle" x="2923.2139" y="-375" font-family="sans" font-size="10.00" fill="#000000">call_variants</text>
</g>
<!-- 26&#45;&gt;50 -->
<g id="edge66" class="edge">
<title>26&#45;&gt;50</title>
<path fill="none" stroke="#c0c0c0" stroke-width="2" d="M2971.1359,-431.8201C2963.5719,-423.3252 2954.5571,-413.2009 2946.398,-404.0375"/>
<polygon fill="#c0c0c0" stroke="#c0c0c0" stroke-width="2" points="2948.77,-401.4383 2939.506,-396.2973 2943.5421,-406.0933 2948.77,-401.4383"/>
</g>
<!-- 62 -->
<g id="node63" class="node">
<title>62</title>
<path fill="none" stroke="#56d87b" stroke-width="2" d="M2919.1348,-252C2919.1348,-252 2863.2929,-252 2863.2929,-252 2857.2929,-252 2851.2929,-246 2851.2929,-240 2851.2929,-240 2851.2929,-228 2851.2929,-228 2851.2929,-222 2857.2929,-216 2863.2929,-216 2863.2929,-216 2919.1348,-216 2919.1348,-216 2925.1348,-216 2931.1348,-222 2931.1348,-228 2931.1348,-228 2931.1348,-240 2931.1348,-240 2931.1348,-246 2925.1348,-252 2919.1348,-252"/>
<text text-anchor="middle" x="2891.2139" y="-236" font-family="sans" font-size="10.00" fill="#000000">remove_reads</text>
<text text-anchor="middle" x="2891.2139" y="-226" font-family="sans" font-size="10.00" fill="#000000">rep: a</text>
</g>
<!-- 26&#45;&gt;62 -->
<g id="edge79" class="edge">
<title>26&#45;&gt;62</title>
<path fill="none" stroke="#c0c0c0" stroke-width="2" d="M2985.9097,-431.9834C2983.2026,-413.1863 2977.8121,-383.8612 2968.2139,-360 2953.4729,-323.3537 2928.5833,-285.177 2911.1012,-260.5871"/>
<polygon fill="#c0c0c0" stroke="#c0c0c0" stroke-width="2" points="2913.7177,-258.2317 2905.0281,-252.1703 2908.0412,-262.3277 2913.7177,-258.2317"/>
</g>
<!-- 27 -->
<g id="node28" class="node">
<title>27</title>
<path fill="none" stroke="#d8a456" stroke-width="2" d="M636.642,-470C636.642,-470 455.7857,-470 455.7857,-470 449.7857,-470 443.7857,-464 443.7857,-458 443.7857,-458 443.7857,-444 443.7857,-444 443.7857,-438 449.7857,-432 455.7857,-432 455.7857,-432 636.642,-432 636.642,-432 642.642,-432 648.642,-438 648.642,-444 648.642,-444 648.642,-458 648.642,-458 648.642,-464 642.642,-470 636.642,-470"/>
<text text-anchor="middle" x="546.2139" y="-458" font-family="sans" font-size="10.00" fill="#000000">trim_primer_quality</text>
<text text-anchor="middle" x="546.2139" y="-448" font-family="sans" font-size="10.00" fill="#000000">out_dir: /Users/karthik/hpc_downloads/test</text>
<text text-anchor="middle" x="546.2139" y="-438" font-family="sans" font-size="10.00" fill="#000000">sample: ZI26b</text>
</g>
<!-- 34 -->
<g id="node35" class="node">
<title>34</title>
<path fill="none" stroke="#d85656" stroke-width="2" d="M636.7961,-396C636.7961,-396 589.6316,-396 589.6316,-396 583.6316,-396 577.6316,-390 577.6316,-384 577.6316,-384 577.6316,-372 577.6316,-372 577.6316,-366 583.6316,-360 589.6316,-360 589.6316,-360 636.7961,-360 636.7961,-360 642.7961,-360 648.7961,-366 648.7961,-372 648.7961,-372 648.7961,-384 648.7961,-384 648.7961,-390 642.7961,-396 636.7961,-396"/>
<text text-anchor="middle" x="613.2139" y="-375" font-family="sans" font-size="10.00" fill="#000000">call_variants</text>
</g>
<!-- 27&#45;&gt;34 -->
<g id="edge39" class="edge">
<title>27&#45;&gt;34</title>
<path fill="none" stroke="#c0c0c0" stroke-width="2" d="M563.8173,-431.8201C571.6928,-423.2394 581.0941,-412.9962 589.571,-403.7601"/>
<polygon fill="#c0c0c0" stroke="#c0c0c0" stroke-width="2" points="592.2372,-406.0314 596.4204,-396.2973 587.08,-401.2981 592.2372,-406.0314"/>
</g>
<!-- 27&#45;&gt;46 -->
<g id="edge54" class="edge">
<title>27&#45;&gt;46</title>
<path fill="none" stroke="#c0c0c0" stroke-width="2" d="M545.2459,-431.9879C544.3773,-400.5842 545.7267,-336.526 567.2139,-288 571.7482,-277.7597 578.8657,-267.9807 586.1588,-259.6273"/>
<polygon fill="#c0c0c0" stroke="#c0c0c0" stroke-width="2" points="588.9105,-261.8067 593.1265,-252.0868 583.7693,-257.056 588.9105,-261.8067"/>
</g>
<!-- 38 -->
<g id="node39" class="node">
<title>38</title>
<path fill="none" stroke="#c6d856" stroke-width="2" d="M1142.8859,-180C1142.8859,-180 1029.5419,-180 1029.5419,-180 1023.5419,-180 1017.5419,-174 1017.5419,-168 1017.5419,-168 1017.5419,-156 1017.5419,-156 1017.5419,-150 1023.5419,-144 1029.5419,-144 1029.5419,-144 1142.8859,-144 1142.8859,-144 1148.8859,-144 1154.8859,-150 1154.8859,-156 1154.8859,-156 1154.8859,-168 1154.8859,-168 1154.8859,-174 1148.8859,-180 1142.8859,-180"/>
<text text-anchor="middle" x="1086.2139" y="-159" font-family="sans" font-size="10.00" fill="#000000">call_variants_post_removal</text>
</g>
<!-- 28&#45;&gt;38 -->
<g id="edge44" class="edge">
<title>28&#45;&gt;38</title>
<path fill="none" stroke="#c0c0c0" stroke-width="2" d="M1086.2139,-215.8314C1086.2139,-208.131 1086.2139,-198.9743 1086.2139,-190.4166"/>
<polygon fill="#c0c0c0" stroke="#c0c0c0" stroke-width="2" points="1089.714,-190.4132 1086.2139,-180.4133 1082.714,-190.4133 1089.714,-190.4132"/>
</g>
<!-- 47 -->
<g id="node48" class="node">
<title>47</title>
<path fill="none" stroke="#56d8c9" stroke-width="2" d="M2887.0169,-324C2887.0169,-324 2837.4109,-324 2837.4109,-324 2831.4109,-324 2825.4109,-318 2825.4109,-312 2825.4109,-312 2825.4109,-300 2825.4109,-300 2825.4109,-294 2831.4109,-288 2837.4109,-288 2837.4109,-288 2887.0169,-288 2887.0169,-288 2893.0169,-288 2899.0169,-294 2899.0169,-300 2899.0169,-300 2899.0169,-312 2899.0169,-312 2899.0169,-318 2893.0169,-324 2887.0169,-324"/>
<text text-anchor="middle" x="2862.2139" y="-308" font-family="sans" font-size="10.00" fill="#000000">get_masked</text>
<text text-anchor="middle" x="2862.2139" y="-298" font-family="sans" font-size="10.00" fill="#000000">sample: ZI27</text>
</g>
<!-- 29&#45;&gt;47 -->
<g id="edge56" class="edge">
<title>29&#45;&gt;47</title>
<path fill="none" stroke="#c0c0c0" stroke-width="2" d="M2839.7841,-359.8314C2843.0632,-351.9617 2846.9759,-342.5712 2850.6083,-333.8533"/>
<polygon fill="#c0c0c0" stroke="#c0c0c0" stroke-width="2" points="2853.9262,-334.9902 2854.5417,-324.4133 2847.4647,-332.2979 2853.9262,-334.9902"/>
</g>
<!-- 30 -->
<g id="node31" class="node">
<title>30</title>
<path fill="none" stroke="#d8a456" stroke-width="2" d="M1968.642,-470C1968.642,-470 1787.7857,-470 1787.7857,-470 1781.7857,-470 1775.7857,-464 1775.7857,-458 1775.7857,-458 1775.7857,-444 1775.7857,-444 1775.7857,-438 1781.7857,-432 1787.7857,-432 1787.7857,-432 1968.642,-432 1968.642,-432 1974.642,-432 1980.642,-438 1980.642,-444 1980.642,-444 1980.642,-458 1980.642,-458 1980.642,-464 1974.642,-470 1968.642,-470"/>
<text text-anchor="middle" x="1878.2139" y="-458" font-family="sans" font-size="10.00" fill="#000000">trim_primer_quality</text>
<text text-anchor="middle" x="1878.2139" y="-448" font-family="sans" font-size="10.00" fill="#000000">out_dir: /Users/karthik/hpc_downloads/test</text>
<text text-anchor="middle" x="1878.2139" y="-438" font-family="sans" font-size="10.00" fill="#000000">sample: ZI51b</text>
</g>
<!-- 30&#45;&gt;11 -->
<g id="edge13" class="edge">
<title>30&#45;&gt;11</title>
<path fill="none" stroke="#c0c0c0" stroke-width="2" d="M1895.5546,-431.8201C1903.3125,-423.2394 1912.5735,-412.9962 1920.9239,-403.7601"/>
<polygon fill="#c0c0c0" stroke="#c0c0c0" stroke-width="2" points="1923.5608,-406.0624 1927.6711,-396.2973 1918.3683,-401.3679 1923.5608,-406.0624"/>
</g>
<!-- 30&#45;&gt;15 -->
<g id="edge19" class="edge">
<title>30&#45;&gt;15</title>
<path fill="none" stroke="#c0c0c0" stroke-width="2" d="M1878.2139,-431.7427C1878.2139,-393.4125 1878.2139,-307.4051 1878.2139,-262.5083"/>
<polygon fill="#c0c0c0" stroke="#c0c0c0" stroke-width="2" points="1881.714,-262.2909 1878.2139,-252.291 1874.714,-262.291 1881.714,-262.2909"/>
</g>
<!-- 31&#45;&gt;44 -->
<g id="edge52" class="edge">
<title>31&#45;&gt;44</title>
<path fill="none" stroke="#c0c0c0" stroke-width="2" d="M1966.1008,-143.8314C1945.1487,-134.0988 1919.1888,-122.04 1897.1536,-111.8043"/>
<polygon fill="#c0c0c0" stroke="#c0c0c0" stroke-width="2" points="1898.5201,-108.5799 1887.9763,-107.5412 1895.571,-114.9284 1898.5201,-108.5799"/>
</g>
<!-- 42 -->
<g id="node43" class="node">
<title>42</title>
<path fill="none" stroke="#56d8c9" stroke-width="2" d="M1524.0169,-324C1524.0169,-324 1474.4109,-324 1474.4109,-324 1468.4109,-324 1462.4109,-318 1462.4109,-312 1462.4109,-312 1462.4109,-300 1462.4109,-300 1462.4109,-294 1468.4109,-288 1474.4109,-288 1474.4109,-288 1524.0169,-288 1524.0169,-288 1530.0169,-288 1536.0169,-294 1536.0169,-300 1536.0169,-300 1536.0169,-312 1536.0169,-312 1536.0169,-318 1530.0169,-324 1524.0169,-324"/>
<text text-anchor="middle" x="1499.2139" y="-308" font-family="sans" font-size="10.00" fill="#000000">get_masked</text>
<text text-anchor="middle" x="1499.2139" y="-298" font-family="sans" font-size="10.00" fill="#000000">sample: ZI52</text>
</g>
<!-- 32&#45;&gt;42 -->
<g id="edge49" class="edge">
<title>32&#45;&gt;42</title>
<path fill="none" stroke="#c0c0c0" stroke-width="2" d="M1567.2507,-359.8314C1556.0424,-350.9632 1542.393,-340.1637 1530.2699,-330.5718"/>
<polygon fill="#c0c0c0" stroke="#c0c0c0" stroke-width="2" points="1532.1836,-327.6229 1522.1697,-324.1628 1527.8402,-333.1125 1532.1836,-327.6229"/>
</g>
<!-- 33&#45;&gt;21 -->
<g id="edge24" class="edge">
<title>33&#45;&gt;21</title>
<path fill="none" stroke="#c0c0c0" stroke-width="2" d="M768.2139,-215.8314C768.2139,-208.131 768.2139,-198.9743 768.2139,-190.4166"/>
<polygon fill="#c0c0c0" stroke="#c0c0c0" stroke-width="2" points="771.714,-190.4132 768.2139,-180.4133 764.714,-190.4133 771.714,-190.4132"/>
</g>
<!-- 34&#45;&gt;9 -->
<g id="edge11" class="edge">
<title>34&#45;&gt;9</title>
<path fill="none" stroke="#c0c0c0" stroke-width="2" d="M613.2139,-359.8314C613.2139,-352.131 613.2139,-342.9743 613.2139,-334.4166"/>
<polygon fill="#c0c0c0" stroke="#c0c0c0" stroke-width="2" points="616.714,-334.4132 613.2139,-324.4133 609.714,-334.4133 616.714,-334.4132"/>
</g>
<!-- 35 -->
<g id="node36" class="node">
<title>35</title>
<path fill="none" stroke="#d85656" stroke-width="2" d="M192.7961,-396C192.7961,-396 145.6316,-396 145.6316,-396 139.6316,-396 133.6316,-390 133.6316,-384 133.6316,-384 133.6316,-372 133.6316,-372 133.6316,-366 139.6316,-360 145.6316,-360 145.6316,-360 192.7961,-360 192.7961,-360 198.7961,-360 204.7961,-366 204.7961,-372 204.7961,-372 204.7961,-384 204.7961,-384 204.7961,-390 198.7961,-396 192.7961,-396"/>
<text text-anchor="middle" x="169.2139" y="-375" font-family="sans" font-size="10.00" fill="#000000">call_variants</text>
</g>
<!-- 35&#45;&gt;19 -->
<g id="edge23" class="edge">
<title>35&#45;&gt;19</title>
<path fill="none" stroke="#c0c0c0" stroke-width="2" d="M184.3544,-359.8314C191.3355,-351.454 199.7529,-341.3531 207.4014,-332.1749"/>
<polygon fill="#c0c0c0" stroke="#c0c0c0" stroke-width="2" points="210.1564,-334.3362 213.8695,-324.4133 204.7788,-329.8548 210.1564,-334.3362"/>
</g>
<!-- 36&#45;&gt;25 -->
<g id="edge30" class="edge">
<title>36&#45;&gt;25</title>
<path fill="none" stroke="#c0c0c0" stroke-width="2" d="M2404.4562,-287.8314C2390.5168,-278.7074 2373.4541,-267.539 2358.4907,-257.7449"/>
<polygon fill="#c0c0c0" stroke="#c0c0c0" stroke-width="2" points="2360.2465,-254.711 2349.9626,-252.1628 2356.4128,-260.5679 2360.2465,-254.711"/>
</g>
<!-- 68 -->
<g id="node69" class="node">
<title>68</title>
<path fill="none" stroke="#56d87b" stroke-width="2" d="M2476.1348,-252C2476.1348,-252 2420.2929,-252 2420.2929,-252 2414.2929,-252 2408.2929,-246 2408.2929,-240 2408.2929,-240 2408.2929,-228 2408.2929,-228 2408.2929,-222 2414.2929,-216 2420.2929,-216 2420.2929,-216 2476.1348,-216 2476.1348,-216 2482.1348,-216 2488.1348,-222 2488.1348,-228 2488.1348,-228 2488.1348,-240 2488.1348,-240 2488.1348,-246 2482.1348,-252 2476.1348,-252"/>
<text text-anchor="middle" x="2448.2139" y="-236" font-family="sans" font-size="10.00" fill="#000000">remove_reads</text>
<text text-anchor="middle" x="2448.2139" y="-226" font-family="sans" font-size="10.00" fill="#000000">rep: a</text>
</g>
<!-- 36&#45;&gt;68 -->
<g id="edge88" class="edge">
<title>36&#45;&gt;68</title>
<path fill="none" stroke="#c0c0c0" stroke-width="2" d="M2436.2513,-287.8314C2437.9625,-280.131 2439.9973,-270.9743 2441.8991,-262.4166"/>
<polygon fill="#c0c0c0" stroke="#c0c0c0" stroke-width="2" points="2445.3693,-262.9344 2444.122,-252.4133 2438.536,-261.4159 2445.3693,-262.9344"/>
</g>
<!-- 41 -->
<g id="node42" class="node">
<title>41</title>
<path fill="none" stroke="#78d856" stroke-width="2" d="M1267.1831,-108C1267.1831,-108 1215.2446,-108 1215.2446,-108 1209.2446,-108 1203.2446,-102 1203.2446,-96 1203.2446,-96 1203.2446,-84 1203.2446,-84 1203.2446,-78 1209.2446,-72 1215.2446,-72 1215.2446,-72 1267.1831,-72 1267.1831,-72 1273.1831,-72 1279.1831,-78 1279.1831,-84 1279.1831,-84 1279.1831,-96 1279.1831,-96 1279.1831,-102 1273.1831,-108 1267.1831,-108"/>
<text text-anchor="middle" x="1241.2139" y="-87" font-family="sans" font-size="10.00" fill="#000000">filter_variants</text>
</g>
<!-- 37&#45;&gt;41 -->
<g id="edge46" class="edge">
<title>37&#45;&gt;41</title>
<path fill="none" stroke="#c0c0c0" stroke-width="2" d="M1241.2139,-143.8314C1241.2139,-136.131 1241.2139,-126.9743 1241.2139,-118.4166"/>
<polygon fill="#c0c0c0" stroke="#c0c0c0" stroke-width="2" points="1244.714,-118.4132 1241.2139,-108.4133 1237.714,-118.4133 1244.714,-118.4132"/>
</g>
<!-- 38&#45;&gt;41 -->
<g id="edge47" class="edge">
<title>38&#45;&gt;41</title>
<path fill="none" stroke="#c0c0c0" stroke-width="2" d="M1125.3269,-143.8314C1146.279,-134.0988 1172.2389,-122.04 1194.2741,-111.8043"/>
<polygon fill="#c0c0c0" stroke="#c0c0c0" stroke-width="2" points="1195.8567,-114.9284 1203.4515,-107.5412 1192.9077,-108.5799 1195.8567,-114.9284"/>
</g>
<!-- 39 -->
<g id="node40" class="node">
<title>39</title>
<path fill="none" stroke="#c6d856" stroke-width="2" d="M669.8859,-180C669.8859,-180 556.5419,-180 556.5419,-180 550.5419,-180 544.5419,-174 544.5419,-168 544.5419,-168 544.5419,-156 544.5419,-156 544.5419,-150 550.5419,-144 556.5419,-144 556.5419,-144 669.8859,-144 669.8859,-144 675.8859,-144 681.8859,-150 681.8859,-156 681.8859,-156 681.8859,-168 681.8859,-168 681.8859,-174 675.8859,-180 669.8859,-180"/>
<text text-anchor="middle" x="613.2139" y="-159" font-family="sans" font-size="10.00" fill="#000000">call_variants_post_removal</text>
</g>
<!-- 39&#45;&gt;23 -->
<g id="edge27" class="edge">
<title>39&#45;&gt;23</title>
<path fill="none" stroke="#c0c0c0" stroke-width="2" d="M652.3269,-143.8314C673.279,-134.0988 699.2389,-122.04 721.2741,-111.8043"/>
<polygon fill="#c0c0c0" stroke="#c0c0c0" stroke-width="2" points="722.8567,-114.9284 730.4515,-107.5412 719.9077,-108.5799 722.8567,-114.9284"/>
</g>
<!-- 40 -->
<g id="node41" class="node">
<title>40</title>
<path fill="none" stroke="#d8a456" stroke-width="2" d="M1302.642,-470C1302.642,-470 1121.7857,-470 1121.7857,-470 1115.7857,-470 1109.7857,-464 1109.7857,-458 1109.7857,-458 1109.7857,-444 1109.7857,-444 1109.7857,-438 1115.7857,-432 1121.7857,-432 1121.7857,-432 1302.642,-432 1302.642,-432 1308.642,-432 1314.642,-438 1314.642,-444 1314.642,-444 1314.642,-458 1314.642,-458 1314.642,-464 1308.642,-470 1302.642,-470"/>
<text text-anchor="middle" x="1212.2139" y="-458" font-family="sans" font-size="10.00" fill="#000000">trim_primer_quality</text>
<text text-anchor="middle" x="1212.2139" y="-448" font-family="sans" font-size="10.00" fill="#000000">out_dir: /Users/karthik/hpc_downloads/test</text>
<text text-anchor="middle" x="1212.2139" y="-438" font-family="sans" font-size="10.00" fill="#000000">sample: ZI50a</text>
</g>
<!-- 40&#45;&gt;22 -->
<g id="edge26" class="edge">
<title>40&#45;&gt;22</title>
<path fill="none" stroke="#c0c0c0" stroke-width="2" d="M1212.2139,-431.7427C1212.2139,-393.4125 1212.2139,-307.4051 1212.2139,-262.5083"/>
<polygon fill="#c0c0c0" stroke="#c0c0c0" stroke-width="2" points="1215.714,-262.2909 1212.2139,-252.291 1208.714,-262.291 1215.714,-262.2909"/>
</g>
<!-- 61 -->
<g id="node62" class="node">
<title>61</title>
<path fill="none" stroke="#d85656" stroke-width="2" d="M1170.7961,-396C1170.7961,-396 1123.6316,-396 1123.6316,-396 1117.6316,-396 1111.6316,-390 1111.6316,-384 1111.6316,-384 1111.6316,-372 1111.6316,-372 1111.6316,-366 1117.6316,-360 1123.6316,-360 1123.6316,-360 1170.7961,-360 1170.7961,-360 1176.7961,-360 1182.7961,-366 1182.7961,-372 1182.7961,-372 1182.7961,-384 1182.7961,-384 1182.7961,-390 1176.7961,-396 1170.7961,-396"/>
<text text-anchor="middle" x="1147.2139" y="-375" font-family="sans" font-size="10.00" fill="#000000">call_variants</text>
</g>
<!-- 40&#45;&gt;61 -->
<g id="edge78" class="edge">
<title>40&#45;&gt;61</title>
<path fill="none" stroke="#c0c0c0" stroke-width="2" d="M1195.1359,-431.8201C1187.5719,-423.3252 1178.5571,-413.2009 1170.398,-404.0375"/>
<polygon fill="#c0c0c0" stroke="#c0c0c0" stroke-width="2" points="1172.77,-401.4383 1163.506,-396.2973 1167.5421,-406.0933 1172.77,-401.4383"/>
</g>
<!-- 41&#45;&gt;48 -->
<g id="edge63" class="edge">
<title>41&#45;&gt;48</title>
<path fill="none" stroke="#c0c0c0" stroke-width="2" d="M1279.1566,-80.9541C1337.4409,-67.0585 1448.3077,-40.6266 1506.0932,-26.85"/>
<polygon fill="#c0c0c0" stroke="#c0c0c0" stroke-width="2" points="1506.9891,-30.2345 1515.9048,-24.5108 1505.3657,-23.4254 1506.9891,-30.2345"/>
</g>
<!-- 42&#45;&gt;13 -->
<g id="edge17" class="edge">
<title>42&#45;&gt;13</title>
<path fill="none" stroke="#c0c0c0" stroke-width="2" d="M1529.9996,-287.8314C1545.6042,-278.6221 1564.7379,-267.3301 1581.4442,-257.4706"/>
<polygon fill="#c0c0c0" stroke="#c0c0c0" stroke-width="2" points="1583.6048,-260.2596 1590.438,-252.1628 1580.047,-254.2312 1583.6048,-260.2596"/>
</g>
<!-- 42&#45;&gt;67 -->
<g id="edge85" class="edge">
<title>42&#45;&gt;67</title>
<path fill="none" stroke="#c0c0c0" stroke-width="2" d="M1490.8866,-287.8314C1487.2409,-279.8771 1482.883,-270.369 1478.8512,-261.5723"/>
<polygon fill="#c0c0c0" stroke="#c0c0c0" stroke-width="2" points="1482.0016,-260.0456 1474.6533,-252.4133 1475.6382,-262.9622 1482.0016,-260.0456"/>
</g>
<!-- 43&#45;&gt;65 -->
<g id="edge84" class="edge">
<title>43&#45;&gt;65</title>
<path fill="none" stroke="#c0c0c0" stroke-width="2" d="M2019.0733,-359.8314C2012.0922,-351.454 2003.6748,-341.3531 1996.0263,-332.1749"/>
<polygon fill="#c0c0c0" stroke="#c0c0c0" stroke-width="2" points="1998.6489,-329.8548 1989.5583,-324.4133 1993.2714,-334.3362 1998.6489,-329.8548"/>
</g>
<!-- 44&#45;&gt;48 -->
<g id="edge58" class="edge">
<title>44&#45;&gt;48</title>
<path fill="none" stroke="#c0c0c0" stroke-width="2" d="M1812.2617,-81.0992C1752.9367,-67.1858 1638.9566,-40.4543 1580.2192,-26.6788"/>
<polygon fill="#c0c0c0" stroke="#c0c0c0" stroke-width="2" points="1580.7954,-23.219 1570.2604,-24.3432 1579.197,-30.0341 1580.7954,-23.219"/>
</g>
<!-- 45 -->
<g id="node46" class="node">
<title>45</title>
<path fill="none" stroke="#d85656" stroke-width="2" d="M2410.7961,-396C2410.7961,-396 2363.6316,-396 2363.6316,-396 2357.6316,-396 2351.6316,-390 2351.6316,-384 2351.6316,-384 2351.6316,-372 2351.6316,-372 2351.6316,-366 2357.6316,-360 2363.6316,-360 2363.6316,-360 2410.7961,-360 2410.7961,-360 2416.7961,-360 2422.7961,-366 2422.7961,-372 2422.7961,-372 2422.7961,-384 2422.7961,-384 2422.7961,-390 2416.7961,-396 2410.7961,-396"/>
<text text-anchor="middle" x="2387.2139" y="-375" font-family="sans" font-size="10.00" fill="#000000">call_variants</text>
</g>
<!-- 45&#45;&gt;36 -->
<g id="edge41" class="edge">
<title>45&#45;&gt;36</title>
<path fill="none" stroke="#c0c0c0" stroke-width="2" d="M2398.5693,-359.8314C2403.6465,-351.7079 2409.7365,-341.9637 2415.3315,-333.0118"/>
<polygon fill="#c0c0c0" stroke="#c0c0c0" stroke-width="2" points="2418.3735,-334.7483 2420.7056,-324.4133 2412.4375,-331.0383 2418.3735,-334.7483"/>
</g>
<!-- 46&#45;&gt;39 -->
<g id="edge45" class="edge">
<title>46&#45;&gt;39</title>
<path fill="none" stroke="#c0c0c0" stroke-width="2" d="M613.2139,-215.8314C613.2139,-208.131 613.2139,-198.9743 613.2139,-190.4166"/>
<polygon fill="#c0c0c0" stroke="#c0c0c0" stroke-width="2" points="616.714,-190.4132 613.2139,-180.4133 609.714,-190.4133 616.714,-190.4132"/>
</g>
<!-- 47&#45;&gt;2 -->
<g id="edge2" class="edge">
<title>47&#45;&gt;2</title>
<path fill="none" stroke="#c0c0c0" stroke-width="2" d="M2837.989,-287.8314C2826.0511,-278.8779 2811.4883,-267.9558 2798.6078,-258.2955"/>
<polygon fill="#c0c0c0" stroke="#c0c0c0" stroke-width="2" points="2800.531,-255.3629 2790.431,-252.1628 2796.331,-260.9629 2800.531,-255.3629"/>
</g>
<!-- 47&#45;&gt;62 -->
<g id="edge80" class="edge">
<title>47&#45;&gt;62</title>
<path fill="none" stroke="#c0c0c0" stroke-width="2" d="M2869.5318,-287.8314C2872.7015,-279.9617 2876.4838,-270.5712 2879.9952,-261.8533"/>
<polygon fill="#c0c0c0" stroke="#c0c0c0" stroke-width="2" points="2883.3078,-262.9968 2883.7974,-252.4133 2876.8147,-260.3815 2883.3078,-262.9968"/>
</g>
<!-- 49 -->
<g id="node50" class="node">
<title>49</title>
<path fill="none" stroke="#c6d856" stroke-width="2" d="M2504.8859,-180C2504.8859,-180 2391.5419,-180 2391.5419,-180 2385.5419,-180 2379.5419,-174 2379.5419,-168 2379.5419,-168 2379.5419,-156 2379.5419,-156 2379.5419,-150 2385.5419,-144 2391.5419,-144 2391.5419,-144 2504.8859,-144 2504.8859,-144 2510.8859,-144 2516.8859,-150 2516.8859,-156 2516.8859,-156 2516.8859,-168 2516.8859,-168 2516.8859,-174 2510.8859,-180 2504.8859,-180"/>
<text text-anchor="middle" x="2448.2139" y="-159" font-family="sans" font-size="10.00" fill="#000000">call_variants_post_removal</text>
</g>
<!-- 57 -->
<g id="node58" class="node">
<title>57</title>
<path fill="none" stroke="#78d856" stroke-width="2" d="M2319.1831,-108C2319.1831,-108 2267.2446,-108 2267.2446,-108 2261.2446,-108 2255.2446,-102 2255.2446,-96 2255.2446,-96 2255.2446,-84 2255.2446,-84 2255.2446,-78 2261.2446,-72 2267.2446,-72 2267.2446,-72 2319.1831,-72 2319.1831,-72 2325.1831,-72 2331.1831,-78 2331.1831,-84 2331.1831,-84 2331.1831,-96 2331.1831,-96 2331.1831,-102 2325.1831,-108 2319.1831,-108"/>
<text text-anchor="middle" x="2293.2139" y="-87" font-family="sans" font-size="10.00" fill="#000000">filter_variants</text>
</g>
<!-- 49&#45;&gt;57 -->
<g id="edge73" class="edge">
<title>49&#45;&gt;57</title>
<path fill="none" stroke="#c0c0c0" stroke-width="2" d="M2409.1008,-143.8314C2388.1487,-134.0988 2362.1888,-122.04 2340.1536,-111.8043"/>
<polygon fill="#c0c0c0" stroke="#c0c0c0" stroke-width="2" points="2341.5201,-108.5799 2330.9763,-107.5412 2338.571,-114.9284 2341.5201,-108.5799"/>
</g>
<!-- 50&#45;&gt;47 -->
<g id="edge57" class="edge">
<title>50&#45;&gt;47</title>
<path fill="none" stroke="#c0c0c0" stroke-width="2" d="M2907.821,-359.8314C2900.7235,-351.454 2892.1658,-341.3531 2884.3899,-332.1749"/>
<polygon fill="#c0c0c0" stroke="#c0c0c0" stroke-width="2" points="2886.9487,-329.7807 2877.814,-324.4133 2881.6077,-334.3056 2886.9487,-329.7807"/>
</g>
<!-- 51&#45;&gt;9 -->
<g id="edge10" class="edge">
<title>51&#45;&gt;9</title>
<path fill="none" stroke="#c0c0c0" stroke-width="2" d="M681.2507,-359.8314C670.0424,-350.9632 656.393,-340.1637 644.2699,-330.5718"/>
<polygon fill="#c0c0c0" stroke="#c0c0c0" stroke-width="2" points="646.1836,-327.6229 636.1697,-324.1628 641.8402,-333.1125 646.1836,-327.6229"/>
</g>
<!-- 52 -->
<g id="node53" class="node">
<title>52</title>
<path fill="none" stroke="#d8a456" stroke-width="2" d="M2634.642,-470C2634.642,-470 2453.7857,-470 2453.7857,-470 2447.7857,-470 2441.7857,-464 2441.7857,-458 2441.7857,-458 2441.7857,-444 2441.7857,-444 2441.7857,-438 2447.7857,-432 2453.7857,-432 2453.7857,-432 2634.642,-432 2634.642,-432 2640.642,-432 2646.642,-438 2646.642,-444 2646.642,-444 2646.642,-458 2646.642,-458 2646.642,-464 2640.642,-470 2634.642,-470"/>
<text text-anchor="middle" x="2544.2139" y="-458" font-family="sans" font-size="10.00" fill="#000000">trim_primer_quality</text>
<text text-anchor="middle" x="2544.2139" y="-448" font-family="sans" font-size="10.00" fill="#000000">out_dir: /Users/karthik/hpc_downloads/test</text>
<text text-anchor="middle" x="2544.2139" y="-438" font-family="sans" font-size="10.00" fill="#000000">sample: ZI53a</text>
</g>
<!-- 52&#45;&gt;10 -->
<g id="edge12" class="edge">
<title>52&#45;&gt;10</title>
<path fill="none" stroke="#c0c0c0" stroke-width="2" d="M2526.8731,-431.8201C2519.1153,-423.2394 2509.8543,-412.9962 2501.5039,-403.7601"/>
<polygon fill="#c0c0c0" stroke="#c0c0c0" stroke-width="2" points="2504.0594,-401.3679 2494.7567,-396.2973 2498.8669,-406.0624 2504.0594,-401.3679"/>
</g>
<!-- 52&#45;&gt;68 -->
<g id="edge87" class="edge">
<title>52&#45;&gt;68</title>
<path fill="none" stroke="#c0c0c0" stroke-width="2" d="M2541.5346,-431.6545C2538.5221,-412.8647 2532.7602,-383.7727 2523.2139,-360 2508.5975,-323.6014 2484.407,-285.3743 2467.4618,-260.7049"/>
<polygon fill="#c0c0c0" stroke="#c0c0c0" stroke-width="2" points="2470.1656,-258.4629 2461.5778,-252.258 2464.4218,-262.464 2470.1656,-258.4629"/>
</g>
<!-- 56 -->
<g id="node57" class="node">
<title>56</title>
<path fill="none" stroke="#c6d856" stroke-width="2" d="M254.8859,-180C254.8859,-180 141.5419,-180 141.5419,-180 135.5419,-180 129.5419,-174 129.5419,-168 129.5419,-168 129.5419,-156 129.5419,-156 129.5419,-150 135.5419,-144 141.5419,-144 141.5419,-144 254.8859,-144 254.8859,-144 260.8859,-144 266.8859,-150 266.8859,-156 266.8859,-156 266.8859,-168 266.8859,-168 266.8859,-174 260.8859,-180 254.8859,-180"/>
<text text-anchor="middle" x="198.2139" y="-159" font-family="sans" font-size="10.00" fill="#000000">call_variants_post_removal</text>
</g>
<!-- 53&#45;&gt;56 -->
<g id="edge71" class="edge">
<title>53&#45;&gt;56</title>
<path fill="none" stroke="#c0c0c0" stroke-width="2" d="M198.2139,-215.8314C198.2139,-208.131 198.2139,-198.9743 198.2139,-190.4166"/>
<polygon fill="#c0c0c0" stroke="#c0c0c0" stroke-width="2" points="201.714,-190.4132 198.2139,-180.4133 194.714,-190.4133 201.714,-190.4132"/>
</g>
<!-- 54 -->
<g id="node55" class="node">
<title>54</title>
<path fill="none" stroke="#c6d856" stroke-width="2" d="M1522.8859,-180C1522.8859,-180 1409.5419,-180 1409.5419,-180 1403.5419,-180 1397.5419,-174 1397.5419,-168 1397.5419,-168 1397.5419,-156 1397.5419,-156 1397.5419,-150 1403.5419,-144 1409.5419,-144 1409.5419,-144 1522.8859,-144 1522.8859,-144 1528.8859,-144 1534.8859,-150 1534.8859,-156 1534.8859,-156 1534.8859,-168 1534.8859,-168 1534.8859,-174 1528.8859,-180 1522.8859,-180"/>
<text text-anchor="middle" x="1466.2139" y="-159" font-family="sans" font-size="10.00" fill="#000000">call_variants_post_removal</text>
</g>
<!-- 54&#45;&gt;59 -->
<g id="edge77" class="edge">
<title>54&#45;&gt;59</title>
<path fill="none" stroke="#c0c0c0" stroke-width="2" d="M1485.6442,-143.8314C1494.9458,-135.1337 1506.2343,-124.5783 1516.3424,-115.1265"/>
<polygon fill="#c0c0c0" stroke="#c0c0c0" stroke-width="2" points="1518.876,-117.5493 1523.7897,-108.1628 1514.095,-112.4363 1518.876,-117.5493"/>
</g>
<!-- 55 -->
<g id="node56" class="node">
<title>55</title>
<path fill="none" stroke="#d8a456" stroke-width="2" d="M2412.642,-470C2412.642,-470 2231.7857,-470 2231.7857,-470 2225.7857,-470 2219.7857,-464 2219.7857,-458 2219.7857,-458 2219.7857,-444 2219.7857,-444 2219.7857,-438 2225.7857,-432 2231.7857,-432 2231.7857,-432 2412.642,-432 2412.642,-432 2418.642,-432 2424.642,-438 2424.642,-444 2424.642,-444 2424.642,-458 2424.642,-458 2424.642,-464 2418.642,-470 2412.642,-470"/>
<text text-anchor="middle" x="2322.2139" y="-458" font-family="sans" font-size="10.00" fill="#000000">trim_primer_quality</text>
<text text-anchor="middle" x="2322.2139" y="-448" font-family="sans" font-size="10.00" fill="#000000">out_dir: /Users/karthik/hpc_downloads/test</text>
<text text-anchor="middle" x="2322.2139" y="-438" font-family="sans" font-size="10.00" fill="#000000">sample: ZI53b</text>
</g>
<!-- 55&#45;&gt;25 -->
<g id="edge31" class="edge">
<title>55&#45;&gt;25</title>
<path fill="none" stroke="#c0c0c0" stroke-width="2" d="M2322.2139,-431.7427C2322.2139,-393.4125 2322.2139,-307.4051 2322.2139,-262.5083"/>
<polygon fill="#c0c0c0" stroke="#c0c0c0" stroke-width="2" points="2325.714,-262.2909 2322.2139,-252.291 2318.714,-262.291 2325.714,-262.2909"/>
</g>
<!-- 55&#45;&gt;45 -->
<g id="edge53" class="edge">
<title>55&#45;&gt;45</title>
<path fill="none" stroke="#c0c0c0" stroke-width="2" d="M2339.2919,-431.8201C2346.8558,-423.3252 2355.8706,-413.2009 2364.0298,-404.0375"/>
<polygon fill="#c0c0c0" stroke="#c0c0c0" stroke-width="2" points="2366.8857,-406.0933 2370.9217,-396.2973 2361.6577,-401.4383 2366.8857,-406.0933"/>
</g>
<!-- 56&#45;&gt;3 -->
<g id="edge5" class="edge">
<title>56&#45;&gt;3</title>
<path fill="none" stroke="#c0c0c0" stroke-width="2" d="M237.3269,-143.8314C258.279,-134.0988 284.2389,-122.04 306.2741,-111.8043"/>
<polygon fill="#c0c0c0" stroke="#c0c0c0" stroke-width="2" points="307.8567,-114.9284 315.4515,-107.5412 304.9077,-108.5799 307.8567,-114.9284"/>
</g>
<!-- 57&#45;&gt;48 -->
<g id="edge60" class="edge">
<title>57&#45;&gt;48</title>
<path fill="none" stroke="#c0c0c0" stroke-width="2" d="M2255.2491,-86.3554C2126.6513,-74.01 1708.4137,-33.8592 1580.6354,-21.5925"/>
<polygon fill="#c0c0c0" stroke="#c0c0c0" stroke-width="2" points="1580.8492,-18.097 1570.5604,-20.6253 1580.1802,-25.0649 1580.8492,-18.097"/>
</g>
<!-- 58&#45;&gt;22 -->
<g id="edge25" class="edge">
<title>58&#45;&gt;22</title>
<path fill="none" stroke="#c0c0c0" stroke-width="2" d="M1129.9715,-287.8314C1143.9109,-278.7074 1160.9737,-267.539 1175.937,-257.7449"/>
<polygon fill="#c0c0c0" stroke="#c0c0c0" stroke-width="2" points="1178.0149,-260.5679 1184.4651,-252.1628 1174.1812,-254.711 1178.0149,-260.5679"/>
</g>
<!-- 58&#45;&gt;28 -->
<g id="edge32" class="edge">
<title>58&#45;&gt;28</title>
<path fill="none" stroke="#c0c0c0" stroke-width="2" d="M1098.1764,-287.8314C1096.4652,-280.131 1094.4304,-270.9743 1092.5287,-262.4166"/>
<polygon fill="#c0c0c0" stroke="#c0c0c0" stroke-width="2" points="1095.8917,-261.4159 1090.3057,-252.4133 1089.0584,-262.9344 1095.8917,-261.4159"/>
</g>
<!-- 59&#45;&gt;48 -->
<g id="edge61" class="edge">
<title>59&#45;&gt;48</title>
<path fill="none" stroke="#c0c0c0" stroke-width="2" d="M1543.2139,-71.8314C1543.2139,-64.131 1543.2139,-54.9743 1543.2139,-46.4166"/>
<polygon fill="#c0c0c0" stroke="#c0c0c0" stroke-width="2" points="1546.714,-46.4132 1543.2139,-36.4133 1539.714,-46.4133 1546.714,-46.4132"/>
</g>
<!-- 60 -->
<g id="node61" class="node">
<title>60</title>
<path fill="none" stroke="#d8a456" stroke-width="2" d="M192.642,-470C192.642,-470 11.7857,-470 11.7857,-470 5.7857,-470 -.2143,-464 -.2143,-458 -.2143,-458 -.2143,-444 -.2143,-444 -.2143,-438 5.7857,-432 11.7857,-432 11.7857,-432 192.642,-432 192.642,-432 198.642,-432 204.642,-438 204.642,-444 204.642,-444 204.642,-458 204.642,-458 204.642,-464 198.642,-470 192.642,-470"/>
<text text-anchor="middle" x="102.2139" y="-458" font-family="sans" font-size="10.00" fill="#000000">trim_primer_quality</text>
<text text-anchor="middle" x="102.2139" y="-448" font-family="sans" font-size="10.00" fill="#000000">out_dir: /Users/karthik/hpc_downloads/test</text>
<text text-anchor="middle" x="102.2139" y="-438" font-family="sans" font-size="10.00" fill="#000000">sample: ZI49b</text>
</g>
<!-- 60&#45;&gt;35 -->
<g id="edge40" class="edge">
<title>60&#45;&gt;35</title>
<path fill="none" stroke="#c0c0c0" stroke-width="2" d="M119.8173,-431.8201C127.6928,-423.2394 137.0941,-412.9962 145.571,-403.7601"/>
<polygon fill="#c0c0c0" stroke="#c0c0c0" stroke-width="2" points="148.2372,-406.0314 152.4204,-396.2973 143.08,-401.2981 148.2372,-406.0314"/>
</g>
<!-- 60&#45;&gt;53 -->
<g id="edge69" class="edge">
<title>60&#45;&gt;53</title>
<path fill="none" stroke="#c0c0c0" stroke-width="2" d="M105.1866,-431.6707C108.4655,-412.8929 114.5901,-383.8095 124.2139,-360 138.8616,-323.7608 162.6834,-285.5012 179.3301,-260.7807"/>
<polygon fill="#c0c0c0" stroke="#c0c0c0" stroke-width="2" points="182.3619,-262.5472 185.1082,-252.3145 176.5801,-258.6012 182.3619,-262.5472"/>
</g>
<!-- 61&#45;&gt;58 -->
<g id="edge75" class="edge">
<title>61&#45;&gt;58</title>
<path fill="none" stroke="#c0c0c0" stroke-width="2" d="M1135.8585,-359.8314C1130.7813,-351.7079 1124.6912,-341.9637 1119.0962,-333.0118"/>
<polygon fill="#c0c0c0" stroke="#c0c0c0" stroke-width="2" points="1121.9902,-331.0383 1113.7222,-324.4133 1116.0542,-334.7483 1121.9902,-331.0383"/>
</g>
<!-- 63 -->
<g id="node64" class="node">
<title>63</title>
<path fill="none" stroke="#c6d856" stroke-width="2" d="M2947.8859,-180C2947.8859,-180 2834.5419,-180 2834.5419,-180 2828.5419,-180 2822.5419,-174 2822.5419,-168 2822.5419,-168 2822.5419,-156 2822.5419,-156 2822.5419,-150 2828.5419,-144 2834.5419,-144 2834.5419,-144 2947.8859,-144 2947.8859,-144 2953.8859,-144 2959.8859,-150 2959.8859,-156 2959.8859,-156 2959.8859,-168 2959.8859,-168 2959.8859,-174 2953.8859,-180 2947.8859,-180"/>
<text text-anchor="middle" x="2891.2139" y="-159" font-family="sans" font-size="10.00" fill="#000000">call_variants_post_removal</text>
</g>
<!-- 62&#45;&gt;63 -->
<g id="edge81" class="edge">
<title>62&#45;&gt;63</title>
<path fill="none" stroke="#c0c0c0" stroke-width="2" d="M2891.2139,-215.8314C2891.2139,-208.131 2891.2139,-198.9743 2891.2139,-190.4166"/>
<polygon fill="#c0c0c0" stroke="#c0c0c0" stroke-width="2" points="2894.714,-190.4132 2891.2139,-180.4133 2887.714,-190.4133 2894.714,-190.4132"/>
</g>
<!-- 63&#45;&gt;70 -->
<g id="edge90" class="edge">
<title>63&#45;&gt;70</title>
<path fill="none" stroke="#c0c0c0" stroke-width="2" d="M2852.1008,-143.8314C2831.1487,-134.0988 2805.1888,-122.04 2783.1536,-111.8043"/>
<polygon fill="#c0c0c0" stroke="#c0c0c0" stroke-width="2" points="2784.5201,-108.5799 2773.9763,-107.5412 2781.571,-114.9284 2784.5201,-108.5799"/>
</g>
<!-- 64&#45;&gt;42 -->
<g id="edge48" class="edge">
<title>64&#45;&gt;42</title>
<path fill="none" stroke="#c0c0c0" stroke-width="2" d="M1499.2139,-359.8314C1499.2139,-352.131 1499.2139,-342.9743 1499.2139,-334.4166"/>
<polygon fill="#c0c0c0" stroke="#c0c0c0" stroke-width="2" points="1502.714,-334.4132 1499.2139,-324.4133 1495.714,-334.4133 1502.714,-334.4132"/>
</g>
<!-- 65&#45;&gt;5 -->
<g id="edge7" class="edge">
<title>65&#45;&gt;5</title>
<path fill="none" stroke="#c0c0c0" stroke-width="2" d="M1982.0365,-287.8314C1985.4248,-279.9617 1989.468,-270.5712 1993.2215,-261.8533"/>
<polygon fill="#c0c0c0" stroke="#c0c0c0" stroke-width="2" points="1996.546,-262.9822 1997.2859,-252.4133 1990.1166,-260.214 1996.546,-262.9822"/>
</g>
<!-- 65&#45;&gt;15 -->
<g id="edge20" class="edge">
<title>65&#45;&gt;15</title>
<path fill="none" stroke="#c0c0c0" stroke-width="2" d="M1949.989,-287.8314C1938.0511,-278.8779 1923.4883,-267.9558 1910.6078,-258.2955"/>
<polygon fill="#c0c0c0" stroke="#c0c0c0" stroke-width="2" points="1912.531,-255.3629 1902.431,-252.1628 1908.331,-260.9629 1912.531,-255.3629"/>
</g>
<!-- 66 -->
<g id="node67" class="node">
<title>66</title>
<path fill="none" stroke="#d8a456" stroke-width="2" d="M414.642,-470C414.642,-470 233.7857,-470 233.7857,-470 227.7857,-470 221.7857,-464 221.7857,-458 221.7857,-458 221.7857,-444 221.7857,-444 221.7857,-438 227.7857,-432 233.7857,-432 233.7857,-432 414.642,-432 414.642,-432 420.642,-432 426.642,-438 426.642,-444 426.642,-444 426.642,-458 426.642,-458 426.642,-464 420.642,-470 414.642,-470"/>
<text text-anchor="middle" x="324.2139" y="-458" font-family="sans" font-size="10.00" fill="#000000">trim_primer_quality</text>
<text text-anchor="middle" x="324.2139" y="-448" font-family="sans" font-size="10.00" fill="#000000">out_dir: /Users/karthik/hpc_downloads/test</text>
<text text-anchor="middle" x="324.2139" y="-438" font-family="sans" font-size="10.00" fill="#000000">sample: ZI49a</text>
</g>
<!-- 66&#45;&gt;12 -->
<g id="edge15" class="edge">
<title>66&#45;&gt;12</title>
<path fill="none" stroke="#c0c0c0" stroke-width="2" d="M324.2139,-431.7427C324.2139,-393.4125 324.2139,-307.4051 324.2139,-262.5083"/>
<polygon fill="#c0c0c0" stroke="#c0c0c0" stroke-width="2" points="327.714,-262.2909 324.2139,-252.291 320.714,-262.291 327.714,-262.2909"/>
</g>
<!-- 66&#45;&gt;14 -->
<g id="edge18" class="edge">
<title>66&#45;&gt;14</title>
<path fill="none" stroke="#c0c0c0" stroke-width="2" d="M307.3986,-431.8201C299.951,-423.3252 291.0749,-413.2009 283.0413,-404.0375"/>
<polygon fill="#c0c0c0" stroke="#c0c0c0" stroke-width="2" points="285.4795,-401.5094 276.2554,-396.2973 280.2159,-406.1241 285.4795,-401.5094"/>
</g>
<!-- 67&#45;&gt;54 -->
<g id="edge70" class="edge">
<title>67&#45;&gt;54</title>
<path fill="none" stroke="#c0c0c0" stroke-width="2" d="M1466.2139,-215.8314C1466.2139,-208.131 1466.2139,-198.9743 1466.2139,-190.4166"/>
<polygon fill="#c0c0c0" stroke="#c0c0c0" stroke-width="2" points="1469.714,-190.4132 1466.2139,-180.4133 1462.714,-190.4133 1469.714,-190.4132"/>
</g>
<!-- 68&#45;&gt;49 -->
<g id="edge65" class="edge">
<title>68&#45;&gt;49</title>
<path fill="none" stroke="#c0c0c0" stroke-width="2" d="M2448.2139,-215.8314C2448.2139,-208.131 2448.2139,-198.9743 2448.2139,-190.4166"/>
<polygon fill="#c0c0c0" stroke="#c0c0c0" stroke-width="2" points="2451.714,-190.4132 2448.2139,-180.4133 2444.714,-190.4133 2451.714,-190.4132"/>
</g>
<!-- 69&#45;&gt;57 -->
<g id="edge72" class="edge">
<title>69&#45;&gt;57</title>
<path fill="none" stroke="#c0c0c0" stroke-width="2" d="M2293.2139,-143.8314C2293.2139,-136.131 2293.2139,-126.9743 2293.2139,-118.4166"/>
<polygon fill="#c0c0c0" stroke="#c0c0c0" stroke-width="2" points="2296.714,-118.4132 2293.2139,-108.4133 2289.714,-118.4133 2296.714,-118.4132"/>
</g>
<!-- 70&#45;&gt;48 -->
<g id="edge64" class="edge">
<title>70&#45;&gt;48</title>
<path fill="none" stroke="#c0c0c0" stroke-width="2" d="M2698.2063,-87.7062C2518.8448,-76.8813 1758.3737,-30.9853 1580.525,-20.2518"/>
<polygon fill="#c0c0c0" stroke="#c0c0c0" stroke-width="2" points="1580.5575,-16.7475 1570.3648,-19.6386 1580.1357,-23.7348 1580.5575,-16.7475"/>
</g>
</g>
</svg>
