<?xml version="1.0" encoding="UTF-8" standalone="no"?>
<!DOCTYPE svg PUBLIC "-//W3C//DTD SVG 1.1//EN"
 "http://www.w3.org/Graphics/SVG/1.1/DTD/svg11.dtd">
<!-- Generated by graphviz version 2.40.1 (20161225.0304)
 -->
<!-- Title: snakemake_dag Pages: 1 -->
<svg width="2213pt" height="624pt"
 viewBox="0.00 0.00 2213.43 624.00" xmlns="http://www.w3.org/2000/svg" xmlns:xlink="http://www.w3.org/1999/xlink">
<g id="graph0" class="graph" transform="scale(1 1) rotate(0) translate(4 620)">
<title>snakemake_dag</title>
<polygon fill="#ffffff" stroke="transparent" points="-4,4 -4,-620 2209.4277,-620 2209.4277,4 -4,4"/>
<!-- 0 -->
<g id="node1" class="node">
<title>0</title>
<path fill="none" stroke="#56c9d8" stroke-width="2" d="M2148.5836,-542C2148.5836,-542 2057.8441,-542 2057.8441,-542 2051.8441,-542 2045.8441,-536 2045.8441,-530 2045.8441,-530 2045.8441,-516 2045.8441,-516 2045.8441,-510 2051.8441,-504 2057.8441,-504 2057.8441,-504 2148.5836,-504 2148.5836,-504 2154.5836,-504 2160.5836,-510 2160.5836,-516 2160.5836,-516 2160.5836,-530 2160.5836,-530 2160.5836,-536 2154.5836,-542 2148.5836,-542"/>
<text text-anchor="middle" x="2103.2139" y="-530" font-family="sans" font-size="10.00" fill="#000000">trim_primer_quality</text>
<text text-anchor="middle" x="2103.2139" y="-520" font-family="sans" font-size="10.00" fill="#000000">rep: b</text>
<text text-anchor="middle" x="2103.2139" y="-510" font-family="sans" font-size="10.00" fill="#000000">sample: ZI&#45;merge&#45;53_</text>
</g>
<!-- 49 -->
<g id="node50" class="node">
<title>49</title>
<path fill="none" stroke="#56d8a9" stroke-width="2" d="M1960.1348,-252C1960.1348,-252 1904.2929,-252 1904.2929,-252 1898.2929,-252 1892.2929,-246 1892.2929,-240 1892.2929,-240 1892.2929,-228 1892.2929,-228 1892.2929,-222 1898.2929,-216 1904.2929,-216 1904.2929,-216 1960.1348,-216 1960.1348,-216 1966.1348,-216 1972.1348,-222 1972.1348,-228 1972.1348,-228 1972.1348,-240 1972.1348,-240 1972.1348,-246 1966.1348,-252 1960.1348,-252"/>
<text text-anchor="middle" x="1932.2139" y="-231" font-family="sans" font-size="10.00" fill="#000000">remove_reads</text>
</g>
<!-- 0&#45;&gt;49 -->
<g id="edge60" class="edge">
<title>0&#45;&gt;49</title>
<path fill="none" stroke="#c0c0c0" stroke-width="2" d="M2101.9829,-503.7467C2100.1866,-484.7699 2095.8089,-455.3117 2085.2139,-432 2053.6303,-362.5083 1993.3237,-295.1319 1958.6026,-259.705"/>
<polygon fill="#c0c0c0" stroke="#c0c0c0" stroke-width="2" points="1960.7142,-256.8638 1951.1873,-252.2281 1955.744,-261.793 1960.7142,-256.8638"/>
</g>
<!-- 51 -->
<g id="node52" class="node">
<title>51</title>
<path fill="none" stroke="#afd856" stroke-width="2" d="M2064.1446,-468C2064.1446,-468 1968.2832,-468 1968.2832,-468 1962.2832,-468 1956.2832,-462 1956.2832,-456 1956.2832,-456 1956.2832,-444 1956.2832,-444 1956.2832,-438 1962.2832,-432 1968.2832,-432 1968.2832,-432 2064.1446,-432 2064.1446,-432 2070.1446,-432 2076.1446,-438 2076.1446,-444 2076.1446,-444 2076.1446,-456 2076.1446,-456 2076.1446,-462 2070.1446,-468 2064.1446,-468"/>
<text text-anchor="middle" x="2016.2139" y="-452" font-family="sans" font-size="10.00" fill="#000000">call_variants</text>
<text text-anchor="middle" x="2016.2139" y="-442" font-family="sans" font-size="10.00" fill="#000000">sample: ZI&#45;merge&#45;53_b</text>
</g>
<!-- 0&#45;&gt;51 -->
<g id="edge62" class="edge">
<title>0&#45;&gt;51</title>
<path fill="none" stroke="#c0c0c0" stroke-width="2" d="M2080.3556,-503.8201C2069.7415,-494.914 2056.9929,-484.2169 2045.6674,-474.7138"/>
<polygon fill="#c0c0c0" stroke="#c0c0c0" stroke-width="2" points="2047.6333,-471.7945 2037.723,-468.0479 2043.1338,-477.1569 2047.6333,-471.7945"/>
</g>
<!-- 1 -->
<g id="node2" class="node">
<title>1</title>
<path fill="none" stroke="#56d8a9" stroke-width="2" d="M1373.1348,-252C1373.1348,-252 1317.2929,-252 1317.2929,-252 1311.2929,-252 1305.2929,-246 1305.2929,-240 1305.2929,-240 1305.2929,-228 1305.2929,-228 1305.2929,-222 1311.2929,-216 1317.2929,-216 1317.2929,-216 1373.1348,-216 1373.1348,-216 1379.1348,-216 1385.1348,-222 1385.1348,-228 1385.1348,-228 1385.1348,-240 1385.1348,-240 1385.1348,-246 1379.1348,-252 1373.1348,-252"/>
<text text-anchor="middle" x="1345.2139" y="-231" font-family="sans" font-size="10.00" fill="#000000">remove_reads</text>
</g>
<!-- 39 -->
<g id="node40" class="node">
<title>39</title>
<path fill="none" stroke="#d88d56" stroke-width="2" d="M1395.8859,-180C1395.8859,-180 1282.5419,-180 1282.5419,-180 1276.5419,-180 1270.5419,-174 1270.5419,-168 1270.5419,-168 1270.5419,-156 1270.5419,-156 1270.5419,-150 1276.5419,-144 1282.5419,-144 1282.5419,-144 1395.8859,-144 1395.8859,-144 1401.8859,-144 1407.8859,-150 1407.8859,-156 1407.8859,-156 1407.8859,-168 1407.8859,-168 1407.8859,-174 1401.8859,-180 1395.8859,-180"/>
<text text-anchor="middle" x="1339.2139" y="-159" font-family="sans" font-size="10.00" fill="#000000">call_variants_post_removal</text>
</g>
<!-- 1&#45;&gt;39 -->
<g id="edge50" class="edge">
<title>1&#45;&gt;39</title>
<path fill="none" stroke="#c0c0c0" stroke-width="2" d="M1343.6998,-215.8314C1343.0581,-208.131 1342.2951,-198.9743 1341.5819,-190.4166"/>
<polygon fill="#c0c0c0" stroke="#c0c0c0" stroke-width="2" points="1345.0668,-190.088 1340.7483,-180.4133 1338.0909,-190.6694 1345.0668,-190.088"/>
</g>
<!-- 2 -->
<g id="node3" class="node">
<title>2</title>
<path fill="none" stroke="#56d873" stroke-width="2" d="M349.3956,-396C349.3956,-396 221.0321,-396 221.0321,-396 215.0321,-396 209.0321,-390 209.0321,-384 209.0321,-384 209.0321,-372 209.0321,-372 209.0321,-366 215.0321,-360 221.0321,-360 221.0321,-360 349.3956,-360 349.3956,-360 355.3956,-360 361.3956,-366 361.3956,-372 361.3956,-372 361.3956,-384 361.3956,-384 361.3956,-390 355.3956,-396 349.3956,-396"/>
<text text-anchor="middle" x="285.2139" y="-380" font-family="sans" font-size="10.00" fill="#000000">filter_variants_before_masking</text>
<text text-anchor="middle" x="285.2139" y="-370" font-family="sans" font-size="10.00" fill="#000000">sample: ZI&#45;merge&#45;50</text>
</g>
<!-- 14 -->
<g id="node15" class="node">
<title>14</title>
<path fill="none" stroke="#5692d8" stroke-width="2" d="M308.693,-324C308.693,-324 261.7347,-324 261.7347,-324 255.7347,-324 249.7347,-318 249.7347,-312 249.7347,-312 249.7347,-300 249.7347,-300 249.7347,-294 255.7347,-288 261.7347,-288 261.7347,-288 308.693,-288 308.693,-288 314.693,-288 320.693,-294 320.693,-300 320.693,-300 320.693,-312 320.693,-312 320.693,-318 314.693,-324 308.693,-324"/>
<text text-anchor="middle" x="285.2139" y="-303" font-family="sans" font-size="10.00" fill="#000000">get_masked</text>
</g>
<!-- 2&#45;&gt;14 -->
<g id="edge20" class="edge">
<title>2&#45;&gt;14</title>
<path fill="none" stroke="#c0c0c0" stroke-width="2" d="M285.2139,-359.8314C285.2139,-352.131 285.2139,-342.9743 285.2139,-334.4166"/>
<polygon fill="#c0c0c0" stroke="#c0c0c0" stroke-width="2" points="288.714,-334.4132 285.2139,-324.4133 281.714,-334.4133 288.714,-334.4132"/>
</g>
<!-- 3 -->
<g id="node4" class="node">
<title>3</title>
<path fill="none" stroke="#56c9d8" stroke-width="2" d="M815.5836,-542C815.5836,-542 724.8441,-542 724.8441,-542 718.8441,-542 712.8441,-536 712.8441,-530 712.8441,-530 712.8441,-516 712.8441,-516 712.8441,-510 718.8441,-504 724.8441,-504 724.8441,-504 815.5836,-504 815.5836,-504 821.5836,-504 827.5836,-510 827.5836,-516 827.5836,-516 827.5836,-530 827.5836,-530 827.5836,-536 821.5836,-542 815.5836,-542"/>
<text text-anchor="middle" x="770.2139" y="-530" font-family="sans" font-size="10.00" fill="#000000">trim_primer_quality</text>
<text text-anchor="middle" x="770.2139" y="-520" font-family="sans" font-size="10.00" fill="#000000">rep: a</text>
<text text-anchor="middle" x="770.2139" y="-510" font-family="sans" font-size="10.00" fill="#000000">sample: ZI&#45;merge&#45;51_</text>
</g>
<!-- 6 -->
<g id="node7" class="node">
<title>6</title>
<path fill="none" stroke="#56d8a9" stroke-width="2" d="M886.1348,-252C886.1348,-252 830.2929,-252 830.2929,-252 824.2929,-252 818.2929,-246 818.2929,-240 818.2929,-240 818.2929,-228 818.2929,-228 818.2929,-222 824.2929,-216 830.2929,-216 830.2929,-216 886.1348,-216 886.1348,-216 892.1348,-216 898.1348,-222 898.1348,-228 898.1348,-228 898.1348,-240 898.1348,-240 898.1348,-246 892.1348,-252 886.1348,-252"/>
<text text-anchor="middle" x="858.2139" y="-231" font-family="sans" font-size="10.00" fill="#000000">remove_reads</text>
</g>
<!-- 3&#45;&gt;6 -->
<g id="edge11" class="edge">
<title>3&#45;&gt;6</title>
<path fill="none" stroke="#c0c0c0" stroke-width="2" d="M804.9352,-503.7488C817.9401,-494.6729 831.4359,-482.6024 839.2139,-468 874.7809,-401.2257 868.7594,-308.2625 862.7601,-262.1937"/>
<polygon fill="#c0c0c0" stroke="#c0c0c0" stroke-width="2" points="866.1934,-261.473 861.3391,-252.0557 859.2612,-262.4447 866.1934,-261.473"/>
</g>
<!-- 8 -->
<g id="node9" class="node">
<title>8</title>
<path fill="none" stroke="#afd856" stroke-width="2" d="M818.1446,-468C818.1446,-468 722.2832,-468 722.2832,-468 716.2832,-468 710.2832,-462 710.2832,-456 710.2832,-456 710.2832,-444 710.2832,-444 710.2832,-438 716.2832,-432 722.2832,-432 722.2832,-432 818.1446,-432 818.1446,-432 824.1446,-432 830.1446,-438 830.1446,-444 830.1446,-444 830.1446,-456 830.1446,-456 830.1446,-462 824.1446,-468 818.1446,-468"/>
<text text-anchor="middle" x="770.2139" y="-452" font-family="sans" font-size="10.00" fill="#000000">call_variants</text>
<text text-anchor="middle" x="770.2139" y="-442" font-family="sans" font-size="10.00" fill="#000000">sample: ZI&#45;merge&#45;51_a</text>
</g>
<!-- 3&#45;&gt;8 -->
<g id="edge12" class="edge">
<title>3&#45;&gt;8</title>
<path fill="none" stroke="#c0c0c0" stroke-width="2" d="M770.2139,-503.8201C770.2139,-496.0975 770.2139,-487.0282 770.2139,-478.5585"/>
<polygon fill="#c0c0c0" stroke="#c0c0c0" stroke-width="2" points="773.714,-478.2973 770.2139,-468.2973 766.714,-478.2974 773.714,-478.2973"/>
</g>
<!-- 4 -->
<g id="node5" class="node">
<title>4</title>
<path fill="none" stroke="#5692d8" stroke-width="2" d="M1930.693,-324C1930.693,-324 1883.7347,-324 1883.7347,-324 1877.7347,-324 1871.7347,-318 1871.7347,-312 1871.7347,-312 1871.7347,-300 1871.7347,-300 1871.7347,-294 1877.7347,-288 1883.7347,-288 1883.7347,-288 1930.693,-288 1930.693,-288 1936.693,-288 1942.693,-294 1942.693,-300 1942.693,-300 1942.693,-312 1942.693,-312 1942.693,-318 1936.693,-324 1930.693,-324"/>
<text text-anchor="middle" x="1907.2139" y="-303" font-family="sans" font-size="10.00" fill="#000000">get_masked</text>
</g>
<!-- 15 -->
<g id="node16" class="node">
<title>15</title>
<path fill="none" stroke="#56d8a9" stroke-width="2" d="M1818.1348,-252C1818.1348,-252 1762.2929,-252 1762.2929,-252 1756.2929,-252 1750.2929,-246 1750.2929,-240 1750.2929,-240 1750.2929,-228 1750.2929,-228 1750.2929,-222 1756.2929,-216 1762.2929,-216 1762.2929,-216 1818.1348,-216 1818.1348,-216 1824.1348,-216 1830.1348,-222 1830.1348,-228 1830.1348,-228 1830.1348,-240 1830.1348,-240 1830.1348,-246 1824.1348,-252 1818.1348,-252"/>
<text text-anchor="middle" x="1790.2139" y="-231" font-family="sans" font-size="10.00" fill="#000000">remove_reads</text>
</g>
<!-- 4&#45;&gt;15 -->
<g id="edge21" class="edge">
<title>4&#45;&gt;15</title>
<path fill="none" stroke="#c0c0c0" stroke-width="2" d="M1877.6898,-287.8314C1862.7248,-278.6221 1844.3753,-267.3301 1828.3536,-257.4706"/>
<polygon fill="#c0c0c0" stroke="#c0c0c0" stroke-width="2" points="1830.0794,-254.423 1819.7285,-252.1628 1826.4107,-260.3847 1830.0794,-254.423"/>
</g>
<!-- 4&#45;&gt;49 -->
<g id="edge59" class="edge">
<title>4&#45;&gt;49</title>
<path fill="none" stroke="#c0c0c0" stroke-width="2" d="M1913.5224,-287.8314C1916.2256,-280.0463 1919.4455,-270.7729 1922.4449,-262.1347"/>
<polygon fill="#c0c0c0" stroke="#c0c0c0" stroke-width="2" points="1925.8465,-263.0081 1925.8204,-252.4133 1919.2338,-260.7119 1925.8465,-263.0081"/>
</g>
<!-- 5 -->
<g id="node6" class="node">
<title>5</title>
<path fill="none" stroke="#56d8a9" stroke-width="2" d="M442.1348,-252C442.1348,-252 386.2929,-252 386.2929,-252 380.2929,-252 374.2929,-246 374.2929,-240 374.2929,-240 374.2929,-228 374.2929,-228 374.2929,-222 380.2929,-216 386.2929,-216 386.2929,-216 442.1348,-216 442.1348,-216 448.1348,-216 454.1348,-222 454.1348,-228 454.1348,-228 454.1348,-240 454.1348,-240 454.1348,-246 448.1348,-252 442.1348,-252"/>
<text text-anchor="middle" x="414.2139" y="-231" font-family="sans" font-size="10.00" fill="#000000">remove_reads</text>
</g>
<!-- 43 -->
<g id="node44" class="node">
<title>43</title>
<path fill="none" stroke="#d88d56" stroke-width="2" d="M483.8859,-180C483.8859,-180 370.5419,-180 370.5419,-180 364.5419,-180 358.5419,-174 358.5419,-168 358.5419,-168 358.5419,-156 358.5419,-156 358.5419,-150 364.5419,-144 370.5419,-144 370.5419,-144 483.8859,-144 483.8859,-144 489.8859,-144 495.8859,-150 495.8859,-156 495.8859,-156 495.8859,-168 495.8859,-168 495.8859,-174 489.8859,-180 483.8859,-180"/>
<text text-anchor="middle" x="427.2139" y="-159" font-family="sans" font-size="10.00" fill="#000000">call_variants_post_removal</text>
</g>
<!-- 5&#45;&gt;43 -->
<g id="edge54" class="edge">
<title>5&#45;&gt;43</title>
<path fill="none" stroke="#c0c0c0" stroke-width="2" d="M417.4943,-215.8314C418.8847,-208.131 420.5379,-198.9743 422.0831,-190.4166"/>
<polygon fill="#c0c0c0" stroke="#c0c0c0" stroke-width="2" points="425.5567,-190.8761 423.8892,-180.4133 418.668,-189.6322 425.5567,-190.8761"/>
</g>
<!-- 60 -->
<g id="node61" class="node">
<title>60</title>
<path fill="none" stroke="#d88d56" stroke-width="2" d="M926.8859,-180C926.8859,-180 813.5419,-180 813.5419,-180 807.5419,-180 801.5419,-174 801.5419,-168 801.5419,-168 801.5419,-156 801.5419,-156 801.5419,-150 807.5419,-144 813.5419,-144 813.5419,-144 926.8859,-144 926.8859,-144 932.8859,-144 938.8859,-150 938.8859,-156 938.8859,-156 938.8859,-168 938.8859,-168 938.8859,-174 932.8859,-180 926.8859,-180"/>
<text text-anchor="middle" x="870.2139" y="-159" font-family="sans" font-size="10.00" fill="#000000">call_variants_post_removal</text>
</g>
<!-- 6&#45;&gt;60 -->
<g id="edge73" class="edge">
<title>6&#45;&gt;60</title>
<path fill="none" stroke="#c0c0c0" stroke-width="2" d="M861.242,-215.8314C862.5254,-208.131 864.0515,-198.9743 865.4778,-190.4166"/>
<polygon fill="#c0c0c0" stroke="#c0c0c0" stroke-width="2" points="868.9533,-190.8526 867.145,-180.4133 862.0485,-189.7018 868.9533,-190.8526"/>
</g>
<!-- 7 -->
<g id="node8" class="node">
<title>7</title>
<path fill="none" stroke="#70d856" stroke-width="2" d="M1969.642,-616C1969.642,-616 1788.7857,-616 1788.7857,-616 1782.7857,-616 1776.7857,-610 1776.7857,-604 1776.7857,-604 1776.7857,-590 1776.7857,-590 1776.7857,-584 1782.7857,-578 1788.7857,-578 1788.7857,-578 1969.642,-578 1969.642,-578 1975.642,-578 1981.642,-584 1981.642,-590 1981.642,-590 1981.642,-604 1981.642,-604 1981.642,-610 1975.642,-616 1969.642,-616"/>
<text text-anchor="middle" x="1879.2139" y="-604" font-family="sans" font-size="10.00" fill="#000000">align_reads</text>
<text text-anchor="middle" x="1879.2139" y="-594" font-family="sans" font-size="10.00" fill="#000000">out_dir: /Users/karthik/hpc_downloads/test</text>
<text text-anchor="middle" x="1879.2139" y="-584" font-family="sans" font-size="10.00" fill="#000000">sample: ZI&#45;merge&#45;53_a</text>
</g>
<!-- 58 -->
<g id="node59" class="node">
<title>58</title>
<path fill="none" stroke="#56c9d8" stroke-width="2" d="M1923.5836,-542C1923.5836,-542 1832.8441,-542 1832.8441,-542 1826.8441,-542 1820.8441,-536 1820.8441,-530 1820.8441,-530 1820.8441,-516 1820.8441,-516 1820.8441,-510 1826.8441,-504 1832.8441,-504 1832.8441,-504 1923.5836,-504 1923.5836,-504 1929.5836,-504 1935.5836,-510 1935.5836,-516 1935.5836,-516 1935.5836,-530 1935.5836,-530 1935.5836,-536 1929.5836,-542 1923.5836,-542"/>
<text text-anchor="middle" x="1878.2139" y="-530" font-family="sans" font-size="10.00" fill="#000000">trim_primer_quality</text>
<text text-anchor="middle" x="1878.2139" y="-520" font-family="sans" font-size="10.00" fill="#000000">rep: a</text>
<text text-anchor="middle" x="1878.2139" y="-510" font-family="sans" font-size="10.00" fill="#000000">sample: ZI&#45;merge&#45;53_</text>
</g>
<!-- 7&#45;&gt;58 -->
<g id="edge72" class="edge">
<title>7&#45;&gt;58</title>
<path fill="none" stroke="#c0c0c0" stroke-width="2" d="M1878.9563,-577.9432C1878.851,-570.1493 1878.7268,-560.9538 1878.6103,-552.3381"/>
<polygon fill="#c0c0c0" stroke="#c0c0c0" stroke-width="2" points="1882.1089,-552.2012 1878.474,-542.2495 1875.1095,-552.2959 1882.1089,-552.2012"/>
</g>
<!-- 11 -->
<g id="node12" class="node">
<title>11</title>
<path fill="none" stroke="#56d873" stroke-width="2" d="M798.3956,-396C798.3956,-396 670.0321,-396 670.0321,-396 664.0321,-396 658.0321,-390 658.0321,-384 658.0321,-384 658.0321,-372 658.0321,-372 658.0321,-366 664.0321,-360 670.0321,-360 670.0321,-360 798.3956,-360 798.3956,-360 804.3956,-360 810.3956,-366 810.3956,-372 810.3956,-372 810.3956,-384 810.3956,-384 810.3956,-390 804.3956,-396 798.3956,-396"/>
<text text-anchor="middle" x="734.2139" y="-380" font-family="sans" font-size="10.00" fill="#000000">filter_variants_before_masking</text>
<text text-anchor="middle" x="734.2139" y="-370" font-family="sans" font-size="10.00" fill="#000000">sample: ZI&#45;merge&#45;51</text>
</g>
<!-- 8&#45;&gt;11 -->
<g id="edge17" class="edge">
<title>8&#45;&gt;11</title>
<path fill="none" stroke="#c0c0c0" stroke-width="2" d="M761.1295,-431.8314C757.1524,-423.8771 752.3984,-414.369 748,-405.5723"/>
<polygon fill="#c0c0c0" stroke="#c0c0c0" stroke-width="2" points="751.0232,-403.7923 743.4205,-396.4133 744.7622,-406.9228 751.0232,-403.7923"/>
</g>
<!-- 9 -->
<g id="node10" class="node">
<title>9</title>
<path fill="none" stroke="#d8cb56" stroke-width="2" d="M453.1831,-108C453.1831,-108 401.2446,-108 401.2446,-108 395.2446,-108 389.2446,-102 389.2446,-96 389.2446,-96 389.2446,-84 389.2446,-84 389.2446,-78 395.2446,-72 401.2446,-72 401.2446,-72 453.1831,-72 453.1831,-72 459.1831,-72 465.1831,-78 465.1831,-84 465.1831,-84 465.1831,-96 465.1831,-96 465.1831,-102 459.1831,-108 453.1831,-108"/>
<text text-anchor="middle" x="427.2139" y="-87" font-family="sans" font-size="10.00" fill="#000000">filter_variants</text>
</g>
<!-- 30 -->
<g id="node31" class="node">
<title>30</title>
<path fill="none" stroke="#d85656" stroke-width="2" d="M1120.2139,-36C1120.2139,-36 1090.2139,-36 1090.2139,-36 1084.2139,-36 1078.2139,-30 1078.2139,-24 1078.2139,-24 1078.2139,-12 1078.2139,-12 1078.2139,-6 1084.2139,0 1090.2139,0 1090.2139,0 1120.2139,0 1120.2139,0 1126.2139,0 1132.2139,-6 1132.2139,-12 1132.2139,-12 1132.2139,-24 1132.2139,-24 1132.2139,-30 1126.2139,-36 1120.2139,-36"/>
<text text-anchor="middle" x="1105.2139" y="-15" font-family="sans" font-size="10.00" fill="#000000">all</text>
</g>
<!-- 9&#45;&gt;30 -->
<g id="edge43" class="edge">
<title>9&#45;&gt;30</title>
<path fill="none" stroke="#c0c0c0" stroke-width="2" d="M465.1189,-85.9747C584.2281,-73.3259 950.0493,-34.4777 1068.0827,-21.9431"/>
<polygon fill="#c0c0c0" stroke="#c0c0c0" stroke-width="2" points="1068.5047,-25.4181 1078.0791,-20.8816 1067.7654,-18.4572 1068.5047,-25.4181"/>
</g>
<!-- 10 -->
<g id="node11" class="node">
<title>10</title>
<path fill="none" stroke="#d88d56" stroke-width="2" d="M1084.8859,-180C1084.8859,-180 971.5419,-180 971.5419,-180 965.5419,-180 959.5419,-174 959.5419,-168 959.5419,-168 959.5419,-156 959.5419,-156 959.5419,-150 965.5419,-144 971.5419,-144 971.5419,-144 1084.8859,-144 1084.8859,-144 1090.8859,-144 1096.8859,-150 1096.8859,-156 1096.8859,-156 1096.8859,-168 1096.8859,-168 1096.8859,-174 1090.8859,-180 1084.8859,-180"/>
<text text-anchor="middle" x="1028.2139" y="-159" font-family="sans" font-size="10.00" fill="#000000">call_variants_post_removal</text>
</g>
<!-- 23 -->
<g id="node24" class="node">
<title>23</title>
<path fill="none" stroke="#d8cb56" stroke-width="2" d="M1131.1831,-108C1131.1831,-108 1079.2446,-108 1079.2446,-108 1073.2446,-108 1067.2446,-102 1067.2446,-96 1067.2446,-96 1067.2446,-84 1067.2446,-84 1067.2446,-78 1073.2446,-72 1079.2446,-72 1079.2446,-72 1131.1831,-72 1131.1831,-72 1137.1831,-72 1143.1831,-78 1143.1831,-84 1143.1831,-84 1143.1831,-96 1143.1831,-96 1143.1831,-102 1137.1831,-108 1131.1831,-108"/>
<text text-anchor="middle" x="1105.2139" y="-87" font-family="sans" font-size="10.00" fill="#000000">filter_variants</text>
</g>
<!-- 10&#45;&gt;23 -->
<g id="edge34" class="edge">
<title>10&#45;&gt;23</title>
<path fill="none" stroke="#c0c0c0" stroke-width="2" d="M1047.6442,-143.8314C1056.9458,-135.1337 1068.2343,-124.5783 1078.3424,-115.1265"/>
<polygon fill="#c0c0c0" stroke="#c0c0c0" stroke-width="2" points="1080.876,-117.5493 1085.7897,-108.1628 1076.095,-112.4363 1080.876,-117.5493"/>
</g>
<!-- 24 -->
<g id="node25" class="node">
<title>24</title>
<path fill="none" stroke="#5692d8" stroke-width="2" d="M757.693,-324C757.693,-324 710.7347,-324 710.7347,-324 704.7347,-324 698.7347,-318 698.7347,-312 698.7347,-312 698.7347,-300 698.7347,-300 698.7347,-294 704.7347,-288 710.7347,-288 710.7347,-288 757.693,-288 757.693,-288 763.693,-288 769.693,-294 769.693,-300 769.693,-300 769.693,-312 769.693,-312 769.693,-318 763.693,-324 757.693,-324"/>
<text text-anchor="middle" x="734.2139" y="-303" font-family="sans" font-size="10.00" fill="#000000">get_masked</text>
</g>
<!-- 11&#45;&gt;24 -->
<g id="edge35" class="edge">
<title>11&#45;&gt;24</title>
<path fill="none" stroke="#c0c0c0" stroke-width="2" d="M734.2139,-359.8314C734.2139,-352.131 734.2139,-342.9743 734.2139,-334.4166"/>
<polygon fill="#c0c0c0" stroke="#c0c0c0" stroke-width="2" points="737.714,-334.4132 734.2139,-324.4133 730.714,-334.4133 737.714,-334.4132"/>
</g>
<!-- 12 -->
<g id="node13" class="node">
<title>12</title>
<path fill="none" stroke="#70d856" stroke-width="2" d="M1525.642,-616C1525.642,-616 1344.7857,-616 1344.7857,-616 1338.7857,-616 1332.7857,-610 1332.7857,-604 1332.7857,-604 1332.7857,-590 1332.7857,-590 1332.7857,-584 1338.7857,-578 1344.7857,-578 1344.7857,-578 1525.642,-578 1525.642,-578 1531.642,-578 1537.642,-584 1537.642,-590 1537.642,-590 1537.642,-604 1537.642,-604 1537.642,-610 1531.642,-616 1525.642,-616"/>
<text text-anchor="middle" x="1435.2139" y="-604" font-family="sans" font-size="10.00" fill="#000000">align_reads</text>
<text text-anchor="middle" x="1435.2139" y="-594" font-family="sans" font-size="10.00" fill="#000000">out_dir: /Users/karthik/hpc_downloads/test</text>
<text text-anchor="middle" x="1435.2139" y="-584" font-family="sans" font-size="10.00" fill="#000000">sample: ZI&#45;merge&#45;52_b</text>
</g>
<!-- 32 -->
<g id="node33" class="node">
<title>32</title>
<path fill="none" stroke="#56c9d8" stroke-width="2" d="M1478.5836,-542C1478.5836,-542 1387.8441,-542 1387.8441,-542 1381.8441,-542 1375.8441,-536 1375.8441,-530 1375.8441,-530 1375.8441,-516 1375.8441,-516 1375.8441,-510 1381.8441,-504 1387.8441,-504 1387.8441,-504 1478.5836,-504 1478.5836,-504 1484.5836,-504 1490.5836,-510 1490.5836,-516 1490.5836,-516 1490.5836,-530 1490.5836,-530 1490.5836,-536 1484.5836,-542 1478.5836,-542"/>
<text text-anchor="middle" x="1433.2139" y="-530" font-family="sans" font-size="10.00" fill="#000000">trim_primer_quality</text>
<text text-anchor="middle" x="1433.2139" y="-520" font-family="sans" font-size="10.00" fill="#000000">rep: b</text>
<text text-anchor="middle" x="1433.2139" y="-510" font-family="sans" font-size="10.00" fill="#000000">sample: ZI&#45;merge&#45;52_</text>
</g>
<!-- 12&#45;&gt;32 -->
<g id="edge45" class="edge">
<title>12&#45;&gt;32</title>
<path fill="none" stroke="#c0c0c0" stroke-width="2" d="M1434.6988,-577.9432C1434.4882,-570.1493 1434.2396,-560.9538 1434.0068,-552.3381"/>
<polygon fill="#c0c0c0" stroke="#c0c0c0" stroke-width="2" points="1437.5031,-552.1512 1433.7341,-542.2495 1430.5057,-552.3404 1437.5031,-552.1512"/>
</g>
<!-- 13 -->
<g id="node14" class="node">
<title>13</title>
<path fill="none" stroke="#d8cb56" stroke-width="2" d="M896.1831,-108C896.1831,-108 844.2446,-108 844.2446,-108 838.2446,-108 832.2446,-102 832.2446,-96 832.2446,-96 832.2446,-84 832.2446,-84 832.2446,-78 838.2446,-72 844.2446,-72 844.2446,-72 896.1831,-72 896.1831,-72 902.1831,-72 908.1831,-78 908.1831,-84 908.1831,-84 908.1831,-96 908.1831,-96 908.1831,-102 902.1831,-108 896.1831,-108"/>
<text text-anchor="middle" x="870.2139" y="-87" font-family="sans" font-size="10.00" fill="#000000">filter_variants</text>
</g>
<!-- 13&#45;&gt;30 -->
<g id="edge41" class="edge">
<title>13&#45;&gt;30</title>
<path fill="none" stroke="#c0c0c0" stroke-width="2" d="M907.9707,-78.432C952.1458,-64.8974 1024.7934,-42.6395 1068.51,-29.2454"/>
<polygon fill="#c0c0c0" stroke="#c0c0c0" stroke-width="2" points="1069.6362,-32.5611 1078.1722,-26.2851 1067.5855,-25.8681 1069.6362,-32.5611"/>
</g>
<!-- 14&#45;&gt;5 -->
<g id="edge9" class="edge">
<title>14&#45;&gt;5</title>
<path fill="none" stroke="#c0c0c0" stroke-width="2" d="M317.766,-287.8314C334.4187,-278.5368 354.8724,-267.1208 372.6524,-257.1971"/>
<polygon fill="#c0c0c0" stroke="#c0c0c0" stroke-width="2" points="374.6459,-260.0927 381.6721,-252.1628 371.2343,-253.9803 374.6459,-260.0927"/>
</g>
<!-- 64 -->
<g id="node65" class="node">
<title>64</title>
<path fill="none" stroke="#56d8a9" stroke-width="2" d="M300.1348,-252C300.1348,-252 244.2929,-252 244.2929,-252 238.2929,-252 232.2929,-246 232.2929,-240 232.2929,-240 232.2929,-228 232.2929,-228 232.2929,-222 238.2929,-216 244.2929,-216 244.2929,-216 300.1348,-216 300.1348,-216 306.1348,-216 312.1348,-222 312.1348,-228 312.1348,-228 312.1348,-240 312.1348,-240 312.1348,-246 306.1348,-252 300.1348,-252"/>
<text text-anchor="middle" x="272.2139" y="-231" font-family="sans" font-size="10.00" fill="#000000">remove_reads</text>
</g>
<!-- 14&#45;&gt;64 -->
<g id="edge77" class="edge">
<title>14&#45;&gt;64</title>
<path fill="none" stroke="#c0c0c0" stroke-width="2" d="M281.9334,-287.8314C280.5431,-280.131 278.8898,-270.9743 277.3446,-262.4166"/>
<polygon fill="#c0c0c0" stroke="#c0c0c0" stroke-width="2" points="280.7597,-261.6322 275.5385,-252.4133 273.8711,-262.8761 280.7597,-261.6322"/>
</g>
<!-- 33 -->
<g id="node34" class="node">
<title>33</title>
<path fill="none" stroke="#d88d56" stroke-width="2" d="M1833.8859,-180C1833.8859,-180 1720.5419,-180 1720.5419,-180 1714.5419,-180 1708.5419,-174 1708.5419,-168 1708.5419,-168 1708.5419,-156 1708.5419,-156 1708.5419,-150 1714.5419,-144 1720.5419,-144 1720.5419,-144 1833.8859,-144 1833.8859,-144 1839.8859,-144 1845.8859,-150 1845.8859,-156 1845.8859,-156 1845.8859,-168 1845.8859,-168 1845.8859,-174 1839.8859,-180 1833.8859,-180"/>
<text text-anchor="middle" x="1777.2139" y="-159" font-family="sans" font-size="10.00" fill="#000000">call_variants_post_removal</text>
</g>
<!-- 15&#45;&gt;33 -->
<g id="edge46" class="edge">
<title>15&#45;&gt;33</title>
<path fill="none" stroke="#c0c0c0" stroke-width="2" d="M1786.9334,-215.8314C1785.5431,-208.131 1783.8898,-198.9743 1782.3446,-190.4166"/>
<polygon fill="#c0c0c0" stroke="#c0c0c0" stroke-width="2" points="1785.7597,-189.6322 1780.5385,-180.4133 1778.8711,-190.8761 1785.7597,-189.6322"/>
</g>
<!-- 16 -->
<g id="node17" class="node">
<title>16</title>
<path fill="none" stroke="#56d873" stroke-width="2" d="M1971.3956,-396C1971.3956,-396 1843.0321,-396 1843.0321,-396 1837.0321,-396 1831.0321,-390 1831.0321,-384 1831.0321,-384 1831.0321,-372 1831.0321,-372 1831.0321,-366 1837.0321,-360 1843.0321,-360 1843.0321,-360 1971.3956,-360 1971.3956,-360 1977.3956,-360 1983.3956,-366 1983.3956,-372 1983.3956,-372 1983.3956,-384 1983.3956,-384 1983.3956,-390 1977.3956,-396 1971.3956,-396"/>
<text text-anchor="middle" x="1907.2139" y="-380" font-family="sans" font-size="10.00" fill="#000000">filter_variants_before_masking</text>
<text text-anchor="middle" x="1907.2139" y="-370" font-family="sans" font-size="10.00" fill="#000000">sample: ZI&#45;merge&#45;53</text>
</g>
<!-- 16&#45;&gt;4 -->
<g id="edge7" class="edge">
<title>16&#45;&gt;4</title>
<path fill="none" stroke="#c0c0c0" stroke-width="2" d="M1907.2139,-359.8314C1907.2139,-352.131 1907.2139,-342.9743 1907.2139,-334.4166"/>
<polygon fill="#c0c0c0" stroke="#c0c0c0" stroke-width="2" points="1910.714,-334.4132 1907.2139,-324.4133 1903.714,-334.4133 1910.714,-334.4132"/>
</g>
<!-- 17 -->
<g id="node18" class="node">
<title>17</title>
<path fill="none" stroke="#d88d56" stroke-width="2" d="M1550.8859,-180C1550.8859,-180 1437.5419,-180 1437.5419,-180 1431.5419,-180 1425.5419,-174 1425.5419,-168 1425.5419,-168 1425.5419,-156 1425.5419,-156 1425.5419,-150 1431.5419,-144 1437.5419,-144 1437.5419,-144 1550.8859,-144 1550.8859,-144 1556.8859,-144 1562.8859,-150 1562.8859,-156 1562.8859,-156 1562.8859,-168 1562.8859,-168 1562.8859,-174 1556.8859,-180 1550.8859,-180"/>
<text text-anchor="middle" x="1494.2139" y="-159" font-family="sans" font-size="10.00" fill="#000000">call_variants_post_removal</text>
</g>
<!-- 57 -->
<g id="node58" class="node">
<title>57</title>
<path fill="none" stroke="#d8cb56" stroke-width="2" d="M1365.1831,-108C1365.1831,-108 1313.2446,-108 1313.2446,-108 1307.2446,-108 1301.2446,-102 1301.2446,-96 1301.2446,-96 1301.2446,-84 1301.2446,-84 1301.2446,-78 1307.2446,-72 1313.2446,-72 1313.2446,-72 1365.1831,-72 1365.1831,-72 1371.1831,-72 1377.1831,-78 1377.1831,-84 1377.1831,-84 1377.1831,-96 1377.1831,-96 1377.1831,-102 1371.1831,-108 1365.1831,-108"/>
<text text-anchor="middle" x="1339.2139" y="-87" font-family="sans" font-size="10.00" fill="#000000">filter_variants</text>
</g>
<!-- 17&#45;&gt;57 -->
<g id="edge70" class="edge">
<title>17&#45;&gt;57</title>
<path fill="none" stroke="#c0c0c0" stroke-width="2" d="M1455.1008,-143.8314C1434.1487,-134.0988 1408.1888,-122.04 1386.1536,-111.8043"/>
<polygon fill="#c0c0c0" stroke="#c0c0c0" stroke-width="2" points="1387.5201,-108.5799 1376.9763,-107.5412 1384.571,-114.9284 1387.5201,-108.5799"/>
</g>
<!-- 18 -->
<g id="node19" class="node">
<title>18</title>
<path fill="none" stroke="#56c9d8" stroke-width="2" d="M371.5836,-542C371.5836,-542 280.8441,-542 280.8441,-542 274.8441,-542 268.8441,-536 268.8441,-530 268.8441,-530 268.8441,-516 268.8441,-516 268.8441,-510 274.8441,-504 280.8441,-504 280.8441,-504 371.5836,-504 371.5836,-504 377.5836,-504 383.5836,-510 383.5836,-516 383.5836,-516 383.5836,-530 383.5836,-530 383.5836,-536 377.5836,-542 371.5836,-542"/>
<text text-anchor="middle" x="326.2139" y="-530" font-family="sans" font-size="10.00" fill="#000000">trim_primer_quality</text>
<text text-anchor="middle" x="326.2139" y="-520" font-family="sans" font-size="10.00" fill="#000000">rep: a</text>
<text text-anchor="middle" x="326.2139" y="-510" font-family="sans" font-size="10.00" fill="#000000">sample: ZI&#45;merge&#45;50_</text>
</g>
<!-- 18&#45;&gt;5 -->
<g id="edge8" class="edge">
<title>18&#45;&gt;5</title>
<path fill="none" stroke="#c0c0c0" stroke-width="2" d="M360.9352,-503.7488C373.9401,-494.6729 387.4359,-482.6024 395.2139,-468 430.7809,-401.2257 424.7594,-308.2625 418.7601,-262.1937"/>
<polygon fill="#c0c0c0" stroke="#c0c0c0" stroke-width="2" points="422.1934,-261.473 417.3391,-252.0557 415.2612,-262.4447 422.1934,-261.473"/>
</g>
<!-- 41 -->
<g id="node42" class="node">
<title>41</title>
<path fill="none" stroke="#afd856" stroke-width="2" d="M374.1446,-468C374.1446,-468 278.2832,-468 278.2832,-468 272.2832,-468 266.2832,-462 266.2832,-456 266.2832,-456 266.2832,-444 266.2832,-444 266.2832,-438 272.2832,-432 278.2832,-432 278.2832,-432 374.1446,-432 374.1446,-432 380.1446,-432 386.1446,-438 386.1446,-444 386.1446,-444 386.1446,-456 386.1446,-456 386.1446,-462 380.1446,-468 374.1446,-468"/>
<text text-anchor="middle" x="326.2139" y="-452" font-family="sans" font-size="10.00" fill="#000000">call_variants</text>
<text text-anchor="middle" x="326.2139" y="-442" font-family="sans" font-size="10.00" fill="#000000">sample: ZI&#45;merge&#45;50_a</text>
</g>
<!-- 18&#45;&gt;41 -->
<g id="edge52" class="edge">
<title>18&#45;&gt;41</title>
<path fill="none" stroke="#c0c0c0" stroke-width="2" d="M326.2139,-503.8201C326.2139,-496.0975 326.2139,-487.0282 326.2139,-478.5585"/>
<polygon fill="#c0c0c0" stroke="#c0c0c0" stroke-width="2" points="329.714,-478.2973 326.2139,-468.2973 322.714,-478.2974 329.714,-478.2973"/>
</g>
<!-- 19 -->
<g id="node20" class="node">
<title>19</title>
<path fill="none" stroke="#56d873" stroke-width="2" d="M1208.3956,-396C1208.3956,-396 1080.0321,-396 1080.0321,-396 1074.0321,-396 1068.0321,-390 1068.0321,-384 1068.0321,-384 1068.0321,-372 1068.0321,-372 1068.0321,-366 1074.0321,-360 1080.0321,-360 1080.0321,-360 1208.3956,-360 1208.3956,-360 1214.3956,-360 1220.3956,-366 1220.3956,-372 1220.3956,-372 1220.3956,-384 1220.3956,-384 1220.3956,-390 1214.3956,-396 1208.3956,-396"/>
<text text-anchor="middle" x="1144.2139" y="-380" font-family="sans" font-size="10.00" fill="#000000">filter_variants_before_masking</text>
<text text-anchor="middle" x="1144.2139" y="-370" font-family="sans" font-size="10.00" fill="#000000">sample: ZI&#45;merge&#45;49</text>
</g>
<!-- 26 -->
<g id="node27" class="node">
<title>26</title>
<path fill="none" stroke="#5692d8" stroke-width="2" d="M1167.693,-324C1167.693,-324 1120.7347,-324 1120.7347,-324 1114.7347,-324 1108.7347,-318 1108.7347,-312 1108.7347,-312 1108.7347,-300 1108.7347,-300 1108.7347,-294 1114.7347,-288 1120.7347,-288 1120.7347,-288 1167.693,-288 1167.693,-288 1173.693,-288 1179.693,-294 1179.693,-300 1179.693,-300 1179.693,-312 1179.693,-312 1179.693,-318 1173.693,-324 1167.693,-324"/>
<text text-anchor="middle" x="1144.2139" y="-303" font-family="sans" font-size="10.00" fill="#000000">get_masked</text>
</g>
<!-- 19&#45;&gt;26 -->
<g id="edge37" class="edge">
<title>19&#45;&gt;26</title>
<path fill="none" stroke="#c0c0c0" stroke-width="2" d="M1144.2139,-359.8314C1144.2139,-352.131 1144.2139,-342.9743 1144.2139,-334.4166"/>
<polygon fill="#c0c0c0" stroke="#c0c0c0" stroke-width="2" points="1147.714,-334.4132 1144.2139,-324.4133 1140.714,-334.4133 1147.714,-334.4132"/>
</g>
<!-- 20 -->
<g id="node21" class="node">
<title>20</title>
<path fill="none" stroke="#56c9d8" stroke-width="2" d="M1258.5836,-542C1258.5836,-542 1167.8441,-542 1167.8441,-542 1161.8441,-542 1155.8441,-536 1155.8441,-530 1155.8441,-530 1155.8441,-516 1155.8441,-516 1155.8441,-510 1161.8441,-504 1167.8441,-504 1167.8441,-504 1258.5836,-504 1258.5836,-504 1264.5836,-504 1270.5836,-510 1270.5836,-516 1270.5836,-516 1270.5836,-530 1270.5836,-530 1270.5836,-536 1264.5836,-542 1258.5836,-542"/>
<text text-anchor="middle" x="1213.2139" y="-530" font-family="sans" font-size="10.00" fill="#000000">trim_primer_quality</text>
<text text-anchor="middle" x="1213.2139" y="-520" font-family="sans" font-size="10.00" fill="#000000">rep: a</text>
<text text-anchor="middle" x="1213.2139" y="-510" font-family="sans" font-size="10.00" fill="#000000">sample: ZI&#45;merge&#45;49_</text>
</g>
<!-- 21 -->
<g id="node22" class="node">
<title>21</title>
<path fill="none" stroke="#56d8a9" stroke-width="2" d="M1211.1348,-252C1211.1348,-252 1155.2929,-252 1155.2929,-252 1149.2929,-252 1143.2929,-246 1143.2929,-240 1143.2929,-240 1143.2929,-228 1143.2929,-228 1143.2929,-222 1149.2929,-216 1155.2929,-216 1155.2929,-216 1211.1348,-216 1211.1348,-216 1217.1348,-216 1223.1348,-222 1223.1348,-228 1223.1348,-228 1223.1348,-240 1223.1348,-240 1223.1348,-246 1217.1348,-252 1211.1348,-252"/>
<text text-anchor="middle" x="1183.2139" y="-231" font-family="sans" font-size="10.00" fill="#000000">remove_reads</text>
</g>
<!-- 20&#45;&gt;21 -->
<g id="edge30" class="edge">
<title>20&#45;&gt;21</title>
<path fill="none" stroke="#c0c0c0" stroke-width="2" d="M1224.3655,-503.8475C1229.7001,-493.5836 1235.5049,-480.5063 1238.2139,-468 1241.6011,-452.3626 1239.2081,-447.9691 1238.2139,-432 1236.21,-399.8133 1236.7918,-391.346 1229.2139,-360 1220.8083,-325.2303 1205.928,-286.8212 1195.3695,-261.6589"/>
<polygon fill="#c0c0c0" stroke="#c0c0c0" stroke-width="2" points="1198.5559,-260.2082 1191.4185,-252.3783 1192.1153,-262.9502 1198.5559,-260.2082"/>
</g>
<!-- 62 -->
<g id="node63" class="node">
<title>62</title>
<path fill="none" stroke="#afd856" stroke-width="2" d="M1217.1446,-468C1217.1446,-468 1121.2832,-468 1121.2832,-468 1115.2832,-468 1109.2832,-462 1109.2832,-456 1109.2832,-456 1109.2832,-444 1109.2832,-444 1109.2832,-438 1115.2832,-432 1121.2832,-432 1121.2832,-432 1217.1446,-432 1217.1446,-432 1223.1446,-432 1229.1446,-438 1229.1446,-444 1229.1446,-444 1229.1446,-456 1229.1446,-456 1229.1446,-462 1223.1446,-468 1217.1446,-468"/>
<text text-anchor="middle" x="1169.2139" y="-452" font-family="sans" font-size="10.00" fill="#000000">call_variants</text>
<text text-anchor="middle" x="1169.2139" y="-442" font-family="sans" font-size="10.00" fill="#000000">sample: ZI&#45;merge&#45;49_a</text>
</g>
<!-- 20&#45;&gt;62 -->
<g id="edge75" class="edge">
<title>20&#45;&gt;62</title>
<path fill="none" stroke="#c0c0c0" stroke-width="2" d="M1201.6534,-503.8201C1196.6883,-495.5826 1190.7998,-485.813 1185.4114,-476.8731"/>
<polygon fill="#c0c0c0" stroke="#c0c0c0" stroke-width="2" points="1188.4023,-475.0551 1180.2424,-468.2973 1182.407,-478.6687 1188.4023,-475.0551"/>
</g>
<!-- 61 -->
<g id="node62" class="node">
<title>61</title>
<path fill="none" stroke="#d88d56" stroke-width="2" d="M1239.8859,-180C1239.8859,-180 1126.5419,-180 1126.5419,-180 1120.5419,-180 1114.5419,-174 1114.5419,-168 1114.5419,-168 1114.5419,-156 1114.5419,-156 1114.5419,-150 1120.5419,-144 1126.5419,-144 1126.5419,-144 1239.8859,-144 1239.8859,-144 1245.8859,-144 1251.8859,-150 1251.8859,-156 1251.8859,-156 1251.8859,-168 1251.8859,-168 1251.8859,-174 1245.8859,-180 1239.8859,-180"/>
<text text-anchor="middle" x="1183.2139" y="-159" font-family="sans" font-size="10.00" fill="#000000">call_variants_post_removal</text>
</g>
<!-- 21&#45;&gt;61 -->
<g id="edge74" class="edge">
<title>21&#45;&gt;61</title>
<path fill="none" stroke="#c0c0c0" stroke-width="2" d="M1183.2139,-215.8314C1183.2139,-208.131 1183.2139,-198.9743 1183.2139,-190.4166"/>
<polygon fill="#c0c0c0" stroke="#c0c0c0" stroke-width="2" points="1186.714,-190.4132 1183.2139,-180.4133 1179.714,-190.4133 1186.714,-190.4132"/>
</g>
<!-- 22 -->
<g id="node23" class="node">
<title>22</title>
<path fill="none" stroke="#d88d56" stroke-width="2" d="M328.8859,-180C328.8859,-180 215.5419,-180 215.5419,-180 209.5419,-180 203.5419,-174 203.5419,-168 203.5419,-168 203.5419,-156 203.5419,-156 203.5419,-150 209.5419,-144 215.5419,-144 215.5419,-144 328.8859,-144 328.8859,-144 334.8859,-144 340.8859,-150 340.8859,-156 340.8859,-156 340.8859,-168 340.8859,-168 340.8859,-174 334.8859,-180 328.8859,-180"/>
<text text-anchor="middle" x="272.2139" y="-159" font-family="sans" font-size="10.00" fill="#000000">call_variants_post_removal</text>
</g>
<!-- 22&#45;&gt;9 -->
<g id="edge14" class="edge">
<title>22&#45;&gt;9</title>
<path fill="none" stroke="#c0c0c0" stroke-width="2" d="M311.3269,-143.8314C332.279,-134.0988 358.2389,-122.04 380.2741,-111.8043"/>
<polygon fill="#c0c0c0" stroke="#c0c0c0" stroke-width="2" points="381.8567,-114.9284 389.4515,-107.5412 378.9077,-108.5799 381.8567,-114.9284"/>
</g>
<!-- 23&#45;&gt;30 -->
<g id="edge44" class="edge">
<title>23&#45;&gt;30</title>
<path fill="none" stroke="#c0c0c0" stroke-width="2" d="M1105.2139,-71.8314C1105.2139,-64.131 1105.2139,-54.9743 1105.2139,-46.4166"/>
<polygon fill="#c0c0c0" stroke="#c0c0c0" stroke-width="2" points="1108.714,-46.4132 1105.2139,-36.4133 1101.714,-46.4133 1108.714,-46.4132"/>
</g>
<!-- 24&#45;&gt;6 -->
<g id="edge10" class="edge">
<title>24&#45;&gt;6</title>
<path fill="none" stroke="#c0c0c0" stroke-width="2" d="M765.5043,-287.8314C781.5115,-278.5368 801.1725,-267.1208 818.2633,-257.1971"/>
<polygon fill="#c0c0c0" stroke="#c0c0c0" stroke-width="2" points="820.043,-260.211 826.9334,-252.1628 816.528,-254.1575 820.043,-260.211"/>
</g>
<!-- 38 -->
<g id="node39" class="node">
<title>38</title>
<path fill="none" stroke="#56d8a9" stroke-width="2" d="M743.1348,-252C743.1348,-252 687.2929,-252 687.2929,-252 681.2929,-252 675.2929,-246 675.2929,-240 675.2929,-240 675.2929,-228 675.2929,-228 675.2929,-222 681.2929,-216 687.2929,-216 687.2929,-216 743.1348,-216 743.1348,-216 749.1348,-216 755.1348,-222 755.1348,-228 755.1348,-228 755.1348,-240 755.1348,-240 755.1348,-246 749.1348,-252 743.1348,-252"/>
<text text-anchor="middle" x="715.2139" y="-231" font-family="sans" font-size="10.00" fill="#000000">remove_reads</text>
</g>
<!-- 24&#45;&gt;38 -->
<g id="edge48" class="edge">
<title>24&#45;&gt;38</title>
<path fill="none" stroke="#c0c0c0" stroke-width="2" d="M729.4194,-287.8314C727.365,-280.0463 724.9178,-270.7729 722.6383,-262.1347"/>
<polygon fill="#c0c0c0" stroke="#c0c0c0" stroke-width="2" points="726.0087,-261.1892 720.0729,-252.4133 719.2404,-262.9753 726.0087,-261.1892"/>
</g>
<!-- 25 -->
<g id="node26" class="node">
<title>25</title>
<path fill="none" stroke="#d88d56" stroke-width="2" d="M1988.8859,-180C1988.8859,-180 1875.5419,-180 1875.5419,-180 1869.5419,-180 1863.5419,-174 1863.5419,-168 1863.5419,-168 1863.5419,-156 1863.5419,-156 1863.5419,-150 1869.5419,-144 1875.5419,-144 1875.5419,-144 1988.8859,-144 1988.8859,-144 1994.8859,-144 2000.8859,-150 2000.8859,-156 2000.8859,-156 2000.8859,-168 2000.8859,-168 2000.8859,-174 1994.8859,-180 1988.8859,-180"/>
<text text-anchor="middle" x="1932.2139" y="-159" font-family="sans" font-size="10.00" fill="#000000">call_variants_post_removal</text>
</g>
<!-- 56 -->
<g id="node57" class="node">
<title>56</title>
<path fill="none" stroke="#d8cb56" stroke-width="2" d="M1803.1831,-108C1803.1831,-108 1751.2446,-108 1751.2446,-108 1745.2446,-108 1739.2446,-102 1739.2446,-96 1739.2446,-96 1739.2446,-84 1739.2446,-84 1739.2446,-78 1745.2446,-72 1751.2446,-72 1751.2446,-72 1803.1831,-72 1803.1831,-72 1809.1831,-72 1815.1831,-78 1815.1831,-84 1815.1831,-84 1815.1831,-96 1815.1831,-96 1815.1831,-102 1809.1831,-108 1803.1831,-108"/>
<text text-anchor="middle" x="1777.2139" y="-87" font-family="sans" font-size="10.00" fill="#000000">filter_variants</text>
</g>
<!-- 25&#45;&gt;56 -->
<g id="edge68" class="edge">
<title>25&#45;&gt;56</title>
<path fill="none" stroke="#c0c0c0" stroke-width="2" d="M1893.1008,-143.8314C1872.1487,-134.0988 1846.1888,-122.04 1824.1536,-111.8043"/>
<polygon fill="#c0c0c0" stroke="#c0c0c0" stroke-width="2" points="1825.5201,-108.5799 1814.9763,-107.5412 1822.571,-114.9284 1825.5201,-108.5799"/>
</g>
<!-- 26&#45;&gt;21 -->
<g id="edge31" class="edge">
<title>26&#45;&gt;21</title>
<path fill="none" stroke="#c0c0c0" stroke-width="2" d="M1154.0552,-287.8314C1158.4096,-279.7925 1163.6236,-270.1666 1168.4308,-261.2918"/>
<polygon fill="#c0c0c0" stroke="#c0c0c0" stroke-width="2" points="1171.5547,-262.8732 1173.24,-252.4133 1165.3996,-259.5392 1171.5547,-262.8732"/>
</g>
<!-- 48 -->
<g id="node49" class="node">
<title>48</title>
<path fill="none" stroke="#56d8a9" stroke-width="2" d="M1056.1348,-252C1056.1348,-252 1000.2929,-252 1000.2929,-252 994.2929,-252 988.2929,-246 988.2929,-240 988.2929,-240 988.2929,-228 988.2929,-228 988.2929,-222 994.2929,-216 1000.2929,-216 1000.2929,-216 1056.1348,-216 1056.1348,-216 1062.1348,-216 1068.1348,-222 1068.1348,-228 1068.1348,-228 1068.1348,-240 1068.1348,-240 1068.1348,-246 1062.1348,-252 1056.1348,-252"/>
<text text-anchor="middle" x="1028.2139" y="-231" font-family="sans" font-size="10.00" fill="#000000">remove_reads</text>
</g>
<!-- 26&#45;&gt;48 -->
<g id="edge57" class="edge">
<title>26&#45;&gt;48</title>
<path fill="none" stroke="#c0c0c0" stroke-width="2" d="M1114.9422,-287.8314C1100.1051,-278.6221 1081.9124,-267.3301 1066.0276,-257.4706"/>
<polygon fill="#c0c0c0" stroke="#c0c0c0" stroke-width="2" points="1067.8184,-254.4628 1057.4762,-252.1628 1064.1268,-260.4102 1067.8184,-254.4628"/>
</g>
<!-- 27 -->
<g id="node28" class="node">
<title>27</title>
<path fill="none" stroke="#afd856" stroke-width="2" d="M1481.1446,-468C1481.1446,-468 1385.2832,-468 1385.2832,-468 1379.2832,-468 1373.2832,-462 1373.2832,-456 1373.2832,-456 1373.2832,-444 1373.2832,-444 1373.2832,-438 1379.2832,-432 1385.2832,-432 1385.2832,-432 1481.1446,-432 1481.1446,-432 1487.1446,-432 1493.1446,-438 1493.1446,-444 1493.1446,-444 1493.1446,-456 1493.1446,-456 1493.1446,-462 1487.1446,-468 1481.1446,-468"/>
<text text-anchor="middle" x="1433.2139" y="-452" font-family="sans" font-size="10.00" fill="#000000">call_variants</text>
<text text-anchor="middle" x="1433.2139" y="-442" font-family="sans" font-size="10.00" fill="#000000">sample: ZI&#45;merge&#45;52_b</text>
</g>
<!-- 65 -->
<g id="node66" class="node">
<title>65</title>
<path fill="none" stroke="#56d873" stroke-width="2" d="M1536.3956,-396C1536.3956,-396 1408.0321,-396 1408.0321,-396 1402.0321,-396 1396.0321,-390 1396.0321,-384 1396.0321,-384 1396.0321,-372 1396.0321,-372 1396.0321,-366 1402.0321,-360 1408.0321,-360 1408.0321,-360 1536.3956,-360 1536.3956,-360 1542.3956,-360 1548.3956,-366 1548.3956,-372 1548.3956,-372 1548.3956,-384 1548.3956,-384 1548.3956,-390 1542.3956,-396 1536.3956,-396"/>
<text text-anchor="middle" x="1472.2139" y="-380" font-family="sans" font-size="10.00" fill="#000000">filter_variants_before_masking</text>
<text text-anchor="middle" x="1472.2139" y="-370" font-family="sans" font-size="10.00" fill="#000000">sample: ZI&#45;merge&#45;52</text>
</g>
<!-- 27&#45;&gt;65 -->
<g id="edge80" class="edge">
<title>27&#45;&gt;65</title>
<path fill="none" stroke="#c0c0c0" stroke-width="2" d="M1443.0552,-431.8314C1447.4096,-423.7925 1452.6236,-414.1666 1457.4308,-405.2918"/>
<polygon fill="#c0c0c0" stroke="#c0c0c0" stroke-width="2" points="1460.5547,-406.8732 1462.24,-396.4133 1454.3996,-403.5392 1460.5547,-406.8732"/>
</g>
<!-- 28 -->
<g id="node29" class="node">
<title>28</title>
<path fill="none" stroke="#56c9d8" stroke-width="2" d="M1702.5836,-542C1702.5836,-542 1611.8441,-542 1611.8441,-542 1605.8441,-542 1599.8441,-536 1599.8441,-530 1599.8441,-530 1599.8441,-516 1599.8441,-516 1599.8441,-510 1605.8441,-504 1611.8441,-504 1611.8441,-504 1702.5836,-504 1702.5836,-504 1708.5836,-504 1714.5836,-510 1714.5836,-516 1714.5836,-516 1714.5836,-530 1714.5836,-530 1714.5836,-536 1708.5836,-542 1702.5836,-542"/>
<text text-anchor="middle" x="1657.2139" y="-530" font-family="sans" font-size="10.00" fill="#000000">trim_primer_quality</text>
<text text-anchor="middle" x="1657.2139" y="-520" font-family="sans" font-size="10.00" fill="#000000">rep: a</text>
<text text-anchor="middle" x="1657.2139" y="-510" font-family="sans" font-size="10.00" fill="#000000">sample: ZI&#45;merge&#45;52_</text>
</g>
<!-- 52 -->
<g id="node53" class="node">
<title>52</title>
<path fill="none" stroke="#afd856" stroke-width="2" d="M1619.1446,-468C1619.1446,-468 1523.2832,-468 1523.2832,-468 1517.2832,-468 1511.2832,-462 1511.2832,-456 1511.2832,-456 1511.2832,-444 1511.2832,-444 1511.2832,-438 1517.2832,-432 1523.2832,-432 1523.2832,-432 1619.1446,-432 1619.1446,-432 1625.1446,-432 1631.1446,-438 1631.1446,-444 1631.1446,-444 1631.1446,-456 1631.1446,-456 1631.1446,-462 1625.1446,-468 1619.1446,-468"/>
<text text-anchor="middle" x="1571.2139" y="-452" font-family="sans" font-size="10.00" fill="#000000">call_variants</text>
<text text-anchor="middle" x="1571.2139" y="-442" font-family="sans" font-size="10.00" fill="#000000">sample: ZI&#45;merge&#45;52_a</text>
</g>
<!-- 28&#45;&gt;52 -->
<g id="edge63" class="edge">
<title>28&#45;&gt;52</title>
<path fill="none" stroke="#c0c0c0" stroke-width="2" d="M1634.6184,-503.8201C1624.1263,-494.914 1611.5242,-484.2169 1600.3288,-474.7138"/>
<polygon fill="#c0c0c0" stroke="#c0c0c0" stroke-width="2" points="1602.3645,-471.8509 1592.4757,-468.0479 1597.8346,-477.1876 1602.3645,-471.8509"/>
</g>
<!-- 54 -->
<g id="node55" class="node">
<title>54</title>
<path fill="none" stroke="#56d8a9" stroke-width="2" d="M1522.1348,-252C1522.1348,-252 1466.2929,-252 1466.2929,-252 1460.2929,-252 1454.2929,-246 1454.2929,-240 1454.2929,-240 1454.2929,-228 1454.2929,-228 1454.2929,-222 1460.2929,-216 1466.2929,-216 1466.2929,-216 1522.1348,-216 1522.1348,-216 1528.1348,-216 1534.1348,-222 1534.1348,-228 1534.1348,-228 1534.1348,-240 1534.1348,-240 1534.1348,-246 1528.1348,-252 1522.1348,-252"/>
<text text-anchor="middle" x="1494.2139" y="-231" font-family="sans" font-size="10.00" fill="#000000">remove_reads</text>
</g>
<!-- 28&#45;&gt;54 -->
<g id="edge65" class="edge">
<title>28&#45;&gt;54</title>
<path fill="none" stroke="#c0c0c0" stroke-width="2" d="M1656.129,-503.8003C1654.4915,-484.8641 1650.4007,-455.4362 1640.2139,-432 1610.2189,-362.9928 1552.3625,-295.1923 1519.198,-259.6195"/>
<polygon fill="#c0c0c0" stroke="#c0c0c0" stroke-width="2" points="1521.5273,-256.9881 1512.1197,-252.1148 1516.435,-261.791 1521.5273,-256.9881"/>
</g>
<!-- 29 -->
<g id="node30" class="node">
<title>29</title>
<path fill="none" stroke="#70d856" stroke-width="2" d="M1747.642,-616C1747.642,-616 1566.7857,-616 1566.7857,-616 1560.7857,-616 1554.7857,-610 1554.7857,-604 1554.7857,-604 1554.7857,-590 1554.7857,-590 1554.7857,-584 1560.7857,-578 1566.7857,-578 1566.7857,-578 1747.642,-578 1747.642,-578 1753.642,-578 1759.642,-584 1759.642,-590 1759.642,-590 1759.642,-604 1759.642,-604 1759.642,-610 1753.642,-616 1747.642,-616"/>
<text text-anchor="middle" x="1657.2139" y="-604" font-family="sans" font-size="10.00" fill="#000000">align_reads</text>
<text text-anchor="middle" x="1657.2139" y="-594" font-family="sans" font-size="10.00" fill="#000000">out_dir: /Users/karthik/hpc_downloads/test</text>
<text text-anchor="middle" x="1657.2139" y="-584" font-family="sans" font-size="10.00" fill="#000000">sample: ZI&#45;merge&#45;52_a</text>
</g>
<!-- 29&#45;&gt;28 -->
<g id="edge39" class="edge">
<title>29&#45;&gt;28</title>
<path fill="none" stroke="#c0c0c0" stroke-width="2" d="M1657.2139,-577.9432C1657.2139,-570.1493 1657.2139,-560.9538 1657.2139,-552.3381"/>
<polygon fill="#c0c0c0" stroke="#c0c0c0" stroke-width="2" points="1660.714,-552.2494 1657.2139,-542.2495 1653.714,-552.2495 1660.714,-552.2494"/>
</g>
<!-- 31 -->
<g id="node32" class="node">
<title>31</title>
<path fill="none" stroke="#70d856" stroke-width="2" d="M192.642,-616C192.642,-616 11.7857,-616 11.7857,-616 5.7857,-616 -.2143,-610 -.2143,-604 -.2143,-604 -.2143,-590 -.2143,-590 -.2143,-584 5.7857,-578 11.7857,-578 11.7857,-578 192.642,-578 192.642,-578 198.642,-578 204.642,-584 204.642,-590 204.642,-590 204.642,-604 204.642,-604 204.642,-610 198.642,-616 192.642,-616"/>
<text text-anchor="middle" x="102.2139" y="-604" font-family="sans" font-size="10.00" fill="#000000">align_reads</text>
<text text-anchor="middle" x="102.2139" y="-594" font-family="sans" font-size="10.00" fill="#000000">out_dir: /Users/karthik/hpc_downloads/test</text>
<text text-anchor="middle" x="102.2139" y="-584" font-family="sans" font-size="10.00" fill="#000000">sample: ZI&#45;merge&#45;50_b</text>
</g>
<!-- 40 -->
<g id="node41" class="node">
<title>40</title>
<path fill="none" stroke="#56c9d8" stroke-width="2" d="M147.5836,-542C147.5836,-542 56.8441,-542 56.8441,-542 50.8441,-542 44.8441,-536 44.8441,-530 44.8441,-530 44.8441,-516 44.8441,-516 44.8441,-510 50.8441,-504 56.8441,-504 56.8441,-504 147.5836,-504 147.5836,-504 153.5836,-504 159.5836,-510 159.5836,-516 159.5836,-516 159.5836,-530 159.5836,-530 159.5836,-536 153.5836,-542 147.5836,-542"/>
<text text-anchor="middle" x="102.2139" y="-530" font-family="sans" font-size="10.00" fill="#000000">trim_primer_quality</text>
<text text-anchor="middle" x="102.2139" y="-520" font-family="sans" font-size="10.00" fill="#000000">rep: b</text>
<text text-anchor="middle" x="102.2139" y="-510" font-family="sans" font-size="10.00" fill="#000000">sample: ZI&#45;merge&#45;50_</text>
</g>
<!-- 31&#45;&gt;40 -->
<g id="edge51" class="edge">
<title>31&#45;&gt;40</title>
<path fill="none" stroke="#c0c0c0" stroke-width="2" d="M102.2139,-577.9432C102.2139,-570.1493 102.2139,-560.9538 102.2139,-552.3381"/>
<polygon fill="#c0c0c0" stroke="#c0c0c0" stroke-width="2" points="105.714,-552.2494 102.2139,-542.2495 98.714,-552.2495 105.714,-552.2494"/>
</g>
<!-- 32&#45;&gt;1 -->
<g id="edge2" class="edge">
<title>32&#45;&gt;1</title>
<path fill="none" stroke="#c0c0c0" stroke-width="2" d="M1398.4925,-503.7488C1385.4876,-494.6729 1371.9918,-482.6024 1364.2139,-468 1328.6468,-401.2257 1334.6684,-308.2625 1340.6676,-262.1937"/>
<polygon fill="#c0c0c0" stroke="#c0c0c0" stroke-width="2" points="1344.1666,-262.4447 1342.0886,-252.0557 1337.2343,-261.473 1344.1666,-262.4447"/>
</g>
<!-- 32&#45;&gt;27 -->
<g id="edge38" class="edge">
<title>32&#45;&gt;27</title>
<path fill="none" stroke="#c0c0c0" stroke-width="2" d="M1433.2139,-503.8201C1433.2139,-496.0975 1433.2139,-487.0282 1433.2139,-478.5585"/>
<polygon fill="#c0c0c0" stroke="#c0c0c0" stroke-width="2" points="1436.714,-478.2973 1433.2139,-468.2973 1429.714,-478.2974 1436.714,-478.2973"/>
</g>
<!-- 33&#45;&gt;56 -->
<g id="edge69" class="edge">
<title>33&#45;&gt;56</title>
<path fill="none" stroke="#c0c0c0" stroke-width="2" d="M1777.2139,-143.8314C1777.2139,-136.131 1777.2139,-126.9743 1777.2139,-118.4166"/>
<polygon fill="#c0c0c0" stroke="#c0c0c0" stroke-width="2" points="1780.714,-118.4132 1777.2139,-108.4133 1773.714,-118.4133 1780.714,-118.4132"/>
</g>
<!-- 34 -->
<g id="node35" class="node">
<title>34</title>
<path fill="none" stroke="#70d856" stroke-width="2" d="M415.642,-616C415.642,-616 234.7857,-616 234.7857,-616 228.7857,-616 222.7857,-610 222.7857,-604 222.7857,-604 222.7857,-590 222.7857,-590 222.7857,-584 228.7857,-578 234.7857,-578 234.7857,-578 415.642,-578 415.642,-578 421.642,-578 427.642,-584 427.642,-590 427.642,-590 427.642,-604 427.642,-604 427.642,-610 421.642,-616 415.642,-616"/>
<text text-anchor="middle" x="325.2139" y="-604" font-family="sans" font-size="10.00" fill="#000000">align_reads</text>
<text text-anchor="middle" x="325.2139" y="-594" font-family="sans" font-size="10.00" fill="#000000">out_dir: /Users/karthik/hpc_downloads/test</text>
<text text-anchor="middle" x="325.2139" y="-584" font-family="sans" font-size="10.00" fill="#000000">sample: ZI&#45;merge&#45;50_a</text>
</g>
<!-- 34&#45;&gt;18 -->
<g id="edge26" class="edge">
<title>34&#45;&gt;18</title>
<path fill="none" stroke="#c0c0c0" stroke-width="2" d="M325.4714,-577.9432C325.5767,-570.1493 325.701,-560.9538 325.8174,-552.3381"/>
<polygon fill="#c0c0c0" stroke="#c0c0c0" stroke-width="2" points="329.3182,-552.2959 325.9537,-542.2495 322.3188,-552.2012 329.3182,-552.2959"/>
</g>
<!-- 35 -->
<g id="node36" class="node">
<title>35</title>
<path fill="none" stroke="#70d856" stroke-width="2" d="M637.642,-616C637.642,-616 456.7857,-616 456.7857,-616 450.7857,-616 444.7857,-610 444.7857,-604 444.7857,-604 444.7857,-590 444.7857,-590 444.7857,-584 450.7857,-578 456.7857,-578 456.7857,-578 637.642,-578 637.642,-578 643.642,-578 649.642,-584 649.642,-590 649.642,-590 649.642,-604 649.642,-604 649.642,-610 643.642,-616 637.642,-616"/>
<text text-anchor="middle" x="547.2139" y="-604" font-family="sans" font-size="10.00" fill="#000000">align_reads</text>
<text text-anchor="middle" x="547.2139" y="-594" font-family="sans" font-size="10.00" fill="#000000">out_dir: /Users/karthik/hpc_downloads/test</text>
<text text-anchor="middle" x="547.2139" y="-584" font-family="sans" font-size="10.00" fill="#000000">sample: ZI&#45;merge&#45;51_b</text>
</g>
<!-- 55 -->
<g id="node56" class="node">
<title>55</title>
<path fill="none" stroke="#56c9d8" stroke-width="2" d="M592.5836,-542C592.5836,-542 501.8441,-542 501.8441,-542 495.8441,-542 489.8441,-536 489.8441,-530 489.8441,-530 489.8441,-516 489.8441,-516 489.8441,-510 495.8441,-504 501.8441,-504 501.8441,-504 592.5836,-504 592.5836,-504 598.5836,-504 604.5836,-510 604.5836,-516 604.5836,-516 604.5836,-530 604.5836,-530 604.5836,-536 598.5836,-542 592.5836,-542"/>
<text text-anchor="middle" x="547.2139" y="-530" font-family="sans" font-size="10.00" fill="#000000">trim_primer_quality</text>
<text text-anchor="middle" x="547.2139" y="-520" font-family="sans" font-size="10.00" fill="#000000">rep: b</text>
<text text-anchor="middle" x="547.2139" y="-510" font-family="sans" font-size="10.00" fill="#000000">sample: ZI&#45;merge&#45;51_</text>
</g>
<!-- 35&#45;&gt;55 -->
<g id="edge67" class="edge">
<title>35&#45;&gt;55</title>
<path fill="none" stroke="#c0c0c0" stroke-width="2" d="M547.2139,-577.9432C547.2139,-570.1493 547.2139,-560.9538 547.2139,-552.3381"/>
<polygon fill="#c0c0c0" stroke="#c0c0c0" stroke-width="2" points="550.714,-552.2494 547.2139,-542.2495 543.714,-552.2495 550.714,-552.2494"/>
</g>
<!-- 36 -->
<g id="node37" class="node">
<title>36</title>
<path fill="none" stroke="#70d856" stroke-width="2" d="M2193.642,-616C2193.642,-616 2012.7857,-616 2012.7857,-616 2006.7857,-616 2000.7857,-610 2000.7857,-604 2000.7857,-604 2000.7857,-590 2000.7857,-590 2000.7857,-584 2006.7857,-578 2012.7857,-578 2012.7857,-578 2193.642,-578 2193.642,-578 2199.642,-578 2205.642,-584 2205.642,-590 2205.642,-590 2205.642,-604 2205.642,-604 2205.642,-610 2199.642,-616 2193.642,-616"/>
<text text-anchor="middle" x="2103.2139" y="-604" font-family="sans" font-size="10.00" fill="#000000">align_reads</text>
<text text-anchor="middle" x="2103.2139" y="-594" font-family="sans" font-size="10.00" fill="#000000">out_dir: /Users/karthik/hpc_downloads/test</text>
<text text-anchor="middle" x="2103.2139" y="-584" font-family="sans" font-size="10.00" fill="#000000">sample: ZI&#45;merge&#45;53_b</text>
</g>
<!-- 36&#45;&gt;0 -->
<g id="edge1" class="edge">
<title>36&#45;&gt;0</title>
<path fill="none" stroke="#c0c0c0" stroke-width="2" d="M2103.2139,-577.9432C2103.2139,-570.1493 2103.2139,-560.9538 2103.2139,-552.3381"/>
<polygon fill="#c0c0c0" stroke="#c0c0c0" stroke-width="2" points="2106.714,-552.2494 2103.2139,-542.2495 2099.714,-552.2495 2106.714,-552.2494"/>
</g>
<!-- 37 -->
<g id="node38" class="node">
<title>37</title>
<path fill="none" stroke="#afd856" stroke-width="2" d="M680.1446,-468C680.1446,-468 584.2832,-468 584.2832,-468 578.2832,-468 572.2832,-462 572.2832,-456 572.2832,-456 572.2832,-444 572.2832,-444 572.2832,-438 578.2832,-432 584.2832,-432 584.2832,-432 680.1446,-432 680.1446,-432 686.1446,-432 692.1446,-438 692.1446,-444 692.1446,-444 692.1446,-456 692.1446,-456 692.1446,-462 686.1446,-468 680.1446,-468"/>
<text text-anchor="middle" x="632.2139" y="-452" font-family="sans" font-size="10.00" fill="#000000">call_variants</text>
<text text-anchor="middle" x="632.2139" y="-442" font-family="sans" font-size="10.00" fill="#000000">sample: ZI&#45;merge&#45;51_b</text>
</g>
<!-- 37&#45;&gt;11 -->
<g id="edge16" class="edge">
<title>37&#45;&gt;11</title>
<path fill="none" stroke="#c0c0c0" stroke-width="2" d="M657.9528,-431.8314C670.7576,-422.7927 686.4048,-411.7476 700.1858,-402.0198"/>
<polygon fill="#c0c0c0" stroke="#c0c0c0" stroke-width="2" points="702.3319,-404.7891 708.4832,-396.1628 698.2951,-399.0703 702.3319,-404.7891"/>
</g>
<!-- 63 -->
<g id="node64" class="node">
<title>63</title>
<path fill="none" stroke="#d88d56" stroke-width="2" d="M771.8859,-180C771.8859,-180 658.5419,-180 658.5419,-180 652.5419,-180 646.5419,-174 646.5419,-168 646.5419,-168 646.5419,-156 646.5419,-156 646.5419,-150 652.5419,-144 658.5419,-144 658.5419,-144 771.8859,-144 771.8859,-144 777.8859,-144 783.8859,-150 783.8859,-156 783.8859,-156 783.8859,-168 783.8859,-168 783.8859,-174 777.8859,-180 771.8859,-180"/>
<text text-anchor="middle" x="715.2139" y="-159" font-family="sans" font-size="10.00" fill="#000000">call_variants_post_removal</text>
</g>
<!-- 38&#45;&gt;63 -->
<g id="edge76" class="edge">
<title>38&#45;&gt;63</title>
<path fill="none" stroke="#c0c0c0" stroke-width="2" d="M715.2139,-215.8314C715.2139,-208.131 715.2139,-198.9743 715.2139,-190.4166"/>
<polygon fill="#c0c0c0" stroke="#c0c0c0" stroke-width="2" points="718.714,-190.4132 715.2139,-180.4133 711.714,-190.4133 718.714,-190.4132"/>
</g>
<!-- 39&#45;&gt;57 -->
<g id="edge71" class="edge">
<title>39&#45;&gt;57</title>
<path fill="none" stroke="#c0c0c0" stroke-width="2" d="M1339.2139,-143.8314C1339.2139,-136.131 1339.2139,-126.9743 1339.2139,-118.4166"/>
<polygon fill="#c0c0c0" stroke="#c0c0c0" stroke-width="2" points="1342.714,-118.4132 1339.2139,-108.4133 1335.714,-118.4133 1342.714,-118.4132"/>
</g>
<!-- 50 -->
<g id="node51" class="node">
<title>50</title>
<path fill="none" stroke="#afd856" stroke-width="2" d="M236.1446,-468C236.1446,-468 140.2832,-468 140.2832,-468 134.2832,-468 128.2832,-462 128.2832,-456 128.2832,-456 128.2832,-444 128.2832,-444 128.2832,-438 134.2832,-432 140.2832,-432 140.2832,-432 236.1446,-432 236.1446,-432 242.1446,-432 248.1446,-438 248.1446,-444 248.1446,-444 248.1446,-456 248.1446,-456 248.1446,-462 242.1446,-468 236.1446,-468"/>
<text text-anchor="middle" x="188.2139" y="-452" font-family="sans" font-size="10.00" fill="#000000">call_variants</text>
<text text-anchor="middle" x="188.2139" y="-442" font-family="sans" font-size="10.00" fill="#000000">sample: ZI&#45;merge&#45;50_b</text>
</g>
<!-- 40&#45;&gt;50 -->
<g id="edge61" class="edge">
<title>40&#45;&gt;50</title>
<path fill="none" stroke="#c0c0c0" stroke-width="2" d="M124.8094,-503.8201C135.3015,-494.914 147.9036,-484.2169 159.0989,-474.7138"/>
<polygon fill="#c0c0c0" stroke="#c0c0c0" stroke-width="2" points="161.5932,-477.1876 166.952,-468.0479 157.0632,-471.8509 161.5932,-477.1876"/>
</g>
<!-- 40&#45;&gt;64 -->
<g id="edge78" class="edge">
<title>40&#45;&gt;64</title>
<path fill="none" stroke="#c0c0c0" stroke-width="2" d="M103.1854,-503.7503C104.7368,-484.7761 108.7638,-455.32 119.2139,-432 150.4288,-362.3419 210.8728,-295.0276 245.7163,-259.6559"/>
<polygon fill="#c0c0c0" stroke="#c0c0c0" stroke-width="2" points="248.5768,-261.7441 253.159,-252.1914 243.6198,-256.8016 248.5768,-261.7441"/>
</g>
<!-- 41&#45;&gt;2 -->
<g id="edge4" class="edge">
<title>41&#45;&gt;2</title>
<path fill="none" stroke="#c0c0c0" stroke-width="2" d="M315.8678,-431.8314C311.2901,-423.7925 305.8087,-414.1666 300.755,-405.2918"/>
<polygon fill="#c0c0c0" stroke="#c0c0c0" stroke-width="2" points="303.6891,-403.3712 295.6992,-396.4133 297.6062,-406.8351 303.6891,-403.3712"/>
</g>
<!-- 42 -->
<g id="node43" class="node">
<title>42</title>
<path fill="none" stroke="#afd856" stroke-width="2" d="M1926.1446,-468C1926.1446,-468 1830.2832,-468 1830.2832,-468 1824.2832,-468 1818.2832,-462 1818.2832,-456 1818.2832,-456 1818.2832,-444 1818.2832,-444 1818.2832,-438 1824.2832,-432 1830.2832,-432 1830.2832,-432 1926.1446,-432 1926.1446,-432 1932.1446,-432 1938.1446,-438 1938.1446,-444 1938.1446,-444 1938.1446,-456 1938.1446,-456 1938.1446,-462 1932.1446,-468 1926.1446,-468"/>
<text text-anchor="middle" x="1878.2139" y="-452" font-family="sans" font-size="10.00" fill="#000000">call_variants</text>
<text text-anchor="middle" x="1878.2139" y="-442" font-family="sans" font-size="10.00" fill="#000000">sample: ZI&#45;merge&#45;53_a</text>
</g>
<!-- 42&#45;&gt;16 -->
<g id="edge24" class="edge">
<title>42&#45;&gt;16</title>
<path fill="none" stroke="#c0c0c0" stroke-width="2" d="M1885.5318,-431.8314C1888.7015,-423.9617 1892.4838,-414.5712 1895.9952,-405.8533"/>
<polygon fill="#c0c0c0" stroke="#c0c0c0" stroke-width="2" points="1899.3078,-406.9968 1899.7974,-396.4133 1892.8147,-404.3815 1899.3078,-406.9968"/>
</g>
<!-- 43&#45;&gt;9 -->
<g id="edge13" class="edge">
<title>43&#45;&gt;9</title>
<path fill="none" stroke="#c0c0c0" stroke-width="2" d="M427.2139,-143.8314C427.2139,-136.131 427.2139,-126.9743 427.2139,-118.4166"/>
<polygon fill="#c0c0c0" stroke="#c0c0c0" stroke-width="2" points="430.714,-118.4132 427.2139,-108.4133 423.714,-118.4133 430.714,-118.4132"/>
</g>
<!-- 44 -->
<g id="node45" class="node">
<title>44</title>
<path fill="none" stroke="#70d856" stroke-width="2" d="M1303.642,-616C1303.642,-616 1122.7857,-616 1122.7857,-616 1116.7857,-616 1110.7857,-610 1110.7857,-604 1110.7857,-604 1110.7857,-590 1110.7857,-590 1110.7857,-584 1116.7857,-578 1122.7857,-578 1122.7857,-578 1303.642,-578 1303.642,-578 1309.642,-578 1315.642,-584 1315.642,-590 1315.642,-590 1315.642,-604 1315.642,-604 1315.642,-610 1309.642,-616 1303.642,-616"/>
<text text-anchor="middle" x="1213.2139" y="-604" font-family="sans" font-size="10.00" fill="#000000">align_reads</text>
<text text-anchor="middle" x="1213.2139" y="-594" font-family="sans" font-size="10.00" fill="#000000">out_dir: /Users/karthik/hpc_downloads/test</text>
<text text-anchor="middle" x="1213.2139" y="-584" font-family="sans" font-size="10.00" fill="#000000">sample: ZI&#45;merge&#45;49_a</text>
</g>
<!-- 44&#45;&gt;20 -->
<g id="edge29" class="edge">
<title>44&#45;&gt;20</title>
<path fill="none" stroke="#c0c0c0" stroke-width="2" d="M1213.2139,-577.9432C1213.2139,-570.1493 1213.2139,-560.9538 1213.2139,-552.3381"/>
<polygon fill="#c0c0c0" stroke="#c0c0c0" stroke-width="2" points="1216.714,-552.2494 1213.2139,-542.2495 1209.714,-552.2495 1216.714,-552.2494"/>
</g>
<!-- 45 -->
<g id="node46" class="node">
<title>45</title>
<path fill="none" stroke="#56c9d8" stroke-width="2" d="M1036.5836,-542C1036.5836,-542 945.8441,-542 945.8441,-542 939.8441,-542 933.8441,-536 933.8441,-530 933.8441,-530 933.8441,-516 933.8441,-516 933.8441,-510 939.8441,-504 945.8441,-504 945.8441,-504 1036.5836,-504 1036.5836,-504 1042.5836,-504 1048.5836,-510 1048.5836,-516 1048.5836,-516 1048.5836,-530 1048.5836,-530 1048.5836,-536 1042.5836,-542 1036.5836,-542"/>
<text text-anchor="middle" x="991.2139" y="-530" font-family="sans" font-size="10.00" fill="#000000">trim_primer_quality</text>
<text text-anchor="middle" x="991.2139" y="-520" font-family="sans" font-size="10.00" fill="#000000">rep: b</text>
<text text-anchor="middle" x="991.2139" y="-510" font-family="sans" font-size="10.00" fill="#000000">sample: ZI&#45;merge&#45;49_</text>
</g>
<!-- 47 -->
<g id="node48" class="node">
<title>47</title>
<path fill="none" stroke="#afd856" stroke-width="2" d="M1079.1446,-468C1079.1446,-468 983.2832,-468 983.2832,-468 977.2832,-468 971.2832,-462 971.2832,-456 971.2832,-456 971.2832,-444 971.2832,-444 971.2832,-438 977.2832,-432 983.2832,-432 983.2832,-432 1079.1446,-432 1079.1446,-432 1085.1446,-432 1091.1446,-438 1091.1446,-444 1091.1446,-444 1091.1446,-456 1091.1446,-456 1091.1446,-462 1085.1446,-468 1079.1446,-468"/>
<text text-anchor="middle" x="1031.2139" y="-452" font-family="sans" font-size="10.00" fill="#000000">call_variants</text>
<text text-anchor="middle" x="1031.2139" y="-442" font-family="sans" font-size="10.00" fill="#000000">sample: ZI&#45;merge&#45;49_b</text>
</g>
<!-- 45&#45;&gt;47 -->
<g id="edge56" class="edge">
<title>45&#45;&gt;47</title>
<path fill="none" stroke="#c0c0c0" stroke-width="2" d="M1001.7234,-503.8201C1006.1901,-495.6684 1011.4789,-486.0164 1016.3356,-477.1528"/>
<polygon fill="#c0c0c0" stroke="#c0c0c0" stroke-width="2" points="1019.4519,-478.749 1021.1879,-468.2973 1013.3131,-475.3852 1019.4519,-478.749"/>
</g>
<!-- 45&#45;&gt;48 -->
<g id="edge58" class="edge">
<title>45&#45;&gt;48</title>
<path fill="none" stroke="#c0c0c0" stroke-width="2" d="M977.9911,-503.5716C971.8924,-493.4451 965.3258,-480.5742 962.2139,-468 958.37,-452.4686 959.651,-447.7934 962.2139,-432 972.4436,-368.9615 999.8715,-298.872 1015.9676,-261.3207"/>
<polygon fill="#c0c0c0" stroke="#c0c0c0" stroke-width="2" points="1019.2156,-262.628 1019.9908,-252.0615 1012.7955,-259.8383 1019.2156,-262.628"/>
</g>
<!-- 46 -->
<g id="node47" class="node">
<title>46</title>
<path fill="none" stroke="#70d856" stroke-width="2" d="M859.642,-616C859.642,-616 678.7857,-616 678.7857,-616 672.7857,-616 666.7857,-610 666.7857,-604 666.7857,-604 666.7857,-590 666.7857,-590 666.7857,-584 672.7857,-578 678.7857,-578 678.7857,-578 859.642,-578 859.642,-578 865.642,-578 871.642,-584 871.642,-590 871.642,-590 871.642,-604 871.642,-604 871.642,-610 865.642,-616 859.642,-616"/>
<text text-anchor="middle" x="769.2139" y="-604" font-family="sans" font-size="10.00" fill="#000000">align_reads</text>
<text text-anchor="middle" x="769.2139" y="-594" font-family="sans" font-size="10.00" fill="#000000">out_dir: /Users/karthik/hpc_downloads/test</text>
<text text-anchor="middle" x="769.2139" y="-584" font-family="sans" font-size="10.00" fill="#000000">sample: ZI&#45;merge&#45;51_a</text>
</g>
<!-- 46&#45;&gt;3 -->
<g id="edge6" class="edge">
<title>46&#45;&gt;3</title>
<path fill="none" stroke="#c0c0c0" stroke-width="2" d="M769.4714,-577.9432C769.5767,-570.1493 769.701,-560.9538 769.8174,-552.3381"/>
<polygon fill="#c0c0c0" stroke="#c0c0c0" stroke-width="2" points="773.3182,-552.2959 769.9537,-542.2495 766.3188,-552.2012 773.3182,-552.2959"/>
</g>
<!-- 47&#45;&gt;19 -->
<g id="edge28" class="edge">
<title>47&#45;&gt;19</title>
<path fill="none" stroke="#c0c0c0" stroke-width="2" d="M1059.7285,-431.8314C1074.0481,-422.7074 1091.5762,-411.539 1106.9476,-401.7449"/>
<polygon fill="#c0c0c0" stroke="#c0c0c0" stroke-width="2" points="1109.1555,-404.4882 1115.7083,-396.1628 1105.394,-398.5847 1109.1555,-404.4882"/>
</g>
<!-- 48&#45;&gt;10 -->
<g id="edge15" class="edge">
<title>48&#45;&gt;10</title>
<path fill="none" stroke="#c0c0c0" stroke-width="2" d="M1028.2139,-215.8314C1028.2139,-208.131 1028.2139,-198.9743 1028.2139,-190.4166"/>
<polygon fill="#c0c0c0" stroke="#c0c0c0" stroke-width="2" points="1031.714,-190.4132 1028.2139,-180.4133 1024.714,-190.4133 1031.714,-190.4132"/>
</g>
<!-- 49&#45;&gt;25 -->
<g id="edge36" class="edge">
<title>49&#45;&gt;25</title>
<path fill="none" stroke="#c0c0c0" stroke-width="2" d="M1932.2139,-215.8314C1932.2139,-208.131 1932.2139,-198.9743 1932.2139,-190.4166"/>
<polygon fill="#c0c0c0" stroke="#c0c0c0" stroke-width="2" points="1935.714,-190.4132 1932.2139,-180.4133 1928.714,-190.4133 1935.714,-190.4132"/>
</g>
<!-- 50&#45;&gt;2 -->
<g id="edge5" class="edge">
<title>50&#45;&gt;2</title>
<path fill="none" stroke="#c0c0c0" stroke-width="2" d="M212.6911,-431.8314C224.7533,-422.8779 239.4678,-411.9558 252.4825,-402.2955"/>
<polygon fill="#c0c0c0" stroke="#c0c0c0" stroke-width="2" points="254.8009,-404.9335 260.7445,-396.1628 250.6287,-399.3127 254.8009,-404.9335"/>
</g>
<!-- 51&#45;&gt;16 -->
<g id="edge23" class="edge">
<title>51&#45;&gt;16</title>
<path fill="none" stroke="#c0c0c0" stroke-width="2" d="M1988.7086,-431.8314C1974.8959,-422.7074 1957.9882,-411.539 1943.1609,-401.7449"/>
<polygon fill="#c0c0c0" stroke="#c0c0c0" stroke-width="2" points="1944.9835,-398.7541 1934.7104,-396.1628 1941.1253,-404.5949 1944.9835,-398.7541"/>
</g>
<!-- 52&#45;&gt;65 -->
<g id="edge79" class="edge">
<title>52&#45;&gt;65</title>
<path fill="none" stroke="#c0c0c0" stroke-width="2" d="M1546.232,-431.8314C1533.921,-422.8779 1518.9031,-411.9558 1505.6202,-402.2955"/>
<polygon fill="#c0c0c0" stroke="#c0c0c0" stroke-width="2" points="1507.3337,-399.214 1497.1878,-396.1628 1503.2165,-404.8752 1507.3337,-399.214"/>
</g>
<!-- 53 -->
<g id="node54" class="node">
<title>53</title>
<path fill="none" stroke="#5692d8" stroke-width="2" d="M1495.693,-324C1495.693,-324 1448.7347,-324 1448.7347,-324 1442.7347,-324 1436.7347,-318 1436.7347,-312 1436.7347,-312 1436.7347,-300 1436.7347,-300 1436.7347,-294 1442.7347,-288 1448.7347,-288 1448.7347,-288 1495.693,-288 1495.693,-288 1501.693,-288 1507.693,-294 1507.693,-300 1507.693,-300 1507.693,-312 1507.693,-312 1507.693,-318 1501.693,-324 1495.693,-324"/>
<text text-anchor="middle" x="1472.2139" y="-303" font-family="sans" font-size="10.00" fill="#000000">get_masked</text>
</g>
<!-- 53&#45;&gt;1 -->
<g id="edge3" class="edge">
<title>53&#45;&gt;1</title>
<path fill="none" stroke="#c0c0c0" stroke-width="2" d="M1440.1664,-287.8314C1423.7719,-278.5368 1403.6353,-267.1208 1386.131,-257.1971"/>
<polygon fill="#c0c0c0" stroke="#c0c0c0" stroke-width="2" points="1387.6765,-254.05 1377.2511,-252.1628 1384.2242,-260.1395 1387.6765,-254.05"/>
</g>
<!-- 53&#45;&gt;54 -->
<g id="edge66" class="edge">
<title>53&#45;&gt;54</title>
<path fill="none" stroke="#c0c0c0" stroke-width="2" d="M1477.7654,-287.8314C1480.1442,-280.0463 1482.9777,-270.7729 1485.6171,-262.1347"/>
<polygon fill="#c0c0c0" stroke="#c0c0c0" stroke-width="2" points="1489.0126,-262.9996 1488.5876,-252.4133 1482.3181,-260.954 1489.0126,-262.9996"/>
</g>
<!-- 54&#45;&gt;17 -->
<g id="edge25" class="edge">
<title>54&#45;&gt;17</title>
<path fill="none" stroke="#c0c0c0" stroke-width="2" d="M1494.2139,-215.8314C1494.2139,-208.131 1494.2139,-198.9743 1494.2139,-190.4166"/>
<polygon fill="#c0c0c0" stroke="#c0c0c0" stroke-width="2" points="1497.714,-190.4132 1494.2139,-180.4133 1490.714,-190.4133 1497.714,-190.4132"/>
</g>
<!-- 55&#45;&gt;37 -->
<g id="edge47" class="edge">
<title>55&#45;&gt;37</title>
<path fill="none" stroke="#c0c0c0" stroke-width="2" d="M569.5466,-503.8201C579.9167,-494.914 592.3723,-484.2169 603.4375,-474.7138"/>
<polygon fill="#c0c0c0" stroke="#c0c0c0" stroke-width="2" points="605.8933,-477.2184 611.1992,-468.0479 601.3326,-471.908 605.8933,-477.2184"/>
</g>
<!-- 55&#45;&gt;38 -->
<g id="edge49" class="edge">
<title>55&#45;&gt;38</title>
<path fill="none" stroke="#c0c0c0" stroke-width="2" d="M547.9415,-503.7617C549.2598,-484.7962 552.9449,-455.3465 563.2139,-432 593.8722,-362.2984 654.0525,-295.0003 688.7855,-259.6431"/>
<polygon fill="#c0c0c0" stroke="#c0c0c0" stroke-width="2" points="691.6358,-261.7404 696.2056,-252.1818 686.6724,-256.8044 691.6358,-261.7404"/>
</g>
<!-- 56&#45;&gt;30 -->
<g id="edge40" class="edge">
<title>56&#45;&gt;30</title>
<path fill="none" stroke="#c0c0c0" stroke-width="2" d="M1739.1588,-85.9227C1620.8254,-73.2441 1260.2298,-34.6089 1142.6902,-22.0153"/>
<polygon fill="#c0c0c0" stroke="#c0c0c0" stroke-width="2" points="1142.7234,-18.4989 1132.4074,-20.9136 1141.9776,-25.4591 1142.7234,-18.4989"/>
</g>
<!-- 57&#45;&gt;30 -->
<g id="edge42" class="edge">
<title>57&#45;&gt;30</title>
<path fill="none" stroke="#c0c0c0" stroke-width="2" d="M1301.3577,-78.3519C1257.4368,-64.8378 1185.5044,-42.7048 1142.0311,-29.3284"/>
<polygon fill="#c0c0c0" stroke="#c0c0c0" stroke-width="2" points="1143.004,-25.9658 1132.4169,-26.3701 1140.9453,-32.6563 1143.004,-25.9658"/>
</g>
<!-- 58&#45;&gt;15 -->
<g id="edge22" class="edge">
<title>58&#45;&gt;15</title>
<path fill="none" stroke="#c0c0c0" stroke-width="2" d="M1843.4925,-503.7488C1830.4876,-494.6729 1816.9918,-482.6024 1809.2139,-468 1773.6468,-401.2257 1779.6684,-308.2625 1785.6676,-262.1937"/>
<polygon fill="#c0c0c0" stroke="#c0c0c0" stroke-width="2" points="1789.1666,-262.4447 1787.0886,-252.0557 1782.2343,-261.473 1789.1666,-262.4447"/>
</g>
<!-- 58&#45;&gt;42 -->
<g id="edge53" class="edge">
<title>58&#45;&gt;42</title>
<path fill="none" stroke="#c0c0c0" stroke-width="2" d="M1878.2139,-503.8201C1878.2139,-496.0975 1878.2139,-487.0282 1878.2139,-478.5585"/>
<polygon fill="#c0c0c0" stroke="#c0c0c0" stroke-width="2" points="1881.714,-478.2973 1878.2139,-468.2973 1874.714,-478.2974 1881.714,-478.2973"/>
</g>
<!-- 59 -->
<g id="node60" class="node">
<title>59</title>
<path fill="none" stroke="#70d856" stroke-width="2" d="M1081.642,-616C1081.642,-616 900.7857,-616 900.7857,-616 894.7857,-616 888.7857,-610 888.7857,-604 888.7857,-604 888.7857,-590 888.7857,-590 888.7857,-584 894.7857,-578 900.7857,-578 900.7857,-578 1081.642,-578 1081.642,-578 1087.642,-578 1093.642,-584 1093.642,-590 1093.642,-590 1093.642,-604 1093.642,-604 1093.642,-610 1087.642,-616 1081.642,-616"/>
<text text-anchor="middle" x="991.2139" y="-604" font-family="sans" font-size="10.00" fill="#000000">align_reads</text>
<text text-anchor="middle" x="991.2139" y="-594" font-family="sans" font-size="10.00" fill="#000000">out_dir: /Users/karthik/hpc_downloads/test</text>
<text text-anchor="middle" x="991.2139" y="-584" font-family="sans" font-size="10.00" fill="#000000">sample: ZI&#45;merge&#45;49_b</text>
</g>
<!-- 59&#45;&gt;45 -->
<g id="edge55" class="edge">
<title>59&#45;&gt;45</title>
<path fill="none" stroke="#c0c0c0" stroke-width="2" d="M991.2139,-577.9432C991.2139,-570.1493 991.2139,-560.9538 991.2139,-552.3381"/>
<polygon fill="#c0c0c0" stroke="#c0c0c0" stroke-width="2" points="994.714,-552.2494 991.2139,-542.2495 987.714,-552.2495 994.714,-552.2494"/>
</g>
<!-- 60&#45;&gt;13 -->
<g id="edge19" class="edge">
<title>60&#45;&gt;13</title>
<path fill="none" stroke="#c0c0c0" stroke-width="2" d="M870.2139,-143.8314C870.2139,-136.131 870.2139,-126.9743 870.2139,-118.4166"/>
<polygon fill="#c0c0c0" stroke="#c0c0c0" stroke-width="2" points="873.714,-118.4132 870.2139,-108.4133 866.714,-118.4133 873.714,-118.4132"/>
</g>
<!-- 61&#45;&gt;23 -->
<g id="edge33" class="edge">
<title>61&#45;&gt;23</title>
<path fill="none" stroke="#c0c0c0" stroke-width="2" d="M1163.5312,-143.8314C1154.1088,-135.1337 1142.6737,-124.5783 1132.4343,-115.1265"/>
<polygon fill="#c0c0c0" stroke="#c0c0c0" stroke-width="2" points="1134.6123,-112.3738 1124.8903,-108.1628 1129.8643,-117.5175 1134.6123,-112.3738"/>
</g>
<!-- 62&#45;&gt;19 -->
<g id="edge27" class="edge">
<title>62&#45;&gt;19</title>
<path fill="none" stroke="#c0c0c0" stroke-width="2" d="M1162.9053,-431.8314C1160.2022,-424.0463 1156.9822,-414.7729 1153.9829,-406.1347"/>
<polygon fill="#c0c0c0" stroke="#c0c0c0" stroke-width="2" points="1157.1939,-404.7119 1150.6074,-396.4133 1150.5812,-407.0081 1157.1939,-404.7119"/>
</g>
<!-- 63&#45;&gt;13 -->
<g id="edge18" class="edge">
<title>63&#45;&gt;13</title>
<path fill="none" stroke="#c0c0c0" stroke-width="2" d="M754.3269,-143.8314C775.279,-134.0988 801.2389,-122.04 823.2741,-111.8043"/>
<polygon fill="#c0c0c0" stroke="#c0c0c0" stroke-width="2" points="824.8567,-114.9284 832.4515,-107.5412 821.9077,-108.5799 824.8567,-114.9284"/>
</g>
<!-- 64&#45;&gt;22 -->
<g id="edge32" class="edge">
<title>64&#45;&gt;22</title>
<path fill="none" stroke="#c0c0c0" stroke-width="2" d="M272.2139,-215.8314C272.2139,-208.131 272.2139,-198.9743 272.2139,-190.4166"/>
<polygon fill="#c0c0c0" stroke="#c0c0c0" stroke-width="2" points="275.714,-190.4132 272.2139,-180.4133 268.714,-190.4133 275.714,-190.4132"/>
</g>
<!-- 65&#45;&gt;53 -->
<g id="edge64" class="edge">
<title>65&#45;&gt;53</title>
<path fill="none" stroke="#c0c0c0" stroke-width="2" d="M1472.2139,-359.8314C1472.2139,-352.131 1472.2139,-342.9743 1472.2139,-334.4166"/>
<polygon fill="#c0c0c0" stroke="#c0c0c0" stroke-width="2" points="1475.714,-334.4132 1472.2139,-324.4133 1468.714,-334.4133 1475.714,-334.4132"/>
</g>
</g>
</svg>
