<?xml version="1.0" encoding="UTF-8" standalone="no"?>
<!DOCTYPE svg PUBLIC "-//W3C//DTD SVG 1.1//EN"
 "http://www.w3.org/Graphics/SVG/1.1/DTD/svg11.dtd">
<!-- Generated by graphviz version 2.40.1 (20161225.0304)
 -->
<!-- Title: snakemake_dag Pages: 1 -->
<svg width="1630pt" height="838pt"
 viewBox="0.00 0.00 1630.17 838.00" xmlns="http://www.w3.org/2000/svg" xmlns:xlink="http://www.w3.org/1999/xlink">
<g id="graph0" class="graph" transform="scale(1 1) rotate(0) translate(4 834)">
<title>snakemake_dag</title>
<polygon fill="#ffffff" stroke="transparent" points="-4,4 -4,-834 1626.1719,-834 1626.1719,4 -4,4"/>
<!-- 0 -->
<g id="node1" class="node">
<title>0</title>
<path fill="none" stroke="#d85656" stroke-width="2" d="M1370.5069,-252C1370.5069,-252 1314.665,-252 1314.665,-252 1308.665,-252 1302.665,-246 1302.665,-240 1302.665,-240 1302.665,-228 1302.665,-228 1302.665,-222 1308.665,-216 1314.665,-216 1314.665,-216 1370.5069,-216 1370.5069,-216 1376.5069,-216 1382.5069,-222 1382.5069,-228 1382.5069,-228 1382.5069,-240 1382.5069,-240 1382.5069,-246 1376.5069,-252 1370.5069,-252"/>
<text text-anchor="middle" x="1342.5859" y="-231" font-family="sans" font-size="10.00" fill="#000000">remove_reads</text>
</g>
<!-- 16 -->
<g id="node17" class="node">
<title>16</title>
<path fill="none" stroke="#5682d8" stroke-width="2" d="M1610.2579,-180C1610.2579,-180 1496.914,-180 1496.914,-180 1490.914,-180 1484.914,-174 1484.914,-168 1484.914,-168 1484.914,-156 1484.914,-156 1484.914,-150 1490.914,-144 1496.914,-144 1496.914,-144 1610.2579,-144 1610.2579,-144 1616.2579,-144 1622.2579,-150 1622.2579,-156 1622.2579,-156 1622.2579,-168 1622.2579,-168 1622.2579,-174 1616.2579,-180 1610.2579,-180"/>
<text text-anchor="middle" x="1553.5859" y="-159" font-family="sans" font-size="10.00" fill="#000000">call_variants_post_removal</text>
</g>
<!-- 0&#45;&gt;16 -->
<g id="edge28" class="edge">
<title>0&#45;&gt;16</title>
<path fill="none" stroke="#c0c0c0" stroke-width="2" d="M1382.7701,-220.2879C1413.3725,-209.8454 1456.0631,-195.278 1491.1097,-183.3189"/>
<polygon fill="#c0c0c0" stroke="#c0c0c0" stroke-width="2" points="1492.4418,-186.5626 1500.7756,-180.0206 1490.1811,-179.9377 1492.4418,-186.5626"/>
</g>
<!-- 1 -->
<g id="node2" class="node">
<title>1</title>
<path fill="none" stroke="#56d882" stroke-width="2" d="M1495.9202,-758C1495.9202,-758 1291.2517,-758 1291.2517,-758 1285.2517,-758 1279.2517,-752 1279.2517,-746 1279.2517,-746 1279.2517,-734 1279.2517,-734 1279.2517,-728 1285.2517,-722 1291.2517,-722 1291.2517,-722 1495.9202,-722 1495.9202,-722 1501.9202,-722 1507.9202,-728 1507.9202,-734 1507.9202,-734 1507.9202,-746 1507.9202,-746 1507.9202,-752 1501.9202,-758 1495.9202,-758"/>
<text text-anchor="middle" x="1393.5859" y="-742" font-family="sans" font-size="10.00" fill="#000000">trim_primer_quality</text>
<text text-anchor="middle" x="1393.5859" y="-732" font-family="sans" font-size="10.00" fill="#000000">out_dir: /Users/karthik/hpc_downloads/test_field</text>
</g>
<!-- 2 -->
<g id="node3" class="node">
<title>2</title>
<path fill="none" stroke="#afd856" stroke-width="2" d="M1423.9608,-686C1423.9608,-686 1363.2111,-686 1363.2111,-686 1357.2111,-686 1351.2111,-680 1351.2111,-674 1351.2111,-674 1351.2111,-662 1351.2111,-662 1351.2111,-656 1357.2111,-650 1363.2111,-650 1363.2111,-650 1423.9608,-650 1423.9608,-650 1429.9608,-650 1435.9608,-656 1435.9608,-662 1435.9608,-662 1435.9608,-674 1435.9608,-674 1435.9608,-680 1429.9608,-686 1423.9608,-686"/>
<text text-anchor="middle" x="1393.5859" y="-665" font-family="sans" font-size="10.00" fill="#000000">call_consensus</text>
</g>
<!-- 1&#45;&gt;2 -->
<g id="edge4" class="edge">
<title>1&#45;&gt;2</title>
<path fill="none" stroke="#c0c0c0" stroke-width="2" d="M1393.5859,-721.8314C1393.5859,-714.131 1393.5859,-704.9743 1393.5859,-696.4166"/>
<polygon fill="#c0c0c0" stroke="#c0c0c0" stroke-width="2" points="1397.086,-696.4132 1393.5859,-686.4133 1390.086,-696.4133 1397.086,-696.4132"/>
</g>
<!-- 3 -->
<g id="node4" class="node">
<title>3</title>
<path fill="none" stroke="#d88556" stroke-width="2" d="M1433.9851,-614C1433.9851,-614 1353.1867,-614 1353.1867,-614 1347.1867,-614 1341.1867,-608 1341.1867,-602 1341.1867,-602 1341.1867,-588 1341.1867,-588 1341.1867,-582 1347.1867,-576 1353.1867,-576 1353.1867,-576 1433.9851,-576 1433.9851,-576 1439.9851,-576 1445.9851,-582 1445.9851,-588 1445.9851,-588 1445.9851,-602 1445.9851,-602 1445.9851,-608 1439.9851,-614 1433.9851,-614"/>
<text text-anchor="middle" x="1393.5859" y="-602" font-family="sans" font-size="10.00" fill="#000000">align_to_consensus</text>
<text text-anchor="middle" x="1393.5859" y="-592" font-family="sans" font-size="10.00" fill="#000000">rep: b</text>
<text text-anchor="middle" x="1393.5859" y="-582" font-family="sans" font-size="10.00" fill="#000000">sample: ZI26_</text>
</g>
<!-- 2&#45;&gt;3 -->
<g id="edge5" class="edge">
<title>2&#45;&gt;3</title>
<path fill="none" stroke="#c0c0c0" stroke-width="2" d="M1393.5859,-649.9551C1393.5859,-642.2107 1393.5859,-632.9622 1393.5859,-624.2811"/>
<polygon fill="#c0c0c0" stroke="#c0c0c0" stroke-width="2" points="1397.086,-624.1128 1393.5859,-614.1128 1390.086,-624.1129 1397.086,-624.1128"/>
</g>
<!-- 10 -->
<g id="node11" class="node">
<title>10</title>
<path fill="none" stroke="#59d856" stroke-width="2" d="M1302.1682,-396C1302.1682,-396 1255.0037,-396 1255.0037,-396 1249.0037,-396 1243.0037,-390 1243.0037,-384 1243.0037,-384 1243.0037,-372 1243.0037,-372 1243.0037,-366 1249.0037,-360 1255.0037,-360 1255.0037,-360 1302.1682,-360 1302.1682,-360 1308.1682,-360 1314.1682,-366 1314.1682,-372 1314.1682,-372 1314.1682,-384 1314.1682,-384 1314.1682,-390 1308.1682,-396 1302.1682,-396"/>
<text text-anchor="middle" x="1278.5859" y="-375" font-family="sans" font-size="10.00" fill="#000000">call_variants</text>
</g>
<!-- 2&#45;&gt;10 -->
<g id="edge17" class="edge">
<title>2&#45;&gt;10</title>
<path fill="none" stroke="#c0c0c0" stroke-width="2" d="M1368.9831,-649.869C1356.9732,-640.1673 1342.9238,-627.4608 1332.5859,-614 1288.3973,-556.4624 1276.254,-538.6073 1259.5859,-468 1254.6865,-447.2457 1260.0681,-423.6552 1266.3381,-405.8343"/>
<polygon fill="#c0c0c0" stroke="#c0c0c0" stroke-width="2" points="1269.6701,-406.9192 1269.957,-396.3282 1263.1281,-404.4287 1269.6701,-406.9192"/>
</g>
<!-- 2&#45;&gt;16 -->
<g id="edge29" class="edge">
<title>2&#45;&gt;16</title>
<path fill="none" stroke="#c0c0c0" stroke-width="2" d="M1435.8018,-650.3964C1482.0018,-627.9791 1549.5859,-584.5039 1549.5859,-522 1549.5859,-522 1549.5859,-522 1549.5859,-306 1549.5859,-265.8605 1551.1581,-219.4516 1552.3312,-190.4112"/>
<polygon fill="#c0c0c0" stroke="#c0c0c0" stroke-width="2" points="1555.838,-190.3179 1552.7571,-180.1809 1548.8441,-190.0266 1555.838,-190.3179"/>
</g>
<!-- 12 -->
<g id="node13" class="node">
<title>12</title>
<path fill="none" stroke="#56d8d8" stroke-width="2" d="M1404.3147,-468C1404.3147,-468 1280.8572,-468 1280.8572,-468 1274.8572,-468 1268.8572,-462 1268.8572,-456 1268.8572,-456 1268.8572,-444 1268.8572,-444 1268.8572,-438 1274.8572,-432 1280.8572,-432 1280.8572,-432 1404.3147,-432 1404.3147,-432 1410.3147,-432 1416.3147,-438 1416.3147,-444 1416.3147,-444 1416.3147,-456 1416.3147,-456 1416.3147,-462 1410.3147,-468 1404.3147,-468"/>
<text text-anchor="middle" x="1342.5859" y="-447" font-family="sans" font-size="10.00" fill="#000000">realigned_trim_primer_quality</text>
</g>
<!-- 3&#45;&gt;12 -->
<g id="edge19" class="edge">
<title>3&#45;&gt;12</title>
<path fill="none" stroke="#c0c0c0" stroke-width="2" d="M1386.8135,-575.7451C1377.9909,-550.6612 1362.5025,-506.6255 1352.3948,-477.8879"/>
<polygon fill="#c0c0c0" stroke="#c0c0c0" stroke-width="2" points="1355.6835,-476.6894 1349.0637,-468.4172 1349.08,-479.0121 1355.6835,-476.6894"/>
</g>
<!-- 23 -->
<g id="node24" class="node">
<title>23</title>
<path fill="none" stroke="#d8ac56" stroke-width="2" d="M1445.625,-540C1445.625,-540 1403.5469,-540 1403.5469,-540 1397.5469,-540 1391.5469,-534 1391.5469,-528 1391.5469,-528 1391.5469,-516 1391.5469,-516 1391.5469,-510 1397.5469,-504 1403.5469,-504 1403.5469,-504 1445.625,-504 1445.625,-504 1451.625,-504 1457.625,-510 1457.625,-516 1457.625,-516 1457.625,-528 1457.625,-528 1457.625,-534 1451.625,-540 1445.625,-540"/>
<text text-anchor="middle" x="1424.5859" y="-519" font-family="sans" font-size="10.00" fill="#000000">create_bed</text>
</g>
<!-- 3&#45;&gt;23 -->
<g id="edge41" class="edge">
<title>3&#45;&gt;23</title>
<path fill="none" stroke="#c0c0c0" stroke-width="2" d="M1401.7308,-575.8201C1405.1196,-567.8401 1409.119,-558.4221 1412.8171,-549.7136"/>
<polygon fill="#c0c0c0" stroke="#c0c0c0" stroke-width="2" points="1416.1286,-550.8699 1416.8158,-540.2973 1409.6855,-548.1337 1416.1286,-550.8699"/>
</g>
<!-- 4 -->
<g id="node5" class="node">
<title>4</title>
<path fill="none" stroke="#56d8d8" stroke-width="2" d="M594.3147,-468C594.3147,-468 470.8572,-468 470.8572,-468 464.8572,-468 458.8572,-462 458.8572,-456 458.8572,-456 458.8572,-444 458.8572,-444 458.8572,-438 464.8572,-432 470.8572,-432 470.8572,-432 594.3147,-432 594.3147,-432 600.3147,-432 606.3147,-438 606.3147,-444 606.3147,-444 606.3147,-456 606.3147,-456 606.3147,-462 600.3147,-468 594.3147,-468"/>
<text text-anchor="middle" x="532.5859" y="-447" font-family="sans" font-size="10.00" fill="#000000">realigned_trim_primer_quality</text>
</g>
<!-- 7 -->
<g id="node8" class="node">
<title>7</title>
<path fill="none" stroke="#d85656" stroke-width="2" d="M560.5069,-252C560.5069,-252 504.665,-252 504.665,-252 498.665,-252 492.665,-246 492.665,-240 492.665,-240 492.665,-228 492.665,-228 492.665,-222 498.665,-216 504.665,-216 504.665,-216 560.5069,-216 560.5069,-216 566.5069,-216 572.5069,-222 572.5069,-228 572.5069,-228 572.5069,-240 572.5069,-240 572.5069,-246 566.5069,-252 560.5069,-252"/>
<text text-anchor="middle" x="532.5859" y="-231" font-family="sans" font-size="10.00" fill="#000000">remove_reads</text>
</g>
<!-- 4&#45;&gt;7 -->
<g id="edge11" class="edge">
<title>4&#45;&gt;7</title>
<path fill="none" stroke="#c0c0c0" stroke-width="2" d="M532.5859,-431.9555C532.5859,-394.3938 532.5859,-307.5541 532.5859,-262.4103"/>
<polygon fill="#c0c0c0" stroke="#c0c0c0" stroke-width="2" points="536.086,-262.145 532.5859,-252.1451 529.086,-262.1451 536.086,-262.145"/>
</g>
<!-- 22 -->
<g id="node23" class="node">
<title>22</title>
<path fill="none" stroke="#59d856" stroke-width="2" d="M481.1682,-396C481.1682,-396 434.0037,-396 434.0037,-396 428.0037,-396 422.0037,-390 422.0037,-384 422.0037,-384 422.0037,-372 422.0037,-372 422.0037,-366 428.0037,-360 434.0037,-360 434.0037,-360 481.1682,-360 481.1682,-360 487.1682,-360 493.1682,-366 493.1682,-372 493.1682,-372 493.1682,-384 493.1682,-384 493.1682,-390 487.1682,-396 481.1682,-396"/>
<text text-anchor="middle" x="457.5859" y="-375" font-family="sans" font-size="10.00" fill="#000000">call_variants</text>
</g>
<!-- 4&#45;&gt;22 -->
<g id="edge39" class="edge">
<title>4&#45;&gt;22</title>
<path fill="none" stroke="#c0c0c0" stroke-width="2" d="M513.6603,-431.8314C504.6003,-423.1337 493.605,-412.5783 483.7594,-403.1265"/>
<polygon fill="#c0c0c0" stroke="#c0c0c0" stroke-width="2" points="486.1433,-400.5633 476.5055,-396.1628 481.2956,-405.613 486.1433,-400.5633"/>
</g>
<!-- 5 -->
<g id="node6" class="node">
<title>5</title>
<path fill="none" stroke="#d88556" stroke-width="2" d="M1049.9851,-614C1049.9851,-614 969.1867,-614 969.1867,-614 963.1867,-614 957.1867,-608 957.1867,-602 957.1867,-602 957.1867,-588 957.1867,-588 957.1867,-582 963.1867,-576 969.1867,-576 969.1867,-576 1049.9851,-576 1049.9851,-576 1055.9851,-576 1061.9851,-582 1061.9851,-588 1061.9851,-588 1061.9851,-602 1061.9851,-602 1061.9851,-608 1055.9851,-614 1049.9851,-614"/>
<text text-anchor="middle" x="1009.5859" y="-602" font-family="sans" font-size="10.00" fill="#000000">align_to_consensus</text>
<text text-anchor="middle" x="1009.5859" y="-592" font-family="sans" font-size="10.00" fill="#000000">rep: a</text>
<text text-anchor="middle" x="1009.5859" y="-582" font-family="sans" font-size="10.00" fill="#000000">sample: ZI26_</text>
</g>
<!-- 24 -->
<g id="node25" class="node">
<title>24</title>
<path fill="none" stroke="#d8ac56" stroke-width="2" d="M1025.625,-540C1025.625,-540 983.5469,-540 983.5469,-540 977.5469,-540 971.5469,-534 971.5469,-528 971.5469,-528 971.5469,-516 971.5469,-516 971.5469,-510 977.5469,-504 983.5469,-504 983.5469,-504 1025.625,-504 1025.625,-504 1031.625,-504 1037.625,-510 1037.625,-516 1037.625,-516 1037.625,-528 1037.625,-528 1037.625,-534 1031.625,-540 1025.625,-540"/>
<text text-anchor="middle" x="1004.5859" y="-519" font-family="sans" font-size="10.00" fill="#000000">create_bed</text>
</g>
<!-- 5&#45;&gt;24 -->
<g id="edge42" class="edge">
<title>5&#45;&gt;24</title>
<path fill="none" stroke="#c0c0c0" stroke-width="2" d="M1008.2722,-575.8201C1007.7374,-568.0117 1007.1083,-558.8265 1006.5227,-550.2764"/>
<polygon fill="#c0c0c0" stroke="#c0c0c0" stroke-width="2" points="1010.0144,-550.0348 1005.8392,-540.2973 1003.0308,-550.5132 1010.0144,-550.0348"/>
</g>
<!-- 31 -->
<g id="node32" class="node">
<title>31</title>
<path fill="none" stroke="#56d8d8" stroke-width="2" d="M1162.3147,-468C1162.3147,-468 1038.8572,-468 1038.8572,-468 1032.8572,-468 1026.8572,-462 1026.8572,-456 1026.8572,-456 1026.8572,-444 1026.8572,-444 1026.8572,-438 1032.8572,-432 1038.8572,-432 1038.8572,-432 1162.3147,-432 1162.3147,-432 1168.3147,-432 1174.3147,-438 1174.3147,-444 1174.3147,-444 1174.3147,-456 1174.3147,-456 1174.3147,-462 1168.3147,-468 1162.3147,-468"/>
<text text-anchor="middle" x="1100.5859" y="-447" font-family="sans" font-size="10.00" fill="#000000">realigned_trim_primer_quality</text>
</g>
<!-- 5&#45;&gt;31 -->
<g id="edge49" class="edge">
<title>5&#45;&gt;31</title>
<path fill="none" stroke="#c0c0c0" stroke-width="2" d="M1022.8462,-575.8165C1030.0096,-565.3228 1038.9298,-552.0425 1046.5859,-540 1059.9061,-519.0487 1074.3439,-494.9052 1084.9365,-476.9022"/>
<polygon fill="#c0c0c0" stroke="#c0c0c0" stroke-width="2" points="1088.0605,-478.4939 1090.099,-468.097 1082.0218,-474.9534 1088.0605,-478.4939"/>
</g>
<!-- 6 -->
<g id="node7" class="node">
<title>6</title>
<path fill="none" stroke="#afd856" stroke-width="2" d="M637.9608,-686C637.9608,-686 577.2111,-686 577.2111,-686 571.2111,-686 565.2111,-680 565.2111,-674 565.2111,-674 565.2111,-662 565.2111,-662 565.2111,-656 571.2111,-650 577.2111,-650 577.2111,-650 637.9608,-650 637.9608,-650 643.9608,-650 649.9608,-656 649.9608,-662 649.9608,-662 649.9608,-674 649.9608,-674 649.9608,-680 643.9608,-686 637.9608,-686"/>
<text text-anchor="middle" x="607.5859" y="-665" font-family="sans" font-size="10.00" fill="#000000">call_consensus</text>
</g>
<!-- 13 -->
<g id="node14" class="node">
<title>13</title>
<path fill="none" stroke="#d88556" stroke-width="2" d="M647.9851,-614C647.9851,-614 567.1867,-614 567.1867,-614 561.1867,-614 555.1867,-608 555.1867,-602 555.1867,-602 555.1867,-588 555.1867,-588 555.1867,-582 561.1867,-576 567.1867,-576 567.1867,-576 647.9851,-576 647.9851,-576 653.9851,-576 659.9851,-582 659.9851,-588 659.9851,-588 659.9851,-602 659.9851,-602 659.9851,-608 653.9851,-614 647.9851,-614"/>
<text text-anchor="middle" x="607.5859" y="-602" font-family="sans" font-size="10.00" fill="#000000">align_to_consensus</text>
<text text-anchor="middle" x="607.5859" y="-592" font-family="sans" font-size="10.00" fill="#000000">rep: b</text>
<text text-anchor="middle" x="607.5859" y="-582" font-family="sans" font-size="10.00" fill="#000000">sample: ZI27_</text>
</g>
<!-- 6&#45;&gt;13 -->
<g id="edge21" class="edge">
<title>6&#45;&gt;13</title>
<path fill="none" stroke="#c0c0c0" stroke-width="2" d="M607.5859,-649.9551C607.5859,-642.2107 607.5859,-632.9622 607.5859,-624.2811"/>
<polygon fill="#c0c0c0" stroke="#c0c0c0" stroke-width="2" points="611.086,-624.1128 607.5859,-614.1128 604.086,-624.1129 611.086,-624.1128"/>
</g>
<!-- 15 -->
<g id="node16" class="node">
<title>15</title>
<path fill="none" stroke="#5682d8" stroke-width="2" d="M801.2579,-180C801.2579,-180 687.914,-180 687.914,-180 681.914,-180 675.914,-174 675.914,-168 675.914,-168 675.914,-156 675.914,-156 675.914,-150 681.914,-144 687.914,-144 687.914,-144 801.2579,-144 801.2579,-144 807.2579,-144 813.2579,-150 813.2579,-156 813.2579,-156 813.2579,-168 813.2579,-168 813.2579,-174 807.2579,-180 801.2579,-180"/>
<text text-anchor="middle" x="744.5859" y="-159" font-family="sans" font-size="10.00" fill="#000000">call_variants_post_removal</text>
</g>
<!-- 6&#45;&gt;15 -->
<g id="edge27" class="edge">
<title>6&#45;&gt;15</title>
<path fill="none" stroke="#c0c0c0" stroke-width="2" d="M640.1381,-649.9491C678.3533,-626.0854 736.5859,-580.1771 736.5859,-522 736.5859,-522 736.5859,-522 736.5859,-306 736.5859,-265.8141 739.7303,-219.417 742.0765,-190.3918"/>
<polygon fill="#c0c0c0" stroke="#c0c0c0" stroke-width="2" points="745.5859,-190.4235 742.9283,-180.1674 738.61,-189.8422 745.5859,-190.4235"/>
</g>
<!-- 6&#45;&gt;22 -->
<g id="edge40" class="edge">
<title>6&#45;&gt;22</title>
<path fill="none" stroke="#c0c0c0" stroke-width="2" d="M584.8532,-649.765C547.1769,-617.7947 473.5662,-547.4278 449.5859,-468 443.5219,-447.9146 445.978,-424.25 449.7067,-406.2288"/>
<polygon fill="#c0c0c0" stroke="#c0c0c0" stroke-width="2" points="453.1504,-406.8716 451.9943,-396.34 446.3305,-405.2938 453.1504,-406.8716"/>
</g>
<!-- 7&#45;&gt;15 -->
<g id="edge26" class="edge">
<title>7&#45;&gt;15</title>
<path fill="none" stroke="#c0c0c0" stroke-width="2" d="M572.9605,-220.2879C603.7079,-209.8454 646.6009,-195.278 681.8136,-183.3189"/>
<polygon fill="#c0c0c0" stroke="#c0c0c0" stroke-width="2" points="683.182,-186.5506 691.5253,-180.0206 680.9309,-179.9224 683.182,-186.5506"/>
</g>
<!-- 8 -->
<g id="node9" class="node">
<title>8</title>
<path fill="none" stroke="#56a9d8" stroke-width="2" d="M1258.3889,-324C1258.3889,-324 1208.7829,-324 1208.7829,-324 1202.7829,-324 1196.7829,-318 1196.7829,-312 1196.7829,-312 1196.7829,-300 1196.7829,-300 1196.7829,-294 1202.7829,-288 1208.7829,-288 1208.7829,-288 1258.3889,-288 1258.3889,-288 1264.3889,-288 1270.3889,-294 1270.3889,-300 1270.3889,-300 1270.3889,-312 1270.3889,-312 1270.3889,-318 1264.3889,-324 1258.3889,-324"/>
<text text-anchor="middle" x="1233.5859" y="-308" font-family="sans" font-size="10.00" fill="#000000">get_masked</text>
<text text-anchor="middle" x="1233.5859" y="-298" font-family="sans" font-size="10.00" fill="#000000">sample: ZI26</text>
</g>
<!-- 8&#45;&gt;0 -->
<g id="edge2" class="edge">
<title>8&#45;&gt;0</title>
<path fill="none" stroke="#c0c0c0" stroke-width="2" d="M1261.0912,-287.8314C1274.9039,-278.7074 1291.8116,-267.539 1306.6389,-257.7449"/>
<polygon fill="#c0c0c0" stroke="#c0c0c0" stroke-width="2" points="1308.6745,-260.5949 1315.0894,-252.1628 1304.8164,-254.7541 1308.6745,-260.5949"/>
</g>
<!-- 26 -->
<g id="node27" class="node">
<title>26</title>
<path fill="none" stroke="#d85656" stroke-width="2" d="M1128.5069,-252C1128.5069,-252 1072.665,-252 1072.665,-252 1066.665,-252 1060.665,-246 1060.665,-240 1060.665,-240 1060.665,-228 1060.665,-228 1060.665,-222 1066.665,-216 1072.665,-216 1072.665,-216 1128.5069,-216 1128.5069,-216 1134.5069,-216 1140.5069,-222 1140.5069,-228 1140.5069,-228 1140.5069,-240 1140.5069,-240 1140.5069,-246 1134.5069,-252 1128.5069,-252"/>
<text text-anchor="middle" x="1100.5859" y="-231" font-family="sans" font-size="10.00" fill="#000000">remove_reads</text>
</g>
<!-- 8&#45;&gt;26 -->
<g id="edge43" class="edge">
<title>8&#45;&gt;26</title>
<path fill="none" stroke="#c0c0c0" stroke-width="2" d="M1200.0244,-287.8314C1182.6979,-278.4516 1161.3802,-266.9112 1142.9323,-256.9244"/>
<polygon fill="#c0c0c0" stroke="#c0c0c0" stroke-width="2" points="1144.5971,-253.8457 1134.1367,-252.1628 1141.2645,-260.0015 1144.5971,-253.8457"/>
</g>
<!-- 9 -->
<g id="node10" class="node">
<title>9</title>
<path fill="none" stroke="#d6d856" stroke-width="2" d="M638.0118,-830C638.0118,-830 577.1601,-830 577.1601,-830 571.1601,-830 565.1601,-824 565.1601,-818 565.1601,-818 565.1601,-806 565.1601,-806 565.1601,-800 571.1601,-794 577.1601,-794 577.1601,-794 638.0118,-794 638.0118,-794 644.0118,-794 650.0118,-800 650.0118,-806 650.0118,-806 650.0118,-818 650.0118,-818 650.0118,-824 644.0118,-830 638.0118,-830"/>
<text text-anchor="middle" x="607.5859" y="-814" font-family="sans" font-size="10.00" fill="#000000">align_reads</text>
<text text-anchor="middle" x="607.5859" y="-804" font-family="sans" font-size="10.00" fill="#000000">sample: ZI27_b</text>
</g>
<!-- 35 -->
<g id="node36" class="node">
<title>35</title>
<path fill="none" stroke="#56d882" stroke-width="2" d="M709.9202,-758C709.9202,-758 505.2517,-758 505.2517,-758 499.2517,-758 493.2517,-752 493.2517,-746 493.2517,-746 493.2517,-734 493.2517,-734 493.2517,-728 499.2517,-722 505.2517,-722 505.2517,-722 709.9202,-722 709.9202,-722 715.9202,-722 721.9202,-728 721.9202,-734 721.9202,-734 721.9202,-746 721.9202,-746 721.9202,-752 715.9202,-758 709.9202,-758"/>
<text text-anchor="middle" x="607.5859" y="-742" font-family="sans" font-size="10.00" fill="#000000">trim_primer_quality</text>
<text text-anchor="middle" x="607.5859" y="-732" font-family="sans" font-size="10.00" fill="#000000">out_dir: /Users/karthik/hpc_downloads/test_field</text>
</g>
<!-- 9&#45;&gt;35 -->
<g id="edge56" class="edge">
<title>9&#45;&gt;35</title>
<path fill="none" stroke="#c0c0c0" stroke-width="2" d="M607.5859,-793.8314C607.5859,-786.131 607.5859,-776.9743 607.5859,-768.4166"/>
<polygon fill="#c0c0c0" stroke="#c0c0c0" stroke-width="2" points="611.086,-768.4132 607.5859,-758.4133 604.086,-768.4133 611.086,-768.4132"/>
</g>
<!-- 10&#45;&gt;8 -->
<g id="edge13" class="edge">
<title>10&#45;&gt;8</title>
<path fill="none" stroke="#c0c0c0" stroke-width="2" d="M1267.2305,-359.8314C1262.1533,-351.7079 1256.0633,-341.9637 1250.4683,-333.0118"/>
<polygon fill="#c0c0c0" stroke="#c0c0c0" stroke-width="2" points="1253.3623,-331.0383 1245.0942,-324.4133 1247.4263,-334.7483 1253.3623,-331.0383"/>
</g>
<!-- 11 -->
<g id="node12" class="node">
<title>11</title>
<path fill="none" stroke="#56d882" stroke-width="2" d="M1111.9202,-758C1111.9202,-758 907.2517,-758 907.2517,-758 901.2517,-758 895.2517,-752 895.2517,-746 895.2517,-746 895.2517,-734 895.2517,-734 895.2517,-728 901.2517,-722 907.2517,-722 907.2517,-722 1111.9202,-722 1111.9202,-722 1117.9202,-722 1123.9202,-728 1123.9202,-734 1123.9202,-734 1123.9202,-746 1123.9202,-746 1123.9202,-752 1117.9202,-758 1111.9202,-758"/>
<text text-anchor="middle" x="1009.5859" y="-742" font-family="sans" font-size="10.00" fill="#000000">trim_primer_quality</text>
<text text-anchor="middle" x="1009.5859" y="-732" font-family="sans" font-size="10.00" fill="#000000">out_dir: /Users/karthik/hpc_downloads/test_field</text>
</g>
<!-- 38 -->
<g id="node39" class="node">
<title>38</title>
<path fill="none" stroke="#afd856" stroke-width="2" d="M1039.9608,-686C1039.9608,-686 979.2111,-686 979.2111,-686 973.2111,-686 967.2111,-680 967.2111,-674 967.2111,-674 967.2111,-662 967.2111,-662 967.2111,-656 973.2111,-650 979.2111,-650 979.2111,-650 1039.9608,-650 1039.9608,-650 1045.9608,-650 1051.9608,-656 1051.9608,-662 1051.9608,-662 1051.9608,-674 1051.9608,-674 1051.9608,-680 1045.9608,-686 1039.9608,-686"/>
<text text-anchor="middle" x="1009.5859" y="-665" font-family="sans" font-size="10.00" fill="#000000">call_consensus</text>
</g>
<!-- 11&#45;&gt;38 -->
<g id="edge61" class="edge">
<title>11&#45;&gt;38</title>
<path fill="none" stroke="#c0c0c0" stroke-width="2" d="M1009.5859,-721.8314C1009.5859,-714.131 1009.5859,-704.9743 1009.5859,-696.4166"/>
<polygon fill="#c0c0c0" stroke="#c0c0c0" stroke-width="2" points="1013.086,-696.4132 1009.5859,-686.4133 1006.086,-696.4133 1013.086,-696.4132"/>
</g>
<!-- 12&#45;&gt;0 -->
<g id="edge1" class="edge">
<title>12&#45;&gt;0</title>
<path fill="none" stroke="#c0c0c0" stroke-width="2" d="M1342.5859,-431.9555C1342.5859,-394.3938 1342.5859,-307.5541 1342.5859,-262.4103"/>
<polygon fill="#c0c0c0" stroke="#c0c0c0" stroke-width="2" points="1346.086,-262.145 1342.5859,-252.1451 1339.086,-262.1451 1346.086,-262.145"/>
</g>
<!-- 12&#45;&gt;10 -->
<g id="edge16" class="edge">
<title>12&#45;&gt;10</title>
<path fill="none" stroke="#c0c0c0" stroke-width="2" d="M1326.436,-431.8314C1318.9143,-423.3694 1309.8294,-413.1489 1301.6056,-403.8971"/>
<polygon fill="#c0c0c0" stroke="#c0c0c0" stroke-width="2" points="1304.2129,-401.5621 1294.9533,-396.4133 1298.981,-406.2127 1304.2129,-401.5621"/>
</g>
<!-- 13&#45;&gt;4 -->
<g id="edge6" class="edge">
<title>13&#45;&gt;4</title>
<path fill="none" stroke="#c0c0c0" stroke-width="2" d="M597.6265,-575.7451C584.5954,-550.5517 561.6759,-506.2405 546.8164,-477.5123"/>
<polygon fill="#c0c0c0" stroke="#c0c0c0" stroke-width="2" points="549.8151,-475.6914 542.1121,-468.4172 543.5976,-478.9074 549.8151,-475.6914"/>
</g>
<!-- 29 -->
<g id="node30" class="node">
<title>29</title>
<path fill="none" stroke="#d8ac56" stroke-width="2" d="M645.625,-540C645.625,-540 603.5469,-540 603.5469,-540 597.5469,-540 591.5469,-534 591.5469,-528 591.5469,-528 591.5469,-516 591.5469,-516 591.5469,-510 597.5469,-504 603.5469,-504 603.5469,-504 645.625,-504 645.625,-504 651.625,-504 657.625,-510 657.625,-516 657.625,-516 657.625,-528 657.625,-528 657.625,-534 651.625,-540 645.625,-540"/>
<text text-anchor="middle" x="624.5859" y="-519" font-family="sans" font-size="10.00" fill="#000000">create_bed</text>
</g>
<!-- 13&#45;&gt;29 -->
<g id="edge47" class="edge">
<title>13&#45;&gt;29</title>
<path fill="none" stroke="#c0c0c0" stroke-width="2" d="M612.0525,-575.8201C613.8709,-568.0117 616.0099,-558.8265 618.001,-550.2764"/>
<polygon fill="#c0c0c0" stroke="#c0c0c0" stroke-width="2" points="621.4655,-550.8306 620.3249,-540.2973 614.648,-549.2429 621.4655,-550.8306"/>
</g>
<!-- 14 -->
<g id="node15" class="node">
<title>14</title>
<path fill="none" stroke="#80d856" stroke-width="2" d="M1022.5552,-108C1022.5552,-108 970.6167,-108 970.6167,-108 964.6167,-108 958.6167,-102 958.6167,-96 958.6167,-96 958.6167,-84 958.6167,-84 958.6167,-78 964.6167,-72 970.6167,-72 970.6167,-72 1022.5552,-72 1022.5552,-72 1028.5552,-72 1034.5552,-78 1034.5552,-84 1034.5552,-84 1034.5552,-96 1034.5552,-96 1034.5552,-102 1028.5552,-108 1022.5552,-108"/>
<text text-anchor="middle" x="996.5859" y="-92" font-family="sans" font-size="10.00" fill="#000000">filter_variants</text>
<text text-anchor="middle" x="996.5859" y="-82" font-family="sans" font-size="10.00" fill="#000000">sample: ZI26</text>
</g>
<!-- 37 -->
<g id="node38" class="node">
<title>37</title>
<path fill="none" stroke="#56d8a9" stroke-width="2" d="M836.5859,-36C836.5859,-36 806.5859,-36 806.5859,-36 800.5859,-36 794.5859,-30 794.5859,-24 794.5859,-24 794.5859,-12 794.5859,-12 794.5859,-6 800.5859,0 806.5859,0 806.5859,0 836.5859,0 836.5859,0 842.5859,0 848.5859,-6 848.5859,-12 848.5859,-12 848.5859,-24 848.5859,-24 848.5859,-30 842.5859,-36 836.5859,-36"/>
<text text-anchor="middle" x="821.5859" y="-15" font-family="sans" font-size="10.00" fill="#000000">all</text>
</g>
<!-- 14&#45;&gt;37 -->
<g id="edge59" class="edge">
<title>14&#45;&gt;37</title>
<path fill="none" stroke="#c0c0c0" stroke-width="2" d="M958.6135,-74.3771C928.8094,-62.1148 887.5741,-45.1494 858.1406,-33.0397"/>
<polygon fill="#c0c0c0" stroke="#c0c0c0" stroke-width="2" points="859.2245,-29.701 848.6449,-29.1328 856.561,-36.1745 859.2245,-29.701"/>
</g>
<!-- 20 -->
<g id="node21" class="node">
<title>20</title>
<path fill="none" stroke="#80d856" stroke-width="2" d="M673.5552,-108C673.5552,-108 621.6167,-108 621.6167,-108 615.6167,-108 609.6167,-102 609.6167,-96 609.6167,-96 609.6167,-84 609.6167,-84 609.6167,-78 615.6167,-72 621.6167,-72 621.6167,-72 673.5552,-72 673.5552,-72 679.5552,-72 685.5552,-78 685.5552,-84 685.5552,-84 685.5552,-96 685.5552,-96 685.5552,-102 679.5552,-108 673.5552,-108"/>
<text text-anchor="middle" x="647.5859" y="-92" font-family="sans" font-size="10.00" fill="#000000">filter_variants</text>
<text text-anchor="middle" x="647.5859" y="-82" font-family="sans" font-size="10.00" fill="#000000">sample: ZI27</text>
</g>
<!-- 15&#45;&gt;20 -->
<g id="edge33" class="edge">
<title>15&#45;&gt;20</title>
<path fill="none" stroke="#c0c0c0" stroke-width="2" d="M720.1087,-143.8314C708.0465,-134.8779 693.332,-123.9558 680.3173,-114.2955"/>
<polygon fill="#c0c0c0" stroke="#c0c0c0" stroke-width="2" points="682.1711,-111.3127 672.0553,-108.1628 677.9989,-116.9335 682.1711,-111.3127"/>
</g>
<!-- 16&#45;&gt;14 -->
<g id="edge24" class="edge">
<title>16&#45;&gt;14</title>
<path fill="none" stroke="#c0c0c0" stroke-width="2" d="M1484.8452,-146.5374C1480.0297,-145.6252 1475.2413,-144.768 1470.5859,-144 1315.8483,-118.4729 1130.6942,-101.1654 1044.7751,-93.8838"/>
<polygon fill="#c0c0c0" stroke="#c0c0c0" stroke-width="2" points="1044.8095,-90.3745 1034.5516,-93.0251 1044.2235,-97.3499 1044.8095,-90.3745"/>
</g>
<!-- 17 -->
<g id="node18" class="node">
<title>17</title>
<path fill="none" stroke="#56d882" stroke-width="2" d="M342.9202,-758C342.9202,-758 138.2517,-758 138.2517,-758 132.2517,-758 126.2517,-752 126.2517,-746 126.2517,-746 126.2517,-734 126.2517,-734 126.2517,-728 132.2517,-722 138.2517,-722 138.2517,-722 342.9202,-722 342.9202,-722 348.9202,-722 354.9202,-728 354.9202,-734 354.9202,-734 354.9202,-746 354.9202,-746 354.9202,-752 348.9202,-758 342.9202,-758"/>
<text text-anchor="middle" x="240.5859" y="-742" font-family="sans" font-size="10.00" fill="#000000">trim_primer_quality</text>
<text text-anchor="middle" x="240.5859" y="-732" font-family="sans" font-size="10.00" fill="#000000">out_dir: /Users/karthik/hpc_downloads/test_field</text>
</g>
<!-- 32 -->
<g id="node33" class="node">
<title>32</title>
<path fill="none" stroke="#afd856" stroke-width="2" d="M270.9608,-686C270.9608,-686 210.2111,-686 210.2111,-686 204.2111,-686 198.2111,-680 198.2111,-674 198.2111,-674 198.2111,-662 198.2111,-662 198.2111,-656 204.2111,-650 210.2111,-650 210.2111,-650 270.9608,-650 270.9608,-650 276.9608,-650 282.9608,-656 282.9608,-662 282.9608,-662 282.9608,-674 282.9608,-674 282.9608,-680 276.9608,-686 270.9608,-686"/>
<text text-anchor="middle" x="240.5859" y="-665" font-family="sans" font-size="10.00" fill="#000000">call_consensus</text>
</g>
<!-- 17&#45;&gt;32 -->
<g id="edge51" class="edge">
<title>17&#45;&gt;32</title>
<path fill="none" stroke="#c0c0c0" stroke-width="2" d="M240.5859,-721.8314C240.5859,-714.131 240.5859,-704.9743 240.5859,-696.4166"/>
<polygon fill="#c0c0c0" stroke="#c0c0c0" stroke-width="2" points="244.086,-696.4132 240.5859,-686.4133 237.086,-696.4133 244.086,-696.4132"/>
</g>
<!-- 18 -->
<g id="node19" class="node">
<title>18</title>
<path fill="none" stroke="#59d856" stroke-width="2" d="M1212.1682,-396C1212.1682,-396 1165.0037,-396 1165.0037,-396 1159.0037,-396 1153.0037,-390 1153.0037,-384 1153.0037,-384 1153.0037,-372 1153.0037,-372 1153.0037,-366 1159.0037,-360 1165.0037,-360 1165.0037,-360 1212.1682,-360 1212.1682,-360 1218.1682,-360 1224.1682,-366 1224.1682,-372 1224.1682,-372 1224.1682,-384 1224.1682,-384 1224.1682,-390 1218.1682,-396 1212.1682,-396"/>
<text text-anchor="middle" x="1188.5859" y="-375" font-family="sans" font-size="10.00" fill="#000000">call_variants</text>
</g>
<!-- 18&#45;&gt;8 -->
<g id="edge15" class="edge">
<title>18&#45;&gt;8</title>
<path fill="none" stroke="#c0c0c0" stroke-width="2" d="M1199.9413,-359.8314C1205.0185,-351.7079 1211.1086,-341.9637 1216.7036,-333.0118"/>
<polygon fill="#c0c0c0" stroke="#c0c0c0" stroke-width="2" points="1219.7456,-334.7483 1222.0776,-324.4133 1213.8096,-331.0383 1219.7456,-334.7483"/>
</g>
<!-- 19 -->
<g id="node20" class="node">
<title>19</title>
<path fill="none" stroke="#d6d856" stroke-width="2" d="M1040.0118,-830C1040.0118,-830 979.1601,-830 979.1601,-830 973.1601,-830 967.1601,-824 967.1601,-818 967.1601,-818 967.1601,-806 967.1601,-806 967.1601,-800 973.1601,-794 979.1601,-794 979.1601,-794 1040.0118,-794 1040.0118,-794 1046.0118,-794 1052.0118,-800 1052.0118,-806 1052.0118,-806 1052.0118,-818 1052.0118,-818 1052.0118,-824 1046.0118,-830 1040.0118,-830"/>
<text text-anchor="middle" x="1009.5859" y="-814" font-family="sans" font-size="10.00" fill="#000000">align_reads</text>
<text text-anchor="middle" x="1009.5859" y="-804" font-family="sans" font-size="10.00" fill="#000000">sample: ZI26_a</text>
</g>
<!-- 19&#45;&gt;11 -->
<g id="edge18" class="edge">
<title>19&#45;&gt;11</title>
<path fill="none" stroke="#c0c0c0" stroke-width="2" d="M1009.5859,-793.8314C1009.5859,-786.131 1009.5859,-776.9743 1009.5859,-768.4166"/>
<polygon fill="#c0c0c0" stroke="#c0c0c0" stroke-width="2" points="1013.086,-768.4132 1009.5859,-758.4133 1006.086,-768.4133 1013.086,-768.4132"/>
</g>
<!-- 20&#45;&gt;37 -->
<g id="edge60" class="edge">
<title>20&#45;&gt;37</title>
<path fill="none" stroke="#c0c0c0" stroke-width="2" d="M685.3413,-74.3771C714.8854,-62.152 755.7264,-45.2522 784.9737,-33.1499"/>
<polygon fill="#c0c0c0" stroke="#c0c0c0" stroke-width="2" points="786.5129,-36.3008 794.4149,-29.2432 783.8364,-29.8327 786.5129,-36.3008"/>
</g>
<!-- 21 -->
<g id="node22" class="node">
<title>21</title>
<path fill="none" stroke="#56d8d8" stroke-width="2" d="M352.3147,-468C352.3147,-468 228.8572,-468 228.8572,-468 222.8572,-468 216.8572,-462 216.8572,-456 216.8572,-456 216.8572,-444 216.8572,-444 216.8572,-438 222.8572,-432 228.8572,-432 228.8572,-432 352.3147,-432 352.3147,-432 358.3147,-432 364.3147,-438 364.3147,-444 364.3147,-444 364.3147,-456 364.3147,-456 364.3147,-462 358.3147,-468 352.3147,-468"/>
<text text-anchor="middle" x="290.5859" y="-447" font-family="sans" font-size="10.00" fill="#000000">realigned_trim_primer_quality</text>
</g>
<!-- 33 -->
<g id="node34" class="node">
<title>33</title>
<path fill="none" stroke="#59d856" stroke-width="2" d="M391.1682,-396C391.1682,-396 344.0037,-396 344.0037,-396 338.0037,-396 332.0037,-390 332.0037,-384 332.0037,-384 332.0037,-372 332.0037,-372 332.0037,-366 338.0037,-360 344.0037,-360 344.0037,-360 391.1682,-360 391.1682,-360 397.1682,-360 403.1682,-366 403.1682,-372 403.1682,-372 403.1682,-384 403.1682,-384 403.1682,-390 397.1682,-396 391.1682,-396"/>
<text text-anchor="middle" x="367.5859" y="-375" font-family="sans" font-size="10.00" fill="#000000">call_variants</text>
</g>
<!-- 21&#45;&gt;33 -->
<g id="edge52" class="edge">
<title>21&#45;&gt;33</title>
<path fill="none" stroke="#c0c0c0" stroke-width="2" d="M310.0163,-431.8314C319.3179,-423.1337 330.6063,-412.5783 340.7145,-403.1265"/>
<polygon fill="#c0c0c0" stroke="#c0c0c0" stroke-width="2" points="343.248,-405.5493 348.1618,-396.1628 338.467,-400.4363 343.248,-405.5493"/>
</g>
<!-- 36 -->
<g id="node37" class="node">
<title>36</title>
<path fill="none" stroke="#d85656" stroke-width="2" d="M318.5069,-252C318.5069,-252 262.665,-252 262.665,-252 256.665,-252 250.665,-246 250.665,-240 250.665,-240 250.665,-228 250.665,-228 250.665,-222 256.665,-216 262.665,-216 262.665,-216 318.5069,-216 318.5069,-216 324.5069,-216 330.5069,-222 330.5069,-228 330.5069,-228 330.5069,-240 330.5069,-240 330.5069,-246 324.5069,-252 318.5069,-252"/>
<text text-anchor="middle" x="290.5859" y="-231" font-family="sans" font-size="10.00" fill="#000000">remove_reads</text>
</g>
<!-- 21&#45;&gt;36 -->
<g id="edge58" class="edge">
<title>21&#45;&gt;36</title>
<path fill="none" stroke="#c0c0c0" stroke-width="2" d="M290.5859,-431.9555C290.5859,-394.3938 290.5859,-307.5541 290.5859,-262.4103"/>
<polygon fill="#c0c0c0" stroke="#c0c0c0" stroke-width="2" points="294.086,-262.145 290.5859,-252.1451 287.086,-262.1451 294.086,-262.145"/>
</g>
<!-- 39 -->
<g id="node40" class="node">
<title>39</title>
<path fill="none" stroke="#56a9d8" stroke-width="2" d="M437.3889,-324C437.3889,-324 387.7829,-324 387.7829,-324 381.7829,-324 375.7829,-318 375.7829,-312 375.7829,-312 375.7829,-300 375.7829,-300 375.7829,-294 381.7829,-288 387.7829,-288 387.7829,-288 437.3889,-288 437.3889,-288 443.3889,-288 449.3889,-294 449.3889,-300 449.3889,-300 449.3889,-312 449.3889,-312 449.3889,-318 443.3889,-324 437.3889,-324"/>
<text text-anchor="middle" x="412.5859" y="-308" font-family="sans" font-size="10.00" fill="#000000">get_masked</text>
<text text-anchor="middle" x="412.5859" y="-298" font-family="sans" font-size="10.00" fill="#000000">sample: ZI27</text>
</g>
<!-- 22&#45;&gt;39 -->
<g id="edge62" class="edge">
<title>22&#45;&gt;39</title>
<path fill="none" stroke="#c0c0c0" stroke-width="2" d="M446.2305,-359.8314C441.1533,-351.7079 435.0633,-341.9637 429.4683,-333.0118"/>
<polygon fill="#c0c0c0" stroke="#c0c0c0" stroke-width="2" points="432.3623,-331.0383 424.0942,-324.4133 426.4263,-334.7483 432.3623,-331.0383"/>
</g>
<!-- 23&#45;&gt;8 -->
<g id="edge14" class="edge">
<title>23&#45;&gt;8</title>
<path fill="none" stroke="#c0c0c0" stroke-width="2" d="M1429.5253,-503.9507C1433.6944,-484.918 1437.3039,-454.6147 1425.5859,-432 1395.8746,-374.6594 1326.8953,-339.4373 1280.2348,-321.2998"/>
<polygon fill="#c0c0c0" stroke="#c0c0c0" stroke-width="2" points="1281.2309,-317.935 1270.6389,-317.687 1278.7644,-324.4861 1281.2309,-317.935"/>
</g>
<!-- 23&#45;&gt;12 -->
<g id="edge20" class="edge">
<title>23&#45;&gt;12</title>
<path fill="none" stroke="#c0c0c0" stroke-width="2" d="M1403.8939,-503.8314C1393.8911,-495.0485 1381.7309,-484.3712 1370.886,-474.8489"/>
<polygon fill="#c0c0c0" stroke="#c0c0c0" stroke-width="2" points="1373.0951,-472.1308 1363.2714,-468.1628 1368.4765,-477.3909 1373.0951,-472.1308"/>
</g>
<!-- 23&#45;&gt;14 -->
<g id="edge23" class="edge">
<title>23&#45;&gt;14</title>
<path fill="none" stroke="#c0c0c0" stroke-width="2" d="M1432.2539,-503.8756C1436.1998,-493.5642 1440.5914,-480.2907 1442.5859,-468 1445.1489,-452.2066 1444.4367,-447.8926 1442.5859,-432 1431.176,-334.0225 1458.6013,-288.379 1391.5859,-216 1343.812,-164.4023 1138.8796,-118.171 1044.505,-99.1696"/>
<polygon fill="#c0c0c0" stroke="#c0c0c0" stroke-width="2" points="1045.1336,-95.7261 1034.642,-97.202 1043.7641,-102.5908 1045.1336,-95.7261"/>
</g>
<!-- 24&#45;&gt;8 -->
<g id="edge12" class="edge">
<title>24&#45;&gt;8</title>
<path fill="none" stroke="#c0c0c0" stroke-width="2" d="M1002.8092,-503.8021C1001.8497,-484.3671 1003.1149,-453.4693 1017.5859,-432 1057.737,-372.4319 1136.2252,-337.2281 1186.7167,-319.7789"/>
<polygon fill="#c0c0c0" stroke="#c0c0c0" stroke-width="2" points="1188.054,-323.0221 1196.422,-316.5239 1185.8281,-316.3854 1188.054,-323.0221"/>
</g>
<!-- 24&#45;&gt;14 -->
<g id="edge25" class="edge">
<title>24&#45;&gt;14</title>
<path fill="none" stroke="#c0c0c0" stroke-width="2" d="M1002.9262,-503.5225C1002.0632,-493.1006 1001.0864,-479.8343 1000.5859,-468 995.067,-337.4835 995.7121,-181.4055 996.2723,-118.421"/>
<polygon fill="#c0c0c0" stroke="#c0c0c0" stroke-width="2" points="999.7751,-118.1415 996.371,-108.1084 992.7754,-118.0744 999.7751,-118.1415"/>
</g>
<!-- 24&#45;&gt;31 -->
<g id="edge50" class="edge">
<title>24&#45;&gt;31</title>
<path fill="none" stroke="#c0c0c0" stroke-width="2" d="M1028.8108,-503.8314C1040.7487,-494.8779 1055.3115,-483.9558 1068.192,-474.2955"/>
<polygon fill="#c0c0c0" stroke="#c0c0c0" stroke-width="2" points="1070.4688,-476.9629 1076.3688,-468.1628 1066.2688,-471.3629 1070.4688,-476.9629"/>
</g>
<!-- 25 -->
<g id="node26" class="node">
<title>25</title>
<path fill="none" stroke="#d6d856" stroke-width="2" d="M271.0118,-830C271.0118,-830 210.1601,-830 210.1601,-830 204.1601,-830 198.1601,-824 198.1601,-818 198.1601,-818 198.1601,-806 198.1601,-806 198.1601,-800 204.1601,-794 210.1601,-794 210.1601,-794 271.0118,-794 271.0118,-794 277.0118,-794 283.0118,-800 283.0118,-806 283.0118,-806 283.0118,-818 283.0118,-818 283.0118,-824 277.0118,-830 271.0118,-830"/>
<text text-anchor="middle" x="240.5859" y="-814" font-family="sans" font-size="10.00" fill="#000000">align_reads</text>
<text text-anchor="middle" x="240.5859" y="-804" font-family="sans" font-size="10.00" fill="#000000">sample: ZI27_a</text>
</g>
<!-- 25&#45;&gt;17 -->
<g id="edge30" class="edge">
<title>25&#45;&gt;17</title>
<path fill="none" stroke="#c0c0c0" stroke-width="2" d="M240.5859,-793.8314C240.5859,-786.131 240.5859,-776.9743 240.5859,-768.4166"/>
<polygon fill="#c0c0c0" stroke="#c0c0c0" stroke-width="2" points="244.086,-768.4132 240.5859,-758.4133 237.086,-768.4133 244.086,-768.4132"/>
</g>
<!-- 34 -->
<g id="node35" class="node">
<title>34</title>
<path fill="none" stroke="#5682d8" stroke-width="2" d="M956.2579,-180C956.2579,-180 842.914,-180 842.914,-180 836.914,-180 830.914,-174 830.914,-168 830.914,-168 830.914,-156 830.914,-156 830.914,-150 836.914,-144 842.914,-144 842.914,-144 956.2579,-144 956.2579,-144 962.2579,-144 968.2579,-150 968.2579,-156 968.2579,-156 968.2579,-168 968.2579,-168 968.2579,-174 962.2579,-180 956.2579,-180"/>
<text text-anchor="middle" x="899.5859" y="-159" font-family="sans" font-size="10.00" fill="#000000">call_variants_post_removal</text>
</g>
<!-- 26&#45;&gt;34 -->
<g id="edge54" class="edge">
<title>26&#45;&gt;34</title>
<path fill="none" stroke="#c0c0c0" stroke-width="2" d="M1060.3937,-219.6028C1031.5105,-209.2566 992.0815,-195.1327 959.4956,-183.4602"/>
<polygon fill="#c0c0c0" stroke="#c0c0c0" stroke-width="2" points="960.657,-180.1585 950.0625,-180.0811 958.2964,-186.7485 960.657,-180.1585"/>
</g>
<!-- 27 -->
<g id="node28" class="node">
<title>27</title>
<path fill="none" stroke="#5682d8" stroke-width="2" d="M125.2579,-180C125.2579,-180 11.914,-180 11.914,-180 5.914,-180 -.086,-174 -.086,-168 -.086,-168 -.086,-156 -.086,-156 -.086,-150 5.914,-144 11.914,-144 11.914,-144 125.2579,-144 125.2579,-144 131.2579,-144 137.2579,-150 137.2579,-156 137.2579,-156 137.2579,-168 137.2579,-168 137.2579,-174 131.2579,-180 125.2579,-180"/>
<text text-anchor="middle" x="68.5859" y="-159" font-family="sans" font-size="10.00" fill="#000000">call_variants_post_removal</text>
</g>
<!-- 27&#45;&gt;20 -->
<g id="edge36" class="edge">
<title>27&#45;&gt;20</title>
<path fill="none" stroke="#c0c0c0" stroke-width="2" d="M137.3223,-146.5107C142.1388,-145.6049 146.9287,-144.7564 151.5859,-144 315.0446,-117.453 510.9851,-100.4403 599.7304,-93.527"/>
<polygon fill="#c0c0c0" stroke="#c0c0c0" stroke-width="2" points="600.0578,-97.0122 609.7589,-92.7533 599.5193,-90.0329 600.0578,-97.0122"/>
</g>
<!-- 28 -->
<g id="node29" class="node">
<title>28</title>
<path fill="none" stroke="#d6d856" stroke-width="2" d="M1424.0118,-830C1424.0118,-830 1363.1601,-830 1363.1601,-830 1357.1601,-830 1351.1601,-824 1351.1601,-818 1351.1601,-818 1351.1601,-806 1351.1601,-806 1351.1601,-800 1357.1601,-794 1363.1601,-794 1363.1601,-794 1424.0118,-794 1424.0118,-794 1430.0118,-794 1436.0118,-800 1436.0118,-806 1436.0118,-806 1436.0118,-818 1436.0118,-818 1436.0118,-824 1430.0118,-830 1424.0118,-830"/>
<text text-anchor="middle" x="1393.5859" y="-814" font-family="sans" font-size="10.00" fill="#000000">align_reads</text>
<text text-anchor="middle" x="1393.5859" y="-804" font-family="sans" font-size="10.00" fill="#000000">sample: ZI26_b</text>
</g>
<!-- 28&#45;&gt;1 -->
<g id="edge3" class="edge">
<title>28&#45;&gt;1</title>
<path fill="none" stroke="#c0c0c0" stroke-width="2" d="M1393.5859,-793.8314C1393.5859,-786.131 1393.5859,-776.9743 1393.5859,-768.4166"/>
<polygon fill="#c0c0c0" stroke="#c0c0c0" stroke-width="2" points="1397.086,-768.4132 1393.5859,-758.4133 1390.086,-768.4133 1397.086,-768.4132"/>
</g>
<!-- 29&#45;&gt;4 -->
<g id="edge7" class="edge">
<title>29&#45;&gt;4</title>
<path fill="none" stroke="#c0c0c0" stroke-width="2" d="M601.3705,-503.8314C590.0389,-494.9632 576.2395,-484.1637 563.9833,-474.5718"/>
<polygon fill="#c0c0c0" stroke="#c0c0c0" stroke-width="2" points="565.8262,-471.5697 555.794,-468.1628 561.512,-477.0822 565.8262,-471.5697"/>
</g>
<!-- 29&#45;&gt;20 -->
<g id="edge34" class="edge">
<title>29&#45;&gt;20</title>
<path fill="none" stroke="#c0c0c0" stroke-width="2" d="M629.1322,-503.6303C631.5,-493.2421 634.1866,-479.9736 635.5859,-468 650.7569,-338.1919 649.5907,-181.7207 648.321,-118.5262"/>
<polygon fill="#c0c0c0" stroke="#c0c0c0" stroke-width="2" points="651.8126,-118.0991 648.0947,-108.178 644.8143,-118.2522 651.8126,-118.0991"/>
</g>
<!-- 29&#45;&gt;39 -->
<g id="edge65" class="edge">
<title>29&#45;&gt;39</title>
<path fill="none" stroke="#c0c0c0" stroke-width="2" d="M627.1631,-503.982C628.9793,-484.7008 629.0813,-453.9336 615.5859,-432 580.0997,-374.3254 507.3191,-338.9694 459.2411,-320.921"/>
<polygon fill="#c0c0c0" stroke="#c0c0c0" stroke-width="2" points="460.2702,-317.571 449.6763,-317.4356 457.8735,-324.1479 460.2702,-317.571"/>
</g>
<!-- 30 -->
<g id="node31" class="node">
<title>30</title>
<path fill="none" stroke="#d88556" stroke-width="2" d="M280.9851,-614C280.9851,-614 200.1867,-614 200.1867,-614 194.1867,-614 188.1867,-608 188.1867,-602 188.1867,-602 188.1867,-588 188.1867,-588 188.1867,-582 194.1867,-576 200.1867,-576 200.1867,-576 280.9851,-576 280.9851,-576 286.9851,-576 292.9851,-582 292.9851,-588 292.9851,-588 292.9851,-602 292.9851,-602 292.9851,-608 286.9851,-614 280.9851,-614"/>
<text text-anchor="middle" x="240.5859" y="-602" font-family="sans" font-size="10.00" fill="#000000">align_to_consensus</text>
<text text-anchor="middle" x="240.5859" y="-592" font-family="sans" font-size="10.00" fill="#000000">rep: a</text>
<text text-anchor="middle" x="240.5859" y="-582" font-family="sans" font-size="10.00" fill="#000000">sample: ZI27_</text>
</g>
<!-- 30&#45;&gt;21 -->
<g id="edge37" class="edge">
<title>30&#45;&gt;21</title>
<path fill="none" stroke="#c0c0c0" stroke-width="2" d="M247.2256,-575.7451C255.8752,-550.6612 271.0599,-506.6255 280.9694,-477.8879"/>
<polygon fill="#c0c0c0" stroke="#c0c0c0" stroke-width="2" points="284.284,-479.012 284.2352,-468.4172 277.6664,-476.73 284.284,-479.012"/>
</g>
<!-- 40 -->
<g id="node41" class="node">
<title>40</title>
<path fill="none" stroke="#d8ac56" stroke-width="2" d="M220.625,-540C220.625,-540 178.5469,-540 178.5469,-540 172.5469,-540 166.5469,-534 166.5469,-528 166.5469,-528 166.5469,-516 166.5469,-516 166.5469,-510 172.5469,-504 178.5469,-504 178.5469,-504 220.625,-504 220.625,-504 226.625,-504 232.625,-510 232.625,-516 232.625,-516 232.625,-528 232.625,-528 232.625,-534 226.625,-540 220.625,-540"/>
<text text-anchor="middle" x="199.5859" y="-519" font-family="sans" font-size="10.00" fill="#000000">create_bed</text>
</g>
<!-- 30&#45;&gt;40 -->
<g id="edge66" class="edge">
<title>30&#45;&gt;40</title>
<path fill="none" stroke="#c0c0c0" stroke-width="2" d="M229.8137,-575.8201C225.2353,-567.6684 219.8143,-558.0164 214.8361,-549.1528"/>
<polygon fill="#c0c0c0" stroke="#c0c0c0" stroke-width="2" points="217.8112,-547.3023 209.8625,-540.2973 211.7079,-550.7302 217.8112,-547.3023"/>
</g>
<!-- 31&#45;&gt;18 -->
<g id="edge31" class="edge">
<title>31&#45;&gt;18</title>
<path fill="none" stroke="#c0c0c0" stroke-width="2" d="M1122.7921,-431.8314C1133.6309,-422.9632 1146.8303,-412.1637 1158.5537,-402.5718"/>
<polygon fill="#c0c0c0" stroke="#c0c0c0" stroke-width="2" points="1160.8637,-405.2041 1166.3869,-396.1628 1156.431,-399.7864 1160.8637,-405.2041"/>
</g>
<!-- 31&#45;&gt;26 -->
<g id="edge44" class="edge">
<title>31&#45;&gt;26</title>
<path fill="none" stroke="#c0c0c0" stroke-width="2" d="M1100.5859,-431.9555C1100.5859,-394.3938 1100.5859,-307.5541 1100.5859,-262.4103"/>
<polygon fill="#c0c0c0" stroke="#c0c0c0" stroke-width="2" points="1104.086,-262.145 1100.5859,-252.1451 1097.086,-262.1451 1104.086,-262.145"/>
</g>
<!-- 32&#45;&gt;27 -->
<g id="edge46" class="edge">
<title>32&#45;&gt;27</title>
<path fill="none" stroke="#c0c0c0" stroke-width="2" d="M202.64,-649.8561C160.2755,-626.6453 97.5859,-582.1386 97.5859,-522 97.5859,-522 97.5859,-522 97.5859,-306 97.5859,-265.1172 86.2135,-218.9678 77.712,-190.1802"/>
<polygon fill="#c0c0c0" stroke="#c0c0c0" stroke-width="2" points="80.996,-188.9494 74.7361,-180.4016 74.2992,-190.9874 80.996,-188.9494"/>
</g>
<!-- 32&#45;&gt;30 -->
<g id="edge48" class="edge">
<title>32&#45;&gt;30</title>
<path fill="none" stroke="#c0c0c0" stroke-width="2" d="M240.5859,-649.9551C240.5859,-642.2107 240.5859,-632.9622 240.5859,-624.2811"/>
<polygon fill="#c0c0c0" stroke="#c0c0c0" stroke-width="2" points="244.086,-624.1128 240.5859,-614.1128 237.086,-624.1129 244.086,-624.1128"/>
</g>
<!-- 32&#45;&gt;33 -->
<g id="edge53" class="edge">
<title>32&#45;&gt;33</title>
<path fill="none" stroke="#c0c0c0" stroke-width="2" d="M265.2201,-649.893C277.238,-640.1975 291.2851,-627.4891 301.5859,-614 345.4964,-556.4984 357.1567,-538.4603 373.5859,-468 378.3198,-447.6976 376.5078,-424.1727 373.6777,-406.267"/>
<polygon fill="#c0c0c0" stroke="#c0c0c0" stroke-width="2" points="377.0812,-405.4153 371.8847,-396.1824 370.1893,-406.6407 377.0812,-405.4153"/>
</g>
<!-- 33&#45;&gt;39 -->
<g id="edge63" class="edge">
<title>33&#45;&gt;39</title>
<path fill="none" stroke="#c0c0c0" stroke-width="2" d="M378.9413,-359.8314C384.0185,-351.7079 390.1086,-341.9637 395.7036,-333.0118"/>
<polygon fill="#c0c0c0" stroke="#c0c0c0" stroke-width="2" points="398.7456,-334.7483 401.0776,-324.4133 392.8096,-331.0383 398.7456,-334.7483"/>
</g>
<!-- 34&#45;&gt;14 -->
<g id="edge22" class="edge">
<title>34&#45;&gt;14</title>
<path fill="none" stroke="#c0c0c0" stroke-width="2" d="M924.0631,-143.8314C936.1254,-134.8779 950.8399,-123.9558 963.8545,-114.2955"/>
<polygon fill="#c0c0c0" stroke="#c0c0c0" stroke-width="2" points="966.1729,-116.9335 972.1166,-108.1628 962.0008,-111.3127 966.1729,-116.9335"/>
</g>
<!-- 35&#45;&gt;6 -->
<g id="edge9" class="edge">
<title>35&#45;&gt;6</title>
<path fill="none" stroke="#c0c0c0" stroke-width="2" d="M607.5859,-721.8314C607.5859,-714.131 607.5859,-704.9743 607.5859,-696.4166"/>
<polygon fill="#c0c0c0" stroke="#c0c0c0" stroke-width="2" points="611.086,-696.4132 607.5859,-686.4133 604.086,-696.4133 611.086,-696.4132"/>
</g>
<!-- 36&#45;&gt;27 -->
<g id="edge45" class="edge">
<title>36&#45;&gt;27</title>
<path fill="none" stroke="#c0c0c0" stroke-width="2" d="M250.6404,-221.0447C218.3249,-210.564 172.148,-195.5877 134.3872,-183.3409"/>
<polygon fill="#c0c0c0" stroke="#c0c0c0" stroke-width="2" points="135.0736,-179.8842 124.4816,-180.1283 132.9141,-186.5427 135.0736,-179.8842"/>
</g>
<!-- 38&#45;&gt;5 -->
<g id="edge8" class="edge">
<title>38&#45;&gt;5</title>
<path fill="none" stroke="#c0c0c0" stroke-width="2" d="M1009.5859,-649.9551C1009.5859,-642.2107 1009.5859,-632.9622 1009.5859,-624.2811"/>
<polygon fill="#c0c0c0" stroke="#c0c0c0" stroke-width="2" points="1013.086,-624.1128 1009.5859,-614.1128 1006.086,-624.1129 1013.086,-624.1128"/>
</g>
<!-- 38&#45;&gt;18 -->
<g id="edge32" class="edge">
<title>38&#45;&gt;18</title>
<path fill="none" stroke="#c0c0c0" stroke-width="2" d="M1034.1373,-649.8178C1074.5255,-618.1844 1153.5028,-548.6353 1183.5859,-468 1190.9134,-448.3593 1191.9415,-424.6303 1191.2563,-406.4695"/>
<polygon fill="#c0c0c0" stroke="#c0c0c0" stroke-width="2" points="1194.7361,-406.0143 1190.6697,-396.2309 1187.7475,-406.4148 1194.7361,-406.0143"/>
</g>
<!-- 38&#45;&gt;34 -->
<g id="edge55" class="edge">
<title>38&#45;&gt;34</title>
<path fill="none" stroke="#c0c0c0" stroke-width="2" d="M984.2093,-649.9742C972.1499,-640.3894 958.2869,-627.7541 948.5859,-614 923.1841,-577.9852 911.5859,-566.0718 911.5859,-522 911.5859,-522 911.5859,-522 911.5859,-306 911.5859,-265.7369 906.8693,-219.3594 903.3501,-190.3596"/>
<polygon fill="#c0c0c0" stroke="#c0c0c0" stroke-width="2" points="906.7866,-189.6332 902.0723,-180.145 899.8408,-190.5021 906.7866,-189.6332"/>
</g>
<!-- 39&#45;&gt;7 -->
<g id="edge10" class="edge">
<title>39&#45;&gt;7</title>
<path fill="none" stroke="#c0c0c0" stroke-width="2" d="M442.867,-287.8314C458.2157,-278.6221 477.0358,-267.3301 493.4682,-257.4706"/>
<polygon fill="#c0c0c0" stroke="#c0c0c0" stroke-width="2" points="495.5404,-260.3091 502.3146,-252.1628 491.9389,-254.3066 495.5404,-260.3091"/>
</g>
<!-- 39&#45;&gt;36 -->
<g id="edge57" class="edge">
<title>39&#45;&gt;36</title>
<path fill="none" stroke="#c0c0c0" stroke-width="2" d="M381.8002,-287.8314C366.1956,-278.6221 347.0619,-267.3301 330.3556,-257.4706"/>
<polygon fill="#c0c0c0" stroke="#c0c0c0" stroke-width="2" points="331.7528,-254.2312 321.3618,-252.1628 328.195,-260.2596 331.7528,-254.2312"/>
</g>
<!-- 40&#45;&gt;20 -->
<g id="edge35" class="edge">
<title>40&#45;&gt;20</title>
<path fill="none" stroke="#c0c0c0" stroke-width="2" d="M195.7776,-503.934C185.9086,-451.6792 165.3008,-298.8326 241.5859,-216 290.669,-162.7042 503.2911,-117.0419 599.7182,-98.655"/>
<polygon fill="#c0c0c0" stroke="#c0c0c0" stroke-width="2" points="600.6055,-102.0494 609.7825,-96.7547 599.3067,-95.1709 600.6055,-102.0494"/>
</g>
<!-- 40&#45;&gt;21 -->
<g id="edge38" class="edge">
<title>40&#45;&gt;21</title>
<path fill="none" stroke="#c0c0c0" stroke-width="2" d="M222.5491,-503.8314C233.7574,-494.9632 247.4068,-484.1637 259.5299,-474.5718"/>
<polygon fill="#c0c0c0" stroke="#c0c0c0" stroke-width="2" points="261.9596,-477.1125 267.6301,-468.1628 257.6162,-471.6229 261.9596,-477.1125"/>
</g>
<!-- 40&#45;&gt;39 -->
<g id="edge64" class="edge">
<title>40&#45;&gt;39</title>
<path fill="none" stroke="#c0c0c0" stroke-width="2" d="M196.7327,-503.9812C194.6374,-484.6994 194.1385,-453.9316 207.5859,-432 243.3372,-373.6929 317.2059,-338.4301 365.8149,-320.5841"/>
<polygon fill="#c0c0c0" stroke="#c0c0c0" stroke-width="2" points="367.2347,-323.7939 375.481,-317.1419 364.8864,-317.1996 367.2347,-323.7939"/>
</g>
</g>
</svg>
