<?xml version="1.0" encoding="UTF-8" standalone="no"?>
<!DOCTYPE svg PUBLIC "-//W3C//DTD SVG 1.1//EN"
 "http://www.w3.org/Graphics/SVG/1.1/DTD/svg11.dtd">
<!-- Generated by graphviz version 2.40.1 (20161225.0304)
 -->
<!-- Title: snakemake_dag Pages: 1 -->
<svg width="1106pt" height="920pt"
 viewBox="0.00 0.00 1106.00 920.00" xmlns="http://www.w3.org/2000/svg" xmlns:xlink="http://www.w3.org/1999/xlink">
<g id="graph0" class="graph" transform="scale(1 1) rotate(0) translate(4 916)">
<title>snakemake_dag</title>
<polygon fill="#ffffff" stroke="transparent" points="-4,4 -4,-916 1102,-916 1102,4 -4,4"/>
<!-- 0 -->
<g id="node1" class="node">
<title>0</title>
<path fill="none" stroke="#56c9d8" stroke-width="2" d="M553.3342,-912C553.3342,-912 348.6658,-912 348.6658,-912 342.6658,-912 336.6658,-906 336.6658,-900 336.6658,-900 336.6658,-876 336.6658,-876 336.6658,-870 342.6658,-864 348.6658,-864 348.6658,-864 553.3342,-864 553.3342,-864 559.3342,-864 565.3342,-870 565.3342,-876 565.3342,-876 565.3342,-900 565.3342,-900 565.3342,-906 559.3342,-912 553.3342,-912"/>
<text text-anchor="middle" x="451" y="-900" font-family="sans" font-size="10.00" fill="#000000">align_reads</text>
<text text-anchor="middle" x="451" y="-890" font-family="sans" font-size="10.00" fill="#000000">out_dir: /Users/karthik/hpc_downloads/test_field</text>
<text text-anchor="middle" x="451" y="-880" font-family="sans" font-size="10.00" fill="#000000">rep: a</text>
<text text-anchor="middle" x="451" y="-870" font-family="sans" font-size="10.00" fill="#000000">sample: ZI&#45;merge&#45;26</text>
</g>
<!-- 31 -->
<g id="node32" class="node">
<title>31</title>
<path fill="none" stroke="#56d8a2" stroke-width="2" d="M446.5244,-828C446.5244,-828 369.4756,-828 369.4756,-828 363.4756,-828 357.4756,-822 357.4756,-816 357.4756,-816 357.4756,-804 357.4756,-804 357.4756,-798 363.4756,-792 369.4756,-792 369.4756,-792 446.5244,-792 446.5244,-792 452.5244,-792 458.5244,-798 458.5244,-804 458.5244,-804 458.5244,-816 458.5244,-816 458.5244,-822 452.5244,-828 446.5244,-828"/>
<text text-anchor="middle" x="408" y="-807" font-family="sans" font-size="10.00" fill="#000000">trim_primer_quality</text>
</g>
<!-- 0&#45;&gt;31 -->
<g id="edge49" class="edge">
<title>0&#45;&gt;31</title>
<path fill="none" stroke="#c0c0c0" stroke-width="2" d="M437.6302,-863.7479C432.9953,-855.3404 427.7692,-845.8605 423.011,-837.2293"/>
<polygon fill="#c0c0c0" stroke="#c0c0c0" stroke-width="2" points="425.9745,-835.3552 418.0816,-828.2875 419.8443,-838.7347 425.9745,-835.3552"/>
</g>
<!-- 1 -->
<g id="node2" class="node">
<title>1</title>
<path fill="none" stroke="#56d8a2" stroke-width="2" d="M283.5244,-828C283.5244,-828 206.4756,-828 206.4756,-828 200.4756,-828 194.4756,-822 194.4756,-816 194.4756,-816 194.4756,-804 194.4756,-804 194.4756,-798 200.4756,-792 206.4756,-792 206.4756,-792 283.5244,-792 283.5244,-792 289.5244,-792 295.5244,-798 295.5244,-804 295.5244,-804 295.5244,-816 295.5244,-816 295.5244,-822 289.5244,-828 283.5244,-828"/>
<text text-anchor="middle" x="245" y="-807" font-family="sans" font-size="10.00" fill="#000000">trim_primer_quality</text>
</g>
<!-- 26 -->
<g id="node27" class="node">
<title>26</title>
<path fill="none" stroke="#d8c356" stroke-width="2" d="M299.2046,-756C299.2046,-756 230.7954,-756 230.7954,-756 224.7954,-756 218.7954,-750 218.7954,-744 218.7954,-744 218.7954,-732 218.7954,-732 218.7954,-726 224.7954,-720 230.7954,-720 230.7954,-720 299.2046,-720 299.2046,-720 305.2046,-720 311.2046,-726 311.2046,-732 311.2046,-732 311.2046,-744 311.2046,-744 311.2046,-750 305.2046,-756 299.2046,-756"/>
<text text-anchor="middle" x="265" y="-735" font-family="sans" font-size="10.00" fill="#000000">merge_replicates</text>
</g>
<!-- 1&#45;&gt;26 -->
<g id="edge41" class="edge">
<title>1&#45;&gt;26</title>
<path fill="none" stroke="#c0c0c0" stroke-width="2" d="M250.0468,-791.8314C252.2094,-784.0463 254.7853,-774.7729 257.1848,-766.1347"/>
<polygon fill="#c0c0c0" stroke="#c0c0c0" stroke-width="2" points="260.581,-766.9852 259.8852,-756.4133 253.8364,-765.1117 260.581,-766.9852"/>
</g>
<!-- 2 -->
<g id="node3" class="node">
<title>2</title>
<path fill="none" stroke="#56a2d8" stroke-width="2" d="M163.7288,-540C163.7288,-540 40.2712,-540 40.2712,-540 34.2712,-540 28.2712,-534 28.2712,-528 28.2712,-528 28.2712,-516 28.2712,-516 28.2712,-510 34.2712,-504 40.2712,-504 40.2712,-504 163.7288,-504 163.7288,-504 169.7288,-504 175.7288,-510 175.7288,-516 175.7288,-516 175.7288,-528 175.7288,-528 175.7288,-534 169.7288,-540 163.7288,-540"/>
<text text-anchor="middle" x="102" y="-519" font-family="sans" font-size="10.00" fill="#000000">realigned_trim_primer_quality</text>
</g>
<!-- 23 -->
<g id="node24" class="node">
<title>23</title>
<path fill="none" stroke="#56d8c9" stroke-width="2" d="M161.9209,-252C161.9209,-252 106.0791,-252 106.0791,-252 100.0791,-252 94.0791,-246 94.0791,-240 94.0791,-240 94.0791,-228 94.0791,-228 94.0791,-222 100.0791,-216 106.0791,-216 106.0791,-216 161.9209,-216 161.9209,-216 167.9209,-216 173.9209,-222 173.9209,-228 173.9209,-228 173.9209,-240 173.9209,-240 173.9209,-246 167.9209,-252 161.9209,-252"/>
<text text-anchor="middle" x="134" y="-231" font-family="sans" font-size="10.00" fill="#000000">remove_reads</text>
</g>
<!-- 2&#45;&gt;23 -->
<g id="edge37" class="edge">
<title>2&#45;&gt;23</title>
<path fill="none" stroke="#c0c0c0" stroke-width="2" d="M102.5107,-503.9789C103.8354,-464.5761 108.2195,-367.8902 121,-288 122.3495,-279.5643 124.3219,-270.5 126.3244,-262.2525"/>
<polygon fill="#c0c0c0" stroke="#c0c0c0" stroke-width="2" points="129.7697,-262.9046 128.8325,-252.3513 122.9841,-261.1857 129.7697,-262.9046"/>
</g>
<!-- 34 -->
<g id="node35" class="node">
<title>34</title>
<path fill="none" stroke="#c6d856" stroke-width="2" d="M201.5823,-468C201.5823,-468 154.4177,-468 154.4177,-468 148.4177,-468 142.4177,-462 142.4177,-456 142.4177,-456 142.4177,-444 142.4177,-444 142.4177,-438 148.4177,-432 154.4177,-432 154.4177,-432 201.5823,-432 201.5823,-432 207.5823,-432 213.5823,-438 213.5823,-444 213.5823,-444 213.5823,-456 213.5823,-456 213.5823,-462 207.5823,-468 201.5823,-468"/>
<text text-anchor="middle" x="178" y="-447" font-family="sans" font-size="10.00" fill="#000000">call_variants</text>
</g>
<!-- 2&#45;&gt;34 -->
<g id="edge53" class="edge">
<title>2&#45;&gt;34</title>
<path fill="none" stroke="#c0c0c0" stroke-width="2" d="M121.178,-503.8314C130.3588,-495.1337 141.5006,-484.5783 151.4776,-475.1265"/>
<polygon fill="#c0c0c0" stroke="#c0c0c0" stroke-width="2" points="153.9757,-477.5811 158.8281,-468.1628 149.1615,-472.4995 153.9757,-477.5811"/>
</g>
<!-- 3 -->
<g id="node4" class="node">
<title>3</title>
<path fill="none" stroke="#c6d856" stroke-width="2" d="M375.5823,-468C375.5823,-468 328.4177,-468 328.4177,-468 322.4177,-468 316.4177,-462 316.4177,-456 316.4177,-456 316.4177,-444 316.4177,-444 316.4177,-438 322.4177,-432 328.4177,-432 328.4177,-432 375.5823,-432 375.5823,-432 381.5823,-432 387.5823,-438 387.5823,-444 387.5823,-444 387.5823,-456 387.5823,-456 387.5823,-462 381.5823,-468 375.5823,-468"/>
<text text-anchor="middle" x="352" y="-447" font-family="sans" font-size="10.00" fill="#000000">call_variants</text>
</g>
<!-- 15 -->
<g id="node16" class="node">
<title>15</title>
<path fill="none" stroke="#78d856" stroke-width="2" d="M331.1817,-396C331.1817,-396 202.8183,-396 202.8183,-396 196.8183,-396 190.8183,-390 190.8183,-384 190.8183,-384 190.8183,-372 190.8183,-372 190.8183,-366 196.8183,-360 202.8183,-360 202.8183,-360 331.1817,-360 331.1817,-360 337.1817,-360 343.1817,-366 343.1817,-372 343.1817,-372 343.1817,-384 343.1817,-384 343.1817,-390 337.1817,-396 331.1817,-396"/>
<text text-anchor="middle" x="267" y="-375" font-family="sans" font-size="10.00" fill="#000000">filter_variants_before_masking</text>
</g>
<!-- 3&#45;&gt;15 -->
<g id="edge26" class="edge">
<title>3&#45;&gt;15</title>
<path fill="none" stroke="#c0c0c0" stroke-width="2" d="M330.5509,-431.8314C320.1822,-423.0485 307.5771,-412.3712 296.3354,-402.8489"/>
<polygon fill="#c0c0c0" stroke="#c0c0c0" stroke-width="2" points="298.3349,-399.9556 288.4422,-396.1628 293.8105,-405.297 298.3349,-399.9556"/>
</g>
<!-- 4 -->
<g id="node5" class="node">
<title>4</title>
<path fill="none" stroke="#56d8c9" stroke-width="2" d="M457.9209,-252C457.9209,-252 402.0791,-252 402.0791,-252 396.0791,-252 390.0791,-246 390.0791,-240 390.0791,-240 390.0791,-228 390.0791,-228 390.0791,-222 396.0791,-216 402.0791,-216 402.0791,-216 457.9209,-216 457.9209,-216 463.9209,-216 469.9209,-222 469.9209,-228 469.9209,-228 469.9209,-240 469.9209,-240 469.9209,-246 463.9209,-252 457.9209,-252"/>
<text text-anchor="middle" x="430" y="-231" font-family="sans" font-size="10.00" fill="#000000">remove_reads</text>
</g>
<!-- 39 -->
<g id="node40" class="node">
<title>39</title>
<path fill="none" stroke="#d85656" stroke-width="2" d="M508.672,-180C508.672,-180 395.328,-180 395.328,-180 389.328,-180 383.328,-174 383.328,-168 383.328,-168 383.328,-156 383.328,-156 383.328,-150 389.328,-144 395.328,-144 395.328,-144 508.672,-144 508.672,-144 514.672,-144 520.672,-150 520.672,-156 520.672,-156 520.672,-168 520.672,-168 520.672,-174 514.672,-180 508.672,-180"/>
<text text-anchor="middle" x="452" y="-159" font-family="sans" font-size="10.00" fill="#000000">call_variants_post_removal</text>
</g>
<!-- 4&#45;&gt;39 -->
<g id="edge61" class="edge">
<title>4&#45;&gt;39</title>
<path fill="none" stroke="#c0c0c0" stroke-width="2" d="M435.5515,-215.8314C437.9303,-208.0463 440.7638,-198.7729 443.4033,-190.1347"/>
<polygon fill="#c0c0c0" stroke="#c0c0c0" stroke-width="2" points="446.7987,-190.9996 446.3737,-180.4133 440.1042,-188.954 446.7987,-190.9996"/>
</g>
<!-- 5 -->
<g id="node6" class="node">
<title>5</title>
<path fill="none" stroke="#59d856" stroke-width="2" d="M390.4792,-324C390.4792,-324 343.5208,-324 343.5208,-324 337.5208,-324 331.5208,-318 331.5208,-312 331.5208,-312 331.5208,-300 331.5208,-300 331.5208,-294 337.5208,-288 343.5208,-288 343.5208,-288 390.4792,-288 390.4792,-288 396.4792,-288 402.4792,-294 402.4792,-300 402.4792,-300 402.4792,-312 402.4792,-312 402.4792,-318 396.4792,-324 390.4792,-324"/>
<text text-anchor="middle" x="367" y="-308" font-family="sans" font-size="10.00" fill="#000000">get_masked</text>
<text text-anchor="middle" x="367" y="-298" font-family="sans" font-size="10.00" fill="#000000">rep: a</text>
</g>
<!-- 5&#45;&gt;4 -->
<g id="edge7" class="edge">
<title>5&#45;&gt;4</title>
<path fill="none" stroke="#c0c0c0" stroke-width="2" d="M382.8976,-287.8314C390.2278,-279.454 399.066,-269.3531 407.0969,-260.1749"/>
<polygon fill="#c0c0c0" stroke="#c0c0c0" stroke-width="2" points="409.9373,-262.2438 413.8884,-252.4133 404.6693,-257.6343 409.9373,-262.2438"/>
</g>
<!-- 6 -->
<g id="node7" class="node">
<title>6</title>
<path fill="none" stroke="#d85656" stroke-width="2" d="M706.672,-180C706.672,-180 593.328,-180 593.328,-180 587.328,-180 581.328,-174 581.328,-168 581.328,-168 581.328,-156 581.328,-156 581.328,-150 587.328,-144 593.328,-144 593.328,-144 706.672,-144 706.672,-144 712.672,-144 718.672,-150 718.672,-156 718.672,-156 718.672,-168 718.672,-168 718.672,-174 712.672,-180 706.672,-180"/>
<text text-anchor="middle" x="650" y="-159" font-family="sans" font-size="10.00" fill="#000000">call_variants_post_removal</text>
</g>
<!-- 30 -->
<g id="node31" class="node">
<title>30</title>
<path fill="none" stroke="#9fd856" stroke-width="2" d="M675.9692,-108C675.9692,-108 624.0308,-108 624.0308,-108 618.0308,-108 612.0308,-102 612.0308,-96 612.0308,-96 612.0308,-84 612.0308,-84 612.0308,-78 618.0308,-72 624.0308,-72 624.0308,-72 675.9692,-72 675.9692,-72 681.9692,-72 687.9692,-78 687.9692,-84 687.9692,-84 687.9692,-96 687.9692,-96 687.9692,-102 681.9692,-108 675.9692,-108"/>
<text text-anchor="middle" x="650" y="-87" font-family="sans" font-size="10.00" fill="#000000">filter_variants</text>
</g>
<!-- 6&#45;&gt;30 -->
<g id="edge48" class="edge">
<title>6&#45;&gt;30</title>
<path fill="none" stroke="#c0c0c0" stroke-width="2" d="M650,-143.8314C650,-136.131 650,-126.9743 650,-118.4166"/>
<polygon fill="#c0c0c0" stroke="#c0c0c0" stroke-width="2" points="653.5001,-118.4132 650,-108.4133 646.5001,-118.4133 653.5001,-118.4132"/>
</g>
<!-- 7 -->
<g id="node8" class="node">
<title>7</title>
<path fill="none" stroke="#c6d856" stroke-width="2" d="M943.5823,-468C943.5823,-468 896.4177,-468 896.4177,-468 890.4177,-468 884.4177,-462 884.4177,-456 884.4177,-456 884.4177,-444 884.4177,-444 884.4177,-438 890.4177,-432 896.4177,-432 896.4177,-432 943.5823,-432 943.5823,-432 949.5823,-432 955.5823,-438 955.5823,-444 955.5823,-444 955.5823,-456 955.5823,-456 955.5823,-462 949.5823,-468 943.5823,-468"/>
<text text-anchor="middle" x="920" y="-447" font-family="sans" font-size="10.00" fill="#000000">call_variants</text>
</g>
<!-- 29 -->
<g id="node30" class="node">
<title>29</title>
<path fill="none" stroke="#78d856" stroke-width="2" d="M895.1817,-396C895.1817,-396 766.8183,-396 766.8183,-396 760.8183,-396 754.8183,-390 754.8183,-384 754.8183,-384 754.8183,-372 754.8183,-372 754.8183,-366 760.8183,-360 766.8183,-360 766.8183,-360 895.1817,-360 895.1817,-360 901.1817,-360 907.1817,-366 907.1817,-372 907.1817,-372 907.1817,-384 907.1817,-384 907.1817,-390 901.1817,-396 895.1817,-396"/>
<text text-anchor="middle" x="831" y="-375" font-family="sans" font-size="10.00" fill="#000000">filter_variants_before_masking</text>
</g>
<!-- 7&#45;&gt;29 -->
<g id="edge46" class="edge">
<title>7&#45;&gt;29</title>
<path fill="none" stroke="#c0c0c0" stroke-width="2" d="M897.5415,-431.8314C886.5795,-422.9632 873.2301,-412.1637 861.3735,-402.5718"/>
<polygon fill="#c0c0c0" stroke="#c0c0c0" stroke-width="2" points="863.4271,-399.7313 853.4513,-396.1628 859.0245,-405.1734 863.4271,-399.7313"/>
</g>
<!-- 8 -->
<g id="node9" class="node">
<title>8</title>
<path fill="none" stroke="#56d87b" stroke-width="2" d="M457.3992,-612C457.3992,-612 376.6008,-612 376.6008,-612 370.6008,-612 364.6008,-606 364.6008,-600 364.6008,-600 364.6008,-588 364.6008,-588 364.6008,-582 370.6008,-576 376.6008,-576 376.6008,-576 457.3992,-576 457.3992,-576 463.3992,-576 469.3992,-582 469.3992,-588 469.3992,-588 469.3992,-600 469.3992,-600 469.3992,-606 463.3992,-612 457.3992,-612"/>
<text text-anchor="middle" x="417" y="-596" font-family="sans" font-size="10.00" fill="#000000">align_to_consensus</text>
<text text-anchor="middle" x="417" y="-586" font-family="sans" font-size="10.00" fill="#000000">rep: a</text>
</g>
<!-- 22 -->
<g id="node23" class="node">
<title>22</title>
<path fill="none" stroke="#56a2d8" stroke-width="2" d="M489.7288,-540C489.7288,-540 366.2712,-540 366.2712,-540 360.2712,-540 354.2712,-534 354.2712,-528 354.2712,-528 354.2712,-516 354.2712,-516 354.2712,-510 360.2712,-504 366.2712,-504 366.2712,-504 489.7288,-504 489.7288,-504 495.7288,-504 501.7288,-510 501.7288,-516 501.7288,-516 501.7288,-528 501.7288,-528 501.7288,-534 495.7288,-540 489.7288,-540"/>
<text text-anchor="middle" x="428" y="-519" font-family="sans" font-size="10.00" fill="#000000">realigned_trim_primer_quality</text>
</g>
<!-- 8&#45;&gt;22 -->
<g id="edge36" class="edge">
<title>8&#45;&gt;22</title>
<path fill="none" stroke="#c0c0c0" stroke-width="2" d="M419.7758,-575.8314C420.9522,-568.131 422.3511,-558.9743 423.6586,-550.4166"/>
<polygon fill="#c0c0c0" stroke="#c0c0c0" stroke-width="2" points="427.1364,-550.8272 425.1869,-540.4133 420.2167,-549.7699 427.1364,-550.8272"/>
</g>
<!-- 9 -->
<g id="node10" class="node">
<title>9</title>
<path fill="none" stroke="#56a2d8" stroke-width="2" d="M731.7288,-540C731.7288,-540 608.2712,-540 608.2712,-540 602.2712,-540 596.2712,-534 596.2712,-528 596.2712,-528 596.2712,-516 596.2712,-516 596.2712,-510 602.2712,-504 608.2712,-504 608.2712,-504 731.7288,-504 731.7288,-504 737.7288,-504 743.7288,-510 743.7288,-516 743.7288,-516 743.7288,-528 743.7288,-528 743.7288,-534 737.7288,-540 731.7288,-540"/>
<text text-anchor="middle" x="670" y="-519" font-family="sans" font-size="10.00" fill="#000000">realigned_trim_primer_quality</text>
</g>
<!-- 32 -->
<g id="node33" class="node">
<title>32</title>
<path fill="none" stroke="#c6d856" stroke-width="2" d="M769.5823,-468C769.5823,-468 722.4177,-468 722.4177,-468 716.4177,-468 710.4177,-462 710.4177,-456 710.4177,-456 710.4177,-444 710.4177,-444 710.4177,-438 716.4177,-432 722.4177,-432 722.4177,-432 769.5823,-432 769.5823,-432 775.5823,-432 781.5823,-438 781.5823,-444 781.5823,-444 781.5823,-456 781.5823,-456 781.5823,-462 775.5823,-468 769.5823,-468"/>
<text text-anchor="middle" x="746" y="-447" font-family="sans" font-size="10.00" fill="#000000">call_variants</text>
</g>
<!-- 9&#45;&gt;32 -->
<g id="edge50" class="edge">
<title>9&#45;&gt;32</title>
<path fill="none" stroke="#c0c0c0" stroke-width="2" d="M689.178,-503.8314C698.3588,-495.1337 709.5006,-484.5783 719.4776,-475.1265"/>
<polygon fill="#c0c0c0" stroke="#c0c0c0" stroke-width="2" points="721.9757,-477.5811 726.8281,-468.1628 717.1615,-472.4995 721.9757,-477.5811"/>
</g>
<!-- 37 -->
<g id="node38" class="node">
<title>37</title>
<path fill="none" stroke="#56d8c9" stroke-width="2" d="M695.9209,-252C695.9209,-252 640.0791,-252 640.0791,-252 634.0791,-252 628.0791,-246 628.0791,-240 628.0791,-240 628.0791,-228 628.0791,-228 628.0791,-222 634.0791,-216 640.0791,-216 640.0791,-216 695.9209,-216 695.9209,-216 701.9209,-216 707.9209,-222 707.9209,-228 707.9209,-228 707.9209,-240 707.9209,-240 707.9209,-246 701.9209,-252 695.9209,-252"/>
<text text-anchor="middle" x="668" y="-231" font-family="sans" font-size="10.00" fill="#000000">remove_reads</text>
</g>
<!-- 9&#45;&gt;37 -->
<g id="edge59" class="edge">
<title>9&#45;&gt;37</title>
<path fill="none" stroke="#c0c0c0" stroke-width="2" d="M669.8749,-503.9843C669.5368,-455.2939 668.6028,-320.7961 668.1948,-262.0573"/>
<polygon fill="#c0c0c0" stroke="#c0c0c0" stroke-width="2" points="671.6945,-261.9843 668.1251,-252.0089 664.6947,-262.033 671.6945,-261.9843"/>
</g>
<!-- 10 -->
<g id="node11" class="node">
<title>10</title>
<path fill="none" stroke="#56d8c9" stroke-width="2" d="M992.9209,-252C992.9209,-252 937.0791,-252 937.0791,-252 931.0791,-252 925.0791,-246 925.0791,-240 925.0791,-240 925.0791,-228 925.0791,-228 925.0791,-222 931.0791,-216 937.0791,-216 937.0791,-216 992.9209,-216 992.9209,-216 998.9209,-216 1004.9209,-222 1004.9209,-228 1004.9209,-228 1004.9209,-240 1004.9209,-240 1004.9209,-246 998.9209,-252 992.9209,-252"/>
<text text-anchor="middle" x="965" y="-231" font-family="sans" font-size="10.00" fill="#000000">remove_reads</text>
</g>
<!-- 25 -->
<g id="node26" class="node">
<title>25</title>
<path fill="none" stroke="#d85656" stroke-width="2" d="M1021.672,-180C1021.672,-180 908.328,-180 908.328,-180 902.328,-180 896.328,-174 896.328,-168 896.328,-168 896.328,-156 896.328,-156 896.328,-150 902.328,-144 908.328,-144 908.328,-144 1021.672,-144 1021.672,-144 1027.672,-144 1033.672,-150 1033.672,-156 1033.672,-156 1033.672,-168 1033.672,-168 1033.672,-174 1027.672,-180 1021.672,-180"/>
<text text-anchor="middle" x="965" y="-159" font-family="sans" font-size="10.00" fill="#000000">call_variants_post_removal</text>
</g>
<!-- 10&#45;&gt;25 -->
<g id="edge39" class="edge">
<title>10&#45;&gt;25</title>
<path fill="none" stroke="#c0c0c0" stroke-width="2" d="M965,-215.8314C965,-208.131 965,-198.9743 965,-190.4166"/>
<polygon fill="#c0c0c0" stroke="#c0c0c0" stroke-width="2" points="968.5001,-190.4132 965,-180.4133 961.5001,-190.4133 968.5001,-190.4132"/>
</g>
<!-- 11 -->
<g id="node12" class="node">
<title>11</title>
<path fill="none" stroke="#59d856" stroke-width="2" d="M956.4792,-324C956.4792,-324 909.5208,-324 909.5208,-324 903.5208,-324 897.5208,-318 897.5208,-312 897.5208,-312 897.5208,-300 897.5208,-300 897.5208,-294 903.5208,-288 909.5208,-288 909.5208,-288 956.4792,-288 956.4792,-288 962.4792,-288 968.4792,-294 968.4792,-300 968.4792,-300 968.4792,-312 968.4792,-312 968.4792,-318 962.4792,-324 956.4792,-324"/>
<text text-anchor="middle" x="933" y="-308" font-family="sans" font-size="10.00" fill="#000000">get_masked</text>
<text text-anchor="middle" x="933" y="-298" font-family="sans" font-size="10.00" fill="#000000">rep: b</text>
</g>
<!-- 11&#45;&gt;10 -->
<g id="edge18" class="edge">
<title>11&#45;&gt;10</title>
<path fill="none" stroke="#c0c0c0" stroke-width="2" d="M941.075,-287.8314C944.6102,-279.8771 948.836,-270.369 952.7456,-261.5723"/>
<polygon fill="#c0c0c0" stroke="#c0c0c0" stroke-width="2" points="955.9532,-262.9729 956.8163,-252.4133 949.5565,-260.1299 955.9532,-262.9729"/>
</g>
<!-- 12 -->
<g id="node13" class="node">
<title>12</title>
<path fill="none" stroke="#d85656" stroke-width="2" d="M190.672,-180C190.672,-180 77.328,-180 77.328,-180 71.328,-180 65.328,-174 65.328,-168 65.328,-168 65.328,-156 65.328,-156 65.328,-150 71.328,-144 77.328,-144 77.328,-144 190.672,-144 190.672,-144 196.672,-144 202.672,-150 202.672,-156 202.672,-156 202.672,-168 202.672,-168 202.672,-174 196.672,-180 190.672,-180"/>
<text text-anchor="middle" x="134" y="-159" font-family="sans" font-size="10.00" fill="#000000">call_variants_post_removal</text>
</g>
<!-- 17 -->
<g id="node18" class="node">
<title>17</title>
<path fill="none" stroke="#9fd856" stroke-width="2" d="M477.9692,-108C477.9692,-108 426.0308,-108 426.0308,-108 420.0308,-108 414.0308,-102 414.0308,-96 414.0308,-96 414.0308,-84 414.0308,-84 414.0308,-78 420.0308,-72 426.0308,-72 426.0308,-72 477.9692,-72 477.9692,-72 483.9692,-72 489.9692,-78 489.9692,-84 489.9692,-84 489.9692,-96 489.9692,-96 489.9692,-102 483.9692,-108 477.9692,-108"/>
<text text-anchor="middle" x="452" y="-87" font-family="sans" font-size="10.00" fill="#000000">filter_variants</text>
</g>
<!-- 12&#45;&gt;17 -->
<g id="edge29" class="edge">
<title>12&#45;&gt;17</title>
<path fill="none" stroke="#c0c0c0" stroke-width="2" d="M202.6098,-146.4657C263.3312,-132.7175 350.3897,-113.0061 403.9523,-100.8787"/>
<polygon fill="#c0c0c0" stroke="#c0c0c0" stroke-width="2" points="404.8948,-104.254 413.8751,-98.6321 403.349,-97.4268 404.8948,-104.254"/>
</g>
<!-- 13 -->
<g id="node14" class="node">
<title>13</title>
<path fill="none" stroke="#d87d56" stroke-width="2" d="M863.3749,-684C863.3749,-684 802.6251,-684 802.6251,-684 796.6251,-684 790.6251,-678 790.6251,-672 790.6251,-672 790.6251,-660 790.6251,-660 790.6251,-654 796.6251,-648 802.6251,-648 802.6251,-648 863.3749,-648 863.3749,-648 869.3749,-648 875.3749,-654 875.3749,-660 875.3749,-660 875.3749,-672 875.3749,-672 875.3749,-678 869.3749,-684 863.3749,-684"/>
<text text-anchor="middle" x="833" y="-663" font-family="sans" font-size="10.00" fill="#000000">call_consensus</text>
</g>
<!-- 13&#45;&gt;6 -->
<g id="edge11" class="edge">
<title>13&#45;&gt;6</title>
<path fill="none" stroke="#c0c0c0" stroke-width="2" d="M790.5177,-659.2507C736.3819,-649.9772 646.6223,-632.1371 620,-612 583.1562,-584.1314 568,-568.1966 568,-522 568,-522 568,-522 568,-306 568,-259.6535 600.4722,-214.6131 624.548,-187.5884"/>
<polygon fill="#c0c0c0" stroke="#c0c0c0" stroke-width="2" points="627.2112,-189.8627 631.3929,-180.1281 622.0533,-185.1303 627.2112,-189.8627"/>
</g>
<!-- 13&#45;&gt;7 -->
<g id="edge13" class="edge">
<title>13&#45;&gt;7</title>
<path fill="none" stroke="#c0c0c0" stroke-width="2" d="M850.1242,-647.743C858.6457,-637.8156 868.4896,-624.9448 875,-612 897.1307,-567.9972 909.6378,-511.6198 915.5929,-478.2981"/>
<polygon fill="#c0c0c0" stroke="#c0c0c0" stroke-width="2" points="919.0609,-478.7819 917.3001,-468.3344 912.1615,-477.5997 919.0609,-478.7819"/>
</g>
<!-- 14 -->
<g id="node15" class="node">
<title>14</title>
<path fill="none" stroke="#56d87b" stroke-width="2" d="M1025.3992,-612C1025.3992,-612 944.6008,-612 944.6008,-612 938.6008,-612 932.6008,-606 932.6008,-600 932.6008,-600 932.6008,-588 932.6008,-588 932.6008,-582 938.6008,-576 944.6008,-576 944.6008,-576 1025.3992,-576 1025.3992,-576 1031.3992,-576 1037.3992,-582 1037.3992,-588 1037.3992,-588 1037.3992,-600 1037.3992,-600 1037.3992,-606 1031.3992,-612 1025.3992,-612"/>
<text text-anchor="middle" x="985" y="-596" font-family="sans" font-size="10.00" fill="#000000">align_to_consensus</text>
<text text-anchor="middle" x="985" y="-586" font-family="sans" font-size="10.00" fill="#000000">rep: b</text>
</g>
<!-- 13&#45;&gt;14 -->
<g id="edge24" class="edge">
<title>13&#45;&gt;14</title>
<path fill="none" stroke="#c0c0c0" stroke-width="2" d="M871.356,-647.8314C891.5044,-638.2874 916.3752,-626.5065 937.7083,-616.4013"/>
<polygon fill="#c0c0c0" stroke="#c0c0c0" stroke-width="2" points="939.3807,-619.482 946.9198,-612.038 936.3841,-613.1558 939.3807,-619.482"/>
</g>
<!-- 13&#45;&gt;25 -->
<g id="edge40" class="edge">
<title>13&#45;&gt;25</title>
<path fill="none" stroke="#c0c0c0" stroke-width="2" d="M875.4823,-659.2507C929.6181,-649.9772 1019.3777,-632.1371 1046,-612 1082.8438,-584.1314 1098,-568.1966 1098,-522 1098,-522 1098,-522 1098,-306 1098,-252.0557 1047.0089,-209.7061 1008.1727,-185.2745"/>
<polygon fill="#c0c0c0" stroke="#c0c0c0" stroke-width="2" points="1009.9563,-182.2628 999.597,-180.0414 1006.31,-188.2381 1009.9563,-182.2628"/>
</g>
<!-- 13&#45;&gt;32 -->
<g id="edge51" class="edge">
<title>13&#45;&gt;32</title>
<path fill="none" stroke="#c0c0c0" stroke-width="2" d="M815.8758,-647.743C807.3543,-637.8156 797.5104,-624.9448 791,-612 768.8693,-567.9972 756.3622,-511.6198 750.4071,-478.2981"/>
<polygon fill="#c0c0c0" stroke="#c0c0c0" stroke-width="2" points="753.8385,-477.5997 748.6999,-468.3344 746.9391,-478.7819 753.8385,-477.5997"/>
</g>
<!-- 41 -->
<g id="node42" class="node">
<title>41</title>
<path fill="none" stroke="#56d87b" stroke-width="2" d="M721.3992,-612C721.3992,-612 640.6008,-612 640.6008,-612 634.6008,-612 628.6008,-606 628.6008,-600 628.6008,-600 628.6008,-588 628.6008,-588 628.6008,-582 634.6008,-576 640.6008,-576 640.6008,-576 721.3992,-576 721.3992,-576 727.3992,-576 733.3992,-582 733.3992,-588 733.3992,-588 733.3992,-600 733.3992,-600 733.3992,-606 727.3992,-612 721.3992,-612"/>
<text text-anchor="middle" x="681" y="-596" font-family="sans" font-size="10.00" fill="#000000">align_to_consensus</text>
<text text-anchor="middle" x="681" y="-586" font-family="sans" font-size="10.00" fill="#000000">rep: a</text>
</g>
<!-- 13&#45;&gt;41 -->
<g id="edge65" class="edge">
<title>13&#45;&gt;41</title>
<path fill="none" stroke="#c0c0c0" stroke-width="2" d="M794.644,-647.8314C774.4956,-638.2874 749.6248,-626.5065 728.2917,-616.4013"/>
<polygon fill="#c0c0c0" stroke="#c0c0c0" stroke-width="2" points="729.6159,-613.1558 719.0802,-612.038 726.6193,-619.482 729.6159,-613.1558"/>
</g>
<!-- 42 -->
<g id="node43" class="node">
<title>42</title>
<path fill="none" stroke="#d8a456" stroke-width="2" d="M854.0391,-612C854.0391,-612 811.9609,-612 811.9609,-612 805.9609,-612 799.9609,-606 799.9609,-600 799.9609,-600 799.9609,-588 799.9609,-588 799.9609,-582 805.9609,-576 811.9609,-576 811.9609,-576 854.0391,-576 854.0391,-576 860.0391,-576 866.0391,-582 866.0391,-588 866.0391,-588 866.0391,-600 866.0391,-600 866.0391,-606 860.0391,-612 854.0391,-612"/>
<text text-anchor="middle" x="833" y="-591" font-family="sans" font-size="10.00" fill="#000000">create_bed</text>
</g>
<!-- 13&#45;&gt;42 -->
<g id="edge66" class="edge">
<title>13&#45;&gt;42</title>
<path fill="none" stroke="#c0c0c0" stroke-width="2" d="M833,-647.8314C833,-640.131 833,-630.9743 833,-622.4166"/>
<polygon fill="#c0c0c0" stroke="#c0c0c0" stroke-width="2" points="836.5001,-622.4132 833,-612.4133 829.5001,-622.4133 836.5001,-622.4132"/>
</g>
<!-- 35 -->
<g id="node36" class="node">
<title>35</title>
<path fill="none" stroke="#56a2d8" stroke-width="2" d="M1057.7288,-540C1057.7288,-540 934.2712,-540 934.2712,-540 928.2712,-540 922.2712,-534 922.2712,-528 922.2712,-528 922.2712,-516 922.2712,-516 922.2712,-510 928.2712,-504 934.2712,-504 934.2712,-504 1057.7288,-504 1057.7288,-504 1063.7288,-504 1069.7288,-510 1069.7288,-516 1069.7288,-516 1069.7288,-528 1069.7288,-528 1069.7288,-534 1063.7288,-540 1057.7288,-540"/>
<text text-anchor="middle" x="996" y="-519" font-family="sans" font-size="10.00" fill="#000000">realigned_trim_primer_quality</text>
</g>
<!-- 14&#45;&gt;35 -->
<g id="edge56" class="edge">
<title>14&#45;&gt;35</title>
<path fill="none" stroke="#c0c0c0" stroke-width="2" d="M987.7758,-575.8314C988.9522,-568.131 990.3511,-558.9743 991.6586,-550.4166"/>
<polygon fill="#c0c0c0" stroke="#c0c0c0" stroke-width="2" points="995.1364,-550.8272 993.1869,-540.4133 988.2167,-549.7699 995.1364,-550.8272"/>
</g>
<!-- 15&#45;&gt;5 -->
<g id="edge8" class="edge">
<title>15&#45;&gt;5</title>
<path fill="none" stroke="#c0c0c0" stroke-width="2" d="M292.2342,-359.8314C304.788,-350.7927 320.1283,-339.7476 333.6391,-330.0198"/>
<polygon fill="#c0c0c0" stroke="#c0c0c0" stroke-width="2" points="335.7036,-332.8463 341.7739,-324.1628 331.6134,-327.1655 335.7036,-332.8463"/>
</g>
<!-- 21 -->
<g id="node22" class="node">
<title>21</title>
<path fill="none" stroke="#59d856" stroke-width="2" d="M188.4792,-324C188.4792,-324 141.5208,-324 141.5208,-324 135.5208,-324 129.5208,-318 129.5208,-312 129.5208,-312 129.5208,-300 129.5208,-300 129.5208,-294 135.5208,-288 141.5208,-288 141.5208,-288 188.4792,-288 188.4792,-288 194.4792,-288 200.4792,-294 200.4792,-300 200.4792,-300 200.4792,-312 200.4792,-312 200.4792,-318 194.4792,-324 188.4792,-324"/>
<text text-anchor="middle" x="165" y="-308" font-family="sans" font-size="10.00" fill="#000000">get_masked</text>
<text text-anchor="middle" x="165" y="-298" font-family="sans" font-size="10.00" fill="#000000">rep: b</text>
</g>
<!-- 15&#45;&gt;21 -->
<g id="edge33" class="edge">
<title>15&#45;&gt;21</title>
<path fill="none" stroke="#c0c0c0" stroke-width="2" d="M241.2611,-359.8314C228.4563,-350.7927 212.8091,-339.7476 199.0281,-330.0198"/>
<polygon fill="#c0c0c0" stroke="#c0c0c0" stroke-width="2" points="200.9188,-327.0703 190.7307,-324.1628 196.882,-332.7891 200.9188,-327.0703"/>
</g>
<!-- 16 -->
<g id="node17" class="node">
<title>16</title>
<path fill="none" stroke="#d8a456" stroke-width="2" d="M286.0391,-612C286.0391,-612 243.9609,-612 243.9609,-612 237.9609,-612 231.9609,-606 231.9609,-600 231.9609,-600 231.9609,-588 231.9609,-588 231.9609,-582 237.9609,-576 243.9609,-576 243.9609,-576 286.0391,-576 286.0391,-576 292.0391,-576 298.0391,-582 298.0391,-588 298.0391,-588 298.0391,-600 298.0391,-600 298.0391,-606 292.0391,-612 286.0391,-612"/>
<text text-anchor="middle" x="265" y="-591" font-family="sans" font-size="10.00" fill="#000000">create_bed</text>
</g>
<!-- 16&#45;&gt;2 -->
<g id="edge2" class="edge">
<title>16&#45;&gt;2</title>
<path fill="none" stroke="#c0c0c0" stroke-width="2" d="M231.6212,-579.256C208.7262,-569.1428 177.9376,-555.543 152.1121,-544.1354"/>
<polygon fill="#c0c0c0" stroke="#c0c0c0" stroke-width="2" points="153.4074,-540.8814 142.8459,-540.0423 150.579,-547.2845 153.4074,-540.8814"/>
</g>
<!-- 16&#45;&gt;5 -->
<g id="edge9" class="edge">
<title>16&#45;&gt;5</title>
<path fill="none" stroke="#c0c0c0" stroke-width="2" d="M265.9893,-575.9894C268.4789,-544.4233 277.1423,-478.0872 307,-432 320.9261,-410.5043 339.0387,-418.0908 352,-396 362.9226,-377.3838 366.4674,-353.088 367.3938,-334.4326"/>
<polygon fill="#c0c0c0" stroke="#c0c0c0" stroke-width="2" points="370.8993,-334.2774 367.6727,-324.1859 363.9019,-334.0869 370.8993,-334.2774"/>
</g>
<!-- 16&#45;&gt;21 -->
<g id="edge34" class="edge">
<title>16&#45;&gt;21</title>
<path fill="none" stroke="#c0c0c0" stroke-width="2" d="M263.7468,-575.6268C260.8669,-544.0769 251.6419,-478.5115 223,-432 210.2845,-411.3514 194.0169,-417.0628 182,-396 171.2631,-377.1807 167.1397,-352.898 165.6314,-334.2993"/>
<polygon fill="#c0c0c0" stroke="#c0c0c0" stroke-width="2" points="169.1114,-333.8607 165.0153,-324.0897 162.1241,-334.2824 169.1114,-333.8607"/>
</g>
<!-- 16&#45;&gt;22 -->
<g id="edge35" class="edge">
<title>16&#45;&gt;22</title>
<path fill="none" stroke="#c0c0c0" stroke-width="2" d="M298.3788,-579.256C321.2738,-569.1428 352.0624,-555.543 377.8879,-544.1354"/>
<polygon fill="#c0c0c0" stroke="#c0c0c0" stroke-width="2" points="379.421,-547.2845 387.1541,-540.0423 376.5926,-540.8814 379.421,-547.2845"/>
</g>
<!-- 20 -->
<g id="node21" class="node">
<title>20</title>
<path fill="none" stroke="#567bd8" stroke-width="2" d="M544,-36C544,-36 514,-36 514,-36 508,-36 502,-30 502,-24 502,-24 502,-12 502,-12 502,-6 508,0 514,0 514,0 544,0 544,0 550,0 556,-6 556,-12 556,-12 556,-24 556,-24 556,-30 550,-36 544,-36"/>
<text text-anchor="middle" x="529" y="-15" font-family="sans" font-size="10.00" fill="#000000">all</text>
</g>
<!-- 17&#45;&gt;20 -->
<g id="edge32" class="edge">
<title>17&#45;&gt;20</title>
<path fill="none" stroke="#c0c0c0" stroke-width="2" d="M471.4304,-71.8314C480.732,-63.1337 492.0204,-52.5783 502.1286,-43.1265"/>
<polygon fill="#c0c0c0" stroke="#c0c0c0" stroke-width="2" points="504.6621,-45.5493 509.5759,-36.1628 499.8811,-40.4363 504.6621,-45.5493"/>
</g>
<!-- 18 -->
<g id="node19" class="node">
<title>18</title>
<path fill="none" stroke="#56d8a2" stroke-width="2" d="M805.5244,-828C805.5244,-828 728.4756,-828 728.4756,-828 722.4756,-828 716.4756,-822 716.4756,-816 716.4756,-816 716.4756,-804 716.4756,-804 716.4756,-798 722.4756,-792 728.4756,-792 728.4756,-792 805.5244,-792 805.5244,-792 811.5244,-792 817.5244,-798 817.5244,-804 817.5244,-804 817.5244,-816 817.5244,-816 817.5244,-822 811.5244,-828 805.5244,-828"/>
<text text-anchor="middle" x="767" y="-807" font-family="sans" font-size="10.00" fill="#000000">trim_primer_quality</text>
</g>
<!-- 36 -->
<g id="node37" class="node">
<title>36</title>
<path fill="none" stroke="#d8c356" stroke-width="2" d="M867.2046,-756C867.2046,-756 798.7954,-756 798.7954,-756 792.7954,-756 786.7954,-750 786.7954,-744 786.7954,-744 786.7954,-732 786.7954,-732 786.7954,-726 792.7954,-720 798.7954,-720 798.7954,-720 867.2046,-720 867.2046,-720 873.2046,-720 879.2046,-726 879.2046,-732 879.2046,-732 879.2046,-744 879.2046,-744 879.2046,-750 873.2046,-756 867.2046,-756"/>
<text text-anchor="middle" x="833" y="-735" font-family="sans" font-size="10.00" fill="#000000">merge_replicates</text>
</g>
<!-- 18&#45;&gt;36 -->
<g id="edge57" class="edge">
<title>18&#45;&gt;36</title>
<path fill="none" stroke="#c0c0c0" stroke-width="2" d="M783.6546,-791.8314C791.4114,-783.3694 800.7802,-773.1489 809.261,-763.8971"/>
<polygon fill="#c0c0c0" stroke="#c0c0c0" stroke-width="2" points="811.9439,-766.1499 816.1212,-756.4133 806.7838,-761.4198 811.9439,-766.1499"/>
</g>
<!-- 19 -->
<g id="node20" class="node">
<title>19</title>
<path fill="none" stroke="#56c9d8" stroke-width="2" d="M307.3342,-912C307.3342,-912 102.6658,-912 102.6658,-912 96.6658,-912 90.6658,-906 90.6658,-900 90.6658,-900 90.6658,-876 90.6658,-876 90.6658,-870 96.6658,-864 102.6658,-864 102.6658,-864 307.3342,-864 307.3342,-864 313.3342,-864 319.3342,-870 319.3342,-876 319.3342,-876 319.3342,-900 319.3342,-900 319.3342,-906 313.3342,-912 307.3342,-912"/>
<text text-anchor="middle" x="205" y="-900" font-family="sans" font-size="10.00" fill="#000000">align_reads</text>
<text text-anchor="middle" x="205" y="-890" font-family="sans" font-size="10.00" fill="#000000">out_dir: /Users/karthik/hpc_downloads/test_field</text>
<text text-anchor="middle" x="205" y="-880" font-family="sans" font-size="10.00" fill="#000000">rep: b</text>
<text text-anchor="middle" x="205" y="-870" font-family="sans" font-size="10.00" fill="#000000">sample: ZI&#45;merge&#45;26</text>
</g>
<!-- 19&#45;&gt;1 -->
<g id="edge1" class="edge">
<title>19&#45;&gt;1</title>
<path fill="none" stroke="#c0c0c0" stroke-width="2" d="M217.437,-863.7479C221.7485,-855.3404 226.61,-845.8605 231.0363,-837.2293"/>
<polygon fill="#c0c0c0" stroke="#c0c0c0" stroke-width="2" points="234.1729,-838.7828 235.6218,-828.2875 227.9442,-835.5886 234.1729,-838.7828"/>
</g>
<!-- 21&#45;&gt;23 -->
<g id="edge38" class="edge">
<title>21&#45;&gt;23</title>
<path fill="none" stroke="#c0c0c0" stroke-width="2" d="M157.1774,-287.8314C153.7891,-279.9617 149.7459,-270.5712 145.9924,-261.8533"/>
<polygon fill="#c0c0c0" stroke="#c0c0c0" stroke-width="2" points="149.0973,-260.214 141.9279,-252.4133 142.6679,-262.9822 149.0973,-260.214"/>
</g>
<!-- 22&#45;&gt;3 -->
<g id="edge4" class="edge">
<title>22&#45;&gt;3</title>
<path fill="none" stroke="#c0c0c0" stroke-width="2" d="M408.822,-503.8314C399.6412,-495.1337 388.4994,-484.5783 378.5224,-475.1265"/>
<polygon fill="#c0c0c0" stroke="#c0c0c0" stroke-width="2" points="380.8385,-472.4995 371.1719,-468.1628 376.0243,-477.5811 380.8385,-472.4995"/>
</g>
<!-- 22&#45;&gt;4 -->
<g id="edge6" class="edge">
<title>22&#45;&gt;4</title>
<path fill="none" stroke="#c0c0c0" stroke-width="2" d="M428.1251,-503.9843C428.4632,-455.2939 429.3972,-320.7961 429.8052,-262.0573"/>
<polygon fill="#c0c0c0" stroke="#c0c0c0" stroke-width="2" points="433.3053,-262.033 429.8749,-252.0089 426.3055,-261.9843 433.3053,-262.033"/>
</g>
<!-- 23&#45;&gt;12 -->
<g id="edge21" class="edge">
<title>23&#45;&gt;12</title>
<path fill="none" stroke="#c0c0c0" stroke-width="2" d="M134,-215.8314C134,-208.131 134,-198.9743 134,-190.4166"/>
<polygon fill="#c0c0c0" stroke="#c0c0c0" stroke-width="2" points="137.5001,-190.4132 134,-180.4133 130.5001,-190.4133 137.5001,-190.4132"/>
</g>
<!-- 24 -->
<g id="node25" class="node">
<title>24</title>
<path fill="none" stroke="#56c9d8" stroke-width="2" d="M1083.3342,-912C1083.3342,-912 878.6658,-912 878.6658,-912 872.6658,-912 866.6658,-906 866.6658,-900 866.6658,-900 866.6658,-876 866.6658,-876 866.6658,-870 872.6658,-864 878.6658,-864 878.6658,-864 1083.3342,-864 1083.3342,-864 1089.3342,-864 1095.3342,-870 1095.3342,-876 1095.3342,-876 1095.3342,-900 1095.3342,-900 1095.3342,-906 1089.3342,-912 1083.3342,-912"/>
<text text-anchor="middle" x="981" y="-900" font-family="sans" font-size="10.00" fill="#000000">align_reads</text>
<text text-anchor="middle" x="981" y="-890" font-family="sans" font-size="10.00" fill="#000000">out_dir: /Users/karthik/hpc_downloads/test_field</text>
<text text-anchor="middle" x="981" y="-880" font-family="sans" font-size="10.00" fill="#000000">rep: b</text>
<text text-anchor="middle" x="981" y="-870" font-family="sans" font-size="10.00" fill="#000000">sample: ZI&#45;merge&#45;27</text>
</g>
<!-- 33 -->
<g id="node34" class="node">
<title>33</title>
<path fill="none" stroke="#56d8a2" stroke-width="2" d="M987.5244,-828C987.5244,-828 910.4756,-828 910.4756,-828 904.4756,-828 898.4756,-822 898.4756,-816 898.4756,-816 898.4756,-804 898.4756,-804 898.4756,-798 904.4756,-792 910.4756,-792 910.4756,-792 987.5244,-792 987.5244,-792 993.5244,-792 999.5244,-798 999.5244,-804 999.5244,-804 999.5244,-816 999.5244,-816 999.5244,-822 993.5244,-828 987.5244,-828"/>
<text text-anchor="middle" x="949" y="-807" font-family="sans" font-size="10.00" fill="#000000">trim_primer_quality</text>
</g>
<!-- 24&#45;&gt;33 -->
<g id="edge52" class="edge">
<title>24&#45;&gt;33</title>
<path fill="none" stroke="#c0c0c0" stroke-width="2" d="M971.0504,-863.7479C967.6746,-855.5192 963.8773,-846.2634 960.3975,-837.7813"/>
<polygon fill="#c0c0c0" stroke="#c0c0c0" stroke-width="2" points="963.5363,-836.2108 956.5026,-828.2875 957.0601,-838.8677 963.5363,-836.2108"/>
</g>
<!-- 25&#45;&gt;30 -->
<g id="edge47" class="edge">
<title>25&#45;&gt;30</title>
<path fill="none" stroke="#c0c0c0" stroke-width="2" d="M896.2612,-146.2883C836.228,-132.5664 750.6497,-113.0056 697.8034,-100.9265"/>
<polygon fill="#c0c0c0" stroke="#c0c0c0" stroke-width="2" points="698.5377,-97.5041 688.0092,-98.6878 696.9779,-104.3282 698.5377,-97.5041"/>
</g>
<!-- 28 -->
<g id="node29" class="node">
<title>28</title>
<path fill="none" stroke="#d87d56" stroke-width="2" d="M295.3749,-684C295.3749,-684 234.6251,-684 234.6251,-684 228.6251,-684 222.6251,-678 222.6251,-672 222.6251,-672 222.6251,-660 222.6251,-660 222.6251,-654 228.6251,-648 234.6251,-648 234.6251,-648 295.3749,-648 295.3749,-648 301.3749,-648 307.3749,-654 307.3749,-660 307.3749,-660 307.3749,-672 307.3749,-672 307.3749,-678 301.3749,-684 295.3749,-684"/>
<text text-anchor="middle" x="265" y="-663" font-family="sans" font-size="10.00" fill="#000000">call_consensus</text>
</g>
<!-- 26&#45;&gt;28 -->
<g id="edge44" class="edge">
<title>26&#45;&gt;28</title>
<path fill="none" stroke="#c0c0c0" stroke-width="2" d="M265,-719.8314C265,-712.131 265,-702.9743 265,-694.4166"/>
<polygon fill="#c0c0c0" stroke="#c0c0c0" stroke-width="2" points="268.5001,-694.4132 265,-684.4133 261.5001,-694.4133 268.5001,-694.4132"/>
</g>
<!-- 27 -->
<g id="node28" class="node">
<title>27</title>
<path fill="none" stroke="#56d87b" stroke-width="2" d="M153.3992,-612C153.3992,-612 72.6008,-612 72.6008,-612 66.6008,-612 60.6008,-606 60.6008,-600 60.6008,-600 60.6008,-588 60.6008,-588 60.6008,-582 66.6008,-576 72.6008,-576 72.6008,-576 153.3992,-576 153.3992,-576 159.3992,-576 165.3992,-582 165.3992,-588 165.3992,-588 165.3992,-600 165.3992,-600 165.3992,-606 159.3992,-612 153.3992,-612"/>
<text text-anchor="middle" x="113" y="-596" font-family="sans" font-size="10.00" fill="#000000">align_to_consensus</text>
<text text-anchor="middle" x="113" y="-586" font-family="sans" font-size="10.00" fill="#000000">rep: b</text>
</g>
<!-- 27&#45;&gt;2 -->
<g id="edge3" class="edge">
<title>27&#45;&gt;2</title>
<path fill="none" stroke="#c0c0c0" stroke-width="2" d="M110.2242,-575.8314C109.0478,-568.131 107.6489,-558.9743 106.3414,-550.4166"/>
<polygon fill="#c0c0c0" stroke="#c0c0c0" stroke-width="2" points="109.7833,-549.7699 104.8131,-540.4133 102.8636,-550.8272 109.7833,-549.7699"/>
</g>
<!-- 28&#45;&gt;3 -->
<g id="edge5" class="edge">
<title>28&#45;&gt;3</title>
<path fill="none" stroke="#c0c0c0" stroke-width="2" d="M282.1242,-647.743C290.6457,-637.8156 300.4896,-624.9448 307,-612 329.1307,-567.9972 341.6378,-511.6198 347.5929,-478.2981"/>
<polygon fill="#c0c0c0" stroke="#c0c0c0" stroke-width="2" points="351.0609,-478.7819 349.3001,-468.3344 344.1615,-477.5997 351.0609,-478.7819"/>
</g>
<!-- 28&#45;&gt;8 -->
<g id="edge14" class="edge">
<title>28&#45;&gt;8</title>
<path fill="none" stroke="#c0c0c0" stroke-width="2" d="M303.356,-647.8314C323.5044,-638.2874 348.3752,-626.5065 369.7083,-616.4013"/>
<polygon fill="#c0c0c0" stroke="#c0c0c0" stroke-width="2" points="371.3807,-619.482 378.9198,-612.038 368.3841,-613.1558 371.3807,-619.482"/>
</g>
<!-- 28&#45;&gt;12 -->
<g id="edge22" class="edge">
<title>28&#45;&gt;12</title>
<path fill="none" stroke="#c0c0c0" stroke-width="2" d="M222.5177,-659.2507C168.3819,-649.9772 78.6223,-632.1371 52,-612 15.1562,-584.1314 0,-568.1966 0,-522 0,-522 0,-522 0,-306 0,-252.0273 51.0736,-209.8118 90.1582,-185.408"/>
<polygon fill="#c0c0c0" stroke="#c0c0c0" stroke-width="2" points="92.052,-188.3529 98.7931,-180.1792 88.4262,-182.3651 92.052,-188.3529"/>
</g>
<!-- 28&#45;&gt;16 -->
<g id="edge27" class="edge">
<title>28&#45;&gt;16</title>
<path fill="none" stroke="#c0c0c0" stroke-width="2" d="M265,-647.8314C265,-640.131 265,-630.9743 265,-622.4166"/>
<polygon fill="#c0c0c0" stroke="#c0c0c0" stroke-width="2" points="268.5001,-622.4132 265,-612.4133 261.5001,-622.4133 268.5001,-622.4132"/>
</g>
<!-- 28&#45;&gt;27 -->
<g id="edge43" class="edge">
<title>28&#45;&gt;27</title>
<path fill="none" stroke="#c0c0c0" stroke-width="2" d="M226.644,-647.8314C206.4956,-638.2874 181.6248,-626.5065 160.2917,-616.4013"/>
<polygon fill="#c0c0c0" stroke="#c0c0c0" stroke-width="2" points="161.6159,-613.1558 151.0802,-612.038 158.6193,-619.482 161.6159,-613.1558"/>
</g>
<!-- 28&#45;&gt;34 -->
<g id="edge54" class="edge">
<title>28&#45;&gt;34</title>
<path fill="none" stroke="#c0c0c0" stroke-width="2" d="M247.8758,-647.743C239.3543,-637.8156 229.5104,-624.9448 223,-612 200.8693,-567.9972 188.3622,-511.6198 182.4071,-478.2981"/>
<polygon fill="#c0c0c0" stroke="#c0c0c0" stroke-width="2" points="185.8385,-477.5997 180.6999,-468.3344 178.9391,-478.7819 185.8385,-477.5997"/>
</g>
<!-- 28&#45;&gt;39 -->
<g id="edge62" class="edge">
<title>28&#45;&gt;39</title>
<path fill="none" stroke="#c0c0c0" stroke-width="2" d="M307.4823,-659.2507C361.6181,-649.9772 451.3777,-632.1371 478,-612 514.8438,-584.1314 530,-568.1966 530,-522 530,-522 530,-522 530,-306 530,-260.3933 499.3763,-215.4038 476.5058,-188.1636"/>
<polygon fill="#c0c0c0" stroke="#c0c0c0" stroke-width="2" points="478.8898,-185.5699 469.6994,-180.2986 473.5967,-190.1506 478.8898,-185.5699"/>
</g>
<!-- 29&#45;&gt;11 -->
<g id="edge19" class="edge">
<title>29&#45;&gt;11</title>
<path fill="none" stroke="#c0c0c0" stroke-width="2" d="M856.7389,-359.8314C869.5437,-350.7927 885.1909,-339.7476 898.9719,-330.0198"/>
<polygon fill="#c0c0c0" stroke="#c0c0c0" stroke-width="2" points="901.118,-332.7891 907.2693,-324.1628 897.0812,-327.0703 901.118,-332.7891"/>
</g>
<!-- 40 -->
<g id="node41" class="node">
<title>40</title>
<path fill="none" stroke="#59d856" stroke-width="2" d="M754.4792,-324C754.4792,-324 707.5208,-324 707.5208,-324 701.5208,-324 695.5208,-318 695.5208,-312 695.5208,-312 695.5208,-300 695.5208,-300 695.5208,-294 701.5208,-288 707.5208,-288 707.5208,-288 754.4792,-288 754.4792,-288 760.4792,-288 766.4792,-294 766.4792,-300 766.4792,-300 766.4792,-312 766.4792,-312 766.4792,-318 760.4792,-324 754.4792,-324"/>
<text text-anchor="middle" x="731" y="-308" font-family="sans" font-size="10.00" fill="#000000">get_masked</text>
<text text-anchor="middle" x="731" y="-298" font-family="sans" font-size="10.00" fill="#000000">rep: a</text>
</g>
<!-- 29&#45;&gt;40 -->
<g id="edge63" class="edge">
<title>29&#45;&gt;40</title>
<path fill="none" stroke="#c0c0c0" stroke-width="2" d="M805.7658,-359.8314C793.212,-350.7927 777.8717,-339.7476 764.3609,-330.0198"/>
<polygon fill="#c0c0c0" stroke="#c0c0c0" stroke-width="2" points="766.3866,-327.1655 756.2261,-324.1628 762.2964,-332.8463 766.3866,-327.1655"/>
</g>
<!-- 30&#45;&gt;20 -->
<g id="edge31" class="edge">
<title>30&#45;&gt;20</title>
<path fill="none" stroke="#c0c0c0" stroke-width="2" d="M619.4666,-71.8314C602.8928,-61.9692 582.3048,-49.7186 564.9581,-39.3965"/>
<polygon fill="#c0c0c0" stroke="#c0c0c0" stroke-width="2" points="566.6042,-36.3033 556.2207,-34.1975 563.0246,-42.3189 566.6042,-36.3033"/>
</g>
<!-- 31&#45;&gt;26 -->
<g id="edge42" class="edge">
<title>31&#45;&gt;26</title>
<path fill="none" stroke="#c0c0c0" stroke-width="2" d="M371.9151,-791.8314C353.2011,-782.4089 330.1568,-770.8062 310.26,-760.7883"/>
<polygon fill="#c0c0c0" stroke="#c0c0c0" stroke-width="2" points="311.5792,-757.5339 301.0734,-756.1628 308.4311,-763.7861 311.5792,-757.5339"/>
</g>
<!-- 32&#45;&gt;29 -->
<g id="edge45" class="edge">
<title>32&#45;&gt;29</title>
<path fill="none" stroke="#c0c0c0" stroke-width="2" d="M767.4491,-431.8314C777.8178,-423.0485 790.4229,-412.3712 801.6646,-402.8489"/>
<polygon fill="#c0c0c0" stroke="#c0c0c0" stroke-width="2" points="804.1895,-405.297 809.5578,-396.1628 799.6651,-399.9556 804.1895,-405.297"/>
</g>
<!-- 33&#45;&gt;36 -->
<g id="edge58" class="edge">
<title>33&#45;&gt;36</title>
<path fill="none" stroke="#c0c0c0" stroke-width="2" d="M919.7283,-791.8314C904.8912,-782.6221 886.6985,-771.3301 870.8138,-761.4706"/>
<polygon fill="#c0c0c0" stroke="#c0c0c0" stroke-width="2" points="872.6045,-758.4628 862.2623,-756.1628 868.913,-764.4102 872.6045,-758.4628"/>
</g>
<!-- 34&#45;&gt;15 -->
<g id="edge25" class="edge">
<title>34&#45;&gt;15</title>
<path fill="none" stroke="#c0c0c0" stroke-width="2" d="M200.4585,-431.8314C211.4205,-422.9632 224.7699,-412.1637 236.6265,-402.5718"/>
<polygon fill="#c0c0c0" stroke="#c0c0c0" stroke-width="2" points="238.9755,-405.1734 244.5487,-396.1628 234.5729,-399.7313 238.9755,-405.1734"/>
</g>
<!-- 35&#45;&gt;7 -->
<g id="edge12" class="edge">
<title>35&#45;&gt;7</title>
<path fill="none" stroke="#c0c0c0" stroke-width="2" d="M976.822,-503.8314C967.6412,-495.1337 956.4994,-484.5783 946.5224,-475.1265"/>
<polygon fill="#c0c0c0" stroke="#c0c0c0" stroke-width="2" points="948.8385,-472.4995 939.1719,-468.1628 944.0243,-477.5811 948.8385,-472.4995"/>
</g>
<!-- 35&#45;&gt;10 -->
<g id="edge17" class="edge">
<title>35&#45;&gt;10</title>
<path fill="none" stroke="#c0c0c0" stroke-width="2" d="M995.383,-503.9954C993.849,-464.6252 989.078,-367.9994 977,-288 975.7299,-279.5871 973.9017,-270.5298 972.0538,-262.2817"/>
<polygon fill="#c0c0c0" stroke="#c0c0c0" stroke-width="2" points="975.4234,-261.3198 969.7431,-252.3763 968.6064,-262.91 975.4234,-261.3198"/>
</g>
<!-- 36&#45;&gt;13 -->
<g id="edge23" class="edge">
<title>36&#45;&gt;13</title>
<path fill="none" stroke="#c0c0c0" stroke-width="2" d="M833,-719.8314C833,-712.131 833,-702.9743 833,-694.4166"/>
<polygon fill="#c0c0c0" stroke="#c0c0c0" stroke-width="2" points="836.5001,-694.4132 833,-684.4133 829.5001,-694.4133 836.5001,-694.4132"/>
</g>
<!-- 37&#45;&gt;6 -->
<g id="edge10" class="edge">
<title>37&#45;&gt;6</title>
<path fill="none" stroke="#c0c0c0" stroke-width="2" d="M663.4578,-215.8314C661.5116,-208.0463 659.1932,-198.7729 657.0337,-190.1347"/>
<polygon fill="#c0c0c0" stroke="#c0c0c0" stroke-width="2" points="660.4242,-189.2658 654.6033,-180.4133 653.6332,-190.9636 660.4242,-189.2658"/>
</g>
<!-- 38 -->
<g id="node39" class="node">
<title>38</title>
<path fill="none" stroke="#56c9d8" stroke-width="2" d="M837.3342,-912C837.3342,-912 632.6658,-912 632.6658,-912 626.6658,-912 620.6658,-906 620.6658,-900 620.6658,-900 620.6658,-876 620.6658,-876 620.6658,-870 626.6658,-864 632.6658,-864 632.6658,-864 837.3342,-864 837.3342,-864 843.3342,-864 849.3342,-870 849.3342,-876 849.3342,-876 849.3342,-900 849.3342,-900 849.3342,-906 843.3342,-912 837.3342,-912"/>
<text text-anchor="middle" x="735" y="-900" font-family="sans" font-size="10.00" fill="#000000">align_reads</text>
<text text-anchor="middle" x="735" y="-890" font-family="sans" font-size="10.00" fill="#000000">out_dir: /Users/karthik/hpc_downloads/test_field</text>
<text text-anchor="middle" x="735" y="-880" font-family="sans" font-size="10.00" fill="#000000">rep: a</text>
<text text-anchor="middle" x="735" y="-870" font-family="sans" font-size="10.00" fill="#000000">sample: ZI&#45;merge&#45;27</text>
</g>
<!-- 38&#45;&gt;18 -->
<g id="edge30" class="edge">
<title>38&#45;&gt;18</title>
<path fill="none" stroke="#c0c0c0" stroke-width="2" d="M744.9496,-863.7479C748.3254,-855.5192 752.1227,-846.2634 755.6025,-837.7813"/>
<polygon fill="#c0c0c0" stroke="#c0c0c0" stroke-width="2" points="758.9399,-838.8677 759.4974,-828.2875 752.4637,-836.2108 758.9399,-838.8677"/>
</g>
<!-- 39&#45;&gt;17 -->
<g id="edge28" class="edge">
<title>39&#45;&gt;17</title>
<path fill="none" stroke="#c0c0c0" stroke-width="2" d="M452,-143.8314C452,-136.131 452,-126.9743 452,-118.4166"/>
<polygon fill="#c0c0c0" stroke="#c0c0c0" stroke-width="2" points="455.5001,-118.4132 452,-108.4133 448.5001,-118.4133 455.5001,-118.4132"/>
</g>
<!-- 40&#45;&gt;37 -->
<g id="edge60" class="edge">
<title>40&#45;&gt;37</title>
<path fill="none" stroke="#c0c0c0" stroke-width="2" d="M715.1024,-287.8314C707.7722,-279.454 698.934,-269.3531 690.9031,-260.1749"/>
<polygon fill="#c0c0c0" stroke="#c0c0c0" stroke-width="2" points="693.3307,-257.6343 684.1116,-252.4133 688.0627,-262.2438 693.3307,-257.6343"/>
</g>
<!-- 41&#45;&gt;9 -->
<g id="edge16" class="edge">
<title>41&#45;&gt;9</title>
<path fill="none" stroke="#c0c0c0" stroke-width="2" d="M678.2242,-575.8314C677.0478,-568.131 675.6489,-558.9743 674.3414,-550.4166"/>
<polygon fill="#c0c0c0" stroke="#c0c0c0" stroke-width="2" points="677.7833,-549.7699 672.8131,-540.4133 670.8636,-550.8272 677.7833,-549.7699"/>
</g>
<!-- 42&#45;&gt;9 -->
<g id="edge15" class="edge">
<title>42&#45;&gt;9</title>
<path fill="none" stroke="#c0c0c0" stroke-width="2" d="M799.6212,-579.256C776.7262,-569.1428 745.9376,-555.543 720.1121,-544.1354"/>
<polygon fill="#c0c0c0" stroke="#c0c0c0" stroke-width="2" points="721.4074,-540.8814 710.8459,-540.0423 718.579,-547.2845 721.4074,-540.8814"/>
</g>
<!-- 42&#45;&gt;11 -->
<g id="edge20" class="edge">
<title>42&#45;&gt;11</title>
<path fill="none" stroke="#c0c0c0" stroke-width="2" d="M834.2532,-575.6268C837.1331,-544.0769 846.3581,-478.5115 875,-432 887.7155,-411.3514 903.9831,-417.0628 916,-396 926.7369,-377.1807 930.8603,-352.898 932.3686,-334.2993"/>
<polygon fill="#c0c0c0" stroke="#c0c0c0" stroke-width="2" points="935.8759,-334.2824 932.9847,-324.0897 928.8886,-333.8607 935.8759,-334.2824"/>
</g>
<!-- 42&#45;&gt;35 -->
<g id="edge55" class="edge">
<title>42&#45;&gt;35</title>
<path fill="none" stroke="#c0c0c0" stroke-width="2" d="M866.3788,-579.256C889.2738,-569.1428 920.0624,-555.543 945.8879,-544.1354"/>
<polygon fill="#c0c0c0" stroke="#c0c0c0" stroke-width="2" points="947.421,-547.2845 955.1541,-540.0423 944.5926,-540.8814 947.421,-547.2845"/>
</g>
<!-- 42&#45;&gt;40 -->
<g id="edge64" class="edge">
<title>42&#45;&gt;40</title>
<path fill="none" stroke="#c0c0c0" stroke-width="2" d="M832.0107,-575.9894C829.5211,-544.4233 820.8577,-478.0872 791,-432 777.0739,-410.5043 758.9613,-418.0908 746,-396 735.0774,-377.3838 731.5326,-353.088 730.6062,-334.4326"/>
<polygon fill="#c0c0c0" stroke="#c0c0c0" stroke-width="2" points="734.0981,-334.0869 730.3273,-324.1859 727.1007,-334.2774 734.0981,-334.0869"/>
</g>
</g>
</svg>
