<?xml version="1.0" encoding="UTF-8" standalone="no"?>
<!DOCTYPE svg PUBLIC "-//W3C//DTD SVG 1.1//EN"
 "http://www.w3.org/Graphics/SVG/1.1/DTD/svg11.dtd">
<!-- Generated by graphviz version 2.40.1 (20161225.0304)
 -->
<!-- Title: snakemake_dag Pages: 1 -->
<svg width="1101pt" height="920pt"
 viewBox="0.00 0.00 1100.69 920.00" xmlns="http://www.w3.org/2000/svg" xmlns:xlink="http://www.w3.org/1999/xlink">
<g id="graph0" class="graph" transform="scale(1 1) rotate(0) translate(4 916)">
<title>snakemake_dag</title>
<polygon fill="#ffffff" stroke="transparent" points="-4,4 -4,-916 1096.6872,-916 1096.6872,4 -4,4"/>
<!-- 0 -->
<g id="node1" class="node">
<title>0</title>
<path fill="none" stroke="#d8cb56" stroke-width="2" stroke-dasharray="5,2" d="M772.416,-540C772.416,-540 648.9585,-540 648.9585,-540 642.9585,-540 636.9585,-534 636.9585,-528 636.9585,-528 636.9585,-516 636.9585,-516 636.9585,-510 642.9585,-504 648.9585,-504 648.9585,-504 772.416,-504 772.416,-504 778.416,-504 784.416,-510 784.416,-516 784.416,-516 784.416,-528 784.416,-528 784.416,-534 778.416,-540 772.416,-540"/>
<text text-anchor="middle" x="710.6872" y="-519" font-family="sans" font-size="10.00" fill="#000000">realigned_trim_primer_quality</text>
</g>
<!-- 7 -->
<g id="node8" class="node">
<title>7</title>
<path fill="none" stroke="#56a9d8" stroke-width="2" stroke-dasharray="5,2" d="M810.2695,-468C810.2695,-468 763.105,-468 763.105,-468 757.105,-468 751.105,-462 751.105,-456 751.105,-456 751.105,-444 751.105,-444 751.105,-438 757.105,-432 763.105,-432 763.105,-432 810.2695,-432 810.2695,-432 816.2695,-432 822.2695,-438 822.2695,-444 822.2695,-444 822.2695,-456 822.2695,-456 822.2695,-462 816.2695,-468 810.2695,-468"/>
<text text-anchor="middle" x="786.6872" y="-447" font-family="sans" font-size="10.00" fill="#000000">call_variants</text>
</g>
<!-- 0&#45;&gt;7 -->
<g id="edge12" class="edge">
<title>0&#45;&gt;7</title>
<path fill="none" stroke="#c0c0c0" stroke-width="2" d="M729.8653,-503.8314C739.0461,-495.1337 750.1879,-484.5783 760.1648,-475.1265"/>
<polygon fill="#c0c0c0" stroke="#c0c0c0" stroke-width="2" points="762.6629,-477.5811 767.5154,-468.1628 757.8487,-472.4995 762.6629,-477.5811"/>
</g>
<!-- 35 -->
<g id="node36" class="node">
<title>35</title>
<path fill="none" stroke="#8fd856" stroke-width="2" d="M669.6082,-252C669.6082,-252 613.7663,-252 613.7663,-252 607.7663,-252 601.7663,-246 601.7663,-240 601.7663,-240 601.7663,-228 601.7663,-228 601.7663,-222 607.7663,-216 613.7663,-216 613.7663,-216 669.6082,-216 669.6082,-216 675.6082,-216 681.6082,-222 681.6082,-228 681.6082,-228 681.6082,-240 681.6082,-240 681.6082,-246 675.6082,-252 669.6082,-252"/>
<text text-anchor="middle" x="641.6872" y="-231" font-family="sans" font-size="10.00" fill="#000000">remove_reads</text>
</g>
<!-- 0&#45;&gt;35 -->
<g id="edge54" class="edge">
<title>0&#45;&gt;35</title>
<path fill="none" stroke="#c0c0c0" stroke-width="2" d="M712.1557,-503.8301C714.7169,-463.3158 717.0576,-363.2295 685.6872,-288 681.4547,-277.85 674.6771,-268.097 667.6965,-259.7399"/>
<polygon fill="#c0c0c0" stroke="#c0c0c0" stroke-width="2" points="670.2645,-257.3603 661.0182,-252.1876 665.0207,-261.9974 670.2645,-257.3603"/>
</g>
<!-- 1 -->
<g id="node2" class="node">
<title>1</title>
<path fill="none" stroke="#567bd8" stroke-width="2" stroke-dasharray="5,2" d="M495.6565,-108C495.6565,-108 443.718,-108 443.718,-108 437.718,-108 431.718,-102 431.718,-96 431.718,-96 431.718,-84 431.718,-84 431.718,-78 437.718,-72 443.718,-72 443.718,-72 495.6565,-72 495.6565,-72 501.6565,-72 507.6565,-78 507.6565,-84 507.6565,-84 507.6565,-96 507.6565,-96 507.6565,-102 501.6565,-108 495.6565,-108"/>
<text text-anchor="middle" x="469.6872" y="-87" font-family="sans" font-size="10.00" fill="#000000">filter_variants</text>
</g>
<!-- 16 -->
<g id="node17" class="node">
<title>16</title>
<path fill="none" stroke="#56d892" stroke-width="2" d="M561.6872,-36C561.6872,-36 531.6872,-36 531.6872,-36 525.6872,-36 519.6872,-30 519.6872,-24 519.6872,-24 519.6872,-12 519.6872,-12 519.6872,-6 525.6872,0 531.6872,0 531.6872,0 561.6872,0 561.6872,0 567.6872,0 573.6872,-6 573.6872,-12 573.6872,-12 573.6872,-24 573.6872,-24 573.6872,-30 567.6872,-36 561.6872,-36"/>
<text text-anchor="middle" x="546.6872" y="-15" font-family="sans" font-size="10.00" fill="#000000">all</text>
</g>
<!-- 1&#45;&gt;16 -->
<g id="edge24" class="edge">
<title>1&#45;&gt;16</title>
<path fill="none" stroke="#c0c0c0" stroke-width="2" d="M489.1176,-71.8314C498.4192,-63.1337 509.7076,-52.5783 519.8158,-43.1265"/>
<polygon fill="#c0c0c0" stroke="#c0c0c0" stroke-width="2" points="522.3493,-45.5493 527.2631,-36.1628 517.5683,-40.4363 522.3493,-45.5493"/>
</g>
<!-- 2 -->
<g id="node3" class="node">
<title>2</title>
<path fill="none" stroke="#d8a456" stroke-width="2" stroke-dasharray="5,2" d="M803.0215,-912C803.0215,-912 598.353,-912 598.353,-912 592.353,-912 586.353,-906 586.353,-900 586.353,-900 586.353,-876 586.353,-876 586.353,-870 592.353,-864 598.353,-864 598.353,-864 803.0215,-864 803.0215,-864 809.0215,-864 815.0215,-870 815.0215,-876 815.0215,-876 815.0215,-900 815.0215,-900 815.0215,-906 809.0215,-912 803.0215,-912"/>
<text text-anchor="middle" x="700.6872" y="-900" font-family="sans" font-size="10.00" fill="#000000">align_reads</text>
<text text-anchor="middle" x="700.6872" y="-890" font-family="sans" font-size="10.00" fill="#000000">out_dir: /Users/karthik/hpc_downloads/test_field</text>
<text text-anchor="middle" x="700.6872" y="-880" font-family="sans" font-size="10.00" fill="#000000">rep: b</text>
<text text-anchor="middle" x="700.6872" y="-870" font-family="sans" font-size="10.00" fill="#000000">sample: ZI&#45;merge&#45;26</text>
</g>
<!-- 9 -->
<g id="node10" class="node">
<title>9</title>
<path fill="none" stroke="#56d8b9" stroke-width="2" stroke-dasharray="5,2" d="M739.2117,-828C739.2117,-828 662.1628,-828 662.1628,-828 656.1628,-828 650.1628,-822 650.1628,-816 650.1628,-816 650.1628,-804 650.1628,-804 650.1628,-798 656.1628,-792 662.1628,-792 662.1628,-792 739.2117,-792 739.2117,-792 745.2117,-792 751.2117,-798 751.2117,-804 751.2117,-804 751.2117,-816 751.2117,-816 751.2117,-822 745.2117,-828 739.2117,-828"/>
<text text-anchor="middle" x="700.6872" y="-807" font-family="sans" font-size="10.00" fill="#000000">trim_primer_quality</text>
</g>
<!-- 2&#45;&gt;9 -->
<g id="edge15" class="edge">
<title>2&#45;&gt;9</title>
<path fill="none" stroke="#c0c0c0" stroke-width="2" d="M700.6872,-863.7479C700.6872,-855.6981 700.6872,-846.6653 700.6872,-838.3356"/>
<polygon fill="#c0c0c0" stroke="#c0c0c0" stroke-width="2" points="704.1873,-838.2875 700.6872,-828.2875 697.1873,-838.2876 704.1873,-838.2875"/>
</g>
<!-- 3 -->
<g id="node4" class="node">
<title>3</title>
<path fill="none" stroke="#d85656" stroke-width="2" stroke-dasharray="5,2" d="M493.1664,-324C493.1664,-324 446.2081,-324 446.2081,-324 440.2081,-324 434.2081,-318 434.2081,-312 434.2081,-312 434.2081,-300 434.2081,-300 434.2081,-294 440.2081,-288 446.2081,-288 446.2081,-288 493.1664,-288 493.1664,-288 499.1664,-288 505.1664,-294 505.1664,-300 505.1664,-300 505.1664,-312 505.1664,-312 505.1664,-318 499.1664,-324 493.1664,-324"/>
<text text-anchor="middle" x="469.6872" y="-303" font-family="sans" font-size="10.00" fill="#000000">get_masked</text>
</g>
<!-- 4 -->
<g id="node5" class="node">
<title>4</title>
<path fill="none" stroke="#8fd856" stroke-width="2" stroke-dasharray="5,2" d="M492.6082,-252C492.6082,-252 436.7663,-252 436.7663,-252 430.7663,-252 424.7663,-246 424.7663,-240 424.7663,-240 424.7663,-228 424.7663,-228 424.7663,-222 430.7663,-216 436.7663,-216 436.7663,-216 492.6082,-216 492.6082,-216 498.6082,-216 504.6082,-222 504.6082,-228 504.6082,-228 504.6082,-240 504.6082,-240 504.6082,-246 498.6082,-252 492.6082,-252"/>
<text text-anchor="middle" x="464.6872" y="-231" font-family="sans" font-size="10.00" fill="#000000">remove_reads</text>
</g>
<!-- 3&#45;&gt;4 -->
<g id="edge7" class="edge">
<title>3&#45;&gt;4</title>
<path fill="none" stroke="#c0c0c0" stroke-width="2" d="M468.4255,-287.8314C467.8908,-280.131 467.2549,-270.9743 466.6606,-262.4166"/>
<polygon fill="#c0c0c0" stroke="#c0c0c0" stroke-width="2" points="470.1504,-262.1467 465.9659,-252.4133 463.1672,-262.6317 470.1504,-262.1467"/>
</g>
<!-- 32 -->
<g id="node33" class="node">
<title>32</title>
<path fill="none" stroke="#56d0d8" stroke-width="2" stroke-dasharray="5,2" d="M526.3592,-180C526.3592,-180 413.0153,-180 413.0153,-180 407.0153,-180 401.0153,-174 401.0153,-168 401.0153,-168 401.0153,-156 401.0153,-156 401.0153,-150 407.0153,-144 413.0153,-144 413.0153,-144 526.3592,-144 526.3592,-144 532.3592,-144 538.3592,-150 538.3592,-156 538.3592,-156 538.3592,-168 538.3592,-168 538.3592,-174 532.3592,-180 526.3592,-180"/>
<text text-anchor="middle" x="469.6872" y="-159" font-family="sans" font-size="10.00" fill="#000000">call_variants_post_removal</text>
</g>
<!-- 4&#45;&gt;32 -->
<g id="edge50" class="edge">
<title>4&#45;&gt;32</title>
<path fill="none" stroke="#c0c0c0" stroke-width="2" d="M465.949,-215.8314C466.4837,-208.131 467.1196,-198.9743 467.7139,-190.4166"/>
<polygon fill="#c0c0c0" stroke="#c0c0c0" stroke-width="2" points="471.2073,-190.6317 468.4085,-180.4133 464.2241,-190.1467 471.2073,-190.6317"/>
</g>
<!-- 5 -->
<g id="node6" class="node">
<title>5</title>
<path fill="none" stroke="#d87d56" stroke-width="2" stroke-dasharray="5,2" d="M731.0621,-756C731.0621,-756 670.3124,-756 670.3124,-756 664.3124,-756 658.3124,-750 658.3124,-744 658.3124,-744 658.3124,-732 658.3124,-732 658.3124,-726 664.3124,-720 670.3124,-720 670.3124,-720 731.0621,-720 731.0621,-720 737.0621,-720 743.0621,-726 743.0621,-732 743.0621,-732 743.0621,-744 743.0621,-744 743.0621,-750 737.0621,-756 731.0621,-756"/>
<text text-anchor="middle" x="700.6872" y="-735" font-family="sans" font-size="10.00" fill="#000000">call_consensus</text>
</g>
<!-- 6 -->
<g id="node7" class="node">
<title>6</title>
<path fill="none" stroke="#56d0d8" stroke-width="2" d="M695.3592,-180C695.3592,-180 582.0153,-180 582.0153,-180 576.0153,-180 570.0153,-174 570.0153,-168 570.0153,-168 570.0153,-156 570.0153,-156 570.0153,-150 576.0153,-144 582.0153,-144 582.0153,-144 695.3592,-144 695.3592,-144 701.3592,-144 707.3592,-150 707.3592,-156 707.3592,-156 707.3592,-168 707.3592,-168 707.3592,-174 701.3592,-180 695.3592,-180"/>
<text text-anchor="middle" x="638.6872" y="-159" font-family="sans" font-size="10.00" fill="#000000">call_variants_post_removal</text>
</g>
<!-- 5&#45;&gt;6 -->
<g id="edge11" class="edge">
<title>5&#45;&gt;6</title>
<path fill="none" stroke="#c0c0c0" stroke-width="2" d="M667.209,-719.9646C628.6909,-696.4961 570.6872,-651.5938 570.6872,-594 570.6872,-594 570.6872,-594 570.6872,-306 570.6872,-264.8223 573.941,-252.6631 592.6872,-216 597.7857,-206.0286 605.0665,-196.3274 612.3358,-187.9626"/>
<polygon fill="#c0c0c0" stroke="#c0c0c0" stroke-width="2" points="615.0879,-190.1387 619.2302,-180.3872 609.9109,-185.4271 615.0879,-190.1387"/>
</g>
<!-- 5&#45;&gt;7 -->
<g id="edge13" class="edge">
<title>5&#45;&gt;7</title>
<path fill="none" stroke="#c0c0c0" stroke-width="2" d="M727.9912,-719.897C740.0533,-710.5482 753.3587,-698.1356 761.6872,-684 802.9343,-613.9932 798.9209,-585.0856 793.6872,-504 793.1478,-495.6422 792.1434,-486.6019 791.0604,-478.3525"/>
<polygon fill="#c0c0c0" stroke="#c0c0c0" stroke-width="2" points="794.5252,-477.8568 789.6757,-468.437 787.5925,-478.825 794.5252,-477.8568"/>
</g>
<!-- 13 -->
<g id="node14" class="node">
<title>13</title>
<path fill="none" stroke="#b6d856" stroke-width="2" stroke-dasharray="5,2" d="M741.0864,-684C741.0864,-684 660.288,-684 660.288,-684 654.288,-684 648.288,-678 648.288,-672 648.288,-672 648.288,-660 648.288,-660 648.288,-654 654.288,-648 660.288,-648 660.288,-648 741.0864,-648 741.0864,-648 747.0864,-648 753.0864,-654 753.0864,-660 753.0864,-660 753.0864,-672 753.0864,-672 753.0864,-678 747.0864,-684 741.0864,-684"/>
<text text-anchor="middle" x="700.6872" y="-663" font-family="sans" font-size="10.00" fill="#000000">align_to_consensus</text>
</g>
<!-- 5&#45;&gt;13 -->
<g id="edge20" class="edge">
<title>5&#45;&gt;13</title>
<path fill="none" stroke="#c0c0c0" stroke-width="2" d="M700.6872,-719.8314C700.6872,-712.131 700.6872,-702.9743 700.6872,-694.4166"/>
<polygon fill="#c0c0c0" stroke="#c0c0c0" stroke-width="2" points="704.1873,-694.4132 700.6872,-684.4133 697.1873,-694.4133 704.1873,-694.4132"/>
</g>
<!-- 31 -->
<g id="node32" class="node">
<title>31</title>
<path fill="none" stroke="#567bd8" stroke-width="2" d="M664.6565,-108C664.6565,-108 612.718,-108 612.718,-108 606.718,-108 600.718,-102 600.718,-96 600.718,-96 600.718,-84 600.718,-84 600.718,-78 606.718,-72 612.718,-72 612.718,-72 664.6565,-72 664.6565,-72 670.6565,-72 676.6565,-78 676.6565,-84 676.6565,-84 676.6565,-96 676.6565,-96 676.6565,-102 670.6565,-108 664.6565,-108"/>
<text text-anchor="middle" x="638.6872" y="-87" font-family="sans" font-size="10.00" fill="#000000">filter_variants</text>
</g>
<!-- 6&#45;&gt;31 -->
<g id="edge47" class="edge">
<title>6&#45;&gt;31</title>
<path fill="none" stroke="#c0c0c0" stroke-width="2" d="M638.6872,-143.8314C638.6872,-136.131 638.6872,-126.9743 638.6872,-118.4166"/>
<polygon fill="#c0c0c0" stroke="#c0c0c0" stroke-width="2" points="642.1873,-118.4132 638.6872,-108.4133 635.1873,-118.4133 642.1873,-118.4132"/>
</g>
<!-- 39 -->
<g id="node40" class="node">
<title>39</title>
<path fill="none" stroke="#56d86b" stroke-width="2" stroke-dasharray="5,2" d="M895.869,-396C895.869,-396 767.5055,-396 767.5055,-396 761.5055,-396 755.5055,-390 755.5055,-384 755.5055,-384 755.5055,-372 755.5055,-372 755.5055,-366 761.5055,-360 767.5055,-360 767.5055,-360 895.869,-360 895.869,-360 901.869,-360 907.869,-366 907.869,-372 907.869,-372 907.869,-384 907.869,-384 907.869,-390 901.869,-396 895.869,-396"/>
<text text-anchor="middle" x="831.6872" y="-375" font-family="sans" font-size="10.00" fill="#000000">filter_variants_before_masking</text>
</g>
<!-- 7&#45;&gt;39 -->
<g id="edge61" class="edge">
<title>7&#45;&gt;39</title>
<path fill="none" stroke="#c0c0c0" stroke-width="2" d="M798.0426,-431.8314C803.1198,-423.7079 809.2099,-413.9637 814.8049,-405.0118"/>
<polygon fill="#c0c0c0" stroke="#c0c0c0" stroke-width="2" points="817.8469,-406.7483 820.1789,-396.4133 811.9109,-403.0383 817.8469,-406.7483"/>
</g>
<!-- 8 -->
<g id="node9" class="node">
<title>8</title>
<path fill="none" stroke="#d87d56" stroke-width="2" stroke-dasharray="5,2" d="M474.0621,-756C474.0621,-756 413.3124,-756 413.3124,-756 407.3124,-756 401.3124,-750 401.3124,-744 401.3124,-744 401.3124,-732 401.3124,-732 401.3124,-726 407.3124,-720 413.3124,-720 413.3124,-720 474.0621,-720 474.0621,-720 480.0621,-720 486.0621,-726 486.0621,-732 486.0621,-732 486.0621,-744 486.0621,-744 486.0621,-750 480.0621,-756 474.0621,-756"/>
<text text-anchor="middle" x="443.6872" y="-735" font-family="sans" font-size="10.00" fill="#000000">call_consensus</text>
</g>
<!-- 8&#45;&gt;32 -->
<g id="edge49" class="edge">
<title>8&#45;&gt;32</title>
<path fill="none" stroke="#c0c0c0" stroke-width="2" d="M470.1631,-719.8192C482.1894,-710.3706 495.703,-697.8969 504.6872,-684 527.4306,-648.8204 532.6872,-635.8911 532.6872,-594 532.6872,-594 532.6872,-594 532.6872,-306 532.6872,-265.1184 531.3176,-252.8847 513.6872,-216 508.9447,-206.078 502.0193,-196.3911 495.0604,-188.0243"/>
<polygon fill="#c0c0c0" stroke="#c0c0c0" stroke-width="2" points="497.6588,-185.6787 488.4483,-180.4424 492.3831,-190.2795 497.6588,-185.6787"/>
</g>
<!-- 33 -->
<g id="node34" class="node">
<title>33</title>
<path fill="none" stroke="#56a9d8" stroke-width="2" stroke-dasharray="5,2" d="M366.2695,-468C366.2695,-468 319.105,-468 319.105,-468 313.105,-468 307.105,-462 307.105,-456 307.105,-456 307.105,-444 307.105,-444 307.105,-438 313.105,-432 319.105,-432 319.105,-432 366.2695,-432 366.2695,-432 372.2695,-432 378.2695,-438 378.2695,-444 378.2695,-444 378.2695,-456 378.2695,-456 378.2695,-462 372.2695,-468 366.2695,-468"/>
<text text-anchor="middle" x="342.6872" y="-447" font-family="sans" font-size="10.00" fill="#000000">call_variants</text>
</g>
<!-- 8&#45;&gt;33 -->
<g id="edge51" class="edge">
<title>8&#45;&gt;33</title>
<path fill="none" stroke="#c0c0c0" stroke-width="2" d="M419.116,-719.8447C407.1141,-710.1368 393.0623,-697.4321 382.6872,-684 338.8247,-627.2134 326.3663,-609.7886 309.6872,-540 305.9681,-524.4383 305.3537,-519.402 309.6872,-504 312.3534,-494.5243 317.1953,-485.067 322.3635,-476.7759"/>
<polygon fill="#c0c0c0" stroke="#c0c0c0" stroke-width="2" points="325.3838,-478.5549 328.0121,-468.2912 319.5569,-474.6757 325.3838,-478.5549"/>
</g>
<!-- 43 -->
<g id="node44" class="node">
<title>43</title>
<path fill="none" stroke="#b6d856" stroke-width="2" stroke-dasharray="5,2" d="M484.0864,-684C484.0864,-684 403.288,-684 403.288,-684 397.288,-684 391.288,-678 391.288,-672 391.288,-672 391.288,-660 391.288,-660 391.288,-654 397.288,-648 403.288,-648 403.288,-648 484.0864,-648 484.0864,-648 490.0864,-648 496.0864,-654 496.0864,-660 496.0864,-660 496.0864,-672 496.0864,-672 496.0864,-678 490.0864,-684 484.0864,-684"/>
<text text-anchor="middle" x="443.6872" y="-663" font-family="sans" font-size="10.00" fill="#000000">align_to_consensus</text>
</g>
<!-- 8&#45;&gt;43 -->
<g id="edge65" class="edge">
<title>8&#45;&gt;43</title>
<path fill="none" stroke="#c0c0c0" stroke-width="2" d="M443.6872,-719.8314C443.6872,-712.131 443.6872,-702.9743 443.6872,-694.4166"/>
<polygon fill="#c0c0c0" stroke="#c0c0c0" stroke-width="2" points="447.1873,-694.4132 443.6872,-684.4133 440.1873,-694.4133 447.1873,-694.4132"/>
</g>
<!-- 9&#45;&gt;5 -->
<g id="edge9" class="edge">
<title>9&#45;&gt;5</title>
<path fill="none" stroke="#c0c0c0" stroke-width="2" d="M700.6872,-791.8314C700.6872,-784.131 700.6872,-774.9743 700.6872,-766.4166"/>
<polygon fill="#c0c0c0" stroke="#c0c0c0" stroke-width="2" points="704.1873,-766.4132 700.6872,-756.4133 697.1873,-766.4133 704.1873,-766.4132"/>
</g>
<!-- 10 -->
<g id="node11" class="node">
<title>10</title>
<path fill="none" stroke="#56d86b" stroke-width="2" stroke-dasharray="5,2" d="M361.869,-396C361.869,-396 233.5055,-396 233.5055,-396 227.5055,-396 221.5055,-390 221.5055,-384 221.5055,-384 221.5055,-372 221.5055,-372 221.5055,-366 227.5055,-360 233.5055,-360 233.5055,-360 361.869,-360 361.869,-360 367.869,-360 373.869,-366 373.869,-372 373.869,-372 373.869,-384 373.869,-384 373.869,-390 367.869,-396 361.869,-396"/>
<text text-anchor="middle" x="297.6872" y="-375" font-family="sans" font-size="10.00" fill="#000000">filter_variants_before_masking</text>
</g>
<!-- 10&#45;&gt;3 -->
<g id="edge6" class="edge">
<title>10&#45;&gt;3</title>
<path fill="none" stroke="#c0c0c0" stroke-width="2" d="M341.0901,-359.8314C366.6812,-349.1188 399.0048,-335.588 424.8428,-324.7721"/>
<polygon fill="#c0c0c0" stroke="#c0c0c0" stroke-width="2" points="426.5275,-327.8612 434.4004,-320.7712 423.8245,-321.4041 426.5275,-327.8612"/>
</g>
<!-- 27 -->
<g id="node28" class="node">
<title>27</title>
<path fill="none" stroke="#d85656" stroke-width="2" stroke-dasharray="5,2" d="M64.1664,-324C64.1664,-324 17.2081,-324 17.2081,-324 11.2081,-324 5.2081,-318 5.2081,-312 5.2081,-312 5.2081,-300 5.2081,-300 5.2081,-294 11.2081,-288 17.2081,-288 17.2081,-288 64.1664,-288 64.1664,-288 70.1664,-288 76.1664,-294 76.1664,-300 76.1664,-300 76.1664,-312 76.1664,-312 76.1664,-318 70.1664,-324 64.1664,-324"/>
<text text-anchor="middle" x="40.6872" y="-303" font-family="sans" font-size="10.00" fill="#000000">get_masked</text>
</g>
<!-- 10&#45;&gt;27 -->
<g id="edge42" class="edge">
<title>10&#45;&gt;27</title>
<path fill="none" stroke="#c0c0c0" stroke-width="2" d="M233.167,-359.9243C187.1506,-347.0325 126.438,-330.0236 85.6086,-318.585"/>
<polygon fill="#c0c0c0" stroke="#c0c0c0" stroke-width="2" points="86.5075,-315.2021 75.934,-315.8746 84.6191,-321.9426 86.5075,-315.2021"/>
</g>
<!-- 11 -->
<g id="node12" class="node">
<title>11</title>
<path fill="none" stroke="#d8cb56" stroke-width="2" stroke-dasharray="5,2" d="M1014.416,-540C1014.416,-540 890.9585,-540 890.9585,-540 884.9585,-540 878.9585,-534 878.9585,-528 878.9585,-528 878.9585,-516 878.9585,-516 878.9585,-510 884.9585,-504 890.9585,-504 890.9585,-504 1014.416,-504 1014.416,-504 1020.416,-504 1026.416,-510 1026.416,-516 1026.416,-516 1026.416,-528 1026.416,-528 1026.416,-534 1020.416,-540 1014.416,-540"/>
<text text-anchor="middle" x="952.6872" y="-519" font-family="sans" font-size="10.00" fill="#000000">realigned_trim_primer_quality</text>
</g>
<!-- 17 -->
<g id="node18" class="node">
<title>17</title>
<path fill="none" stroke="#56a9d8" stroke-width="2" stroke-dasharray="5,2" d="M900.2695,-468C900.2695,-468 853.105,-468 853.105,-468 847.105,-468 841.105,-462 841.105,-456 841.105,-456 841.105,-444 841.105,-444 841.105,-438 847.105,-432 853.105,-432 853.105,-432 900.2695,-432 900.2695,-432 906.2695,-432 912.2695,-438 912.2695,-444 912.2695,-444 912.2695,-456 912.2695,-456 912.2695,-462 906.2695,-468 900.2695,-468"/>
<text text-anchor="middle" x="876.6872" y="-447" font-family="sans" font-size="10.00" fill="#000000">call_variants</text>
</g>
<!-- 11&#45;&gt;17 -->
<g id="edge26" class="edge">
<title>11&#45;&gt;17</title>
<path fill="none" stroke="#c0c0c0" stroke-width="2" d="M933.5092,-503.8314C924.3284,-495.1337 913.1866,-484.5783 903.2097,-475.1265"/>
<polygon fill="#c0c0c0" stroke="#c0c0c0" stroke-width="2" points="905.5258,-472.4995 895.8591,-468.1628 900.7116,-477.5811 905.5258,-472.4995"/>
</g>
<!-- 23 -->
<g id="node24" class="node">
<title>23</title>
<path fill="none" stroke="#8fd856" stroke-width="2" d="M1011.6082,-252C1011.6082,-252 955.7663,-252 955.7663,-252 949.7663,-252 943.7663,-246 943.7663,-240 943.7663,-240 943.7663,-228 943.7663,-228 943.7663,-222 949.7663,-216 955.7663,-216 955.7663,-216 1011.6082,-216 1011.6082,-216 1017.6082,-216 1023.6082,-222 1023.6082,-228 1023.6082,-228 1023.6082,-240 1023.6082,-240 1023.6082,-246 1017.6082,-252 1011.6082,-252"/>
<text text-anchor="middle" x="983.6872" y="-231" font-family="sans" font-size="10.00" fill="#000000">remove_reads</text>
</g>
<!-- 11&#45;&gt;23 -->
<g id="edge35" class="edge">
<title>11&#45;&gt;23</title>
<path fill="none" stroke="#c0c0c0" stroke-width="2" d="M953.3043,-503.9954C954.8382,-464.6252 959.6093,-367.9994 971.6872,-288 972.9574,-279.5871 974.7856,-270.5298 976.6335,-262.2817"/>
<polygon fill="#c0c0c0" stroke="#c0c0c0" stroke-width="2" points="980.0808,-262.91 978.9441,-252.3763 973.2638,-261.3198 980.0808,-262.91"/>
</g>
<!-- 12 -->
<g id="node13" class="node">
<title>12</title>
<path fill="none" stroke="#d8a456" stroke-width="2" stroke-dasharray="5,2" d="M1077.0215,-912C1077.0215,-912 872.353,-912 872.353,-912 866.353,-912 860.353,-906 860.353,-900 860.353,-900 860.353,-876 860.353,-876 860.353,-870 866.353,-864 872.353,-864 872.353,-864 1077.0215,-864 1077.0215,-864 1083.0215,-864 1089.0215,-870 1089.0215,-876 1089.0215,-876 1089.0215,-900 1089.0215,-900 1089.0215,-906 1083.0215,-912 1077.0215,-912"/>
<text text-anchor="middle" x="974.6872" y="-900" font-family="sans" font-size="10.00" fill="#000000">align_reads</text>
<text text-anchor="middle" x="974.6872" y="-890" font-family="sans" font-size="10.00" fill="#000000">out_dir: /Users/karthik/hpc_downloads/test_field</text>
<text text-anchor="middle" x="974.6872" y="-880" font-family="sans" font-size="10.00" fill="#000000">rep: a</text>
<text text-anchor="middle" x="974.6872" y="-870" font-family="sans" font-size="10.00" fill="#000000">sample: ZI&#45;merge&#45;26</text>
</g>
<!-- 19 -->
<g id="node20" class="node">
<title>19</title>
<path fill="none" stroke="#56d8b9" stroke-width="2" stroke-dasharray="5,2" d="M1013.2117,-828C1013.2117,-828 936.1628,-828 936.1628,-828 930.1628,-828 924.1628,-822 924.1628,-816 924.1628,-816 924.1628,-804 924.1628,-804 924.1628,-798 930.1628,-792 936.1628,-792 936.1628,-792 1013.2117,-792 1013.2117,-792 1019.2117,-792 1025.2117,-798 1025.2117,-804 1025.2117,-804 1025.2117,-816 1025.2117,-816 1025.2117,-822 1019.2117,-828 1013.2117,-828"/>
<text text-anchor="middle" x="974.6872" y="-807" font-family="sans" font-size="10.00" fill="#000000">trim_primer_quality</text>
</g>
<!-- 12&#45;&gt;19 -->
<g id="edge29" class="edge">
<title>12&#45;&gt;19</title>
<path fill="none" stroke="#c0c0c0" stroke-width="2" d="M974.6872,-863.7479C974.6872,-855.6981 974.6872,-846.6653 974.6872,-838.3356"/>
<polygon fill="#c0c0c0" stroke="#c0c0c0" stroke-width="2" points="978.1873,-838.2875 974.6872,-828.2875 971.1873,-838.2876 978.1873,-838.2875"/>
</g>
<!-- 13&#45;&gt;0 -->
<g id="edge1" class="edge">
<title>13&#45;&gt;0</title>
<path fill="none" stroke="#c0c0c0" stroke-width="2" d="M701.9537,-647.7623C703.6594,-623.201 706.7117,-579.2474 708.7182,-550.3541"/>
<polygon fill="#c0c0c0" stroke="#c0c0c0" stroke-width="2" points="712.2297,-550.3081 709.431,-540.0896 705.2466,-549.8231 712.2297,-550.3081"/>
</g>
<!-- 22 -->
<g id="node23" class="node">
<title>22</title>
<path fill="none" stroke="#68d856" stroke-width="2" stroke-dasharray="5,2" d="M670.7263,-612C670.7263,-612 628.6482,-612 628.6482,-612 622.6482,-612 616.6482,-606 616.6482,-600 616.6482,-600 616.6482,-588 616.6482,-588 616.6482,-582 622.6482,-576 628.6482,-576 628.6482,-576 670.7263,-576 670.7263,-576 676.7263,-576 682.7263,-582 682.7263,-588 682.7263,-588 682.7263,-600 682.7263,-600 682.7263,-606 676.7263,-612 670.7263,-612"/>
<text text-anchor="middle" x="649.6872" y="-591" font-family="sans" font-size="10.00" fill="#000000">create_bed</text>
</g>
<!-- 13&#45;&gt;22 -->
<g id="edge34" class="edge">
<title>13&#45;&gt;22</title>
<path fill="none" stroke="#c0c0c0" stroke-width="2" d="M687.8178,-647.8314C682.0037,-639.6232 675.0176,-629.7606 668.6226,-620.7323"/>
<polygon fill="#c0c0c0" stroke="#c0c0c0" stroke-width="2" points="671.3663,-618.5505 662.73,-612.4133 665.6541,-622.5966 671.3663,-618.5505"/>
</g>
<!-- 14 -->
<g id="node15" class="node">
<title>14</title>
<path fill="none" stroke="#8fd856" stroke-width="2" stroke-dasharray="5,2" d="M131.6082,-252C131.6082,-252 75.7663,-252 75.7663,-252 69.7663,-252 63.7663,-246 63.7663,-240 63.7663,-240 63.7663,-228 63.7663,-228 63.7663,-222 69.7663,-216 75.7663,-216 75.7663,-216 131.6082,-216 131.6082,-216 137.6082,-216 143.6082,-222 143.6082,-228 143.6082,-228 143.6082,-240 143.6082,-240 143.6082,-246 137.6082,-252 131.6082,-252"/>
<text text-anchor="middle" x="103.6872" y="-231" font-family="sans" font-size="10.00" fill="#000000">remove_reads</text>
</g>
<!-- 20 -->
<g id="node21" class="node">
<title>20</title>
<path fill="none" stroke="#56d0d8" stroke-width="2" stroke-dasharray="5,2" d="M245.3592,-180C245.3592,-180 132.0153,-180 132.0153,-180 126.0153,-180 120.0153,-174 120.0153,-168 120.0153,-168 120.0153,-156 120.0153,-156 120.0153,-150 126.0153,-144 132.0153,-144 132.0153,-144 245.3592,-144 245.3592,-144 251.3592,-144 257.3592,-150 257.3592,-156 257.3592,-156 257.3592,-168 257.3592,-168 257.3592,-174 251.3592,-180 245.3592,-180"/>
<text text-anchor="middle" x="188.6872" y="-159" font-family="sans" font-size="10.00" fill="#000000">call_variants_post_removal</text>
</g>
<!-- 14&#45;&gt;20 -->
<g id="edge31" class="edge">
<title>14&#45;&gt;20</title>
<path fill="none" stroke="#c0c0c0" stroke-width="2" d="M125.1363,-215.8314C135.505,-207.0485 148.1101,-196.3712 159.3518,-186.8489"/>
<polygon fill="#c0c0c0" stroke="#c0c0c0" stroke-width="2" points="161.8768,-189.297 167.245,-180.1628 157.3523,-183.9556 161.8768,-189.297"/>
</g>
<!-- 15 -->
<g id="node16" class="node">
<title>15</title>
<path fill="none" stroke="#68d856" stroke-width="2" stroke-dasharray="5,2" d="M474.7263,-612C474.7263,-612 432.6482,-612 432.6482,-612 426.6482,-612 420.6482,-606 420.6482,-600 420.6482,-600 420.6482,-588 420.6482,-588 420.6482,-582 426.6482,-576 432.6482,-576 432.6482,-576 474.7263,-576 474.7263,-576 480.7263,-576 486.7263,-582 486.7263,-588 486.7263,-588 486.7263,-600 486.7263,-600 486.7263,-606 480.7263,-612 474.7263,-612"/>
<text text-anchor="middle" x="453.6872" y="-591" font-family="sans" font-size="10.00" fill="#000000">create_bed</text>
</g>
<!-- 15&#45;&gt;3 -->
<g id="edge5" class="edge">
<title>15&#45;&gt;3</title>
<path fill="none" stroke="#c0c0c0" stroke-width="2" d="M463.278,-575.5602C468.0372,-565.373 473.2742,-552.3186 475.6872,-540 490.013,-466.8673 480.7361,-378.4373 474.3202,-334.1519"/>
<polygon fill="#c0c0c0" stroke="#c0c0c0" stroke-width="2" points="477.7609,-333.4962 472.8063,-324.1312 470.8394,-334.5419 477.7609,-333.4962"/>
</g>
<!-- 41 -->
<g id="node42" class="node">
<title>41</title>
<path fill="none" stroke="#d8cb56" stroke-width="2" stroke-dasharray="5,2" d="M454.416,-540C454.416,-540 330.9585,-540 330.9585,-540 324.9585,-540 318.9585,-534 318.9585,-528 318.9585,-528 318.9585,-516 318.9585,-516 318.9585,-510 324.9585,-504 330.9585,-504 330.9585,-504 454.416,-504 454.416,-504 460.416,-504 466.416,-510 466.416,-516 466.416,-516 466.416,-528 466.416,-528 466.416,-534 460.416,-540 454.416,-540"/>
<text text-anchor="middle" x="392.6872" y="-519" font-family="sans" font-size="10.00" fill="#000000">realigned_trim_primer_quality</text>
</g>
<!-- 15&#45;&gt;41 -->
<g id="edge63" class="edge">
<title>15&#45;&gt;41</title>
<path fill="none" stroke="#c0c0c0" stroke-width="2" d="M438.2944,-575.8314C431.1969,-567.454 422.6392,-557.3531 414.8632,-548.1749"/>
<polygon fill="#c0c0c0" stroke="#c0c0c0" stroke-width="2" points="417.422,-545.7807 408.2874,-540.4133 412.0811,-550.3056 417.422,-545.7807"/>
</g>
<!-- 17&#45;&gt;39 -->
<g id="edge60" class="edge">
<title>17&#45;&gt;39</title>
<path fill="none" stroke="#c0c0c0" stroke-width="2" d="M865.3318,-431.8314C860.2547,-423.7079 854.1646,-413.9637 848.5696,-405.0118"/>
<polygon fill="#c0c0c0" stroke="#c0c0c0" stroke-width="2" points="851.4636,-403.0383 843.1955,-396.4133 845.5276,-406.7483 851.4636,-403.0383"/>
</g>
<!-- 18 -->
<g id="node19" class="node">
<title>18</title>
<path fill="none" stroke="#d87d56" stroke-width="2" stroke-dasharray="5,2" d="M223.0621,-756C223.0621,-756 162.3124,-756 162.3124,-756 156.3124,-756 150.3124,-750 150.3124,-744 150.3124,-744 150.3124,-732 150.3124,-732 150.3124,-726 156.3124,-720 162.3124,-720 162.3124,-720 223.0621,-720 223.0621,-720 229.0621,-720 235.0621,-726 235.0621,-732 235.0621,-732 235.0621,-744 235.0621,-744 235.0621,-750 229.0621,-756 223.0621,-756"/>
<text text-anchor="middle" x="192.6872" y="-735" font-family="sans" font-size="10.00" fill="#000000">call_consensus</text>
</g>
<!-- 18&#45;&gt;20 -->
<g id="edge30" class="edge">
<title>18&#45;&gt;20</title>
<path fill="none" stroke="#c0c0c0" stroke-width="2" d="M192.3393,-719.6431C191.3661,-666.6664 188.6872,-508.9456 188.6872,-378 188.6872,-378 188.6872,-378 188.6872,-306 188.6872,-265.876 188.6872,-219.4631 188.6872,-190.4177"/>
<polygon fill="#c0c0c0" stroke="#c0c0c0" stroke-width="2" points="192.1873,-190.1853 188.6872,-180.1854 185.1873,-190.1854 192.1873,-190.1853"/>
</g>
<!-- 21 -->
<g id="node22" class="node">
<title>21</title>
<path fill="none" stroke="#56a9d8" stroke-width="2" stroke-dasharray="5,2" d="M276.2695,-468C276.2695,-468 229.105,-468 229.105,-468 223.105,-468 217.105,-462 217.105,-456 217.105,-456 217.105,-444 217.105,-444 217.105,-438 223.105,-432 229.105,-432 229.105,-432 276.2695,-432 276.2695,-432 282.2695,-432 288.2695,-438 288.2695,-444 288.2695,-444 288.2695,-456 288.2695,-456 288.2695,-462 282.2695,-468 276.2695,-468"/>
<text text-anchor="middle" x="252.6872" y="-447" font-family="sans" font-size="10.00" fill="#000000">call_variants</text>
</g>
<!-- 18&#45;&gt;21 -->
<g id="edge32" class="edge">
<title>18&#45;&gt;21</title>
<path fill="none" stroke="#c0c0c0" stroke-width="2" d="M197.7553,-719.5721C200.5441,-709.1658 203.9779,-695.8985 206.6872,-684 223.5017,-610.1576 239.7725,-522.3722 247.6921,-478.2688"/>
<polygon fill="#c0c0c0" stroke="#c0c0c0" stroke-width="2" points="251.1628,-478.7425 249.4763,-468.2827 244.2719,-477.5112 251.1628,-478.7425"/>
</g>
<!-- 36 -->
<g id="node37" class="node">
<title>36</title>
<path fill="none" stroke="#b6d856" stroke-width="2" stroke-dasharray="5,2" d="M142.0864,-684C142.0864,-684 61.288,-684 61.288,-684 55.288,-684 49.288,-678 49.288,-672 49.288,-672 49.288,-660 49.288,-660 49.288,-654 55.288,-648 61.288,-648 61.288,-648 142.0864,-648 142.0864,-648 148.0864,-648 154.0864,-654 154.0864,-660 154.0864,-660 154.0864,-672 154.0864,-672 154.0864,-678 148.0864,-684 142.0864,-684"/>
<text text-anchor="middle" x="101.6872" y="-663" font-family="sans" font-size="10.00" fill="#000000">align_to_consensus</text>
</g>
<!-- 18&#45;&gt;36 -->
<g id="edge56" class="edge">
<title>18&#45;&gt;36</title>
<path fill="none" stroke="#c0c0c0" stroke-width="2" d="M169.7241,-719.8314C158.5157,-710.9632 144.8663,-700.1637 132.7433,-690.5718"/>
<polygon fill="#c0c0c0" stroke="#c0c0c0" stroke-width="2" points="134.657,-687.6229 124.643,-684.1628 130.3136,-693.1125 134.657,-687.6229"/>
</g>
<!-- 25 -->
<g id="node26" class="node">
<title>25</title>
<path fill="none" stroke="#d87d56" stroke-width="2" stroke-dasharray="5,2" d="M1005.0621,-756C1005.0621,-756 944.3124,-756 944.3124,-756 938.3124,-756 932.3124,-750 932.3124,-744 932.3124,-744 932.3124,-732 932.3124,-732 932.3124,-726 938.3124,-720 944.3124,-720 944.3124,-720 1005.0621,-720 1005.0621,-720 1011.0621,-720 1017.0621,-726 1017.0621,-732 1017.0621,-732 1017.0621,-744 1017.0621,-744 1017.0621,-750 1011.0621,-756 1005.0621,-756"/>
<text text-anchor="middle" x="974.6872" y="-735" font-family="sans" font-size="10.00" fill="#000000">call_consensus</text>
</g>
<!-- 19&#45;&gt;25 -->
<g id="edge39" class="edge">
<title>19&#45;&gt;25</title>
<path fill="none" stroke="#c0c0c0" stroke-width="2" d="M974.6872,-791.8314C974.6872,-784.131 974.6872,-774.9743 974.6872,-766.4166"/>
<polygon fill="#c0c0c0" stroke="#c0c0c0" stroke-width="2" points="978.1873,-766.4132 974.6872,-756.4133 971.1873,-766.4133 978.1873,-766.4132"/>
</g>
<!-- 20&#45;&gt;1 -->
<g id="edge3" class="edge">
<title>20&#45;&gt;1</title>
<path fill="none" stroke="#c0c0c0" stroke-width="2" d="M257.4276,-144.3868C308.4843,-131.3047 376.8231,-113.7944 421.9987,-102.2191"/>
<polygon fill="#c0c0c0" stroke="#c0c0c0" stroke-width="2" points="423.0154,-105.5718 431.8337,-99.6991 421.2778,-98.7908 423.0154,-105.5718"/>
</g>
<!-- 21&#45;&gt;10 -->
<g id="edge17" class="edge">
<title>21&#45;&gt;10</title>
<path fill="none" stroke="#c0c0c0" stroke-width="2" d="M264.0426,-431.8314C269.1198,-423.7079 275.2099,-413.9637 280.8049,-405.0118"/>
<polygon fill="#c0c0c0" stroke="#c0c0c0" stroke-width="2" points="283.8469,-406.7483 286.1789,-396.4133 277.9109,-403.0383 283.8469,-406.7483"/>
</g>
<!-- 22&#45;&gt;0 -->
<g id="edge2" class="edge">
<title>22&#45;&gt;0</title>
<path fill="none" stroke="#c0c0c0" stroke-width="2" d="M665.0801,-575.8314C672.1776,-567.454 680.7353,-557.3531 688.5113,-548.1749"/>
<polygon fill="#c0c0c0" stroke="#c0c0c0" stroke-width="2" points="691.2934,-550.3056 695.0871,-540.4133 685.9525,-545.7807 691.2934,-550.3056"/>
</g>
<!-- 37 -->
<g id="node38" class="node">
<title>37</title>
<path fill="none" stroke="#d85656" stroke-width="2" stroke-dasharray="5,2" d="M665.1664,-324C665.1664,-324 618.2081,-324 618.2081,-324 612.2081,-324 606.2081,-318 606.2081,-312 606.2081,-312 606.2081,-300 606.2081,-300 606.2081,-294 612.2081,-288 618.2081,-288 618.2081,-288 665.1664,-288 665.1664,-288 671.1664,-288 677.1664,-294 677.1664,-300 677.1664,-300 677.1664,-312 677.1664,-312 677.1664,-318 671.1664,-324 665.1664,-324"/>
<text text-anchor="middle" x="641.6872" y="-303" font-family="sans" font-size="10.00" fill="#000000">get_masked</text>
</g>
<!-- 22&#45;&gt;37 -->
<g id="edge58" class="edge">
<title>22&#45;&gt;37</title>
<path fill="none" stroke="#c0c0c0" stroke-width="2" d="M640.0965,-575.5602C635.3373,-565.373 630.1003,-552.3186 627.6872,-540 613.3406,-466.7606 626.7315,-378.3767 635.4832,-334.1261"/>
<polygon fill="#c0c0c0" stroke="#c0c0c0" stroke-width="2" points="638.9562,-334.6129 637.5353,-324.1138 632.0987,-333.2074 638.9562,-334.6129"/>
</g>
<!-- 24 -->
<g id="node25" class="node">
<title>24</title>
<path fill="none" stroke="#56d0d8" stroke-width="2" d="M1040.3592,-180C1040.3592,-180 927.0153,-180 927.0153,-180 921.0153,-180 915.0153,-174 915.0153,-168 915.0153,-168 915.0153,-156 915.0153,-156 915.0153,-150 921.0153,-144 927.0153,-144 927.0153,-144 1040.3592,-144 1040.3592,-144 1046.3592,-144 1052.3592,-150 1052.3592,-156 1052.3592,-156 1052.3592,-168 1052.3592,-168 1052.3592,-174 1046.3592,-180 1040.3592,-180"/>
<text text-anchor="middle" x="983.6872" y="-159" font-family="sans" font-size="10.00" fill="#000000">call_variants_post_removal</text>
</g>
<!-- 23&#45;&gt;24 -->
<g id="edge37" class="edge">
<title>23&#45;&gt;24</title>
<path fill="none" stroke="#c0c0c0" stroke-width="2" d="M983.6872,-215.8314C983.6872,-208.131 983.6872,-198.9743 983.6872,-190.4166"/>
<polygon fill="#c0c0c0" stroke="#c0c0c0" stroke-width="2" points="987.1873,-190.4132 983.6872,-180.4133 980.1873,-190.4133 987.1873,-190.4132"/>
</g>
<!-- 24&#45;&gt;31 -->
<g id="edge48" class="edge">
<title>24&#45;&gt;31</title>
<path fill="none" stroke="#c0c0c0" stroke-width="2" d="M914.7005,-147.6028C847.0379,-133.4819 745.6569,-112.3241 686.4397,-99.9657"/>
<polygon fill="#c0c0c0" stroke="#c0c0c0" stroke-width="2" points="687.1045,-96.5291 676.6003,-97.9123 685.6744,-103.3815 687.1045,-96.5291"/>
</g>
<!-- 25&#45;&gt;17 -->
<g id="edge27" class="edge">
<title>25&#45;&gt;17</title>
<path fill="none" stroke="#c0c0c0" stroke-width="2" d="M948.1802,-719.8393C936.1468,-710.3953 922.6362,-697.9197 913.6872,-684 869.1507,-614.7258 864.3827,-586.1844 869.6872,-504 870.2267,-495.6422 871.2311,-486.6019 872.3141,-478.3525"/>
<polygon fill="#c0c0c0" stroke="#c0c0c0" stroke-width="2" points="875.782,-478.825 873.6988,-468.437 868.8492,-477.8568 875.782,-478.825"/>
</g>
<!-- 25&#45;&gt;24 -->
<g id="edge38" class="edge">
<title>25&#45;&gt;24</title>
<path fill="none" stroke="#c0c0c0" stroke-width="2" d="M1004.1592,-719.8291C1039.11,-695.7536 1092.6872,-649.7546 1092.6872,-594 1092.6872,-594 1092.6872,-594 1092.6872,-306 1092.6872,-255.9186 1050.2545,-212.274 1018.3393,-186.5303"/>
<polygon fill="#c0c0c0" stroke="#c0c0c0" stroke-width="2" points="1020.1065,-183.4691 1010.0731,-180.0658 1015.7942,-188.9832 1020.1065,-183.4691"/>
</g>
<!-- 40 -->
<g id="node41" class="node">
<title>40</title>
<path fill="none" stroke="#b6d856" stroke-width="2" stroke-dasharray="5,2" d="M1015.0864,-684C1015.0864,-684 934.288,-684 934.288,-684 928.288,-684 922.288,-678 922.288,-672 922.288,-672 922.288,-660 922.288,-660 922.288,-654 928.288,-648 934.288,-648 934.288,-648 1015.0864,-648 1015.0864,-648 1021.0864,-648 1027.0864,-654 1027.0864,-660 1027.0864,-660 1027.0864,-672 1027.0864,-672 1027.0864,-678 1021.0864,-684 1015.0864,-684"/>
<text text-anchor="middle" x="974.6872" y="-663" font-family="sans" font-size="10.00" fill="#000000">align_to_consensus</text>
</g>
<!-- 25&#45;&gt;40 -->
<g id="edge62" class="edge">
<title>25&#45;&gt;40</title>
<path fill="none" stroke="#c0c0c0" stroke-width="2" d="M974.6872,-719.8314C974.6872,-712.131 974.6872,-702.9743 974.6872,-694.4166"/>
<polygon fill="#c0c0c0" stroke="#c0c0c0" stroke-width="2" points="978.1873,-694.4132 974.6872,-684.4133 971.1873,-694.4133 978.1873,-694.4132"/>
</g>
<!-- 26 -->
<g id="node27" class="node">
<title>26</title>
<path fill="none" stroke="#56d8b9" stroke-width="2" stroke-dasharray="5,2" d="M231.2117,-828C231.2117,-828 154.1628,-828 154.1628,-828 148.1628,-828 142.1628,-822 142.1628,-816 142.1628,-816 142.1628,-804 142.1628,-804 142.1628,-798 148.1628,-792 154.1628,-792 154.1628,-792 231.2117,-792 231.2117,-792 237.2117,-792 243.2117,-798 243.2117,-804 243.2117,-804 243.2117,-816 243.2117,-816 243.2117,-822 237.2117,-828 231.2117,-828"/>
<text text-anchor="middle" x="192.6872" y="-807" font-family="sans" font-size="10.00" fill="#000000">trim_primer_quality</text>
</g>
<!-- 26&#45;&gt;18 -->
<g id="edge28" class="edge">
<title>26&#45;&gt;18</title>
<path fill="none" stroke="#c0c0c0" stroke-width="2" d="M192.6872,-791.8314C192.6872,-784.131 192.6872,-774.9743 192.6872,-766.4166"/>
<polygon fill="#c0c0c0" stroke="#c0c0c0" stroke-width="2" points="196.1873,-766.4132 192.6872,-756.4133 189.1873,-766.4133 196.1873,-766.4132"/>
</g>
<!-- 27&#45;&gt;14 -->
<g id="edge21" class="edge">
<title>27&#45;&gt;14</title>
<path fill="none" stroke="#c0c0c0" stroke-width="2" d="M56.5848,-287.8314C63.915,-279.454 72.7532,-269.3531 80.7842,-260.1749"/>
<polygon fill="#c0c0c0" stroke="#c0c0c0" stroke-width="2" points="83.6246,-262.2438 87.5756,-252.4133 78.3565,-257.6343 83.6246,-262.2438"/>
</g>
<!-- 28 -->
<g id="node29" class="node">
<title>28</title>
<path fill="none" stroke="#d85656" stroke-width="2" stroke-dasharray="5,2" d="M1039.1664,-324C1039.1664,-324 992.2081,-324 992.2081,-324 986.2081,-324 980.2081,-318 980.2081,-312 980.2081,-312 980.2081,-300 980.2081,-300 980.2081,-294 986.2081,-288 992.2081,-288 992.2081,-288 1039.1664,-288 1039.1664,-288 1045.1664,-288 1051.1664,-294 1051.1664,-300 1051.1664,-300 1051.1664,-312 1051.1664,-312 1051.1664,-318 1045.1664,-324 1039.1664,-324"/>
<text text-anchor="middle" x="1015.6872" y="-303" font-family="sans" font-size="10.00" fill="#000000">get_masked</text>
</g>
<!-- 28&#45;&gt;23 -->
<g id="edge36" class="edge">
<title>28&#45;&gt;23</title>
<path fill="none" stroke="#c0c0c0" stroke-width="2" d="M1007.6123,-287.8314C1004.0771,-279.8771 999.8513,-270.369 995.9416,-261.5723"/>
<polygon fill="#c0c0c0" stroke="#c0c0c0" stroke-width="2" points="999.1307,-260.1299 991.8709,-252.4133 992.734,-262.9729 999.1307,-260.1299"/>
</g>
<!-- 29 -->
<g id="node30" class="node">
<title>29</title>
<path fill="none" stroke="#d8a456" stroke-width="2" stroke-dasharray="5,2" d="M295.0215,-912C295.0215,-912 90.353,-912 90.353,-912 84.353,-912 78.353,-906 78.353,-900 78.353,-900 78.353,-876 78.353,-876 78.353,-870 84.353,-864 90.353,-864 90.353,-864 295.0215,-864 295.0215,-864 301.0215,-864 307.0215,-870 307.0215,-876 307.0215,-876 307.0215,-900 307.0215,-900 307.0215,-906 301.0215,-912 295.0215,-912"/>
<text text-anchor="middle" x="192.6872" y="-900" font-family="sans" font-size="10.00" fill="#000000">align_reads</text>
<text text-anchor="middle" x="192.6872" y="-890" font-family="sans" font-size="10.00" fill="#000000">out_dir: /Users/karthik/hpc_downloads/test_field</text>
<text text-anchor="middle" x="192.6872" y="-880" font-family="sans" font-size="10.00" fill="#000000">rep: b</text>
<text text-anchor="middle" x="192.6872" y="-870" font-family="sans" font-size="10.00" fill="#000000">sample: ZI&#45;merge&#45;27</text>
</g>
<!-- 29&#45;&gt;26 -->
<g id="edge40" class="edge">
<title>29&#45;&gt;26</title>
<path fill="none" stroke="#c0c0c0" stroke-width="2" d="M192.6872,-863.7479C192.6872,-855.6981 192.6872,-846.6653 192.6872,-838.3356"/>
<polygon fill="#c0c0c0" stroke="#c0c0c0" stroke-width="2" points="196.1873,-838.2875 192.6872,-828.2875 189.1873,-838.2876 196.1873,-838.2875"/>
</g>
<!-- 30 -->
<g id="node31" class="node">
<title>30</title>
<path fill="none" stroke="#d8cb56" stroke-width="2" stroke-dasharray="5,2" d="M152.416,-540C152.416,-540 28.9585,-540 28.9585,-540 22.9585,-540 16.9585,-534 16.9585,-528 16.9585,-528 16.9585,-516 16.9585,-516 16.9585,-510 22.9585,-504 28.9585,-504 28.9585,-504 152.416,-504 152.416,-504 158.416,-504 164.416,-510 164.416,-516 164.416,-516 164.416,-528 164.416,-528 164.416,-534 158.416,-540 152.416,-540"/>
<text text-anchor="middle" x="90.6872" y="-519" font-family="sans" font-size="10.00" fill="#000000">realigned_trim_primer_quality</text>
</g>
<!-- 30&#45;&gt;14 -->
<g id="edge22" class="edge">
<title>30&#45;&gt;14</title>
<path fill="none" stroke="#c0c0c0" stroke-width="2" d="M91.5004,-503.9843C93.6983,-455.2939 99.7694,-320.7961 102.4208,-262.0573"/>
<polygon fill="#c0c0c0" stroke="#c0c0c0" stroke-width="2" points="105.9198,-262.1566 102.8743,-252.0089 98.9269,-261.8408 105.9198,-262.1566"/>
</g>
<!-- 30&#45;&gt;21 -->
<g id="edge33" class="edge">
<title>30&#45;&gt;21</title>
<path fill="none" stroke="#c0c0c0" stroke-width="2" d="M131.5667,-503.8314C154.819,-493.497 183.9726,-480.5399 207.8504,-469.9275"/>
<polygon fill="#c0c0c0" stroke="#c0c0c0" stroke-width="2" points="209.3376,-473.0967 217.0542,-465.8369 206.4946,-466.7 209.3376,-473.0967"/>
</g>
<!-- 31&#45;&gt;16 -->
<g id="edge25" class="edge">
<title>31&#45;&gt;16</title>
<path fill="none" stroke="#c0c0c0" stroke-width="2" d="M615.4718,-71.8314C604.1402,-62.9632 590.3408,-52.1637 578.0846,-42.5718"/>
<polygon fill="#c0c0c0" stroke="#c0c0c0" stroke-width="2" points="579.9275,-39.5697 569.8953,-36.1628 575.6133,-45.0822 579.9275,-39.5697"/>
</g>
<!-- 32&#45;&gt;1 -->
<g id="edge4" class="edge">
<title>32&#45;&gt;1</title>
<path fill="none" stroke="#c0c0c0" stroke-width="2" d="M469.6872,-143.8314C469.6872,-136.131 469.6872,-126.9743 469.6872,-118.4166"/>
<polygon fill="#c0c0c0" stroke="#c0c0c0" stroke-width="2" points="473.1873,-118.4132 469.6872,-108.4133 466.1873,-118.4133 473.1873,-118.4132"/>
</g>
<!-- 33&#45;&gt;10 -->
<g id="edge16" class="edge">
<title>33&#45;&gt;10</title>
<path fill="none" stroke="#c0c0c0" stroke-width="2" d="M331.3318,-431.8314C326.2547,-423.7079 320.1646,-413.9637 314.5696,-405.0118"/>
<polygon fill="#c0c0c0" stroke="#c0c0c0" stroke-width="2" points="317.4636,-403.0383 309.1955,-396.4133 311.5276,-406.7483 317.4636,-403.0383"/>
</g>
<!-- 34 -->
<g id="node35" class="node">
<title>34</title>
<path fill="none" stroke="#68d856" stroke-width="2" stroke-dasharray="5,2" d="M1034.7263,-612C1034.7263,-612 992.6482,-612 992.6482,-612 986.6482,-612 980.6482,-606 980.6482,-600 980.6482,-600 980.6482,-588 980.6482,-588 980.6482,-582 986.6482,-576 992.6482,-576 992.6482,-576 1034.7263,-576 1034.7263,-576 1040.7263,-576 1046.7263,-582 1046.7263,-588 1046.7263,-588 1046.7263,-600 1046.7263,-600 1046.7263,-606 1040.7263,-612 1034.7263,-612"/>
<text text-anchor="middle" x="1013.6872" y="-591" font-family="sans" font-size="10.00" fill="#000000">create_bed</text>
</g>
<!-- 34&#45;&gt;11 -->
<g id="edge19" class="edge">
<title>34&#45;&gt;11</title>
<path fill="none" stroke="#c0c0c0" stroke-width="2" d="M998.2944,-575.8314C991.1969,-567.454 982.6392,-557.3531 974.8632,-548.1749"/>
<polygon fill="#c0c0c0" stroke="#c0c0c0" stroke-width="2" points="977.422,-545.7807 968.2874,-540.4133 972.0811,-550.3056 977.422,-545.7807"/>
</g>
<!-- 34&#45;&gt;28 -->
<g id="edge44" class="edge">
<title>34&#45;&gt;28</title>
<path fill="none" stroke="#c0c0c0" stroke-width="2" d="M1023.278,-575.5602C1028.0372,-565.373 1033.2742,-552.3186 1035.6872,-540 1050.0909,-466.4697 1033.5095,-377.9261 1023.0056,-333.8136"/>
<polygon fill="#c0c0c0" stroke="#c0c0c0" stroke-width="2" points="1026.4018,-332.9668 1020.6157,-324.0915 1019.6042,-334.638 1026.4018,-332.9668"/>
</g>
<!-- 35&#45;&gt;6 -->
<g id="edge10" class="edge">
<title>35&#45;&gt;6</title>
<path fill="none" stroke="#c0c0c0" stroke-width="2" d="M640.9302,-215.8314C640.6094,-208.131 640.2278,-198.9743 639.8713,-190.4166"/>
<polygon fill="#c0c0c0" stroke="#c0c0c0" stroke-width="2" points="643.3678,-190.2589 639.4545,-180.4133 636.3739,-190.5503 643.3678,-190.2589"/>
</g>
<!-- 36&#45;&gt;30 -->
<g id="edge46" class="edge">
<title>36&#45;&gt;30</title>
<path fill="none" stroke="#c0c0c0" stroke-width="2" d="M100.2941,-647.7623C98.4179,-623.201 95.0603,-579.2474 92.8532,-550.3541"/>
<polygon fill="#c0c0c0" stroke="#c0c0c0" stroke-width="2" points="96.3207,-549.794 92.0691,-540.0896 89.341,-550.3272 96.3207,-549.794"/>
</g>
<!-- 44 -->
<g id="node45" class="node">
<title>44</title>
<path fill="none" stroke="#68d856" stroke-width="2" stroke-dasharray="5,2" d="M61.7263,-612C61.7263,-612 19.6482,-612 19.6482,-612 13.6482,-612 7.6482,-606 7.6482,-600 7.6482,-600 7.6482,-588 7.6482,-588 7.6482,-582 13.6482,-576 19.6482,-576 19.6482,-576 61.7263,-576 61.7263,-576 67.7263,-576 73.7263,-582 73.7263,-588 73.7263,-588 73.7263,-600 73.7263,-600 73.7263,-606 67.7263,-612 61.7263,-612"/>
<text text-anchor="middle" x="40.6872" y="-591" font-family="sans" font-size="10.00" fill="#000000">create_bed</text>
</g>
<!-- 36&#45;&gt;44 -->
<g id="edge66" class="edge">
<title>36&#45;&gt;44</title>
<path fill="none" stroke="#c0c0c0" stroke-width="2" d="M86.2944,-647.8314C79.1969,-639.454 70.6392,-629.3531 62.8632,-620.1749"/>
<polygon fill="#c0c0c0" stroke="#c0c0c0" stroke-width="2" points="65.422,-617.7807 56.2874,-612.4133 60.0811,-622.3056 65.422,-617.7807"/>
</g>
<!-- 37&#45;&gt;35 -->
<g id="edge55" class="edge">
<title>37&#45;&gt;35</title>
<path fill="none" stroke="#c0c0c0" stroke-width="2" d="M641.6872,-287.8314C641.6872,-280.131 641.6872,-270.9743 641.6872,-262.4166"/>
<polygon fill="#c0c0c0" stroke="#c0c0c0" stroke-width="2" points="645.1873,-262.4132 641.6872,-252.4133 638.1873,-262.4133 645.1873,-262.4132"/>
</g>
<!-- 38 -->
<g id="node39" class="node">
<title>38</title>
<path fill="none" stroke="#56d8b9" stroke-width="2" stroke-dasharray="5,2" d="M482.2117,-828C482.2117,-828 405.1628,-828 405.1628,-828 399.1628,-828 393.1628,-822 393.1628,-816 393.1628,-816 393.1628,-804 393.1628,-804 393.1628,-798 399.1628,-792 405.1628,-792 405.1628,-792 482.2117,-792 482.2117,-792 488.2117,-792 494.2117,-798 494.2117,-804 494.2117,-804 494.2117,-816 494.2117,-816 494.2117,-822 488.2117,-828 482.2117,-828"/>
<text text-anchor="middle" x="443.6872" y="-807" font-family="sans" font-size="10.00" fill="#000000">trim_primer_quality</text>
</g>
<!-- 38&#45;&gt;8 -->
<g id="edge14" class="edge">
<title>38&#45;&gt;8</title>
<path fill="none" stroke="#c0c0c0" stroke-width="2" d="M443.6872,-791.8314C443.6872,-784.131 443.6872,-774.9743 443.6872,-766.4166"/>
<polygon fill="#c0c0c0" stroke="#c0c0c0" stroke-width="2" points="447.1873,-766.4132 443.6872,-756.4133 440.1873,-766.4133 447.1873,-766.4132"/>
</g>
<!-- 39&#45;&gt;28 -->
<g id="edge43" class="edge">
<title>39&#45;&gt;28</title>
<path fill="none" stroke="#c0c0c0" stroke-width="2" d="M878.1182,-359.8314C906.4978,-348.7263 942.617,-334.5927 970.7238,-323.5944"/>
<polygon fill="#c0c0c0" stroke="#c0c0c0" stroke-width="2" points="972.2685,-326.7484 980.3055,-319.845 969.7176,-320.2297 972.2685,-326.7484"/>
</g>
<!-- 39&#45;&gt;37 -->
<g id="edge57" class="edge">
<title>39&#45;&gt;37</title>
<path fill="none" stroke="#c0c0c0" stroke-width="2" d="M783.7422,-359.8314C753.9142,-348.5281 715.8063,-334.0872 686.5709,-323.0085"/>
<polygon fill="#c0c0c0" stroke="#c0c0c0" stroke-width="2" points="687.6125,-319.6604 677.0212,-319.3897 685.132,-326.2062 687.6125,-319.6604"/>
</g>
<!-- 40&#45;&gt;11 -->
<g id="edge18" class="edge">
<title>40&#45;&gt;11</title>
<path fill="none" stroke="#c0c0c0" stroke-width="2" d="M971.9009,-647.7623C968.1485,-623.201 961.4334,-579.2474 957.0191,-550.3541"/>
<polygon fill="#c0c0c0" stroke="#c0c0c0" stroke-width="2" points="960.4211,-549.4463 955.4509,-540.0896 953.5014,-550.5035 960.4211,-549.4463"/>
</g>
<!-- 40&#45;&gt;34 -->
<g id="edge53" class="edge">
<title>40&#45;&gt;34</title>
<path fill="none" stroke="#c0c0c0" stroke-width="2" d="M984.5286,-647.8314C988.883,-639.7925 994.097,-630.1666 998.9042,-621.2918"/>
<polygon fill="#c0c0c0" stroke="#c0c0c0" stroke-width="2" points="1002.028,-622.8732 1003.7134,-612.4133 995.873,-619.5392 1002.028,-622.8732"/>
</g>
<!-- 41&#45;&gt;4 -->
<g id="edge8" class="edge">
<title>41&#45;&gt;4</title>
<path fill="none" stroke="#c0c0c0" stroke-width="2" d="M392.3326,-503.9318C392.1517,-463.6228 395.1156,-363.925 425.6872,-288 429.6395,-278.1844 435.7488,-268.4869 441.9683,-260.0771"/>
<polygon fill="#c0c0c0" stroke="#c0c0c0" stroke-width="2" points="444.7665,-262.1802 448.1487,-252.1397 439.2434,-257.8796 444.7665,-262.1802"/>
</g>
<!-- 41&#45;&gt;33 -->
<g id="edge52" class="edge">
<title>41&#45;&gt;33</title>
<path fill="none" stroke="#c0c0c0" stroke-width="2" d="M380.0701,-503.8314C374.37,-495.6232 367.521,-485.7606 361.2513,-476.7323"/>
<polygon fill="#c0c0c0" stroke="#c0c0c0" stroke-width="2" points="364.053,-474.6306 355.4742,-468.4133 358.3034,-478.6234 364.053,-474.6306"/>
</g>
<!-- 42 -->
<g id="node43" class="node">
<title>42</title>
<path fill="none" stroke="#d8a456" stroke-width="2" stroke-dasharray="5,2" d="M546.0215,-912C546.0215,-912 341.353,-912 341.353,-912 335.353,-912 329.353,-906 329.353,-900 329.353,-900 329.353,-876 329.353,-876 329.353,-870 335.353,-864 341.353,-864 341.353,-864 546.0215,-864 546.0215,-864 552.0215,-864 558.0215,-870 558.0215,-876 558.0215,-876 558.0215,-900 558.0215,-900 558.0215,-906 552.0215,-912 546.0215,-912"/>
<text text-anchor="middle" x="443.6872" y="-900" font-family="sans" font-size="10.00" fill="#000000">align_reads</text>
<text text-anchor="middle" x="443.6872" y="-890" font-family="sans" font-size="10.00" fill="#000000">out_dir: /Users/karthik/hpc_downloads/test_field</text>
<text text-anchor="middle" x="443.6872" y="-880" font-family="sans" font-size="10.00" fill="#000000">rep: a</text>
<text text-anchor="middle" x="443.6872" y="-870" font-family="sans" font-size="10.00" fill="#000000">sample: ZI&#45;merge&#45;27</text>
</g>
<!-- 42&#45;&gt;38 -->
<g id="edge59" class="edge">
<title>42&#45;&gt;38</title>
<path fill="none" stroke="#c0c0c0" stroke-width="2" d="M443.6872,-863.7479C443.6872,-855.6981 443.6872,-846.6653 443.6872,-838.3356"/>
<polygon fill="#c0c0c0" stroke="#c0c0c0" stroke-width="2" points="447.1873,-838.2875 443.6872,-828.2875 440.1873,-838.2876 447.1873,-838.2875"/>
</g>
<!-- 43&#45;&gt;15 -->
<g id="edge23" class="edge">
<title>43&#45;&gt;15</title>
<path fill="none" stroke="#c0c0c0" stroke-width="2" d="M446.2107,-647.8314C447.2802,-640.131 448.5519,-630.9743 449.7405,-622.4166"/>
<polygon fill="#c0c0c0" stroke="#c0c0c0" stroke-width="2" points="453.2208,-622.7997 451.1298,-612.4133 446.2874,-621.8367 453.2208,-622.7997"/>
</g>
<!-- 43&#45;&gt;41 -->
<g id="edge64" class="edge">
<title>43&#45;&gt;41</title>
<path fill="none" stroke="#c0c0c0" stroke-width="2" d="M430.8501,-647.7775C424.2538,-637.6539 416.5927,-624.591 411.6872,-612 403.885,-591.9736 399.0351,-568.1291 396.1897,-550.0161"/>
<polygon fill="#c0c0c0" stroke="#c0c0c0" stroke-width="2" points="399.6479,-549.4748 394.7389,-540.0859 392.7214,-550.4869 399.6479,-549.4748"/>
</g>
<!-- 44&#45;&gt;27 -->
<g id="edge41" class="edge">
<title>44&#45;&gt;27</title>
<path fill="none" stroke="#c0c0c0" stroke-width="2" d="M26.0121,-575.7088C18.9826,-565.772 11.3177,-552.9031 7.6872,-540 -12.7763,-467.2707 13.278,-378.0891 29.5136,-333.7609"/>
<polygon fill="#c0c0c0" stroke="#c0c0c0" stroke-width="2" points="32.8475,-334.8393 33.1023,-324.2475 26.298,-332.3686 32.8475,-334.8393"/>
</g>
<!-- 44&#45;&gt;30 -->
<g id="edge45" class="edge">
<title>44&#45;&gt;30</title>
<path fill="none" stroke="#c0c0c0" stroke-width="2" d="M53.3044,-575.8314C59.0044,-567.6232 65.8535,-557.7606 72.1231,-548.7323"/>
<polygon fill="#c0c0c0" stroke="#c0c0c0" stroke-width="2" points="75.0711,-550.6234 77.9003,-540.4133 69.3214,-546.6306 75.0711,-550.6234"/>
</g>
</g>
</svg>
