<?xml version="1.0" encoding="UTF-8" standalone="no"?>
<!DOCTYPE svg PUBLIC "-//W3C//DTD SVG 1.1//EN"
 "http://www.w3.org/Graphics/SVG/1.1/DTD/svg11.dtd">
<!-- Generated by graphviz version 2.40.1 (20161225.0304)
 -->
<!-- Title: snakemake_dag Pages: 1 -->
<svg width="1099pt" height="920pt"
 viewBox="0.00 0.00 1099.20 920.00" xmlns="http://www.w3.org/2000/svg" xmlns:xlink="http://www.w3.org/1999/xlink">
<g id="graph0" class="graph" transform="scale(1 1) rotate(0) translate(4 916)">
<title>snakemake_dag</title>
<polygon fill="#ffffff" stroke="transparent" points="-4,4 -4,-916 1095.2031,-916 1095.2031,4 -4,4"/>
<!-- 0 -->
<g id="node1" class="node">
<title>0</title>
<path fill="none" stroke="#56a9d8" stroke-width="2" d="M1037.6822,-324C1037.6822,-324 990.7239,-324 990.7239,-324 984.7239,-324 978.7239,-318 978.7239,-312 978.7239,-312 978.7239,-300 978.7239,-300 978.7239,-294 984.7239,-288 990.7239,-288 990.7239,-288 1037.6822,-288 1037.6822,-288 1043.6822,-288 1049.6822,-294 1049.6822,-300 1049.6822,-300 1049.6822,-312 1049.6822,-312 1049.6822,-318 1043.6822,-324 1037.6822,-324"/>
<text text-anchor="middle" x="1014.2031" y="-303" font-family="sans" font-size="10.00" fill="#000000">get_masked</text>
</g>
<!-- 29 -->
<g id="node30" class="node">
<title>29</title>
<path fill="none" stroke="#b6d856" stroke-width="2" d="M1010.124,-252C1010.124,-252 954.2821,-252 954.2821,-252 948.2821,-252 942.2821,-246 942.2821,-240 942.2821,-240 942.2821,-228 942.2821,-228 942.2821,-222 948.2821,-216 954.2821,-216 954.2821,-216 1010.124,-216 1010.124,-216 1016.124,-216 1022.124,-222 1022.124,-228 1022.124,-228 1022.124,-240 1022.124,-240 1022.124,-246 1016.124,-252 1010.124,-252"/>
<text text-anchor="middle" x="982.2031" y="-231" font-family="sans" font-size="10.00" fill="#000000">remove_reads</text>
</g>
<!-- 0&#45;&gt;29 -->
<g id="edge43" class="edge">
<title>0&#45;&gt;29</title>
<path fill="none" stroke="#c0c0c0" stroke-width="2" d="M1006.1281,-287.8314C1002.5929,-279.8771 998.3671,-270.369 994.4574,-261.5723"/>
<polygon fill="#c0c0c0" stroke="#c0c0c0" stroke-width="2" points="997.6465,-260.1299 990.3867,-252.4133 991.2498,-262.9729 997.6465,-260.1299"/>
</g>
<!-- 1 -->
<g id="node2" class="node">
<title>1</title>
<path fill="none" stroke="#b6d856" stroke-width="2" d="M668.124,-252C668.124,-252 612.2821,-252 612.2821,-252 606.2821,-252 600.2821,-246 600.2821,-240 600.2821,-240 600.2821,-228 600.2821,-228 600.2821,-222 606.2821,-216 612.2821,-216 612.2821,-216 668.124,-216 668.124,-216 674.124,-216 680.124,-222 680.124,-228 680.124,-228 680.124,-240 680.124,-240 680.124,-246 674.124,-252 668.124,-252"/>
<text text-anchor="middle" x="640.2031" y="-231" font-family="sans" font-size="10.00" fill="#000000">remove_reads</text>
</g>
<!-- 11 -->
<g id="node12" class="node">
<title>11</title>
<path fill="none" stroke="#d87d56" stroke-width="2" d="M691.8751,-180C691.8751,-180 578.5311,-180 578.5311,-180 572.5311,-180 566.5311,-174 566.5311,-168 566.5311,-168 566.5311,-156 566.5311,-156 566.5311,-150 572.5311,-144 578.5311,-144 578.5311,-144 691.8751,-144 691.8751,-144 697.8751,-144 703.8751,-150 703.8751,-156 703.8751,-156 703.8751,-168 703.8751,-168 703.8751,-174 697.8751,-180 691.8751,-180"/>
<text text-anchor="middle" x="635.2031" y="-159" font-family="sans" font-size="10.00" fill="#000000">call_variants_post_removal</text>
</g>
<!-- 1&#45;&gt;11 -->
<g id="edge17" class="edge">
<title>1&#45;&gt;11</title>
<path fill="none" stroke="#c0c0c0" stroke-width="2" d="M638.9414,-215.8314C638.4066,-208.131 637.7707,-198.9743 637.1765,-190.4166"/>
<polygon fill="#c0c0c0" stroke="#c0c0c0" stroke-width="2" points="640.6662,-190.1467 636.4818,-180.4133 633.6831,-190.6317 640.6662,-190.1467"/>
</g>
<!-- 2 -->
<g id="node3" class="node">
<title>2</title>
<path fill="none" stroke="#b6d856" stroke-width="2" d="M491.124,-252C491.124,-252 435.2821,-252 435.2821,-252 429.2821,-252 423.2821,-246 423.2821,-240 423.2821,-240 423.2821,-228 423.2821,-228 423.2821,-222 429.2821,-216 435.2821,-216 435.2821,-216 491.124,-216 491.124,-216 497.124,-216 503.124,-222 503.124,-228 503.124,-228 503.124,-240 503.124,-240 503.124,-246 497.124,-252 491.124,-252"/>
<text text-anchor="middle" x="463.2031" y="-231" font-family="sans" font-size="10.00" fill="#000000">remove_reads</text>
</g>
<!-- 12 -->
<g id="node13" class="node">
<title>12</title>
<path fill="none" stroke="#d87d56" stroke-width="2" d="M522.8751,-180C522.8751,-180 409.5311,-180 409.5311,-180 403.5311,-180 397.5311,-174 397.5311,-168 397.5311,-168 397.5311,-156 397.5311,-156 397.5311,-150 403.5311,-144 409.5311,-144 409.5311,-144 522.8751,-144 522.8751,-144 528.8751,-144 534.8751,-150 534.8751,-156 534.8751,-156 534.8751,-168 534.8751,-168 534.8751,-174 528.8751,-180 522.8751,-180"/>
<text text-anchor="middle" x="466.2031" y="-159" font-family="sans" font-size="10.00" fill="#000000">call_variants_post_removal</text>
</g>
<!-- 2&#45;&gt;12 -->
<g id="edge20" class="edge">
<title>2&#45;&gt;12</title>
<path fill="none" stroke="#c0c0c0" stroke-width="2" d="M463.9601,-215.8314C464.281,-208.131 464.6625,-198.9743 465.019,-190.4166"/>
<polygon fill="#c0c0c0" stroke="#c0c0c0" stroke-width="2" points="468.5164,-190.5503 465.4359,-180.4133 461.5225,-190.2589 468.5164,-190.5503"/>
</g>
<!-- 3 -->
<g id="node4" class="node">
<title>3</title>
<path fill="none" stroke="#56a9d8" stroke-width="2" d="M67.6822,-324C67.6822,-324 20.7239,-324 20.7239,-324 14.7239,-324 8.7239,-318 8.7239,-312 8.7239,-312 8.7239,-300 8.7239,-300 8.7239,-294 14.7239,-288 20.7239,-288 20.7239,-288 67.6822,-288 67.6822,-288 73.6822,-288 79.6822,-294 79.6822,-300 79.6822,-300 79.6822,-312 79.6822,-312 79.6822,-318 73.6822,-324 67.6822,-324"/>
<text text-anchor="middle" x="44.2031" y="-303" font-family="sans" font-size="10.00" fill="#000000">get_masked</text>
</g>
<!-- 31 -->
<g id="node32" class="node">
<title>31</title>
<path fill="none" stroke="#b6d856" stroke-width="2" d="M135.124,-252C135.124,-252 79.2821,-252 79.2821,-252 73.2821,-252 67.2821,-246 67.2821,-240 67.2821,-240 67.2821,-228 67.2821,-228 67.2821,-222 73.2821,-216 79.2821,-216 79.2821,-216 135.124,-216 135.124,-216 141.124,-216 147.124,-222 147.124,-228 147.124,-228 147.124,-240 147.124,-240 147.124,-246 141.124,-252 135.124,-252"/>
<text text-anchor="middle" x="107.2031" y="-231" font-family="sans" font-size="10.00" fill="#000000">remove_reads</text>
</g>
<!-- 3&#45;&gt;31 -->
<g id="edge47" class="edge">
<title>3&#45;&gt;31</title>
<path fill="none" stroke="#c0c0c0" stroke-width="2" d="M60.1006,-287.8314C67.4308,-279.454 76.2691,-269.3531 84.3,-260.1749"/>
<polygon fill="#c0c0c0" stroke="#c0c0c0" stroke-width="2" points="87.1404,-262.2438 91.0915,-252.4133 81.8724,-257.6343 87.1404,-262.2438"/>
</g>
<!-- 4 -->
<g id="node5" class="node">
<title>4</title>
<path fill="none" stroke="#56d8b9" stroke-width="2" d="M993.7275,-828C993.7275,-828 916.6787,-828 916.6787,-828 910.6787,-828 904.6787,-822 904.6787,-816 904.6787,-816 904.6787,-804 904.6787,-804 904.6787,-798 910.6787,-792 916.6787,-792 916.6787,-792 993.7275,-792 993.7275,-792 999.7275,-792 1005.7275,-798 1005.7275,-804 1005.7275,-804 1005.7275,-816 1005.7275,-816 1005.7275,-822 999.7275,-828 993.7275,-828"/>
<text text-anchor="middle" x="955.2031" y="-807" font-family="sans" font-size="10.00" fill="#000000">trim_primer_quality</text>
</g>
<!-- 27 -->
<g id="node28" class="node">
<title>27</title>
<path fill="none" stroke="#56d892" stroke-width="2" d="M985.5779,-756C985.5779,-756 924.8282,-756 924.8282,-756 918.8282,-756 912.8282,-750 912.8282,-744 912.8282,-744 912.8282,-732 912.8282,-732 912.8282,-726 918.8282,-720 924.8282,-720 924.8282,-720 985.5779,-720 985.5779,-720 991.5779,-720 997.5779,-726 997.5779,-732 997.5779,-732 997.5779,-744 997.5779,-744 997.5779,-750 991.5779,-756 985.5779,-756"/>
<text text-anchor="middle" x="955.2031" y="-735" font-family="sans" font-size="10.00" fill="#000000">call_consensus</text>
</g>
<!-- 4&#45;&gt;27 -->
<g id="edge40" class="edge">
<title>4&#45;&gt;27</title>
<path fill="none" stroke="#c0c0c0" stroke-width="2" d="M955.2031,-791.8314C955.2031,-784.131 955.2031,-774.9743 955.2031,-766.4166"/>
<polygon fill="#c0c0c0" stroke="#c0c0c0" stroke-width="2" points="958.7032,-766.4132 955.2031,-756.4133 951.7032,-766.4133 958.7032,-766.4132"/>
</g>
<!-- 5 -->
<g id="node6" class="node">
<title>5</title>
<path fill="none" stroke="#56d86b" stroke-width="2" d="M995.6023,-684C995.6023,-684 914.8039,-684 914.8039,-684 908.8039,-684 902.8039,-678 902.8039,-672 902.8039,-672 902.8039,-660 902.8039,-660 902.8039,-654 908.8039,-648 914.8039,-648 914.8039,-648 995.6023,-648 995.6023,-648 1001.6023,-648 1007.6023,-654 1007.6023,-660 1007.6023,-660 1007.6023,-672 1007.6023,-672 1007.6023,-678 1001.6023,-684 995.6023,-684"/>
<text text-anchor="middle" x="955.2031" y="-663" font-family="sans" font-size="10.00" fill="#000000">align_to_consensus</text>
</g>
<!-- 16 -->
<g id="node17" class="node">
<title>16</title>
<path fill="none" stroke="#d8a456" stroke-width="2" d="M1033.2421,-612C1033.2421,-612 991.164,-612 991.164,-612 985.164,-612 979.164,-606 979.164,-600 979.164,-600 979.164,-588 979.164,-588 979.164,-582 985.164,-576 991.164,-576 991.164,-576 1033.2421,-576 1033.2421,-576 1039.2421,-576 1045.2421,-582 1045.2421,-588 1045.2421,-588 1045.2421,-600 1045.2421,-600 1045.2421,-606 1039.2421,-612 1033.2421,-612"/>
<text text-anchor="middle" x="1012.2031" y="-591" font-family="sans" font-size="10.00" fill="#000000">create_bed</text>
</g>
<!-- 5&#45;&gt;16 -->
<g id="edge25" class="edge">
<title>5&#45;&gt;16</title>
<path fill="none" stroke="#c0c0c0" stroke-width="2" d="M969.5866,-647.8314C976.1517,-639.5386 984.0538,-629.557 991.2608,-620.4533"/>
<polygon fill="#c0c0c0" stroke="#c0c0c0" stroke-width="2" points="994.163,-622.4262 997.6259,-612.4133 988.6747,-618.0813 994.163,-622.4262"/>
</g>
<!-- 40 -->
<g id="node41" class="node">
<title>40</title>
<path fill="none" stroke="#8fd856" stroke-width="2" d="M1012.9318,-540C1012.9318,-540 889.4743,-540 889.4743,-540 883.4743,-540 877.4743,-534 877.4743,-528 877.4743,-528 877.4743,-516 877.4743,-516 877.4743,-510 883.4743,-504 889.4743,-504 889.4743,-504 1012.9318,-504 1012.9318,-504 1018.9318,-504 1024.9318,-510 1024.9318,-516 1024.9318,-516 1024.9318,-528 1024.9318,-528 1024.9318,-534 1018.9318,-540 1012.9318,-540"/>
<text text-anchor="middle" x="951.2031" y="-519" font-family="sans" font-size="10.00" fill="#000000">realigned_trim_primer_quality</text>
</g>
<!-- 5&#45;&gt;40 -->
<g id="edge57" class="edge">
<title>5&#45;&gt;40</title>
<path fill="none" stroke="#c0c0c0" stroke-width="2" d="M954.6965,-647.7623C954.0142,-623.201 952.7933,-579.2474 951.9907,-550.3541"/>
<polygon fill="#c0c0c0" stroke="#c0c0c0" stroke-width="2" points="955.482,-549.9885 951.7056,-540.0896 948.4847,-550.183 955.482,-549.9885"/>
</g>
<!-- 6 -->
<g id="node7" class="node">
<title>6</title>
<path fill="none" stroke="#56d86b" stroke-width="2" d="M141.6023,-684C141.6023,-684 60.8039,-684 60.8039,-684 54.8039,-684 48.8039,-678 48.8039,-672 48.8039,-672 48.8039,-660 48.8039,-660 48.8039,-654 54.8039,-648 60.8039,-648 60.8039,-648 141.6023,-648 141.6023,-648 147.6023,-648 153.6023,-654 153.6023,-660 153.6023,-660 153.6023,-672 153.6023,-672 153.6023,-678 147.6023,-684 141.6023,-684"/>
<text text-anchor="middle" x="101.2031" y="-663" font-family="sans" font-size="10.00" fill="#000000">align_to_consensus</text>
</g>
<!-- 17 -->
<g id="node18" class="node">
<title>17</title>
<path fill="none" stroke="#d8a456" stroke-width="2" d="M61.2421,-612C61.2421,-612 19.164,-612 19.164,-612 13.164,-612 7.164,-606 7.164,-600 7.164,-600 7.164,-588 7.164,-588 7.164,-582 13.164,-576 19.164,-576 19.164,-576 61.2421,-576 61.2421,-576 67.2421,-576 73.2421,-582 73.2421,-588 73.2421,-588 73.2421,-600 73.2421,-600 73.2421,-606 67.2421,-612 61.2421,-612"/>
<text text-anchor="middle" x="40.2031" y="-591" font-family="sans" font-size="10.00" fill="#000000">create_bed</text>
</g>
<!-- 6&#45;&gt;17 -->
<g id="edge26" class="edge">
<title>6&#45;&gt;17</title>
<path fill="none" stroke="#c0c0c0" stroke-width="2" d="M85.8102,-647.8314C78.7127,-639.454 70.155,-629.3531 62.3791,-620.1749"/>
<polygon fill="#c0c0c0" stroke="#c0c0c0" stroke-width="2" points="64.9379,-617.7807 55.8032,-612.4133 59.597,-622.3056 64.9379,-617.7807"/>
</g>
<!-- 43 -->
<g id="node44" class="node">
<title>43</title>
<path fill="none" stroke="#8fd856" stroke-width="2" d="M151.9318,-540C151.9318,-540 28.4743,-540 28.4743,-540 22.4743,-540 16.4743,-534 16.4743,-528 16.4743,-528 16.4743,-516 16.4743,-516 16.4743,-510 22.4743,-504 28.4743,-504 28.4743,-504 151.9318,-504 151.9318,-504 157.9318,-504 163.9318,-510 163.9318,-516 163.9318,-516 163.9318,-528 163.9318,-528 163.9318,-534 157.9318,-540 151.9318,-540"/>
<text text-anchor="middle" x="90.2031" y="-519" font-family="sans" font-size="10.00" fill="#000000">realigned_trim_primer_quality</text>
</g>
<!-- 6&#45;&gt;43 -->
<g id="edge64" class="edge">
<title>6&#45;&gt;43</title>
<path fill="none" stroke="#c0c0c0" stroke-width="2" d="M99.8099,-647.7623C97.9337,-623.201 94.5761,-579.2474 92.369,-550.3541"/>
<polygon fill="#c0c0c0" stroke="#c0c0c0" stroke-width="2" points="95.8365,-549.794 91.5849,-540.0896 88.8568,-550.3272 95.8365,-549.794"/>
</g>
<!-- 7 -->
<g id="node8" class="node">
<title>7</title>
<path fill="none" stroke="#56d8b9" stroke-width="2" d="M230.7275,-828C230.7275,-828 153.6787,-828 153.6787,-828 147.6787,-828 141.6787,-822 141.6787,-816 141.6787,-816 141.6787,-804 141.6787,-804 141.6787,-798 147.6787,-792 153.6787,-792 153.6787,-792 230.7275,-792 230.7275,-792 236.7275,-792 242.7275,-798 242.7275,-804 242.7275,-804 242.7275,-816 242.7275,-816 242.7275,-822 236.7275,-828 230.7275,-828"/>
<text text-anchor="middle" x="192.2031" y="-807" font-family="sans" font-size="10.00" fill="#000000">trim_primer_quality</text>
</g>
<!-- 26 -->
<g id="node27" class="node">
<title>26</title>
<path fill="none" stroke="#56d892" stroke-width="2" d="M222.5779,-756C222.5779,-756 161.8282,-756 161.8282,-756 155.8282,-756 149.8282,-750 149.8282,-744 149.8282,-744 149.8282,-732 149.8282,-732 149.8282,-726 155.8282,-720 161.8282,-720 161.8282,-720 222.5779,-720 222.5779,-720 228.5779,-720 234.5779,-726 234.5779,-732 234.5779,-732 234.5779,-744 234.5779,-744 234.5779,-750 228.5779,-756 222.5779,-756"/>
<text text-anchor="middle" x="192.2031" y="-735" font-family="sans" font-size="10.00" fill="#000000">call_consensus</text>
</g>
<!-- 7&#45;&gt;26 -->
<g id="edge39" class="edge">
<title>7&#45;&gt;26</title>
<path fill="none" stroke="#c0c0c0" stroke-width="2" d="M192.2031,-791.8314C192.2031,-784.131 192.2031,-774.9743 192.2031,-766.4166"/>
<polygon fill="#c0c0c0" stroke="#c0c0c0" stroke-width="2" points="195.7032,-766.4132 192.2031,-756.4133 188.7032,-766.4133 195.7032,-766.4132"/>
</g>
<!-- 8 -->
<g id="node9" class="node">
<title>8</title>
<path fill="none" stroke="#56d892" stroke-width="2" d="M477.5779,-756C477.5779,-756 416.8282,-756 416.8282,-756 410.8282,-756 404.8282,-750 404.8282,-744 404.8282,-744 404.8282,-732 404.8282,-732 404.8282,-726 410.8282,-720 416.8282,-720 416.8282,-720 477.5779,-720 477.5779,-720 483.5779,-720 489.5779,-726 489.5779,-732 489.5779,-732 489.5779,-744 489.5779,-744 489.5779,-750 483.5779,-756 477.5779,-756"/>
<text text-anchor="middle" x="447.2031" y="-735" font-family="sans" font-size="10.00" fill="#000000">call_consensus</text>
</g>
<!-- 8&#45;&gt;12 -->
<g id="edge19" class="edge">
<title>8&#45;&gt;12</title>
<path fill="none" stroke="#c0c0c0" stroke-width="2" d="M474.3081,-719.7776C486.3265,-710.4027 499.6527,-698.0026 508.2031,-684 529.719,-648.7642 531.2031,-635.2855 531.2031,-594 531.2031,-594 531.2031,-594 531.2031,-306 531.2031,-265.1184 530.2355,-252.6898 512.2031,-216 507.2632,-205.949 500.0283,-196.2248 492.7523,-187.8635"/>
<polygon fill="#c0c0c0" stroke="#c0c0c0" stroke-width="2" points="495.1676,-185.3181 485.8373,-180.2983 490.0008,-190.0409 495.1676,-185.3181"/>
</g>
<!-- 24 -->
<g id="node25" class="node">
<title>24</title>
<path fill="none" stroke="#56d86b" stroke-width="2" d="M487.6023,-684C487.6023,-684 406.8039,-684 406.8039,-684 400.8039,-684 394.8039,-678 394.8039,-672 394.8039,-672 394.8039,-660 394.8039,-660 394.8039,-654 400.8039,-648 406.8039,-648 406.8039,-648 487.6023,-648 487.6023,-648 493.6023,-648 499.6023,-654 499.6023,-660 499.6023,-660 499.6023,-672 499.6023,-672 499.6023,-678 493.6023,-684 487.6023,-684"/>
<text text-anchor="middle" x="447.2031" y="-663" font-family="sans" font-size="10.00" fill="#000000">align_to_consensus</text>
</g>
<!-- 8&#45;&gt;24 -->
<g id="edge36" class="edge">
<title>8&#45;&gt;24</title>
<path fill="none" stroke="#c0c0c0" stroke-width="2" d="M447.2031,-719.8314C447.2031,-712.131 447.2031,-702.9743 447.2031,-694.4166"/>
<polygon fill="#c0c0c0" stroke="#c0c0c0" stroke-width="2" points="450.7032,-694.4132 447.2031,-684.4133 443.7032,-694.4133 450.7032,-694.4132"/>
</g>
<!-- 39 -->
<g id="node40" class="node">
<title>39</title>
<path fill="none" stroke="#d85656" stroke-width="2" d="M364.7853,-468C364.7853,-468 317.6208,-468 317.6208,-468 311.6208,-468 305.6208,-462 305.6208,-456 305.6208,-456 305.6208,-444 305.6208,-444 305.6208,-438 311.6208,-432 317.6208,-432 317.6208,-432 364.7853,-432 364.7853,-432 370.7853,-432 376.7853,-438 376.7853,-444 376.7853,-444 376.7853,-456 376.7853,-456 376.7853,-462 370.7853,-468 364.7853,-468"/>
<text text-anchor="middle" x="341.2031" y="-447" font-family="sans" font-size="10.00" fill="#000000">call_variants</text>
</g>
<!-- 8&#45;&gt;39 -->
<g id="edge55" class="edge">
<title>8&#45;&gt;39</title>
<path fill="none" stroke="#c0c0c0" stroke-width="2" d="M423.0845,-719.9669C411.0579,-710.197 396.8481,-697.4003 386.2031,-684 340.9295,-627.008 326.0844,-610.5552 308.2031,-540 304.2723,-524.4903 303.8695,-519.402 308.2031,-504 310.8692,-494.5243 315.7111,-485.067 320.8793,-476.7759"/>
<polygon fill="#c0c0c0" stroke="#c0c0c0" stroke-width="2" points="323.8996,-478.5549 326.5279,-468.2912 318.0728,-474.6757 323.8996,-478.5549"/>
</g>
<!-- 9 -->
<g id="node10" class="node">
<title>9</title>
<path fill="none" stroke="#56d892" stroke-width="2" d="M735.5779,-756C735.5779,-756 674.8282,-756 674.8282,-756 668.8282,-756 662.8282,-750 662.8282,-744 662.8282,-744 662.8282,-732 662.8282,-732 662.8282,-726 668.8282,-720 674.8282,-720 674.8282,-720 735.5779,-720 735.5779,-720 741.5779,-720 747.5779,-726 747.5779,-732 747.5779,-732 747.5779,-744 747.5779,-744 747.5779,-750 741.5779,-756 735.5779,-756"/>
<text text-anchor="middle" x="705.2031" y="-735" font-family="sans" font-size="10.00" fill="#000000">call_consensus</text>
</g>
<!-- 9&#45;&gt;11 -->
<g id="edge18" class="edge">
<title>9&#45;&gt;11</title>
<path fill="none" stroke="#c0c0c0" stroke-width="2" d="M669.4707,-719.9575C629.1762,-696.7777 569.2031,-652.4584 569.2031,-594 569.2031,-594 569.2031,-594 569.2031,-306 569.2031,-264.8223 572.8586,-252.8658 591.2031,-216 596.1839,-205.9903 603.3059,-196.1675 610.3728,-187.7022"/>
<polygon fill="#c0c0c0" stroke="#c0c0c0" stroke-width="2" points="613.1214,-189.8757 617.0598,-180.04 607.8474,-185.2729 613.1214,-189.8757"/>
</g>
<!-- 23 -->
<g id="node24" class="node">
<title>23</title>
<path fill="none" stroke="#56d86b" stroke-width="2" d="M745.6023,-684C745.6023,-684 664.8039,-684 664.8039,-684 658.8039,-684 652.8039,-678 652.8039,-672 652.8039,-672 652.8039,-660 652.8039,-660 652.8039,-654 658.8039,-648 664.8039,-648 664.8039,-648 745.6023,-648 745.6023,-648 751.6023,-648 757.6023,-654 757.6023,-660 757.6023,-660 757.6023,-672 757.6023,-672 757.6023,-678 751.6023,-684 745.6023,-684"/>
<text text-anchor="middle" x="705.2031" y="-663" font-family="sans" font-size="10.00" fill="#000000">align_to_consensus</text>
</g>
<!-- 9&#45;&gt;23 -->
<g id="edge35" class="edge">
<title>9&#45;&gt;23</title>
<path fill="none" stroke="#c0c0c0" stroke-width="2" d="M705.2031,-719.8314C705.2031,-712.131 705.2031,-702.9743 705.2031,-694.4166"/>
<polygon fill="#c0c0c0" stroke="#c0c0c0" stroke-width="2" points="708.7032,-694.4132 705.2031,-684.4133 701.7032,-694.4133 708.7032,-694.4132"/>
</g>
<!-- 38 -->
<g id="node39" class="node">
<title>38</title>
<path fill="none" stroke="#d85656" stroke-width="2" d="M808.7853,-468C808.7853,-468 761.6208,-468 761.6208,-468 755.6208,-468 749.6208,-462 749.6208,-456 749.6208,-456 749.6208,-444 749.6208,-444 749.6208,-438 755.6208,-432 761.6208,-432 761.6208,-432 808.7853,-432 808.7853,-432 814.7853,-432 820.7853,-438 820.7853,-444 820.7853,-444 820.7853,-456 820.7853,-456 820.7853,-462 814.7853,-468 808.7853,-468"/>
<text text-anchor="middle" x="785.2031" y="-447" font-family="sans" font-size="10.00" fill="#000000">call_variants</text>
</g>
<!-- 9&#45;&gt;38 -->
<g id="edge54" class="edge">
<title>9&#45;&gt;38</title>
<path fill="none" stroke="#c0c0c0" stroke-width="2" d="M733.0761,-719.8024C745.109,-710.5131 758.2285,-698.1762 766.2031,-684 803.374,-617.9218 796.5589,-524.3278 790.0542,-478.0904"/>
<polygon fill="#c0c0c0" stroke="#c0c0c0" stroke-width="2" points="793.5122,-477.5495 788.5607,-468.1829 786.5904,-478.5929 793.5122,-477.5495"/>
</g>
<!-- 10 -->
<g id="node11" class="node">
<title>10</title>
<path fill="none" stroke="#d8cb56" stroke-width="2" d="M360.3848,-396C360.3848,-396 232.0213,-396 232.0213,-396 226.0213,-396 220.0213,-390 220.0213,-384 220.0213,-384 220.0213,-372 220.0213,-372 220.0213,-366 226.0213,-360 232.0213,-360 232.0213,-360 360.3848,-360 360.3848,-360 366.3848,-360 372.3848,-366 372.3848,-372 372.3848,-372 372.3848,-384 372.3848,-384 372.3848,-390 366.3848,-396 360.3848,-396"/>
<text text-anchor="middle" x="296.2031" y="-375" font-family="sans" font-size="10.00" fill="#000000">filter_variants_before_masking</text>
</g>
<!-- 10&#45;&gt;3 -->
<g id="edge7" class="edge">
<title>10&#45;&gt;3</title>
<path fill="none" stroke="#c0c0c0" stroke-width="2" d="M232.9381,-359.9243C188.1812,-347.1366 129.2456,-330.2979 89.2237,-318.863"/>
<polygon fill="#c0c0c0" stroke="#c0c0c0" stroke-width="2" points="90.0531,-315.46 79.4763,-316.0781 88.13,-322.1907 90.0531,-315.46"/>
</g>
<!-- 32 -->
<g id="node33" class="node">
<title>32</title>
<path fill="none" stroke="#56a9d8" stroke-width="2" d="M491.6822,-324C491.6822,-324 444.7239,-324 444.7239,-324 438.7239,-324 432.7239,-318 432.7239,-312 432.7239,-312 432.7239,-300 432.7239,-300 432.7239,-294 438.7239,-288 444.7239,-288 444.7239,-288 491.6822,-288 491.6822,-288 497.6822,-288 503.6822,-294 503.6822,-300 503.6822,-300 503.6822,-312 503.6822,-312 503.6822,-318 497.6822,-324 491.6822,-324"/>
<text text-anchor="middle" x="468.2031" y="-303" font-family="sans" font-size="10.00" fill="#000000">get_masked</text>
</g>
<!-- 10&#45;&gt;32 -->
<g id="edge48" class="edge">
<title>10&#45;&gt;32</title>
<path fill="none" stroke="#c0c0c0" stroke-width="2" d="M339.6059,-359.8314C365.197,-349.1188 397.5206,-335.588 423.3587,-324.7721"/>
<polygon fill="#c0c0c0" stroke="#c0c0c0" stroke-width="2" points="425.0433,-327.8612 432.9163,-320.7712 422.3403,-321.4041 425.0433,-327.8612"/>
</g>
<!-- 44 -->
<g id="node45" class="node">
<title>44</title>
<path fill="none" stroke="#68d856" stroke-width="2" d="M661.1723,-108C661.1723,-108 609.2338,-108 609.2338,-108 603.2338,-108 597.2338,-102 597.2338,-96 597.2338,-96 597.2338,-84 597.2338,-84 597.2338,-78 603.2338,-72 609.2338,-72 609.2338,-72 661.1723,-72 661.1723,-72 667.1723,-72 673.1723,-78 673.1723,-84 673.1723,-84 673.1723,-96 673.1723,-96 673.1723,-102 667.1723,-108 661.1723,-108"/>
<text text-anchor="middle" x="635.2031" y="-87" font-family="sans" font-size="10.00" fill="#000000">filter_variants</text>
</g>
<!-- 11&#45;&gt;44 -->
<g id="edge66" class="edge">
<title>11&#45;&gt;44</title>
<path fill="none" stroke="#c0c0c0" stroke-width="2" d="M635.2031,-143.8314C635.2031,-136.131 635.2031,-126.9743 635.2031,-118.4166"/>
<polygon fill="#c0c0c0" stroke="#c0c0c0" stroke-width="2" points="638.7032,-118.4132 635.2031,-108.4133 631.7032,-118.4133 638.7032,-118.4132"/>
</g>
<!-- 21 -->
<g id="node22" class="node">
<title>21</title>
<path fill="none" stroke="#68d856" stroke-width="2" d="M492.1723,-108C492.1723,-108 440.2338,-108 440.2338,-108 434.2338,-108 428.2338,-102 428.2338,-96 428.2338,-96 428.2338,-84 428.2338,-84 428.2338,-78 434.2338,-72 440.2338,-72 440.2338,-72 492.1723,-72 492.1723,-72 498.1723,-72 504.1723,-78 504.1723,-84 504.1723,-84 504.1723,-96 504.1723,-96 504.1723,-102 498.1723,-108 492.1723,-108"/>
<text text-anchor="middle" x="466.2031" y="-87" font-family="sans" font-size="10.00" fill="#000000">filter_variants</text>
</g>
<!-- 12&#45;&gt;21 -->
<g id="edge31" class="edge">
<title>12&#45;&gt;21</title>
<path fill="none" stroke="#c0c0c0" stroke-width="2" d="M466.2031,-143.8314C466.2031,-136.131 466.2031,-126.9743 466.2031,-118.4166"/>
<polygon fill="#c0c0c0" stroke="#c0c0c0" stroke-width="2" points="469.7032,-118.4132 466.2031,-108.4133 462.7032,-118.4133 469.7032,-118.4132"/>
</g>
<!-- 13 -->
<g id="node14" class="node">
<title>13</title>
<path fill="none" stroke="#d8cb56" stroke-width="2" d="M894.3848,-396C894.3848,-396 766.0213,-396 766.0213,-396 760.0213,-396 754.0213,-390 754.0213,-384 754.0213,-384 754.0213,-372 754.0213,-372 754.0213,-366 760.0213,-360 766.0213,-360 766.0213,-360 894.3848,-360 894.3848,-360 900.3848,-360 906.3848,-366 906.3848,-372 906.3848,-372 906.3848,-384 906.3848,-384 906.3848,-390 900.3848,-396 894.3848,-396"/>
<text text-anchor="middle" x="830.2031" y="-375" font-family="sans" font-size="10.00" fill="#000000">filter_variants_before_masking</text>
</g>
<!-- 13&#45;&gt;0 -->
<g id="edge2" class="edge">
<title>13&#45;&gt;0</title>
<path fill="none" stroke="#c0c0c0" stroke-width="2" d="M876.634,-359.8314C905.0136,-348.7263 941.1328,-334.5927 969.2396,-323.5944"/>
<polygon fill="#c0c0c0" stroke="#c0c0c0" stroke-width="2" points="970.7843,-326.7484 978.8213,-319.845 968.2335,-320.2297 970.7843,-326.7484"/>
</g>
<!-- 28 -->
<g id="node29" class="node">
<title>28</title>
<path fill="none" stroke="#56a9d8" stroke-width="2" d="M663.6822,-324C663.6822,-324 616.7239,-324 616.7239,-324 610.7239,-324 604.7239,-318 604.7239,-312 604.7239,-312 604.7239,-300 604.7239,-300 604.7239,-294 610.7239,-288 616.7239,-288 616.7239,-288 663.6822,-288 663.6822,-288 669.6822,-288 675.6822,-294 675.6822,-300 675.6822,-300 675.6822,-312 675.6822,-312 675.6822,-318 669.6822,-324 663.6822,-324"/>
<text text-anchor="middle" x="640.2031" y="-303" font-family="sans" font-size="10.00" fill="#000000">get_masked</text>
</g>
<!-- 13&#45;&gt;28 -->
<g id="edge42" class="edge">
<title>13&#45;&gt;28</title>
<path fill="none" stroke="#c0c0c0" stroke-width="2" d="M782.2581,-359.8314C752.43,-348.5281 714.3221,-334.0872 685.0867,-323.0085"/>
<polygon fill="#c0c0c0" stroke="#c0c0c0" stroke-width="2" points="686.1284,-319.6604 675.537,-319.3897 683.6478,-326.2062 686.1284,-319.6604"/>
</g>
<!-- 14 -->
<g id="node15" class="node">
<title>14</title>
<path fill="none" stroke="#d8a456" stroke-width="2" d="M669.2421,-612C669.2421,-612 627.164,-612 627.164,-612 621.164,-612 615.164,-606 615.164,-600 615.164,-600 615.164,-588 615.164,-588 615.164,-582 621.164,-576 627.164,-576 627.164,-576 669.2421,-576 669.2421,-576 675.2421,-576 681.2421,-582 681.2421,-588 681.2421,-588 681.2421,-600 681.2421,-600 681.2421,-606 675.2421,-612 669.2421,-612"/>
<text text-anchor="middle" x="648.2031" y="-591" font-family="sans" font-size="10.00" fill="#000000">create_bed</text>
</g>
<!-- 25 -->
<g id="node26" class="node">
<title>25</title>
<path fill="none" stroke="#8fd856" stroke-width="2" d="M770.9318,-540C770.9318,-540 647.4743,-540 647.4743,-540 641.4743,-540 635.4743,-534 635.4743,-528 635.4743,-528 635.4743,-516 635.4743,-516 635.4743,-510 641.4743,-504 647.4743,-504 647.4743,-504 770.9318,-504 770.9318,-504 776.9318,-504 782.9318,-510 782.9318,-516 782.9318,-516 782.9318,-528 782.9318,-528 782.9318,-534 776.9318,-540 770.9318,-540"/>
<text text-anchor="middle" x="709.2031" y="-519" font-family="sans" font-size="10.00" fill="#000000">realigned_trim_primer_quality</text>
</g>
<!-- 14&#45;&gt;25 -->
<g id="edge38" class="edge">
<title>14&#45;&gt;25</title>
<path fill="none" stroke="#c0c0c0" stroke-width="2" d="M663.596,-575.8314C670.6934,-567.454 679.2511,-557.3531 687.0271,-548.1749"/>
<polygon fill="#c0c0c0" stroke="#c0c0c0" stroke-width="2" points="689.8092,-550.3056 693.6029,-540.4133 684.4683,-545.7807 689.8092,-550.3056"/>
</g>
<!-- 14&#45;&gt;28 -->
<g id="edge41" class="edge">
<title>14&#45;&gt;28</title>
<path fill="none" stroke="#c0c0c0" stroke-width="2" d="M638.6123,-575.5602C633.8532,-565.373 628.6161,-552.3186 626.2031,-540 611.8564,-466.7606 625.2473,-378.3767 633.9991,-334.1261"/>
<polygon fill="#c0c0c0" stroke="#c0c0c0" stroke-width="2" points="637.472,-334.6129 636.0511,-324.1138 630.6145,-333.2074 637.472,-334.6129"/>
</g>
<!-- 15 -->
<g id="node16" class="node">
<title>15</title>
<path fill="none" stroke="#d8a456" stroke-width="2" d="M473.2421,-612C473.2421,-612 431.164,-612 431.164,-612 425.164,-612 419.164,-606 419.164,-600 419.164,-600 419.164,-588 419.164,-588 419.164,-582 425.164,-576 431.164,-576 431.164,-576 473.2421,-576 473.2421,-576 479.2421,-576 485.2421,-582 485.2421,-588 485.2421,-588 485.2421,-600 485.2421,-600 485.2421,-606 479.2421,-612 473.2421,-612"/>
<text text-anchor="middle" x="452.2031" y="-591" font-family="sans" font-size="10.00" fill="#000000">create_bed</text>
</g>
<!-- 15&#45;&gt;32 -->
<g id="edge49" class="edge">
<title>15&#45;&gt;32</title>
<path fill="none" stroke="#c0c0c0" stroke-width="2" d="M461.7939,-575.5602C466.553,-565.373 471.79,-552.3186 474.2031,-540 488.5288,-466.8673 479.252,-378.4373 472.836,-334.1519"/>
<polygon fill="#c0c0c0" stroke="#c0c0c0" stroke-width="2" points="476.2767,-333.4962 471.3221,-324.1312 469.3553,-334.5419 476.2767,-333.4962"/>
</g>
<!-- 36 -->
<g id="node37" class="node">
<title>36</title>
<path fill="none" stroke="#8fd856" stroke-width="2" d="M452.9318,-540C452.9318,-540 329.4743,-540 329.4743,-540 323.4743,-540 317.4743,-534 317.4743,-528 317.4743,-528 317.4743,-516 317.4743,-516 317.4743,-510 323.4743,-504 329.4743,-504 329.4743,-504 452.9318,-504 452.9318,-504 458.9318,-504 464.9318,-510 464.9318,-516 464.9318,-516 464.9318,-528 464.9318,-528 464.9318,-534 458.9318,-540 452.9318,-540"/>
<text text-anchor="middle" x="391.2031" y="-519" font-family="sans" font-size="10.00" fill="#000000">realigned_trim_primer_quality</text>
</g>
<!-- 15&#45;&gt;36 -->
<g id="edge51" class="edge">
<title>15&#45;&gt;36</title>
<path fill="none" stroke="#c0c0c0" stroke-width="2" d="M436.8102,-575.8314C429.7127,-567.454 421.155,-557.3531 413.3791,-548.1749"/>
<polygon fill="#c0c0c0" stroke="#c0c0c0" stroke-width="2" points="415.9379,-545.7807 406.8032,-540.4133 410.597,-550.3056 415.9379,-545.7807"/>
</g>
<!-- 16&#45;&gt;0 -->
<g id="edge1" class="edge">
<title>16&#45;&gt;0</title>
<path fill="none" stroke="#c0c0c0" stroke-width="2" d="M1021.7939,-575.5602C1026.553,-565.373 1031.79,-552.3186 1034.2031,-540 1048.6067,-466.4697 1032.0253,-377.9261 1021.5215,-333.8136"/>
<polygon fill="#c0c0c0" stroke="#c0c0c0" stroke-width="2" points="1024.9176,-332.9668 1019.1315,-324.0915 1018.12,-334.638 1024.9176,-332.9668"/>
</g>
<!-- 16&#45;&gt;40 -->
<g id="edge58" class="edge">
<title>16&#45;&gt;40</title>
<path fill="none" stroke="#c0c0c0" stroke-width="2" d="M996.8102,-575.8314C989.7127,-567.454 981.155,-557.3531 973.3791,-548.1749"/>
<polygon fill="#c0c0c0" stroke="#c0c0c0" stroke-width="2" points="975.9379,-545.7807 966.8032,-540.4133 970.597,-550.3056 975.9379,-545.7807"/>
</g>
<!-- 17&#45;&gt;3 -->
<g id="edge8" class="edge">
<title>17&#45;&gt;3</title>
<path fill="none" stroke="#c0c0c0" stroke-width="2" d="M25.5279,-575.7088C18.4984,-565.772 10.8336,-552.9031 7.2031,-540 -13.3117,-467.0886 14.8349,-377.9869 32.249,-333.7178"/>
<polygon fill="#c0c0c0" stroke="#c0c0c0" stroke-width="2" points="35.5866,-334.8004 36.095,-324.2178 29.0982,-332.1736 35.5866,-334.8004"/>
</g>
<!-- 17&#45;&gt;43 -->
<g id="edge63" class="edge">
<title>17&#45;&gt;43</title>
<path fill="none" stroke="#c0c0c0" stroke-width="2" d="M52.8202,-575.8314C58.5203,-567.6232 65.3694,-557.7606 71.639,-548.7323"/>
<polygon fill="#c0c0c0" stroke="#c0c0c0" stroke-width="2" points="74.5869,-550.6234 77.4161,-540.4133 68.8373,-546.6306 74.5869,-550.6234"/>
</g>
<!-- 18 -->
<g id="node19" class="node">
<title>18</title>
<path fill="none" stroke="#56d0d8" stroke-width="2" d="M807.5373,-912C807.5373,-912 602.8688,-912 602.8688,-912 596.8688,-912 590.8688,-906 590.8688,-900 590.8688,-900 590.8688,-876 590.8688,-876 590.8688,-870 596.8688,-864 602.8688,-864 602.8688,-864 807.5373,-864 807.5373,-864 813.5373,-864 819.5373,-870 819.5373,-876 819.5373,-876 819.5373,-900 819.5373,-900 819.5373,-906 813.5373,-912 807.5373,-912"/>
<text text-anchor="middle" x="705.2031" y="-900" font-family="sans" font-size="10.00" fill="#000000">align_reads</text>
<text text-anchor="middle" x="705.2031" y="-890" font-family="sans" font-size="10.00" fill="#000000">out_dir: /Users/karthik/hpc_downloads/test_field</text>
<text text-anchor="middle" x="705.2031" y="-880" font-family="sans" font-size="10.00" fill="#000000">rep: a</text>
<text text-anchor="middle" x="705.2031" y="-870" font-family="sans" font-size="10.00" fill="#000000">sample: ZI&#45;merge&#45;26</text>
</g>
<!-- 30 -->
<g id="node31" class="node">
<title>30</title>
<path fill="none" stroke="#56d8b9" stroke-width="2" d="M743.7275,-828C743.7275,-828 666.6787,-828 666.6787,-828 660.6787,-828 654.6787,-822 654.6787,-816 654.6787,-816 654.6787,-804 654.6787,-804 654.6787,-798 660.6787,-792 666.6787,-792 666.6787,-792 743.7275,-792 743.7275,-792 749.7275,-792 755.7275,-798 755.7275,-804 755.7275,-804 755.7275,-816 755.7275,-816 755.7275,-822 749.7275,-828 743.7275,-828"/>
<text text-anchor="middle" x="705.2031" y="-807" font-family="sans" font-size="10.00" fill="#000000">trim_primer_quality</text>
</g>
<!-- 18&#45;&gt;30 -->
<g id="edge45" class="edge">
<title>18&#45;&gt;30</title>
<path fill="none" stroke="#c0c0c0" stroke-width="2" d="M705.2031,-863.7479C705.2031,-855.6981 705.2031,-846.6653 705.2031,-838.3356"/>
<polygon fill="#c0c0c0" stroke="#c0c0c0" stroke-width="2" points="708.7032,-838.2875 705.2031,-828.2875 701.7032,-838.2876 708.7032,-838.2875"/>
</g>
<!-- 19 -->
<g id="node20" class="node">
<title>19</title>
<path fill="none" stroke="#d85656" stroke-width="2" d="M898.7853,-468C898.7853,-468 851.6208,-468 851.6208,-468 845.6208,-468 839.6208,-462 839.6208,-456 839.6208,-456 839.6208,-444 839.6208,-444 839.6208,-438 845.6208,-432 851.6208,-432 851.6208,-432 898.7853,-432 898.7853,-432 904.7853,-432 910.7853,-438 910.7853,-444 910.7853,-444 910.7853,-456 910.7853,-456 910.7853,-462 904.7853,-468 898.7853,-468"/>
<text text-anchor="middle" x="875.2031" y="-447" font-family="sans" font-size="10.00" fill="#000000">call_variants</text>
</g>
<!-- 19&#45;&gt;13 -->
<g id="edge21" class="edge">
<title>19&#45;&gt;13</title>
<path fill="none" stroke="#c0c0c0" stroke-width="2" d="M863.8477,-431.8314C858.7705,-423.7079 852.6804,-413.9637 847.0854,-405.0118"/>
<polygon fill="#c0c0c0" stroke="#c0c0c0" stroke-width="2" points="849.9794,-403.0383 841.7114,-396.4133 844.0434,-406.7483 849.9794,-403.0383"/>
</g>
<!-- 20 -->
<g id="node21" class="node">
<title>20</title>
<path fill="none" stroke="#d85656" stroke-width="2" d="M274.7853,-468C274.7853,-468 227.6208,-468 227.6208,-468 221.6208,-468 215.6208,-462 215.6208,-456 215.6208,-456 215.6208,-444 215.6208,-444 215.6208,-438 221.6208,-432 227.6208,-432 227.6208,-432 274.7853,-432 274.7853,-432 280.7853,-432 286.7853,-438 286.7853,-444 286.7853,-444 286.7853,-456 286.7853,-456 286.7853,-462 280.7853,-468 274.7853,-468"/>
<text text-anchor="middle" x="251.2031" y="-447" font-family="sans" font-size="10.00" fill="#000000">call_variants</text>
</g>
<!-- 20&#45;&gt;10 -->
<g id="edge15" class="edge">
<title>20&#45;&gt;10</title>
<path fill="none" stroke="#c0c0c0" stroke-width="2" d="M262.5585,-431.8314C267.6357,-423.7079 273.7257,-413.9637 279.3207,-405.0118"/>
<polygon fill="#c0c0c0" stroke="#c0c0c0" stroke-width="2" points="282.3627,-406.7483 284.6948,-396.4133 276.4267,-403.0383 282.3627,-406.7483"/>
</g>
<!-- 22 -->
<g id="node23" class="node">
<title>22</title>
<path fill="none" stroke="#567bd8" stroke-width="2" d="M558.2031,-36C558.2031,-36 528.2031,-36 528.2031,-36 522.2031,-36 516.2031,-30 516.2031,-24 516.2031,-24 516.2031,-12 516.2031,-12 516.2031,-6 522.2031,0 528.2031,0 528.2031,0 558.2031,0 558.2031,0 564.2031,0 570.2031,-6 570.2031,-12 570.2031,-12 570.2031,-24 570.2031,-24 570.2031,-30 564.2031,-36 558.2031,-36"/>
<text text-anchor="middle" x="543.2031" y="-15" font-family="sans" font-size="10.00" fill="#000000">all</text>
</g>
<!-- 21&#45;&gt;22 -->
<g id="edge34" class="edge">
<title>21&#45;&gt;22</title>
<path fill="none" stroke="#c0c0c0" stroke-width="2" d="M485.6334,-71.8314C494.935,-63.1337 506.2235,-52.5783 516.3317,-43.1265"/>
<polygon fill="#c0c0c0" stroke="#c0c0c0" stroke-width="2" points="518.8652,-45.5493 523.7789,-36.1628 514.0842,-40.4363 518.8652,-45.5493"/>
</g>
<!-- 23&#45;&gt;14 -->
<g id="edge23" class="edge">
<title>23&#45;&gt;14</title>
<path fill="none" stroke="#c0c0c0" stroke-width="2" d="M690.8196,-647.8314C684.2545,-639.5386 676.3524,-629.557 669.1453,-620.4533"/>
<polygon fill="#c0c0c0" stroke="#c0c0c0" stroke-width="2" points="671.7315,-618.0813 662.7802,-612.4133 666.2431,-622.4262 671.7315,-618.0813"/>
</g>
<!-- 23&#45;&gt;25 -->
<g id="edge37" class="edge">
<title>23&#45;&gt;25</title>
<path fill="none" stroke="#c0c0c0" stroke-width="2" d="M705.7097,-647.7623C706.3919,-623.201 707.6129,-579.2474 708.4155,-550.3541"/>
<polygon fill="#c0c0c0" stroke="#c0c0c0" stroke-width="2" points="711.9215,-550.183 708.7006,-540.0896 704.9242,-549.9885 711.9215,-550.183"/>
</g>
<!-- 24&#45;&gt;15 -->
<g id="edge24" class="edge">
<title>24&#45;&gt;15</title>
<path fill="none" stroke="#c0c0c0" stroke-width="2" d="M448.4648,-647.8314C448.9995,-640.131 449.6354,-630.9743 450.2297,-622.4166"/>
<polygon fill="#c0c0c0" stroke="#c0c0c0" stroke-width="2" points="453.7231,-622.6317 450.9244,-612.4133 446.7399,-622.1467 453.7231,-622.6317"/>
</g>
<!-- 24&#45;&gt;36 -->
<g id="edge52" class="edge">
<title>24&#45;&gt;36</title>
<path fill="none" stroke="#c0c0c0" stroke-width="2" d="M431.8872,-647.5801C424.3171,-637.608 415.6582,-624.7465 410.2031,-612 401.7468,-592.2409 396.9305,-568.3827 394.2641,-550.1965"/>
<polygon fill="#c0c0c0" stroke="#c0c0c0" stroke-width="2" points="397.7245,-549.6666 392.9314,-540.218 390.7862,-550.5934 397.7245,-549.6666"/>
</g>
<!-- 25&#45;&gt;1 -->
<g id="edge4" class="edge">
<title>25&#45;&gt;1</title>
<path fill="none" stroke="#c0c0c0" stroke-width="2" d="M710.6715,-503.8301C713.2327,-463.3158 715.5734,-363.2295 684.2031,-288 679.9705,-277.85 673.1929,-268.097 666.2124,-259.7399"/>
<polygon fill="#c0c0c0" stroke="#c0c0c0" stroke-width="2" points="668.7803,-257.3603 659.534,-252.1876 663.5365,-261.9974 668.7803,-257.3603"/>
</g>
<!-- 25&#45;&gt;38 -->
<g id="edge53" class="edge">
<title>25&#45;&gt;38</title>
<path fill="none" stroke="#c0c0c0" stroke-width="2" d="M728.3811,-503.8314C737.5619,-495.1337 748.7037,-484.5783 758.6806,-475.1265"/>
<polygon fill="#c0c0c0" stroke="#c0c0c0" stroke-width="2" points="761.1788,-477.5811 766.0312,-468.1628 756.3645,-472.4995 761.1788,-477.5811"/>
</g>
<!-- 26&#45;&gt;6 -->
<g id="edge11" class="edge">
<title>26&#45;&gt;6</title>
<path fill="none" stroke="#c0c0c0" stroke-width="2" d="M169.2399,-719.8314C158.0316,-710.9632 144.3822,-700.1637 132.2591,-690.5718"/>
<polygon fill="#c0c0c0" stroke="#c0c0c0" stroke-width="2" points="134.1728,-687.6229 124.1589,-684.1628 129.8294,-693.1125 134.1728,-687.6229"/>
</g>
<!-- 26&#45;&gt;20 -->
<g id="edge29" class="edge">
<title>26&#45;&gt;20</title>
<path fill="none" stroke="#c0c0c0" stroke-width="2" d="M197.2901,-719.5764C200.0848,-709.1714 203.5182,-695.904 206.2031,-684 222.8522,-610.1822 238.6834,-522.3863 246.3654,-478.2748"/>
<polygon fill="#c0c0c0" stroke="#c0c0c0" stroke-width="2" points="249.8373,-478.7375 248.0953,-468.2868 242.94,-477.5428 249.8373,-478.7375"/>
</g>
<!-- 42 -->
<g id="node43" class="node">
<title>42</title>
<path fill="none" stroke="#d87d56" stroke-width="2" d="M243.8751,-180C243.8751,-180 130.5311,-180 130.5311,-180 124.5311,-180 118.5311,-174 118.5311,-168 118.5311,-168 118.5311,-156 118.5311,-156 118.5311,-150 124.5311,-144 130.5311,-144 130.5311,-144 243.8751,-144 243.8751,-144 249.8751,-144 255.8751,-150 255.8751,-156 255.8751,-156 255.8751,-168 255.8751,-168 255.8751,-174 249.8751,-180 243.8751,-180"/>
<text text-anchor="middle" x="187.2031" y="-159" font-family="sans" font-size="10.00" fill="#000000">call_variants_post_removal</text>
</g>
<!-- 26&#45;&gt;42 -->
<g id="edge61" class="edge">
<title>26&#45;&gt;42</title>
<path fill="none" stroke="#c0c0c0" stroke-width="2" d="M191.7681,-719.6436C190.5516,-666.6681 187.2031,-508.9501 187.2031,-378 187.2031,-378 187.2031,-378 187.2031,-306 187.2031,-265.876 187.2031,-219.4631 187.2031,-190.4177"/>
<polygon fill="#c0c0c0" stroke="#c0c0c0" stroke-width="2" points="190.7032,-190.1853 187.2031,-180.1854 183.7032,-190.1854 190.7032,-190.1853"/>
</g>
<!-- 27&#45;&gt;5 -->
<g id="edge10" class="edge">
<title>27&#45;&gt;5</title>
<path fill="none" stroke="#c0c0c0" stroke-width="2" d="M955.2031,-719.8314C955.2031,-712.131 955.2031,-702.9743 955.2031,-694.4166"/>
<polygon fill="#c0c0c0" stroke="#c0c0c0" stroke-width="2" points="958.7032,-694.4132 955.2031,-684.4133 951.7032,-694.4133 958.7032,-694.4132"/>
</g>
<!-- 27&#45;&gt;19 -->
<g id="edge28" class="edge">
<title>27&#45;&gt;19</title>
<path fill="none" stroke="#c0c0c0" stroke-width="2" d="M927.33,-719.8024C915.2972,-710.5131 902.1776,-698.1762 894.2031,-684 857.0322,-617.9218 863.8472,-524.3278 870.352,-478.0904"/>
<polygon fill="#c0c0c0" stroke="#c0c0c0" stroke-width="2" points="873.8157,-478.5929 871.8455,-468.1829 866.8939,-477.5495 873.8157,-478.5929"/>
</g>
<!-- 41 -->
<g id="node42" class="node">
<title>41</title>
<path fill="none" stroke="#d87d56" stroke-width="2" d="M1038.8751,-180C1038.8751,-180 925.5311,-180 925.5311,-180 919.5311,-180 913.5311,-174 913.5311,-168 913.5311,-168 913.5311,-156 913.5311,-156 913.5311,-150 919.5311,-144 925.5311,-144 925.5311,-144 1038.8751,-144 1038.8751,-144 1044.8751,-144 1050.8751,-150 1050.8751,-156 1050.8751,-156 1050.8751,-168 1050.8751,-168 1050.8751,-174 1044.8751,-180 1038.8751,-180"/>
<text text-anchor="middle" x="982.2031" y="-159" font-family="sans" font-size="10.00" fill="#000000">call_variants_post_removal</text>
</g>
<!-- 27&#45;&gt;41 -->
<g id="edge60" class="edge">
<title>27&#45;&gt;41</title>
<path fill="none" stroke="#c0c0c0" stroke-width="2" d="M990.9355,-719.9575C1031.2299,-696.7777 1091.2031,-652.4584 1091.2031,-594 1091.2031,-594 1091.2031,-594 1091.2031,-306 1091.2031,-255.9186 1048.7704,-212.274 1016.8552,-186.5303"/>
<polygon fill="#c0c0c0" stroke="#c0c0c0" stroke-width="2" points="1018.6223,-183.4691 1008.5889,-180.0658 1014.3101,-188.9832 1018.6223,-183.4691"/>
</g>
<!-- 28&#45;&gt;1 -->
<g id="edge3" class="edge">
<title>28&#45;&gt;1</title>
<path fill="none" stroke="#c0c0c0" stroke-width="2" d="M640.2031,-287.8314C640.2031,-280.131 640.2031,-270.9743 640.2031,-262.4166"/>
<polygon fill="#c0c0c0" stroke="#c0c0c0" stroke-width="2" points="643.7032,-262.4132 640.2031,-252.4133 636.7032,-262.4133 643.7032,-262.4132"/>
</g>
<!-- 29&#45;&gt;41 -->
<g id="edge59" class="edge">
<title>29&#45;&gt;41</title>
<path fill="none" stroke="#c0c0c0" stroke-width="2" d="M982.2031,-215.8314C982.2031,-208.131 982.2031,-198.9743 982.2031,-190.4166"/>
<polygon fill="#c0c0c0" stroke="#c0c0c0" stroke-width="2" points="985.7032,-190.4132 982.2031,-180.4133 978.7032,-190.4133 985.7032,-190.4132"/>
</g>
<!-- 30&#45;&gt;9 -->
<g id="edge14" class="edge">
<title>30&#45;&gt;9</title>
<path fill="none" stroke="#c0c0c0" stroke-width="2" d="M705.2031,-791.8314C705.2031,-784.131 705.2031,-774.9743 705.2031,-766.4166"/>
<polygon fill="#c0c0c0" stroke="#c0c0c0" stroke-width="2" points="708.7032,-766.4132 705.2031,-756.4133 701.7032,-766.4133 708.7032,-766.4132"/>
</g>
<!-- 31&#45;&gt;42 -->
<g id="edge62" class="edge">
<title>31&#45;&gt;42</title>
<path fill="none" stroke="#c0c0c0" stroke-width="2" d="M127.3905,-215.8314C137.0545,-207.1337 148.7827,-196.5783 159.2847,-187.1265"/>
<polygon fill="#c0c0c0" stroke="#c0c0c0" stroke-width="2" points="161.9306,-189.454 167.0222,-180.1628 157.2478,-184.251 161.9306,-189.454"/>
</g>
<!-- 32&#45;&gt;2 -->
<g id="edge6" class="edge">
<title>32&#45;&gt;2</title>
<path fill="none" stroke="#c0c0c0" stroke-width="2" d="M466.9414,-287.8314C466.4066,-280.131 465.7707,-270.9743 465.1765,-262.4166"/>
<polygon fill="#c0c0c0" stroke="#c0c0c0" stroke-width="2" points="468.6662,-262.1467 464.4818,-252.4133 461.6831,-262.6317 468.6662,-262.1467"/>
</g>
<!-- 33 -->
<g id="node34" class="node">
<title>33</title>
<path fill="none" stroke="#56d8b9" stroke-width="2" d="M485.7275,-828C485.7275,-828 408.6787,-828 408.6787,-828 402.6787,-828 396.6787,-822 396.6787,-816 396.6787,-816 396.6787,-804 396.6787,-804 396.6787,-798 402.6787,-792 408.6787,-792 408.6787,-792 485.7275,-792 485.7275,-792 491.7275,-792 497.7275,-798 497.7275,-804 497.7275,-804 497.7275,-816 497.7275,-816 497.7275,-822 491.7275,-828 485.7275,-828"/>
<text text-anchor="middle" x="447.2031" y="-807" font-family="sans" font-size="10.00" fill="#000000">trim_primer_quality</text>
</g>
<!-- 33&#45;&gt;8 -->
<g id="edge13" class="edge">
<title>33&#45;&gt;8</title>
<path fill="none" stroke="#c0c0c0" stroke-width="2" d="M447.2031,-791.8314C447.2031,-784.131 447.2031,-774.9743 447.2031,-766.4166"/>
<polygon fill="#c0c0c0" stroke="#c0c0c0" stroke-width="2" points="450.7032,-766.4132 447.2031,-756.4133 443.7032,-766.4133 450.7032,-766.4132"/>
</g>
<!-- 34 -->
<g id="node35" class="node">
<title>34</title>
<path fill="none" stroke="#56d0d8" stroke-width="2" d="M294.5373,-912C294.5373,-912 89.8688,-912 89.8688,-912 83.8688,-912 77.8688,-906 77.8688,-900 77.8688,-900 77.8688,-876 77.8688,-876 77.8688,-870 83.8688,-864 89.8688,-864 89.8688,-864 294.5373,-864 294.5373,-864 300.5373,-864 306.5373,-870 306.5373,-876 306.5373,-876 306.5373,-900 306.5373,-900 306.5373,-906 300.5373,-912 294.5373,-912"/>
<text text-anchor="middle" x="192.2031" y="-900" font-family="sans" font-size="10.00" fill="#000000">align_reads</text>
<text text-anchor="middle" x="192.2031" y="-890" font-family="sans" font-size="10.00" fill="#000000">out_dir: /Users/karthik/hpc_downloads/test_field</text>
<text text-anchor="middle" x="192.2031" y="-880" font-family="sans" font-size="10.00" fill="#000000">rep: b</text>
<text text-anchor="middle" x="192.2031" y="-870" font-family="sans" font-size="10.00" fill="#000000">sample: ZI&#45;merge&#45;27</text>
</g>
<!-- 34&#45;&gt;7 -->
<g id="edge12" class="edge">
<title>34&#45;&gt;7</title>
<path fill="none" stroke="#c0c0c0" stroke-width="2" d="M192.2031,-863.7479C192.2031,-855.6981 192.2031,-846.6653 192.2031,-838.3356"/>
<polygon fill="#c0c0c0" stroke="#c0c0c0" stroke-width="2" points="195.7032,-838.2875 192.2031,-828.2875 188.7032,-838.2876 195.7032,-838.2875"/>
</g>
<!-- 35 -->
<g id="node36" class="node">
<title>35</title>
<path fill="none" stroke="#56d0d8" stroke-width="2" d="M1057.5373,-912C1057.5373,-912 852.8688,-912 852.8688,-912 846.8688,-912 840.8688,-906 840.8688,-900 840.8688,-900 840.8688,-876 840.8688,-876 840.8688,-870 846.8688,-864 852.8688,-864 852.8688,-864 1057.5373,-864 1057.5373,-864 1063.5373,-864 1069.5373,-870 1069.5373,-876 1069.5373,-876 1069.5373,-900 1069.5373,-900 1069.5373,-906 1063.5373,-912 1057.5373,-912"/>
<text text-anchor="middle" x="955.2031" y="-900" font-family="sans" font-size="10.00" fill="#000000">align_reads</text>
<text text-anchor="middle" x="955.2031" y="-890" font-family="sans" font-size="10.00" fill="#000000">out_dir: /Users/karthik/hpc_downloads/test_field</text>
<text text-anchor="middle" x="955.2031" y="-880" font-family="sans" font-size="10.00" fill="#000000">rep: b</text>
<text text-anchor="middle" x="955.2031" y="-870" font-family="sans" font-size="10.00" fill="#000000">sample: ZI&#45;merge&#45;26</text>
</g>
<!-- 35&#45;&gt;4 -->
<g id="edge9" class="edge">
<title>35&#45;&gt;4</title>
<path fill="none" stroke="#c0c0c0" stroke-width="2" d="M955.2031,-863.7479C955.2031,-855.6981 955.2031,-846.6653 955.2031,-838.3356"/>
<polygon fill="#c0c0c0" stroke="#c0c0c0" stroke-width="2" points="958.7032,-838.2875 955.2031,-828.2875 951.7032,-838.2876 958.7032,-838.2875"/>
</g>
<!-- 36&#45;&gt;2 -->
<g id="edge5" class="edge">
<title>36&#45;&gt;2</title>
<path fill="none" stroke="#c0c0c0" stroke-width="2" d="M390.8484,-503.9318C390.6676,-463.6228 393.6315,-363.925 424.2031,-288 428.1554,-278.1844 434.2647,-268.4869 440.4841,-260.0771"/>
<polygon fill="#c0c0c0" stroke="#c0c0c0" stroke-width="2" points="443.2824,-262.1802 446.6645,-252.1397 437.7592,-257.8796 443.2824,-262.1802"/>
</g>
<!-- 36&#45;&gt;39 -->
<g id="edge56" class="edge">
<title>36&#45;&gt;39</title>
<path fill="none" stroke="#c0c0c0" stroke-width="2" d="M378.586,-503.8314C372.8859,-495.6232 366.0368,-485.7606 359.7672,-476.7323"/>
<polygon fill="#c0c0c0" stroke="#c0c0c0" stroke-width="2" points="362.5689,-474.6306 353.9901,-468.4133 356.8193,-478.6234 362.5689,-474.6306"/>
</g>
<!-- 37 -->
<g id="node38" class="node">
<title>37</title>
<path fill="none" stroke="#56d0d8" stroke-width="2" d="M549.5373,-912C549.5373,-912 344.8688,-912 344.8688,-912 338.8688,-912 332.8688,-906 332.8688,-900 332.8688,-900 332.8688,-876 332.8688,-876 332.8688,-870 338.8688,-864 344.8688,-864 344.8688,-864 549.5373,-864 549.5373,-864 555.5373,-864 561.5373,-870 561.5373,-876 561.5373,-876 561.5373,-900 561.5373,-900 561.5373,-906 555.5373,-912 549.5373,-912"/>
<text text-anchor="middle" x="447.2031" y="-900" font-family="sans" font-size="10.00" fill="#000000">align_reads</text>
<text text-anchor="middle" x="447.2031" y="-890" font-family="sans" font-size="10.00" fill="#000000">out_dir: /Users/karthik/hpc_downloads/test_field</text>
<text text-anchor="middle" x="447.2031" y="-880" font-family="sans" font-size="10.00" fill="#000000">rep: a</text>
<text text-anchor="middle" x="447.2031" y="-870" font-family="sans" font-size="10.00" fill="#000000">sample: ZI&#45;merge&#45;27</text>
</g>
<!-- 37&#45;&gt;33 -->
<g id="edge50" class="edge">
<title>37&#45;&gt;33</title>
<path fill="none" stroke="#c0c0c0" stroke-width="2" d="M447.2031,-863.7479C447.2031,-855.6981 447.2031,-846.6653 447.2031,-838.3356"/>
<polygon fill="#c0c0c0" stroke="#c0c0c0" stroke-width="2" points="450.7032,-838.2875 447.2031,-828.2875 443.7032,-838.2876 450.7032,-838.2875"/>
</g>
<!-- 38&#45;&gt;13 -->
<g id="edge22" class="edge">
<title>38&#45;&gt;13</title>
<path fill="none" stroke="#c0c0c0" stroke-width="2" d="M796.5585,-431.8314C801.6357,-423.7079 807.7257,-413.9637 813.3207,-405.0118"/>
<polygon fill="#c0c0c0" stroke="#c0c0c0" stroke-width="2" points="816.3627,-406.7483 818.6948,-396.4133 810.4267,-403.0383 816.3627,-406.7483"/>
</g>
<!-- 39&#45;&gt;10 -->
<g id="edge16" class="edge">
<title>39&#45;&gt;10</title>
<path fill="none" stroke="#c0c0c0" stroke-width="2" d="M329.8477,-431.8314C324.7705,-423.7079 318.6804,-413.9637 313.0854,-405.0118"/>
<polygon fill="#c0c0c0" stroke="#c0c0c0" stroke-width="2" points="315.9794,-403.0383 307.7114,-396.4133 310.0434,-406.7483 315.9794,-403.0383"/>
</g>
<!-- 40&#45;&gt;19 -->
<g id="edge27" class="edge">
<title>40&#45;&gt;19</title>
<path fill="none" stroke="#c0c0c0" stroke-width="2" d="M932.0251,-503.8314C922.8442,-495.1337 911.7024,-484.5783 901.7255,-475.1265"/>
<polygon fill="#c0c0c0" stroke="#c0c0c0" stroke-width="2" points="904.0416,-472.4995 894.3749,-468.1628 899.2274,-477.5811 904.0416,-472.4995"/>
</g>
<!-- 40&#45;&gt;29 -->
<g id="edge44" class="edge">
<title>40&#45;&gt;29</title>
<path fill="none" stroke="#c0c0c0" stroke-width="2" d="M951.8201,-503.9954C953.354,-464.6252 958.1251,-367.9994 970.2031,-288 971.4732,-279.5871 973.3014,-270.5298 975.1493,-262.2817"/>
<polygon fill="#c0c0c0" stroke="#c0c0c0" stroke-width="2" points="978.5966,-262.91 977.46,-252.3763 971.7797,-261.3198 978.5966,-262.91"/>
</g>
<!-- 41&#45;&gt;44 -->
<g id="edge65" class="edge">
<title>41&#45;&gt;44</title>
<path fill="none" stroke="#c0c0c0" stroke-width="2" d="M913.2322,-147.689C845.0359,-133.5388 742.4891,-112.2611 682.8608,-99.8886"/>
<polygon fill="#c0c0c0" stroke="#c0c0c0" stroke-width="2" points="683.4605,-96.4386 672.9579,-97.8339 682.0383,-103.2926 683.4605,-96.4386"/>
</g>
<!-- 42&#45;&gt;21 -->
<g id="edge32" class="edge">
<title>42&#45;&gt;21</title>
<path fill="none" stroke="#c0c0c0" stroke-width="2" d="M255.8115,-144.2946C306.362,-131.2493 373.8276,-113.8388 418.5782,-102.2903"/>
<polygon fill="#c0c0c0" stroke="#c0c0c0" stroke-width="2" points="419.5165,-105.6629 428.3247,-99.7751 417.7673,-98.8849 419.5165,-105.6629"/>
</g>
<!-- 43&#45;&gt;20 -->
<g id="edge30" class="edge">
<title>43&#45;&gt;20</title>
<path fill="none" stroke="#c0c0c0" stroke-width="2" d="M130.8302,-503.8314C153.8567,-493.5338 182.7064,-480.632 206.3894,-470.0409"/>
<polygon fill="#c0c0c0" stroke="#c0c0c0" stroke-width="2" points="207.822,-473.2343 215.5219,-465.9568 204.9643,-466.8442 207.822,-473.2343"/>
</g>
<!-- 43&#45;&gt;31 -->
<g id="edge46" class="edge">
<title>43&#45;&gt;31</title>
<path fill="none" stroke="#c0c0c0" stroke-width="2" d="M91.2665,-503.9843C94.1406,-455.2939 102.0797,-320.7961 105.5469,-262.0573"/>
<polygon fill="#c0c0c0" stroke="#c0c0c0" stroke-width="2" points="109.0446,-262.1978 106.1401,-252.0089 102.0568,-261.7852 109.0446,-262.1978"/>
</g>
<!-- 44&#45;&gt;22 -->
<g id="edge33" class="edge">
<title>44&#45;&gt;22</title>
<path fill="none" stroke="#c0c0c0" stroke-width="2" d="M611.9876,-71.8314C600.6561,-62.9632 586.8567,-52.1637 574.6004,-42.5718"/>
<polygon fill="#c0c0c0" stroke="#c0c0c0" stroke-width="2" points="576.4433,-39.5697 566.4111,-36.1628 572.1291,-45.0822 576.4433,-39.5697"/>
</g>
</g>
</svg>
