<?xml version="1.0" encoding="UTF-8" standalone="no"?>
<!DOCTYPE svg PUBLIC "-//W3C//DTD SVG 1.1//EN"
 "http://www.w3.org/Graphics/SVG/1.1/DTD/svg11.dtd">
<!-- Generated by graphviz version 2.40.1 (20161225.0304)
 -->
<!-- Title: snakemake_dag Pages: 1 -->
<svg width="1086pt" height="698pt"
 viewBox="0.00 0.00 1086.33 698.00" xmlns="http://www.w3.org/2000/svg" xmlns:xlink="http://www.w3.org/1999/xlink">
<g id="graph0" class="graph" transform="scale(1 1) rotate(0) translate(4 694)">
<title>snakemake_dag</title>
<polygon fill="#ffffff" stroke="transparent" points="-4,4 -4,-694 1082.334,-694 1082.334,4 -4,4"/>
<!-- 0 -->
<g id="node1" class="node">
<title>0</title>
<path fill="none" stroke="#56d86b" stroke-width="2" d="M767.97,-326C767.97,-326 718.364,-326 718.364,-326 712.364,-326 706.364,-320 706.364,-314 706.364,-314 706.364,-302 706.364,-302 706.364,-296 712.364,-290 718.364,-290 718.364,-290 767.97,-290 767.97,-290 773.97,-290 779.97,-296 779.97,-302 779.97,-302 779.97,-314 779.97,-314 779.97,-320 773.97,-326 767.97,-326"/>
<text text-anchor="middle" x="743.167" y="-310" font-family="sans" font-size="10.00" fill="#000000">get_masked</text>
<text text-anchor="middle" x="743.167" y="-300" font-family="sans" font-size="10.00" fill="#000000">sample: ZI26</text>
</g>
<!-- 20 -->
<g id="node21" class="node">
<title>20</title>
<path fill="none" stroke="#56b1d8" stroke-width="2" d="M933.0879,-254C933.0879,-254 877.2461,-254 877.2461,-254 871.2461,-254 865.2461,-248 865.2461,-242 865.2461,-242 865.2461,-228 865.2461,-228 865.2461,-222 871.2461,-216 877.2461,-216 877.2461,-216 933.0879,-216 933.0879,-216 939.0879,-216 945.0879,-222 945.0879,-228 945.0879,-228 945.0879,-242 945.0879,-242 945.0879,-248 939.0879,-254 933.0879,-254"/>
<text text-anchor="middle" x="905.167" y="-242" font-family="sans" font-size="10.00" fill="#000000">remove_reads</text>
<text text-anchor="middle" x="905.167" y="-232" font-family="sans" font-size="10.00" fill="#000000">rep: b</text>
<text text-anchor="middle" x="905.167" y="-222" font-family="sans" font-size="10.00" fill="#000000">sample: ZI26_</text>
</g>
<!-- 0&#45;&gt;20 -->
<g id="edge28" class="edge">
<title>0&#45;&gt;20</title>
<path fill="none" stroke="#c0c0c0" stroke-width="2" d="M780.3331,-291.2523C802.6816,-281.1817 831.4009,-268.2403 855.6577,-257.3097"/>
<polygon fill="#c0c0c0" stroke="#c0c0c0" stroke-width="2" points="857.377,-260.374 865.0562,-253.0746 854.5012,-253.992 857.377,-260.374"/>
</g>
<!-- 31 -->
<g id="node32" class="node">
<title>31</title>
<path fill="none" stroke="#56b1d8" stroke-width="2" d="M609.0879,-254C609.0879,-254 553.2461,-254 553.2461,-254 547.2461,-254 541.2461,-248 541.2461,-242 541.2461,-242 541.2461,-228 541.2461,-228 541.2461,-222 547.2461,-216 553.2461,-216 553.2461,-216 609.0879,-216 609.0879,-216 615.0879,-216 621.0879,-222 621.0879,-228 621.0879,-228 621.0879,-242 621.0879,-242 621.0879,-248 615.0879,-254 609.0879,-254"/>
<text text-anchor="middle" x="581.167" y="-242" font-family="sans" font-size="10.00" fill="#000000">remove_reads</text>
<text text-anchor="middle" x="581.167" y="-232" font-family="sans" font-size="10.00" fill="#000000">rep: a</text>
<text text-anchor="middle" x="581.167" y="-222" font-family="sans" font-size="10.00" fill="#000000">sample: ZI26_</text>
</g>
<!-- 0&#45;&gt;31 -->
<g id="edge47" class="edge">
<title>0&#45;&gt;31</title>
<path fill="none" stroke="#c0c0c0" stroke-width="2" d="M706.0009,-291.2523C683.6524,-281.1817 654.933,-268.2403 630.6763,-257.3097"/>
<polygon fill="#c0c0c0" stroke="#c0c0c0" stroke-width="2" points="631.8328,-253.992 621.2778,-253.0746 628.9569,-260.374 631.8328,-253.992"/>
</g>
<!-- 1 -->
<g id="node2" class="node">
<title>1</title>
<path fill="none" stroke="#d8b456" stroke-width="2" d="M154.0321,-400C154.0321,-400 98.3019,-400 98.3019,-400 92.3019,-400 86.3019,-394 86.3019,-388 86.3019,-388 86.3019,-374 86.3019,-374 86.3019,-368 92.3019,-362 98.3019,-362 98.3019,-362 154.0321,-362 154.0321,-362 160.0321,-362 166.0321,-368 166.0321,-374 166.0321,-374 166.0321,-388 166.0321,-388 166.0321,-394 160.0321,-400 154.0321,-400"/>
<text text-anchor="middle" x="126.167" y="-388" font-family="sans" font-size="10.00" fill="#000000">create_bed</text>
<text text-anchor="middle" x="126.167" y="-378" font-family="sans" font-size="10.00" fill="#000000">rep: a</text>
<text text-anchor="middle" x="126.167" y="-368" font-family="sans" font-size="10.00" fill="#000000">sample: ZI27_</text>
</g>
<!-- 17 -->
<g id="node18" class="node">
<title>17</title>
<path fill="none" stroke="#56d89a" stroke-width="2" d="M396.1362,-108C396.1362,-108 344.1978,-108 344.1978,-108 338.1978,-108 332.1978,-102 332.1978,-96 332.1978,-96 332.1978,-84 332.1978,-84 332.1978,-78 338.1978,-72 344.1978,-72 344.1978,-72 396.1362,-72 396.1362,-72 402.1362,-72 408.1362,-78 408.1362,-84 408.1362,-84 408.1362,-96 408.1362,-96 408.1362,-102 402.1362,-108 396.1362,-108"/>
<text text-anchor="middle" x="370.167" y="-92" font-family="sans" font-size="10.00" fill="#000000">filter_variants</text>
<text text-anchor="middle" x="370.167" y="-82" font-family="sans" font-size="10.00" fill="#000000">sample: ZI27</text>
</g>
<!-- 1&#45;&gt;17 -->
<g id="edge23" class="edge">
<title>1&#45;&gt;17</title>
<path fill="none" stroke="#c0c0c0" stroke-width="2" d="M120.1328,-361.6897C107.6119,-317.4332 84.166,-207.6037 137.167,-144 160.4108,-116.1064 260.6324,-101.1226 321.812,-94.4275"/>
<polygon fill="#c0c0c0" stroke="#c0c0c0" stroke-width="2" points="322.4393,-97.8808 332.0155,-93.3479 321.7027,-90.9197 322.4393,-97.8808"/>
</g>
<!-- 29 -->
<g id="node30" class="node">
<title>29</title>
<path fill="none" stroke="#56d86b" stroke-width="2" d="M319.97,-326C319.97,-326 270.364,-326 270.364,-326 264.364,-326 258.364,-320 258.364,-314 258.364,-314 258.364,-302 258.364,-302 258.364,-296 264.364,-290 270.364,-290 270.364,-290 319.97,-290 319.97,-290 325.97,-290 331.97,-296 331.97,-302 331.97,-302 331.97,-314 331.97,-314 331.97,-320 325.97,-326 319.97,-326"/>
<text text-anchor="middle" x="295.167" y="-310" font-family="sans" font-size="10.00" fill="#000000">get_masked</text>
<text text-anchor="middle" x="295.167" y="-300" font-family="sans" font-size="10.00" fill="#000000">sample: ZI27</text>
</g>
<!-- 1&#45;&gt;29 -->
<g id="edge45" class="edge">
<title>1&#45;&gt;29</title>
<path fill="none" stroke="#c0c0c0" stroke-width="2" d="M166.2176,-363.7C191.0804,-352.9605 223.1203,-339.1208 249.0425,-327.9236"/>
<polygon fill="#c0c0c0" stroke="#c0c0c0" stroke-width="2" points="250.499,-331.1071 258.2913,-323.9285 247.7232,-324.6809 250.499,-331.1071"/>
</g>
<!-- 2 -->
<g id="node3" class="node">
<title>2</title>
<path fill="none" stroke="#d85656" stroke-width="2" d="M1066.5012,-618C1066.5012,-618 861.8328,-618 861.8328,-618 855.8328,-618 849.8328,-612 849.8328,-606 849.8328,-606 849.8328,-594 849.8328,-594 849.8328,-588 855.8328,-582 861.8328,-582 861.8328,-582 1066.5012,-582 1066.5012,-582 1072.5012,-582 1078.5012,-588 1078.5012,-594 1078.5012,-594 1078.5012,-606 1078.5012,-606 1078.5012,-612 1072.5012,-618 1066.5012,-618"/>
<text text-anchor="middle" x="964.167" y="-602" font-family="sans" font-size="10.00" fill="#000000">trim_primer_quality</text>
<text text-anchor="middle" x="964.167" y="-592" font-family="sans" font-size="10.00" fill="#000000">out_dir: /Users/karthik/hpc_downloads/test_field</text>
</g>
<!-- 2&#45;&gt;20 -->
<g id="edge29" class="edge">
<title>2&#45;&gt;20</title>
<path fill="none" stroke="#c0c0c0" stroke-width="2" d="M976.3182,-581.6474C992.7882,-554.9497 1020.167,-503.3045 1020.167,-455 1020.167,-455 1020.167,-455 1020.167,-381 1020.167,-329.987 976.3048,-286.2977 942.7576,-260.343"/>
<polygon fill="#c0c0c0" stroke="#c0c0c0" stroke-width="2" points="944.5827,-257.3367 934.4839,-254.1328 940.3806,-262.9351 944.5827,-257.3367"/>
</g>
<!-- 22 -->
<g id="node23" class="node">
<title>22</title>
<path fill="none" stroke="#9fd856" stroke-width="2" d="M956.5418,-546C956.5418,-546 895.7921,-546 895.7921,-546 889.7921,-546 883.7921,-540 883.7921,-534 883.7921,-534 883.7921,-522 883.7921,-522 883.7921,-516 889.7921,-510 895.7921,-510 895.7921,-510 956.5418,-510 956.5418,-510 962.5418,-510 968.5418,-516 968.5418,-522 968.5418,-522 968.5418,-534 968.5418,-534 968.5418,-540 962.5418,-546 956.5418,-546"/>
<text text-anchor="middle" x="926.167" y="-525" font-family="sans" font-size="10.00" fill="#000000">call_consensus</text>
</g>
<!-- 2&#45;&gt;22 -->
<g id="edge32" class="edge">
<title>2&#45;&gt;22</title>
<path fill="none" stroke="#c0c0c0" stroke-width="2" d="M954.578,-581.8314C950.3352,-573.7925 945.2549,-564.1666 940.571,-555.2918"/>
<polygon fill="#c0c0c0" stroke="#c0c0c0" stroke-width="2" points="943.6481,-553.6235 935.8851,-546.4133 937.4574,-556.8908 943.6481,-553.6235"/>
</g>
<!-- 3 -->
<g id="node4" class="node">
<title>3</title>
<path fill="none" stroke="#5682d8" stroke-width="2" d="M782.5662,-474C782.5662,-474 701.7678,-474 701.7678,-474 695.7678,-474 689.7678,-468 689.7678,-462 689.7678,-462 689.7678,-448 689.7678,-448 689.7678,-442 695.7678,-436 701.7678,-436 701.7678,-436 782.5662,-436 782.5662,-436 788.5662,-436 794.5662,-442 794.5662,-448 794.5662,-448 794.5662,-462 794.5662,-462 794.5662,-468 788.5662,-474 782.5662,-474"/>
<text text-anchor="middle" x="742.167" y="-462" font-family="sans" font-size="10.00" fill="#000000">align_to_consensus</text>
<text text-anchor="middle" x="742.167" y="-452" font-family="sans" font-size="10.00" fill="#000000">rep: a</text>
<text text-anchor="middle" x="742.167" y="-442" font-family="sans" font-size="10.00" fill="#000000">sample: ZI26_</text>
</g>
<!-- 8 -->
<g id="node9" class="node">
<title>8</title>
<path fill="none" stroke="#ced856" stroke-width="2" d="M765.7493,-399C765.7493,-399 718.5847,-399 718.5847,-399 712.5847,-399 706.5847,-393 706.5847,-387 706.5847,-387 706.5847,-375 706.5847,-375 706.5847,-369 712.5847,-363 718.5847,-363 718.5847,-363 765.7493,-363 765.7493,-363 771.7493,-363 777.7493,-369 777.7493,-375 777.7493,-375 777.7493,-387 777.7493,-387 777.7493,-393 771.7493,-399 765.7493,-399"/>
<text text-anchor="middle" x="742.167" y="-378" font-family="sans" font-size="10.00" fill="#000000">call_variants</text>
</g>
<!-- 3&#45;&gt;8 -->
<g id="edge13" class="edge">
<title>3&#45;&gt;8</title>
<path fill="none" stroke="#c0c0c0" stroke-width="2" d="M742.167,-435.9432C742.167,-427.8174 742.167,-418.1682 742.167,-409.2408"/>
<polygon fill="#c0c0c0" stroke="#c0c0c0" stroke-width="2" points="745.6671,-409.2268 742.167,-399.2269 738.6671,-409.2269 745.6671,-409.2268"/>
</g>
<!-- 4 -->
<g id="node5" class="node">
<title>4</title>
<path fill="none" stroke="#70d856" stroke-width="2" d="M426.839,-180C426.839,-180 313.495,-180 313.495,-180 307.495,-180 301.495,-174 301.495,-168 301.495,-168 301.495,-156 301.495,-156 301.495,-150 307.495,-144 313.495,-144 313.495,-144 426.839,-144 426.839,-144 432.839,-144 438.839,-150 438.839,-156 438.839,-156 438.839,-168 438.839,-168 438.839,-174 432.839,-180 426.839,-180"/>
<text text-anchor="middle" x="370.167" y="-159" font-family="sans" font-size="10.00" fill="#000000">call_variants_post_removal</text>
</g>
<!-- 4&#45;&gt;17 -->
<g id="edge26" class="edge">
<title>4&#45;&gt;17</title>
<path fill="none" stroke="#c0c0c0" stroke-width="2" d="M370.167,-143.8314C370.167,-136.131 370.167,-126.9743 370.167,-118.4166"/>
<polygon fill="#c0c0c0" stroke="#c0c0c0" stroke-width="2" points="373.6671,-118.4132 370.167,-108.4133 366.6671,-118.4133 373.6671,-118.4132"/>
</g>
<!-- 5 -->
<g id="node6" class="node">
<title>5</title>
<path fill="none" stroke="#70d856" stroke-width="2" d="M637.839,-180C637.839,-180 524.495,-180 524.495,-180 518.495,-180 512.495,-174 512.495,-168 512.495,-168 512.495,-156 512.495,-156 512.495,-150 518.495,-144 524.495,-144 524.495,-144 637.839,-144 637.839,-144 643.839,-144 649.839,-150 649.839,-156 649.839,-156 649.839,-168 649.839,-168 649.839,-174 643.839,-180 637.839,-180"/>
<text text-anchor="middle" x="581.167" y="-159" font-family="sans" font-size="10.00" fill="#000000">call_variants_post_removal</text>
</g>
<!-- 23 -->
<g id="node24" class="node">
<title>23</title>
<path fill="none" stroke="#56d89a" stroke-width="2" d="M704.1362,-108C704.1362,-108 652.1978,-108 652.1978,-108 646.1978,-108 640.1978,-102 640.1978,-96 640.1978,-96 640.1978,-84 640.1978,-84 640.1978,-78 646.1978,-72 652.1978,-72 652.1978,-72 704.1362,-72 704.1362,-72 710.1362,-72 716.1362,-78 716.1362,-84 716.1362,-84 716.1362,-96 716.1362,-96 716.1362,-102 710.1362,-108 704.1362,-108"/>
<text text-anchor="middle" x="678.167" y="-92" font-family="sans" font-size="10.00" fill="#000000">filter_variants</text>
<text text-anchor="middle" x="678.167" y="-82" font-family="sans" font-size="10.00" fill="#000000">sample: ZI26</text>
</g>
<!-- 5&#45;&gt;23 -->
<g id="edge36" class="edge">
<title>5&#45;&gt;23</title>
<path fill="none" stroke="#c0c0c0" stroke-width="2" d="M605.6442,-143.8314C617.7064,-134.8779 632.4209,-123.9558 645.4356,-114.2955"/>
<polygon fill="#c0c0c0" stroke="#c0c0c0" stroke-width="2" points="647.754,-116.9335 653.6976,-108.1628 643.5818,-111.3127 647.754,-116.9335"/>
</g>
<!-- 6 -->
<g id="node7" class="node">
<title>6</title>
<path fill="none" stroke="#ced856" stroke-width="2" d="M363.7493,-399C363.7493,-399 316.5847,-399 316.5847,-399 310.5847,-399 304.5847,-393 304.5847,-387 304.5847,-387 304.5847,-375 304.5847,-375 304.5847,-369 310.5847,-363 316.5847,-363 316.5847,-363 363.7493,-363 363.7493,-363 369.7493,-363 375.7493,-369 375.7493,-375 375.7493,-375 375.7493,-387 375.7493,-387 375.7493,-393 369.7493,-399 363.7493,-399"/>
<text text-anchor="middle" x="340.167" y="-378" font-family="sans" font-size="10.00" fill="#000000">call_variants</text>
</g>
<!-- 6&#45;&gt;29 -->
<g id="edge43" class="edge">
<title>6&#45;&gt;29</title>
<path fill="none" stroke="#c0c0c0" stroke-width="2" d="M329.0434,-362.9551C323.7969,-354.4441 317.4306,-344.1165 311.6394,-334.7219"/>
<polygon fill="#c0c0c0" stroke="#c0c0c0" stroke-width="2" points="314.5455,-332.7663 306.3186,-326.0904 308.5867,-336.4396 314.5455,-332.7663"/>
</g>
<!-- 7 -->
<g id="node8" class="node">
<title>7</title>
<path fill="none" stroke="#d8b456" stroke-width="2" d="M465.0321,-400C465.0321,-400 409.3019,-400 409.3019,-400 403.3019,-400 397.3019,-394 397.3019,-388 397.3019,-388 397.3019,-374 397.3019,-374 397.3019,-368 403.3019,-362 409.3019,-362 409.3019,-362 465.0321,-362 465.0321,-362 471.0321,-362 477.0321,-368 477.0321,-374 477.0321,-374 477.0321,-388 477.0321,-388 477.0321,-394 471.0321,-400 465.0321,-400"/>
<text text-anchor="middle" x="437.167" y="-388" font-family="sans" font-size="10.00" fill="#000000">create_bed</text>
<text text-anchor="middle" x="437.167" y="-378" font-family="sans" font-size="10.00" fill="#000000">rep: b</text>
<text text-anchor="middle" x="437.167" y="-368" font-family="sans" font-size="10.00" fill="#000000">sample: ZI27_</text>
</g>
<!-- 7&#45;&gt;17 -->
<g id="edge24" class="edge">
<title>7&#45;&gt;17</title>
<path fill="none" stroke="#c0c0c0" stroke-width="2" d="M444.218,-361.7823C458.4607,-319.5427 486.2091,-216.6059 448.167,-144 441.1489,-130.6055 429.1321,-119.873 416.6047,-111.6159"/>
<polygon fill="#c0c0c0" stroke="#c0c0c0" stroke-width="2" points="418.2621,-108.5268 407.9056,-106.2926 414.6084,-114.4976 418.2621,-108.5268"/>
</g>
<!-- 7&#45;&gt;29 -->
<g id="edge44" class="edge">
<title>7&#45;&gt;29</title>
<path fill="none" stroke="#c0c0c0" stroke-width="2" d="M399.8582,-361.8201C381.2725,-352.2655 358.6771,-340.6496 339.2416,-330.6581"/>
<polygon fill="#c0c0c0" stroke="#c0c0c0" stroke-width="2" points="340.7677,-327.5072 330.2738,-326.0479 337.5672,-333.7328 340.7677,-327.5072"/>
</g>
<!-- 8&#45;&gt;0 -->
<g id="edge3" class="edge">
<title>8&#45;&gt;0</title>
<path fill="none" stroke="#c0c0c0" stroke-width="2" d="M742.4142,-362.9551C742.5248,-354.8828 742.6577,-345.1764 742.7809,-336.1817"/>
<polygon fill="#c0c0c0" stroke="#c0c0c0" stroke-width="2" points="746.2818,-336.1374 742.9192,-326.0904 739.2824,-336.0414 746.2818,-336.1374"/>
</g>
<!-- 9 -->
<g id="node10" class="node">
<title>9</title>
<path fill="none" stroke="#d8b456" stroke-width="2" d="M677.0321,-400C677.0321,-400 621.3019,-400 621.3019,-400 615.3019,-400 609.3019,-394 609.3019,-388 609.3019,-388 609.3019,-374 609.3019,-374 609.3019,-368 615.3019,-362 621.3019,-362 621.3019,-362 677.0321,-362 677.0321,-362 683.0321,-362 689.0321,-368 689.0321,-374 689.0321,-374 689.0321,-388 689.0321,-388 689.0321,-394 683.0321,-400 677.0321,-400"/>
<text text-anchor="middle" x="649.167" y="-388" font-family="sans" font-size="10.00" fill="#000000">create_bed</text>
<text text-anchor="middle" x="649.167" y="-378" font-family="sans" font-size="10.00" fill="#000000">rep: a</text>
<text text-anchor="middle" x="649.167" y="-368" font-family="sans" font-size="10.00" fill="#000000">sample: ZI26_</text>
</g>
<!-- 9&#45;&gt;0 -->
<g id="edge2" class="edge">
<title>9&#45;&gt;0</title>
<path fill="none" stroke="#c0c0c0" stroke-width="2" d="M673.8644,-361.8201C685.4439,-352.8275 699.3746,-342.009 711.6997,-332.4374"/>
<polygon fill="#c0c0c0" stroke="#c0c0c0" stroke-width="2" points="714.176,-334.9458 719.9273,-326.0479 709.8824,-329.4172 714.176,-334.9458"/>
</g>
<!-- 9&#45;&gt;23 -->
<g id="edge34" class="edge">
<title>9&#45;&gt;23</title>
<path fill="none" stroke="#c0c0c0" stroke-width="2" d="M651.0698,-361.9067C656.0521,-311.9116 669.4991,-176.9778 675.3659,-118.108"/>
<polygon fill="#c0c0c0" stroke="#c0c0c0" stroke-width="2" points="678.8603,-118.3364 676.3693,-108.0385 671.8948,-117.6421 678.8603,-118.3364"/>
</g>
<!-- 10 -->
<g id="node11" class="node">
<title>10</title>
<path fill="none" stroke="#56b1d8" stroke-width="2" d="M398.0879,-254C398.0879,-254 342.2461,-254 342.2461,-254 336.2461,-254 330.2461,-248 330.2461,-242 330.2461,-242 330.2461,-228 330.2461,-228 330.2461,-222 336.2461,-216 342.2461,-216 342.2461,-216 398.0879,-216 398.0879,-216 404.0879,-216 410.0879,-222 410.0879,-228 410.0879,-228 410.0879,-242 410.0879,-242 410.0879,-248 404.0879,-254 398.0879,-254"/>
<text text-anchor="middle" x="370.167" y="-242" font-family="sans" font-size="10.00" fill="#000000">remove_reads</text>
<text text-anchor="middle" x="370.167" y="-232" font-family="sans" font-size="10.00" fill="#000000">rep: b</text>
<text text-anchor="middle" x="370.167" y="-222" font-family="sans" font-size="10.00" fill="#000000">sample: ZI27_</text>
</g>
<!-- 10&#45;&gt;4 -->
<g id="edge8" class="edge">
<title>10&#45;&gt;4</title>
<path fill="none" stroke="#c0c0c0" stroke-width="2" d="M370.167,-215.8201C370.167,-208.0975 370.167,-199.0282 370.167,-190.5585"/>
<polygon fill="#c0c0c0" stroke="#c0c0c0" stroke-width="2" points="373.6671,-190.2973 370.167,-180.2973 366.6671,-190.2974 373.6671,-190.2973"/>
</g>
<!-- 11 -->
<g id="node12" class="node">
<title>11</title>
<path fill="none" stroke="#d85656" stroke-width="2" d="M518.5012,-618C518.5012,-618 313.8328,-618 313.8328,-618 307.8328,-618 301.8328,-612 301.8328,-606 301.8328,-606 301.8328,-594 301.8328,-594 301.8328,-588 307.8328,-582 313.8328,-582 313.8328,-582 518.5012,-582 518.5012,-582 524.5012,-582 530.5012,-588 530.5012,-594 530.5012,-594 530.5012,-606 530.5012,-606 530.5012,-612 524.5012,-618 518.5012,-618"/>
<text text-anchor="middle" x="416.167" y="-602" font-family="sans" font-size="10.00" fill="#000000">trim_primer_quality</text>
<text text-anchor="middle" x="416.167" y="-592" font-family="sans" font-size="10.00" fill="#000000">out_dir: /Users/karthik/hpc_downloads/test_field</text>
</g>
<!-- 11&#45;&gt;10 -->
<g id="edge16" class="edge">
<title>11&#45;&gt;10</title>
<path fill="none" stroke="#c0c0c0" stroke-width="2" d="M436.8091,-581.5998C463.1006,-556.0263 505.167,-506.9858 505.167,-455 505.167,-455 505.167,-455 505.167,-381 505.167,-326.9198 454.6162,-284.3558 415.3811,-259.4642"/>
<polygon fill="#c0c0c0" stroke="#c0c0c0" stroke-width="2" points="417.051,-256.3822 406.6999,-254.1225 413.3825,-262.344 417.051,-256.3822"/>
</g>
<!-- 15 -->
<g id="node16" class="node">
<title>15</title>
<path fill="none" stroke="#9fd856" stroke-width="2" d="M446.5418,-546C446.5418,-546 385.7921,-546 385.7921,-546 379.7921,-546 373.7921,-540 373.7921,-534 373.7921,-534 373.7921,-522 373.7921,-522 373.7921,-516 379.7921,-510 385.7921,-510 385.7921,-510 446.5418,-510 446.5418,-510 452.5418,-510 458.5418,-516 458.5418,-522 458.5418,-522 458.5418,-534 458.5418,-534 458.5418,-540 452.5418,-546 446.5418,-546"/>
<text text-anchor="middle" x="416.167" y="-525" font-family="sans" font-size="10.00" fill="#000000">call_consensus</text>
</g>
<!-- 11&#45;&gt;15 -->
<g id="edge22" class="edge">
<title>11&#45;&gt;15</title>
<path fill="none" stroke="#c0c0c0" stroke-width="2" d="M416.167,-581.8314C416.167,-574.131 416.167,-564.9743 416.167,-556.4166"/>
<polygon fill="#c0c0c0" stroke="#c0c0c0" stroke-width="2" points="419.6671,-556.4132 416.167,-546.4133 412.6671,-556.4133 419.6671,-556.4132"/>
</g>
<!-- 12 -->
<g id="node13" class="node">
<title>12</title>
<path fill="none" stroke="#d88556" stroke-width="2" d="M994.5928,-690C994.5928,-690 933.7412,-690 933.7412,-690 927.7412,-690 921.7412,-684 921.7412,-678 921.7412,-678 921.7412,-666 921.7412,-666 921.7412,-660 927.7412,-654 933.7412,-654 933.7412,-654 994.5928,-654 994.5928,-654 1000.5928,-654 1006.5928,-660 1006.5928,-666 1006.5928,-666 1006.5928,-678 1006.5928,-678 1006.5928,-684 1000.5928,-690 994.5928,-690"/>
<text text-anchor="middle" x="964.167" y="-674" font-family="sans" font-size="10.00" fill="#000000">align_reads</text>
<text text-anchor="middle" x="964.167" y="-664" font-family="sans" font-size="10.00" fill="#000000">sample: ZI26_b</text>
</g>
<!-- 12&#45;&gt;2 -->
<g id="edge6" class="edge">
<title>12&#45;&gt;2</title>
<path fill="none" stroke="#c0c0c0" stroke-width="2" d="M964.167,-653.8314C964.167,-646.131 964.167,-636.9743 964.167,-628.4166"/>
<polygon fill="#c0c0c0" stroke="#c0c0c0" stroke-width="2" points="967.6671,-628.4132 964.167,-618.4133 960.6671,-628.4133 967.6671,-628.4132"/>
</g>
<!-- 13 -->
<g id="node14" class="node">
<title>13</title>
<path fill="none" stroke="#5682d8" stroke-width="2" d="M376.5662,-474C376.5662,-474 295.7678,-474 295.7678,-474 289.7678,-474 283.7678,-468 283.7678,-462 283.7678,-462 283.7678,-448 283.7678,-448 283.7678,-442 289.7678,-436 295.7678,-436 295.7678,-436 376.5662,-436 376.5662,-436 382.5662,-436 388.5662,-442 388.5662,-448 388.5662,-448 388.5662,-462 388.5662,-462 388.5662,-468 382.5662,-474 376.5662,-474"/>
<text text-anchor="middle" x="336.167" y="-462" font-family="sans" font-size="10.00" fill="#000000">align_to_consensus</text>
<text text-anchor="middle" x="336.167" y="-452" font-family="sans" font-size="10.00" fill="#000000">rep: b</text>
<text text-anchor="middle" x="336.167" y="-442" font-family="sans" font-size="10.00" fill="#000000">sample: ZI27_</text>
</g>
<!-- 13&#45;&gt;6 -->
<g id="edge10" class="edge">
<title>13&#45;&gt;6</title>
<path fill="none" stroke="#c0c0c0" stroke-width="2" d="M337.1971,-435.9432C337.6363,-427.8174 338.1579,-418.1682 338.6405,-409.2408"/>
<polygon fill="#c0c0c0" stroke="#c0c0c0" stroke-width="2" points="342.1368,-409.4012 339.1818,-399.2269 335.147,-409.0233 342.1368,-409.4012"/>
</g>
<!-- 14 -->
<g id="node15" class="node">
<title>14</title>
<path fill="none" stroke="#ced856" stroke-width="2" d="M855.7493,-399C855.7493,-399 808.5847,-399 808.5847,-399 802.5847,-399 796.5847,-393 796.5847,-387 796.5847,-387 796.5847,-375 796.5847,-375 796.5847,-369 802.5847,-363 808.5847,-363 808.5847,-363 855.7493,-363 855.7493,-363 861.7493,-363 867.7493,-369 867.7493,-375 867.7493,-375 867.7493,-387 867.7493,-387 867.7493,-393 861.7493,-399 855.7493,-399"/>
<text text-anchor="middle" x="832.167" y="-378" font-family="sans" font-size="10.00" fill="#000000">call_variants</text>
</g>
<!-- 14&#45;&gt;0 -->
<g id="edge4" class="edge">
<title>14&#45;&gt;0</title>
<path fill="none" stroke="#c0c0c0" stroke-width="2" d="M810.167,-362.9551C799.0418,-353.8299 785.3706,-342.6165 773.2851,-332.7036"/>
<polygon fill="#c0c0c0" stroke="#c0c0c0" stroke-width="2" points="775.1739,-329.7261 765.2224,-326.0904 770.7346,-335.1384 775.1739,-329.7261"/>
</g>
<!-- 15&#45;&gt;6 -->
<g id="edge11" class="edge">
<title>15&#45;&gt;6</title>
<path fill="none" stroke="#c0c0c0" stroke-width="2" d="M415.5689,-509.9719C414.2396,-490.596 410.0713,-459.4284 397.167,-436 390.999,-424.8017 381.7935,-414.4833 372.5702,-405.8826"/>
<polygon fill="#c0c0c0" stroke="#c0c0c0" stroke-width="2" points="374.6927,-403.0871 364.8847,-399.0803 370.0533,-408.3289 374.6927,-403.0871"/>
</g>
<!-- 15&#45;&gt;7 -->
<g id="edge12" class="edge">
<title>15&#45;&gt;7</title>
<path fill="none" stroke="#c0c0c0" stroke-width="2" d="M421.786,-509.6805C424.7471,-499.308 428.1698,-486.0385 430.167,-474 433.667,-452.9029 435.4187,-428.82 436.2946,-410.4479"/>
<polygon fill="#c0c0c0" stroke="#c0c0c0" stroke-width="2" points="439.7956,-410.4935 436.7156,-400.3563 432.8017,-410.2017 439.7956,-410.4935"/>
</g>
<!-- 15&#45;&gt;13 -->
<g id="edge19" class="edge">
<title>15&#45;&gt;13</title>
<path fill="none" stroke="#c0c0c0" stroke-width="2" d="M396.3917,-509.9551C386.7856,-501.1895 375.0677,-490.4969 364.53,-480.8812"/>
<polygon fill="#c0c0c0" stroke="#c0c0c0" stroke-width="2" points="366.8586,-478.268 357.1126,-474.1128 362.1403,-483.4388 366.8586,-478.268"/>
</g>
<!-- 16 -->
<g id="node17" class="node">
<title>16</title>
<path fill="none" stroke="#d88556" stroke-width="2" d="M692.5928,-690C692.5928,-690 631.7412,-690 631.7412,-690 625.7412,-690 619.7412,-684 619.7412,-678 619.7412,-678 619.7412,-666 619.7412,-666 619.7412,-660 625.7412,-654 631.7412,-654 631.7412,-654 692.5928,-654 692.5928,-654 698.5928,-654 704.5928,-660 704.5928,-666 704.5928,-666 704.5928,-678 704.5928,-678 704.5928,-684 698.5928,-690 692.5928,-690"/>
<text text-anchor="middle" x="662.167" y="-674" font-family="sans" font-size="10.00" fill="#000000">align_reads</text>
<text text-anchor="middle" x="662.167" y="-664" font-family="sans" font-size="10.00" fill="#000000">sample: ZI26_a</text>
</g>
<!-- 34 -->
<g id="node35" class="node">
<title>34</title>
<path fill="none" stroke="#d85656" stroke-width="2" d="M764.5012,-618C764.5012,-618 559.8328,-618 559.8328,-618 553.8328,-618 547.8328,-612 547.8328,-606 547.8328,-606 547.8328,-594 547.8328,-594 547.8328,-588 553.8328,-582 559.8328,-582 559.8328,-582 764.5012,-582 764.5012,-582 770.5012,-582 776.5012,-588 776.5012,-594 776.5012,-594 776.5012,-606 776.5012,-606 776.5012,-612 770.5012,-618 764.5012,-618"/>
<text text-anchor="middle" x="662.167" y="-602" font-family="sans" font-size="10.00" fill="#000000">trim_primer_quality</text>
<text text-anchor="middle" x="662.167" y="-592" font-family="sans" font-size="10.00" fill="#000000">out_dir: /Users/karthik/hpc_downloads/test_field</text>
</g>
<!-- 16&#45;&gt;34 -->
<g id="edge52" class="edge">
<title>16&#45;&gt;34</title>
<path fill="none" stroke="#c0c0c0" stroke-width="2" d="M662.167,-653.8314C662.167,-646.131 662.167,-636.9743 662.167,-628.4166"/>
<polygon fill="#c0c0c0" stroke="#c0c0c0" stroke-width="2" points="665.6671,-628.4132 662.167,-618.4133 658.6671,-628.4133 665.6671,-628.4132"/>
</g>
<!-- 33 -->
<g id="node34" class="node">
<title>33</title>
<path fill="none" stroke="#56d8c9" stroke-width="2" d="M539.167,-36C539.167,-36 509.167,-36 509.167,-36 503.167,-36 497.167,-30 497.167,-24 497.167,-24 497.167,-12 497.167,-12 497.167,-6 503.167,0 509.167,0 509.167,0 539.167,0 539.167,0 545.167,0 551.167,-6 551.167,-12 551.167,-12 551.167,-24 551.167,-24 551.167,-30 545.167,-36 539.167,-36"/>
<text text-anchor="middle" x="524.167" y="-15" font-family="sans" font-size="10.00" fill="#000000">all</text>
</g>
<!-- 17&#45;&gt;33 -->
<g id="edge51" class="edge">
<title>17&#45;&gt;33</title>
<path fill="none" stroke="#c0c0c0" stroke-width="2" d="M408.2344,-72.2022C432.6104,-60.8057 464.0504,-46.1065 488.0384,-34.8913"/>
<polygon fill="#c0c0c0" stroke="#c0c0c0" stroke-width="2" points="489.5868,-38.0311 497.1633,-30.6251 486.6221,-31.6899 489.5868,-38.0311"/>
</g>
<!-- 18 -->
<g id="node19" class="node">
<title>18</title>
<path fill="none" stroke="#5682d8" stroke-width="2" d="M942.5662,-474C942.5662,-474 861.7678,-474 861.7678,-474 855.7678,-474 849.7678,-468 849.7678,-462 849.7678,-462 849.7678,-448 849.7678,-448 849.7678,-442 855.7678,-436 861.7678,-436 861.7678,-436 942.5662,-436 942.5662,-436 948.5662,-436 954.5662,-442 954.5662,-448 954.5662,-448 954.5662,-462 954.5662,-462 954.5662,-468 948.5662,-474 942.5662,-474"/>
<text text-anchor="middle" x="902.167" y="-462" font-family="sans" font-size="10.00" fill="#000000">align_to_consensus</text>
<text text-anchor="middle" x="902.167" y="-452" font-family="sans" font-size="10.00" fill="#000000">rep: b</text>
<text text-anchor="middle" x="902.167" y="-442" font-family="sans" font-size="10.00" fill="#000000">sample: ZI26_</text>
</g>
<!-- 18&#45;&gt;14 -->
<g id="edge20" class="edge">
<title>18&#45;&gt;14</title>
<path fill="none" stroke="#c0c0c0" stroke-width="2" d="M884.1403,-435.9432C875.7018,-427.0225 865.5264,-416.2657 856.4244,-406.6436"/>
<polygon fill="#c0c0c0" stroke="#c0c0c0" stroke-width="2" points="858.8233,-404.0864 849.4086,-399.2269 853.738,-408.8968 858.8233,-404.0864"/>
</g>
<!-- 19 -->
<g id="node20" class="node">
<title>19</title>
<path fill="none" stroke="#d88556" stroke-width="2" d="M144.5928,-690C144.5928,-690 83.7412,-690 83.7412,-690 77.7412,-690 71.7412,-684 71.7412,-678 71.7412,-678 71.7412,-666 71.7412,-666 71.7412,-660 77.7412,-654 83.7412,-654 83.7412,-654 144.5928,-654 144.5928,-654 150.5928,-654 156.5928,-660 156.5928,-666 156.5928,-666 156.5928,-678 156.5928,-678 156.5928,-684 150.5928,-690 144.5928,-690"/>
<text text-anchor="middle" x="114.167" y="-674" font-family="sans" font-size="10.00" fill="#000000">align_reads</text>
<text text-anchor="middle" x="114.167" y="-664" font-family="sans" font-size="10.00" fill="#000000">sample: ZI27_a</text>
</g>
<!-- 26 -->
<g id="node27" class="node">
<title>26</title>
<path fill="none" stroke="#d85656" stroke-width="2" d="M216.5012,-618C216.5012,-618 11.8328,-618 11.8328,-618 5.8328,-618 -.1672,-612 -.1672,-606 -.1672,-606 -.1672,-594 -.1672,-594 -.1672,-588 5.8328,-582 11.8328,-582 11.8328,-582 216.5012,-582 216.5012,-582 222.5012,-582 228.5012,-588 228.5012,-594 228.5012,-594 228.5012,-606 228.5012,-606 228.5012,-612 222.5012,-618 216.5012,-618"/>
<text text-anchor="middle" x="114.167" y="-602" font-family="sans" font-size="10.00" fill="#000000">trim_primer_quality</text>
<text text-anchor="middle" x="114.167" y="-592" font-family="sans" font-size="10.00" fill="#000000">out_dir: /Users/karthik/hpc_downloads/test_field</text>
</g>
<!-- 19&#45;&gt;26 -->
<g id="edge40" class="edge">
<title>19&#45;&gt;26</title>
<path fill="none" stroke="#c0c0c0" stroke-width="2" d="M114.167,-653.8314C114.167,-646.131 114.167,-636.9743 114.167,-628.4166"/>
<polygon fill="#c0c0c0" stroke="#c0c0c0" stroke-width="2" points="117.6671,-628.4132 114.167,-618.4133 110.6671,-628.4133 117.6671,-628.4132"/>
</g>
<!-- 28 -->
<g id="node29" class="node">
<title>28</title>
<path fill="none" stroke="#70d856" stroke-width="2" d="M961.839,-180C961.839,-180 848.495,-180 848.495,-180 842.495,-180 836.495,-174 836.495,-168 836.495,-168 836.495,-156 836.495,-156 836.495,-150 842.495,-144 848.495,-144 848.495,-144 961.839,-144 961.839,-144 967.839,-144 973.839,-150 973.839,-156 973.839,-156 973.839,-168 973.839,-168 973.839,-174 967.839,-180 961.839,-180"/>
<text text-anchor="middle" x="905.167" y="-159" font-family="sans" font-size="10.00" fill="#000000">call_variants_post_removal</text>
</g>
<!-- 20&#45;&gt;28 -->
<g id="edge42" class="edge">
<title>20&#45;&gt;28</title>
<path fill="none" stroke="#c0c0c0" stroke-width="2" d="M905.167,-215.8201C905.167,-208.0975 905.167,-199.0282 905.167,-190.5585"/>
<polygon fill="#c0c0c0" stroke="#c0c0c0" stroke-width="2" points="908.6671,-190.2973 905.167,-180.2973 901.6671,-190.2974 908.6671,-190.2973"/>
</g>
<!-- 21 -->
<g id="node22" class="node">
<title>21</title>
<path fill="none" stroke="#56b1d8" stroke-width="2" d="M243.0879,-254C243.0879,-254 187.2461,-254 187.2461,-254 181.2461,-254 175.2461,-248 175.2461,-242 175.2461,-242 175.2461,-228 175.2461,-228 175.2461,-222 181.2461,-216 187.2461,-216 187.2461,-216 243.0879,-216 243.0879,-216 249.0879,-216 255.0879,-222 255.0879,-228 255.0879,-228 255.0879,-242 255.0879,-242 255.0879,-248 249.0879,-254 243.0879,-254"/>
<text text-anchor="middle" x="215.167" y="-242" font-family="sans" font-size="10.00" fill="#000000">remove_reads</text>
<text text-anchor="middle" x="215.167" y="-232" font-family="sans" font-size="10.00" fill="#000000">rep: a</text>
<text text-anchor="middle" x="215.167" y="-222" font-family="sans" font-size="10.00" fill="#000000">sample: ZI27_</text>
</g>
<!-- 27 -->
<g id="node28" class="node">
<title>27</title>
<path fill="none" stroke="#70d856" stroke-width="2" d="M271.839,-180C271.839,-180 158.495,-180 158.495,-180 152.495,-180 146.495,-174 146.495,-168 146.495,-168 146.495,-156 146.495,-156 146.495,-150 152.495,-144 158.495,-144 158.495,-144 271.839,-144 271.839,-144 277.839,-144 283.839,-150 283.839,-156 283.839,-156 283.839,-168 283.839,-168 283.839,-174 277.839,-180 271.839,-180"/>
<text text-anchor="middle" x="215.167" y="-159" font-family="sans" font-size="10.00" fill="#000000">call_variants_post_removal</text>
</g>
<!-- 21&#45;&gt;27 -->
<g id="edge41" class="edge">
<title>21&#45;&gt;27</title>
<path fill="none" stroke="#c0c0c0" stroke-width="2" d="M215.167,-215.8201C215.167,-208.0975 215.167,-199.0282 215.167,-190.5585"/>
<polygon fill="#c0c0c0" stroke="#c0c0c0" stroke-width="2" points="218.6671,-190.2973 215.167,-180.2973 211.6671,-190.2974 218.6671,-190.2973"/>
</g>
<!-- 22&#45;&gt;14 -->
<g id="edge21" class="edge">
<title>22&#45;&gt;14</title>
<path fill="none" stroke="#c0c0c0" stroke-width="2" d="M883.6934,-510.8573C867.7186,-502.2157 851.0467,-490.0907 841.167,-474 829.3506,-454.7551 827.7246,-428.9377 828.7,-409.3879"/>
<polygon fill="#c0c0c0" stroke="#c0c0c0" stroke-width="2" points="832.2023,-409.4874 829.4614,-399.2532 825.222,-408.9629 832.2023,-409.4874"/>
</g>
<!-- 22&#45;&gt;18 -->
<g id="edge27" class="edge">
<title>22&#45;&gt;18</title>
<path fill="none" stroke="#c0c0c0" stroke-width="2" d="M920.2344,-509.9551C917.6324,-502.0405 914.5138,-492.5549 911.6058,-483.7096"/>
<polygon fill="#c0c0c0" stroke="#c0c0c0" stroke-width="2" points="914.8989,-482.5195 908.4507,-474.1128 908.249,-484.7058 914.8989,-482.5195"/>
</g>
<!-- 25 -->
<g id="node26" class="node">
<title>25</title>
<path fill="none" stroke="#d8b456" stroke-width="2" d="M953.0321,-400C953.0321,-400 897.3019,-400 897.3019,-400 891.3019,-400 885.3019,-394 885.3019,-388 885.3019,-388 885.3019,-374 885.3019,-374 885.3019,-368 891.3019,-362 897.3019,-362 897.3019,-362 953.0321,-362 953.0321,-362 959.0321,-362 965.0321,-368 965.0321,-374 965.0321,-374 965.0321,-388 965.0321,-388 965.0321,-394 959.0321,-400 953.0321,-400"/>
<text text-anchor="middle" x="925.167" y="-388" font-family="sans" font-size="10.00" fill="#000000">create_bed</text>
<text text-anchor="middle" x="925.167" y="-378" font-family="sans" font-size="10.00" fill="#000000">rep: b</text>
<text text-anchor="middle" x="925.167" y="-368" font-family="sans" font-size="10.00" fill="#000000">sample: ZI26_</text>
</g>
<!-- 22&#45;&gt;25 -->
<g id="edge39" class="edge">
<title>22&#45;&gt;25</title>
<path fill="none" stroke="#c0c0c0" stroke-width="2" d="M942.5951,-509.989C950.4695,-500.1289 959.0649,-487.2441 963.167,-474 968.1638,-457.8672 968.1951,-452.1231 963.167,-436 960.1153,-426.2144 954.6463,-416.6344 948.7911,-408.283"/>
<polygon fill="#c0c0c0" stroke="#c0c0c0" stroke-width="2" points="951.4324,-405.9711 942.6348,-400.0675 945.8307,-410.1688 951.4324,-405.9711"/>
</g>
<!-- 23&#45;&gt;33 -->
<g id="edge50" class="edge">
<title>23&#45;&gt;33</title>
<path fill="none" stroke="#c0c0c0" stroke-width="2" d="M640.0996,-72.2022C615.7236,-60.8057 584.2836,-46.1065 560.2956,-34.8913"/>
<polygon fill="#c0c0c0" stroke="#c0c0c0" stroke-width="2" points="561.7119,-31.6899 551.1707,-30.6251 558.7472,-38.0311 561.7119,-31.6899"/>
</g>
<!-- 24 -->
<g id="node25" class="node">
<title>24</title>
<path fill="none" stroke="#ced856" stroke-width="2" d="M273.7493,-399C273.7493,-399 226.5847,-399 226.5847,-399 220.5847,-399 214.5847,-393 214.5847,-387 214.5847,-387 214.5847,-375 214.5847,-375 214.5847,-369 220.5847,-363 226.5847,-363 226.5847,-363 273.7493,-363 273.7493,-363 279.7493,-363 285.7493,-369 285.7493,-375 285.7493,-375 285.7493,-387 285.7493,-387 285.7493,-393 279.7493,-399 273.7493,-399"/>
<text text-anchor="middle" x="250.167" y="-378" font-family="sans" font-size="10.00" fill="#000000">call_variants</text>
</g>
<!-- 24&#45;&gt;29 -->
<g id="edge46" class="edge">
<title>24&#45;&gt;29</title>
<path fill="none" stroke="#c0c0c0" stroke-width="2" d="M261.2906,-362.9551C266.5371,-354.4441 272.9034,-344.1165 278.6946,-334.7219"/>
<polygon fill="#c0c0c0" stroke="#c0c0c0" stroke-width="2" points="281.7473,-336.4396 284.0154,-326.0904 275.7885,-332.7663 281.7473,-336.4396"/>
</g>
<!-- 25&#45;&gt;0 -->
<g id="edge1" class="edge">
<title>25&#45;&gt;0</title>
<path fill="none" stroke="#c0c0c0" stroke-width="2" d="M885.2263,-364.9798C856.9949,-353.6562 819.0696,-338.4445 789.5063,-326.5866"/>
<polygon fill="#c0c0c0" stroke="#c0c0c0" stroke-width="2" points="790.8087,-323.338 780.2245,-322.8637 788.2028,-329.8349 790.8087,-323.338"/>
</g>
<!-- 25&#45;&gt;23 -->
<g id="edge33" class="edge">
<title>25&#45;&gt;23</title>
<path fill="none" stroke="#c0c0c0" stroke-width="2" d="M908.9606,-361.9067C865.9967,-311.2893 749.1309,-173.6053 700.1892,-115.9452"/>
<polygon fill="#c0c0c0" stroke="#c0c0c0" stroke-width="2" points="702.6176,-113.3976 693.4781,-108.0385 697.2809,-117.9274 702.6176,-113.3976"/>
</g>
<!-- 26&#45;&gt;21 -->
<g id="edge30" class="edge">
<title>26&#45;&gt;21</title>
<path fill="none" stroke="#c0c0c0" stroke-width="2" d="M102.0158,-581.6474C85.5458,-554.9497 58.167,-503.3045 58.167,-455 58.167,-455 58.167,-455 58.167,-381 58.167,-321.2799 119.8377,-279.0683 165.8757,-255.877"/>
<polygon fill="#c0c0c0" stroke="#c0c0c0" stroke-width="2" points="167.6907,-258.8859 175.143,-251.3551 164.621,-252.5949 167.6907,-258.8859"/>
</g>
<!-- 36 -->
<g id="node37" class="node">
<title>36</title>
<path fill="none" stroke="#9fd856" stroke-width="2" d="M182.5418,-546C182.5418,-546 121.7921,-546 121.7921,-546 115.7921,-546 109.7921,-540 109.7921,-534 109.7921,-534 109.7921,-522 109.7921,-522 109.7921,-516 115.7921,-510 121.7921,-510 121.7921,-510 182.5418,-510 182.5418,-510 188.5418,-510 194.5418,-516 194.5418,-522 194.5418,-522 194.5418,-534 194.5418,-534 194.5418,-540 188.5418,-546 182.5418,-546"/>
<text text-anchor="middle" x="152.167" y="-525" font-family="sans" font-size="10.00" fill="#000000">call_consensus</text>
</g>
<!-- 26&#45;&gt;36 -->
<g id="edge54" class="edge">
<title>26&#45;&gt;36</title>
<path fill="none" stroke="#c0c0c0" stroke-width="2" d="M123.756,-581.8314C127.9987,-573.7925 133.0791,-564.1666 137.763,-555.2918"/>
<polygon fill="#c0c0c0" stroke="#c0c0c0" stroke-width="2" points="140.8766,-556.8908 142.4489,-546.4133 134.6859,-553.6235 140.8766,-556.8908"/>
</g>
<!-- 27&#45;&gt;17 -->
<g id="edge25" class="edge">
<title>27&#45;&gt;17</title>
<path fill="none" stroke="#c0c0c0" stroke-width="2" d="M254.28,-143.8314C275.2321,-134.0988 301.1921,-122.04 323.2273,-111.8043"/>
<polygon fill="#c0c0c0" stroke="#c0c0c0" stroke-width="2" points="324.8098,-114.9284 332.4046,-107.5412 321.8608,-108.5799 324.8098,-114.9284"/>
</g>
<!-- 28&#45;&gt;23 -->
<g id="edge35" class="edge">
<title>28&#45;&gt;23</title>
<path fill="none" stroke="#c0c0c0" stroke-width="2" d="M848.1783,-143.9243C810.364,-131.9303 761.3141,-116.3726 725.6243,-105.0525"/>
<polygon fill="#c0c0c0" stroke="#c0c0c0" stroke-width="2" points="726.5229,-101.6658 715.9327,-101.9785 724.4065,-108.3382 726.5229,-101.6658"/>
</g>
<!-- 29&#45;&gt;10 -->
<g id="edge17" class="edge">
<title>29&#45;&gt;10</title>
<path fill="none" stroke="#c0c0c0" stroke-width="2" d="M313.7063,-289.9551C322.6246,-281.2746 333.4845,-270.7043 343.2886,-261.1616"/>
<polygon fill="#c0c0c0" stroke="#c0c0c0" stroke-width="2" points="345.8057,-263.5958 350.5305,-254.1128 340.9233,-258.5796 345.8057,-263.5958"/>
</g>
<!-- 29&#45;&gt;21 -->
<g id="edge31" class="edge">
<title>29&#45;&gt;21</title>
<path fill="none" stroke="#c0c0c0" stroke-width="2" d="M275.3917,-289.9551C265.7856,-281.1895 254.0677,-270.4969 243.53,-260.8812"/>
<polygon fill="#c0c0c0" stroke="#c0c0c0" stroke-width="2" points="245.8586,-258.268 236.1126,-254.1128 241.1403,-263.4388 245.8586,-258.268"/>
</g>
<!-- 30 -->
<g id="node31" class="node">
<title>30</title>
<path fill="none" stroke="#d88556" stroke-width="2" d="M446.5928,-690C446.5928,-690 385.7412,-690 385.7412,-690 379.7412,-690 373.7412,-684 373.7412,-678 373.7412,-678 373.7412,-666 373.7412,-666 373.7412,-660 379.7412,-654 385.7412,-654 385.7412,-654 446.5928,-654 446.5928,-654 452.5928,-654 458.5928,-660 458.5928,-666 458.5928,-666 458.5928,-678 458.5928,-678 458.5928,-684 452.5928,-690 446.5928,-690"/>
<text text-anchor="middle" x="416.167" y="-674" font-family="sans" font-size="10.00" fill="#000000">align_reads</text>
<text text-anchor="middle" x="416.167" y="-664" font-family="sans" font-size="10.00" fill="#000000">sample: ZI27_b</text>
</g>
<!-- 30&#45;&gt;11 -->
<g id="edge18" class="edge">
<title>30&#45;&gt;11</title>
<path fill="none" stroke="#c0c0c0" stroke-width="2" d="M416.167,-653.8314C416.167,-646.131 416.167,-636.9743 416.167,-628.4166"/>
<polygon fill="#c0c0c0" stroke="#c0c0c0" stroke-width="2" points="419.6671,-628.4132 416.167,-618.4133 412.6671,-628.4133 419.6671,-628.4132"/>
</g>
<!-- 31&#45;&gt;5 -->
<g id="edge9" class="edge">
<title>31&#45;&gt;5</title>
<path fill="none" stroke="#c0c0c0" stroke-width="2" d="M581.167,-215.8201C581.167,-208.0975 581.167,-199.0282 581.167,-190.5585"/>
<polygon fill="#c0c0c0" stroke="#c0c0c0" stroke-width="2" points="584.6671,-190.2973 581.167,-180.2973 577.6671,-190.2974 584.6671,-190.2973"/>
</g>
<!-- 32 -->
<g id="node33" class="node">
<title>32</title>
<path fill="none" stroke="#9fd856" stroke-width="2" d="M692.5418,-546C692.5418,-546 631.7921,-546 631.7921,-546 625.7921,-546 619.7921,-540 619.7921,-534 619.7921,-534 619.7921,-522 619.7921,-522 619.7921,-516 625.7921,-510 631.7921,-510 631.7921,-510 692.5418,-510 692.5418,-510 698.5418,-510 704.5418,-516 704.5418,-522 704.5418,-522 704.5418,-534 704.5418,-534 704.5418,-540 698.5418,-546 692.5418,-546"/>
<text text-anchor="middle" x="662.167" y="-525" font-family="sans" font-size="10.00" fill="#000000">call_consensus</text>
</g>
<!-- 32&#45;&gt;3 -->
<g id="edge7" class="edge">
<title>32&#45;&gt;3</title>
<path fill="none" stroke="#c0c0c0" stroke-width="2" d="M681.9423,-509.9551C691.5484,-501.1895 703.2663,-490.4969 713.804,-480.8812"/>
<polygon fill="#c0c0c0" stroke="#c0c0c0" stroke-width="2" points="716.1937,-483.4388 721.2214,-474.1128 711.4754,-478.268 716.1937,-483.4388"/>
</g>
<!-- 32&#45;&gt;8 -->
<g id="edge14" class="edge">
<title>32&#45;&gt;8</title>
<path fill="none" stroke="#c0c0c0" stroke-width="2" d="M662.6123,-509.8861C663.811,-490.4368 667.8683,-459.2069 681.167,-436 687.7123,-424.5782 697.4699,-414.2415 707.2717,-405.6928"/>
<polygon fill="#c0c0c0" stroke="#c0c0c0" stroke-width="2" points="709.6062,-408.3041 715.0815,-399.2337 705.1449,-402.9099 709.6062,-408.3041"/>
</g>
<!-- 32&#45;&gt;9 -->
<g id="edge15" class="edge">
<title>32&#45;&gt;9</title>
<path fill="none" stroke="#c0c0c0" stroke-width="2" d="M656.1971,-509.7319C653.1262,-499.3756 649.7106,-486.105 648.167,-474 645.4693,-452.845 645.8214,-428.7639 646.7945,-410.4071"/>
<polygon fill="#c0c0c0" stroke="#c0c0c0" stroke-width="2" points="650.2939,-410.5236 647.4208,-400.3258 643.3073,-410.0895 650.2939,-410.5236"/>
</g>
<!-- 34&#45;&gt;31 -->
<g id="edge48" class="edge">
<title>34&#45;&gt;31</title>
<path fill="none" stroke="#c0c0c0" stroke-width="2" d="M641.2436,-581.9682C630.9882,-572.1986 619.1576,-559.4019 611.167,-546 589.3584,-509.4225 581.167,-497.5856 581.167,-455 581.167,-455 581.167,-455 581.167,-381 581.167,-340.591 581.167,-293.8909 581.167,-264.406"/>
<polygon fill="#c0c0c0" stroke="#c0c0c0" stroke-width="2" points="584.6671,-264.3656 581.167,-254.3656 577.6671,-264.3657 584.6671,-264.3656"/>
</g>
<!-- 34&#45;&gt;32 -->
<g id="edge49" class="edge">
<title>34&#45;&gt;32</title>
<path fill="none" stroke="#c0c0c0" stroke-width="2" d="M662.167,-581.8314C662.167,-574.131 662.167,-564.9743 662.167,-556.4166"/>
<polygon fill="#c0c0c0" stroke="#c0c0c0" stroke-width="2" points="665.6671,-556.4132 662.167,-546.4133 658.6671,-556.4133 665.6671,-556.4132"/>
</g>
<!-- 35 -->
<g id="node36" class="node">
<title>35</title>
<path fill="none" stroke="#5682d8" stroke-width="2" d="M216.5662,-474C216.5662,-474 135.7678,-474 135.7678,-474 129.7678,-474 123.7678,-468 123.7678,-462 123.7678,-462 123.7678,-448 123.7678,-448 123.7678,-442 129.7678,-436 135.7678,-436 135.7678,-436 216.5662,-436 216.5662,-436 222.5662,-436 228.5662,-442 228.5662,-448 228.5662,-448 228.5662,-462 228.5662,-462 228.5662,-468 222.5662,-474 216.5662,-474"/>
<text text-anchor="middle" x="176.167" y="-462" font-family="sans" font-size="10.00" fill="#000000">align_to_consensus</text>
<text text-anchor="middle" x="176.167" y="-452" font-family="sans" font-size="10.00" fill="#000000">rep: a</text>
<text text-anchor="middle" x="176.167" y="-442" font-family="sans" font-size="10.00" fill="#000000">sample: ZI27_</text>
</g>
<!-- 35&#45;&gt;24 -->
<g id="edge37" class="edge">
<title>35&#45;&gt;24</title>
<path fill="none" stroke="#c0c0c0" stroke-width="2" d="M195.2238,-435.9432C204.2328,-426.9341 215.1145,-416.0525 224.8089,-406.3581"/>
<polygon fill="#c0c0c0" stroke="#c0c0c0" stroke-width="2" points="227.3439,-408.7728 231.9401,-399.2269 222.3941,-403.8231 227.3439,-408.7728"/>
</g>
<!-- 36&#45;&gt;1 -->
<g id="edge5" class="edge">
<title>36&#45;&gt;1</title>
<path fill="none" stroke="#c0c0c0" stroke-width="2" d="M135.7389,-509.989C127.8645,-500.1289 119.269,-487.2441 115.167,-474 108.7138,-453.1649 112.045,-428.6267 116.6779,-409.9885"/>
<polygon fill="#c0c0c0" stroke="#c0c0c0" stroke-width="2" points="120.065,-410.8714 119.3318,-400.302 113.3138,-409.0217 120.065,-410.8714"/>
</g>
<!-- 36&#45;&gt;24 -->
<g id="edge38" class="edge">
<title>36&#45;&gt;24</title>
<path fill="none" stroke="#c0c0c0" stroke-width="2" d="M194.7432,-510.4018C210.5326,-501.7451 227.0429,-489.7306 237.167,-474 249.4503,-454.9145 252.2183,-429.0831 252.1877,-409.4874"/>
<polygon fill="#c0c0c0" stroke="#c0c0c0" stroke-width="2" points="255.6823,-409.2312 251.9254,-399.3249 248.6847,-409.4119 255.6823,-409.2312"/>
</g>
<!-- 36&#45;&gt;35 -->
<g id="edge53" class="edge">
<title>36&#45;&gt;35</title>
<path fill="none" stroke="#c0c0c0" stroke-width="2" d="M158.0996,-509.9551C160.7016,-502.0405 163.8202,-492.5549 166.7282,-483.7096"/>
<polygon fill="#c0c0c0" stroke="#c0c0c0" stroke-width="2" points="170.085,-484.7058 169.8833,-474.1128 163.4351,-482.5195 170.085,-484.7058"/>
</g>
</g>
</svg>
