<?xml version="1.0" encoding="UTF-8" standalone="no"?>
<!DOCTYPE svg PUBLIC "-//W3C//DTD SVG 1.1//EN"
 "http://www.w3.org/Graphics/SVG/1.1/DTD/svg11.dtd">
<!-- Generated by graphviz version 2.40.1 (20161225.0304)
 -->
<!-- Title: snakemake_dag Pages: 1 -->
<svg width="1065pt" height="698pt"
 viewBox="0.00 0.00 1065.33 698.00" xmlns="http://www.w3.org/2000/svg" xmlns:xlink="http://www.w3.org/1999/xlink">
<g id="graph0" class="graph" transform="scale(1 1) rotate(0) translate(4 694)">
<title>snakemake_dag</title>
<polygon fill="#ffffff" stroke="transparent" points="-4,4 -4,-694 1061.334,-694 1061.334,4 -4,4"/>
<!-- 0 -->
<g id="node1" class="node">
<title>0</title>
<path fill="none" stroke="#56d8c9" stroke-width="2" d="M504.5012,-618C504.5012,-618 299.8328,-618 299.8328,-618 293.8328,-618 287.8328,-612 287.8328,-606 287.8328,-606 287.8328,-594 287.8328,-594 287.8328,-588 293.8328,-582 299.8328,-582 299.8328,-582 504.5012,-582 504.5012,-582 510.5012,-582 516.5012,-588 516.5012,-594 516.5012,-594 516.5012,-606 516.5012,-606 516.5012,-612 510.5012,-618 504.5012,-618"/>
<text text-anchor="middle" x="402.167" y="-602" font-family="sans" font-size="10.00" fill="#000000">trim_primer_quality</text>
<text text-anchor="middle" x="402.167" y="-592" font-family="sans" font-size="10.00" fill="#000000">out_dir: /Users/karthik/hpc_downloads/test_field</text>
</g>
<!-- 4 -->
<g id="node5" class="node">
<title>4</title>
<path fill="none" stroke="#56d89a" stroke-width="2" d="M430.5418,-546C430.5418,-546 369.7921,-546 369.7921,-546 363.7921,-546 357.7921,-540 357.7921,-534 357.7921,-534 357.7921,-522 357.7921,-522 357.7921,-516 363.7921,-510 369.7921,-510 369.7921,-510 430.5418,-510 430.5418,-510 436.5418,-510 442.5418,-516 442.5418,-522 442.5418,-522 442.5418,-534 442.5418,-534 442.5418,-540 436.5418,-546 430.5418,-546"/>
<text text-anchor="middle" x="400.167" y="-525" font-family="sans" font-size="10.00" fill="#000000">call_consensus</text>
</g>
<!-- 0&#45;&gt;4 -->
<g id="edge9" class="edge">
<title>0&#45;&gt;4</title>
<path fill="none" stroke="#c0c0c0" stroke-width="2" d="M401.6623,-581.8314C401.4484,-574.131 401.1941,-564.9743 400.9563,-556.4166"/>
<polygon fill="#c0c0c0" stroke="#c0c0c0" stroke-width="2" points="404.4549,-556.3122 400.6785,-546.4133 397.4576,-556.5066 404.4549,-556.3122"/>
</g>
<!-- 29 -->
<g id="node30" class="node">
<title>29</title>
<path fill="none" stroke="#d88556" stroke-width="2" d="M379.0879,-254C379.0879,-254 323.2461,-254 323.2461,-254 317.2461,-254 311.2461,-248 311.2461,-242 311.2461,-242 311.2461,-228 311.2461,-228 311.2461,-222 317.2461,-216 323.2461,-216 323.2461,-216 379.0879,-216 379.0879,-216 385.0879,-216 391.0879,-222 391.0879,-228 391.0879,-228 391.0879,-242 391.0879,-242 391.0879,-248 385.0879,-254 379.0879,-254"/>
<text text-anchor="middle" x="351.167" y="-242" font-family="sans" font-size="10.00" fill="#000000">remove_reads</text>
<text text-anchor="middle" x="351.167" y="-232" font-family="sans" font-size="10.00" fill="#000000">rep: a</text>
<text text-anchor="middle" x="351.167" y="-222" font-family="sans" font-size="10.00" fill="#000000">sample: ZI26_</text>
</g>
<!-- 0&#45;&gt;29 -->
<g id="edge44" class="edge">
<title>0&#45;&gt;29</title>
<path fill="none" stroke="#c0c0c0" stroke-width="2" d="M430.0545,-581.8391C463.8041,-557.4112 516.167,-510.5585 516.167,-455 516.167,-455 516.167,-455 516.167,-381 516.167,-318.4746 448.8921,-276.2704 400.2571,-253.9291"/>
<polygon fill="#c0c0c0" stroke="#c0c0c0" stroke-width="2" points="401.668,-250.7261 391.1089,-249.8569 398.8213,-257.1211 401.668,-250.7261"/>
</g>
<!-- 1 -->
<g id="node2" class="node">
<title>1</title>
<path fill="none" stroke="#d88556" stroke-width="2" d="M185.0879,-254C185.0879,-254 129.2461,-254 129.2461,-254 123.2461,-254 117.2461,-248 117.2461,-242 117.2461,-242 117.2461,-228 117.2461,-228 117.2461,-222 123.2461,-216 129.2461,-216 129.2461,-216 185.0879,-216 185.0879,-216 191.0879,-216 197.0879,-222 197.0879,-228 197.0879,-228 197.0879,-242 197.0879,-242 197.0879,-248 191.0879,-254 185.0879,-254"/>
<text text-anchor="middle" x="157.167" y="-242" font-family="sans" font-size="10.00" fill="#000000">remove_reads</text>
<text text-anchor="middle" x="157.167" y="-232" font-family="sans" font-size="10.00" fill="#000000">rep: b</text>
<text text-anchor="middle" x="157.167" y="-222" font-family="sans" font-size="10.00" fill="#000000">sample: ZI26_</text>
</g>
<!-- 9 -->
<g id="node10" class="node">
<title>9</title>
<path fill="none" stroke="#d85656" stroke-width="2" d="M213.839,-180C213.839,-180 100.495,-180 100.495,-180 94.495,-180 88.495,-174 88.495,-168 88.495,-168 88.495,-156 88.495,-156 88.495,-150 94.495,-144 100.495,-144 100.495,-144 213.839,-144 213.839,-144 219.839,-144 225.839,-150 225.839,-156 225.839,-156 225.839,-168 225.839,-168 225.839,-174 219.839,-180 213.839,-180"/>
<text text-anchor="middle" x="157.167" y="-159" font-family="sans" font-size="10.00" fill="#000000">call_variants_post_removal</text>
</g>
<!-- 1&#45;&gt;9 -->
<g id="edge16" class="edge">
<title>1&#45;&gt;9</title>
<path fill="none" stroke="#c0c0c0" stroke-width="2" d="M157.167,-215.8201C157.167,-208.0975 157.167,-199.0282 157.167,-190.5585"/>
<polygon fill="#c0c0c0" stroke="#c0c0c0" stroke-width="2" points="160.6671,-190.2973 157.167,-180.2973 153.6671,-190.2974 160.6671,-190.2973"/>
</g>
<!-- 2 -->
<g id="node3" class="node">
<title>2</title>
<path fill="none" stroke="#56d89a" stroke-width="2" d="M688.5418,-546C688.5418,-546 627.7921,-546 627.7921,-546 621.7921,-546 615.7921,-540 615.7921,-534 615.7921,-534 615.7921,-522 615.7921,-522 615.7921,-516 621.7921,-510 627.7921,-510 627.7921,-510 688.5418,-510 688.5418,-510 694.5418,-510 700.5418,-516 700.5418,-522 700.5418,-522 700.5418,-534 700.5418,-534 700.5418,-540 694.5418,-546 688.5418,-546"/>
<text text-anchor="middle" x="658.167" y="-525" font-family="sans" font-size="10.00" fill="#000000">call_consensus</text>
</g>
<!-- 16 -->
<g id="node17" class="node">
<title>16</title>
<path fill="none" stroke="#9fd856" stroke-width="2" d="M650.0321,-400C650.0321,-400 594.3019,-400 594.3019,-400 588.3019,-400 582.3019,-394 582.3019,-388 582.3019,-388 582.3019,-374 582.3019,-374 582.3019,-368 588.3019,-362 594.3019,-362 594.3019,-362 650.0321,-362 650.0321,-362 656.0321,-362 662.0321,-368 662.0321,-374 662.0321,-374 662.0321,-388 662.0321,-388 662.0321,-394 656.0321,-400 650.0321,-400"/>
<text text-anchor="middle" x="622.167" y="-388" font-family="sans" font-size="10.00" fill="#000000">create_bed</text>
<text text-anchor="middle" x="622.167" y="-378" font-family="sans" font-size="10.00" fill="#000000">rep: a</text>
<text text-anchor="middle" x="622.167" y="-368" font-family="sans" font-size="10.00" fill="#000000">sample: ZI27_</text>
</g>
<!-- 2&#45;&gt;16 -->
<g id="edge29" class="edge">
<title>2&#45;&gt;16</title>
<path fill="none" stroke="#c0c0c0" stroke-width="2" d="M636.3998,-509.8165C626.6947,-500.2816 616.3073,-487.7355 611.167,-474 603.474,-453.4435 606.9537,-428.7052 611.9618,-409.9122"/>
<polygon fill="#c0c0c0" stroke="#c0c0c0" stroke-width="2" points="615.3698,-410.7291 614.84,-400.1475 608.6554,-408.7499 615.3698,-410.7291"/>
</g>
<!-- 19 -->
<g id="node20" class="node">
<title>19</title>
<path fill="none" stroke="#d8b456" stroke-width="2" d="M712.5662,-474C712.5662,-474 631.7678,-474 631.7678,-474 625.7678,-474 619.7678,-468 619.7678,-462 619.7678,-462 619.7678,-448 619.7678,-448 619.7678,-442 625.7678,-436 631.7678,-436 631.7678,-436 712.5662,-436 712.5662,-436 718.5662,-436 724.5662,-442 724.5662,-448 724.5662,-448 724.5662,-462 724.5662,-462 724.5662,-468 718.5662,-474 712.5662,-474"/>
<text text-anchor="middle" x="672.167" y="-462" font-family="sans" font-size="10.00" fill="#000000">align_to_consensus</text>
<text text-anchor="middle" x="672.167" y="-452" font-family="sans" font-size="10.00" fill="#000000">rep: a</text>
<text text-anchor="middle" x="672.167" y="-442" font-family="sans" font-size="10.00" fill="#000000">sample: ZI27_</text>
</g>
<!-- 2&#45;&gt;19 -->
<g id="edge32" class="edge">
<title>2&#45;&gt;19</title>
<path fill="none" stroke="#c0c0c0" stroke-width="2" d="M661.6277,-509.9551C663.1292,-502.1256 664.9256,-492.7587 666.6063,-483.9952"/>
<polygon fill="#c0c0c0" stroke="#c0c0c0" stroke-width="2" points="670.0553,-484.5931 668.5015,-474.1128 663.1806,-483.2746 670.0553,-484.5931"/>
</g>
<!-- 34 -->
<g id="node35" class="node">
<title>34</title>
<path fill="none" stroke="#70d856" stroke-width="2" d="M749.7493,-399C749.7493,-399 702.5847,-399 702.5847,-399 696.5847,-399 690.5847,-393 690.5847,-387 690.5847,-387 690.5847,-375 690.5847,-375 690.5847,-369 696.5847,-363 702.5847,-363 702.5847,-363 749.7493,-363 749.7493,-363 755.7493,-363 761.7493,-369 761.7493,-375 761.7493,-375 761.7493,-387 761.7493,-387 761.7493,-393 755.7493,-399 749.7493,-399"/>
<text text-anchor="middle" x="726.167" y="-378" font-family="sans" font-size="10.00" fill="#000000">call_variants</text>
</g>
<!-- 2&#45;&gt;34 -->
<g id="edge50" class="edge">
<title>2&#45;&gt;34</title>
<path fill="none" stroke="#c0c0c0" stroke-width="2" d="M696.8584,-509.9437C710.9537,-501.2204 725.3401,-489.2799 733.167,-474 743.4288,-453.9666 740.4815,-428.2667 735.645,-408.9619"/>
<polygon fill="#c0c0c0" stroke="#c0c0c0" stroke-width="2" points="738.9898,-407.9268 732.9199,-399.2431 732.2497,-409.8167 738.9898,-407.9268"/>
</g>
<!-- 3 -->
<g id="node4" class="node">
<title>3</title>
<path fill="none" stroke="#56b1d8" stroke-width="2" d="M377.1362,-108C377.1362,-108 325.1978,-108 325.1978,-108 319.1978,-108 313.1978,-102 313.1978,-96 313.1978,-96 313.1978,-84 313.1978,-84 313.1978,-78 319.1978,-72 325.1978,-72 325.1978,-72 377.1362,-72 377.1362,-72 383.1362,-72 389.1362,-78 389.1362,-84 389.1362,-84 389.1362,-96 389.1362,-96 389.1362,-102 383.1362,-108 377.1362,-108"/>
<text text-anchor="middle" x="351.167" y="-92" font-family="sans" font-size="10.00" fill="#000000">filter_variants</text>
<text text-anchor="middle" x="351.167" y="-82" font-family="sans" font-size="10.00" fill="#000000">sample: ZI26</text>
</g>
<!-- 36 -->
<g id="node37" class="node">
<title>36</title>
<path fill="none" stroke="#56d86b" stroke-width="2" d="M535.167,-36C535.167,-36 505.167,-36 505.167,-36 499.167,-36 493.167,-30 493.167,-24 493.167,-24 493.167,-12 493.167,-12 493.167,-6 499.167,0 505.167,0 505.167,0 535.167,0 535.167,0 541.167,0 547.167,-6 547.167,-12 547.167,-12 547.167,-24 547.167,-24 547.167,-30 541.167,-36 535.167,-36"/>
<text text-anchor="middle" x="520.167" y="-15" font-family="sans" font-size="10.00" fill="#000000">all</text>
</g>
<!-- 3&#45;&gt;36 -->
<g id="edge54" class="edge">
<title>3&#45;&gt;36</title>
<path fill="none" stroke="#c0c0c0" stroke-width="2" d="M389.0939,-73.8418C417.3864,-61.7882 455.8092,-45.4187 483.7359,-33.521"/>
<polygon fill="#c0c0c0" stroke="#c0c0c0" stroke-width="2" points="485.3143,-36.653 493.1423,-29.5135 482.5706,-30.213 485.3143,-36.653"/>
</g>
<!-- 11 -->
<g id="node12" class="node">
<title>11</title>
<path fill="none" stroke="#d8b456" stroke-width="2" d="M438.5662,-474C438.5662,-474 357.7678,-474 357.7678,-474 351.7678,-474 345.7678,-468 345.7678,-462 345.7678,-462 345.7678,-448 345.7678,-448 345.7678,-442 351.7678,-436 357.7678,-436 357.7678,-436 438.5662,-436 438.5662,-436 444.5662,-436 450.5662,-442 450.5662,-448 450.5662,-448 450.5662,-462 450.5662,-462 450.5662,-468 444.5662,-474 438.5662,-474"/>
<text text-anchor="middle" x="398.167" y="-462" font-family="sans" font-size="10.00" fill="#000000">align_to_consensus</text>
<text text-anchor="middle" x="398.167" y="-452" font-family="sans" font-size="10.00" fill="#000000">rep: a</text>
<text text-anchor="middle" x="398.167" y="-442" font-family="sans" font-size="10.00" fill="#000000">sample: ZI26_</text>
</g>
<!-- 4&#45;&gt;11 -->
<g id="edge18" class="edge">
<title>4&#45;&gt;11</title>
<path fill="none" stroke="#c0c0c0" stroke-width="2" d="M399.6726,-509.9551C399.4604,-502.2107 399.2071,-492.9622 398.9692,-484.2811"/>
<polygon fill="#c0c0c0" stroke="#c0c0c0" stroke-width="2" points="402.4633,-484.0132 398.6906,-474.1128 395.4659,-484.205 402.4633,-484.0132"/>
</g>
<!-- 24 -->
<g id="node25" class="node">
<title>24</title>
<path fill="none" stroke="#9fd856" stroke-width="2" d="M476.0321,-400C476.0321,-400 420.3019,-400 420.3019,-400 414.3019,-400 408.3019,-394 408.3019,-388 408.3019,-388 408.3019,-374 408.3019,-374 408.3019,-368 414.3019,-362 420.3019,-362 420.3019,-362 476.0321,-362 476.0321,-362 482.0321,-362 488.0321,-368 488.0321,-374 488.0321,-374 488.0321,-388 488.0321,-388 488.0321,-394 482.0321,-400 476.0321,-400"/>
<text text-anchor="middle" x="448.167" y="-388" font-family="sans" font-size="10.00" fill="#000000">create_bed</text>
<text text-anchor="middle" x="448.167" y="-378" font-family="sans" font-size="10.00" fill="#000000">rep: a</text>
<text text-anchor="middle" x="448.167" y="-368" font-family="sans" font-size="10.00" fill="#000000">sample: ZI26_</text>
</g>
<!-- 4&#45;&gt;24 -->
<g id="edge40" class="edge">
<title>4&#45;&gt;24</title>
<path fill="none" stroke="#c0c0c0" stroke-width="2" d="M428.599,-509.9601C440.3898,-500.7801 452.7874,-488.4872 459.167,-474 468.1092,-453.6935 464.3912,-428.6078 458.9699,-409.6094"/>
<polygon fill="#c0c0c0" stroke="#c0c0c0" stroke-width="2" points="462.291,-408.5033 455.9454,-400.019 455.6151,-410.6087 462.291,-408.5033"/>
</g>
<!-- 31 -->
<g id="node32" class="node">
<title>31</title>
<path fill="none" stroke="#70d856" stroke-width="2" d="M378.7493,-399C378.7493,-399 331.5847,-399 331.5847,-399 325.5847,-399 319.5847,-393 319.5847,-387 319.5847,-387 319.5847,-375 319.5847,-375 319.5847,-369 325.5847,-363 331.5847,-363 331.5847,-363 378.7493,-363 378.7493,-363 384.7493,-363 390.7493,-369 390.7493,-375 390.7493,-375 390.7493,-387 390.7493,-387 390.7493,-393 384.7493,-399 378.7493,-399"/>
<text text-anchor="middle" x="355.167" y="-378" font-family="sans" font-size="10.00" fill="#000000">call_variants</text>
</g>
<!-- 4&#45;&gt;31 -->
<g id="edge47" class="edge">
<title>4&#45;&gt;31</title>
<path fill="none" stroke="#c0c0c0" stroke-width="2" d="M369.1909,-509.8776C356.8101,-500.8263 343.9088,-488.6581 337.167,-474 327.6285,-453.2613 333.7255,-427.6711 341.3068,-408.5873"/>
<polygon fill="#c0c0c0" stroke="#c0c0c0" stroke-width="2" points="344.5827,-409.8293 345.3317,-399.261 338.1557,-407.0556 344.5827,-409.8293"/>
</g>
<!-- 5 -->
<g id="node6" class="node">
<title>5</title>
<path fill="none" stroke="#56d89a" stroke-width="2" d="M206.5418,-546C206.5418,-546 145.7921,-546 145.7921,-546 139.7921,-546 133.7921,-540 133.7921,-534 133.7921,-534 133.7921,-522 133.7921,-522 133.7921,-516 139.7921,-510 145.7921,-510 145.7921,-510 206.5418,-510 206.5418,-510 212.5418,-510 218.5418,-516 218.5418,-522 218.5418,-522 218.5418,-534 218.5418,-534 218.5418,-540 212.5418,-546 206.5418,-546"/>
<text text-anchor="middle" x="176.167" y="-525" font-family="sans" font-size="10.00" fill="#000000">call_consensus</text>
</g>
<!-- 20 -->
<g id="node21" class="node">
<title>20</title>
<path fill="none" stroke="#70d856" stroke-width="2" d="M288.7493,-399C288.7493,-399 241.5847,-399 241.5847,-399 235.5847,-399 229.5847,-393 229.5847,-387 229.5847,-387 229.5847,-375 229.5847,-375 229.5847,-369 235.5847,-363 241.5847,-363 241.5847,-363 288.7493,-363 288.7493,-363 294.7493,-363 300.7493,-369 300.7493,-375 300.7493,-375 300.7493,-387 300.7493,-387 300.7493,-393 294.7493,-399 288.7493,-399"/>
<text text-anchor="middle" x="265.167" y="-378" font-family="sans" font-size="10.00" fill="#000000">call_variants</text>
</g>
<!-- 5&#45;&gt;20 -->
<g id="edge33" class="edge">
<title>5&#45;&gt;20</title>
<path fill="none" stroke="#c0c0c0" stroke-width="2" d="M218.6302,-511.3545C234.8089,-502.7395 251.6336,-490.5005 261.167,-474 272.4224,-454.5189 272.6189,-428.7222 270.4559,-409.2404"/>
<polygon fill="#c0c0c0" stroke="#c0c0c0" stroke-width="2" points="273.8976,-408.5765 269.0668,-399.1471 266.963,-409.531 273.8976,-408.5765"/>
</g>
<!-- 30 -->
<g id="node31" class="node">
<title>30</title>
<path fill="none" stroke="#9fd856" stroke-width="2" d="M200.0321,-400C200.0321,-400 144.3019,-400 144.3019,-400 138.3019,-400 132.3019,-394 132.3019,-388 132.3019,-388 132.3019,-374 132.3019,-374 132.3019,-368 138.3019,-362 144.3019,-362 144.3019,-362 200.0321,-362 200.0321,-362 206.0321,-362 212.0321,-368 212.0321,-374 212.0321,-374 212.0321,-388 212.0321,-388 212.0321,-394 206.0321,-400 200.0321,-400"/>
<text text-anchor="middle" x="172.167" y="-388" font-family="sans" font-size="10.00" fill="#000000">create_bed</text>
<text text-anchor="middle" x="172.167" y="-378" font-family="sans" font-size="10.00" fill="#000000">rep: b</text>
<text text-anchor="middle" x="172.167" y="-368" font-family="sans" font-size="10.00" fill="#000000">sample: ZI26_</text>
</g>
<!-- 5&#45;&gt;30 -->
<g id="edge46" class="edge">
<title>5&#45;&gt;30</title>
<path fill="none" stroke="#c0c0c0" stroke-width="2" d="M159.7389,-509.989C151.8645,-500.1289 143.269,-487.2441 139.167,-474 134.1702,-457.8672 134.6588,-452.2761 139.167,-436 141.7865,-426.5429 146.513,-417.0793 151.5855,-408.7343"/>
<polygon fill="#c0c0c0" stroke="#c0c0c0" stroke-width="2" points="154.6346,-410.4653 157.1422,-400.1715 148.7626,-406.6548 154.6346,-410.4653"/>
</g>
<!-- 32 -->
<g id="node33" class="node">
<title>32</title>
<path fill="none" stroke="#d8b456" stroke-width="2" d="M240.5662,-474C240.5662,-474 159.7678,-474 159.7678,-474 153.7678,-474 147.7678,-468 147.7678,-462 147.7678,-462 147.7678,-448 147.7678,-448 147.7678,-442 153.7678,-436 159.7678,-436 159.7678,-436 240.5662,-436 240.5662,-436 246.5662,-436 252.5662,-442 252.5662,-448 252.5662,-448 252.5662,-462 252.5662,-462 252.5662,-468 246.5662,-474 240.5662,-474"/>
<text text-anchor="middle" x="200.167" y="-462" font-family="sans" font-size="10.00" fill="#000000">align_to_consensus</text>
<text text-anchor="middle" x="200.167" y="-452" font-family="sans" font-size="10.00" fill="#000000">rep: b</text>
<text text-anchor="middle" x="200.167" y="-442" font-family="sans" font-size="10.00" fill="#000000">sample: ZI26_</text>
</g>
<!-- 5&#45;&gt;32 -->
<g id="edge49" class="edge">
<title>5&#45;&gt;32</title>
<path fill="none" stroke="#c0c0c0" stroke-width="2" d="M182.0996,-509.9551C184.7016,-502.0405 187.8202,-492.5549 190.7282,-483.7096"/>
<polygon fill="#c0c0c0" stroke="#c0c0c0" stroke-width="2" points="194.085,-484.7058 193.8833,-474.1128 187.4351,-482.5195 194.085,-484.7058"/>
</g>
<!-- 6 -->
<g id="node7" class="node">
<title>6</title>
<path fill="none" stroke="#56d8c9" stroke-width="2" d="M757.5012,-618C757.5012,-618 552.8328,-618 552.8328,-618 546.8328,-618 540.8328,-612 540.8328,-606 540.8328,-606 540.8328,-594 540.8328,-594 540.8328,-588 546.8328,-582 552.8328,-582 552.8328,-582 757.5012,-582 757.5012,-582 763.5012,-582 769.5012,-588 769.5012,-594 769.5012,-594 769.5012,-606 769.5012,-606 769.5012,-612 763.5012,-618 757.5012,-618"/>
<text text-anchor="middle" x="655.167" y="-602" font-family="sans" font-size="10.00" fill="#000000">trim_primer_quality</text>
<text text-anchor="middle" x="655.167" y="-592" font-family="sans" font-size="10.00" fill="#000000">out_dir: /Users/karthik/hpc_downloads/test_field</text>
</g>
<!-- 6&#45;&gt;2 -->
<g id="edge4" class="edge">
<title>6&#45;&gt;2</title>
<path fill="none" stroke="#c0c0c0" stroke-width="2" d="M655.924,-581.8314C656.2449,-574.131 656.6264,-564.9743 656.983,-556.4166"/>
<polygon fill="#c0c0c0" stroke="#c0c0c0" stroke-width="2" points="660.4803,-556.5503 657.3998,-546.4133 653.4864,-556.2589 660.4803,-556.5503"/>
</g>
<!-- 17 -->
<g id="node18" class="node">
<title>17</title>
<path fill="none" stroke="#d88556" stroke-width="2" d="M717.0879,-254C717.0879,-254 661.2461,-254 661.2461,-254 655.2461,-254 649.2461,-248 649.2461,-242 649.2461,-242 649.2461,-228 649.2461,-228 649.2461,-222 655.2461,-216 661.2461,-216 661.2461,-216 717.0879,-216 717.0879,-216 723.0879,-216 729.0879,-222 729.0879,-228 729.0879,-228 729.0879,-242 729.0879,-242 729.0879,-248 723.0879,-254 717.0879,-254"/>
<text text-anchor="middle" x="689.167" y="-242" font-family="sans" font-size="10.00" fill="#000000">remove_reads</text>
<text text-anchor="middle" x="689.167" y="-232" font-family="sans" font-size="10.00" fill="#000000">rep: a</text>
<text text-anchor="middle" x="689.167" y="-222" font-family="sans" font-size="10.00" fill="#000000">sample: ZI27_</text>
</g>
<!-- 6&#45;&gt;17 -->
<g id="edge31" class="edge">
<title>6&#45;&gt;17</title>
<path fill="none" stroke="#c0c0c0" stroke-width="2" d="M631.487,-581.9754C601.6344,-557.0072 554.167,-508.841 554.167,-455 554.167,-455 554.167,-455 554.167,-381 554.167,-326.9198 604.7177,-284.3558 643.9529,-259.4642"/>
<polygon fill="#c0c0c0" stroke="#c0c0c0" stroke-width="2" points="645.9515,-262.344 652.634,-254.1225 642.283,-256.3822 645.9515,-262.344"/>
</g>
<!-- 7 -->
<g id="node8" class="node">
<title>7</title>
<path fill="none" stroke="#56b1d8" stroke-width="2" d="M715.1362,-108C715.1362,-108 663.1978,-108 663.1978,-108 657.1978,-108 651.1978,-102 651.1978,-96 651.1978,-96 651.1978,-84 651.1978,-84 651.1978,-78 657.1978,-72 663.1978,-72 663.1978,-72 715.1362,-72 715.1362,-72 721.1362,-72 727.1362,-78 727.1362,-84 727.1362,-84 727.1362,-96 727.1362,-96 727.1362,-102 721.1362,-108 715.1362,-108"/>
<text text-anchor="middle" x="689.167" y="-92" font-family="sans" font-size="10.00" fill="#000000">filter_variants</text>
<text text-anchor="middle" x="689.167" y="-82" font-family="sans" font-size="10.00" fill="#000000">sample: ZI27</text>
</g>
<!-- 7&#45;&gt;36 -->
<g id="edge53" class="edge">
<title>7&#45;&gt;36</title>
<path fill="none" stroke="#c0c0c0" stroke-width="2" d="M651.2401,-73.8418C622.9475,-61.7882 584.5248,-45.4187 556.5981,-33.521"/>
<polygon fill="#c0c0c0" stroke="#c0c0c0" stroke-width="2" points="557.7634,-30.213 547.1916,-29.5135 555.0197,-36.653 557.7634,-30.213"/>
</g>
<!-- 8 -->
<g id="node9" class="node">
<title>8</title>
<path fill="none" stroke="#ced856" stroke-width="2" d="M973.5928,-690C973.5928,-690 912.7412,-690 912.7412,-690 906.7412,-690 900.7412,-684 900.7412,-678 900.7412,-678 900.7412,-666 900.7412,-666 900.7412,-660 906.7412,-654 912.7412,-654 912.7412,-654 973.5928,-654 973.5928,-654 979.5928,-654 985.5928,-660 985.5928,-666 985.5928,-666 985.5928,-678 985.5928,-678 985.5928,-684 979.5928,-690 973.5928,-690"/>
<text text-anchor="middle" x="943.167" y="-674" font-family="sans" font-size="10.00" fill="#000000">align_reads</text>
<text text-anchor="middle" x="943.167" y="-664" font-family="sans" font-size="10.00" fill="#000000">sample: ZI27_b</text>
</g>
<!-- 25 -->
<g id="node26" class="node">
<title>25</title>
<path fill="none" stroke="#56d8c9" stroke-width="2" d="M1045.5012,-618C1045.5012,-618 840.8328,-618 840.8328,-618 834.8328,-618 828.8328,-612 828.8328,-606 828.8328,-606 828.8328,-594 828.8328,-594 828.8328,-588 834.8328,-582 840.8328,-582 840.8328,-582 1045.5012,-582 1045.5012,-582 1051.5012,-582 1057.5012,-588 1057.5012,-594 1057.5012,-594 1057.5012,-606 1057.5012,-606 1057.5012,-612 1051.5012,-618 1045.5012,-618"/>
<text text-anchor="middle" x="943.167" y="-602" font-family="sans" font-size="10.00" fill="#000000">trim_primer_quality</text>
<text text-anchor="middle" x="943.167" y="-592" font-family="sans" font-size="10.00" fill="#000000">out_dir: /Users/karthik/hpc_downloads/test_field</text>
</g>
<!-- 8&#45;&gt;25 -->
<g id="edge41" class="edge">
<title>8&#45;&gt;25</title>
<path fill="none" stroke="#c0c0c0" stroke-width="2" d="M943.167,-653.8314C943.167,-646.131 943.167,-636.9743 943.167,-628.4166"/>
<polygon fill="#c0c0c0" stroke="#c0c0c0" stroke-width="2" points="946.6671,-628.4132 943.167,-618.4133 939.6671,-628.4133 946.6671,-628.4132"/>
</g>
<!-- 9&#45;&gt;3 -->
<g id="edge7" class="edge">
<title>9&#45;&gt;3</title>
<path fill="none" stroke="#c0c0c0" stroke-width="2" d="M206.1214,-143.8314C235.9723,-132.7527 273.9448,-118.6598 303.5487,-107.6728"/>
<polygon fill="#c0c0c0" stroke="#c0c0c0" stroke-width="2" points="305.0863,-110.8355 313.2436,-104.0747 302.6506,-104.2729 305.0863,-110.8355"/>
</g>
<!-- 10 -->
<g id="node11" class="node">
<title>10</title>
<path fill="none" stroke="#d8b456" stroke-width="2" d="M910.5662,-474C910.5662,-474 829.7678,-474 829.7678,-474 823.7678,-474 817.7678,-468 817.7678,-462 817.7678,-462 817.7678,-448 817.7678,-448 817.7678,-442 823.7678,-436 829.7678,-436 829.7678,-436 910.5662,-436 910.5662,-436 916.5662,-436 922.5662,-442 922.5662,-448 922.5662,-448 922.5662,-462 922.5662,-462 922.5662,-468 916.5662,-474 910.5662,-474"/>
<text text-anchor="middle" x="870.167" y="-462" font-family="sans" font-size="10.00" fill="#000000">align_to_consensus</text>
<text text-anchor="middle" x="870.167" y="-452" font-family="sans" font-size="10.00" fill="#000000">rep: b</text>
<text text-anchor="middle" x="870.167" y="-442" font-family="sans" font-size="10.00" fill="#000000">sample: ZI27_</text>
</g>
<!-- 23 -->
<g id="node24" class="node">
<title>23</title>
<path fill="none" stroke="#70d856" stroke-width="2" d="M839.7493,-399C839.7493,-399 792.5847,-399 792.5847,-399 786.5847,-399 780.5847,-393 780.5847,-387 780.5847,-387 780.5847,-375 780.5847,-375 780.5847,-369 786.5847,-363 792.5847,-363 792.5847,-363 839.7493,-363 839.7493,-363 845.7493,-363 851.7493,-369 851.7493,-375 851.7493,-375 851.7493,-387 851.7493,-387 851.7493,-393 845.7493,-399 839.7493,-399"/>
<text text-anchor="middle" x="816.167" y="-378" font-family="sans" font-size="10.00" fill="#000000">call_variants</text>
</g>
<!-- 10&#45;&gt;23 -->
<g id="edge39" class="edge">
<title>10&#45;&gt;23</title>
<path fill="none" stroke="#c0c0c0" stroke-width="2" d="M856.2607,-435.9432C849.9443,-427.2874 842.3665,-416.9031 835.5077,-407.5039"/>
<polygon fill="#c0c0c0" stroke="#c0c0c0" stroke-width="2" points="838.1897,-405.2416 829.4677,-399.2269 832.5351,-409.3679 838.1897,-405.2416"/>
</g>
<!-- 11&#45;&gt;31 -->
<g id="edge48" class="edge">
<title>11&#45;&gt;31</title>
<path fill="none" stroke="#c0c0c0" stroke-width="2" d="M387.0934,-435.9432C382.1664,-427.4641 376.2755,-417.3262 370.903,-408.0806"/>
<polygon fill="#c0c0c0" stroke="#c0c0c0" stroke-width="2" points="373.8087,-406.1146 365.7583,-399.2269 367.7563,-409.6316 373.8087,-406.1146"/>
</g>
<!-- 12 -->
<g id="node13" class="node">
<title>12</title>
<path fill="none" stroke="#d85656" stroke-width="2" d="M407.839,-180C407.839,-180 294.495,-180 294.495,-180 288.495,-180 282.495,-174 282.495,-168 282.495,-168 282.495,-156 282.495,-156 282.495,-150 288.495,-144 294.495,-144 294.495,-144 407.839,-144 407.839,-144 413.839,-144 419.839,-150 419.839,-156 419.839,-156 419.839,-168 419.839,-168 419.839,-174 413.839,-180 407.839,-180"/>
<text text-anchor="middle" x="351.167" y="-159" font-family="sans" font-size="10.00" fill="#000000">call_variants_post_removal</text>
</g>
<!-- 12&#45;&gt;3 -->
<g id="edge5" class="edge">
<title>12&#45;&gt;3</title>
<path fill="none" stroke="#c0c0c0" stroke-width="2" d="M351.167,-143.8314C351.167,-136.131 351.167,-126.9743 351.167,-118.4166"/>
<polygon fill="#c0c0c0" stroke="#c0c0c0" stroke-width="2" points="354.6671,-118.4132 351.167,-108.4133 347.6671,-118.4133 354.6671,-118.4132"/>
</g>
<!-- 13 -->
<g id="node14" class="node">
<title>13</title>
<path fill="none" stroke="#5682d8" stroke-width="2" d="M359.97,-326C359.97,-326 310.364,-326 310.364,-326 304.364,-326 298.364,-320 298.364,-314 298.364,-314 298.364,-302 298.364,-302 298.364,-296 304.364,-290 310.364,-290 310.364,-290 359.97,-290 359.97,-290 365.97,-290 371.97,-296 371.97,-302 371.97,-302 371.97,-314 371.97,-314 371.97,-320 365.97,-326 359.97,-326"/>
<text text-anchor="middle" x="335.167" y="-310" font-family="sans" font-size="10.00" fill="#000000">get_masked</text>
<text text-anchor="middle" x="335.167" y="-300" font-family="sans" font-size="10.00" fill="#000000">sample: ZI26</text>
</g>
<!-- 13&#45;&gt;1 -->
<g id="edge3" class="edge">
<title>13&#45;&gt;1</title>
<path fill="none" stroke="#c0c0c0" stroke-width="2" d="M298.2853,-292.8744C271.7536,-281.9934 235.6809,-267.1995 206.6483,-255.2929"/>
<polygon fill="#c0c0c0" stroke="#c0c0c0" stroke-width="2" points="207.6766,-251.9317 197.0963,-251.3755 205.0204,-258.4083 207.6766,-251.9317"/>
</g>
<!-- 13&#45;&gt;29 -->
<g id="edge45" class="edge">
<title>13&#45;&gt;29</title>
<path fill="none" stroke="#c0c0c0" stroke-width="2" d="M339.122,-289.9551C340.8381,-282.1256 342.8911,-272.7587 344.8119,-263.9952"/>
<polygon fill="#c0c0c0" stroke="#c0c0c0" stroke-width="2" points="348.2557,-264.6303 346.9779,-254.1128 341.418,-263.1316 348.2557,-264.6303"/>
</g>
<!-- 14 -->
<g id="node15" class="node">
<title>14</title>
<path fill="none" stroke="#5682d8" stroke-width="2" d="M795.97,-326C795.97,-326 746.364,-326 746.364,-326 740.364,-326 734.364,-320 734.364,-314 734.364,-314 734.364,-302 734.364,-302 734.364,-296 740.364,-290 746.364,-290 746.364,-290 795.97,-290 795.97,-290 801.97,-290 807.97,-296 807.97,-302 807.97,-302 807.97,-314 807.97,-314 807.97,-320 801.97,-326 795.97,-326"/>
<text text-anchor="middle" x="771.167" y="-310" font-family="sans" font-size="10.00" fill="#000000">get_masked</text>
<text text-anchor="middle" x="771.167" y="-300" font-family="sans" font-size="10.00" fill="#000000">sample: ZI27</text>
</g>
<!-- 14&#45;&gt;17 -->
<g id="edge30" class="edge">
<title>14&#45;&gt;17</title>
<path fill="none" stroke="#c0c0c0" stroke-width="2" d="M750.8973,-289.9551C741.0511,-281.1895 729.0402,-270.4969 718.239,-260.8812"/>
<polygon fill="#c0c0c0" stroke="#c0c0c0" stroke-width="2" points="720.4326,-258.148 710.6362,-254.1128 715.778,-263.3763 720.4326,-258.148"/>
</g>
<!-- 22 -->
<g id="node23" class="node">
<title>22</title>
<path fill="none" stroke="#d88556" stroke-width="2" d="M872.0879,-254C872.0879,-254 816.2461,-254 816.2461,-254 810.2461,-254 804.2461,-248 804.2461,-242 804.2461,-242 804.2461,-228 804.2461,-228 804.2461,-222 810.2461,-216 816.2461,-216 816.2461,-216 872.0879,-216 872.0879,-216 878.0879,-216 884.0879,-222 884.0879,-228 884.0879,-228 884.0879,-242 884.0879,-242 884.0879,-248 878.0879,-254 872.0879,-254"/>
<text text-anchor="middle" x="844.167" y="-242" font-family="sans" font-size="10.00" fill="#000000">remove_reads</text>
<text text-anchor="middle" x="844.167" y="-232" font-family="sans" font-size="10.00" fill="#000000">rep: b</text>
<text text-anchor="middle" x="844.167" y="-222" font-family="sans" font-size="10.00" fill="#000000">sample: ZI27_</text>
</g>
<!-- 14&#45;&gt;22 -->
<g id="edge36" class="edge">
<title>14&#45;&gt;22</title>
<path fill="none" stroke="#c0c0c0" stroke-width="2" d="M789.2119,-289.9551C797.8073,-281.3597 808.2556,-270.9114 817.7244,-261.4426"/>
<polygon fill="#c0c0c0" stroke="#c0c0c0" stroke-width="2" points="820.4579,-263.6588 825.0542,-254.1128 815.5082,-258.709 820.4579,-263.6588"/>
</g>
<!-- 15 -->
<g id="node16" class="node">
<title>15</title>
<path fill="none" stroke="#d85656" stroke-width="2" d="M900.839,-180C900.839,-180 787.495,-180 787.495,-180 781.495,-180 775.495,-174 775.495,-168 775.495,-168 775.495,-156 775.495,-156 775.495,-150 781.495,-144 787.495,-144 787.495,-144 900.839,-144 900.839,-144 906.839,-144 912.839,-150 912.839,-156 912.839,-156 912.839,-168 912.839,-168 912.839,-174 906.839,-180 900.839,-180"/>
<text text-anchor="middle" x="844.167" y="-159" font-family="sans" font-size="10.00" fill="#000000">call_variants_post_removal</text>
</g>
<!-- 15&#45;&gt;7 -->
<g id="edge13" class="edge">
<title>15&#45;&gt;7</title>
<path fill="none" stroke="#c0c0c0" stroke-width="2" d="M805.0539,-143.8314C784.1019,-134.0988 758.1419,-122.04 736.1067,-111.8043"/>
<polygon fill="#c0c0c0" stroke="#c0c0c0" stroke-width="2" points="737.4732,-108.5799 726.9294,-107.5412 734.5242,-114.9284 737.4732,-108.5799"/>
</g>
<!-- 16&#45;&gt;7 -->
<g id="edge12" class="edge">
<title>16&#45;&gt;7</title>
<path fill="none" stroke="#c0c0c0" stroke-width="2" d="M615.1159,-361.7823C600.8733,-319.5427 573.1249,-216.6059 611.167,-144 618.1851,-130.6055 630.2019,-119.873 642.7292,-111.6159"/>
<polygon fill="#c0c0c0" stroke="#c0c0c0" stroke-width="2" points="644.7256,-114.4976 651.4284,-106.2926 641.0718,-108.5268 644.7256,-114.4976"/>
</g>
<!-- 16&#45;&gt;14 -->
<g id="edge26" class="edge">
<title>16&#45;&gt;14</title>
<path fill="none" stroke="#c0c0c0" stroke-width="2" d="M661.315,-361.8201C680.9051,-352.2223 704.7408,-340.5444 725.1963,-330.5226"/>
<polygon fill="#c0c0c0" stroke="#c0c0c0" stroke-width="2" points="726.8893,-333.5907 734.3295,-326.0479 723.8095,-327.3045 726.8893,-333.5907"/>
</g>
<!-- 26 -->
<g id="node27" class="node">
<title>26</title>
<path fill="none" stroke="#d85656" stroke-width="2" d="M745.839,-180C745.839,-180 632.495,-180 632.495,-180 626.495,-180 620.495,-174 620.495,-168 620.495,-168 620.495,-156 620.495,-156 620.495,-150 626.495,-144 632.495,-144 632.495,-144 745.839,-144 745.839,-144 751.839,-144 757.839,-150 757.839,-156 757.839,-156 757.839,-168 757.839,-168 757.839,-174 751.839,-180 745.839,-180"/>
<text text-anchor="middle" x="689.167" y="-159" font-family="sans" font-size="10.00" fill="#000000">call_variants_post_removal</text>
</g>
<!-- 17&#45;&gt;26 -->
<g id="edge42" class="edge">
<title>17&#45;&gt;26</title>
<path fill="none" stroke="#c0c0c0" stroke-width="2" d="M689.167,-215.8201C689.167,-208.0975 689.167,-199.0282 689.167,-190.5585"/>
<polygon fill="#c0c0c0" stroke="#c0c0c0" stroke-width="2" points="692.6671,-190.2973 689.167,-180.2973 685.6671,-190.2974 692.6671,-190.2973"/>
</g>
<!-- 18 -->
<g id="node19" class="node">
<title>18</title>
<path fill="none" stroke="#ced856" stroke-width="2" d="M144.5928,-690C144.5928,-690 83.7412,-690 83.7412,-690 77.7412,-690 71.7412,-684 71.7412,-678 71.7412,-678 71.7412,-666 71.7412,-666 71.7412,-660 77.7412,-654 83.7412,-654 83.7412,-654 144.5928,-654 144.5928,-654 150.5928,-654 156.5928,-660 156.5928,-666 156.5928,-666 156.5928,-678 156.5928,-678 156.5928,-684 150.5928,-690 144.5928,-690"/>
<text text-anchor="middle" x="114.167" y="-674" font-family="sans" font-size="10.00" fill="#000000">align_reads</text>
<text text-anchor="middle" x="114.167" y="-664" font-family="sans" font-size="10.00" fill="#000000">sample: ZI26_b</text>
</g>
<!-- 28 -->
<g id="node29" class="node">
<title>28</title>
<path fill="none" stroke="#56d8c9" stroke-width="2" d="M216.5012,-618C216.5012,-618 11.8328,-618 11.8328,-618 5.8328,-618 -.1672,-612 -.1672,-606 -.1672,-606 -.1672,-594 -.1672,-594 -.1672,-588 5.8328,-582 11.8328,-582 11.8328,-582 216.5012,-582 216.5012,-582 222.5012,-582 228.5012,-588 228.5012,-594 228.5012,-594 228.5012,-606 228.5012,-606 228.5012,-612 222.5012,-618 216.5012,-618"/>
<text text-anchor="middle" x="114.167" y="-602" font-family="sans" font-size="10.00" fill="#000000">trim_primer_quality</text>
<text text-anchor="middle" x="114.167" y="-592" font-family="sans" font-size="10.00" fill="#000000">out_dir: /Users/karthik/hpc_downloads/test_field</text>
</g>
<!-- 18&#45;&gt;28 -->
<g id="edge43" class="edge">
<title>18&#45;&gt;28</title>
<path fill="none" stroke="#c0c0c0" stroke-width="2" d="M114.167,-653.8314C114.167,-646.131 114.167,-636.9743 114.167,-628.4166"/>
<polygon fill="#c0c0c0" stroke="#c0c0c0" stroke-width="2" points="117.6671,-628.4132 114.167,-618.4133 110.6671,-628.4133 117.6671,-628.4132"/>
</g>
<!-- 19&#45;&gt;34 -->
<g id="edge51" class="edge">
<title>19&#45;&gt;34</title>
<path fill="none" stroke="#c0c0c0" stroke-width="2" d="M686.0733,-435.9432C692.3897,-427.2874 699.9674,-416.9031 706.8263,-407.5039"/>
<polygon fill="#c0c0c0" stroke="#c0c0c0" stroke-width="2" points="709.7989,-409.3679 712.8663,-399.2269 704.1443,-405.2416 709.7989,-409.3679"/>
</g>
<!-- 20&#45;&gt;13 -->
<g id="edge21" class="edge">
<title>20&#45;&gt;13</title>
<path fill="none" stroke="#c0c0c0" stroke-width="2" d="M282.4704,-362.9551C290.9681,-354.0932 301.3545,-343.2616 310.653,-333.5646"/>
<polygon fill="#c0c0c0" stroke="#c0c0c0" stroke-width="2" points="313.4251,-335.7306 317.8201,-326.0904 308.3726,-330.8858 313.4251,-335.7306"/>
</g>
<!-- 21 -->
<g id="node22" class="node">
<title>21</title>
<path fill="none" stroke="#56d89a" stroke-width="2" d="M924.5418,-546C924.5418,-546 863.7921,-546 863.7921,-546 857.7921,-546 851.7921,-540 851.7921,-534 851.7921,-534 851.7921,-522 851.7921,-522 851.7921,-516 857.7921,-510 863.7921,-510 863.7921,-510 924.5418,-510 924.5418,-510 930.5418,-510 936.5418,-516 936.5418,-522 936.5418,-522 936.5418,-534 936.5418,-534 936.5418,-540 930.5418,-546 924.5418,-546"/>
<text text-anchor="middle" x="894.167" y="-525" font-family="sans" font-size="10.00" fill="#000000">call_consensus</text>
</g>
<!-- 21&#45;&gt;10 -->
<g id="edge17" class="edge">
<title>21&#45;&gt;10</title>
<path fill="none" stroke="#c0c0c0" stroke-width="2" d="M888.2344,-509.9551C885.6324,-502.0405 882.5138,-492.5549 879.6058,-483.7096"/>
<polygon fill="#c0c0c0" stroke="#c0c0c0" stroke-width="2" points="882.8989,-482.5195 876.4507,-474.1128 876.249,-484.7058 882.8989,-482.5195"/>
</g>
<!-- 21&#45;&gt;23 -->
<g id="edge38" class="edge">
<title>21&#45;&gt;23</title>
<path fill="none" stroke="#c0c0c0" stroke-width="2" d="M851.7976,-511.7886C835.4237,-503.1951 818.4277,-490.8548 809.167,-474 798.262,-454.1526 801.3621,-428.2326 806.4192,-408.7998"/>
<polygon fill="#c0c0c0" stroke="#c0c0c0" stroke-width="2" points="809.8305,-409.6034 809.2656,-399.0236 803.1096,-407.6465 809.8305,-409.6034"/>
</g>
<!-- 35 -->
<g id="node36" class="node">
<title>35</title>
<path fill="none" stroke="#9fd856" stroke-width="2" d="M948.0321,-400C948.0321,-400 892.3019,-400 892.3019,-400 886.3019,-400 880.3019,-394 880.3019,-388 880.3019,-388 880.3019,-374 880.3019,-374 880.3019,-368 886.3019,-362 892.3019,-362 892.3019,-362 948.0321,-362 948.0321,-362 954.0321,-362 960.0321,-368 960.0321,-374 960.0321,-374 960.0321,-388 960.0321,-388 960.0321,-394 954.0321,-400 948.0321,-400"/>
<text text-anchor="middle" x="920.167" y="-388" font-family="sans" font-size="10.00" fill="#000000">create_bed</text>
<text text-anchor="middle" x="920.167" y="-378" font-family="sans" font-size="10.00" fill="#000000">rep: b</text>
<text text-anchor="middle" x="920.167" y="-368" font-family="sans" font-size="10.00" fill="#000000">sample: ZI27_</text>
</g>
<!-- 21&#45;&gt;35 -->
<g id="edge52" class="edge">
<title>21&#45;&gt;35</title>
<path fill="none" stroke="#c0c0c0" stroke-width="2" d="M910.5951,-509.989C918.4695,-500.1289 927.0649,-487.2441 931.167,-474 937.6202,-453.1649 934.2889,-428.6267 929.6561,-409.9885"/>
<polygon fill="#c0c0c0" stroke="#c0c0c0" stroke-width="2" points="933.0202,-409.0217 927.0022,-400.302 926.269,-410.8714 933.0202,-409.0217"/>
</g>
<!-- 22&#45;&gt;15 -->
<g id="edge28" class="edge">
<title>22&#45;&gt;15</title>
<path fill="none" stroke="#c0c0c0" stroke-width="2" d="M844.167,-215.8201C844.167,-208.0975 844.167,-199.0282 844.167,-190.5585"/>
<polygon fill="#c0c0c0" stroke="#c0c0c0" stroke-width="2" points="847.6671,-190.2973 844.167,-180.2973 840.6671,-190.2974 847.6671,-190.2973"/>
</g>
<!-- 23&#45;&gt;14 -->
<g id="edge27" class="edge">
<title>23&#45;&gt;14</title>
<path fill="none" stroke="#c0c0c0" stroke-width="2" d="M805.0434,-362.9551C799.7969,-354.4441 793.4306,-344.1165 787.6394,-334.7219"/>
<polygon fill="#c0c0c0" stroke="#c0c0c0" stroke-width="2" points="790.5455,-332.7663 782.3186,-326.0904 784.5867,-336.4396 790.5455,-332.7663"/>
</g>
<!-- 24&#45;&gt;3 -->
<g id="edge8" class="edge">
<title>24&#45;&gt;3</title>
<path fill="none" stroke="#c0c0c0" stroke-width="2" d="M451.8057,-361.8903C458.8498,-319.4282 470.2722,-215.3567 429.167,-144 421.7525,-131.1288 409.8815,-120.6245 397.6142,-112.4168"/>
<polygon fill="#c0c0c0" stroke="#c0c0c0" stroke-width="2" points="399.443,-109.4325 389.108,-107.1007 395.7331,-115.3686 399.443,-109.4325"/>
</g>
<!-- 24&#45;&gt;13 -->
<g id="edge20" class="edge">
<title>24&#45;&gt;13</title>
<path fill="none" stroke="#c0c0c0" stroke-width="2" d="M418.4776,-361.8201C404.156,-352.5681 386.8426,-341.3833 371.7175,-331.6123"/>
<polygon fill="#c0c0c0" stroke="#c0c0c0" stroke-width="2" points="373.4031,-328.5344 363.1041,-326.0479 369.6046,-334.4142 373.4031,-328.5344"/>
</g>
<!-- 25&#45;&gt;21 -->
<g id="edge35" class="edge">
<title>25&#45;&gt;21</title>
<path fill="none" stroke="#c0c0c0" stroke-width="2" d="M930.8022,-581.8314C925.2161,-573.6232 918.504,-563.7606 912.3598,-554.7323"/>
<polygon fill="#c0c0c0" stroke="#c0c0c0" stroke-width="2" points="915.218,-552.7112 906.6982,-546.4133 909.431,-556.6496 915.218,-552.7112"/>
</g>
<!-- 25&#45;&gt;22 -->
<g id="edge37" class="edge">
<title>25&#45;&gt;22</title>
<path fill="none" stroke="#c0c0c0" stroke-width="2" d="M952.7103,-581.7937C965.9197,-554.8559 988.167,-502.4445 988.167,-455 988.167,-455 988.167,-455 988.167,-381 988.167,-325.4933 934.7559,-283.4435 892.991,-259.0475"/>
<polygon fill="#c0c0c0" stroke="#c0c0c0" stroke-width="2" points="894.7049,-255.9959 884.279,-254.1111 891.254,-262.0861 894.7049,-255.9959"/>
</g>
<!-- 26&#45;&gt;7 -->
<g id="edge15" class="edge">
<title>26&#45;&gt;7</title>
<path fill="none" stroke="#c0c0c0" stroke-width="2" d="M689.167,-143.8314C689.167,-136.131 689.167,-126.9743 689.167,-118.4166"/>
<polygon fill="#c0c0c0" stroke="#c0c0c0" stroke-width="2" points="692.6671,-118.4132 689.167,-108.4133 685.6671,-118.4133 692.6671,-118.4132"/>
</g>
<!-- 27 -->
<g id="node28" class="node">
<title>27</title>
<path fill="none" stroke="#ced856" stroke-width="2" d="M432.5928,-690C432.5928,-690 371.7412,-690 371.7412,-690 365.7412,-690 359.7412,-684 359.7412,-678 359.7412,-678 359.7412,-666 359.7412,-666 359.7412,-660 365.7412,-654 371.7412,-654 371.7412,-654 432.5928,-654 432.5928,-654 438.5928,-654 444.5928,-660 444.5928,-666 444.5928,-666 444.5928,-678 444.5928,-678 444.5928,-684 438.5928,-690 432.5928,-690"/>
<text text-anchor="middle" x="402.167" y="-674" font-family="sans" font-size="10.00" fill="#000000">align_reads</text>
<text text-anchor="middle" x="402.167" y="-664" font-family="sans" font-size="10.00" fill="#000000">sample: ZI26_a</text>
</g>
<!-- 27&#45;&gt;0 -->
<g id="edge1" class="edge">
<title>27&#45;&gt;0</title>
<path fill="none" stroke="#c0c0c0" stroke-width="2" d="M402.167,-653.8314C402.167,-646.131 402.167,-636.9743 402.167,-628.4166"/>
<polygon fill="#c0c0c0" stroke="#c0c0c0" stroke-width="2" points="405.6671,-628.4132 402.167,-618.4133 398.6671,-628.4133 405.6671,-628.4132"/>
</g>
<!-- 28&#45;&gt;1 -->
<g id="edge2" class="edge">
<title>28&#45;&gt;1</title>
<path fill="none" stroke="#c0c0c0" stroke-width="2" d="M107.5366,-581.9706C98.1636,-554.8247 82.167,-501.6606 82.167,-455 82.167,-455 82.167,-455 82.167,-381 82.167,-335.5488 111.281,-290.0587 133.2303,-262.2218"/>
<polygon fill="#c0c0c0" stroke="#c0c0c0" stroke-width="2" points="136.1833,-264.1376 139.772,-254.169 130.7501,-259.7239 136.1833,-264.1376"/>
</g>
<!-- 28&#45;&gt;5 -->
<g id="edge10" class="edge">
<title>28&#45;&gt;5</title>
<path fill="none" stroke="#c0c0c0" stroke-width="2" d="M129.8122,-581.8314C137.0261,-573.454 145.724,-563.3531 153.6275,-554.1749"/>
<polygon fill="#c0c0c0" stroke="#c0c0c0" stroke-width="2" points="156.4381,-556.2748 160.3111,-546.4133 151.1337,-551.7071 156.4381,-556.2748"/>
</g>
<!-- 29&#45;&gt;12 -->
<g id="edge19" class="edge">
<title>29&#45;&gt;12</title>
<path fill="none" stroke="#c0c0c0" stroke-width="2" d="M351.167,-215.8201C351.167,-208.0975 351.167,-199.0282 351.167,-190.5585"/>
<polygon fill="#c0c0c0" stroke="#c0c0c0" stroke-width="2" points="354.6671,-190.2973 351.167,-180.2973 347.6671,-190.2974 354.6671,-190.2973"/>
</g>
<!-- 30&#45;&gt;3 -->
<g id="edge6" class="edge">
<title>30&#45;&gt;3</title>
<path fill="none" stroke="#c0c0c0" stroke-width="2" d="M176.4366,-361.8914C186.7902,-318.9841 216.6384,-213.3275 273.167,-144 282.723,-132.2804 295.4573,-122.0214 307.8611,-113.6827"/>
<polygon fill="#c0c0c0" stroke="#c0c0c0" stroke-width="2" points="309.8345,-116.575 316.3524,-108.2222 306.0483,-110.6873 309.8345,-116.575"/>
</g>
<!-- 30&#45;&gt;13 -->
<g id="edge22" class="edge">
<title>30&#45;&gt;13</title>
<path fill="none" stroke="#c0c0c0" stroke-width="2" d="M212.0413,-363.1422C235.2555,-352.7457 264.6287,-339.5908 288.8629,-328.7374"/>
<polygon fill="#c0c0c0" stroke="#c0c0c0" stroke-width="2" points="290.5196,-331.8305 298.2156,-324.5488 287.6585,-325.4419 290.5196,-331.8305"/>
</g>
<!-- 31&#45;&gt;13 -->
<g id="edge23" class="edge">
<title>31&#45;&gt;13</title>
<path fill="none" stroke="#c0c0c0" stroke-width="2" d="M350.2232,-362.9551C347.9876,-354.7951 345.2944,-344.9652 342.8077,-335.8887"/>
<polygon fill="#c0c0c0" stroke="#c0c0c0" stroke-width="2" points="346.1413,-334.8101 340.1233,-326.0904 339.3901,-336.6598 346.1413,-334.8101"/>
</g>
<!-- 32&#45;&gt;20 -->
<g id="edge34" class="edge">
<title>32&#45;&gt;20</title>
<path fill="none" stroke="#c0c0c0" stroke-width="2" d="M216.9061,-435.9432C224.6643,-427.1108 234.0034,-416.4785 242.3909,-406.9297"/>
<polygon fill="#c0c0c0" stroke="#c0c0c0" stroke-width="2" points="245.1871,-409.0499 249.1569,-399.2269 239.9278,-404.4303 245.1871,-409.0499"/>
</g>
<!-- 33 -->
<g id="node34" class="node">
<title>33</title>
<path fill="none" stroke="#ced856" stroke-width="2" d="M685.5928,-690C685.5928,-690 624.7412,-690 624.7412,-690 618.7412,-690 612.7412,-684 612.7412,-678 612.7412,-678 612.7412,-666 612.7412,-666 612.7412,-660 618.7412,-654 624.7412,-654 624.7412,-654 685.5928,-654 685.5928,-654 691.5928,-654 697.5928,-660 697.5928,-666 697.5928,-666 697.5928,-678 697.5928,-678 697.5928,-684 691.5928,-690 685.5928,-690"/>
<text text-anchor="middle" x="655.167" y="-674" font-family="sans" font-size="10.00" fill="#000000">align_reads</text>
<text text-anchor="middle" x="655.167" y="-664" font-family="sans" font-size="10.00" fill="#000000">sample: ZI27_a</text>
</g>
<!-- 33&#45;&gt;6 -->
<g id="edge11" class="edge">
<title>33&#45;&gt;6</title>
<path fill="none" stroke="#c0c0c0" stroke-width="2" d="M655.167,-653.8314C655.167,-646.131 655.167,-636.9743 655.167,-628.4166"/>
<polygon fill="#c0c0c0" stroke="#c0c0c0" stroke-width="2" points="658.6671,-628.4132 655.167,-618.4133 651.6671,-628.4133 658.6671,-628.4132"/>
</g>
<!-- 34&#45;&gt;14 -->
<g id="edge25" class="edge">
<title>34&#45;&gt;14</title>
<path fill="none" stroke="#c0c0c0" stroke-width="2" d="M737.2906,-362.9551C742.5371,-354.4441 748.9034,-344.1165 754.6946,-334.7219"/>
<polygon fill="#c0c0c0" stroke="#c0c0c0" stroke-width="2" points="757.7473,-336.4396 760.0154,-326.0904 751.7885,-332.7663 757.7473,-336.4396"/>
</g>
<!-- 35&#45;&gt;7 -->
<g id="edge14" class="edge">
<title>35&#45;&gt;7</title>
<path fill="none" stroke="#c0c0c0" stroke-width="2" d="M927.5299,-361.8482C943.0451,-317.925 973.6253,-208.7482 922.167,-144 899.5152,-115.4981 798.5718,-100.7059 737.2217,-94.2148"/>
<polygon fill="#c0c0c0" stroke="#c0c0c0" stroke-width="2" points="737.2984,-90.7045 726.9946,-93.1705 736.5873,-97.6683 737.2984,-90.7045"/>
</g>
<!-- 35&#45;&gt;14 -->
<g id="edge24" class="edge">
<title>35&#45;&gt;14</title>
<path fill="none" stroke="#c0c0c0" stroke-width="2" d="M881.019,-361.8201C861.4289,-352.2223 837.5932,-340.5444 817.1377,-330.5226"/>
<polygon fill="#c0c0c0" stroke="#c0c0c0" stroke-width="2" points="818.5245,-327.3045 808.0044,-326.0479 815.4447,-333.5907 818.5245,-327.3045"/>
</g>
</g>
</svg>
